<?xml version="1.0" encoding="UTF-8"?>
<svg id="Layer_2" data-name="Layer 2" xmlns="http://www.w3.org/2000/svg" viewBox="0 0 29.79 28.34">
  <defs>
    <style>
      .cls-1 {
        fill: #fff;
        fill-rule: evenodd;
      }
    </style>
  </defs>
  <g id="Layer_1-2" data-name="Layer 1">
    <path class="cls-1" d="M5.65,9.35h0c.17,0,.35,0,.55.03h.03c.56-1.05,1.38-1.95,2.37-2.6,1.1-.72,2.42-1.14,3.83-1.14,1.74,0,3.34.64,4.57,1.69,1.13.97,1.95,2.3,2.28,3.8.99.24,1.85.78,2.5,1.52.74.85,1.2,1.96,1.2,3.17,0,1.33-.54,2.54-1.42,3.41-.88.87-2.09,1.41-3.42,1.41h0c-.76,0-5.23,0-8.69,0-1.95,0-3.57,0-4.05-.01-1.49-.02-2.83-.68-3.81-1.7-1-1.04-1.62-2.46-1.62-3.94,0-1.55.64-2.97,1.66-3.99s2.44-1.66,3.99-1.66h0ZM12.42,26.11c0-.37.3-.67.67-.67s.67.3.67.67c0,.25.1.47.26.63.16.16.38.26.63.26s.47-.1.63-.26l.03-.02c.15-.16.24-.37.24-.61,0-.25-.1-.47-.26-.63h0c-.16-.16-.38-.26-.63-.26h-3.23c-.37,0-.67-.3-.67-.67s.3-.67.67-.67h3.23c.61,0,1.17.25,1.57.65h0c.4.41.65.96.65,1.57s-.23,1.13-.61,1.53l-.04.04c-.4.4-.96.65-1.57.65s-1.17-.25-1.57-.65h0c-.4-.41-.65-.96-.65-1.57h0ZM9.67,23.19c.49.89.98,1.79.98,2.6h0c0,.9-.55,1.47-1.24,1.71-.25.09-.51.13-.78.13-.27,0-.53-.05-.78-.14-.68-.25-1.21-.82-1.19-1.7.01-.84.55-1.82,1.05-2.74.11-.21.22-.41.35-.65.06-.12.16-.23.3-.29.33-.16.73-.03.89.3.13.27.28.53.42.79h0ZM5.27,23.19c.49.89.98,1.79.98,2.6h0c0,.89-.53,1.45-1.2,1.7h-.04c-.25.1-.51.14-.78.14-.27,0-.53-.05-.78-.14-.68-.25-1.21-.82-1.19-1.7.01-.84.55-1.82,1.05-2.74.11-.21.22-.41.35-.65.06-.12.16-.23.3-.29.33-.16.73-.03.89.3.13.27.28.53.42.79h0ZM17.94,24.69c.1.53.38.99.77,1.32.39.33.89.52,1.43.52.62,0,1.18-.25,1.59-.66h0c.41-.41.66-.97.66-1.59s-.25-1.18-.66-1.59h0c-.41-.41-.97-.66-1.59-.66h-.06s-6.22,0-6.22,0c-.37,0-.66.3-.66.66s.3.66.66.66h6.22s.06,0,.06,0c.25,0,.48.1.65.27h0c.16.17.27.4.27.65s-.1.48-.27.65h0c-.16.17-.39.27-.65.27-.23,0-.43-.08-.59-.21-.16-.13-.28-.32-.32-.54-.07-.36-.41-.6-.77-.53-.36.07-.6.41-.53.77h0ZM16.37,2.54c-.7.81-1.23,1.76-1.56,2.81.1.03.2.07.31.11.86.32,1.65.79,2.34,1.38.63.54,1.16,1.17,1.59,1.88.35.58.63,1.22.81,1.89.41.13.8.31,1.16.53.49.3.92.66,1.29,1.09.43.49.78,1.06,1.01,1.68.21.56.33,1.16.35,1.79,1.13-.17,2.18-.58,3.1-1.16,1.29-.82,2.32-1.99,2.97-3.38.15-.33.01-.73-.32-.89-.17-.08-.35-.08-.51-.02-.27.07-.54.13-.82.16-.28.04-.58.06-.89.06-1.85,0-3.52-.75-4.73-1.96-1.21-1.21-1.96-2.88-1.96-4.73,0-.51.05-.99.15-1.45.1-.47.26-.93.47-1.37.16-.33.01-.73-.32-.88-.17-.08-.35-.08-.51-.02-1.54.43-2.9,1.32-3.92,2.5Z"/>
  </g>
</svg>