<?xml version="1.0" encoding="UTF-8"?>
<svg id="Layer_2" data-name="Layer 2" xmlns="http://www.w3.org/2000/svg" viewBox="0 0 21.59 25.32">
  <defs>
    <style>
      .cls-1 {
        fill: #fff;
        fill-rule: evenodd;
      }
    </style>
  </defs>
  <g id="Layer_1-2" data-name="Layer 1">
    <path class="cls-1" d="M7.59,0c1.23,0,2.34.5,3.15,1.3s1.3,1.92,1.3,3.15-.5,2.34-1.3,3.15c-.81.81-1.92,1.3-3.15,1.3-.1,0-.19,0-.28,0l-1.94,8.92c.49.2.93.49,1.29.86.17.17.32.35.45.54l4.99-2.31c-.14-.45-.21-.92-.21-1.41,0-1.34.54-2.55,1.42-3.43.88-.88,2.09-1.42,3.43-1.42s2.55.54,3.43,1.42c.88.88,1.42,2.09,1.42,3.43s-.54,2.55-1.42,3.43c-.88.88-2.09,1.42-3.43,1.42s-2.55-.54-3.43-1.42c-.24-.24-.46-.51-.65-.81l-4.99,2.31c.09.32.13.66.13,1.01,0,1.08-.44,2.05-1.14,2.76h0c-.71.71-1.68,1.15-2.76,1.15s-2.05-.44-2.76-1.14c-.71-.71-1.14-1.68-1.14-2.76s.44-2.05,1.14-2.76h0c.71-.71,1.68-1.14,2.76-1.14.06,0,.11,0,.17,0l1.94-8.92c-.59-.23-1.12-.57-1.56-1.01-.81-.81-1.3-1.92-1.3-3.15s.5-2.34,1.3-3.15c.8-.81,1.92-1.3,3.15-1.3Z"/>
  </g>
</svg>