<?xml version="1.0" encoding="UTF-8"?>
<svg id="Layer_2" data-name="Layer 2" xmlns="http://www.w3.org/2000/svg" viewBox="0 0 24.95 27.72">
  <defs>
    <style>
      .cls-1 {
        fill: #fff;
        fill-rule: evenodd;
      }
    </style>
  </defs>
  <g id="Layer_1-2" data-name="Layer 1">
    <path class="cls-1" d="M12.8.08l11.75,5.84c.27.13.42.41.4.7-.33,5.23-1.67,9.47-3.77,12.91-2.1,3.45-4.96,6.08-8.34,8.1-.24.15-.54.13-.76,0-3.37-2.02-6.22-4.65-8.32-8.09C1.67,16.08.34,11.84,0,6.61c-.02-.31.16-.59.43-.71L12.15.08c.21-.1.45-.1.64,0h0ZM13.67,17.71c.4,0,.73-.33.73-.73,0-.1-.02-.2-.06-.29l-.74-2.13c.4-.2.73-.5.96-.87.26-.4.4-.86.4-1.35,0-.68-.28-1.3-.73-1.76h0c-.45-.45-1.07-.73-1.76-.73s-1.31.28-1.76.73c-.45.45-.73,1.07-.73,1.76,0,.49.14.95.4,1.35.23.36.56.66.96.87l-.76,2.18c-.13.38.07.79.45.93.08.03.16.04.24.04h0s2.39,0,2.39,0Z"/>
  </g>
</svg>