<?xml version="1.0" encoding="UTF-8"?>
<svg id="Layer_2" data-name="Layer 2" xmlns="http://www.w3.org/2000/svg" viewBox="0 0 160.54 160.54">
  <defs>
    <style>
      .cls-1 {
        fill: #080a16;
      }
    </style>
  </defs>
  <g id="Calque_1" data-name="Calque 1">
    <path class="cls-1" d="M160.54,156.66c0-.13,0-.27,0-.4V0H0v160.54h160.54v-3.88h0ZM152.78,107.94C137.27,60.67,99.84,23.26,52.57,7.76h100.21v100.18ZM7.76,41.55V7.82c79.03,2.03,142.94,65.94,144.97,144.96h-33.74c-2.01-60.43-50.8-109.22-111.23-111.23ZM111.2,152.78h-33.71c-1.96-37.56-32.17-67.77-69.73-69.73v-33.71c56.15,2.01,101.44,47.3,103.44,103.44ZM7.76,90.83c33.28,1.94,60.01,28.67,61.95,61.95H7.76v-61.95Z"/>
  </g>
</svg>