<?xml version="1.0" encoding="UTF-8"?>
<svg id="Layer_2" data-name="Layer 2" xmlns="http://www.w3.org/2000/svg" viewBox="0 0 58.97 71.12">
  <g id="Layer_1-2" data-name="Layer 1">
    <g>
      <path d="M45.27,71.12H13.69c-7.55,0-13.69-6.14-13.69-13.68V13.71C0,6.15,6.15,0,13.7,0h16.99c2.23,0,4.36.48,6.31,1.44,1.48.66,2.91,1.65,4.17,2.91l13.45,13.43c1.23,1.23,2.22,2.66,2.95,4.24.91,1.91,1.4,4.08,1.4,6.24v29.16c0,7.56-6.15,13.71-13.71,13.71ZM13.7,5c-4.8,0-8.7,3.91-8.7,8.71v43.74c0,4.79,3.9,8.68,8.69,8.68h31.58c4.8,0,8.71-3.91,8.71-8.71v-29.16c0-1.43-.32-2.85-.92-4.12-.49-1.06-1.16-2.03-1.96-2.82l-13.45-13.43c-.83-.83-1.75-1.47-2.75-1.92-1.34-.65-2.73-.97-4.2-.97H13.7Z"/>
      <path d="M55.31,25.56h-19.4c-1.38,0-2.5-1.12-2.5-2.5V3.68c0-.85.43-1.64,1.14-2.1.71-.46,1.61-.53,2.38-.19,1.56.7,2.98,1.69,4.24,2.94l13.45,13.43c1.23,1.23,2.22,2.65,2.95,4.24.36.77.3,1.68-.16,2.4s-1.25,1.15-2.11,1.15ZM38.41,20.56h11.93l-11.93-11.91v11.91Z"/>
    </g>
  </g>
</svg>