<?xml version="1.0" encoding="UTF-8"?>
<svg id="Layer_2" data-name="Layer 2" xmlns="http://www.w3.org/2000/svg" viewBox="0 0 25.56 28.24">
  <defs>
    <style>
      .cls-1 {
        fill: #fff;
        fill-rule: evenodd;
      }
    </style>
  </defs>
  <g id="Layer_1-2" data-name="Layer 1">
    <path class="cls-1" d="M1.34,0h7.89c.4,0,.73.15,1,.45l11.34,12.79c.45.51.45,1.26,0,1.77l-11.34,12.79c-.26.3-.6.45-1,.45H1.34c-.54,0-.99-.3-1.21-.79-.22-.49-.14-1.03.22-1.43l9.77-11.02c.45-.51.45-1.26,0-1.77L.34,2.22C-.02,1.81-.1,1.27.12.79c.22-.49.68-.79,1.21-.79h0ZM11.65,0l11.74,13.24c.45.51.45,1.26,0,1.77l-11.74,13.24h1.23c.39,0,.73-.15,1-.45l11.34-12.79c.45-.51.45-1.26,0-1.77L13.88.45c-.26-.3-.6-.45-1-.45h-1.23Z"/>
  </g>
</svg>