<?xml version="1.0" encoding="UTF-8"?>
<svg id="Layer_2" data-name="Layer 2" xmlns="http://www.w3.org/2000/svg" viewBox="0 0 30.14 13.93">
  <defs>
    <style>
      .cls-1 {
        fill: #fff;
        fill-rule: evenodd;
      }
    </style>
  </defs>
  <g id="Layer_1-2" data-name="Layer 1">
    <path class="cls-1" d="M29.46,5.55c-3.6-2.01-7.67-3.3-11.99-3.67-.43-.04-.79-.26-1.02-.63l-.22-.36c-.35-.57-.93-.9-1.61-.9h-6.59l.41.5c.3.36.39.82.24,1.27-.15.45-.49.76-.95.87-.2.05-.39.1-.59.15-.39.1-.69.35-.86.72-.17.37-.18.75,0,1.12.3.67.47,1.37.47,2.09s-.16,1.42-.47,2.09c-.17.37-.16.75,0,1.12.17.37.47.61.86.72,1,.27,2.03.49,3.07.65l-.38.46c-.34.41-.4.94-.18,1.42.22.48.68.76,1.2.76h3.76c.68,0,1.26-.32,1.61-.9l.55-.89c.23-.37.58-.58,1.01-.63,4.21-.4,8.16-1.68,11.68-3.64.43-.24.68-.67.68-1.16s-.25-.92-.68-1.16h0ZM3.55,4.74c-.89.21-1.76.44-2.61.7-.57.17-.94.68-.94,1.27s.37,1.1.94,1.27c.85.26,1.72.5,2.61.7.5.12.99-.05,1.32-.44.41-.49.63-1,.63-1.54s-.22-1.05-.64-1.54c-.33-.39-.82-.55-1.32-.44Z"/>
  </g>
</svg>