<?xml version="1.0" encoding="UTF-8"?>
<svg id="Layer_2" data-name="Layer 2" xmlns="http://www.w3.org/2000/svg" viewBox="0 0 28.13 19.32">
  <defs>
    <style>
      .cls-1 {
        fill: #fff;
        fill-rule: evenodd;
      }
    </style>
  </defs>
  <g id="Layer_1-2" data-name="Layer 1">
    <path class="cls-1" d="M.26,9.44l1.76-4.98c-.03.19-.05.39-.05.59,0,1.69,1.25,3.18,3.26,4.22,1.59.82,3.68,1.37,6,1.52v.02c.03.27.09.54.17.81.08.26.18.52.3.75.12.24.27.46.43.68.43.55.99.99,1.64,1.22.13.05.26.08.4.11-.06.1-.11.21-.16.31-.16.34-.3.7-.39,1.07h0c-.08.35-.13.7-.11,1.05.02.37.09.74.24,1.09-.44.02-.86.03-1.27.03-3.47,0-6.51-.73-8.7-1.9-2.37-1.27-3.79-3.09-3.79-5.14,0-.24.02-.49.07-.74.04-.23.1-.45.18-.67v-.04h.01ZM14.68,15c-.27.56-.45,1.17-.43,1.78.03.69.32,1.33,1.02,1.81.43.29,1.01.52,1.79.65.8.13,1.55.09,2.35.04.28-.02.57-.03.82-.04.25,0,.54.02.82.04.8.04,1.55.09,2.35-.04.78-.13,1.37-.35,1.79-.65.7-.48.99-1.13,1.02-1.81.03-.6-.16-1.22-.43-1.78-.34-.7-.81-1.32-1.11-1.66.04.01.08.02.12.03,1.25.26,2.24-.37,2.81-1.31.23-.38.39-.81.48-1.26.08-.45.08-.91,0-1.34-.21-1-.89-1.83-2.13-2.02-.52-.16-1.05.09-1.5.61.04-.19.06-.38.07-.57.02-.45-.04-.91-.18-1.33-.34-.96-1.12-1.7-2.38-1.73-.59-.11-1.14.3-1.53.99-.17.29-.31.64-.42,1.02-.05.16-.09.33-.12.5-.03-.17-.07-.34-.12-.5-.11-.37-.25-.72-.42-1.02-.39-.69-.94-1.1-1.53-.99-1.26.03-2.03.77-2.38,1.73-.15.41-.21.87-.18,1.33.01.24.05.48.11.71-.49-.42-1.02-.59-1.49-.38-1.22.33-1.79,1.24-1.89,2.26-.04.44.01.9.14,1.33.13.43.34.84.62,1.19.66.84,1.67,1.35,2.84,1.01-.28.35-.63.85-.89,1.39h0ZM16.88,11.48c0-.36-.07-.74-.18-1.11-.03-.11-.07-.21-.11-.32.39.26.85.4,1.39.4-.21.13-.4.27-.58.44-.19.18-.36.37-.52.59h0ZM19.08,10.02c.42-.35.67-.82.79-1.36.11.48.32.91.66,1.24-.09,0-.19-.01-.28-.01h-.03c-.42.01-.79.05-1.13.13h0ZM22.36,10.39c.46-.1.85-.33,1.16-.63-.05.18-.1.36-.13.55-.05.29-.08.58-.07.86-.09-.1-.17-.19-.27-.27-.21-.19-.44-.36-.69-.5h0ZM12.49,0C7.09,0,2.7,2.26,2.7,5.05c0,2.57,3.72,4.69,8.53,5.01v-.05c.07-.68.31-1.32.75-1.85.39-.46.92-.82,1.63-1.03.3-.12.6-.16.91-.12,0-.11.02-.21.03-.32.04-.27.1-.53.19-.78.23-.64.61-1.21,1.17-1.61.48-.35,1.09-.57,1.82-.6.46-.07.89.04,1.28.29.33.21.62.52.86.9.24-.38.53-.69.86-.9.36-.24.77-.35,1.19-.3-1.15-2.13-4.94-3.68-9.43-3.68Z"/>
  </g>
</svg>