<?xml version="1.0" encoding="UTF-8"?>
<svg id="Layer_2" data-name="Layer 2" xmlns="http://www.w3.org/2000/svg" viewBox="0 0 24.58 22.37">
  <defs>
    <style>
      .cls-1 {
        fill: #fff;
        fill-rule: evenodd;
      }
    </style>
  </defs>
  <g id="Layer_1-2" data-name="Layer 1">
    <path class="cls-1" d="M12.31,3.33c.56-1.04,1.07-1.78,1.72-2.31.9-.73,1.98-1.01,3.69-1.01,1.89,0,3.61.77,4.85,2.01,1.24,1.24,2.01,2.96,2.01,4.85,0,3.29-1.28,5.93-3.72,8.39-2.36,2.38-5.81,4.58-10.23,7.04-.32.18-.73.06-.9-.26-.09-.16-.11-.35-.06-.51,1.03-3.51-.94-4.56-3.28-5.8-2.13-1.14-4.53-2.41-5.74-5.46C-.6,7.15.08,4.34,1.66,2.45c.65-.78,1.47-1.4,2.37-1.82C4.92.2,5.91-.01,6.91.02c1.94.07,3.92,1.06,5.39,3.3Z"/>
  </g>
</svg>