<?xml version="1.0" encoding="UTF-8"?>
<svg id="Layer_2" data-name="Layer 2" xmlns="http://www.w3.org/2000/svg" viewBox="0 0 23.86 18.24">
  <defs>
    <style>
      .cls-1 {
        fill: #fff;
        fill-rule: evenodd;
      }
    </style>
  </defs>
  <g id="Layer_1-2" data-name="Layer 1">
    <path class="cls-1" d="M23.86,7.87v7.28c0,.92-.56,1.72-1.47,2.28-.81.5-1.92.81-3.14.81H4.61c-1.21,0-2.32-.31-3.14-.81-.91-.56-1.47-1.37-1.47-2.28v-7.28c0-.92.56-1.72,1.47-2.28.81-.5,1.92-.81,3.14-.81h9.68c.76-1.36,1.83-2.49,3.11-3.31C18.79.58,20.42.05,22.13,0c.37-.01.67.28.68.64,0,.25-.13.48-.33.59h0c-.84.49-1.58,1.13-2.19,1.88-.41.5-.75,1.06-1.03,1.66,1.21,0,2.31.31,3.12.81.91.56,1.47,1.37,1.47,2.28Z"/>
  </g>
</svg>