<?xml version="1.0" encoding="UTF-8"?>
<svg id="Layer_2" data-name="Layer 2" xmlns="http://www.w3.org/2000/svg" viewBox="0 0 31.64 25.25">
  <defs>
    <style>
      .cls-1 {
        fill: #fff;
        fill-rule: evenodd;
      }
    </style>
  </defs>
  <g id="Layer_1-2" data-name="Layer 1">
    <path class="cls-1" d="M18.06,0c3.7,0,7.06,1.07,9.51,2.79,2.52,1.78,4.07,4.25,4.07,7.01,0,1.44-.43,2.81-1.2,4.04-.7,1.12-1.67,2.12-2.87,2.96l1.51,5.32c.11.39-.12.79-.5.9-.2.06-.41.02-.58-.08l-5.65-3.27c-2.36,1.39-5.38,2.22-8.67,2.22-1.3,0-2.56-.13-3.76-.38l-6.26,3.62c-.17.11-.39.14-.6.08-.4-.11-.63-.53-.52-.93l1.49-5.25C1.85,17.47.4,15.36.07,13.01c-.05-.34-.07-.69-.07-1.04,0-2.76,1.56-5.25,4.09-7.03.02,0,.04,0,.06,0,1.23-.85,2.58-1.46,4.01-1.84.13-.1.27-.2.41-.3,2.44-1.72,5.8-2.79,9.5-2.79h0ZM12.53,8.21c-.89,0-1.61.72-1.61,1.61s.72,1.61,1.61,1.61,1.61-.72,1.61-1.61-.72-1.61-1.61-1.61h0ZM24.2,8.21c-.89,0-1.61.72-1.61,1.61s.72,1.61,1.61,1.61,1.61-.72,1.61-1.61-.72-1.61-1.61-1.61h0ZM18.37,8.21c-.89,0-1.61.72-1.61,1.61s.72,1.61,1.61,1.61,1.61-.72,1.61-1.61-.72-1.61-1.61-1.61Z"/>
  </g>
</svg>