<?xml version="1.0" encoding="UTF-8"?>
<svg id="Layer_2" data-name="Layer 2" xmlns="http://www.w3.org/2000/svg" viewBox="0 0 20.44 27.3">
  <defs>
    <style>
      .cls-1 {
        fill: #fff;
        fill-rule: evenodd;
      }
    </style>
  </defs>
  <g id="Layer_1-2" data-name="Layer 1">
    <path class="cls-1" d="M10,0c1.68,0,3.19.68,4.29,1.78,1.1,1.1,1.78,2.62,1.78,4.29s-.68,3.19-1.78,4.29c-.5.5-1.08.91-1.73,1.21,1.13.3,2.18.8,3.11,1.44l-6.21,6.92c-.11.12-.2.26-.26.41-.07.16-.1.33-.1.51,0,.37.15.7.39.94.24.24.57.39.94.39h2.44l-.52,2.45H2.2c-.61,0-1.16-.25-1.56-.65s-.65-.95-.65-1.56v-1.2c0-2.75,1.12-5.25,2.94-7.06,1.23-1.23,2.77-2.14,4.5-2.6-.64-.3-1.23-.71-1.73-1.21-1.1-1.1-1.78-2.62-1.78-4.29s.68-3.19,1.78-4.29c1.1-1.1,2.62-1.78,4.29-1.78h0ZM18.19,13.11c.08-.24.01-.52-.19-.7-.27-.25-.69-.22-.94.05l-7.11,7.92c-.12.12-.2.29-.2.47,0,.37.3.67.67.67h3.26l-1.06,4.99h0c-.05.24.03.49.24.66.29.23.7.18.93-.1l6.46-8.08c.12-.12.19-.28.19-.47,0-.37-.3-.67-.67-.67h-2.92l1.33-4.73h0ZM18.2,15.53c.36.52.67,1.07.93,1.65h-1.39l.46-1.65h0ZM19.96,20.41c.02.27.03.54.03.82v1.2c0,.61-.25,1.16-.65,1.56-.4.4-.95.65-1.56.65h-1.21l3.38-4.22Z"/>
  </g>
</svg>