<?xml version="1.0" encoding="UTF-8"?>
<svg id="Layer_2" data-name="Layer 2" xmlns="http://www.w3.org/2000/svg" viewBox="0 0 74.02 74.02">
  <g id="Layer_1-2" data-name="Layer 1">
    <g>
      <path d="M67.74,74.02H6.28c-3.46,0-6.28-2.82-6.28-6.28V6.28C0,2.82,2.82,0,6.28,0h61.46c3.46,0,6.28,2.82,6.28,6.28v61.46c0,3.46-2.82,6.28-6.28,6.28ZM6.28,5c-.71,0-1.28.57-1.28,1.28v61.46c0,.71.57,1.28,1.28,1.28h61.46c.71,0,1.28-.57,1.28-1.28V6.28c0-.71-.57-1.28-1.28-1.28H6.28Z"/>
      <path d="M30.62,52.29c-.64,0-1.28-.24-1.77-.73l-12.78-12.78c-.98-.98-.98-2.56,0-3.54.98-.98,2.56-.98,3.54,0l11.01,11.01,23.8-23.8c.98-.98,2.56-.98,3.54,0,.98.98.98,2.56,0,3.54l-25.56,25.56c-.49.49-1.13.73-1.77.73Z"/>
    </g>
  </g>
</svg>