<?xml version="1.0" encoding="UTF-8"?>
<svg id="Layer_2" data-name="Layer 2" xmlns="http://www.w3.org/2000/svg" viewBox="0 0 66.39 73.48">
  <g id="Layer_1-2" data-name="Layer 1">
    <g>
      <path d="M22.36,45.01c-12.75,0-22.36-5.09-22.36-11.83s9.61-11.83,22.36-11.83,22.36,5.09,22.36,11.83-9.61,11.83-22.36,11.83ZM22.36,26.35c-10.6,0-17.36,4.05-17.36,6.83s6.76,6.83,17.36,6.83,17.36-4.05,17.36-6.83-6.76-6.83-17.36-6.83Z"/>
      <path d="M22.36,59.25c-12.75,0-22.36-5.09-22.36-11.83,0-1.38,1.12-2.5,2.5-2.5s2.5,1.12,2.5,2.5c0,2.79,6.76,6.83,17.36,6.83s17.36-4.05,17.36-6.83c0-1.38,1.12-2.5,2.5-2.5s2.5,1.12,2.5,2.5c0,6.75-9.61,11.83-22.36,11.83Z"/>
      <path d="M22.36,73.48c-12.75,0-22.36-5.09-22.36-11.83,0-1.38,1.12-2.5,2.5-2.5s2.5,1.12,2.5,2.5c0,2.79,6.76,6.83,17.36,6.83s17.36-4.05,17.36-6.83c0-1.38,1.12-2.5,2.5-2.5s2.5,1.12,2.5,2.5c0,6.75-9.61,11.83-22.36,11.83Z"/>
      <path d="M2.5,65.04c-1.38,0-2.5-1.12-2.5-2.5v-25.74c0-1.38,1.12-2.5,2.5-2.5s2.5,1.12,2.5,2.5v25.74c0,1.38-1.12,2.5-2.5,2.5Z"/>
      <path d="M42.21,64.15c-1.38,0-2.5-1.12-2.5-2.5v-28.47c0-1.38,1.12-2.5,2.5-2.5s2.5,1.12,2.5,2.5v28.47c0,1.38-1.12,2.5-2.5,2.5Z"/>
      <path d="M44.04,52.13c-1.38,0-2.5-1.12-2.5-2.5s1.12-2.5,2.5-2.5c10.59,0,17.36-4.04,17.36-6.83,0-1.38,1.12-2.5,2.5-2.5s2.5,1.12,2.5,2.5c0,6.74-9.61,11.83-22.36,11.83Z"/>
      <path d="M44.04,23.66c-12.75,0-22.36-5.09-22.36-11.83S31.29,0,44.04,0s22.36,5.09,22.36,11.83-9.61,11.83-22.36,11.83ZM44.04,5c-10.6,0-17.36,4.04-17.36,6.83s6.76,6.83,17.36,6.83,17.36-4.05,17.36-6.83-6.76-6.83-17.36-6.83Z"/>
      <path d="M44.04,37.89c-1.38,0-2.5-1.12-2.5-2.5s1.12-2.5,2.5-2.5c10.59,0,17.36-4.05,17.36-6.83,0-1.38,1.12-2.5,2.5-2.5s2.5,1.12,2.5,2.5c0,6.75-9.61,11.83-22.36,11.83Z"/>
      <path d="M44.04,66.36c-1.38,0-2.5-1.12-2.5-2.5s1.12-2.5,2.5-2.5c10.59,0,17.36-4.05,17.36-6.83,0-1.38,1.12-2.5,2.5-2.5s2.5,1.12,2.5,2.5c0,6.75-9.61,11.83-22.36,11.83Z"/>
      <path d="M63.89,57.03c-1.38,0-2.5-1.12-2.5-2.5V11.83c0-1.38,1.12-2.5,2.5-2.5s2.5,1.12,2.5,2.5v42.7c0,1.38-1.12,2.5-2.5,2.5Z"/>
      <path d="M24.18,26.39c-1.38,0-2.5-1.12-2.5-2.5v-12.06c0-1.38,1.12-2.5,2.5-2.5s2.5,1.12,2.5,2.5v12.06c0,1.38-1.12,2.5-2.5,2.5Z"/>
    </g>
  </g>
</svg>