<?xml version="1.0" encoding="UTF-8"?>
<svg id="Layer_2" data-name="Layer 2" xmlns="http://www.w3.org/2000/svg" viewBox="0 0 75.57 70.8">
  <g id="Layer_1-2" data-name="Layer 1">
    <g>
      <path d="M32.35,64.71c-1.12,0-2.11-.75-2.41-1.83l-6.08-22.03L1.83,34.76c-1.08-.3-1.83-1.29-1.83-2.41s.75-2.11,1.83-2.41l22.03-6.08L29.94,1.83c.3-1.08,1.29-1.83,2.41-1.83s2.11.75,2.41,1.83l6.08,22.03,22.03,6.08c1.08.3,1.83,1.29,1.83,2.41s-.75,2.11-1.83,2.41l-22.03,6.08-6.08,22.03c-.3,1.08-1.29,1.83-2.41,1.83ZM11.89,32.35l14.67,4.05c.85.23,1.51.9,1.74,1.74l4.05,14.67,4.05-14.67c.23-.85.9-1.51,1.74-1.74l14.67-4.05-14.67-4.05c-.85-.23-1.51-.9-1.74-1.74l-4.05-14.67-4.05,14.67c-.23.85-.9,1.51-1.74,1.74l-14.67,4.05Z"/>
      <path d="M62.21,70.8c-1.12,0-2.11-.75-2.41-1.83l-1.97-7.15-7.15-1.97c-1.08-.3-1.83-1.29-1.83-2.41s.75-2.11,1.83-2.41l7.15-1.97,1.97-7.15c.3-1.08,1.29-1.83,2.41-1.83s2.11.75,2.41,1.83l1.97,7.15,7.15,1.97c1.08.3,1.83,1.29,1.83,2.41s-.75,2.11-1.83,2.41l-7.15,1.97-1.97,7.15c-.3,1.08-1.29,1.83-2.41,1.83ZM60.71,57.44c.7.25,1.25.8,1.5,1.5.25-.7.8-1.25,1.5-1.5-.7-.25-1.25-.8-1.5-1.5-.25.7-.8,1.25-1.5,1.5Z"/>
      <path d="M62.21,15.86c-1.12,0-2.11-.75-2.41-1.83l-.8-2.89-2.89-.8c-1.08-.3-1.83-1.29-1.83-2.41s.75-2.11,1.83-2.41l2.89-.8.8-2.89c.3-1.08,1.29-1.83,2.41-1.83s2.11.75,2.41,1.83l.8,2.89,2.89.8c1.08.3,1.83,1.29,1.83,2.41s-.75,2.11-1.83,2.41l-2.89.8-.8,2.89c-.3,1.08-1.29,1.83-2.41,1.83Z"/>
    </g>
  </g>
</svg>