<?xml version="1.0" encoding="UTF-8"?>
<svg id="Layer_2" data-name="Layer 2" xmlns="http://www.w3.org/2000/svg" viewBox="0 0 77.31 80.05">
  <g id="Layer_1-2" data-name="Layer 1">
    <g>
      <path d="M16.74,80.05H2.5c-1.38,0-2.5-1.12-2.5-2.5v-32.04c0-1.38,1.12-2.5,2.5-2.5h14.24c1.38,0,2.5,1.12,2.5,2.5v32.04c0,1.38-1.12,2.5-2.5,2.5ZM5,75.05h9.24v-27.04H5v27.04Z"/>
      <path d="M45.77,80.05h-14.24c-1.38,0-2.5-1.12-2.5-2.5V29.62c0-1.38,1.12-2.5,2.5-2.5h14.24c1.38,0,2.5,1.12,2.5,2.5v47.93c0,1.38-1.12,2.5-2.5,2.5ZM34.03,75.05h9.24v-42.93h-9.24v42.93Z"/>
      <path d="M74.81,80.05h-14.24c-1.38,0-2.5-1.12-2.5-2.5V2.5c0-1.38,1.12-2.5,2.5-2.5h14.24c1.38,0,2.5,1.12,2.5,2.5v75.05c0,1.38-1.12,2.5-2.5,2.5ZM63.06,75.05h9.24V5h-9.24v70.05Z"/>
    </g>
  </g>
</svg>