<?xml version="1.0" encoding="UTF-8"?>
<svg id="Layer_2" data-name="Layer 2" xmlns="http://www.w3.org/2000/svg" viewBox="0 0 23.29 22.28">
  <defs>
    <style>
      .cls-1 {
        fill: #fff;
        fill-rule: evenodd;
      }
    </style>
  </defs>
  <g id="Layer_1-2" data-name="Layer 1">
    <path class="cls-1" d="M10.43,8.23c1.18-2.24,3.5-4.94,5.8-6.6,1-.72,2.01-1.26,2.94-1.49,1.05-.26,2-.15,2.75.47.59.49,1.02,1.28,1.24,2.44,1.08,5.84-5.21,12.1-11.02,17.88l-1.16,1.16c-.26.26-.68.26-.94,0h0c-.5-.5-.99-.99-1.46-1.46C3.3,15.39-.15,11.97,0,5.67c.03-1.15.32-1.99.8-2.56.51-.6,1.21-.89,2.02-.89.73,0,1.54.24,2.39.7,1.72.92,3.64,2.77,5.22,5.31Z"/>
  </g>
</svg>