<?xml version="1.0" encoding="UTF-8"?>
<svg id="Layer_2" data-name="Layer 2" xmlns="http://www.w3.org/2000/svg" viewBox="0 0 28.66 29.49">
  <defs>
    <style>
      .cls-1 {
        fill: #fff;
        fill-rule: evenodd;
      }
    </style>
  </defs>
  <g id="Layer_1-2" data-name="Layer 1">
    <path class="cls-1" d="M3.07,5.4C5.02,2.84,7.79.93,10.98.04c.16-.06.34-.06.51.02.33.16.48.55.32.88-.42.89-.74,1.83-.95,2.81-.21.94-.32,1.93-.32,2.96,0,3.77,1.53,7.19,4,9.66s5.89,4,9.66,4c.63,0,1.24-.04,1.83-.12.59-.08,1.17-.2,1.73-.35.16-.06.34-.05.51.02.33.16.48.55.32.89-1.21,2.6-3.15,4.79-5.55,6.33-2.33,1.48-5.09,2.34-8.05,2.34-4.14,0-7.89-1.68-10.6-4.39C1.68,22.38,0,18.63,0,14.49c0-3.41,1.14-6.56,3.07-9.09Z"/>
  </g>
</svg>