<?xml version="1.0" encoding="UTF-8"?>
<svg id="Layer_2" data-name="Layer 2" xmlns="http://www.w3.org/2000/svg" viewBox="0 0 58 84.7">
  <g id="Layer_1-2" data-name="Layer 1">
    <g>
      <path d="M29,58C13.01,58,0,44.99,0,29S13.01,0,29,0s29,13.01,29,29-13.01,29-29,29ZM29,5C15.77,5,5,15.77,5,29s10.77,24,24,24,24-10.77,24-24S42.23,5,29,5Z"/>
      <path d="M13.39,84.7c-.38,0-.77-.09-1.13-.27-.84-.43-1.37-1.29-1.37-2.23v-30.54c0-1.38,1.12-2.5,2.5-2.5s2.5,1.12,2.5,2.5v25.59l11.63-8.57c.88-.65,2.08-.65,2.97,0l11.63,8.57v-25.59c0-1.38,1.12-2.5,2.5-2.5s2.5,1.12,2.5,2.5v30.54c0,.94-.53,1.81-1.37,2.23-.84.42-1.85.34-2.61-.22l-14.13-10.41-14.13,10.41c-.44.32-.96.49-1.48.49Z"/>
    </g>
  </g>
</svg>