<?xml version="1.0" encoding="UTF-8"?>
<svg id="Layer_2" data-name="Layer 2" xmlns="http://www.w3.org/2000/svg" viewBox="0 0 32.33 19.46">
  <defs>
    <style>
      .cls-1 {
        fill: #fff;
        fill-rule: evenodd;
      }
    </style>
  </defs>
  <g id="Layer_1-2" data-name="Layer 1">
    <path class="cls-1" d="M1.33,12.72h11.9c.73,0,1.33.6,1.33,1.33v3.18c0,.53.29.98.77,1.21.48.22,1.01.16,1.42-.18l9.52-7.95c.31-.26.48-.61.48-1.02s-.16-.76-.48-1.02L16.75.31c-.41-.34-.94-.41-1.42-.18-.48.22-.77.68-.77,1.21v3.18c0,.73-.6,1.33-1.33,1.33H1.33c-.73,0-1.33.6-1.33,1.33v4.21c0,.73.6,1.33,1.33,1.33h0ZM21.52,15.78l6.4-5.34c.31-.26.48-.61.48-1.02s-.16-.76-.48-1.02l-6.87-5.74v-.44c0-.53.29-.98.77-1.21.48-.22,1.01-.16,1.42.18l8.63,7.21c.31.26.48.61.48,1.02,0,.41-.16.76-.48,1.02-3.6,3.01-7.21,6.02-10.81,9.03v-2.67c0-.41.16-.76.48-1.02Z"/>
  </g>
</svg>