<?xml version="1.0" encoding="UTF-8"?>
<svg id="Layer_2" data-name="Layer 2" xmlns="http://www.w3.org/2000/svg" viewBox="0 0 160.54 160.53">
  <defs>
    <style>
      .cls-1 {
        fill: #080a16;
      }
    </style>
  </defs>
  <g id="Calque_1" data-name="Calque 1">
    <g>
      <path class="cls-1" d="M81.87,0H0v160.53h160.54V0h-78.67ZM7.76,7.76h63.14L7.76,70.9V7.76ZM80.26,9.37l70.9,70.9-70.9,70.9L9.36,80.26,80.26,9.37ZM7.76,152.76v-63.14l63.12,63.14H7.76ZM152.78,152.76h-63.14l63.14-63.14v63.14ZM89.63,7.76h63.15v63.14L89.63,7.76Z"/>
      <path class="cls-1" d="M113.4,80.26l-33.14-33.14-33.13,33.14,33.13,33.14,33.14-33.14ZM80.26,58.1l22.17,22.16-22.17,22.16-22.16-22.16,22.16-22.16Z"/>
    </g>
  </g>
</svg>