<?xml version="1.0" encoding="UTF-8"?>
<svg id="Layer_2" data-name="Layer 2" xmlns="http://www.w3.org/2000/svg" viewBox="0 0 64.16 53.48">
  <g id="Layer_1-2" data-name="Layer 1">
    <g>
      <g>
        <path d="M61.66,5H15.24c-1.38,0-2.5-1.12-2.5-2.5s1.12-2.5,2.5-2.5h46.42c1.38,0,2.5,1.12,2.5,2.5s-1.12,2.5-2.5,2.5Z"/>
        <path d="M2.5,5c-.16,0-.33-.02-.49-.05-.16-.03-.32-.08-.47-.14s-.29-.14-.43-.23c-.13-.09-.26-.2-.38-.31-.46-.47-.73-1.11-.73-1.77S.27,1.2.73.73c.12-.11.25-.22.38-.31.14-.09.28-.17.43-.23s.31-.11.47-.14c.81-.16,1.68.1,2.26.68.46.47.73,1.11.73,1.77s-.27,1.3-.73,1.77c-.47.46-1.11.73-1.77.73Z"/>
      </g>
      <g>
        <path d="M61.66,29.24H15.24c-1.38,0-2.5-1.12-2.5-2.5s1.12-2.5,2.5-2.5h46.42c1.38,0,2.5,1.12,2.5,2.5s-1.12,2.5-2.5,2.5Z"/>
        <path d="M2.5,29.24c-.66,0-1.3-.27-1.77-.73-.46-.47-.73-1.11-.73-1.77,0-.16.02-.33.05-.49.03-.16.08-.32.14-.47.07-.15.14-.29.23-.43.09-.14.2-.26.31-.38.93-.93,2.61-.93,3.54,0,.11.12.22.24.31.38.09.14.17.28.23.43.06.15.11.31.14.47.03.16.05.33.05.49,0,.66-.27,1.3-.73,1.77-.47.46-1.11.73-1.77.73Z"/>
      </g>
      <g>
        <path d="M61.66,53.48H15.24c-1.38,0-2.5-1.12-2.5-2.5s1.12-2.5,2.5-2.5h46.42c1.38,0,2.5,1.12,2.5,2.5s-1.12,2.5-2.5,2.5Z"/>
        <path d="M2.5,53.48c-.66,0-1.3-.27-1.77-.73-.46-.47-.73-1.11-.73-1.77,0-.16.02-.33.05-.49.03-.16.08-.32.14-.47s.14-.29.23-.43c.09-.14.2-.26.31-.38.12-.11.24-.22.38-.31.14-.09.28-.17.43-.23s.31-.11.47-.14c.82-.16,1.68.1,2.26.68.11.12.22.24.31.38.09.14.17.28.23.43s.11.31.14.47c.03.16.05.33.05.49,0,.66-.27,1.3-.73,1.77-.47.46-1.11.73-1.77.73Z"/>
      </g>
    </g>
  </g>
</svg>