<?xml version="1.0" encoding="UTF-8"?>
<svg id="Layer_2" data-name="Layer 2" xmlns="http://www.w3.org/2000/svg" viewBox="0 0 32.44 21.59">
  <defs>
    <style>
      .cls-1 {
        fill: #fff;
        fill-rule: evenodd;
      }
    </style>
  </defs>
  <g id="Layer_1-2" data-name="Layer 1">
    <path class="cls-1" d="M6.35,16.7h13.11c.48,0,.88.23,1.13.63.25.41.27.87.05,1.3l-1.49,2.95,12.77-9.73c.34-.26.52-.63.52-1.06s-.18-.8-.52-1.06L19.15,0l1.49,2.95c.22.42.2.89-.05,1.3-.25.41-.66.63-1.13.63H6.35c-.34,0-.64.11-.9.35L.44,9.79C.15,10.05,0,10.39,0,10.77c0,.39.15.72.43.98l5.02,4.59c.26.23.55.35.9.35Z"/>
  </g>
</svg>