<?xml version="1.0" encoding="UTF-8"?>
<svg id="Layer_2" data-name="Layer 2" xmlns="http://www.w3.org/2000/svg" viewBox="0 0 25.86 20.41">
  <defs>
    <style>
      .cls-1 {
        fill: #fff;
        fill-rule: evenodd;
      }
    </style>
  </defs>
  <g id="Layer_1-2" data-name="Layer 1">
    <path class="cls-1" d="M20.71.9l4.01,3.52c.35.31.62.66.81,1.06.19.39.3.83.32,1.3.02.47-.04.91-.19,1.32-.14.39-.37.75-.67,1.08l-.04.04-9.6,10.15c-.33.34-.69.61-1.1.78-.41.18-.85.26-1.32.26s-.91-.09-1.32-.26c-.39-.17-.74-.41-1.06-.74l-.04-.04L.91,9.21h0c-.32-.34-.56-.72-.71-1.13C.05,7.68-.02,7.24,0,6.77c.02-.47.13-.9.32-1.3.19-.39.46-.75.81-1.06L5.16.89C5.75.37,6.54.05,7.32,0c.81-.04,1.6.21,2.18.85l3.44,3.92c1.14-1.3,2.27-2.6,3.41-3.9C16.92.22,17.73-.04,18.54,0c.76.04,1.53.35,2.13.86l.04.04Z"/>
  </g>
</svg>