<?xml version="1.0" encoding="UTF-8"?>
<svg id="Layer_2" data-name="Layer 2" xmlns="http://www.w3.org/2000/svg" viewBox="0 0 17.61 25.34">
  <defs>
    <style>
      .cls-1 {
        fill: #fff;
        fill-rule: evenodd;
      }
    </style>
  </defs>
  <g id="Layer_1-2" data-name="Layer 1">
    <path class="cls-1" d="M8.81,0c1.68,0,3.21.68,4.31,1.78,1.1,1.1,1.78,2.63,1.78,4.31s-.68,3.21-1.78,4.31c-1.1,1.1-2.63,1.78-4.31,1.78s-3.21-.68-4.31-1.78-1.78-2.63-1.78-4.31.68-3.21,1.78-4.31c1.1-1.1,2.63-1.78,4.31-1.78h0ZM4.94,13.22h7.72c1.36,0,2.6.56,3.49,1.45.9.9,1.45,2.13,1.45,3.49v6.51c0,.37-.3.67-.67.67H.67c-.37,0-.67-.3-.67-.67v-6.51c0-1.36.56-2.6,1.45-3.49.9-.9,2.13-1.45,3.49-1.45Z"/>
  </g>
</svg>