<?xml version="1.0" encoding="UTF-8"?>
<svg id="Layer_2" data-name="Layer 2" xmlns="http://www.w3.org/2000/svg" viewBox="0 0 21.43 22.69">
  <defs>
    <style>
      .cls-1 {
        fill: #fff;
        fill-rule: evenodd;
      }
    </style>
  </defs>
  <g id="Layer_1-2" data-name="Layer 1">
    <path class="cls-1" d="M20.77,5.1H.67c-.37,0-.67-.3-.67-.67V.67c0-.37.3-.67.67-.67h20.1c.37,0,.67.3.67.67v3.77c0,.37-.3.67-.67.67h0ZM9.38,15.53c.37,0,.67.3.67.67s-.3.67-.67.67h-2.75c-.37,0-.67-.3-.67-.67,0-.14.04-.27.11-.37l1.31-2.27c.18-.32.59-.43.91-.24.32.18.43.59.24.91l-.76,1.32h1.59ZM10.01,11.69c-.18.32-.59.43-.91.24-.32-.18-.43-.59-.24-.91l1.28-2.22c.18-.32.59-.43.91-.24.11.06.19.15.25.25l1.32,2.29c.18.32.07.72-.24.91-.32.18-.72.07-.91-.24l-.75-1.29-.71,1.23h0ZM12.87,14.19c-.18-.32-.08-.72.24-.91.32-.18.72-.08.91.24l1.35,2.34c.18.32.08.72-.24.91-.11.06-.22.09-.33.09h0s-2.76,0-2.76,0c-.37,0-.67-.3-.67-.67s.3-.67.67-.67h1.61l-.77-1.34h0ZM20.1,5.77H1.33c.29,5.02.55,10.05.88,15.07.06.5.28.97.61,1.3.34.34.79.55,1.31.55h13.17c.52,0,.99-.21,1.33-.56.34-.34.56-.81.59-1.33l.88-15.03Z"/>
  </g>
</svg>