<?xml version="1.0" encoding="UTF-8"?>
<svg id="Layer_2" data-name="Layer 2" xmlns="http://www.w3.org/2000/svg" viewBox="0 0 34.41 27.07">
  <defs>
    <style>
      .cls-1 {
        fill: #fff;
        fill-rule: evenodd;
      }
    </style>
  </defs>
  <g id="Layer_1-2" data-name="Layer 1">
    <path class="cls-1" d="M12.66,6.81h5.05c.81,0,1.48-.66,1.48-1.48V1.48c0-.61.35-1.13.91-1.36.56-.24,1.17-.12,1.61.31l12.26,12.05c.29.29.44.64.44,1.06s-.15.77-.44,1.06l-12.26,12.05c-.43.43-1.05.54-1.61.31-.56-.24-.91-.76-.91-1.36v-3.85c0-.82-.66-1.48-1.48-1.48h-5.05c-.82,0-1.48-.66-1.48-1.48v-10.5c0-.81.66-1.48,1.48-1.48h0ZM0,6.81h.3v13.46h-.3V6.81h0ZM1.03,6.81h.8v13.46h-.8V6.81h0ZM7.85,6.81h.25c.81,0,1.48.66,1.48,1.48v10.5c0,.82-.66,1.48-1.48,1.48h-.25c-.81,0-1.48-.66-1.48-1.48v-10.5c0-.81.66-1.48,1.48-1.48h0ZM3.17,6.81h.12c.82,0,1.48.66,1.48,1.48v11.98h-.12c-.81,0-1.48-.66-1.48-1.48V6.81Z"/>
  </g>
</svg>