<?xml version="1.0" encoding="UTF-8"?>
<svg id="Layer_2" data-name="Layer 2" xmlns="http://www.w3.org/2000/svg" viewBox="0 0 20.93 26.36">
  <defs>
    <style>
      .cls-1 {
        fill: #fff;
        fill-rule: evenodd;
      }
    </style>
  </defs>
  <g id="Layer_1-2" data-name="Layer 1">
    <path class="cls-1" d="M10,0c1.68,0,3.19.68,4.29,1.78,1.1,1.1,1.78,2.62,1.78,4.29s-.68,3.19-1.78,4.29c-.5.5-1.08.91-1.73,1.21,1.49.4,2.85,1.14,3.99,2.12-.06.1-.11.21-.14.32-.03.09-.04.18-.05.27,0,.04,0,.07,0,.11v.35h-2.69c-1.54,0-2.93.63-3.94,1.64-.51.51-.93,1.13-1.21,1.81-.27.66-.43,1.38-.43,2.13v.8c0,.37.15.7.39.94.24.24.57.39.94.39.34,0,.65-.13.89-.34l.05-.05c.24-.24.39-.57.39-.94v-.8c0-.8.33-1.53.86-2.06.27-.27.59-.49.95-.64.34-.14.72-.22,1.11-.22h5.57c.07.17.14.34.2.51-.04.03-.07.06-.11.1h0c-.24.24-.39.58-.39.94v.8c0,.8-.33,1.53-.86,2.06-.27.27-.59.49-.95.64-.34.14-.72.22-1.11.22h-6.6c-.37,0-.7.15-.94.39h0c-.24.24-.39.58-.39.94,0,.22.06.44.16.63H2.2c-.61,0-1.16-.25-1.56-.65-.4-.4-.65-.95-.65-1.56v-1.2c0-2.75,1.12-5.25,2.94-7.06,1.23-1.23,2.77-2.14,4.49-2.6-.64-.3-1.23-.71-1.73-1.21-1.1-1.1-1.78-2.62-1.78-4.29s.68-3.19,1.78-4.29c1.1-1.1,2.62-1.78,4.29-1.78h0ZM10.08,21.12v-.8c0-.98.4-1.88,1.05-2.53.65-.65,1.54-1.05,2.53-1.05h6.6c.37,0,.67-.3.67-.67,0-.25-.14-.47-.35-.59l-1.25-.81-1.29-.84c-.31-.2-.72-.11-.92.2-.07.11-.11.24-.11.36h0v1.02h-3.35c-1.35,0-2.58.55-3.47,1.44-.89.89-1.44,2.12-1.44,3.47v.8c0,.37.3.67.67.67s.67-.3.67-.67h0ZM10.34,25.41l1.29.84c.31.2.72.11.92-.2.07-.11.11-.24.11-.36h0v-1.02h3.35c1.35,0,2.58-.55,3.47-1.44.89-.89,1.44-2.12,1.44-3.47v-.8c0-.37-.3-.67-.67-.67s-.67.3-.67.67v.8c0,.98-.4,1.88-1.05,2.53-.65.65-1.54,1.05-2.53,1.05h-6.6c-.37,0-.67.3-.67.67,0,.25.14.47.35.59l1.25.81Z"/>
  </g>
</svg>