<?xml version="1.0" encoding="UTF-8"?>
<svg id="Layer_2" data-name="Layer 2" xmlns="http://www.w3.org/2000/svg" viewBox="0 0 17.45 29.28">
  <defs>
    <style>
      .cls-1 {
        fill: #fff;
        fill-rule: evenodd;
      }
    </style>
  </defs>
  <g id="Layer_1-2" data-name="Layer 1">
    <path class="cls-1" d="M2.19,0h13.07c.6,0,1.15.25,1.55.64l.04.05c.37.39.6.92.6,1.5v24.91c0,.6-.25,1.15-.64,1.55l-.05.04c-.39.37-.92.6-1.5.6H2.19c-.6,0-1.15-.25-1.54-.64h0c-.4-.4-.64-.95-.64-1.55V2.19c0-.6.25-1.15.64-1.55s.94-.64,1.55-.64h0ZM2.97,2.17c-.4,0-.73.33-.73.73v20.78c0,.4.33.73.73.73h11.51c.4,0,.73-.33.73-.73V2.9c0-.4-.33-.73-.73-.73H2.97ZM8.72,24.87c-.67,0-1.22.53-1.22,1.18s.55,1.18,1.22,1.18,1.22-.53,1.22-1.18-.55-1.18-1.22-1.18Z"/>
  </g>
</svg>