<?xml version="1.0" encoding="UTF-8"?>
<svg id="Layer_2" data-name="Layer 2" xmlns="http://www.w3.org/2000/svg" viewBox="0 0 25.17 24.16">
  <defs>
    <style>
      .cls-1 {
        fill: #fff;
        fill-rule: evenodd;
      }
    </style>
  </defs>
  <g id="Layer_1-2" data-name="Layer 1">
    <path class="cls-1" d="M14.74,1.59l1.65,5.36c.06.2.18.36.34.48.16.11.35.18.56.17l5.61-.09c.5,0,.97.14,1.34.41.38.27.68.66.83,1.14.15.47.15.96,0,1.41-.15.44-.44.84-.84,1.13l-4.59,3.22c-.17.12-.29.29-.35.47-.06.18-.06.38,0,.58l1.82,5.31c.16.47.16.96.02,1.41-.14.45-.42.85-.83,1.14-.4.29-.87.44-1.34.43h0c-.47,0-.93-.16-1.33-.46l-4.49-3.37c-.17-.12-.36-.19-.55-.19s-.39.06-.55.19l-4.49,3.37c-.4.3-.86.45-1.33.46-.47,0-.94-.14-1.34-.43-.41-.29-.69-.69-.83-1.14-.14-.45-.14-.93.02-1.41l1.82-5.31c.07-.2.07-.4,0-.58-.06-.18-.18-.35-.35-.47L.96,11.6c-.41-.29-.7-.68-.84-1.13-.15-.45-.16-.94,0-1.41.15-.47.45-.87.83-1.14.38-.27.84-.42,1.34-.41l5.61.09c.21,0,.4-.06.56-.17.15-.11.27-.28.34-.48l1.65-5.36c.15-.48.43-.87.81-1.15.38-.28.84-.44,1.34-.44s.96.16,1.34.44c.38.28.66.67.81,1.15Z"/>
  </g>
</svg>