<?xml version="1.0" encoding="UTF-8"?>
<svg id="Layer_2" data-name="Layer 2" xmlns="http://www.w3.org/2000/svg" viewBox="0 0 29.89 28.93">
  <defs>
    <style>
      .cls-1 {
        fill: #fff;
        fill-rule: evenodd;
      }
    </style>
  </defs>
  <g id="Layer_1-2" data-name="Layer 1">
    <path class="cls-1" d="M6.11,22.39c.21-.3.63-.37.93-.15.3.21.37.63.15.93l-1.37,1.91c-.21.3-.63.37-.93.15-.3-.21-.37-.63-.15-.93l1.37-1.91h0ZM16.43,2.55c1.02-1.19,2.38-2.07,3.93-2.51.16-.06.34-.06.51.02.33.16.48.55.32.89-.21.44-.37.91-.47,1.38-.1.46-.15.95-.15,1.45,0,1.85.75,3.53,1.97,4.75,1.22,1.22,2.89,1.97,4.75,1.97.32,0,.62-.02.9-.06.28-.04.56-.09.82-.16.16-.06.34-.05.51.02.33.16.48.55.32.89-.65,1.39-1.69,2.57-2.98,3.39-.93.59-1.98,1-3.11,1.17-.02-.62-.14-1.23-.35-1.79-.23-.62-.58-1.19-1.01-1.69-.37-.42-.81-.79-1.3-1.09-.36-.22-.75-.4-1.16-.53-.19-.67-.46-1.31-.81-1.9-.43-.71-.97-1.35-1.6-1.89-.69-.59-1.48-1.06-2.35-1.38-.1-.04-.2-.07-.3-.11.33-1.05.87-2.01,1.57-2.82h0ZM5.67,9.39c-1.56,0-2.98.64-4,1.66-1.03,1.03-1.66,2.44-1.66,4s.62,2.9,1.62,3.95c.98,1.02,2.33,1.69,3.82,1.71.47,0,2.11,0,4.06.01,3.47,0,7.96,0,8.72,0h0c1.34,0,2.55-.54,3.43-1.41.88-.87,1.42-2.08,1.42-3.42,0-1.21-.45-2.32-1.2-3.18-.65-.74-1.52-1.29-2.51-1.52-.34-1.51-1.16-2.84-2.29-3.82-1.23-1.06-2.84-1.7-4.59-1.7-1.42,0-2.74.42-3.84,1.14-1,.65-1.82,1.55-2.38,2.61h-.03c-.2-.02-.38-.03-.55-.03h0ZM16.25,22.39c.21-.3.63-.37.93-.15.3.21.37.63.15.93l-1.37,1.91c-.21.3-.63.37-.93.15-.3-.21-.36-.63-.15-.93l1.37-1.91h0ZM13.67,25.97c.21-.3.63-.37.93-.15.3.21.36.63.15.93l-1.37,1.91c-.21.3-.63.37-.93.15-.3-.21-.37-.63-.15-.93l1.37-1.91h0ZM11.18,22.39c.21-.3.63-.37.93-.15.3.21.37.63.15.93l-1.37,1.91c-.21.3-.63.37-.93.15-.3-.21-.37-.63-.15-.93l1.37-1.91h0ZM8.61,25.97c.21-.3.63-.37.93-.15.3.21.36.63.15.93l-1.37,1.91c-.21.3-.63.37-.93.15-.3-.21-.37-.63-.15-.93l1.37-1.91h0ZM3.54,25.97c.21-.3.63-.37.93-.15.3.21.37.63.15.93l-1.37,1.91c-.21.3-.63.37-.93.15-.3-.21-.37-.63-.15-.93l1.37-1.91Z"/>
  </g>
</svg>