<?xml version="1.0" encoding="UTF-8"?>
<svg id="Layer_2" data-name="Layer 2" xmlns="http://www.w3.org/2000/svg" viewBox="0 0 18.7 26.12">
  <defs>
    <style>
      .cls-1 {
        fill: #fff;
        fill-rule: evenodd;
      }
    </style>
  </defs>
  <g id="Layer_1-2" data-name="Layer 1">
    <path class="cls-1" d="M14.01,10.46c-.74,0-1.33-.6-1.33-1.33s.6-1.33,1.33-1.33h3.36c.74,0,1.33.6,1.33,1.33v15.66c0,.74-.6,1.33-1.33,1.33H1.33c-.74,0-1.33-.6-1.33-1.33v-15.66c0-.74.6-1.33,1.33-1.33h3.28c.74,0,1.33.6,1.33,1.33s-.6,1.33-1.33,1.33h-1.95v12.99h13.37v-12.99h-2.03ZM10.68,4.55l1.93,1.93c.52.52,1.36.52,1.88,0,.52-.52.52-1.36,0-1.88L10.3.39C10.04.14,9.71,0,9.38,0h-.02s0,0,0,0h-.03c-.33,0-.66.14-.92.39l-4.2,4.2c-.52.52-.52,1.36,0,1.88.52.52,1.36.52,1.88,0l1.93-1.93v12.27c0,.74.6,1.33,1.33,1.33s1.33-.6,1.33-1.33V4.55Z"/>
  </g>
</svg>