<?xml version="1.0" encoding="UTF-8"?>
<svg id="Layer_2" data-name="Layer 2" xmlns="http://www.w3.org/2000/svg" viewBox="0 0 25.83 20.1">
  <defs>
    <style>
      .cls-1 {
        fill: #fff;
        fill-rule: evenodd;
      }
    </style>
  </defs>
  <g id="Layer_1-2" data-name="Layer 1">
    <path class="cls-1" d="M24.42,9.15l-11.04,10.77c-.26.25-.67.25-.93,0L1.42,9.15C.61,8.36.14,7.35.03,6.31c-.11-1.04.13-2.12.75-3.06l.75-1.14c.65-.99,1.62-1.66,2.69-1.95,1.07-.29,2.24-.19,3.3.34l5.4,2.72,5.4-2.72c1.06-.53,2.23-.63,3.3-.34,1.07.29,2.03.96,2.69,1.95l.75,1.14c.62.94.86,2.02.75,3.06-.11,1.04-.58,2.05-1.39,2.84Z"/>
  </g>
</svg>