<?xml version="1.0" encoding="UTF-8"?>
<svg id="Layer_2" data-name="Layer 2" xmlns="http://www.w3.org/2000/svg" viewBox="0 0 72.99 70.36">
  <g id="Layer_1-2" data-name="Layer 1">
    <g>
      <path d="M57.77,70.36H15.22c-4.35,0-7.89-3.54-7.89-7.89v-22.99c0-1.38,1.12-2.5,2.5-2.5h53.33c1.38,0,2.5,1.12,2.5,2.5v22.99c0,4.35-3.54,7.89-7.89,7.89ZM12.33,41.98v20.49c0,1.59,1.3,2.89,2.89,2.89h42.56c1.59,0,2.89-1.3,2.89-2.89v-20.49H12.33Z"/>
      <path d="M70.49,41.98H2.5c-1.38,0-2.5-1.12-2.5-2.5v-8.61c0-5.01,4.08-9.09,9.09-9.09h54.81c5.01,0,9.09,4.08,9.09,9.09v8.61c0,1.38-1.12,2.5-2.5,2.5ZM5,36.98h62.99v-6.11c0-2.26-1.84-4.09-4.09-4.09H9.09c-2.26,0-4.09,1.84-4.09,4.09v6.11Z"/>
      <path d="M36.5,70.36c-1.38,0-2.5-1.12-2.5-2.5V24.27c0-1.38,1.12-2.5,2.5-2.5s2.5,1.12,2.5,2.5v43.58c0,1.38-1.12,2.5-2.5,2.5Z"/>
      <path d="M36.5,26.77c-10.5,0-19.04-8.54-19.04-19.04,0-1.38,1.12-2.5,2.5-2.5s2.5,1.12,2.5,2.5c0,7.74,6.3,14.04,14.04,14.04s14.04-6.3,14.04-14.04c0-1.38,1.12-2.5,2.5-2.5s2.5,1.12,2.5,2.5c0,10.5-8.54,19.04-19.04,19.04Z"/>
      <path d="M36.5,26.77c-4.91,0-8.61-5.76-8.61-13.39S31.59,0,36.5,0s8.61,5.76,8.61,13.39-3.7,13.39-8.61,13.39ZM36.5,5c-1.44,0-3.61,3.35-3.61,8.39s2.17,8.39,3.61,8.39,3.61-3.35,3.61-8.39-2.17-8.39-3.61-8.39Z"/>
    </g>
  </g>
</svg>