<?xml version="1.0" encoding="UTF-8"?>
<svg id="Layer_2" data-name="Layer 2" xmlns="http://www.w3.org/2000/svg" viewBox="0 0 71.86 76.01">
  <g id="Layer_1-2" data-name="Layer 1">
    <g>
      <path d="M65.58,76.01H6.28c-3.46,0-6.28-2.82-6.28-6.28V15.25c0-3.46,2.82-6.28,6.28-6.28h59.3c3.46,0,6.28,2.82,6.28,6.28v54.48c0,3.46-2.82,6.28-6.28,6.28ZM6.28,13.97c-.71,0-1.28.57-1.28,1.28v54.48c0,.71.57,1.28,1.28,1.28h59.3c.71,0,1.28-.57,1.28-1.28V15.25c0-.71-.57-1.28-1.28-1.28H6.28Z"/>
      <path d="M69.36,28.86H2.5c-1.38,0-2.5-1.12-2.5-2.5s1.12-2.5,2.5-2.5h66.86c1.38,0,2.5,1.12,2.5,2.5s-1.12,2.5-2.5,2.5Z"/>
      <g>
        <path d="M47.33,13.97c-1.38,0-2.5-1.12-2.5-2.5V2.5c0-1.38,1.12-2.5,2.5-2.5s2.5,1.12,2.5,2.5v8.97c0,1.38-1.12,2.5-2.5,2.5Z"/>
        <path d="M24.53,13.97c-1.38,0-2.5-1.12-2.5-2.5V2.5c0-1.38,1.12-2.5,2.5-2.5s2.5,1.12,2.5,2.5v8.97c0,1.38-1.12,2.5-2.5,2.5Z"/>
      </g>
      <path d="M31.73,59.49c-.64,0-1.28-.24-1.77-.73l-8.39-8.39c-.98-.98-.98-2.56,0-3.54.98-.98,2.56-.98,3.54,0l6.63,6.63,15.02-15.02c.98-.98,2.56-.98,3.54,0,.98.98.98,2.56,0,3.54l-16.79,16.79c-.49.49-1.13.73-1.77.73Z"/>
    </g>
  </g>
</svg>