<?xml version="1.0" encoding="UTF-8"?>
<svg id="Layer_2" data-name="Layer 2" xmlns="http://www.w3.org/2000/svg" viewBox="0 0 26.69 24.87">
  <defs>
    <style>
      .cls-1 {
        fill: #fff;
        fill-rule: evenodd;
      }
    </style>
  </defs>
  <g id="Layer_1-2" data-name="Layer 1">
    <path class="cls-1" d="M26.69,8.07v16.12l-8.41-6.45c-.29-.22-.71-.17-.93.12-.22.29-.17.71.12.93l7.92,6.07H1.37l7.85-6.08c.29-.22.34-.64.12-.93s-.64-.34-.93-.12L0,24.25s0-.03,0-.04V8.07s0-.09.01-.13l12.96,8.75c.24.17.56.15.78-.03l12.93-8.68s0,.05,0,.08h0ZM1.12,7.08l12.23,8.25,12.3-8.25L13.68.09h0c-.2-.12-.46-.12-.67,0L1.12,7.08Z"/>
  </g>
</svg>