<?xml version="1.0" encoding="UTF-8"?>
<svg id="Layer_2" data-name="Layer 2" xmlns="http://www.w3.org/2000/svg" viewBox="0 0 25.46 22.62">
  <defs>
    <style>
      .cls-1 {
        fill: #fff;
        fill-rule: evenodd;
      }
    </style>
  </defs>
  <g id="Layer_1-2" data-name="Layer 1">
    <path class="cls-1" d="M10.98,10.26c1.18.59,2.24,1.49,3.01,2.59.81,1.16,1.31,2.54,1.31,4.01v3.59c0,.6-.24,1.14-.64,1.53l-.04.04c-.39.37-.92.6-1.49.6H2.17c-.6,0-1.14-.24-1.53-.64-.39-.39-.64-.94-.64-1.53v-3.59c0-1.51.52-2.91,1.36-4.09.77-1.06,1.8-1.93,2.96-2.51-.64-.47-1.18-1.06-1.58-1.75-.49-.84-.76-1.81-.76-2.84,0-1.57.63-2.98,1.66-4.01,1.03-1.03,2.44-1.66,4.01-1.66s2.98.63,4.01,1.66c1.03,1.03,1.66,2.44,1.66,4.01,0,1-.26,1.94-.72,2.76-.4.72-.96,1.35-1.63,1.83h0ZM22.43,11.51c.41-.34.76-.76,1.03-1.23.35-.63.55-1.35.55-2.12,0-1.2-.49-2.29-1.27-3.08-.79-.79-1.87-1.27-3.08-1.27s-2.29.49-3.08,1.27c-.79.79-1.27,1.87-1.27,3.08,0,.79.21,1.54.59,2.18.26.45.6.84.99,1.17-.14.08-.28.16-.41.25-.34.23-.66.49-.96.78-.21.2-.28.52-.14.79.29.55.51,1.13.66,1.73.14.58.22,1.18.22,1.8v3.27c0,.37.3.67.67.67h6.76c.49,0,.93-.2,1.25-.52h0c.32-.32.52-.77.52-1.25v-2.64c0-1.13-.38-2.17-1-3.05-.53-.75-1.24-1.38-2.04-1.83Z"/>
  </g>
</svg>