<?xml version="1.0" encoding="UTF-8"?>
<svg id="Layer_2" data-name="Layer 2" xmlns="http://www.w3.org/2000/svg" viewBox="0 0 25.32 24.52">
  <defs>
    <style>
      .cls-1 {
        fill: #fff;
        fill-rule: evenodd;
      }
    </style>
  </defs>
  <g id="Layer_1-2" data-name="Layer 1">
    <path class="cls-1" d="M12.66,24.52c-.28,0-.52-.17-.62-.42-.98-1.88-2.94-4.34-4.99-6.9C3.64,12.92,0,8.37,0,5.3c0-1.49.77-2.84,2.02-3.8,1.2-.92,2.84-1.5,4.65-1.5,1.68,0,2.94.59,4,1.5.76.66,1.4,1.48,2,2.37.6-.88,1.24-1.71,2-2.37,1.05-.91,2.31-1.5,4-1.5,1.8,0,3.45.57,4.65,1.5,1.25.96,2.02,2.3,2.02,3.8,0,3.08-3.64,7.63-7.05,11.9-2.05,2.56-4.02,5.02-4.99,6.91-.1.24-.34.42-.62.42Z"/>
  </g>
</svg>