<?xml version="1.0" encoding="UTF-8"?>
<svg id="Layer_2" data-name="Layer 2" xmlns="http://www.w3.org/2000/svg" viewBox="0 0 29.87 29.23">
  <defs>
    <style>
      .cls-1 {
        fill: #fff;
        fill-rule: evenodd;
      }
    </style>
  </defs>
  <g id="Layer_1-2" data-name="Layer 1">
    <path class="cls-1" d="M7.23,4.88h0c.22,0,.46.01.71.04l.18.02c.72-1.41,1.8-2.61,3.12-3.47,1.42-.93,3.12-1.47,4.93-1.47,2.25,0,4.3.82,5.88,2.18,1.49,1.28,2.56,3.03,2.97,5.02,1.31.29,2.46.99,3.32,1.96.95,1.08,1.52,2.49,1.52,4.03,0,1.7-.69,3.23-1.81,4.34-1.12,1.11-2.66,1.8-4.36,1.8h0c-1,0-6.9,0-11.47,0-2.55,0-4.68,0-5.3-.01-1.9-.03-3.62-.87-4.86-2.18-1.28-1.33-2.07-3.14-2.07-5.04,0-1.99.81-3.8,2.12-5.11,1.31-1.31,3.12-2.12,5.11-2.12h0ZM7.57,28.34c-.33.17-.73.04-.9-.29-.17-.33-.04-.73.29-.9,1.76-.9,2.8-.29,3.77.27.54.32,1.05.61,1.66.34.54-.25,1-.42,1.4-.54.42-.12.78-.18,1.11-.19h.04c.33.01.69.07,1.11.19.4.12.86.29,1.4.54.61.28,1.12-.02,1.66-.34.97-.57,2.01-1.17,3.77-.27.33.17.46.57.29.9-.17.33-.57.46-.9.29-1.12-.57-1.83-.15-2.5.24-.85.49-1.65.96-2.88.4-.49-.22-.89-.38-1.23-.48-.3-.09-.55-.13-.75-.14-.21,0-.45.05-.75.14-.33.1-.74.25-1.23.48-1.23.56-2.03.1-2.88-.4-.67-.39-1.39-.81-2.5-.24h0ZM7.57,22.18c-.33.17-.73.04-.9-.29-.17-.33-.04-.73.29-.9,1.76-.9,2.8-.29,3.77.27.54.32,1.05.61,1.66.34.54-.25,1-.42,1.4-.54.42-.12.78-.18,1.11-.19h.04c.33.01.69.07,1.11.19.4.12.86.29,1.4.54.61.28,1.12-.02,1.66-.34.97-.57,2.01-1.17,3.77-.27.33.17.46.57.29.9-.17.33-.57.46-.9.29-1.12-.57-1.83-.15-2.5.24-.85.49-1.65.96-2.88.4-.49-.22-.89-.38-1.23-.48-.3-.09-.55-.13-.75-.14-.21,0-.45.05-.75.14-.33.1-.74.25-1.23.48-1.23.56-2.03.1-2.88-.4-.67-.39-1.39-.81-2.5-.24h0ZM7.57,25.26c1.12-.57,1.83-.15,2.5.24.85.49,1.65.96,2.88.4.49-.22.89-.38,1.23-.48.3-.09.55-.13.75-.14.21,0,.45.05.75.14.34.1.74.25,1.23.48,1.23.56,2.03.09,2.88-.4.67-.39,1.39-.81,2.5-.24.33.17.73.04.9-.29.17-.33.04-.73-.29-.9-1.76-.9-2.8-.29-3.77.27-.54.32-1.05.61-1.66.34-.54-.25-1-.42-1.4-.54-.42-.12-.78-.18-1.11-.19h-.04c-.33.01-.69.07-1.11.19-.4.12-.86.29-1.4.54-.61.28-1.12-.02-1.66-.34-.97-.57-2.01-1.17-3.77-.27-.33.17-.46.57-.29.9.17.33.57.46.9.29Z"/>
  </g>
</svg>