<?xml version="1.0" encoding="UTF-8"?>
<svg id="Layer_2" data-name="Layer 2" xmlns="http://www.w3.org/2000/svg" viewBox="0 0 77.33 69.3">
  <g id="Layer_1-2" data-name="Layer 1">
    <g>
      <path d="M16.34,15.71c-.16,0-.33-.02-.49-.05-.16-.03-.32-.08-.47-.14-.15-.06-.29-.14-.43-.23-.14-.09-.27-.2-.38-.31-.46-.47-.73-1.11-.73-1.77,0-.16.02-.33.05-.49.03-.16.08-.31.14-.46.06-.16.14-.3.23-.44.09-.13.19-.26.31-.38.58-.58,1.44-.85,2.26-.68.16.03.31.08.46.14.16.07.3.14.44.23.13.09.26.2.38.31.11.12.22.25.31.38.09.14.16.28.23.44.06.15.11.3.14.46.03.16.05.33.05.49,0,.66-.27,1.3-.73,1.77-.47.46-1.11.73-1.77.73Z"/>
      <path d="M29.29,15.71c-.17,0-.33-.02-.49-.05-.16-.03-.32-.08-.47-.14s-.3-.14-.43-.23c-.14-.09-.27-.2-.38-.31-.47-.47-.73-1.11-.73-1.77,0-.16.01-.33.05-.49.03-.16.08-.31.14-.46.06-.16.14-.3.23-.44.09-.13.19-.26.31-.38.11-.11.24-.22.38-.31.13-.09.28-.16.43-.23.15-.06.31-.11.47-.14.32-.07.65-.07.98,0,.15.03.31.08.46.14.15.07.3.14.44.23.13.09.26.2.38.31.11.12.22.25.31.38.09.14.16.28.22.44.07.15.12.3.15.46.03.16.05.33.05.49,0,.66-.27,1.3-.74,1.77-.46.46-1.1.73-1.76.73Z"/>
      <path d="M70.18,26.43H7.15c-3.94,0-7.15-3.21-7.15-7.15V7.15C0,3.21,3.21,0,7.15,0h63.04c3.94,0,7.15,3.21,7.15,7.15v12.13c0,3.94-3.21,7.15-7.15,7.15ZM7.15,5c-1.18,0-2.15.96-2.15,2.15v12.13c0,1.18.96,2.15,2.15,2.15h63.04c1.18,0,2.15-.96,2.15-2.15V7.15c0-1.19-.96-2.15-2.15-2.15H7.15Z"/>
      <path d="M16.34,37.15c-.66,0-1.3-.27-1.77-.74-.46-.46-.73-1.11-.73-1.77,0-.16.01-.32.05-.48.03-.17.08-.32.14-.47.06-.15.14-.3.23-.44.09-.13.2-.26.31-.37.93-.93,2.6-.94,3.54,0,.11.11.22.24.31.37.09.14.16.29.23.44.06.15.11.3.14.47.03.16.05.32.05.48,0,.66-.27,1.31-.73,1.77-.47.47-1.11.74-1.77.74Z"/>
      <path d="M29.29,37.15c-.17,0-.33-.02-.49-.05-.16-.04-.32-.08-.47-.15-.15-.06-.3-.14-.43-.23-.14-.09-.27-.19-.38-.31-.47-.46-.73-1.11-.73-1.77,0-.16.01-.32.05-.48.03-.17.08-.32.14-.47.06-.15.14-.3.23-.44.09-.13.19-.26.31-.37.93-.94,2.6-.93,3.53,0,.12.11.22.24.31.37.09.14.17.29.23.44.07.15.12.3.15.47.03.16.05.32.05.48,0,.66-.27,1.31-.74,1.77-.46.47-1.11.74-1.76.74Z"/>
      <path d="M70.18,47.86H7.15c-3.94,0-7.15-3.21-7.15-7.15v-12.13c0-3.94,3.21-7.15,7.15-7.15h63.04c3.94,0,7.15,3.21,7.15,7.15v12.13c0,3.94-3.21,7.15-7.15,7.15ZM7.15,26.43c-1.18,0-2.15.96-2.15,2.15v12.13c0,1.18.96,2.15,2.15,2.15h63.04c1.18,0,2.15-.96,2.15-2.15v-12.13c0-1.18-.96-2.15-2.15-2.15H7.15Z"/>
      <path d="M16.34,58.58c-.16,0-.33-.02-.49-.05-.16-.04-.32-.08-.47-.15-.15-.06-.29-.14-.43-.23-.14-.09-.26-.19-.38-.31-.11-.11-.22-.24-.31-.38-.09-.13-.17-.28-.23-.43-.06-.15-.11-.31-.14-.47-.03-.16-.05-.32-.05-.48,0-.17.02-.33.05-.49.03-.16.08-.32.14-.47.06-.15.14-.3.23-.43.09-.14.19-.27.31-.38.11-.12.24-.22.38-.31.14-.09.28-.17.43-.23.15-.07.31-.11.47-.15.81-.16,1.67.11,2.26.69.11.11.22.24.31.38.09.13.16.28.23.43.06.15.11.31.14.47.03.16.05.32.05.49,0,.16-.02.32-.05.48-.03.16-.08.32-.14.47-.07.15-.14.3-.23.43-.09.14-.2.27-.31.38-.47.47-1.12.74-1.77.74Z"/>
      <path d="M29.29,58.58c-.17,0-.33-.02-.49-.05-.16-.04-.32-.08-.47-.15-.15-.06-.3-.14-.43-.23-.14-.09-.27-.19-.38-.31-.12-.11-.22-.24-.31-.38-.09-.13-.17-.28-.23-.43-.06-.15-.11-.31-.14-.47-.04-.16-.05-.32-.05-.48,0-.17.01-.33.05-.49.03-.16.08-.32.14-.47.06-.15.14-.3.23-.43.09-.14.19-.27.31-.38.11-.12.24-.22.38-.31.13-.09.28-.17.43-.23.15-.07.31-.11.47-.15.32-.06.65-.06.97,0,.16.04.32.08.47.15.15.06.3.14.43.23.14.09.27.19.38.31.12.11.22.24.31.38.09.13.17.28.23.43.07.15.11.31.15.47.03.16.05.32.05.49,0,.16-.02.32-.05.48-.04.16-.08.32-.15.47-.06.15-.14.3-.23.43-.09.14-.19.27-.31.38-.11.12-.24.22-.38.31-.13.09-.28.17-.43.23-.15.07-.31.11-.47.15-.16.03-.32.05-.48.05Z"/>
      <path d="M70.18,69.3H7.15c-3.94,0-7.15-3.21-7.15-7.15v-12.13c0-3.94,3.21-7.15,7.15-7.15h63.04c3.94,0,7.15,3.21,7.15,7.15v12.13c0,3.94-3.21,7.15-7.15,7.15ZM7.15,47.86c-1.18,0-2.15.96-2.15,2.15v12.13c0,1.18.96,2.15,2.15,2.15h63.04c1.18,0,2.15-.96,2.15-2.15v-12.13c0-1.18-.96-2.15-2.15-2.15H7.15Z"/>
    </g>
  </g>
</svg>