<?xml version="1.0" encoding="UTF-8"?>
<svg id="Layer_2" data-name="Layer 2" xmlns="http://www.w3.org/2000/svg" viewBox="0 0 29.57 29.57">
  <defs>
    <style>
      .cls-1 {
        fill: #fff;
        fill-rule: evenodd;
      }
    </style>
  </defs>
  <g id="Layer_1-2" data-name="Layer 1">
    <path class="cls-1" d="M14.78,0c8.17,0,14.79,6.62,14.79,14.79s-6.62,14.78-14.79,14.78S0,22.95,0,14.79,6.62,0,14.78,0h0ZM3.97,10.91c-.3,0-.55.25-.55.55s.25.55.55.55.55-.25.55-.55-.25-.55-.55-.55h0ZM25.6,14.24c-.3,0-.55.25-.55.55s.25.55.55.55.55-.25.55-.55-.25-.55-.55-.55h0ZM23.94,15.9c-.3,0-.55.25-.55.55s.25.55.55.55.55-.25.55-.55-.25-.55-.55-.55h0ZM23.94,14.24c-.3,0-.55.25-.55.55s.25.55.55.55.55-.25.55-.55-.25-.55-.55-.55h0ZM23.94,12.57c-.3,0-.55.25-.55.55s.25.55.55.55.55-.25.55-.55-.25-.55-.55-.55h0ZM22.27,17.56c-.3,0-.55.25-.55.55s.25.55.55.55.55-.25.55-.55-.25-.55-.55-.55h0ZM22.27,15.9c-.3,0-.55.25-.55.55s.25.55.55.55.55-.25.55-.55-.25-.55-.55-.55h0ZM22.27,14.24c-.3,0-.55.25-.55.55s.25.55.55.55.55-.25.55-.55-.25-.55-.55-.55h0ZM22.27,12.57c-.3,0-.55.25-.55.55s.25.55.55.55.55-.25.55-.55-.25-.55-.55-.55h0ZM22.27,10.91c-.3,0-.55.25-.55.55s.25.55.55.55.55-.25.55-.55-.25-.55-.55-.55h0ZM20.61,19.23c-.3,0-.55.25-.55.55s.25.55.55.55.55-.25.55-.55-.25-.55-.55-.55h0ZM20.61,17.56c-.3,0-.55.25-.55.55s.25.55.55.55.55-.25.55-.55-.25-.55-.55-.55h0ZM20.61,15.9c-.3,0-.55.25-.55.55s.25.55.55.55.55-.25.55-.55-.25-.55-.55-.55h0ZM20.61,14.24c-.3,0-.55.25-.55.55s.25.55.55.55.55-.25.55-.55-.25-.55-.55-.55h0ZM20.61,12.57c-.3,0-.55.25-.55.55s.25.55.55.55.55-.25.55-.55-.25-.55-.55-.55h0ZM20.61,10.91c-.3,0-.55.25-.55.55s.25.55.55.55.55-.25.55-.55-.25-.55-.55-.55h0ZM20.61,9.24c-.3,0-.55.25-.55.55s.25.55.55.55.55-.25.55-.55-.25-.55-.55-.55h0ZM18.95,20.89c-.3,0-.55.25-.55.55s.25.55.55.55.55-.25.55-.55-.25-.55-.55-.55h0ZM18.95,19.23c-.3,0-.55.25-.55.55s.25.55.55.55.55-.25.55-.55-.25-.55-.55-.55h0ZM18.95,17.56c-.3,0-.55.25-.55.55s.25.55.55.55.55-.25.55-.55-.25-.55-.55-.55h0ZM18.95,15.9c-.3,0-.55.25-.55.55s.25.55.55.55.55-.25.55-.55-.25-.55-.55-.55h0ZM18.95,14.24c-.3,0-.55.25-.55.55s.25.55.55.55.55-.25.55-.55-.25-.55-.55-.55h0ZM18.95,12.57c-.3,0-.55.25-.55.55s.25.55.55.55.55-.25.55-.55-.25-.55-.55-.55h0ZM18.95,10.91c-.3,0-.55.25-.55.55s.25.55.55.55.55-.25.55-.55-.25-.55-.55-.55h0ZM18.95,9.24c-.3,0-.55.25-.55.55s.25.55.55.55.55-.25.55-.55-.25-.55-.55-.55h0ZM18.95,7.58c-.3,0-.55.25-.55.55s.25.55.55.55.55-.25.55-.55-.25-.55-.55-.55h0ZM17.28,22.56c-.3,0-.55.25-.55.55s.25.55.55.55.55-.25.55-.55-.25-.55-.55-.55h0ZM17.28,20.89c-.3,0-.55.25-.55.55s.25.55.55.55.55-.25.55-.55-.25-.55-.55-.55h0ZM17.28,19.23c-.3,0-.55.25-.55.55s.25.55.55.55.55-.25.55-.55-.25-.55-.55-.55h0ZM17.28,17.56c-.3,0-.55.25-.55.55s.25.55.55.55.55-.25.55-.55-.25-.55-.55-.55h0ZM17.28,15.9c-.3,0-.55.25-.55.55s.25.55.55.55.55-.25.55-.55-.25-.55-.55-.55h0ZM17.28,14.24c-.3,0-.55.25-.55.55s.25.55.55.55.55-.25.55-.55-.25-.55-.55-.55h0ZM17.28,12.57c-.3,0-.55.25-.55.55s.25.55.55.55.55-.25.55-.55-.25-.55-.55-.55h0ZM17.28,10.91c-.3,0-.55.25-.55.55s.25.55.55.55.55-.25.55-.55-.25-.55-.55-.55h0ZM17.28,9.24c-.3,0-.55.25-.55.55s.25.55.55.55.55-.25.55-.55-.25-.55-.55-.55h0ZM17.28,7.58c-.3,0-.55.25-.55.55s.25.55.55.55.55-.25.55-.55-.25-.55-.55-.55h0ZM17.28,5.91c-.3,0-.55.25-.55.55s.25.55.55.55.55-.25.55-.55-.25-.55-.55-.55h0ZM15.62,24.22c-.3,0-.55.25-.55.55s.25.55.55.55.55-.25.55-.55-.25-.55-.55-.55h0ZM15.62,22.56c-.3,0-.55.25-.55.55s.25.55.55.55.55-.25.55-.55-.25-.55-.55-.55h0ZM15.62,20.89c-.3,0-.55.25-.55.55s.25.55.55.55.55-.25.55-.55-.25-.55-.55-.55h0ZM15.62,19.23c-.3,0-.55.25-.55.55s.25.55.55.55.55-.25.55-.55-.25-.55-.55-.55h0ZM15.62,17.56c-.3,0-.55.25-.55.55s.25.55.55.55.55-.25.55-.55-.25-.55-.55-.55h0ZM15.62,15.9c-.3,0-.55.25-.55.55s.25.55.55.55.55-.25.55-.55-.25-.55-.55-.55h0ZM15.62,14.24c-.3,0-.55.25-.55.55s.25.55.55.55.55-.25.55-.55-.25-.55-.55-.55h0ZM15.62,12.57c-.3,0-.55.25-.55.55s.25.55.55.55.55-.25.55-.55-.25-.55-.55-.55h0ZM15.62,10.91c-.3,0-.55.25-.55.55s.25.55.55.55.55-.25.55-.55-.25-.55-.55-.55h0ZM15.62,9.24c-.3,0-.55.25-.55.55s.25.55.55.55.55-.25.55-.55-.25-.55-.55-.55h0ZM15.62,7.58c-.3,0-.55.25-.55.55s.25.55.55.55.55-.25.55-.55-.25-.55-.55-.55h0ZM15.62,5.91c-.3,0-.55.25-.55.55s.25.55.55.55.55-.25.55-.55-.25-.55-.55-.55h0ZM15.62,4.25c-.3,0-.55.25-.55.55s.25.55.55.55.55-.25.55-.55-.25-.55-.55-.55h0ZM13.95,17.56c-.3,0-.55.25-.55.55s.25.55.55.55.55-.25.55-.55-.25-.55-.55-.55h0ZM13.95,15.9c-.3,0-.55.25-.55.55s.25.55.55.55.55-.25.55-.55-.25-.55-.55-.55h0ZM13.95,14.24c-.3,0-.55.25-.55.55s.25.55.55.55.55-.25.55-.55-.25-.55-.55-.55h0ZM13.95,12.57c-.3,0-.55.25-.55.55s.25.55.55.55.55-.25.55-.55-.25-.55-.55-.55h0ZM13.95,10.91c-.3,0-.55.25-.55.55s.25.55.55.55.55-.25.55-.55-.25-.55-.55-.55h0ZM12.29,17.56c-.3,0-.55.25-.55.55s.25.55.55.55.55-.25.55-.55-.25-.55-.55-.55h0ZM12.29,15.9c-.3,0-.55.25-.55.55s.25.55.55.55.55-.25.55-.55-.25-.55-.55-.55h0ZM12.29,14.24c-.3,0-.55.25-.55.55s.25.55.55.55.55-.25.55-.55-.25-.55-.55-.55h0ZM12.29,12.57c-.3,0-.55.25-.55.55s.25.55.55.55.55-.25.55-.55-.25-.55-.55-.55h0ZM12.29,10.91c-.3,0-.55.25-.55.55s.25.55.55.55.55-.25.55-.55-.25-.55-.55-.55h0ZM10.62,17.56c-.3,0-.55.25-.55.55s.25.55.55.55.55-.25.55-.55-.25-.55-.55-.55h0ZM10.62,15.9c-.3,0-.55.25-.55.55s.25.55.55.55.55-.25.55-.55-.25-.55-.55-.55h0ZM10.62,14.24c-.3,0-.55.25-.55.55s.25.55.55.55.55-.25.55-.55-.25-.55-.55-.55h0ZM10.62,12.57c-.3,0-.55.25-.55.55s.25.55.55.55.55-.25.55-.55-.25-.55-.55-.55h0ZM10.62,10.91c-.3,0-.55.25-.55.55s.25.55.55.55.55-.25.55-.55-.25-.55-.55-.55h0ZM8.96,17.56c-.3,0-.55.25-.55.55s.25.55.55.55.55-.25.55-.55-.25-.55-.55-.55h0ZM8.96,15.9c-.3,0-.55.25-.55.55s.25.55.55.55.55-.25.55-.55-.25-.55-.55-.55h0ZM8.96,14.24c-.3,0-.55.25-.55.55s.25.55.55.55.55-.25.55-.55-.25-.55-.55-.55h0ZM8.96,12.57c-.3,0-.55.25-.55.55s.25.55.55.55.55-.25.55-.55-.25-.55-.55-.55h0ZM8.96,10.91c-.3,0-.55.25-.55.55s.25.55.55.55.55-.25.55-.55-.25-.55-.55-.55h0ZM7.3,17.56c-.3,0-.55.25-.55.55s.25.55.55.55.55-.25.55-.55-.25-.55-.55-.55h0ZM7.3,15.9c-.3,0-.55.25-.55.55s.25.55.55.55.55-.25.55-.55-.25-.55-.55-.55h0ZM7.3,14.24c-.3,0-.55.25-.55.55s.25.55.55.55.55-.25.55-.55-.25-.55-.55-.55h0ZM7.3,12.57c-.3,0-.55.25-.55.55s.25.55.55.55.55-.25.55-.55-.25-.55-.55-.55h0ZM7.3,10.91c-.3,0-.55.25-.55.55s.25.55.55.55.55-.25.55-.55-.25-.55-.55-.55h0ZM5.63,17.56c-.3,0-.55.25-.55.55s.25.55.55.55.55-.25.55-.55-.25-.55-.55-.55h0ZM5.63,15.9c-.3,0-.55.25-.55.55s.25.55.55.55.55-.25.55-.55-.25-.55-.55-.55h0ZM5.63,12.57c-.3,0-.55.25-.55.55s.25.55.55.55.55-.25.55-.55-.25-.55-.55-.55h0ZM5.63,10.91c-.3,0-.55.25-.55.55s.25.55.55.55.55-.25.55-.55-.25-.55-.55-.55h0ZM3.97,17.56c-.3,0-.55.25-.55.55s.25.55.55.55.55-.25.55-.55-.25-.55-.55-.55Z"/>
  </g>
</svg>