<?xml version="1.0" encoding="UTF-8"?>
<svg id="Layer_2" data-name="Layer 2" xmlns="http://www.w3.org/2000/svg" viewBox="0 0 22.34 23.81">
  <defs>
    <style>
      .cls-1 {
        fill: #fff;
        fill-rule: evenodd;
      }
    </style>
  </defs>
  <g id="Layer_1-2" data-name="Layer 1">
    <path class="cls-1" d="M0,15.37V4.34c0-1.2.49-2.28,1.27-3.07.79-.79,1.87-1.27,3.07-1.27h13.65c1.2,0,2.28.49,3.07,1.27.79.79,1.27,1.87,1.27,3.07v11.03c0,1.2-.49,2.28-1.27,3.07-.79.79-1.87,1.27-3.07,1.27h-8.19l-5.48,3.97c-.3.22-.71.15-.93-.15-.12-.17-.16-.38-.1-.57l.74-3.26c-1.08-.07-2.05-.54-2.77-1.26-.79-.79-1.27-1.87-1.27-3.07Z"/>
  </g>
</svg>