<?xml version="1.0" encoding="UTF-8"?>
<svg id="Layer_2" data-name="Layer 2" xmlns="http://www.w3.org/2000/svg" viewBox="0 0 21.8 23.81">
  <defs>
    <style>
      .cls-1 {
        fill: #fff;
        fill-rule: evenodd;
      }
    </style>
  </defs>
  <g id="Layer_1-2" data-name="Layer 1">
    <path class="cls-1" d="M10.9,0c2.99,0,5.7,1.04,7.67,2.73,2,1.71,3.23,4.08,3.23,6.71,0,2.31-.96,4.42-2.55,6.07-1.51,1.56-3.6,2.69-5.98,3.15l-1.74,4.72c-.13.35-.51.52-.85.4-.19-.07-.33-.22-.4-.4l-1.74-4.72c-2.38-.46-4.47-1.59-5.98-3.15-1.59-1.64-2.55-3.76-2.55-6.07,0-2.63,1.24-5,3.23-6.71C5.2,1.04,7.91,0,10.9,0Z"/>
  </g>
</svg>