<?xml version="1.0" encoding="UTF-8"?>
<svg id="Layer_2" data-name="Layer 2" xmlns="http://www.w3.org/2000/svg" viewBox="0 0 55.14 72.74">
  <g id="Layer_1-2" data-name="Layer 1">
    <g>
      <g>
        <path d="M44.53,72.74H10.62c-5.85,0-10.62-4.75-10.62-10.59V10.62C0,4.76,4.76,0,10.62,0h14.01c2.39,0,4.67.52,6.76,1.54,1.59.71,3.12,1.77,4.47,3.12l14.62,14.6c1.32,1.32,2.38,2.85,3.17,4.54.97,2.05,1.5,4.37,1.5,6.69v31.62c0,5.85-4.76,10.62-10.62,10.62ZM10.62,5c-3.1,0-5.62,2.52-5.62,5.62v51.53c0,3.08,2.52,5.59,5.62,5.59h33.91c3.1,0,5.62-2.52,5.62-5.62v-31.62c0-1.58-.35-3.16-1.02-4.57-.54-1.17-1.29-2.24-2.17-3.13l-14.62-14.6c-.92-.92-1.94-1.63-3.05-2.13-1.49-.72-3.02-1.07-4.65-1.07h-14.01Z"/>
        <path d="M51.38,27.35h-21.08c-1.38,0-2.5-1.12-2.5-2.5V3.79c0-.85.43-1.64,1.14-2.1.71-.46,1.61-.53,2.38-.19,1.67.75,3.2,1.81,4.55,3.16l14.62,14.6c1.32,1.32,2.38,2.84,3.17,4.54.36.77.3,1.68-.16,2.4s-1.25,1.15-2.11,1.15ZM32.79,22.35h13.71l-13.71-13.69v13.69Z"/>
      </g>
      <path d="M37.79,59.45h-20.43c-2.95,0-5.35-2.4-5.35-5.35v-7.44c0-2.95,2.4-5.35,5.35-5.35h20.43c2.95,0,5.35,2.4,5.35,5.35v7.44c0,2.95-2.4,5.35-5.35,5.35ZM17.35,46.31c-.19,0-.35.16-.35.35v7.44c0,.19.16.35.35.35h20.43c.19,0,.35-.16.35-.35v-7.44c0-.19-.16-.35-.35-.35h-20.43Z"/>
      <path d="M18.74,31.65h-6.3c-1.38,0-2.5-1.12-2.5-2.5s1.12-2.5,2.5-2.5h6.3c1.38,0,2.5,1.12,2.5,2.5s-1.12,2.5-2.5,2.5Z"/>
      <path d="M18.74,20.56h-6.3c-1.38,0-2.5-1.12-2.5-2.5s1.12-2.5,2.5-2.5h6.3c1.38,0,2.5,1.12,2.5,2.5s-1.12,2.5-2.5,2.5Z"/>
    </g>
  </g>
</svg>