<?xml version="1.0" encoding="UTF-8"?>
<svg id="Layer_2" data-name="Layer 2" xmlns="http://www.w3.org/2000/svg" viewBox="0 0 19.94 28.21">
  <defs>
    <style>
      .cls-1 {
        fill: #fff;
        fill-rule: evenodd;
      }
    </style>
  </defs>
  <g id="Layer_1-2" data-name="Layer 1">
    <path class="cls-1" d="M9.97,0c2.75,0,5.25,1.12,7.05,2.92s2.92,4.3,2.92,7.05c0,5.94-3.79,11.16-7.26,15.94-.32.45-.64.88-1.05,1.45-.19.27-.44.48-.73.63-.29.15-.6.22-.93.22s-.65-.08-.93-.22c-.29-.15-.53-.36-.73-.63-.41-.57-.72-1-1.05-1.45C3.79,21.13,0,15.91,0,9.97c0-2.75,1.12-5.25,2.92-7.05S7.22,0,9.97,0h0ZM9.97,5.28c-1.29,0-2.47.53-3.32,1.37-.85.85-1.37,2.02-1.37,3.32s.53,2.47,1.37,3.32c.85.85,2.02,1.37,3.32,1.37s2.47-.52,3.32-1.37c.85-.85,1.37-2.02,1.37-3.32s-.52-2.47-1.37-3.32c-.85-.85-2.02-1.37-3.32-1.37Z"/>
  </g>
</svg>