<?xml version="1.0" encoding="UTF-8"?>
<svg id="Layer_2" data-name="Layer 2" xmlns="http://www.w3.org/2000/svg" viewBox="0 0 30.93 18.62">
  <defs>
    <style>
      .cls-1 {
        fill: #fff;
        fill-rule: evenodd;
      }
    </style>
  </defs>
  <g id="Layer_1-2" data-name="Layer 1">
    <path class="cls-1" d="M1.81.09l19.37,7.4c.42.16.86.11,1.23-.15.37-.26.58-.64.58-1.1v-.77c0-.51.27-.95.73-1.19.46-.23.97-.19,1.39.11l5.29,3.83c.36.26.55.64.55,1.08s-.19.82-.55,1.08l-5.29,3.83c-.42.3-.93.34-1.39.11-.46-.23-.73-.67-.73-1.19v-.77c0-.45-.2-.84-.58-1.1-.37-.26-.81-.31-1.23-.15L1.81,18.53c-.42.16-.86.11-1.23-.15-.37-.26-.58-.64-.58-1.1V1.34C0,.88.2.5.58.24.95-.02,1.38-.07,1.81.09Z"/>
  </g>
</svg>