<?xml version="1.0" encoding="UTF-8"?>
<svg id="Layer_2" data-name="Layer 2" xmlns="http://www.w3.org/2000/svg" viewBox="0 0 22.36 25.06">
  <defs>
    <style>
      .cls-1 {
        fill: #fff;
        fill-rule: evenodd;
      }
    </style>
  </defs>
  <g id="Layer_1-2" data-name="Layer 1">
    <path class="cls-1" d="M10,0c1.68,0,3.19.68,4.29,1.78,1.1,1.1,1.78,2.62,1.78,4.29s-.68,3.19-1.78,4.29c-.5.5-1.08.91-1.73,1.21,1.01.27,1.95.69,2.8,1.24h-1.23c-.62,0-1.04.21-1.35.54-.27.27-.42.58-.57.9v.03h-.47c-.4,0-.79.08-1.14.23-.37.15-.69.37-.97.65-.27.27-.49.6-.65.97-.15.35-.23.74-.23,1.14v5.49c0,.4.08.79.23,1.14.11.27.26.52.44.74H2.2c-.61,0-1.16-.25-1.56-.65-.4-.4-.65-.95-.65-1.56v-1.2c0-2.75,1.12-5.25,2.94-7.06,1.23-1.23,2.77-2.14,4.49-2.6-.64-.3-1.23-.71-1.73-1.21-1.1-1.1-1.78-2.62-1.78-4.29s.68-3.19,1.78-4.29c1.1-1.1,2.62-1.78,4.29-1.78h0ZM11.74,14.94c-.64,0-1.22.26-1.64.68s-.68,1-.68,1.64v5.49c0,.64.26,1.22.68,1.64.42.42,1,.68,1.64.68h8.31c.64,0,1.22-.26,1.64-.68.42-.42.68-1,.68-1.64v-5.49c0-.63-.26-1.21-.68-1.63h0c-.42-.42-1-.68-1.63-.68h-.82l-.11-.28c-.1-.25-.21-.49-.39-.71-.24-.29-.55-.48-1-.48h-3.59c-.82,0-1.08.54-1.35,1.1l-.18.37h-.87ZM15.9,16.56c-.91,0-1.73.37-2.33.97h0c-.6.6-.97,1.42-.97,2.33s.37,1.73.97,2.33h0c.6.6,1.42.97,2.33.97s1.73-.37,2.33-.97h0c.6-.6.97-1.43.97-2.33s-.37-1.73-.97-2.33h0c-.6-.6-1.42-.97-2.33-.97h0ZM16.9,17.43c-.31-.13-.65-.2-1.01-.2s-.7.07-1.01.2c-.31.13-.59.31-.83.54l-.03.03h0c-.24.24-.44.53-.57.86-.13.31-.2.65-.2,1.01s.07.7.2,1.01c.13.31.31.59.54.83l.03.03h0c.24.24.53.44.86.57.31.13.65.2,1.01.2s.7-.07,1.01-.2c.31-.13.59-.31.83-.54l.03-.03h0c.24-.24.44-.53.57-.86.13-.31.2-.65.2-1.01s-.07-.7-.2-1.01c-.13-.31-.31-.59-.54-.83l-.03-.03h0c-.24-.24-.53-.44-.86-.57Z"/>
  </g>
</svg>