<?xml version="1.0" encoding="UTF-8"?>
<svg id="Layer_2" data-name="Layer 2" xmlns="http://www.w3.org/2000/svg" viewBox="0 0 81.09 62.15">
  <g id="Layer_1-2" data-name="Layer 1">
    <path d="M40.54,62.15c-2.61,0-5.22-.99-7.2-2.98L5.34,31.17C-1.78,24.05-1.78,12.47,5.34,5.35,8.79,1.9,13.37,0,18.25,0s9.46,1.9,12.91,5.35l9.38,9.38,9.38-9.38c3.45-3.45,8.03-5.35,12.91-5.35s9.46,1.9,12.91,5.35h0c3.45,3.45,5.35,8.03,5.35,12.91s-1.9,9.46-5.35,12.91l-28,28c-1.99,1.99-4.6,2.98-7.2,2.98ZM18.25,5c-3.54,0-6.87,1.38-9.38,3.88-2.5,2.5-3.88,5.83-3.88,9.38s1.38,6.87,3.88,9.38l28,28c2.02,2.02,5.31,2.02,7.34,0l28-28c2.5-2.5,3.88-5.83,3.88-9.38s-1.38-6.87-3.88-9.38c-2.5-2.5-5.83-3.88-9.38-3.88s-6.87,1.38-9.38,3.88l-11.15,11.14c-.47.47-1.1.73-1.77.73h0c-.66,0-1.3-.26-1.77-.73l-11.14-11.14c-2.5-2.5-5.83-3.88-9.38-3.88Z"/>
  </g>
</svg>