<?xml version="1.0" encoding="UTF-8"?>
<svg id="Layer_2" data-name="Layer 2" xmlns="http://www.w3.org/2000/svg" viewBox="0 0 24.28 25.46">
  <defs>
    <style>
      .cls-1 {
        fill: #fff;
        fill-rule: evenodd;
      }
    </style>
  </defs>
  <g id="Layer_1-2" data-name="Layer 1">
    <path class="cls-1" d="M15.57.47l1.42,4.52,3.48-.9c.14-.05.29-.05.44,0,.34.13.52.51.4.85l-1.08,2.93h2.94c.15,0,.29.05.41.15.29.23.34.65.11.93l-2.68,3.37,3,2.29c.11.08.2.19.24.33.11.35-.08.72-.43.84l-3.89,1.27,3.26,7.46c.11.24.07.54-.13.74-.26.26-.68.27-.94.01l-6.04-5.87-1.45,2.18c-.05.08-.12.15-.2.2-.31.2-.72.11-.92-.2l-1.45-2.24-2.34,3.12c-.1.14-.25.24-.43.27-.36.07-.71-.17-.77-.53l-.6-3.23-3.38,1.04c-.11.04-.23.05-.35.03-.36-.06-.6-.41-.54-.77l.69-3.87L.35,13.03c-.13-.07-.24-.19-.3-.35-.13-.34.04-.73.39-.86l4.14-1.56-1.84-3.3c-.05-.1-.08-.21-.08-.33,0-.37.3-.66.67-.66l3.33.03.37-4.13c.01-.13.06-.26.15-.37.23-.28.65-.32.93-.09l3.33,2.77L14.37.3c.08-.13.21-.23.36-.27.35-.11.72.09.83.44Z"/>
  </g>
</svg>