<?xml version="1.0" encoding="UTF-8"?>
<svg id="Layer_2" data-name="Layer 2" xmlns="http://www.w3.org/2000/svg" viewBox="0 0 71.56 70.47">
  <g id="Layer_1-2" data-name="Layer 1">
    <g>
      <g>
        <path d="M57,51.03c-.64,0-1.28-.24-1.77-.73-.98-.98-.98-2.56,0-3.54l11.18-11.18c.12-.12.14-.26.14-.35s-.03-.23-.14-.35l-11.18-11.18c-.98-.98-.98-2.56,0-3.54.98-.98,2.56-.98,3.54,0l11.18,11.18c1.04,1.04,1.61,2.42,1.61,3.88s-.57,2.85-1.61,3.88l-11.18,11.18c-.49.49-1.13.73-1.77.73Z"/>
        <path d="M69.06,37.73H21.17c-1.38,0-2.5-1.12-2.5-2.5s1.12-2.5,2.5-2.5h47.89c1.38,0,2.5,1.12,2.5,2.5s-1.12,2.5-2.5,2.5Z"/>
      </g>
      <path d="M23.18,70.47h-7.95c-8.4,0-15.23-6.84-15.23-15.25V15.25C0,6.84,6.83,0,15.23,0h7.95c8.4,0,15.23,6.84,15.23,15.25v6.02c0,1.38-1.12,2.5-2.5,2.5s-2.5-1.12-2.5-2.5v-6.02c0-5.65-4.59-10.25-10.23-10.25h-7.95c-5.64,0-10.23,4.6-10.23,10.25v39.97c0,5.65,4.59,10.25,10.23,10.25h7.95c5.64,0,10.23-4.6,10.23-10.25v-6.02c0-1.38,1.12-2.5,2.5-2.5s2.5,1.12,2.5,2.5v6.02c0,8.41-6.83,15.25-15.23,15.25Z"/>
    </g>
  </g>
</svg>