<?xml version="1.0" encoding="UTF-8"?>
<svg id="Layer_2" data-name="Layer 2" xmlns="http://www.w3.org/2000/svg" viewBox="0 0 24.52 24.4">
  <defs>
    <style>
      .cls-1 {
        fill: #fff;
        fill-rule: evenodd;
      }
    </style>
  </defs>
  <g id="Layer_1-2" data-name="Layer 1">
    <path class="cls-1" d="M6.04,1.57c2.55,1.76,5.42,4.78,6.89,7.45,2.2-3.2,4.58-5.71,6.54-6.96.87-.55,1.67-.87,2.38-.92.83-.06,1.52.24,2.01.93.39.56.62,1.38.65,2.5.11,3.81-.64,7.04-2.48,10.18-1.81,3.1-4.67,6.1-8.77,9.5-.24.21-.6.22-.86,0-4.29-3.55-7.76-7.41-9.93-11.34C.46,9.24-.43,5.5.2,1.85c.11-.62.35-1.07.71-1.38C1.51-.05,2.34-.12,3.31.17c.82.24,1.76.74,2.73,1.4Z"/>
  </g>
</svg>