<?xml version="1.0" encoding="UTF-8"?>
<svg id="Layer_2" data-name="Layer 2" xmlns="http://www.w3.org/2000/svg" viewBox="0 0 26.01 26.01">
  <defs>
    <style>
      .cls-1 {
        fill: #fff;
        fill-rule: evenodd;
      }
    </style>
  </defs>
  <g id="Layer_1-2" data-name="Layer 1">
    <path class="cls-1" d="M5.58,0h14.86c1.53,0,2.93.63,3.94,1.64,1.01,1.01,1.64,2.41,1.64,3.94v14.86c0,1.53-.63,2.93-1.64,3.94-1.01,1.01-2.41,1.64-3.94,1.64H5.58c-1.53,0-2.93-.63-3.94-1.64-1.01-1.01-1.64-2.41-1.64-3.94V5.58c0-1.53.63-2.93,1.64-3.94s2.41-1.64,3.94-1.64h0ZM4.25,21.03h5.84c.4,0,.73-.33.73-.73s-.33-.73-.73-.73h-5.84c-.4,0-.73.33-.73.73s.33.73.73.73h0ZM4.25,7.9h16.05c.4,0,.73-.33.73-.73s-.33-.73-.73-.73H4.25c-.4,0-.73.33-.73.73s.33.73.73.73h0ZM4.25,12.28h16.05c.4,0,.73-.33.73-.73s-.33-.73-.73-.73H4.25c-.4,0-.73.33-.73.73s.33.73.73.73h0ZM4.25,16.65h5.84c.4,0,.73-.33.73-.73s-.33-.73-.73-.73h-5.84c-.4,0-.73.33-.73.73s.33.73.73.73Z"/>
  </g>
</svg>