<?xml version="1.0" encoding="UTF-8"?>
<svg id="Layer_2" data-name="Layer 2" xmlns="http://www.w3.org/2000/svg" viewBox="0 0 27.08 18.67">
  <defs>
    <style>
      .cls-1 {
        fill: #fff;
        fill-rule: evenodd;
      }
    </style>
  </defs>
  <g id="Layer_1-2" data-name="Layer 1">
    <path class="cls-1" d="M1.35,0h22.22l-11.09,7.39L1.35,0h0ZM19.38,15.07v2.93c0,.37.3.67.67.67.19,0,.35-.08.48-.2l6.36-6.36c.26-.26.26-.68,0-.94l-6.37-6.37c-.26-.26-.68-.26-.94,0-.13.13-.2.3-.2.47v2.93h-5.7c-.37,0-.67.3-.67.67v5.54c0,.37.3.67.67.67h5.7ZM24.97.67l-4.91,3.27c.34,0,.67.13.93.39l3.98,3.98V.67h0ZM18.71,16.37v-.63h-5.04c-.37,0-.7-.15-.94-.39l-.05-.05c-.21-.24-.34-.55-.34-.89v-5.57c-.08-.02-.16-.05-.23-.1L0,.7v14.92l8.6-6.72c.29-.23.71-.17.93.11.23.29.17.71-.11.93L1.2,16.37h17.52ZM14.66,7.54h4.06v-2.27h0c0-.17.03-.34.1-.5l-4.16,2.77h0ZM24.97,14.97v.73c0,.37-.3.67-.67.67h-.73l1.4-1.4Z"/>
  </g>
</svg>