<?xml version="1.0" encoding="UTF-8"?>
<svg id="Layer_2" data-name="Layer 2" xmlns="http://www.w3.org/2000/svg" viewBox="0 0 29.64 20.44">
  <defs>
    <style>
      .cls-1 {
        fill: #fff;
        fill-rule: evenodd;
      }
    </style>
  </defs>
  <g id="Layer_1-2" data-name="Layer 1">
    <path class="cls-1" d="M1.41,0h24.59l-12.33,8.09L1.41,0h0ZM21.21,16.5v3.21c0,.4.33.73.73.73.2,0,.39-.08.52-.22l6.97-6.97c.28-.28.28-.75,0-1.03l-6.97-6.97c-.28-.28-.75-.28-1.03,0-.14.14-.21.33-.21.52v3.21h-6.24c-.4,0-.73.33-.73.73v6.06c0,.4.33.73.73.73h6.24ZM27.33.87l-5.25,3.44c.33.03.65.17.9.42l4.35,4.35V.87h0ZM20.48,17.92v-.69h-5.51c-.4,0-.77-.16-1.03-.43h0c-.27-.27-.43-.63-.43-1.03v-6.1c-.09-.02-.17-.05-.25-.11L0,.81v16.25l9.41-7.32c.32-.25.78-.19,1.02.13.25.32.19.78-.13,1.02L1.27,17.92h19.21ZM16.08,8.25h4.41v-2.48h0c0-.16.02-.31.07-.46l-4.48,2.94h0ZM27.33,16.39v.8c0,.4-.33.73-.73.73h-.8l1.53-1.53Z"/>
  </g>
</svg>