<?xml version="1.0" encoding="UTF-8"?>
<svg id="Layer_2" data-name="Layer 2" xmlns="http://www.w3.org/2000/svg" viewBox="0 0 26.07 26.07">
  <defs>
    <style>
      .cls-1 {
        fill: #fff;
        fill-rule: evenodd;
      }
    </style>
  </defs>
  <g id="Layer_1-2" data-name="Layer 1">
    <path class="cls-1" d="M19.15,4.34c.48.34.92.71,1.33,1.11.41.41.79.85,1.13,1.32l2.38-.71c.34-.1.69.08.81.4l1.14,2.69c.13.32,0,.68-.29.84l-2.16,1.22c.1.57.15,1.15.16,1.73,0,.57-.04,1.15-.13,1.73l2.18,1.18c.31.17.43.54.29.86l-1.1,2.72c-.13.32-.47.48-.8.39l-2.39-.67c-.33.48-.71.92-1.11,1.33-.41.41-.85.79-1.32,1.13l.71,2.38c.1.34-.08.69-.4.81l-2.69,1.14c-.32.13-.68,0-.84-.29l-1.22-2.16c-.57.1-1.15.15-1.73.16-.57,0-1.15-.04-1.73-.13l-1.18,2.18c-.17.31-.54.43-.86.29l-2.72-1.1c-.32-.13-.48-.47-.39-.8l.67-2.39c-.48-.34-.92-.71-1.33-1.11-.41-.41-.79-.85-1.13-1.32l-2.38.71c-.34.1-.69-.08-.81-.4L.11,16.91c-.13-.32,0-.68.29-.84l2.16-1.22c-.1-.57-.15-1.15-.16-1.73,0-.57.04-1.15.13-1.73l-2.18-1.18c-.31-.17-.43-.54-.29-.86l1.1-2.72c.13-.32.47-.48.8-.39l2.39.67c.34-.48.71-.92,1.11-1.33.41-.41.85-.79,1.32-1.13l-.71-2.38c-.1-.34.08-.69.4-.81L9.15.11c.32-.13.68,0,.84.29l1.22,2.16c.57-.1,1.15-.15,1.73-.16.57,0,1.15.04,1.73.13l1.18-2.18c.17-.31.54-.43.86-.29l2.72,1.1c.32.13.48.47.39.8l-.67,2.39h0ZM17.89,10.97c-.53-1.24-1.53-2.28-2.88-2.83h0c-1.35-.55-2.8-.49-4.04.03-1.24.53-2.28,1.53-2.83,2.88-.55,1.35-.49,2.8.03,4.04.53,1.24,1.53,2.28,2.88,2.83h0c1.35.55,2.8.49,4.04-.03,1.24-.53,2.28-1.53,2.83-2.87h0c.55-1.36.49-2.8-.03-4.04Z"/>
  </g>
</svg>