<?xml version="1.0" encoding="UTF-8"?>
<svg id="Layer_2" data-name="Layer 2" xmlns="http://www.w3.org/2000/svg" viewBox="0 0 15.45 25.64">
  <defs>
    <style>
      .cls-1 {
        fill: #fff;
        fill-rule: evenodd;
      }
    </style>
  </defs>
  <g id="Layer_1-2" data-name="Layer 1">
    <path class="cls-1" d="M3.51,25.02l-.37-5.18c.43.28.89.53,1.38.73.99.41,2.07.64,3.21.64s2.22-.23,3.21-.64c.51-.21,1-.47,1.46-.78l-.37,5.19c0,.36-.3.65-.67.65h-7.18c-.35,0-.64-.27-.66-.62h0ZM7.72,5.1c-2.13,0-4.06.86-5.46,2.26-1.4,1.4-2.26,3.33-2.26,5.46s.86,4.06,2.26,5.46c1.4,1.4,3.33,2.26,5.46,2.26s4.06-.86,5.46-2.26,2.26-3.33,2.26-5.46-.86-4.06-2.26-5.46c-1.4-1.4-3.33-2.26-5.46-2.26h0ZM6.71,8.74c0-.37.3-.67.67-.67s.67.3.67.67v3.68l2.88,1.56c.32.17.44.58.27.9-.17.32-.58.44-.9.27l-3.2-1.73c-.23-.11-.39-.34-.39-.61v-4.08h0ZM3.14,5.8l.37-5.18C3.53.27,3.82,0,4.17,0h7.18c.36,0,.66.29.67.65l.37,5.19c-.46-.3-.94-.57-1.46-.78-.99-.41-2.07-.64-3.21-.64s-2.22.23-3.21.64c-.48.2-.95.45-1.38.73Z"/>
  </g>
</svg>