<?xml version="1.0" encoding="UTF-8"?>
<svg id="Layer_2" data-name="Layer 2" xmlns="http://www.w3.org/2000/svg" viewBox="0 0 49.92 70.46">
  <g id="Layer_1-2" data-name="Layer 1">
    <g>
      <path d="M24.96,58.98c-.66,0-1.3-.27-1.76-.73-.12-.12-.22-.25-.32-.38-.09-.14-.16-.28-.23-.44-.06-.15-.11-.3-.14-.46-.03-.16-.05-.33-.05-.49,0-.66.27-1.31.74-1.77.58-.58,1.44-.85,2.25-.68.16.03.32.08.47.14.15.06.29.14.43.23.14.09.27.2.38.31.47.47.73,1.11.73,1.77s-.26,1.3-.73,1.77c-.11.11-.24.22-.38.31-.14.09-.28.17-.43.23-.15.06-.31.11-.47.14s-.33.05-.49.05Z"/>
      <path d="M41.89,70.46H8.02c-4.42,0-8.02-3.6-8.02-8.02V8.02C0,3.6,3.6,0,8.02,0h33.87c4.42,0,8.03,3.6,8.03,8.02v54.41c0,4.42-3.6,8.02-8.03,8.02ZM8.02,5c-1.67,0-3.02,1.36-3.02,3.02v54.41c0,1.67,1.36,3.02,3.02,3.02h33.87c1.67,0,3.03-1.36,3.03-3.02V8.02c0-1.67-1.36-3.02-3.03-3.02H8.02Z"/>
      <path d="M30.57,15.27h-11.23c-1.38,0-2.5-1.12-2.5-2.5s1.12-2.5,2.5-2.5h11.23c1.38,0,2.5,1.12,2.5,2.5s-1.12,2.5-2.5,2.5Z"/>
    </g>
  </g>
</svg>