<?xml version="1.0" encoding="UTF-8"?>
<svg id="Layer_2" data-name="Layer 2" xmlns="http://www.w3.org/2000/svg" viewBox="0 0 20.42 26.53">
  <defs>
    <style>
      .cls-1 {
        fill: #fff;
        fill-rule: evenodd;
      }
    </style>
  </defs>
  <g id="Layer_1-2" data-name="Layer 1">
    <path class="cls-1" d="M10,0c1.68,0,3.19.68,4.29,1.78,1.1,1.1,1.78,2.62,1.78,4.29s-.68,3.19-1.78,4.29c-.5.5-1.08.91-1.73,1.21,1.09.29,2.11.76,3.02,1.38-.05,0-.11,0-.16,0l-1.4.02c-.37,0-.7.16-.94.4-.24.24-.38.57-.38.94,0,.17.04.34.1.49h-.04s0,0,0,0c-.19-.31-.49-.52-.82-.6-.31-.07-.64-.04-.94.12-.02.01-.04.02-.07.03-.31.19-.52.49-.6.82-.08.32-.04.66.14.97-.08.08-.16.15-.23.22-.6.6-1.06,1.31-1.38,2.06-.32.78-.48,1.61-.48,2.43s.16,1.65.48,2.43c.2.48.45.93.77,1.36H2.2c-.61,0-1.16-.25-1.56-.65s-.65-.95-.65-1.56v-1.2c0-2.75,1.12-5.25,2.94-7.06,1.23-1.23,2.77-2.14,4.5-2.6-.65-.3-1.23-.71-1.73-1.21-1.1-1.1-1.78-2.62-1.78-4.29s.68-3.19,1.78-4.29c1.1-1.1,2.62-1.78,4.29-1.78h0ZM12.97,18.38l1.16,2.66c.11.25.35.4.61.4h0s1.62,0,1.62,0c.03.34.32.61.66.61.16,0,.3-.05.42-.15l.88-.57c.31-.2.4-.61.2-.92-.05-.08-.12-.15-.2-.2l-.94-.6c-.31-.2-.72-.11-.92.2-.06.09-.09.19-.1.3h-1.18l-.98-2.26c-.15-.34-.54-.49-.87-.34-.34.15-.49.54-.34.87h0ZM10.72,16.83c-1.11,1.11-1.66,2.56-1.66,4.02s.55,2.91,1.66,4.02,2.56,1.66,4.02,1.66,2.91-.55,4.02-1.66c1.11-1.11,1.66-2.56,1.66-4.02s-.55-2.91-1.66-4.02c-.2-.2-.4-.37-.62-.54l.27-.5c.18-.32.06-.73-.26-.9-.32-.18-.73-.06-.9.26l-.26.47c-.51-.22-1.04-.36-1.58-.42v-.06s0-.21,0-.21h.04c.37,0,.66-.31.66-.67,0-.37-.31-.66-.67-.66l-1.39.02c-.37,0-.66.31-.66.67,0,.37.31.66.67.66h.02s0,.22,0,.22v.03c-.54.06-1.07.2-1.58.42l-.29-.48c-.19-.31-.6-.41-.91-.22-.31.19-.41.6-.22.91l.28.46c-.22.16-.42.34-.62.54Z"/>
  </g>
</svg>