<?xml version="1.0" encoding="UTF-8"?>
<svg id="Layer_2" data-name="Layer 2" xmlns="http://www.w3.org/2000/svg" viewBox="0 0 160.54 160.54">
  <defs>
    <style>
      .cls-1 {
        fill: #080a16;
      }
    </style>
  </defs>
  <g id="Calque_1" data-name="Calque 1">
    <path class="cls-1" d="M118.56,0c-17.26,0-31.76,18.96-38.29,46.8C73.75,18.96,59.24,0,41.99,0,18.44,0,0,35.26,0,80.27s18.44,80.27,41.99,80.27c17.26,0,31.76-18.96,38.28-46.8,6.52,27.84,21.03,46.8,38.29,46.8,23.54,0,41.99-35.26,41.99-80.27S142.1,0,118.56,0ZM41.99,153.14c-18.75,0-34.58-33.37-34.58-72.87S23.24,7.4,41.99,7.4s34.58,33.37,34.58,72.87-15.84,72.87-34.58,72.87ZM118.56,153.14c-18.75,0-34.58-33.37-34.58-72.87S99.81,7.4,118.56,7.4s34.58,33.37,34.58,72.87-15.84,72.87-34.58,72.87Z"/>
  </g>
</svg>