<?xml version="1.0" encoding="UTF-8"?>
<svg id="Layer_2" data-name="Layer 2" xmlns="http://www.w3.org/2000/svg" viewBox="0 0 25.89 22.84">
  <defs>
    <style>
      .cls-1 {
        fill: #fff;
        fill-rule: evenodd;
      }
    </style>
  </defs>
  <g id="Layer_1-2" data-name="Layer 1">
    <path class="cls-1" d="M0,18.82V1.34C0,.87.21.48.6.22.99-.03,1.44-.07,1.86.11l23.23,10.08c.5.22.8.68.8,1.22s-.3,1.01-.8,1.22L1.86,22.72c-.42.18-.87.15-1.26-.11-.39-.25-.6-.65-.6-1.11v-2.68h0ZM6.11,18.01l12.37-5.37c.5-.22.8-.68.8-1.22s-.3-1.01-.8-1.22L6.11,4.83c-.42-.18-.87-.15-1.26.11-.39.25-.6.65-.6,1.11v10.74c0,.46.21.86.6,1.11.39.25.84.29,1.26.11h0ZM2.45,4.05v14.74c0,.46.21.86.6,1.11s.84.29,1.26.11l16.97-7.37c.5-.22.8-.68.8-1.22s-.3-1.01-.8-1.22L4.31,2.83c-.42-.18-.87-.15-1.26.11-.39.25-.6.65-.6,1.11Z"/>
  </g>
</svg>