<?xml version="1.0" encoding="UTF-8"?>
<svg id="Layer_2" data-name="Layer 2" xmlns="http://www.w3.org/2000/svg" viewBox="0 0 77.75 77.73">
  <g id="Layer_1-2" data-name="Layer 1">
    <g>
      <path d="M45.17,77.73H11.21c-6.18,0-11.21-5.03-11.21-11.21V11.19C0,5.02,5.03,0,11.21,0h38.68c1.38,0,2.5,1.12,2.5,2.5s-1.12,2.5-2.5,2.5H11.21c-3.43,0-6.21,2.78-6.21,6.19v55.33c0,3.43,2.79,6.21,6.21,6.21h33.96c1.77,0,3.45-.38,4.99-1.13,1.29-.58,2.41-1.36,3.41-2.36l15.7-15.68c.96-.96,1.78-2.13,2.36-3.38.74-1.56,1.13-3.29,1.13-5.02v-17.34c0-1.38,1.12-2.5,2.5-2.5s2.5,1.12,2.5,2.5v17.34c0,2.46-.55,4.93-1.6,7.14-.82,1.78-1.95,3.4-3.35,4.8l-15.7,15.68c-1.43,1.43-3.06,2.56-4.83,3.35-2.15,1.05-4.56,1.6-7.1,1.6Z"/>
      <path d="M51.26,76.35c-.48,0-.95-.14-1.36-.4-.71-.46-1.14-1.25-1.14-2.1v-22.61c0-1.38,1.12-2.5,2.5-2.5h22.64c.85,0,1.65.43,2.11,1.15.46.72.52,1.62.16,2.4-.83,1.8-1.96,3.42-3.36,4.82l-15.7,15.68c-1.43,1.43-3.06,2.56-4.83,3.35-.33.15-.67.22-1.02.22ZM53.76,53.73v15.32l15.35-15.32h-15.35Z"/>
      <path d="M22.57,56.02c-.66,0-1.3-.26-1.77-.73-.49-.49-.76-1.17-.73-1.87l.37-8.93c.03-.63.29-1.22.73-1.67L57.38,6.61h0c3.34-3.33,8.76-3.34,12.1,0,3.34,3.33,3.34,8.76,0,12.1l-36.21,36.21c-.44.44-1.04.7-1.67.73l-8.93.37s-.07,0-.1,0ZM25.4,45.67l-.21,5.24,5.24-.22L65.94,15.17c1.39-1.39,1.39-3.64,0-5.03-1.38-1.38-3.64-1.38-5.03,0L25.4,45.67Z"/>
    </g>
  </g>
</svg>