<?xml version="1.0" encoding="UTF-8"?>
<svg id="Layer_2" data-name="Layer 2" xmlns="http://www.w3.org/2000/svg" viewBox="0 0 78.52 78.51">
  <g id="Layer_1-2" data-name="Layer 1">
    <g>
      <path d="M2.86,17.52c-.86,0-1.69-.44-2.16-1.24-.7-1.19-.3-2.72.89-3.42L17.91,3.3c2.22-1.29,4.48-2.35,6.74-3.15,1.3-.46,2.73.22,3.19,1.52.46,1.3-.22,2.73-1.52,3.19-1.96.69-3.94,1.62-5.88,2.75L4.12,17.18c-.4.23-.83.34-1.26.34Z"/>
      <path d="M63.48,78.14c-.43,0-.87-.11-1.26-.34-1.19-.7-1.59-2.23-.89-3.42l9.57-16.32c1.12-1.91,2.05-3.89,2.77-5.88.47-1.3,1.91-1.97,3.2-1.5,1.3.47,1.97,1.91,1.5,3.2-.83,2.27-1.89,4.52-3.16,6.7l-9.57,16.32c-.46.79-1.3,1.24-2.16,1.24Z"/>
      <path d="M40.6,78.51c-3.7,0-7.23-1.45-9.9-4.12L4.12,47.81C1.02,44.7-.44,40.43.12,36.08c.56-4.35,3.05-8.12,6.84-10.33l17.96-10.51c11-6.44,24.98-4.64,33.99,4.37h0s0,0,0,0c9.01,9.01,10.81,22.99,4.37,33.99l-10.51,17.96c-2.22,3.79-5.98,6.28-10.33,6.84-.61.08-1.22.12-1.83.12ZM39.07,16.39c-3.99,0-8.01,1.03-11.63,3.16l-17.96,10.51c-2.44,1.43-4.04,3.85-4.4,6.66-.36,2.8.58,5.55,2.58,7.55l26.59,26.59c2,2,4.75,2.94,7.55,2.58,2.8-.36,5.23-1.97,6.66-4.4l10.51-17.96c5.29-9.04,3.81-20.53-3.59-27.93h0c-4.44-4.44-10.34-6.75-16.3-6.75Z"/>
      <path d="M19.18,75.11c-4.04,0-8.08-1.54-11.16-4.62h0s0,0,0,0c-2.98-2.98-4.62-6.94-4.62-11.16s1.64-8.18,4.62-11.16c.98-.98,2.56-.98,3.54,0l18.79,18.79c.98.98.98,2.56,0,3.54-3.08,3.08-7.12,4.62-11.16,4.62ZM9.99,53.68c-1.04,1.68-1.6,3.62-1.6,5.65,0,2.88,1.12,5.59,3.16,7.62h0c3.6,3.6,9.12,4.12,13.28,1.56l-14.84-14.84Z"/>
      <path d="M57.14,23.87c-.64,0-1.28-.24-1.77-.73-.98-.98-.98-2.56,0-3.54l5.08-5.08c.98-.98,2.56-.98,3.54,0,.98.98.98,2.56,0,3.54l-5.08,5.08c-.49.49-1.13.73-1.77.73Z"/>
    </g>
  </g>
</svg>