<?xml version="1.0" encoding="UTF-8"?>
<svg id="Layer_2" data-name="Layer 2" xmlns="http://www.w3.org/2000/svg" viewBox="0 0 160.54 160.41">
  <defs>
    <style>
      .cls-1 {
        fill: #080a16;
      }
    </style>
  </defs>
  <g id="Calque_1" data-name="Calque 1">
    <g>
      <polygon class="cls-1" points="160.54 110.36 160.54 141.38 138.97 160.41 109.61 134.54 80.26 160.41 50.92 134.54 21.57 160.41 0 141.38 0 110.36 21.57 129.37 50.92 103.5 80.26 129.37 109.61 103.52 138.97 129.38 160.54 110.36"/>
      <polygon class="cls-1" points="160.54 58.6 160.54 89.64 138.97 108.65 109.61 82.78 80.26 108.65 50.92 82.78 21.57 108.65 0 89.64 0 58.6 21.57 77.62 50.92 51.76 80.26 77.62 109.61 51.76 138.97 77.62 160.54 58.6"/>
      <polygon class="cls-1" points="160.54 6.85 160.54 37.88 138.97 56.91 109.61 31.04 80.26 56.91 50.92 31.04 21.57 56.91 0 37.88 0 6.85 21.57 25.87 50.92 0 80.26 25.87 109.61 0 138.97 25.87 160.54 6.85"/>
    </g>
  </g>
</svg>