<?xml version="1.0" encoding="UTF-8"?>
<svg id="Layer_2" data-name="Layer 2" xmlns="http://www.w3.org/2000/svg" viewBox="0 0 12.98 28.01">
  <defs>
    <style>
      .cls-1 {
        fill: #fff;
        fill-rule: evenodd;
      }
    </style>
  </defs>
  <g id="Layer_1-2" data-name="Layer 1">
    <path class="cls-1" d="M12.79,13.17c.12.13.19.3.19.49v13.62c0,.4-.33.73-.73.73H.73c-.4,0-.73-.33-.73-.73v-13.62c0-.19.07-.36.19-.49h12.59ZM.08,12.88c-.05-.18-.08-.38-.08-.58,0-.57.23-1.08.6-1.46h11.78c.37.38.6.89.6,1.46,0,.2-.03.39-.08.58H.08ZM.67,10.55c.23-.84.66-1.6,1.21-2.24.68-.78,1.58-1.38,2.59-1.7.16-.05.28-.14.37-.26.09-.12.14-.27.14-.43v-.82c0-.11-.02-.21-.06-.3-.04-.09-.1-.17-.18-.24-.27-.24-.49-.54-.64-.88h0c-.15-.33-.23-.69-.23-1.06,0-.72.29-1.37.76-1.85.47-.47,1.13-.77,1.85-.77s1.37.29,1.85.77.76,1.13.76,1.85c0,.36-.07.7-.21,1.02l-.02.04c-.15.34-.37.64-.64.88-.08.08-.15.16-.18.24-.04.08-.06.18-.06.3v.82c0,.17.05.32.14.43.09.12.22.22.37.26,1.01.32,1.91.92,2.59,1.7.56.64.98,1.4,1.21,2.24H.67ZM7.62,16.63h2.81c.4,0,.73-.33.73-.73s-.33-.73-.73-.73h-2.81c-.4,0-.73.33-.73.73s.33.73.73.73h0ZM7.62,25.39h2.81c.4,0,.73-.33.73-.73s-.33-.73-.73-.73h-2.81c-.4,0-.73.33-.73.73s.33.73.73.73h0ZM7.62,23.2h2.81c.4,0,.73-.33.73-.73s-.33-.73-.73-.73h-2.81c-.4,0-.73.33-.73.73s.33.73.73.73h0ZM7.62,21.01h2.81c.4,0,.73-.33.73-.73s-.33-.73-.73-.73h-2.81c-.4,0-.73.33-.73.73s.33.73.73.73h0ZM7.62,18.82h2.81c.4,0,.73-.33.73-.73s-.33-.73-.73-.73h-2.81c-.4,0-.73.33-.73.73s.33.73.73.73Z"/>
  </g>
</svg>