<?xml version="1.0" encoding="UTF-8"?>
<svg id="Layer_2" data-name="Layer 2" xmlns="http://www.w3.org/2000/svg" viewBox="0 0 17.38 26.83">
  <defs>
    <style>
      .cls-1 {
        fill: #fff;
        fill-rule: evenodd;
      }
    </style>
  </defs>
  <g id="Layer_1-2" data-name="Layer 1">
    <path class="cls-1" d="M.73,0h15.92c.4,0,.73.33.73.73v25.37c0,.4-.33.73-.73.73H.73c-.4,0-.73-.33-.73-.73V.73c0-.4.33-.73.73-.73h0ZM14.6,24.26c.4,0,.73-.33.73-.73v-7.32c0-.4-.33-.73-.73-.73h-2.82c-.4,0-.73.33-.73.73v7.32c0,.4.33.73.73.73h2.82ZM10.1,24.26c.4,0,.73-.33.73-.73v-2.82c0-.4-.33-.73-.73-.73h-2.82c-.4,0-.73.33-.73.73v2.82c0,.4.33.73.73.73h2.82ZM5.6,24.26c.4,0,.73-.33.73-.73v-2.82c0-.4-.33-.73-.73-.73h-2.82c-.4,0-.73.33-.73.73v2.82c0,.4.33.73.73.73h2.82ZM10.1,19.76c.4,0,.73-.33.73-.73v-2.82c0-.4-.33-.73-.73-.73h-2.82c-.4,0-.73.33-.73.73v2.82c0,.4.33.73.73.73h2.82ZM5.6,19.76c.4,0,.73-.33.73-.73v-2.82c0-.4-.33-.73-.73-.73h-2.82c-.4,0-.73.33-.73.73v2.82c0,.4.33.73.73.73h2.82ZM14.6,15.25c.4,0,.73-.33.73-.73v-2.82c0-.4-.33-.73-.73-.73h-2.82c-.4,0-.73.33-.73.73v2.82c0,.4.33.73.73.73h2.82ZM10.1,15.25c.4,0,.73-.33.73-.73v-2.82c0-.4-.33-.73-.73-.73h-2.82c-.4,0-.73.33-.73.73v2.82c0,.4.33.73.73.73h2.82ZM5.6,15.25c.4,0,.73-.33.73-.73v-2.82c0-.4-.33-.73-.73-.73h-2.82c-.4,0-.73.33-.73.73v2.82c0,.4.33.73.73.73h2.82ZM2.55,2.04c-.4,0-.73.33-.73.73v6.16c0,.4.33.73.73.73h12.28c.4,0,.73-.33.73-.73V2.77c0-.4-.33-.73-.73-.73H2.55Z"/>
  </g>
</svg>