<?xml version="1.0" encoding="UTF-8"?>
<svg id="Layer_2" data-name="Layer 2" xmlns="http://www.w3.org/2000/svg" viewBox="0 0 17.13 11.44">
  <defs>
    <style>
      .cls-1 {
        fill: #fff;
        fill-rule: evenodd;
      }
    </style>
  </defs>
  <g id="Layer_1-2" data-name="Layer 1">
    <path class="cls-1" d="M.37,0h16.38c.21,0,.37.17.37.38v10.68c0,.21-.17.38-.37.38H.37c-.21,0-.37-.17-.37-.38V.38c0-.21.17-.38.37-.38H.37ZM.95,3.05h15.14c.21,0,.37-.17.37-.38s-.17-.38-.37-.38H.95c-.21,0-.37.17-.37.38s.17.38.37.38h0ZM1.86,5.34h2.23c.21,0,.37-.17.37-.38s-.17-.38-.37-.38H1.86c-.21,0-.37.17-.37.38s.17.38.37.38h0ZM1.86,7.63h6.66c.21,0,.37-.17.37-.38s-.17-.38-.37-.38H1.86c-.21,0-.37.17-.37.38s.17.38.37.38h0ZM11.91,4.58c-.21,0-.37.17-.37.38v2.29c0,.21.17.38.37.38h3.35c.21,0,.37-.17.37-.38v-2.29c0-.21-.17-.38-.37-.38h-3.35Z"/>
  </g>
</svg>