<?xml version="1.0" encoding="UTF-8"?>
<svg id="Layer_2" data-name="Layer 2" xmlns="http://www.w3.org/2000/svg" viewBox="0 0 21.41 25.96">
  <defs>
    <style>
      .cls-1 {
        fill: #fff;
        fill-rule: evenodd;
      }
    </style>
  </defs>
  <g id="Layer_1-2" data-name="Layer 1">
    <path class="cls-1" d="M10,0c1.68,0,3.19.68,4.29,1.78s1.78,2.62,1.78,4.29-.68,3.19-1.78,4.29c-.5.5-1.08.91-1.73,1.21,1.02.27,1.98.7,2.85,1.27l-3.55.91c-.31.06-.58.22-.77.44-.2.23-.32.54-.32.86v5.59c-.2.01-.4.04-.59.09-.27.06-.53.16-.77.29-.25.13-.49.29-.69.46-.2.18-.39.39-.54.62-.15.23-.27.49-.36.76-.08.27-.12.54-.12.82,0,.33.05.65.16.95H2.2c-.61,0-1.16-.25-1.56-.65-.4-.4-.65-.95-.65-1.56v-1.2c0-2.75,1.12-5.25,2.94-7.06,1.23-1.23,2.77-2.14,4.49-2.6-.64-.3-1.23-.71-1.73-1.21-1.1-1.1-1.78-2.62-1.78-4.29s.68-3.19,1.78-4.29c1.1-1.1,2.62-1.78,4.29-1.78h0ZM11.43,21.34c-.15-.02-.3-.04-.45-.04-.45,0-.89.11-1.28.31-.4.2-.74.5-.97.86-.23.35-.37.77-.37,1.22,0,.66.28,1.26.8,1.69.45.37,1.08.59,1.85.59.62,0,1.69-.24,2.48-.68.69-.39,1.2-.95,1.2-1.7v-5.36l3.56-1.14v2.35c-.15-.03-.3-.04-.46-.04-.44,0-.88.1-1.27.29-.4.19-.75.47-1.01.81-.27.37-.44.81-.44,1.3,0,.66.28,1.26.8,1.69.45.37,1.08.59,1.85.59s1.71-.24,2.41-.61c.74-.4,1.27-.97,1.27-1.67v-8.96h0c0-.05,0-.11-.02-.16-.09-.35-.45-.57-.81-.48l-8.59,2.21c-.32.05-.56.33-.56.66v6.28h0ZM16.79,24.63c-.1-.02-.19-.05-.28-.08h-.03c-.39-.14-.73-.33-1.01-.56-.04-.03-.08-.07-.12-.1-.04.27-.12.51-.24.74h1.69ZM15.36,19.68c.06-.05.12-.11.18-.16l.04-.03c.2-.16.42-.29.65-.4.25-.12.5-.21.76-.27.19-.04.39-.07.58-.09v-.74l-2.22.71v.97Z"/>
  </g>
</svg>