<?xml version="1.0" encoding="UTF-8"?>
<svg id="Layer_2" data-name="Layer 2" xmlns="http://www.w3.org/2000/svg" viewBox="0 0 27.93 27.91">
  <defs>
    <style>
      .cls-1 {
        fill: #fff;
        fill-rule: evenodd;
      }
    </style>
  </defs>
  <g id="Layer_1-2" data-name="Layer 1">
    <path class="cls-1" d="M27.93.78l-.05,10.23c0,.2-.06.4-.21.55L11.49,27.66l-.04.04c-.28.28-.75.28-1.03,0L.21,17.48h0c-.28-.28-.28-.74,0-1.03L16.32.21C16.45.08,16.64,0,16.84,0l10.37.05c.4,0,.73.33.72.73h0ZM22.05,3.15c-.71,0-1.43.27-1.97.82s-.82,1.26-.82,1.97.27,1.43.82,1.97c.54.54,1.26.82,1.97.82s1.43-.27,1.97-.82c.54-.54.82-1.26.82-1.97s-.27-1.43-.82-1.97-1.26-.82-1.97-.82Z"/>
  </g>
</svg>