<?xml version="1.0" encoding="UTF-8"?>
<svg id="Layer_2" data-name="Layer 2" xmlns="http://www.w3.org/2000/svg" viewBox="0 0 28.7 27.36">
  <defs>
    <style>
      .cls-1 {
        fill: #fff;
        fill-rule: evenodd;
      }
    </style>
  </defs>
  <g id="Layer_1-2" data-name="Layer 1">
    <path class="cls-1" d="M14.96.37l4.13,8.16,9.04,1.41c.37.06.62.4.57.77-.02.15-.09.28-.19.38l-6.49,6.45,1.46,9.03c.06.37-.19.72-.56.78-.16.02-.31,0-.44-.08l-8.12-4.16-8.14,4.18c-.33.17-.74.04-.91-.29-.07-.13-.09-.28-.07-.41l1.45-9.03L.2,11.09c-.27-.26-.27-.69,0-.96.11-.11.26-.18.41-.2l9.01-1.4L13.75.37c.17-.33.58-.47.91-.3.14.07.24.17.3.3Z"/>
  </g>
</svg>