<?xml version="1.0" encoding="UTF-8"?>
<svg id="Layer_2" data-name="Layer 2" xmlns="http://www.w3.org/2000/svg" viewBox="0 0 26.69 24.87">
  <defs>
    <style>
      .cls-1 {
        fill: #fff;
        fill-rule: evenodd;
      }
    </style>
  </defs>
  <g id="Layer_1-2" data-name="Layer 1">
    <path class="cls-1" d="M26.69,8.07v16.12l-8.41-6.45c-.29-.22-.71-.17-.93.12-.22.29-.17.71.12.93l7.92,6.07H1.37l7.85-6.08c.29-.22.34-.64.12-.93-.22-.29-.64-.34-.93-.12L0,24.25s0-.03,0-.04V8.07s0-.09.01-.13l12.96,8.75c.24.17.56.15.78-.03l12.93-8.68s0,.05,0,.08h0ZM4.86,10.27l8.48,5.86.04-.03,8.44-5.66V2.75c0-.37-.3-.67-.67-.67H5.53c-.37,0-.67.3-.67.67v7.52h0ZM17.87,18.27h0s0,0,0,0h0ZM17.81,4.95c.37,0,.67.3.67.67s-.3.67-.67.67h-8.94c-.37,0-.67-.3-.67-.67s.3-.67.67-.67h8.94ZM17.81,7.57h-8.94c-.37,0-.67.3-.67.67s.3.67.67.67h8.94c.37,0,.67-.3.67-.67s-.3-.67-.67-.67h0ZM17.81,10.2h-8.94c-.37,0-.67.3-.67.67s.3.67.67.67h8.94c.37,0,.67-.3.67-.67s-.3-.67-.67-.67h0ZM1.12,7.08l3.08,2.08v-3.89l-3.08,1.81h0ZM10.75,1.42L13.01.09c.21-.13.47-.12.67,0h0s2.28,1.33,2.28,1.33h-5.21ZM22.49,5.23v3.97l3.16-2.12-3.16-1.85Z"/>
  </g>
</svg>