<?xml version="1.0" encoding="UTF-8"?>
<svg id="Layer_2" data-name="Layer 2" xmlns="http://www.w3.org/2000/svg" viewBox="0 0 21.38 25.31">
  <defs>
    <style>
      .cls-1 {
        fill: #fff;
        fill-rule: evenodd;
      }
    </style>
  </defs>
  <g id="Layer_1-2" data-name="Layer 1">
    <path class="cls-1" d="M10,0c1.68,0,3.19.68,4.29,1.78,1.1,1.1,1.78,2.62,1.78,4.29s-.68,3.19-1.78,4.29c-.5.5-1.08.91-1.73,1.21.85.23,1.65.56,2.4.99-.16.02-.31.07-.45.13-.24.1-.46.25-.64.42-.02.02-.04.04-.06.06-.15.17-.28.36-.37.57-.06.15-.1.3-.13.46h-.32c-.37,0-.71.09-1.03.26-.32.17-.59.41-.81.7-.19.25-.34.54-.44.86-.1.31-.15.63-.15.97v.22c0,.21.04.42.1.61.07.2.16.39.29.55.13.17.28.32.46.43l.63,5.44c.01.13.04.25.08.38H2.2c-.61,0-1.16-.25-1.56-.65s-.65-.95-.65-1.56v-1.2c0-2.75,1.12-5.25,2.94-7.06,1.23-1.23,2.77-2.14,4.5-2.6-.64-.3-1.23-.71-1.73-1.21-1.1-1.1-1.78-2.62-1.78-4.29s.68-3.19,1.78-4.29c1.1-1.1,2.62-1.78,4.29-1.78h0ZM15.29,13.87h-.07s-.02,0-.02,0h-.02c-.06,0-.12.02-.18.04-.06.02-.11.06-.16.1h0s0,0,0,0h0s0,0,0,0h0s0,0,0,0h0s0,0,0,0h0s0,0,0,0h0s-.01.01-.01.01h0s0,0,0,0h0s0,0,0,0h0s0,0,0,0h0s0,0,0,0h0s0,0,0,0h0s0,0,0,0h0s-.04.05-.05.07h0s0,.01,0,.01h0s0,0,0,0h0s0,0,0,0h0s0,0,0,0h0s0,0,0,0h0s0,0,0,0h0s0,0,0,0h0s0,0,0,0h0s0,0,0,0h0s0,0,0,0h0c-.05.09-.07.19-.07.29v.38h-1.63c-.52,0-.99.27-1.31.69-.28.37-.46.88-.46,1.43v.22c0,.29.1.56.25.76.19.26.48.42.8.42h8.04c.33,0,.61-.16.8-.42.15-.2.25-.47.25-.76v-.22c0-.55-.18-1.06-.46-1.43-.32-.43-.79-.69-1.31-.69h-1.63v-.38c0-.35-.28-.63-.63-.63h-2.06ZM20.5,19.06c-.06,0-.11,0-.17,0h-8.04c-.06,0-.12,0-.17,0l.59,5.12c.03.3.17.58.37.78h0c.21.22.5.35.83.35h4.82c.33,0,.61-.13.83-.34.2-.2.33-.48.37-.78l.59-5.12Z"/>
  </g>
</svg>