<?xml version="1.0" encoding="UTF-8"?>
<svg id="Layer_2" data-name="Layer 2" xmlns="http://www.w3.org/2000/svg" viewBox="0 0 16.24 25.35">
  <defs>
    <style>
      .cls-1 {
        fill: #fff;
        fill-rule: evenodd;
      }
    </style>
  </defs>
  <g id="Layer_1-2" data-name="Layer 1">
    <path class="cls-1" d="M11.96,14.06c1.29.7,2.38,1.74,3.13,3,.73,1.22,1.15,2.64,1.15,4.15v3.47c0,.37-.3.67-.67.67H.67c-.37,0-.67-.3-.67-.67v-3.47c0-1.51.42-2.93,1.15-4.15.75-1.26,1.84-2.3,3.13-3,.22-.12.39-.28.5-.47.11-.19.17-.42.17-.67v-.49c0-.25-.06-.48-.17-.67-.11-.19-.29-.36-.5-.47-1.29-.7-2.38-1.74-3.13-3-.73-1.22-1.15-2.64-1.15-4.15V.67c0-.37.3-.67.67-.67h14.91c.37,0,.67.3.67.67v3.47c0,1.51-.42,2.93-1.15,4.15-.75,1.26-1.84,2.3-3.13,3-.22.12-.39.28-.5.47-.11.19-.17.42-.17.67v.49c0,.25.06.48.17.67.12.19.29.36.5.47Z"/>
  </g>
</svg>