<?xml version="1.0" encoding="UTF-8"?>
<svg id="Layer_2" data-name="Layer 2" xmlns="http://www.w3.org/2000/svg" viewBox="0 0 24.16 23.11">
  <defs>
    <style>
      .cls-1 {
        fill: #fff;
        fill-rule: evenodd;
      }
    </style>
  </defs>
  <g id="Layer_1-2" data-name="Layer 1">
    <path class="cls-1" d="M15.46.35v-.02c.19-.32.6-.43.92-.24l3.48,2.01c.32.18.43.59.24.91l-.03.04c-.26.46-.38.96-.36,1.45.02.5.19,1,.5,1.45.15.22.29.44.42.67.13.23.26.46.37.7.23.49.58.88,1,1.15.42.27.92.41,1.47.41h.02c.37,0,.67.3.67.67v4.02c0,.37-.3.67-.67.67h-.02c-.55,0-1.05.15-1.47.41-.42.27-.77.66-1,1.15-.11.24-.24.47-.37.7-.13.23-.27.45-.42.67-.31.45-.48.95-.5,1.45-.02.5.11,1.01.38,1.48v.02c.19.32.08.73-.24.91l-3.48,2.01c-.32.18-.72.07-.9-.24h0s0-.02,0-.02c-.27-.47-.65-.83-1.09-1.07-.44-.23-.95-.34-1.5-.29-.27.02-.53.03-.79.03s-.52-.01-.79-.03c-.54-.04-1.06.06-1.5.29-.44.23-.82.6-1.09,1.06v.02c-.19.32-.6.43-.92.24l-3.48-2.01c-.32-.18-.43-.59-.24-.91l.03-.04c.26-.46.38-.96.36-1.45-.02-.5-.19-1-.5-1.45-.15-.22-.29-.44-.42-.67-.13-.23-.26-.46-.37-.7-.23-.49-.58-.88-1-1.15-.42-.27-.92-.41-1.47-.41h-.02c-.37,0-.67-.3-.67-.67v-4.02c0-.37.3-.67.67-.67h.02c.55,0,1.05-.15,1.47-.41.42-.27.77-.66,1-1.15.11-.24.24-.47.37-.7.13-.23.27-.45.42-.67.31-.45.48-.95.5-1.45.02-.5-.11-1.01-.38-1.48v-.02c-.19-.32-.08-.73.24-.91L7.79.09c.32-.18.72-.07.9.24h0s0,.02,0,.02c.27.47.65.83,1.09,1.07.44.23.95.34,1.5.29.27-.02.53-.03.79-.03s.52.01.79.03c.54.04,1.06-.06,1.5-.29.44-.23.82-.6,1.09-1.07h0ZM15.42,8.22c-.85-.85-2.03-1.38-3.34-1.38s-2.48.53-3.34,1.38c-.85.85-1.38,2.03-1.38,3.34s.53,2.48,1.38,3.34c.85.85,2.03,1.38,3.34,1.38s2.48-.53,3.34-1.38,1.38-2.03,1.38-3.34-.53-2.48-1.38-3.34Z"/>
  </g>
</svg>