<?xml version="1.0" encoding="UTF-8"?>
<svg id="Layer_2" data-name="Layer 2" xmlns="http://www.w3.org/2000/svg" viewBox="0 0 18.97 27.72">
  <defs>
    <style>
      .cls-1 {
        fill: #fff;
        fill-rule: evenodd;
      }
    </style>
  </defs>
  <g id="Layer_1-2" data-name="Layer 1">
    <path class="cls-1" d="M.73,7.29h3.65v-2.19c0-1.41.57-2.68,1.5-3.61s2.2-1.5,3.61-1.5,2.68.57,3.61,1.5c.92.92,1.5,2.2,1.5,3.61v2.19h3.65c.4,0,.73.33.73.73v18.97c0,.4-.33.73-.73.73H.73c-.4,0-.73-.33-.73-.73V8.02c0-.4.33-.73.73-.73h0ZM5.84,7.29h7.29v-2.19c0-1-.41-1.91-1.07-2.58-.66-.66-1.57-1.07-2.57-1.07s-1.91.41-2.58,1.07c-.66.66-1.07,1.57-1.07,2.58v2.19h0ZM2.08,24.8h14.8c.4,0,.73-.33.73-.73s-.33-.73-.73-.73H2.08c-.4,0-.73.33-.73.73s.33.73.73.73h0ZM11,20.97c.4,0,.73-.33.73-.73,0-.1-.02-.2-.06-.29l-.8-2.28c.35-.22.64-.51.86-.84.29-.44.45-.96.45-1.51,0-.76-.31-1.45-.81-1.95h0c-.5-.5-1.19-.81-1.95-.81s-1.45.31-1.95.81h0c-.5.5-.81,1.19-.81,1.96,0,.54.16,1.06.45,1.51.22.34.51.62.86.84l-.81,2.33c-.13.38.07.79.45.93.08.03.16.04.24.04h0s3.18,0,3.18,0Z"/>
  </g>
</svg>