<?xml version="1.0" encoding="UTF-8"?>
<svg id="Layer_2" data-name="Layer 2" xmlns="http://www.w3.org/2000/svg" viewBox="0 0 24.97 25.54">
  <defs>
    <style>
      .cls-1 {
        fill: #fff;
        fill-rule: evenodd;
      }
    </style>
  </defs>
  <g id="Layer_1-2" data-name="Layer 1">
    <path class="cls-1" d="M24.97,9.84v15.04c0,.37-.3.67-.67.67H.67c-.37,0-.67-.3-.67-.67v-15.04s0-.09.01-.13l12.1,8.19c.23.16.52.15.74,0l12.11-8.15s0,.05,0,.08h0ZM4,10.63l8.48,5.86.04-.03,8.44-5.66V2.71c0-.37-.3-.67-.67-.67H4.67c-.37,0-.67.3-.67.67v7.92h0ZM.97,8.76l2.37,1.6v-3.44l-2.37,1.84h0ZM10.48,1.38l1.59-1.24c.25-.19.59-.18.82,0l1.58,1.23h-4ZM21.63,6.92v3.48l2.4-1.61-2.4-1.86Z"/>
  </g>
</svg>