<?xml version="1.0" encoding="UTF-8"?>
<svg id="Layer_2" data-name="Layer 2" xmlns="http://www.w3.org/2000/svg" viewBox="0 0 35.13 9.2">
  <defs>
    <style>
      .cls-1 {
        fill: #fff;
        fill-rule: evenodd;
      }
    </style>
  </defs>
  <g id="Layer_1-2" data-name="Layer 1">
    <path class="cls-1" d="M23.69,0l-4.19,3.87H7.39l-.15-.44c-.18-.55-.49-1.04-.9-1.45-.7-.7-1.64-1.09-2.63-1.09s-1.93.39-2.63,1.09c-.7.7-1.09,1.64-1.09,2.63s.39,1.93,1.09,2.63c.7.7,1.64,1.09,2.63,1.09s1.93-.39,2.63-1.09c.41-.41.72-.9.9-1.45l.15-.44h12.11l4.19,3.87,11.43-4.6L23.69,0h0ZM5.26,3.05c.41.41.64.96.64,1.54s-.23,1.13-.64,1.54c-.41.41-.96.64-1.54.64s-1.13-.23-1.54-.64c-.41-.41-.64-.96-.64-1.54s.23-1.13.64-1.54c.41-.41.96-.64,1.54-.64s1.13.23,1.54.64Z"/>
  </g>
</svg>