<?xml version="1.0" encoding="UTF-8"?>
<svg id="Layer_2" data-name="Layer 2" xmlns="http://www.w3.org/2000/svg" viewBox="0 0 72.63 66.21">
  <g id="Layer_1-2" data-name="Layer 1">
    <g>
      <path d="M64.6,66.21H8.03c-4.42,0-8.03-3.6-8.03-8.02V20.17c0-1.38,1.12-2.5,2.5-2.5h67.63c1.38,0,2.5,1.12,2.5,2.5v38.02c0,4.42-3.6,8.02-8.03,8.02ZM5,22.67v35.52c0,1.67,1.36,3.02,3.03,3.02h56.58c1.67,0,3.03-1.36,3.03-3.02V22.67H5Z"/>
      <path d="M70.13,22.67H2.5c-1.38,0-2.5-1.12-2.5-2.5v-4.93C0,6.83,6.83,0,15.24,0h6.21c3.03,0,5.96.89,8.47,2.57,2.9,1.95,6.65,2.98,10.83,2.98h23.33c4.72,0,8.56,3.84,8.56,8.56v6.06c0,1.38-1.12,2.5-2.5,2.5ZM5,17.67h62.63v-3.56c0-1.96-1.6-3.56-3.56-3.56h-23.33c-5.17,0-9.88-1.32-13.61-3.82-1.68-1.13-3.65-1.72-5.68-1.72h-6.21c-5.64,0-10.24,4.59-10.24,10.24v2.43Z"/>
    </g>
  </g>
</svg>