<?xml version="1.0" encoding="UTF-8"?>
<svg id="Layer_2" data-name="Layer 2" xmlns="http://www.w3.org/2000/svg" viewBox="0 0 20.83 22.97">
  <defs>
    <style>
      .cls-1 {
        fill: #fff;
        fill-rule: evenodd;
      }
    </style>
  </defs>
  <g id="Layer_1-2" data-name="Layer 1">
    <path class="cls-1" d="M8.49,20.66c-.54-.1-1.07-.25-1.61-.44l-4.87,2.65c-.18.11-.4.14-.61.06-.34-.14-.51-.53-.37-.87l1.82-4.48c-.85-.9-1.54-1.94-2.03-3.1-.53-1.25-.82-2.62-.82-4.06,0-2.88,1.17-5.48,3.05-7.36C4.94,1.17,7.54,0,10.42,0s5.48,1.17,7.36,3.05c1.88,1.89,3.05,4.49,3.05,7.36s-1.17,5.48-3.05,7.36-4.49,3.05-7.36,3.05c-.65,0-1.29-.06-1.93-.18Z"/>
  </g>
</svg>