<?xml version="1.0" encoding="UTF-8"?>
<svg id="Layer_2" data-name="Layer 2" xmlns="http://www.w3.org/2000/svg" viewBox="0 0 57.79 70.46">
  <g id="Layer_1-2" data-name="Layer 1">
    <g>
      <g>
        <path d="M25.27,42.19h-11.37c-1.38,0-2.5-1.12-2.5-2.5s1.12-2.5,2.5-2.5h11.37c1.38,0,2.5,1.12,2.5,2.5s-1.12,2.5-2.5,2.5Z"/>
        <path d="M38.41,30.28H13.9c-1.38,0-2.5-1.12-2.5-2.5s1.12-2.5,2.5-2.5h24.51c1.38,0,2.5,1.12,2.5,2.5s-1.12,2.5-2.5,2.5Z"/>
        <path d="M38.41,18.38H13.9c-1.38,0-2.5-1.12-2.5-2.5s1.12-2.5,2.5-2.5h24.51c1.38,0,2.5,1.12,2.5,2.5s-1.12,2.5-2.5,2.5Z"/>
      </g>
      <path d="M27.32,70.46h-12.08c-8.4,0-15.24-6.83-15.24-15.24V15.24C0,6.83,6.83,0,15.24,0h21.84c8.4,0,15.24,6.83,15.24,15.24v15.89c0,1.38-1.12,2.5-2.5,2.5s-2.5-1.12-2.5-2.5v-15.89c0-5.64-4.59-10.24-10.24-10.24H15.24c-5.64,0-10.24,4.59-10.24,10.24v39.99c0,5.64,4.59,10.24,10.24,10.24h12.08c1.38,0,2.5,1.12,2.5,2.5s-1.12,2.5-2.5,2.5Z"/>
      <path d="M46.04,63.09c-6.48,0-11.74-5.27-11.74-11.74s5.27-11.74,11.74-11.74,11.74,5.27,11.74,11.74-5.27,11.74-11.74,11.74ZM46.04,44.61c-3.72,0-6.74,3.03-6.74,6.74s3.03,6.74,6.74,6.74,6.74-3.03,6.74-6.74-3.03-6.74-6.74-6.74Z"/>
      <path d="M53.41,70.46c-.64,0-1.28-.24-1.77-.73l-5.6-5.6-5.6,5.6c-.98.98-2.56.98-3.54,0-.98-.98-.98-2.56,0-3.54l7.37-7.37c.94-.94,2.6-.94,3.54,0l7.37,7.37c.98.98.98,2.56,0,3.54-.49.49-1.13.73-1.77.73Z"/>
    </g>
  </g>
</svg>