<?xml version="1.0" encoding="UTF-8"?>
<svg id="Layer_2" data-name="Layer 2" xmlns="http://www.w3.org/2000/svg" viewBox="0 0 160.36 160.36">
  <defs>
    <style>
      .cls-1 {
        fill: #080a16;
      }
    </style>
  </defs>
  <g id="Calque_1" data-name="Calque 1">
    <g>
      <path id="palm_01" data-name="palm 01" class="cls-1" d="M105.31,58.39h55.06c-7.89-13.98-22.89-23.42-40.09-23.42-8.22,0-15.93,2.16-22.61,5.93L136.87,1.69c-15.47-4.3-32.75-.37-44.91,11.79-5.8,5.8-9.73,12.77-11.79,20.15-2.05-7.38-5.98-14.35-11.79-20.15C56.23,1.31,38.95-2.62,23.48,1.69l39.2,39.2c-6.67-3.77-14.38-5.92-22.59-5.92-17.2,0-32.2,9.44-40.09,23.42h54.47c-7.02,2.12-13.64,5.96-19.19,11.51-12.16,12.16-16.09,29.44-11.79,44.91l56.4-56.4,56.4,56.4c4.3-15.47.37-32.75-11.79-44.91-5.55-5.55-12.17-9.39-19.19-11.51Z"/>
      <polygon class="cls-1" points="79.88 58.4 54.61 160.36 105.33 160.36 79.88 58.4"/>
    </g>
  </g>
</svg>