<?xml version="1.0" encoding="UTF-8"?>
<svg id="Layer_2" data-name="Layer 2" xmlns="http://www.w3.org/2000/svg" viewBox="0 0 27.64 15.61">
  <defs>
    <style>
      .cls-1 {
        fill: #fff;
        fill-rule: evenodd;
      }
    </style>
  </defs>
  <g id="Layer_1-2" data-name="Layer 1">
    <path class="cls-1" d="M13.82,0c1.12,0,2.13.45,2.86,1.18h0c.73.73,1.19,1.75,1.19,2.86s-.45,2.13-1.19,2.86h0c-.73.73-1.74,1.19-2.86,1.19s-2.13-.45-2.86-1.18h0c-.73-.73-1.18-1.75-1.18-2.86s.45-2.13,1.18-2.86h0c.73-.73,1.74-1.19,2.86-1.19h0ZM.61,8.78c.39-.77.96-1.43,1.65-1.94.26-.22.65-.2.89.04.31.31.68.56,1.1.73.39.16.83.25,1.29.25.3,0,.59-.04.86-.11.27-.07.52-.17.76-.3.23-.15.55-.15.78.04.29.23.33.65.1.93-.49.61-.87,1.29-1.13,2.02-.25.71-.4,1.45-.41,2.22v.05c0,.37-.3.67-.66.67H1.47c-.4,0-.77-.16-1.04-.43h0c-.27-.27-.43-.63-.43-1.04v-.63c0-.9.22-1.75.61-2.5h0ZM3.54,2.35c-.51.51-.82,1.21-.82,1.99s.32,1.48.82,1.99h0c.51.51,1.21.82,1.99.82s1.48-.32,1.99-.82c.51-.51.82-1.21.82-1.99s-.32-1.48-.82-1.99h0c-.51-.51-1.21-.82-1.99-.82s-1.48.32-1.99.82h0ZM25.39,6.84c.69.51,1.26,1.18,1.65,1.94.39.76.61,1.61.61,2.5v.63c0,.4-.17.77-.43,1.04h0c-.27.27-.63.43-1.04.43h-4.35c-.37,0-.67-.3-.67-.67v-.05c-.02-.77-.16-1.52-.41-2.22-.26-.73-.65-1.41-1.13-2.02-.23-.29-.18-.7.1-.93.23-.18.55-.19.78-.04.24.13.49.23.76.3s.56.11.86.11c.46,0,.9-.09,1.29-.25.41-.17.78-.42,1.1-.73.24-.24.63-.26.89-.04h0ZM22.11,1.52c-.77,0-1.48.32-1.99.83h0c-.51.51-.82,1.21-.82,1.99s.32,1.48.82,1.99c.51.51,1.21.82,1.99.82s1.48-.32,1.99-.82h0c.51-.51.82-1.21.82-1.99s-.32-1.48-.82-1.99-1.21-.82-1.99-.82h0ZM17.87,7.62c-.26-.22-.65-.2-.89.04-.41.41-.9.74-1.45.97-.52.22-1.1.34-1.71.34s-1.19-.12-1.71-.34c-.54-.23-1.04-.56-1.45-.97-.23-.23-.59-.26-.86-.07-.87.64-1.59,1.47-2.09,2.44-.48.94-.75,1.99-.75,3.1v.8c0,.44.17.84.45,1.14l.04.05c.3.3.73.49,1.19.49h10.33c.46,0,.89-.19,1.19-.49.3-.3.49-.73.49-1.19v-.8c0-1.11-.27-2.16-.75-3.1-.49-.95-1.19-1.78-2.05-2.41Z"/>
  </g>
</svg>