<?xml version="1.0" encoding="UTF-8"?>
<svg id="Layer_2" data-name="Layer 2" xmlns="http://www.w3.org/2000/svg" viewBox="0 0 23.65 26.02">
  <defs>
    <style>
      .cls-1 {
        fill: #fff;
        fill-rule: evenodd;
      }
    </style>
  </defs>
  <g id="Layer_1-2" data-name="Layer 1">
    <path class="cls-1" d="M17.17,5.31c1.74,0,3.32.71,4.47,1.85,1.14,1.14,1.85,2.72,1.85,4.47s-.71,3.32-1.85,4.47c-1.14,1.14-2.72,1.85-4.47,1.85s-3.32-.71-4.47-1.85c-1.14-1.14-1.85-2.72-1.85-4.47s.71-3.32,1.85-4.47c1.14-1.14,2.72-1.85,4.47-1.85h0ZM7.62,11.04c-.1-.22-.17-.45-.15-.63,0-.08.04-.15.1-.21l2.15-1.82c.38-.32.6-.75.66-1.2.06-.45-.04-.93-.31-1.34-.53-.79-1.03-1.59-1.51-2.39-.49-.81-.95-1.63-1.38-2.43-.14-.26-.33-.48-.56-.65-.23-.17-.49-.28-.78-.34-.28-.05-.55-.05-.81.02h-.04c-.27.08-.53.21-.75.41L1.11,3.11c-.44.38-.76.84-.94,1.36-.18.51-.22,1.08-.1,1.65.44,2.18,1.15,4.31,2.14,6.36.96,1.98,2.18,3.88,3.67,5.63,1.49,1.76,3.15,3.27,4.95,4.55,1.86,1.32,3.85,2.37,5.92,3.16.54.21,1.1.26,1.64.17.54-.09,1.05-.33,1.49-.7l3.1-2.63c.23-.19.4-.42.52-.68.12-.26.17-.54.16-.83,0-.3-.07-.58-.2-.83-.13-.25-.31-.47-.55-.65-.63-.49-1.26-1-1.9-1.54-.13-.11-.26-.22-.39-.34-.24.14-.49.26-.75.36-.83.34-1.74.54-2.69.54s-1.86-.19-2.69-.54c-.25-.1-.49-.22-.73-.35h-.03c-.18-.02-.4-.12-.61-.26-1.19-.78-2.24-1.77-3.12-2.81-1.04-1.23-1.84-2.53-2.37-3.68h0ZM14.6,14.98c.04-.06.07-.1.11-.14.08-.1.23-.24.45-.42.22-.18.37-.31.47-.39.09-.08.18-.2.27-.35.09-.15.13-.31.13-.49,0-.11-.02-.23-.06-.33-.04-.11-.1-.2-.18-.28-.08-.08-.17-.14-.27-.19-.16-.07-.35-.1-.57-.1-.18,0-.35.03-.48.08-.14.05-.25.13-.34.21-.09.09-.16.19-.2.3-.05.11-.07.21-.07.31,0,.08.02.15.07.2.05.05.11.07.18.07.08,0,.15-.03.19-.08.04-.05.08-.13.12-.22.03-.1.06-.16.07-.18.11-.17.26-.25.45-.25.09,0,.17.02.25.06.08.04.14.1.18.17.04.07.07.16.07.25,0,.09-.02.17-.06.26-.04.09-.1.18-.18.26-.08.09-.18.17-.3.25-.07.04-.18.14-.33.28-.16.14-.33.31-.52.51-.05.05-.09.12-.13.2-.04.09-.06.16-.06.21,0,.08.03.15.09.21.06.06.15.09.25.09h1.6c.1,0,.17-.02.21-.07.05-.05.07-.11.07-.18,0-.08-.03-.14-.09-.19-.06-.05-.15-.07-.26-.07h-1.14ZM16.88,14.33h.94v-1.27l-.94,1.27h0ZM14.56,8.02l1.97,3.93c.13.25.38.4.65.4h0s.66,0,.66,0c-.04.05-.1.11-.16.2l-1.15,1.54s-.06.08-.08.11c-.02.03-.04.06-.06.09-.02.03-.04.06-.05.09,0,.03-.01.06-.01.08,0,.11.03.19.1.25.07.06.17.09.31.09h1.09v.41c0,.11.03.19.08.25.05.06.12.08.2.08s.15-.03.2-.08c.05-.05.07-.14.07-.25v-.41h.13c.11,0,.19-.02.25-.06.05-.04.08-.1.08-.18,0-.1-.03-.17-.1-.2-.07-.03-.16-.05-.27-.05h-.09v-1.69c0-.13-.03-.22-.08-.29h2.14c.4,0,.73-.33.73-.73s-.33-.73-.73-.73h-2.79l-1.76-3.53c-.18-.36-.62-.5-.97-.32-.36.18-.5.62-.32.97Z"/>
  </g>
</svg>