<?xml version="1.0" encoding="UTF-8"?>
<svg id="Layer_2" data-name="Layer 2" xmlns="http://www.w3.org/2000/svg" viewBox="0 0 24.27 24.5">
  <defs>
    <style>
      .cls-1 {
        fill: #fff;
        fill-rule: evenodd;
      }
    </style>
  </defs>
  <g id="Layer_1-2" data-name="Layer 1">
    <path class="cls-1" d="M12.85.56l1.24,7.18,4.01-2.36c.32-.19.72-.08.91.24.13.22.12.48,0,.68l-2.36,4,7.07,1.24c.36.06.6.41.54.77-.05.29-.28.5-.56.54l-7.06,1.24,2.36,4.01c.19.32.08.72-.24.91-.22.13-.48.12-.68,0l-4-2.36-1.24,7.3c-.06.36-.4.61-.76.55-.29-.05-.51-.28-.55-.55l-1.24-7.29-4.01,2.36c-.32.19-.72.08-.91-.24-.13-.22-.12-.48,0-.68l2.36-4-7.19-1.24c-.36-.06-.61-.41-.54-.77.05-.29.28-.5.55-.55l7.18-1.24-2.36-4.01c-.19-.32-.08-.72.24-.91.22-.13.48-.12.68,0l4,2.36,1.24-7.19c.06-.36.41-.61.77-.54.29.05.5.28.55.55Z"/>
  </g>
</svg>