<?xml version="1.0" encoding="UTF-8"?>
<svg id="Layer_2" data-name="Layer 2" xmlns="http://www.w3.org/2000/svg" viewBox="0 0 23.91 17.93">
  <defs>
    <style>
      .cls-1 {
        fill: #fff;
        fill-rule: evenodd;
      }
    </style>
  </defs>
  <g id="Layer_1-2" data-name="Layer 1">
    <path class="cls-1" d="M3.77,1.93c1.8-1.19,4.27-1.93,6.99-1.93s5.19.74,6.99,1.93c1.88,1.25,3.04,3,3.04,4.95s-1.16,3.7-3.04,4.95c-1.8,1.19-4.27,1.93-6.99,1.93-.61,0-1.22-.04-1.8-.11-.47-.06-.93-.14-1.39-.24-.9.79-1.93,1.43-3.05,1.86-1.2.47-2.49.71-3.82.69-.25,0-.5-.12-.62-.36-.17-.33-.04-.73.29-.9.76-.39,1.45-.89,2.07-1.48.46-.44.87-.93,1.22-1.47-.82-.56-1.49-1.22-1.99-1.94-.61-.89-.94-1.88-.94-2.93,0-1.95,1.16-3.7,3.04-4.95h0ZM7.59,14.26c1.66,1,3.85,1.61,6.24,1.61.58,0,1.14-.04,1.69-.1.44-.05.87-.13,1.3-.23.84.74,1.81,1.34,2.86,1.75,1.12.44,2.34.66,3.58.65.23,0,.46-.12.58-.34.16-.31.04-.68-.27-.84-.71-.37-1.36-.84-1.94-1.39-.43-.41-.81-.87-1.15-1.37.77-.52,1.4-1.14,1.86-1.82.57-.83.88-1.76.88-2.75,0-1.5-.73-2.87-1.96-3.96.12.46.18.93.18,1.42,0,1.09-.31,2.11-.89,3.04-.58.94-1.42,1.77-2.46,2.46-.97.65-2.13,1.17-3.41,1.52-1.23.34-2.56.53-3.95.53-.3,0-.62-.01-.94-.03-.33-.02-.64-.05-.94-.09-.24-.03-.48-.07-.73-.11-.13-.02-.26-.05-.4-.08-.05.04-.11.09-.16.13Z"/>
  </g>
</svg>