<?xml version="1.0" encoding="UTF-8"?>
<svg id="Layer_2" data-name="Layer 2" xmlns="http://www.w3.org/2000/svg" viewBox="0 0 27.48 29.65">
  <defs>
    <style>
      .cls-1 {
        fill: #fff;
        fill-rule: evenodd;
      }
    </style>
  </defs>
  <g id="Layer_1-2" data-name="Layer 1">
    <path class="cls-1" d="M5.34,8.93h0c.16,0,.34,0,.52.03h0c.53-.98,1.3-1.82,2.23-2.43,1.04-.68,2.29-1.08,3.62-1.08,1.65,0,3.16.6,4.32,1.6,1.06.91,1.83,2.15,2.15,3.57.92.23,1.74.74,2.34,1.43.7.8,1.13,1.86,1.13,3,0,1.26-.51,2.4-1.34,3.23-.83.83-1.98,1.34-3.24,1.34h0c-.71,0-4.91,0-8.16,0-1.82,0-3.35,0-3.79,0-1.41-.02-2.68-.65-3.6-1.61-.94-.98-1.53-2.32-1.53-3.72,0-1.47.6-2.81,1.57-3.77.97-.97,2.3-1.57,3.77-1.57h0ZM7.63,24.86l1.36-3.99c.08-.28.34-.49.64-.49h2.58c.1,0,.19.02.29.07.33.16.47.55.31.88l-.68,1.41h1.28c.13,0,.27.04.39.12.3.21.37.63.16.93l-3.94,5.54c-.15.24-.44.36-.72.29-.36-.09-.57-.45-.48-.81l.78-3.08h-1.31c-.07,0-.14-.01-.21-.04-.35-.12-.53-.5-.42-.84h0ZM17.88,4.6c-.75,0-1.47.17-2.12.47-.28.13-.55.29-.8.47.55.27,1.06.61,1.52,1.01.59.51,1.1,1.11,1.5,1.78.33.54.59,1.14.77,1.76.38.13.74.29,1.08.5.46.28.87.63,1.22,1.03.3.34.55.71.75,1.12.22-.27.41-.57.57-.88.34-.68.53-1.44.53-2.24,0-1.38-.56-2.64-1.47-3.54-.91-.91-2.16-1.47-3.54-1.47h0ZM23.73,2.81c.26-.26.68-.26.94,0,.26.26.26.68,0,.94l-1.76,1.76c-.26.26-.68.26-.94,0-.26-.26-.26-.68,0-.94l1.76-1.76h0ZM26.82,8.94c.37,0,.67.3.67.67s-.3.67-.67.67h-2.5c-.37,0-.67-.3-.67-.67s.3-.67.67-.67h2.5ZM24.67,15.46c.26.26.26.68,0,.94s-.68.26-.94,0l-1.39-1.39c0-.5-.08-.98-.21-1.43.25-.13.57-.09.78.12l1.76,1.76h0ZM11.08,3.76c-.26-.26-.26-.68,0-.94.26-.26.68-.26.94,0l1.76,1.76c.15.15.22.36.19.56-.59-.19-1.21-.31-1.85-.35l-1.04-1.04h0ZM17.21.67c0-.37.3-.67.67-.67s.67.3.67.67v2.5c0,.37-.3.67-.67.67s-.67-.3-.67-.67V.67Z"/>
  </g>
</svg>