<?xml version="1.0" encoding="UTF-8"?>
<svg id="Layer_2" data-name="Layer 2" xmlns="http://www.w3.org/2000/svg" viewBox="0 0 76.53 71.71">
  <g id="Layer_1-2" data-name="Layer 1">
    <g>
      <path d="M53.97,71.71h-31.41c-1.8,0-3.47-.8-4.6-2.2-1.14-1.42-1.57-3.26-1.18-5.05,2.2-9.99,11.24-17.24,21.48-17.24s19.28,7.25,21.48,17.24c.4,1.79-.03,3.63-1.18,5.05-1.13,1.4-2.8,2.2-4.6,2.2ZM38.26,52.21c-7.92,0-14.9,5.6-16.6,13.32-.09.42.08.71.19.85.12.15.34.34.7.34h31.41c.36,0,.58-.18.7-.34.11-.14.28-.43.19-.85-1.7-7.72-8.68-13.32-16.6-13.32Z"/>
      <path d="M38.26,40.94c-7.27,0-13.18-5.91-13.18-13.18s5.91-13.18,13.18-13.18,13.18,5.91,13.18,13.18-5.91,13.18-13.18,13.18ZM38.26,19.58c-4.51,0-8.18,3.67-8.18,8.18s3.67,8.18,8.18,8.18,8.18-3.67,8.18-8.18-3.67-8.18-8.18-8.18Z"/>
      <path d="M68.93,71.71H7.6c-4.19,0-7.6-3.41-7.6-7.6V7.6C0,3.41,3.41,0,7.6,0h61.33c4.19,0,7.6,3.41,7.6,7.6v56.52c0,4.19-3.41,7.6-7.6,7.6ZM7.6,5c-1.43,0-2.6,1.17-2.6,2.6v56.52c0,1.43,1.17,2.6,2.6,2.6h61.33c1.43,0,2.6-1.17,2.6-2.6V7.6c0-1.43-1.17-2.6-2.6-2.6H7.6Z"/>
    </g>
  </g>
</svg>