<?xml version="1.0" encoding="UTF-8"?>
<svg id="Layer_2" data-name="Layer 2" xmlns="http://www.w3.org/2000/svg" viewBox="0 0 21.36 23.31">
  <defs>
    <style>
      .cls-1 {
        fill: #fff;
        fill-rule: evenodd;
      }
    </style>
  </defs>
  <g id="Layer_1-2" data-name="Layer 1">
    <path class="cls-1" d="M21.36,15.22V6.09c0-1.02-.42-1.95-1.09-2.62-.29-.29-.63-.53-1-.71.07.31.11.63.11.95v9.13c0,.59-.12,1.15-.33,1.67h0c-.22.54-.55,1.02-.95,1.42-.4.4-.88.73-1.42.95h0c-.52.21-1.08.33-1.67.33h-5.59l-2.04,1.71h4.81l5.04,4.23c.28.24.7.2.94-.08.15-.18.19-.41.13-.62l-1.06-3.53h.42c1.02,0,1.95-.42,2.62-1.09.67-.67,1.09-1.6,1.09-2.62h0ZM0,12.84V3.71c0-1.02.42-1.95,1.09-2.62S2.69,0,3.71,0h11.3c1.02,0,1.95.42,2.62,1.09.67.67,1.09,1.6,1.09,2.62v9.13c0,1.02-.42,1.95-1.09,2.62s-1.6,1.09-2.62,1.09h-5.83l-5.04,4.23c-.28.24-.7.2-.94-.08-.15-.18-.19-.41-.13-.62l1.06-3.53h-.42c-1.02,0-1.95-.42-2.62-1.09-.67-.67-1.09-1.6-1.09-2.62h0ZM3.21,17.18l.02.04v-.03s-.02,0-.02,0Z"/>
  </g>
</svg>