<?xml version="1.0" encoding="UTF-8"?>
<svg id="Layer_2" data-name="Layer 2" xmlns="http://www.w3.org/2000/svg" viewBox="0 0 28.31 23.39">
  <defs>
    <style>
      .cls-1 {
        fill: #fff;
        fill-rule: evenodd;
      }
    </style>
  </defs>
  <g id="Layer_1-2" data-name="Layer 1">
    <path class="cls-1" d="M9.87,0h2.85c.5,0,.93.25,1.17.69l5.71,10.36c.23.41.23.87,0,1.28l-5.71,10.36c-.24.44-.67.69-1.17.69h-2.85c-.48,0-.9-.24-1.15-.65-.25-.42-.25-.9-.02-1.32l5-9.08c.23-.41.23-.87,0-1.28L8.71,1.97c-.23-.42-.23-.9.02-1.32.25-.42.66-.65,1.15-.65h0ZM1.34,0C.85,0,.44.24.19.65c-.25.42-.25.9-.02,1.32l5,9.08c.23.41.23.87,0,1.28L.17,21.41c-.23.42-.23.9.02,1.32.25.42.66.65,1.15.65h2.85c.5,0,.93-.25,1.17-.69l5.71-10.36c.23-.41.23-.87,0-1.28L5.35.69c-.24-.44-.67-.69-1.17-.69H1.34ZM18.41,0c-.48,0-.9.24-1.15.65-.25.42-.25.9-.02,1.32l5,9.08c.23.41.23.87,0,1.28l-5,9.08c-.23.42-.23.9.02,1.32.25.42.66.65,1.15.65h2.85c.5,0,.93-.25,1.17-.69l5.71-10.36c.23-.41.23-.87,0-1.28L22.43.69c-.24-.44-.67-.69-1.17-.69h-2.85Z"/>
  </g>
</svg>