<?xml version="1.0" encoding="UTF-8"?>
<svg id="Layer_2" data-name="Layer 2" xmlns="http://www.w3.org/2000/svg" viewBox="0 0 32.48 30.1">
  <defs>
    <style>
      .cls-1 {
        fill: #fff;
        fill-rule: evenodd;
      }
    </style>
  </defs>
  <g id="Layer_1-2" data-name="Layer 1">
    <path class="cls-1" d="M.78,9.51c.43,0,.79.35.79.79s-.35.78-.79.78-.78-.35-.78-.78.35-.79.78-.79h0ZM31.69,14.27c.43,0,.78.35.78.79s-.35.78-.78.78-.79-.35-.79-.78.35-.79.79-.79h0ZM29.32,16.64c.43,0,.78.35.78.78s-.35.79-.78.79-.79-.35-.79-.79.35-.78.79-.78h0ZM29.32,14.27c.43,0,.78.35.78.79s-.35.78-.78.78-.79-.35-.79-.78.35-.79.79-.79h0ZM29.32,11.89c.43,0,.78.35.78.79s-.35.78-.78.78-.79-.35-.79-.78.35-.79.79-.79h0ZM26.94,19.02c.43,0,.78.35.78.78s-.35.79-.78.79-.78-.35-.78-.79.35-.78.78-.78h0ZM26.94,16.64c.43,0,.78.35.78.78s-.35.79-.78.79-.78-.35-.78-.79.35-.78.78-.78h0ZM26.94,14.27c.43,0,.78.35.78.79s-.35.78-.78.78-.78-.35-.78-.78.35-.79.78-.79h0ZM26.94,11.89c.43,0,.78.35.78.79s-.35.78-.78.78-.78-.35-.78-.78.35-.79.78-.79h0ZM26.94,9.51c.43,0,.78.35.78.79s-.35.78-.78.78-.78-.35-.78-.78.35-.79.78-.79h0ZM24.56,21.4c.43,0,.78.35.78.78s-.35.79-.78.79-.78-.35-.78-.79.35-.78.78-.78h0ZM24.56,19.02c.43,0,.78.35.78.78s-.35.79-.78.79-.78-.35-.78-.79.35-.78.78-.78h0ZM24.56,16.64c.43,0,.78.35.78.78s-.35.79-.78.79-.78-.35-.78-.79.35-.78.78-.78h0ZM24.56,14.27c.43,0,.78.35.78.79s-.35.78-.78.78-.78-.35-.78-.78.35-.79.78-.79h0ZM24.56,11.89c.43,0,.78.35.78.79s-.35.78-.78.78-.78-.35-.78-.78.35-.79.78-.79h0ZM24.56,9.51c.43,0,.78.35.78.79s-.35.78-.78.78-.78-.35-.78-.78.35-.79.78-.79h0ZM24.56,7.13c.43,0,.78.35.78.78s-.35.78-.78.78-.78-.35-.78-.78.35-.78.78-.78h0ZM22.18,23.78c.43,0,.79.35.79.78s-.35.79-.79.79-.78-.35-.78-.79.35-.78.78-.78h0ZM22.18,21.4c.43,0,.79.35.79.78s-.35.79-.79.79-.78-.35-.78-.79.35-.78.78-.78h0ZM22.18,19.02c.43,0,.79.35.79.78s-.35.79-.79.79-.78-.35-.78-.79.35-.78.78-.78h0ZM22.18,16.64c.43,0,.79.35.79.78s-.35.79-.79.79-.78-.35-.78-.79.35-.78.78-.78h0ZM22.18,14.27c.43,0,.79.35.79.79s-.35.78-.79.78-.78-.35-.78-.78.35-.79.78-.79h0ZM22.18,11.89c.43,0,.79.35.79.79s-.35.78-.79.78-.78-.35-.78-.78.35-.79.78-.79h0ZM22.18,9.51c.43,0,.79.35.79.79s-.35.78-.79.78-.78-.35-.78-.78.35-.79.78-.79h0ZM22.18,7.13c.43,0,.79.35.79.78s-.35.78-.79.78-.78-.35-.78-.78.35-.78.78-.78h0ZM22.18,4.76c.43,0,.79.35.79.78s-.35.78-.79.78-.78-.35-.78-.78.35-.78.78-.78h0ZM19.81,26.15c.43,0,.79.35.79.78s-.35.78-.79.78-.78-.35-.78-.78.35-.78.78-.78h0ZM19.81,23.78c.43,0,.79.35.79.78s-.35.79-.79.79-.78-.35-.78-.79.35-.78.78-.78h0ZM19.81,21.4c.43,0,.79.35.79.78s-.35.79-.79.79-.78-.35-.78-.79.35-.78.78-.78h0ZM19.81,19.02c.43,0,.79.35.79.78s-.35.79-.79.79-.78-.35-.78-.79.35-.78.78-.78h0ZM19.81,16.64c.43,0,.79.35.79.78s-.35.79-.79.79-.78-.35-.78-.79.35-.78.78-.78h0ZM19.81,14.27c.43,0,.79.35.79.79s-.35.78-.79.78-.78-.35-.78-.78.35-.79.78-.79h0ZM19.81,11.89c.43,0,.79.35.79.79s-.35.78-.79.78-.78-.35-.78-.78.35-.79.78-.79h0ZM19.81,9.51c.43,0,.79.35.79.79s-.35.78-.79.78-.78-.35-.78-.78.35-.79.78-.79h0ZM19.81,7.13c.43,0,.79.35.79.78s-.35.78-.79.78-.78-.35-.78-.78.35-.78.78-.78h0ZM19.81,4.76c.43,0,.79.35.79.78s-.35.78-.79.78-.78-.35-.78-.78.35-.78.78-.78h0ZM19.81,2.38c.43,0,.79.35.79.78s-.35.79-.79.79-.78-.35-.78-.79.35-.78.78-.78h0ZM17.43,28.53c.43,0,.79.35.79.79s-.35.78-.79.78-.78-.35-.78-.78.35-.79.78-.79h0ZM17.43,26.15c.43,0,.79.35.79.78s-.35.78-.79.78-.78-.35-.78-.78.35-.78.78-.78h0ZM17.43,23.78c.43,0,.79.35.79.78s-.35.79-.79.79-.78-.35-.78-.79.35-.78.78-.78h0ZM17.43,21.4c.43,0,.79.35.79.78s-.35.79-.79.79-.78-.35-.78-.79.35-.78.78-.78h0ZM17.43,19.02c.43,0,.79.35.79.78s-.35.79-.79.79-.78-.35-.78-.79.35-.78.78-.78h0ZM17.43,16.64c.43,0,.79.35.79.78s-.35.79-.79.79-.78-.35-.78-.79.35-.78.78-.78h0ZM17.43,14.27c.43,0,.79.35.79.79s-.35.78-.79.78-.78-.35-.78-.78.35-.79.78-.79h0ZM17.43,11.89c.43,0,.79.35.79.79s-.35.78-.79.78-.78-.35-.78-.78.35-.79.78-.79h0ZM17.43,9.51c.43,0,.79.35.79.79s-.35.78-.79.78-.78-.35-.78-.78.35-.79.78-.79h0ZM17.43,7.13c.43,0,.79.35.79.78s-.35.78-.79.78-.78-.35-.78-.78.35-.78.78-.78h0ZM17.43,4.76c.43,0,.79.35.79.78s-.35.78-.79.78-.78-.35-.78-.78.35-.78.78-.78h0ZM17.43,2.38c.43,0,.79.35.79.78s-.35.79-.79.79-.78-.35-.78-.79.35-.78.78-.78h0ZM17.43,0c.43,0,.79.35.79.78s-.35.79-.79.79-.78-.35-.78-.79.35-.78.78-.78h0ZM15.05,19.02c.43,0,.78.35.78.78s-.35.79-.78.79-.79-.35-.79-.79.35-.78.79-.78h0ZM15.05,16.64c.43,0,.78.35.78.78s-.35.79-.78.79-.79-.35-.79-.79.35-.78.79-.78h0ZM15.05,14.27c.43,0,.78.35.78.79s-.35.78-.78.78-.79-.35-.79-.78.35-.79.79-.79h0ZM15.05,11.89c.43,0,.78.35.78.79s-.35.78-.78.78-.79-.35-.79-.78.35-.79.79-.79h0ZM15.05,9.51c.43,0,.78.35.78.79s-.35.78-.78.78-.79-.35-.79-.78.35-.79.79-.79h0ZM12.67,19.02c.43,0,.78.35.78.78s-.35.79-.78.79-.79-.35-.79-.79.35-.78.79-.78h0ZM12.67,16.64c.43,0,.78.35.78.78s-.35.79-.78.79-.79-.35-.79-.79.35-.78.79-.78h0ZM12.67,14.27c.43,0,.78.35.78.79s-.35.78-.78.78-.79-.35-.79-.78.35-.79.79-.79h0ZM12.67,11.89c.43,0,.78.35.78.79s-.35.78-.78.78-.79-.35-.79-.78.35-.79.79-.79h0ZM12.67,9.51c.43,0,.78.35.78.79s-.35.78-.78.78-.79-.35-.79-.78.35-.79.79-.79h0ZM10.3,19.02c.43,0,.78.35.78.78s-.35.79-.78.79-.79-.35-.79-.79.35-.78.79-.78h0ZM10.3,16.64c.43,0,.78.35.78.78s-.35.79-.78.79-.79-.35-.79-.79.35-.78.79-.78h0ZM10.3,14.27c.43,0,.78.35.78.79s-.35.78-.78.78-.79-.35-.79-.78.35-.79.79-.79h0ZM10.3,11.89c.43,0,.78.35.78.79s-.35.78-.78.78-.79-.35-.79-.78.35-.79.79-.79h0ZM10.3,9.51c.43,0,.78.35.78.79s-.35.78-.78.78-.79-.35-.79-.78.35-.79.79-.79h0ZM7.92,19.02c.43,0,.78.35.78.78s-.35.79-.78.79-.79-.35-.79-.79.35-.78.79-.78h0ZM7.92,16.64c.43,0,.78.35.78.78s-.35.79-.78.79-.79-.35-.79-.79.35-.78.79-.78h0ZM7.92,14.27c.43,0,.78.35.78.79s-.35.78-.78.78-.79-.35-.79-.78.35-.79.79-.79h0ZM7.92,11.89c.43,0,.78.35.78.79s-.35.78-.78.78-.79-.35-.79-.78.35-.79.79-.79h0ZM7.92,9.51c.43,0,.78.35.78.79s-.35.78-.78.78-.79-.35-.79-.78.35-.79.79-.79h0ZM5.54,19.02c.43,0,.78.35.78.78s-.35.79-.78.79-.78-.35-.78-.79.35-.78.78-.78h0ZM5.54,16.64c.43,0,.78.35.78.78s-.35.79-.78.79-.78-.35-.78-.79.35-.78.78-.78h0ZM5.54,14.27c.43,0,.78.35.78.79s-.35.78-.78.78-.78-.35-.78-.78.35-.79.78-.79h0ZM5.54,11.89c.43,0,.78.35.78.79s-.35.78-.78.78-.78-.35-.78-.78.35-.79.78-.79h0ZM5.54,9.51c.43,0,.78.35.78.79s-.35.78-.78.78-.78-.35-.78-.78.35-.79.78-.79h0ZM3.16,19.02c.43,0,.79.35.79.78s-.35.79-.79.79-.78-.35-.78-.79.35-.78.78-.78h0ZM3.16,16.64c.43,0,.79.35.79.78s-.35.79-.79.79-.78-.35-.78-.79.35-.78.78-.78h0ZM3.16,11.89c.43,0,.79.35.79.79s-.35.78-.79.78-.78-.35-.78-.78.35-.79.78-.79h0ZM3.16,9.51c.43,0,.79.35.79.79s-.35.78-.79.78-.78-.35-.78-.78.35-.79.78-.79h0ZM.78,19.02c.43,0,.79.35.79.78s-.35.79-.79.79-.78-.35-.78-.79.35-.78.78-.78Z"/>
  </g>
</svg>