<?xml version="1.0" encoding="UTF-8"?>
<svg id="Layer_2" data-name="Layer 2" xmlns="http://www.w3.org/2000/svg" viewBox="0 0 18.08 4.79">
  <defs>
    <style>
      .cls-1 {
        fill: #fff;
        fill-rule: evenodd;
      }
    </style>
  </defs>
  <g id="Layer_1-2" data-name="Layer 1">
    <path class="cls-1" d="M16.16.28l1.39,1.06c.34.26.52.63.52,1.06s-.18.8-.52,1.06l-1.39,1.06c-.49.37-1.14.37-1.63-.01-.48-.38-.65-1.01-.4-1.58.07-.16.11-.34.11-.53s-.04-.37-.11-.53c-.24-.56-.08-1.2.4-1.58.48-.38,1.14-.38,1.63-.01h0ZM2.14.28l1.39,1.06c.34.26.52.63.52,1.06s-.18.8-.52,1.06l-1.39,1.06c-.49.37-1.14.37-1.63-.01C.03,4.13-.13,3.49.11,2.93c.07-.16.11-.34.11-.53s-.04-.37-.11-.53C-.13,1.3.03.66.51.29c.48-.38,1.14-.38,1.63-.01h0ZM9,.28l1.39,1.06c.34.26.52.63.52,1.06s-.18.8-.52,1.06l-1.39,1.06c-.49.37-1.14.37-1.63-.01-.48-.38-.65-1.01-.4-1.58.07-.16.11-.34.11-.53s-.04-.37-.11-.53c-.24-.56-.08-1.2.4-1.58.48-.38,1.14-.38,1.63-.01Z"/>
  </g>
</svg>