<?xml version="1.0" encoding="UTF-8"?>
<svg id="Layer_2" data-name="Layer 2" xmlns="http://www.w3.org/2000/svg" viewBox="0 0 63.01 75.05">
  <g id="Layer_1-2" data-name="Layer 1">
    <path d="M53.43,75.05h-30.53c-2.48,0-4.84-.95-6.63-2.67l-13.31-12.76c-3.52-3.37-3.95-8.84-1-12.72l10.66-14.02V9.59C12.62,4.3,16.92,0,22.2,0s9.59,4.3,9.59,9.59v17.02c0,.47.3.88.74,1.02l20.46,6.68c6,1.96,10.03,7.51,10.03,13.82v17.32c0,5.29-4.3,9.59-9.59,9.59ZM12.62,41.14l-6.68,8.78c-1.41,1.86-1.21,4.47.48,6.09l13.31,12.76c.86.82,1.99,1.28,3.17,1.28h30.53c2.53,0,4.59-2.06,4.59-4.59v-17.32c0-4.14-2.64-7.78-6.58-9.07l-20.46-6.68c-2.5-.82-4.19-3.14-4.19-5.77V9.59c0-2.53-2.06-4.59-4.59-4.59s-4.59,2.06-4.59,4.59v41.8c0,1.38-1.12,2.5-2.5,2.5s-2.5-1.12-2.5-2.5v-10.25Z"/>
  </g>
</svg>