<?xml version="1.0" encoding="UTF-8"?>
<svg id="Layer_2" data-name="Layer 2" xmlns="http://www.w3.org/2000/svg" viewBox="0 0 27.92 13.69">
  <defs>
    <style>
      .cls-1 {
        fill: #fff;
        fill-rule: evenodd;
      }
    </style>
  </defs>
  <g id="Layer_1-2" data-name="Layer 1">
    <path class="cls-1" d="M8.98,0h.08c.24,0,.44.05.65.17l9.88,5.51c.43.24.68.67.68,1.16,0,.5-.25.92-.68,1.16l-9.88,5.51c-.21.12-.41.17-.65.17h-.08c-.61,0-1.13-.4-1.29-1-.15-.59.1-1.2.64-1.5l5.71-3.19c.43-.24.68-.67.68-1.16s-.25-.92-.68-1.16l-5.71-3.19c-.54-.3-.79-.9-.64-1.5.15-.59.67-1,1.29-1h0ZM1.33,0C.72,0,.2.4.04,1c-.15.59.1,1.2.64,1.5l5.71,3.19c.43.24.68.67.68,1.16,0,.5-.25.92-.68,1.16L.68,11.19c-.54.3-.79.9-.64,1.5.15.59.67,1,1.29,1h.08c.24,0,.44-.05.65-.17l9.88-5.51c.43-.24.68-.67.68-1.16s-.25-.92-.68-1.16L2.06.17c-.21-.12-.41-.17-.65-.17h-.08ZM16.62,0c-.61,0-1.13.4-1.29,1-.15.59.1,1.2.64,1.5l5.71,3.19c.43.24.68.67.68,1.16s-.25.92-.68,1.16l-5.71,3.19c-.54.3-.79.9-.64,1.5.15.59.67,1,1.29,1h.08c.24,0,.44-.05.65-.17l9.88-5.51c.43-.24.68-.67.68-1.16s-.25-.92-.68-1.16L17.35.17c-.21-.12-.41-.17-.65-.17h-.08Z"/>
  </g>
</svg>