<?xml version="1.0" encoding="UTF-8"?>
<svg id="Layer_2" data-name="Layer 2" xmlns="http://www.w3.org/2000/svg" viewBox="0 0 22.66 26.35">
  <defs>
    <style>
      .cls-1 {
        fill: #fff;
        fill-rule: evenodd;
      }
    </style>
  </defs>
  <g id="Layer_1-2" data-name="Layer 1">
    <path class="cls-1" d="M21.99,7.69H0v-2c0-.92.37-1.75.98-2.35h0c.6-.6,1.44-.98,2.35-.98h4.05v-.63c0-.47.19-.9.51-1.21h0c.31-.31.74-.51,1.21-.51h4.45c.47,0,.9.19,1.21.51h0c.31.32.51.75.51,1.22v.63h4.05c.92,0,1.75.37,2.35.98.6.6.98,1.44.98,2.35v2h-.67ZM21.33,8.35v15.99c0,.55-.23,1.05-.59,1.41h0c-.36.36-.86.59-1.41.59H3.33c-.55,0-1.05-.22-1.41-.59h0c-.36-.36-.59-.86-.59-1.41v-15.99h19.99ZM10,18.28h-1.59l.76-1.31c.18-.32.08-.72-.24-.91-.32-.18-.72-.08-.91.24l-1.31,2.27c-.07.11-.11.23-.11.37,0,.37.3.67.67.67h2.75c.37,0,.67-.3.67-.67s-.3-.67-.67-.67h0ZM10.62,14.44l.71-1.23.75,1.29c.18.32.59.43.91.24.32-.18.43-.59.24-.91l-1.32-2.29c-.06-.1-.14-.19-.25-.25-.32-.18-.72-.07-.91.24l-1.28,2.22c-.18.32-.07.72.24.91.32.18.72.07.91-.24h0ZM13.48,16.95l.77,1.34h-1.61c-.37,0-.67.3-.67.67s.3.67.67.67h2.76c.11,0,.23-.03.33-.09.32-.18.43-.59.24-.91l-1.35-2.34c-.18-.32-.59-.43-.91-.24-.32.18-.43.59-.24.91Z"/>
  </g>
</svg>