<?xml version="1.0" encoding="UTF-8"?>
<svg id="Layer_2" data-name="Layer 2" xmlns="http://www.w3.org/2000/svg" viewBox="0 0 25.96 19.85">
  <defs>
    <style>
      .cls-1 {
        fill: #fff;
        fill-rule: evenodd;
      }
    </style>
  </defs>
  <g id="Layer_1-2" data-name="Layer 1">
    <path class="cls-1" d="M16.9,1.16c1.38-.81,2.7-1.16,3.88-1.16.99,0,1.89.25,2.66.68.77.43,1.39,1.05,1.83,1.79.45.77.7,1.66.7,2.6,0,3.27-.96,5.72-3.08,8-2.04,2.2-5.16,4.22-9.55,6.67-.13.08-.29.12-.46.09-.09-.02-.17-.05-.25-.09-4.39-2.45-7.5-4.46-9.55-6.66C.96,10.8,0,8.34,0,5.08c0-.95.25-1.84.7-2.6.43-.74,1.06-1.36,1.83-1.79C3.29.25,4.19,0,5.18,0,6.36,0,7.68.35,9.06,1.16c.29.17.56.34.84.52.96.61,2.01,1.27,3.13,1.48.98-.02,1.94-.69,2.82-1.31.36-.25.7-.49,1.05-.69Z"/>
  </g>
</svg>