<?xml version="1.0" encoding="UTF-8"?>
<svg id="Layer_2" data-name="Layer 2" xmlns="http://www.w3.org/2000/svg" viewBox="0 0 52.83 73.29">
  <g id="Layer_1-2" data-name="Layer 1">
    <g>
      <path d="M37.9,73.29H14.92c-8.23,0-14.92-6.69-14.92-14.92V14.94C0,6.7,6.7,0,14.94,0h16.34c1.75,0,3.42.38,4.95,1.13,1.15.51,2.27,1.29,3.26,2.27l9.95,9.93c.96.96,1.74,2.08,2.31,3.32.71,1.5,1.09,3.2,1.09,4.89v36.8c0,8.24-6.7,14.94-14.94,14.94ZM14.94,5c-5.48,0-9.94,4.46-9.94,9.94v43.43c0,5.47,4.45,9.92,9.92,9.92h22.98c5.48,0,9.94-4.46,9.94-9.94V21.55c0-.96-.21-1.92-.62-2.77-.33-.72-.78-1.37-1.32-1.91l-9.95-9.93c-.55-.56-1.17-.99-1.84-1.28-.93-.45-1.86-.66-2.84-.66H14.94Z"/>
      <path d="M49.47,20.21h-14.34c-1.38,0-2.5-1.12-2.5-2.5V3.38c0-.85.43-1.64,1.14-2.1.71-.46,1.61-.53,2.38-.19,1.22.55,2.35,1.32,3.33,2.31l9.95,9.93c.96.96,1.74,2.08,2.31,3.32.36.77.3,1.68-.16,2.4-.46.72-1.25,1.15-2.11,1.15ZM37.63,15.21h6.59l-6.59-6.58v6.58Z"/>
      <path d="M26.42,32.66h-10.28c-1.38,0-2.5-1.12-2.5-2.5s1.12-2.5,2.5-2.5h10.28c1.38,0,2.5,1.12,2.5,2.5s-1.12,2.5-2.5,2.5Z"/>
      <path d="M38.7,45.4h-22.56c-1.38,0-2.5-1.12-2.5-2.5s1.12-2.5,2.5-2.5h22.56c1.38,0,2.5,1.12,2.5,2.5s-1.12,2.5-2.5,2.5Z"/>
      <path d="M38.7,58.53c-2.14,0-3.28-.24-4.28-.45-.87-.19-1.62-.35-3.24-.35s-2.37.16-3.24.35c-1,.21-2.14.45-4.28.45s-3.28-.24-4.28-.46c-.87-.18-1.62-.34-3.24-.34-1.38,0-2.5-1.12-2.5-2.5s1.12-2.5,2.5-2.5c2.14,0,3.28.24,4.28.46.87.18,1.62.34,3.24.34s2.37-.16,3.24-.34c1-.21,2.14-.46,4.28-.46s3.28.24,4.28.46c.87.18,1.62.34,3.24.34,1.38,0,2.5,1.12,2.5,2.5s-1.12,2.5-2.5,2.5Z"/>
    </g>
  </g>
</svg>