<?xml version="1.0" encoding="UTF-8"?>
<svg id="Layer_2" data-name="Layer 2" xmlns="http://www.w3.org/2000/svg" viewBox="0 0 25.46 21.59">
  <defs>
    <style>
      .cls-1 {
        fill: #fff;
        fill-rule: evenodd;
      }
    </style>
  </defs>
  <g id="Layer_1-2" data-name="Layer 1">
    <path class="cls-1" d="M21.63,19.16c-2.29,1.5-5.43,2.43-8.9,2.43s-6.61-.93-8.9-2.43c-2.37-1.55-3.84-3.73-3.84-6.15,0-2.13,1.14-4.07,3.03-5.57,1.78-1.41,4.25-2.42,7.04-2.82L12.13.38c.06-.13.17-.24.31-.31.33-.16.73-.02.89.31l2.06,4.25c2.8.4,5.26,1.41,7.04,2.82,1.89,1.49,3.03,3.43,3.03,5.57,0,2.42-1.47,4.6-3.84,6.15Z"/>
  </g>
</svg>