<?xml version="1.0" encoding="UTF-8"?>
<svg id="Layer_2" data-name="Layer 2" xmlns="http://www.w3.org/2000/svg" viewBox="0 0 33.23 19.81">
  <defs>
    <style>
      .cls-1 {
        fill: #fff;
        fill-rule: evenodd;
      }
    </style>
  </defs>
  <g id="Layer_1-2" data-name="Layer 1">
    <path class="cls-1" d="M1.33,15.71h11.94c.73,0,1.33.6,1.33,1.33v.72c0,.53.29.98.77,1.21.48.22,1.01.15,1.42-.18l9.55-7.98c.31-.26.48-.61.48-1.02s-.16-.76-.48-1.02L16.79.78c-.41-.34-.94-.41-1.42-.18-.48.22-.77.68-.77,1.21v.72c0,.73-.6,1.33-1.33,1.33H1.33c-.73,0-1.33.6-1.33,1.33v9.19c0,.73.6,1.33,1.33,1.33h0ZM20.78,17.19l7.49-6.26c.31-.26.48-.61.48-1.02s-.16-.76-.48-1.02l-7.49-6.26c-.31-.26-.48-.61-.48-1.02v-.26c0-.53.29-.98.77-1.21.48-.22,1.01-.16,1.42.18l10.26,8.57c.31.26.48.61.48,1.02s-.16.76-.48,1.02c-3.42,2.86-6.84,5.71-10.26,8.57-.41.34-.94.41-1.42.18-.48-.22-.77-.68-.77-1.21v-.26c0-.41.16-.76.48-1.02Z"/>
  </g>
</svg>