<?xml version="1.0" encoding="UTF-8"?>
<svg id="Layer_2" data-name="Layer 2" xmlns="http://www.w3.org/2000/svg" viewBox="0 0 69.43 70">
  <g id="Layer_1-2" data-name="Layer 1">
    <g>
      <path d="M17.11,31.79c-.17,0-.33-.02-.49-.05-.16-.04-.32-.08-.47-.15-.15-.06-.3-.14-.43-.23-.14-.09-.27-.19-.38-.31-.12-.11-.22-.24-.31-.38-.09-.13-.17-.28-.23-.43-.06-.15-.11-.31-.14-.47-.04-.16-.05-.32-.05-.48,0-.17,0-.33.05-.49.03-.16.07-.32.14-.47.06-.15.14-.3.23-.43.09-.14.19-.27.31-.38.11-.12.24-.22.38-.31.13-.09.28-.17.43-.23.15-.07.31-.11.47-.15.32-.06.65-.06.97,0,.16.04.32.08.47.15.15.06.3.14.43.23.14.09.27.19.38.31.47.46.74,1.11.74,1.77,0,.16-.02.32-.05.48-.03.16-.08.32-.15.47-.06.15-.14.3-.22.43-.1.14-.2.27-.32.38-.11.12-.24.22-.38.31-.13.09-.28.17-.43.23-.15.07-.31.11-.47.15-.16.03-.32.05-.48.05Z"/>
      <path d="M33.22,70c-3.45,0-6.9-1.31-9.53-3.94L3.95,46.32C1.26,43.63-.17,39.91.02,36.11l.76-15.07c.22-4.39,3.7-7.87,8.09-8.09l15.06-.76h0c3.79-.19,7.52,1.24,10.21,3.93l19.74,19.74c5.26,5.26,5.26,13.81,0,19.06l-11.13,11.13c-2.63,2.63-6.08,3.94-9.53,3.94ZM24.19,17.19l-15.06.76c-1.82.09-3.26,1.53-3.35,3.35l-.76,15.07c-.12,2.39.78,4.73,2.47,6.42l19.74,19.74c1.6,1.6,3.73,2.48,6,2.48s4.4-.88,6-2.48l11.13-11.13c3.31-3.31,3.31-8.69,0-11.99l-19.74-19.74c-1.69-1.69-4.04-2.61-6.42-2.47h0Z"/>
      <path d="M65,45.92c-.64,0-1.28-.24-1.77-.73-.98-.98-.98-2.56,0-3.54.77-.77,1.2-1.8,1.2-2.89,0-1.09-.43-2.12-1.2-2.89L33.88,6.55c-1.06-1.06-2.51-1.62-4.02-1.55l-16.78.85c-1.38.06-2.55-.99-2.62-2.37-.07-1.38.99-2.55,2.37-2.62L29.6.01c2.91-.15,5.75.95,7.81,3l29.35,29.32c1.72,1.71,2.66,4,2.66,6.42,0,2.43-.94,4.71-2.66,6.42-.49.49-1.13.73-1.77.73Z"/>
    </g>
  </g>
</svg>