<?xml version="1.0" encoding="UTF-8"?>
<svg id="Layer_2" data-name="Layer 2" xmlns="http://www.w3.org/2000/svg" viewBox="0 0 19.98 24.55">
  <defs>
    <style>
      .cls-1 {
        fill: #fff;
        fill-rule: evenodd;
      }
    </style>
  </defs>
  <g id="Layer_1-2" data-name="Layer 1">
    <path class="cls-1" d="M.67,0h18.65c.37,0,.67.3.67.67v2.84c0,.37-.3.67-.67.67H.67c-.37,0-.67-.3-.67-.67V.67c0-.37.3-.67.67-.67h0ZM18.34,4.84l-.31,3.19s0,.04,0,.06l-.25,2.56s0,.04,0,.06l-.51,5.22s0,.04,0,.06l-.57,5.79s0,.04,0,.06l-.19,1.99s0,.04,0,.05v.08c-.04.34-.33.6-.67.6h0s-11.62,0-11.62,0c-.36,0-.66-.29-.67-.66v-.03s0-.04,0-.05l-.2-1.99s0-.04,0-.06l-.57-5.79s0-.04,0-.06l-.51-5.22s0-.04,0-.06l-.25-2.56s0-.04,0-.05l-.31-3.19h1.33l.1,1.03.59-1.03h1.97l1.68,2.91,1.68-2.91h1.97l1.68,2.91,1.68-2.91h1.97l.59,1.03.1-1.03h1.33ZM4.61,21.52l.04.08,1.9-3.29-1.9-3.29-.58,1.01.54,5.49h0ZM5.43,22.93l.17.29h3.46l.17-.29-1.9-3.29-1.9,3.29h0ZM3.89,13.69l-.05-.09.02.16.04-.07h0ZM3.52,10.4l1.14,1.97,1.9-3.29-1.9-3.29-1.36,2.35.22,2.26h0ZM5.43,13.69l1.9,3.29,1.9-3.29-1.9-3.29-1.9,3.29h0ZM8.09,18.31l1.9,3.29,1.9-3.29-1.9-3.29-1.9,3.29h0ZM10.76,22.93l.17.29h3.46l.17-.29-1.9-3.29-1.9,3.29h0ZM8.09,9.08l1.9,3.29,1.9-3.29-1.9-3.29-1.9,3.29h0ZM10.76,13.69l1.9,3.29,1.9-3.29-1.9-3.29-1.9,3.29h0ZM13.42,18.31l1.9,3.29.04-.08.54-5.49-.58-1.01-1.9,3.29h0ZM13.42,9.08l1.9,3.29,1.14-1.97.22-2.26-1.36-2.35-1.9,3.29h0ZM16.09,13.69l.04.07.02-.16-.05.09Z"/>
  </g>
</svg>