<?xml version="1.0" encoding="UTF-8"?>
<svg id="Layer_2" data-name="Layer 2" xmlns="http://www.w3.org/2000/svg" viewBox="0 0 22.11 20.48">
  <defs>
    <style>
      .cls-1 {
        fill: #fff;
        fill-rule: evenodd;
      }
    </style>
  </defs>
  <g id="Layer_1-2" data-name="Layer 1">
    <path class="cls-1" d="M2.88,20.06l10.15-8.48c.41-.35.63-.81.63-1.35s-.22-1-.63-1.35L2.88.41C2.35-.03,1.64-.12,1.01.17S0,1.06,0,1.76v16.95c0,.7.38,1.3,1.01,1.59.63.3,1.33.2,1.87-.24h0ZM17.7,10.64c.03-.13.04-.26.04-.4s-.01-.27-.04-.4c-.17-.75.15-1.48.8-1.88s1.45-.34,2.04.15l.94.78c.41.35.63.81.63,1.35s-.22,1-.63,1.35l-.94.78c-.59.49-1.38.55-2.04.15s-.97-1.13-.8-1.88Z"/>
  </g>
</svg>