<?xml version="1.0" encoding="UTF-8"?>
<svg id="Layer_2" data-name="Layer 2" xmlns="http://www.w3.org/2000/svg" viewBox="0 0 22.8 18.38">
  <defs>
    <style>
      .cls-1 {
        fill: #fff;
        fill-rule: evenodd;
      }
    </style>
  </defs>
  <g id="Layer_1-2" data-name="Layer 1">
    <path class="cls-1" d="M0,11.91V.67c0-.37.3-.67.67-.67h21.47c.37,0,.67.3.67.67v11.25c0,.37-.3.67-.67.67h-3.98c.16.78.43,1.53.79,2.21.49.92,1.15,1.74,1.94,2.42.28.24.31.66.07.94-.16.19-.41.27-.64.22-1.64-.35-3.13-1.12-4.34-2.19-1.11-.98-1.98-2.2-2.55-3.59H.67c-.37,0-.67-.3-.67-.67h0ZM6.92,5.02c-.68,0-1.24.55-1.24,1.24s.55,1.24,1.24,1.24,1.24-.55,1.24-1.24-.55-1.24-1.24-1.24h0ZM15.87,5.02c-.68,0-1.24.55-1.24,1.24s.55,1.24,1.24,1.24,1.24-.55,1.24-1.24-.55-1.24-1.24-1.24h0ZM11.4,5.02c-.68,0-1.24.55-1.24,1.24s.55,1.24,1.24,1.24,1.24-.55,1.24-1.24-.55-1.24-1.24-1.24Z"/>
  </g>
</svg>