<?xml version="1.0" encoding="UTF-8"?>
<svg id="Layer_2" data-name="Layer 2" xmlns="http://www.w3.org/2000/svg" viewBox="0 0 75.08 75.1">
  <g id="Layer_1-2" data-name="Layer 1">
    <g>
      <path d="M48.73,60.04h-22.38c-1.5,0-2.9-.67-3.84-1.84-.95-1.18-1.31-2.72-.98-4.21,1.64-7.44,8.37-12.85,16.01-12.85s14.36,5.4,16.01,12.85c.33,1.49-.03,3.02-.98,4.21-.94,1.17-2.34,1.84-3.84,1.84ZM37.54,46.15c-5.31,0-9.98,3.75-11.12,8.92l22.31-.03c-1.21-5.14-5.89-8.89-11.19-8.89Z"/>
      <path d="M37.54,35.4c-5.17,0-9.37-4.21-9.37-9.37s4.2-9.37,9.37-9.37,9.37,4.21,9.37,9.37-4.2,9.37-9.37,9.37ZM37.54,21.65c-2.41,0-4.37,1.96-4.37,4.37s1.96,4.37,4.37,4.37,4.37-1.96,4.37-4.37-1.96-4.37-4.37-4.37Z"/>
      <path d="M26.43,75.1h-11.2c-8.4,0-15.23-6.84-15.23-15.25v-11.2c0-1.38,1.12-2.5,2.5-2.5s2.5,1.12,2.5,2.5v11.2c0,5.65,4.59,10.25,10.23,10.25h11.2c1.38,0,2.5,1.12,2.5,2.5s-1.12,2.5-2.5,2.5Z"/>
      <path d="M72.58,28.93c-1.38,0-2.5-1.12-2.5-2.5v-11.18c0-5.65-4.59-10.25-10.23-10.25h-11.2c-1.38,0-2.5-1.12-2.5-2.5s1.12-2.5,2.5-2.5h11.2c8.4,0,15.23,6.84,15.23,15.25v11.18c0,1.38-1.12,2.5-2.5,2.5Z"/>
      <path d="M59.85,75.1h-11.2c-1.38,0-2.5-1.12-2.5-2.5s1.12-2.5,2.5-2.5h11.2c5.64,0,10.23-4.6,10.23-10.25v-11.2c0-1.38,1.12-2.5,2.5-2.5s2.5,1.12,2.5,2.5v11.2c0,8.41-6.83,15.25-15.23,15.25Z"/>
      <path d="M2.5,28.93c-1.38,0-2.5-1.12-2.5-2.5v-11.18C0,6.84,6.83,0,15.23,0h11.2c1.38,0,2.5,1.12,2.5,2.5s-1.12,2.5-2.5,2.5h-11.2c-5.64,0-10.23,4.6-10.23,10.25v11.18c0,1.38-1.12,2.5-2.5,2.5Z"/>
    </g>
  </g>
</svg>