<?xml version="1.0" encoding="UTF-8"?>
<svg id="Layer_2" data-name="Layer 2" xmlns="http://www.w3.org/2000/svg" viewBox="0 0 29.38 29.66">
  <defs>
    <style>
      .cls-1 {
        fill: #fff;
        fill-rule: evenodd;
      }
    </style>
  </defs>
  <g id="Layer_1-2" data-name="Layer 1">
    <path class="cls-1" d="M7.11,4.8h0c.22,0,.45.01.7.04l.17.02c.71-1.39,1.77-2.56,3.07-3.41,1.4-.91,3.07-1.44,4.85-1.44,2.21,0,4.23.81,5.79,2.14,1.46,1.26,2.51,2.98,2.92,4.94,1.28.28,2.42.98,3.26,1.93.93,1.07,1.5,2.46,1.5,3.97,0,1.67-.68,3.18-1.78,4.27-1.1,1.1-2.62,1.77-4.29,1.77h0c-.98,0-6.76,0-11.24,0-2.52,0-4.63,0-5.24-.01-1.87-.02-3.56-.86-4.79-2.14-1.26-1.31-2.04-3.09-2.04-4.96,0-1.96.8-3.74,2.09-5.03,1.29-1.29,3.07-2.09,5.03-2.09h0ZM17.16,24.73l1.41-4.14c.08-.28.34-.49.64-.49h2.67c.1,0,.19.02.29.07.33.16.47.55.31.88l-.72,1.5h1.37c.13,0,.27.04.39.12.3.21.37.63.16.93l-4.09,5.75c-.15.24-.44.36-.72.29-.36-.09-.57-.45-.48-.81l.81-3.23h-1.4c-.07,0-.14-.01-.21-.04-.35-.12-.53-.5-.42-.84h0ZM15.25,21.39c.56,1.03,1.13,2.07,1.13,2.99h0c0,.98-.58,1.6-1.33,1.88h-.04c-.27.11-.57.16-.87.15-.3,0-.6-.06-.87-.16-.76-.28-1.34-.91-1.32-1.88.02-.95.63-2.08,1.22-3.15.13-.24.27-.49.41-.76.06-.12.16-.23.3-.29.33-.16.73-.03.89.3.15.31.32.62.49.92h0ZM9.85,21.39c.56,1.03,1.13,2.07,1.13,2.99h0c0,1-.6,1.62-1.37,1.89-.27.1-.57.14-.87.14-.3,0-.6-.06-.87-.16-.76-.28-1.34-.91-1.32-1.88.02-.95.63-2.08,1.22-3.15.13-.24.27-.49.41-.76.06-.12.16-.23.3-.29.33-.16.73-.03.89.3.15.31.32.62.49.92Z"/>
  </g>
</svg>