<?xml version="1.0" encoding="UTF-8"?>
<svg id="Layer_2" data-name="Layer 2" xmlns="http://www.w3.org/2000/svg" viewBox="0 0 24.31 24.31">
  <defs>
    <style>
      .cls-1 {
        fill: #fff;
        fill-rule: evenodd;
      }
    </style>
  </defs>
  <g id="Layer_1-2" data-name="Layer 1">
    <path class="cls-1" d="M14.58,3.12l1.51-2.05c.2-.28.59-.35.88-.18l2.55,1.47c.3.17.41.55.27.86l-1.01,2.31,2.33-1.02c.31-.14.67-.01.84.28l1.48,2.56c.17.3.09.67-.18.87l-2.05,1.51,2.53.28c.34.04.59.33.59.66v2.96c0,.36-.28.65-.63.67l-2.49.28,2.05,1.51c.28.2.35.59.18.88l-1.47,2.55c-.17.3-.55.41-.86.27l-2.31-1.01,1.02,2.33c.14.31.01.67-.28.84l-2.56,1.48c-.3.17-.67.09-.87-.18l-1.51-2.05-.28,2.53c-.04.34-.33.59-.66.59h-2.96c-.36,0-.65-.28-.67-.63l-.28-2.49-1.51,2.05c-.2.28-.58.35-.88.18l-2.55-1.47c-.3-.17-.41-.55-.27-.86l1.01-2.31-2.33,1.02c-.31.14-.67.01-.84-.28l-1.48-2.56c-.17-.3-.09-.67.18-.87l2.05-1.51-2.53-.28C.25,14.26,0,13.97,0,13.64v-2.96c0-.36.28-.65.63-.67l2.49-.28-2.05-1.51c-.28-.2-.35-.59-.18-.88l1.47-2.55c.17-.3.55-.41.86-.27l2.31,1.01-1.02-2.33c-.14-.31-.01-.67.28-.84l2.56-1.48c.3-.17.67-.09.87.18l1.51,2.05.28-2.53C10.06.25,10.34,0,10.68,0h2.96c.36,0,.65.28.67.63l.28,2.49h0ZM14.64,9.67c-.64-.64-1.52-1.03-2.49-1.03s-1.85.39-2.49,1.03c-.64.64-1.03,1.52-1.03,2.49s.39,1.85,1.03,2.49c.64.64,1.52,1.03,2.49,1.03s1.85-.39,2.49-1.03,1.03-1.52,1.03-2.49-.39-1.85-1.03-2.49Z"/>
  </g>
</svg>