<?xml version="1.0" encoding="UTF-8"?>
<svg id="Layer_2" data-name="Layer 2" xmlns="http://www.w3.org/2000/svg" viewBox="0 0 30.54 19.57">
  <defs>
    <style>
      .cls-1 {
        fill: #fff;
        fill-rule: evenodd;
      }
    </style>
  </defs>
  <g id="Layer_1-2" data-name="Layer 1">
    <path class="cls-1" d="M24.81,6.73c.26.69-.09,1.45-.78,1.71-.69.26-1.45-.09-1.71-.78-.56-1.48-1.57-2.75-2.85-3.64-1.25-.86-2.76-1.36-4.4-1.36s-3.16.51-4.41,1.37c-1.29.89-2.29,2.16-2.85,3.65-.2.54-.72.87-1.26.86l-5.2.06C.6,8.62,0,8.03,0,7.29c0-.73.58-1.33,1.32-1.34l4.36-.05c.79-1.64,1.99-3.03,3.47-4.06,1.68-1.17,3.73-1.85,5.92-1.85s4.23.68,5.91,1.84c1.73,1.19,3.08,2.9,3.83,4.89h0ZM5.52,12.84c-.26-.69.09-1.45.78-1.71.69-.26,1.45.09,1.71.78.56,1.49,1.57,2.75,2.85,3.64,1.25.86,2.76,1.36,4.4,1.36s3.16-.51,4.41-1.37c1.29-.89,2.29-2.16,2.85-3.65.2-.54.72-.87,1.26-.86l5.41-.06c.73,0,1.33.58,1.34,1.32,0,.73-.58,1.33-1.32,1.34l-4.58.05c-.79,1.63-1.99,3.03-3.46,4.06-1.68,1.17-3.73,1.85-5.92,1.85s-4.23-.68-5.91-1.84c-1.73-1.19-3.08-2.9-3.83-4.89h0ZM15.16,5c-.6,0-1.19.12-1.73.33-.55.22-1.06.53-1.5.93-.49.45-.89.99-1.16,1.6-.26.59-.41,1.25-.41,1.93s.15,1.34.42,1.94c.28.62.68,1.17,1.17,1.61.43.38.93.69,1.49.91.54.21,1.12.32,1.71.32s1.18-.12,1.73-.33c.56-.22,1.07-.53,1.5-.93.49-.45.89-.99,1.16-1.61.26-.59.41-1.25.41-1.93s-.14-1.28-.38-1.86l-.03-.08c-.27-.61-.67-1.16-1.17-1.61-.43-.39-.94-.7-1.49-.92-.54-.21-1.12-.32-1.71-.32h0ZM15.93,7.8c-.23-.09-.49-.14-.77-.14s-.54.05-.77.14c-.25.1-.47.24-.66.41-.21.19-.39.44-.51.72-.11.26-.18.55-.18.86s.06.61.18.86c.12.27.3.52.52.72.2.18.42.32.66.41.23.09.48.13.76.13s.54-.05.77-.14c.24-.09.47-.24.66-.42.22-.2.39-.44.51-.71.11-.26.18-.55.18-.86s-.05-.57-.15-.81l-.02-.05c-.12-.28-.3-.52-.52-.72-.19-.17-.42-.31-.66-.41Z"/>
  </g>
</svg>