<?xml version="1.0" encoding="UTF-8"?>
<svg id="Layer_2" data-name="Layer 2" xmlns="http://www.w3.org/2000/svg" viewBox="0 0 70.4 75.18">
  <g id="Layer_1-2" data-name="Layer 1">
    <g>
      <path d="M57.6,75.18h-7.54c-1.38,0-2.5-1.12-2.5-2.5s1.12-2.5,2.5-2.5h7.54c4.3,0,7.8-3.51,7.8-7.83v-30.94c0-1.53-.66-2.97-1.82-3.95L38.53,6.23c-1.94-1.64-4.75-1.64-6.68,0L6.81,27.46c-1.15.98-1.81,2.42-1.81,3.95v30.94c0,4.32,3.51,7.83,7.83,7.83h7.52c1.38,0,2.5,1.12,2.5,2.5s-1.12,2.5-2.5,2.5h-7.52c-7.07,0-12.83-5.75-12.83-12.83v-30.94c0-3,1.3-5.82,3.58-7.76L28.61,2.42c3.81-3.23,9.34-3.23,13.15,0l25.06,21.23c2.28,1.94,3.58,4.77,3.58,7.76v30.94c0,7.07-5.74,12.83-12.8,12.83Z"/>
      <circle cx="35.2" cy="44.47" r="6.29"/>
      <path d="M35.2,72.36c-5.59,0-17.78-14-17.78-27.89,0-9.8,7.98-17.78,17.78-17.78s17.78,7.98,17.78,17.78c0,13.89-12.19,27.89-17.78,27.89ZM35.27,67.36h0,0ZM35.2,31.69c-7.05,0-12.78,5.73-12.78,12.78,0,11.38,10.15,22.3,12.78,22.88,2.63-.58,12.78-11.5,12.78-22.88,0-7.05-5.73-12.78-12.78-12.78Z"/>
    </g>
  </g>
</svg>