<?xml version="1.0" encoding="UTF-8"?>
<svg id="Layer_2" data-name="Layer 2" xmlns="http://www.w3.org/2000/svg" viewBox="0 0 160.53 160.54">
  <defs>
    <style>
      .cls-1 {
        fill: #080a16;
      }
    </style>
  </defs>
  <g id="Calque_1" data-name="Calque 1">
    <g>
      <path class="cls-1" d="M160.53,160.54h-26.76c-16.37,0-31.59-10.36-37.02-25.2-1.73-4.75-2.2-9.25-2.62-13.22-.1-.92-.19-1.84-.31-2.75-.89-7.16-6.6-12.34-13.56-12.34s-12.67,5.18-13.56,12.32c-.12.93-.21,1.85-.31,2.77-.42,3.97-.89,8.46-2.61,13.2-5.35,14.62-20.91,25.22-37.02,25.22H0v-25.87h26.76c5.36,0,11.07-3.69,12.72-8.22.63-1.73.9-4.3,1.18-7.02.11-1.1.23-2.2.37-3.29,2.49-19.93,19.36-34.97,39.23-34.97s36.74,15.04,39.23,34.99c.14,1.08.25,2.18.37,3.28.29,2.72.55,5.3,1.19,7.04,1.65,4.51,7.36,8.2,12.72,8.2h26.76v25.87Z"/>
      <path class="cls-1" d="M160.53,79.37h-26.76c-16.37,0-31.59-10.36-37.02-25.2-1.73-4.75-2.2-9.25-2.62-13.22-.1-.92-.19-1.84-.31-2.75-.89-7.16-6.6-12.34-13.56-12.34s-12.67,5.18-13.56,12.32c-.12.93-.21,1.85-.31,2.77-.42,3.97-.89,8.46-2.61,13.2-5.35,14.62-20.91,25.22-37.02,25.22H0v-25.87h26.76c5.36,0,11.07-3.69,12.72-8.22.63-1.73.9-4.3,1.18-7.02.11-1.1.23-2.2.37-3.29C43.53,15.04,60.39,0,80.27,0s36.74,15.04,39.23,34.99c.14,1.08.25,2.18.37,3.28.29,2.72.55,5.3,1.19,7.04,1.65,4.51,7.36,8.2,12.72,8.2h26.76v25.87Z"/>
    </g>
  </g>
</svg>