<?xml version="1.0" encoding="UTF-8"?>
<svg id="Layer_2" data-name="Layer 2" xmlns="http://www.w3.org/2000/svg" viewBox="0 0 28.13 24.54">
  <defs>
    <style>
      .cls-1 {
        fill: #fff;
        fill-rule: evenodd;
      }
    </style>
  </defs>
  <g id="Layer_1-2" data-name="Layer 1">
    <path class="cls-1" d="M3.8,12.46H1.75c-.38,0-.73-.12-1.02-.32-.29-.21-.52-.5-.64-.86-.12-.36-.13-.73-.02-1.07.1-.34.31-.65.61-.88L11.7.8C12.38.27,13.19,0,14,0c.81,0,1.61.26,2.3.78l11.14,8.54c.3.23.51.54.61.88.1.34.1.71-.02,1.07-.12.36-.35.66-.64.86-.29.21-.64.33-1.02.33h-2.18v8.31c0,1.04-.42,1.98-1.11,2.66l-.04.04c-.68.66-1.61,1.07-2.62,1.07h-1.73c-.48,0-.92-.2-1.24-.51l-.04-.05c-.29-.31-.47-.73-.47-1.19v-6.37c0-.12-.05-.22-.12-.3h0c-.08-.07-.18-.12-.3-.12h-5.25c-.12,0-.22.05-.3.12-.08.08-.12.18-.12.3v6.37c0,.48-.2.92-.51,1.23h0c-.32.32-.75.52-1.23.52h-1.55c-1.04,0-1.98-.42-2.66-1.11-.68-.68-1.1-1.62-1.1-2.66v-8.31Z"/>
  </g>
</svg>