<?xml version="1.0" encoding="UTF-8"?>
<svg id="Layer_2" data-name="Layer 2" xmlns="http://www.w3.org/2000/svg" viewBox="0 0 25.61 19.07">
  <defs>
    <style>
      .cls-1 {
        fill: #fff;
        fill-rule: evenodd;
      }
    </style>
  </defs>
  <g id="Layer_1-2" data-name="Layer 1">
    <path class="cls-1" d="M16.81,14.13c-.23.05-.46.06-.69.04-.06.69-.3,1.34-.67,1.9-.57.86-1.46,1.51-2.55,1.75-1.11.25-2.22.02-3.1-.55-.65-.41-1.18-1.01-1.52-1.73-.54.63-1.16,1.19-1.85,1.66-1.01.69-2.16,1.2-3.41,1.47-.36.08-.71-.15-.79-.51-.05-.26.05-.51.24-.66.78-.67,1.43-1.48,1.91-2.39.3-.56.53-1.16.7-1.79l-.08.02c-1.11.25-2.22.02-3.11-.55S.34,11.29.1,10.18c-.25-1.11-.02-2.22.55-3.11.57-.89,1.47-1.56,2.59-1.81.11-.02.23-.05.34-.06-.13-.26-.23-.54-.29-.83-.21-.97-.02-1.93.48-2.71.49-.78,1.28-1.36,2.25-1.58.88-.19,1.75-.05,2.48.35.42.23.79.54,1.09.91.12-.13.26-.24.4-.35.42-.33.93-.57,1.49-.7h0c1.01-.22,2.02-.02,2.82.5.81.52,1.42,1.34,1.65,2.35h0c.06.26.09.52.09.77.07-.02.15-.04.23-.06,1.07-.24,2.13-.02,2.99.53.86.55,1.5,1.42,1.74,2.49.24,1.07.02,2.13-.53,2.99-.48.75-1.21,1.34-2.1,1.63.01.05.03.09.04.14h0c.12.57,0,1.12-.28,1.57-.29.45-.75.79-1.31.92h0ZM14.65,17.79c.37.3.81.53,1.31.64.83.18,1.66.01,2.32-.41.48-.31.88-.75,1.13-1.29.4.47.87.89,1.38,1.24.76.52,1.62.9,2.55,1.1.27.06.53-.11.59-.38.04-.19-.04-.38-.18-.49-.58-.5-1.07-1.11-1.43-1.79-.22-.42-.4-.87-.52-1.34h.06c.83.2,1.66.03,2.32-.4.67-.42,1.17-1.1,1.35-1.93.18-.83.01-1.66-.41-2.32-.42-.67-1.1-1.17-1.93-1.35-.08-.02-.17-.03-.25-.05.1-.19.17-.4.22-.62.16-.72.01-1.44-.36-2.02-.37-.58-.96-1.02-1.68-1.18-.05-.01-.1-.02-.16-.03.32.47.56,1.01.69,1.6.14.62.14,1.23.04,1.8-.11.6-.33,1.17-.66,1.68-.29.45-.64.84-1.06,1.17-.26.2-.55.38-.85.53.01.22,0,.44-.04.65h0c-.06.36-.2.7-.39,1-.19.3-.45.57-.74.78-.29.2-.62.35-.98.43h0s-.01,0-.01,0c-.08.02-.16.03-.25.04-.04.19-.09.37-.16.55h0c-.13.37-.31.73-.52,1.06-.34.51-.77.95-1.28,1.31l-.08.05Z"/>
  </g>
</svg>