<?xml version="1.0" encoding="UTF-8"?>
<svg id="Layer_2" data-name="Layer 2" xmlns="http://www.w3.org/2000/svg" viewBox="0 0 20.24 23.69">
  <defs>
    <style>
      .cls-1 {
        fill: #fff;
        fill-rule: evenodd;
      }
    </style>
  </defs>
  <g id="Layer_1-2" data-name="Layer 1">
    <path class="cls-1" d="M19.57,6.53H.67c-.37,0-.67-.3-.67-.67v-.85c0-.72.29-1.38.76-1.87l.04-.04c.49-.49,1.17-.79,1.91-.79h3.84c.08-.51.27-.98.54-1.36l.03-.05c.42-.56,1.01-.91,1.68-.91h2.64c.67,0,1.26.35,1.68.91h0c.29.39.49.87.57,1.41h3.84c.74,0,1.42.3,1.91.79h0c.49.49.79,1.17.79,1.91v.85c0,.37-.3.67-.67.67h0ZM18.65,7.2l-1.34,12.24c-.13,1.18-.63,2.26-1.41,3.04-.75.75-1.75,1.22-2.91,1.22h-5.75c-1.16,0-2.16-.46-2.91-1.21-.77-.77-1.28-1.86-1.4-3.04L1.59,7.2h17.06Z"/>
  </g>
</svg>