<?xml version="1.0" encoding="UTF-8"?>
<svg id="Layer_2" data-name="Layer 2" xmlns="http://www.w3.org/2000/svg" viewBox="0 0 24.72 24.63">
  <defs>
    <style>
      .cls-1 {
        fill: #fff;
        fill-rule: evenodd;
      }
    </style>
  </defs>
  <g id="Layer_1-2" data-name="Layer 1">
    <path class="cls-1" d="M10,0c1.68,0,3.19.68,4.29,1.78,1.1,1.1,1.78,2.62,1.78,4.29s-.68,3.19-1.78,4.29c-.5.5-1.08.91-1.73,1.21,1.3.35,2.49.95,3.53,1.75h-5.53c-.37,0-.7.15-.94.39h0c-.24.24-.39.58-.39.94v1.18c0,.37.3.67.67.67-.37,0-.67.3-.67.67v6.35c0,.37.15.7.39.94.07.07.14.13.22.18H2.2c-.61,0-1.16-.25-1.56-.65-.4-.4-.65-.95-.65-1.56v-1.2c0-2.75,1.12-5.25,2.94-7.06,1.23-1.23,2.77-2.14,4.49-2.6-.64-.3-1.23-.71-1.73-1.21-1.1-1.1-1.78-2.62-1.78-4.29s.68-3.19,1.78-4.29c1.1-1.1,2.62-1.78,4.29-1.78h0ZM10.55,13.98c-.37,0-.67.3-.67.67v1.18h14.83v-1.18c0-.37-.3-.67-.67-.67h-13.5ZM24.72,17.16h-14.83v6.09c0,.37.3.67.67.67h13.5c.37,0,.67-.3.67-.67v-6.09h0ZM12.54,19h1.59c.37,0,.67-.3.67-.67s-.3-.67-.67-.67h-1.59c-.37,0-.67.3-.67.67s.3.67.67.67h0ZM12.54,20.84h4.73c.37,0,.67-.3.67-.67s-.3-.67-.67-.67h-4.73c-.37,0-.67.3-.67.67s.3.67.67.67h0ZM19.41,17.67h2.6c.37,0,.67.3.67.67v1.84c0,.37-.3.67-.67.67h-2.6c-.37,0-.67-.3-.67-.67v-1.84c0-.37.3-.67.67-.67Z"/>
  </g>
</svg>