<?xml version="1.0" encoding="UTF-8"?>
<svg id="Layer_2" data-name="Layer 2" xmlns="http://www.w3.org/2000/svg" viewBox="0 0 28.44 22.06">
  <defs>
    <style>
      .cls-1 {
        fill: #fff;
        fill-rule: evenodd;
      }
    </style>
  </defs>
  <g id="Layer_1-2" data-name="Layer 1">
    <path class="cls-1" d="M15.02,7.17l13.19,7.61c.22.13.3.41.17.64l-3.7,6.41c-.13.22-.41.3-.64.17l-13.19-7.61-3.73,6.47c-.05.09-.14.16-.24.2-.24.09-.51-.04-.6-.28L.03,3.75s-.02-.06-.02-.09c-.04-.25.13-.49.38-.54L18.24.01c.11-.03.23-.01.34.05.22.13.3.41.17.64l-3.73,6.47Z"/>
  </g>
</svg>