<?xml version="1.0" encoding="UTF-8"?>
<svg id="Layer_2" data-name="Layer 2" xmlns="http://www.w3.org/2000/svg" viewBox="0 0 71.18 72.63">
  <g id="Layer_1-2" data-name="Layer 1">
    <g>
      <path d="M35.32,53.52c-4.72,0-9.16-1.84-12.5-5.18-.92-.92-1.75-1.97-2.49-3.13-.74-1.17-.39-2.71.77-3.45,1.16-.74,2.71-.39,3.45.77.54.85,1.14,1.61,1.8,2.27,2.39,2.39,5.58,3.71,8.96,3.71s6.57-1.32,8.96-3.71l18.19-18.17c2.39-2.41,3.72-5.6,3.72-8.97s-1.32-6.56-3.72-8.98c-4.93-4.93-12.98-4.93-17.95.01l-4.86,4.88c-.98.98-2.56.98-3.54,0-.98-.97-.98-2.56,0-3.54l4.86-4.89c6.92-6.89,18.14-6.89,25.03,0,3.34,3.37,5.18,7.81,5.18,12.51s-1.84,9.14-5.17,12.5l-18.2,18.17c-3.34,3.34-7.78,5.17-12.5,5.17Z"/>
      <path d="M17.68,72.63c-4.72,0-9.16-1.84-12.5-5.18-3.34-3.31-5.18-7.76-5.18-12.51s1.84-9.17,5.18-12.51l18.17-18.17c6.9-6.87,18.12-6.87,25.02,0,.95.95,1.79,2.01,2.49,3.17.72,1.18.35,2.72-.83,3.44-1.18.72-2.72.35-3.44-.83-.5-.81-1.09-1.56-1.75-2.23-4.95-4.93-13-4.93-17.95,0l-18.16,18.16c-2.4,2.4-3.72,5.58-3.72,8.97s1.32,6.59,3.71,8.97c2.4,2.4,5.58,3.72,8.97,3.72s6.57-1.32,8.96-3.71l4.89-4.89c.98-.98,2.56-.98,3.54,0,.98.98.98,2.56,0,3.54l-4.89,4.89c-3.34,3.34-7.78,5.18-12.5,5.18Z"/>
    </g>
  </g>
</svg>