<?xml version="1.0" encoding="UTF-8"?>
<svg id="Layer_2" data-name="Layer 2" xmlns="http://www.w3.org/2000/svg" viewBox="0 0 20.24 23.69">
  <defs>
    <style>
      .cls-1 {
        fill: #fff;
        fill-rule: evenodd;
      }
    </style>
  </defs>
  <g id="Layer_1-2" data-name="Layer 1">
    <path class="cls-1" d="M19.57,6.53H.67c-.37,0-.67-.3-.67-.67v-.85c0-.72.29-1.38.76-1.87l.04-.04c.49-.49,1.17-.79,1.91-.79h3.84c.08-.51.27-.98.54-1.36l.03-.05c.42-.56,1.01-.91,1.68-.91h2.64c.67,0,1.26.35,1.68.91h0c.29.39.49.87.57,1.41h3.84c.74,0,1.42.3,1.91.79h0c.49.49.79,1.17.79,1.91v.85c0,.37-.3.67-.67.67h0ZM8.79,15.77c.37,0,.67.3.67.67s-.3.67-.67.67h-2.75c-.37,0-.67-.3-.67-.67,0-.14.04-.27.11-.37l1.31-2.27c.18-.32.59-.43.91-.24.32.18.43.59.24.91l-.76,1.31h1.59ZM9.41,11.92c-.18.32-.59.43-.91.24-.32-.18-.43-.59-.25-.91l1.28-2.22c.18-.32.59-.43.91-.24.11.06.19.15.25.25l1.32,2.29c.18.32.07.72-.24.91-.32.18-.72.07-.91-.24l-.75-1.29-.71,1.23h0ZM12.27,14.43c-.18-.32-.08-.72.24-.91.32-.18.72-.08.91.24l1.35,2.34c.18.32.08.72-.24.91-.11.06-.22.09-.33.09h0s-2.76,0-2.76,0c-.37,0-.67-.3-.67-.67s.3-.67.67-.67h1.61l-.77-1.34h0ZM18.65,7.2H1.59l1.34,12.24c.13,1.18.63,2.26,1.4,3.04.75.75,1.75,1.21,2.91,1.21h5.75c1.16,0,2.16-.47,2.91-1.22.77-.77,1.28-1.86,1.41-3.04l1.34-12.24Z"/>
  </g>
</svg>