<?xml version="1.0" encoding="UTF-8"?>
<svg id="Layer_2" data-name="Layer 2" xmlns="http://www.w3.org/2000/svg" viewBox="0 0 32.6 32.04">
  <defs>
    <style>
      .cls-1 {
        fill: #fff;
        fill-rule: evenodd;
      }
    </style>
  </defs>
  <g id="Layer_1-2" data-name="Layer 1">
    <path class="cls-1" d="M9.18,10.26l-.5-.54c-.55-.6-.5-1.54.1-2.09l1.09-.99c.6-.55,1.54-.5,2.09.1l.5.54,7.31,8.04c.53.59.51,1.49-.05,2.04l-8.04,8c-.58.57-1.52.57-2.09,0l-1.03-1.04c-.57-.58-.57-1.52,0-2.09l5.04-5.01c.56-.56.58-1.46.05-2.04l-4.46-4.91h0ZM.43,14.98c-.58.58-.58,1.52,0,2.09l3.13,3.13c.58.58,1.52.58,2.09,0l3.13-3.13c.58-.58.58-1.52,0-2.09l-3.13-3.13c-.58-.58-1.52-.58-2.09,0L.43,14.98H.43ZM15.74,4.01l10.35,11.4c.53.59.51,1.49-.05,2.04l-11.09,11.03c-.58.57-.58,1.51,0,2.09l1.03,1.04c.57.58,1.51.58,2.09,0l14.09-14.01c.56-.56.58-1.46.05-2.04L19.02,1.03l-.5-.54c-.55-.6-1.49-.65-2.09-.1l-1.09.99c-.6.55-.65,1.49-.1,2.09l.5.54Z"/>
  </g>
</svg>