<?xml version="1.0" encoding="UTF-8"?>
<svg id="Layer_2" data-name="Layer 2" xmlns="http://www.w3.org/2000/svg" viewBox="0 0 23.78 23.78">
  <defs>
    <style>
      .cls-1 {
        fill: #fff;
        fill-rule: evenodd;
      }
    </style>
  </defs>
  <g id="Layer_1-2" data-name="Layer 1">
    <path class="cls-1" d="M11.89,0c6.57,0,11.89,5.32,11.89,11.89s-5.32,11.89-11.89,11.89S0,18.45,0,11.89,5.32,0,11.89,0h0ZM13.81,19.9c-.32.08-.66.15-1.02.19-.34.04-.69.07-1.04.07-2.28,0-4.35-.93-5.85-2.42-1.5-1.5-2.42-3.56-2.42-5.85s.93-4.35,2.42-5.85,3.56-2.42,5.85-2.42,4.35.93,5.85,2.42c1.5,1.5,2.42,3.56,2.42,5.85,0,.28-.01.54-.04.79v.05s-.33-.57-.33-.57c-.14-.25-.46-.33-.71-.19-.25.14-.33.46-.19.71l.98,1.7c.14.25.46.33.71.19l1.7-.98c.25-.14.33-.46.19-.71-.14-.25-.46-.33-.71-.19l-.63.36c.01-.09.02-.18.03-.27.03-.3.04-.6.04-.89,0-2.57-1.04-4.9-2.73-6.59-1.69-1.69-4.01-2.73-6.59-2.73s-4.9,1.04-6.59,2.73c-1.69,1.69-2.73,4.01-2.73,6.59s1.04,4.9,2.73,6.59c1.69,1.69,4.01,2.73,6.59,2.73.4,0,.79-.02,1.17-.07.38-.05.77-.12,1.15-.22.28-.07.45-.35.38-.63-.07-.28-.35-.45-.63-.38h0ZM15.23,18.92c.05-.08.1-.14.15-.2.11-.14.33-.33.63-.59.31-.25.53-.44.66-.55.13-.12.26-.28.38-.49.13-.21.19-.44.19-.69,0-.16-.03-.32-.09-.47-.06-.15-.14-.28-.25-.4-.11-.11-.23-.2-.38-.27-.22-.1-.49-.15-.8-.15-.26,0-.49.04-.68.11-.19.08-.35.18-.48.3-.13.12-.22.26-.28.42-.06.15-.09.3-.09.44,0,.12.03.21.1.28.07.07.15.1.25.1.12,0,.2-.04.26-.11.06-.07.11-.18.16-.32.05-.14.08-.22.1-.25.15-.24.36-.35.63-.35.13,0,.24.03.35.09.11.06.19.14.25.24.06.1.09.22.09.35,0,.12-.03.24-.09.37-.06.13-.14.25-.26.37-.11.12-.25.24-.42.36-.09.06-.25.2-.47.4-.22.2-.46.44-.74.73-.06.07-.13.17-.18.29-.06.12-.08.22-.08.29,0,.12.04.21.13.3.09.08.21.13.36.13h2.26c.13,0,.24-.03.3-.1.07-.07.1-.16.1-.25,0-.11-.04-.2-.13-.27-.08-.07-.2-.1-.36-.1h-1.6ZM19.76,19.25c0,.15.04.27.11.35.07.08.16.12.28.12s.21-.04.28-.12c.07-.08.1-.19.1-.35v-.57h.19c.15,0,.27-.03.35-.08.08-.05.12-.14.12-.26,0-.14-.05-.24-.14-.28-.1-.04-.22-.06-.38-.06h-.13v-2.37c0-.36-.15-.53-.47-.53-.1,0-.18.03-.25.1-.07.06-.16.17-.26.31l-1.62,2.17c-.05.06-.08.11-.11.15-.03.04-.06.08-.09.13-.03.04-.05.09-.06.13-.01.04-.02.08-.02.12,0,.15.05.27.15.36s.24.13.44.13h1.54v.57h0ZM18.44,18h1.32v-1.78l-1.32,1.78h0ZM11.28,6.41v5.19l-3.93,2.41c-.25.15-.32.47-.17.72.15.25.47.32.72.17l4.16-2.56c.16-.09.26-.26.26-.45v-5.48c0-.29-.23-.52-.52-.52s-.52.23-.52.52Z"/>
  </g>
</svg>