<?xml version="1.0" encoding="UTF-8"?>
<svg id="Layer_2" data-name="Layer 2" xmlns="http://www.w3.org/2000/svg" viewBox="0 0 30.12 21.39">
  <defs>
    <style>
      .cls-1 {
        fill: #fff;
        fill-rule: evenodd;
      }
    </style>
  </defs>
  <g id="Layer_1-2" data-name="Layer 1">
    <path class="cls-1" d="M10.7,21.39c1.29,0,2.53-.23,3.67-.65.08-.03.15-.06.22-.1l14.87-8.8c.42-.25.65-.66.65-1.15s-.24-.9-.65-1.15L14.51.7c-.73-.43-2.93-.7-3.82-.7C4.79,0,0,4.79,0,10.7s4.79,10.7,10.7,10.7h0ZM10.7,15.94c-2.9,0-5.25-2.35-5.25-5.25s2.35-5.25,5.25-5.25,5.25,2.35,5.25,5.25-2.35,5.25-5.25,5.25Z"/>
  </g>
</svg>