<?xml version="1.0" encoding="UTF-8"?>
<svg id="Layer_2" data-name="Layer 2" xmlns="http://www.w3.org/2000/svg" viewBox="0 0 23.78 23.78">
  <defs>
    <style>
      .cls-1 {
        fill: #fff;
        fill-rule: evenodd;
      }
    </style>
  </defs>
  <g id="Layer_1-2" data-name="Layer 1">
    <path class="cls-1" d="M11.89,0c6.57,0,11.89,5.32,11.89,11.89s-5.32,11.89-11.89,11.89S0,18.45,0,11.89,5.32,0,11.89,0h0ZM15.95,20.72l-.19.72c-.08.31.1.62.41.7.31.08.62-.1.7-.41l.56-2.09c.08-.31-.1-.62-.41-.7l-2.09-.56c-.31-.08-.62.1-.7.41-.08.31.1.62.41.7l.77.21c-.42.21-.86.38-1.32.51-.77.23-1.59.35-2.44.35-2.37,0-4.51-.96-6.06-2.51s-2.51-3.7-2.51-6.06c0-.85.12-1.67.35-2.44.24-.8.59-1.55,1.03-2.23.17-.27.1-.62-.17-.79-.27-.17-.62-.1-.79.17-.5.78-.9,1.63-1.17,2.53-.26.88-.4,1.81-.4,2.76,0,2.69,1.09,5.12,2.85,6.88,1.76,1.76,4.19,2.85,6.88,2.85.96,0,1.88-.14,2.76-.4.53-.16,1.04-.36,1.53-.6h0ZM8.6,13.89c.06-.1.13-.18.19-.25.14-.17.41-.42.79-.73.38-.31.66-.55.82-.69.16-.15.32-.35.48-.61.16-.26.24-.55.24-.87,0-.2-.04-.4-.11-.58-.07-.19-.18-.35-.32-.5-.13-.14-.29-.26-.47-.34-.28-.12-.61-.18-1-.18-.32,0-.61.05-.85.14-.24.1-.44.22-.6.38-.16.16-.28.33-.35.52-.08.19-.12.38-.12.55,0,.15.04.26.13.35.08.08.19.13.32.13.15,0,.26-.05.33-.14.08-.09.14-.22.2-.4.06-.17.1-.28.13-.31.19-.29.45-.44.79-.44.16,0,.31.04.44.11.13.07.24.17.32.3.08.13.12.28.12.44,0,.15-.04.31-.11.46-.07.16-.18.31-.32.46-.14.15-.31.3-.52.45-.12.08-.31.25-.59.5-.27.25-.58.56-.92.91-.08.09-.16.21-.23.36-.07.15-.1.27-.1.37,0,.14.05.27.16.37.11.11.26.16.45.16h2.82c.17,0,.29-.04.38-.13.08-.09.12-.19.12-.32,0-.14-.05-.25-.16-.33-.1-.08-.26-.12-.46-.12h-2ZM14.26,14.31c0,.19.04.34.13.43.09.1.2.15.35.15s.26-.05.35-.14c.09-.1.13-.24.13-.44v-.71h.23c.19,0,.34-.03.44-.1.1-.07.15-.18.15-.32,0-.18-.06-.3-.18-.35-.12-.05-.28-.08-.47-.08h-.16v-2.97c0-.45-.19-.67-.58-.67-.12,0-.22.04-.31.12-.09.08-.2.21-.33.39l-2.03,2.72c-.06.07-.1.14-.14.19-.04.05-.08.1-.11.16-.04.05-.06.11-.08.16-.02.05-.03.1-.03.15,0,.19.06.34.18.45.12.11.3.16.55.16h1.93v.71h0ZM12.61,12.74h1.65v-2.23l-1.65,2.23h0ZM8.48,1.44l-1.08,1.87c-.16.27-.07.63.21.79l1.87,1.08c.27.16.63.06.78-.21s.06-.62-.21-.78l-.75-.43c.2-.06.4-.11.6-.15.56-.12,1.15-.18,1.76-.18,2.37,0,4.51.96,6.06,2.51,1.55,1.55,2.51,3.7,2.51,6.06,0,.6-.06,1.19-.18,1.75-.12.58-.3,1.14-.53,1.68-.13.29,0,.63.3.76.29.13.63,0,.76-.3.27-.61.47-1.25.6-1.9.14-.65.21-1.32.21-1.99,0-2.69-1.09-5.12-2.85-6.88-1.76-1.76-4.19-2.85-6.88-2.85-.68,0-1.34.07-1.99.21-.18.04-.36.08-.53.13l.34-.59c.16-.27.07-.63-.21-.78-.27-.16-.63-.07-.78.21Z"/>
  </g>
</svg>