<?xml version="1.0" encoding="UTF-8"?>
<svg id="Layer_2" data-name="Layer 2" xmlns="http://www.w3.org/2000/svg" viewBox="0 0 27.34 26.07">
  <defs>
    <style>
      .cls-1 {
        fill: #fff;
        fill-rule: evenodd;
      }
    </style>
  </defs>
  <g id="Layer_1-2" data-name="Layer 1">
    <path class="cls-1" d="M14.32.53l2.18,9.91,10.11-.99c.37-.03.69.23.72.6.03.27-.12.52-.34.65l-8.74,5.13,4.06,9.31c.15.34,0,.73-.34.87-.25.11-.54.05-.73-.13l-7.58-6.72-7.6,6.74c-.27.24-.69.22-.94-.06-.18-.2-.21-.48-.11-.71l4.06-9.31L.33,10.69c-.32-.19-.42-.59-.24-.91.13-.23.39-.35.64-.33l10.11.99L13.02.52c.08-.36.43-.59.79-.51.27.06.46.27.51.52Z"/>
  </g>
</svg>