<?xml version="1.0" encoding="UTF-8"?>
<svg id="Layer_2" data-name="Layer 2" xmlns="http://www.w3.org/2000/svg" viewBox="0 0 27.08 18.67">
  <defs>
    <style>
      .cls-1 {
        fill: #fff;
        fill-rule: evenodd;
      }
    </style>
  </defs>
  <g id="Layer_1-2" data-name="Layer 1">
    <path class="cls-1" d="M1.35,0h22.22l-11.08,7.39L1.35,0h0ZM23.48,12.3h2.93c.37,0,.67-.3.67-.67,0-.19-.08-.35-.2-.48l-6.36-6.36c-.26-.26-.68-.26-.94,0l-6.37,6.37c-.26.26-.26.68,0,.94.13.13.3.2.47.2h2.93v5.7c0,.37.3.67.67.67h5.54c.37,0,.67-.3.67-.67v-5.7h0ZM24.97.67l-4.91,3.27c.34,0,.67.13.93.39l3.98,3.98V.67h0ZM18.37,5.06l-5.5,3.67c-.22.15-.51.16-.75,0L0,.7v14.92l8.6-6.72c.29-.23.71-.17.93.11.23.29.17.71-.11.93L1.2,16.37h14.75v-3.4h-2.27c-.17,0-.35-.04-.51-.1-.16-.07-.31-.16-.43-.29-.26-.26-.39-.6-.39-.94s.13-.68.39-.94l5.63-5.63h0ZM24.97,12.97v2.74c0,.37-.3.67-.67.67h-.15v-3.4h.82Z"/>
  </g>
</svg>