<?xml version="1.0" encoding="UTF-8"?>
<svg id="Layer_2" data-name="Layer 2" xmlns="http://www.w3.org/2000/svg" viewBox="0 0 69.82 70.62">
  <g id="Layer_1-2" data-name="Layer 1">
    <g>
      <path d="M24.61,46.56h-6.06C8.32,46.56,0,38.25,0,28.02v-10C0,9.55,5.71,2.18,13.89.08c1.33-.34,2.7.46,3.04,1.8.34,1.34-.46,2.7-1.8,3.04-5.96,1.53-10.13,6.92-10.13,13.09v10c0,7.47,6.08,13.54,13.54,13.54h6.06c7.47,0,13.54-6.08,13.54-13.54v-10c0-6.18-4.17-11.56-10.13-13.09-1.34-.34-2.14-1.71-1.8-3.04.34-1.34,1.71-2.14,3.04-1.8,8.18,2.1,13.89,9.47,13.89,17.94v10c0,10.23-8.32,18.54-18.54,18.54Z"/>
      <path d="M40.82,70.62c-11.99,0-21.74-9.75-21.74-21.74v-4.81c0-1.38,1.12-2.5,2.5-2.5s2.5,1.12,2.5,2.5v4.81c0,9.23,7.51,16.74,16.74,16.74s16.74-7.51,16.74-16.74v-15.82c0-1.38,1.12-2.5,2.5-2.5s2.5,1.12,2.5,2.5v15.82c0,11.99-9.75,21.74-21.74,21.74Z"/>
      <path d="M60.06,35.56c-5.38,0-9.76-4.38-9.76-9.76s4.38-9.76,9.76-9.76,9.76,4.38,9.76,9.76-4.38,9.76-9.76,9.76ZM60.06,21.04c-2.62,0-4.76,2.13-4.76,4.76s2.13,4.76,4.76,4.76,4.76-2.13,4.76-4.76-2.13-4.76-4.76-4.76Z"/>
    </g>
  </g>
</svg>