<?xml version="1.0" encoding="UTF-8"?>
<svg id="Layer_2" data-name="Layer 2" xmlns="http://www.w3.org/2000/svg" viewBox="0 0 32.89 8.77">
  <defs>
    <style>
      .cls-1 {
        fill: #fff;
        fill-rule: evenodd;
      }
    </style>
  </defs>
  <g id="Layer_1-2" data-name="Layer 1">
    <path class="cls-1" d="M23.07.36l-3.19,2.94c-.26.24-.56.35-.9.35h-10.66c-.54,0-1-.3-1.21-.79-.19-.41-.44-.79-.77-1.11-.7-.7-1.64-1.09-2.63-1.09s-1.93.39-2.63,1.09-1.09,1.64-1.09,2.63.39,1.93,1.09,2.63,1.64,1.09,2.63,1.09,1.93-.39,2.63-1.09c.32-.32.58-.7.77-1.11.22-.49.68-.79,1.22-.79h10.66c.35,0,.65.12.9.35l3.19,2.94c.39.36.91.45,1.4.26l7.58-3.05c.51-.21.83-.68.83-1.24s-.32-1.03-.83-1.24L24.48.1c-.49-.2-1.01-.1-1.4.26h0ZM5.26,2.84c.41.41.64.96.64,1.54s-.23,1.13-.64,1.55c-.41.41-.96.64-1.54.64s-1.13-.23-1.55-.64c-.41-.41-.64-.96-.64-1.54s.23-1.13.64-1.54c.41-.41.96-.64,1.55-.64s1.13.23,1.54.64Z"/>
  </g>
</svg>