<?xml version="1.0" encoding="UTF-8"?>
<svg id="Layer_2" data-name="Layer 2" xmlns="http://www.w3.org/2000/svg" viewBox="0 0 29.48 29.29">
  <defs>
    <style>
      .cls-1 {
        fill: #fff;
        fill-rule: evenodd;
      }
    </style>
  </defs>
  <g id="Layer_1-2" data-name="Layer 1">
    <path class="cls-1" d="M5.7,9.61h0c.17,0,.36,0,.56.03h.04c.56-1.06,1.39-1.97,2.4-2.62,1.11-.73,2.44-1.15,3.87-1.15,1.76,0,3.37.64,4.61,1.71,1.14.98,1.97,2.32,2.31,3.84,1,.24,1.87.79,2.53,1.53.75.86,1.21,1.98,1.21,3.19,0,1.34-.55,2.56-1.43,3.44-.89.88-2.11,1.43-3.45,1.43h0c-.77,0-5.3,0-8.8,0-1.96,0-3.59,0-4.06-.01-1.5-.02-2.86-.69-3.84-1.72-1.01-1.05-1.63-2.48-1.63-3.97,0-1.57.64-2.99,1.67-4.03,1.03-1.03,2.46-1.67,4.03-1.67h0ZM12.88,26.94c0-.37.3-.67.67-.67s.67.3.67.67c0,.28.11.53.3.72h0c.18.18.44.3.72.3s.53-.11.72-.3h0c.18-.18.3-.44.3-.72s-.11-.53-.3-.72l-.03-.03c-.18-.17-.42-.27-.69-.27h-.06s-3.42,0-3.42,0c-.37,0-.66-.3-.66-.66s.3-.66.66-.66h3.48c.63,0,1.2.24,1.62.65l.04.04c.42.42.69,1.01.69,1.66s-.26,1.23-.69,1.66h0c-.42.42-1.01.69-1.66.69s-1.23-.26-1.66-.69h0c-.42-.43-.69-1.01-.69-1.66h0ZM9.82,23.82c.52.95,1.05,1.92,1.05,2.78h0c0,.94-.57,1.54-1.3,1.79-.26.09-.54.14-.82.13-.28,0-.56-.05-.82-.15-.72-.27-1.27-.86-1.25-1.79.01-.89.59-1.94,1.13-2.93.12-.22.24-.44.37-.7.06-.12.16-.23.3-.29.33-.16.73-.03.89.3.14.29.3.57.45.85h0ZM5.09,23.82c.52.95,1.05,1.92,1.05,2.78h0c0,.94-.57,1.54-1.3,1.79-.26.09-.54.14-.82.13-.28,0-.56-.05-.82-.15-.72-.27-1.27-.86-1.25-1.79.01-.89.59-1.94,1.13-2.93.12-.22.24-.45.38-.7.06-.12.16-.23.3-.29.33-.16.73-.03.89.3.14.29.3.57.45.85h0ZM18.82,25.4c.1.56.4,1.04.82,1.39.41.34.94.55,1.51.55.65,0,1.25-.27,1.67-.69.43-.43.69-1.02.69-1.67s-.27-1.25-.69-1.67c-.43-.43-1.02-.69-1.67-.69h-.06s-6.7,0-6.7,0c-.37,0-.66.3-.66.66s.3.66.66.66h6.76c.29,0,.55.12.73.31.19.19.3.45.3.73s-.12.55-.3.73-.45.3-.73.3c-.25,0-.49-.09-.66-.24-.18-.15-.31-.37-.36-.61-.07-.36-.41-.6-.77-.53-.36.07-.6.41-.53.77h0ZM19.19,4.95c-.8,0-1.57.18-2.26.5-.33.15-.64.34-.93.55.58.29,1.13.65,1.61,1.07.63.54,1.17,1.18,1.61,1.9.35.59.63,1.23.82,1.91.41.13.81.31,1.17.54.49.3.93.67,1.3,1.1.31.36.58.75.79,1.18.26-.31.48-.65.66-1.01.36-.72.57-1.54.57-2.39,0-1.48-.6-2.81-1.57-3.78-.97-.97-2.3-1.57-3.78-1.57h0ZM25.52,3.01c.26-.26.68-.26.94,0,.26.26.26.68,0,.94l-1.9,1.9c-.26.26-.68.26-.94,0-.26-.26-.26-.68,0-.94l1.9-1.9h0ZM28.81,9.62c.37,0,.67.3.67.67s-.3.67-.67.67h-2.69c-.37,0-.67-.3-.67-.67s.3-.67.67-.67h2.69ZM26.46,16.62c.26.26.26.68,0,.94-.26.26-.68.26-.94,0l-1.64-1.64c-.02-.43-.09-.85-.2-1.26.26-.2.64-.19.88.05l1.9,1.9h0ZM11.91,3.96c-.26-.26-.26-.68,0-.94s.68-.26.94,0l1.9,1.9c.18.18.23.43.17.66-.56-.18-1.14-.29-1.74-.34l-1.27-1.27h0ZM18.52.67c0-.37.3-.67.67-.67s.67.3.67.67v2.69c0,.37-.3.67-.67.67s-.67-.3-.67-.67V.67Z"/>
  </g>
</svg>