<?xml version="1.0" encoding="UTF-8"?>
<svg id="Layer_2" data-name="Layer 2" xmlns="http://www.w3.org/2000/svg" viewBox="0 0 29.57 18.15">
  <defs>
    <style>
      .cls-1 {
        fill: #fff;
        fill-rule: evenodd;
      }
    </style>
  </defs>
  <g id="Layer_1-2" data-name="Layer 1">
    <path class="cls-1" d="M15.81.19l13.1,7.74c.42.25.65.66.65,1.15,0,.48-.24.9-.65,1.15l-13.1,7.74c-.52.31-1.15.24-1.59-.17-.44-.41-.55-1.03-.28-1.57l3.29-6.54c.2-.39.2-.81,0-1.2l-3.29-6.54c-.27-.54-.16-1.16.28-1.57.44-.41,1.07-.48,1.59-.17h0ZM2.01.19C1.5-.12.86-.05.43.36-.01.77-.12,1.4.15,1.93l3.29,6.54c.2.39.2.81,0,1.2L.15,16.22c-.27.54-.16,1.16.28,1.57.44.41,1.07.48,1.59.17l13.1-7.74c.42-.25.65-.66.65-1.15,0-.48-.24-.9-.65-1.15L2.01.19Z"/>
  </g>
</svg>