<?xml version="1.0" encoding="UTF-8"?>
<svg id="Layer_2" data-name="Layer 2" xmlns="http://www.w3.org/2000/svg" viewBox="0 0 33.31 17.47">
  <defs>
    <style>
      .cls-1 {
        fill: #fff;
        fill-rule: evenodd;
      }
    </style>
  </defs>
  <g id="Layer_1-2" data-name="Layer 1">
    <path class="cls-1" d="M5.63,15.4h14.36c.63,0,1.16.42,1.3,1.04.06.28.22.53.45.73.48.4,1.16.42,1.66.04l9.4-7.17c.34-.26.52-.63.52-1.06s-.18-.8-.52-1.06L22.77.28c-.4-.31-.91-.36-1.37-.15-.46.22-.74.64-.77,1.15-.01.22-.08.44-.2.64-.25.41-.66.63-1.13.63H5.63v.05C2.47,2.99,0,5.71,0,8.97h0c0,3.26,2.47,5.98,5.63,6.38v.05h0ZM6.43,5.77h0c1.76,0,3.2,1.44,3.2,3.2h0c0,1.76-1.44,3.2-3.2,3.2h0c-1.76,0-3.2-1.44-3.2-3.2h0c0-1.76,1.44-3.2,3.2-3.2Z"/>
  </g>
</svg>