<?xml version="1.0" encoding="UTF-8"?>
<svg id="Layer_2" data-name="Layer 2" xmlns="http://www.w3.org/2000/svg" viewBox="0 0 65.26 63.34">
  <g id="Layer_1-2" data-name="Layer 1">
    <g>
      <path d="M32.64,21.16c-5.83,0-10.58-4.75-10.58-10.58S26.8,0,32.64,0s10.58,4.75,10.58,10.58-4.75,10.58-10.58,10.58ZM32.64,5c-3.08,0-5.58,2.5-5.58,5.58s2.5,5.58,5.58,5.58,5.58-2.5,5.58-5.58-2.5-5.58-5.58-5.58Z"/>
      <path d="M46.82,42.25c-5.83,0-10.58-4.75-10.58-10.58s4.75-10.58,10.58-10.58,10.58,4.75,10.58,10.58-4.75,10.58-10.58,10.58ZM46.82,26.09c-3.08,0-5.58,2.5-5.58,5.58s2.5,5.58,5.58,5.58,5.58-2.5,5.58-5.58-2.5-5.58-5.58-5.58Z"/>
      <path d="M62.76,13.09h-22.04c-1.38,0-2.5-1.12-2.5-2.5s1.12-2.5,2.5-2.5h22.04c1.38,0,2.5,1.12,2.5,2.5s-1.12,2.5-2.5,2.5Z"/>
      <path d="M24.56,13.09H2.5c-1.38,0-2.5-1.12-2.5-2.5s1.12-2.5,2.5-2.5h22.06c1.38,0,2.5,1.12,2.5,2.5s-1.12,2.5-2.5,2.5Z"/>
      <path d="M62.76,34.18h-7.86c-1.38,0-2.5-1.12-2.5-2.5s1.12-2.5,2.5-2.5h7.86c1.38,0,2.5,1.12,2.5,2.5s-1.12,2.5-2.5,2.5Z"/>
      <path d="M38.74,34.18H2.5c-1.38,0-2.5-1.12-2.5-2.5s1.12-2.5,2.5-2.5h36.24c1.38,0,2.5,1.12,2.5,2.5s-1.12,2.5-2.5,2.5Z"/>
      <path d="M18.46,63.34c-5.83,0-10.58-4.75-10.58-10.58s4.75-10.58,10.58-10.58,10.58,4.75,10.58,10.58-4.75,10.58-10.58,10.58ZM18.46,47.18c-3.08,0-5.58,2.5-5.58,5.58s2.5,5.58,5.58,5.58,5.58-2.5,5.58-5.58-2.5-5.58-5.58-5.58Z"/>
      <path d="M10.38,55.25H2.5c-1.38,0-2.5-1.12-2.5-2.5s1.12-2.5,2.5-2.5h7.88c1.38,0,2.5,1.12,2.5,2.5s-1.12,2.5-2.5,2.5Z"/>
      <path d="M62.76,55.25H26.54c-1.38,0-2.5-1.12-2.5-2.5s1.12-2.5,2.5-2.5h36.21c1.38,0,2.5,1.12,2.5,2.5s-1.12,2.5-2.5,2.5Z"/>
    </g>
  </g>
</svg>