<?xml version="1.0" encoding="UTF-8"?>
<svg id="Layer_2" data-name="Layer 2" xmlns="http://www.w3.org/2000/svg" viewBox="0 0 25.8 25.72">
  <defs>
    <style>
      .cls-1 {
        fill: #fff;
        fill-rule: evenodd;
      }
    </style>
  </defs>
  <g id="Layer_1-2" data-name="Layer 1">
    <path class="cls-1" d="M21.18,8.74l-.28.26,2.77,12.66c.05.25-.03.5-.2.67l-1.42,1.42c-.28.28-.75.28-1.03,0-.08-.08-.13-.17-.17-.26l-3.91-8.31-1.21-1.2c-.86.84-1.66,1.61-2.5,2.35-.9.79-1.83,1.54-2.89,2.3l.9,5.3c.04.24-.04.47-.2.63l-.95.95c-.28.28-.75.28-1.03,0-.07-.07-.12-.15-.16-.24l-2.16-4.37-.63.35c-.44.25-.93.51-1.45.78-.36.19-.79.05-.98-.31-.11-.22-.11-.47,0-.67.27-.52.53-1,.78-1.45l.35-.63L.41,16.79c-.36-.18-.51-.61-.33-.97.04-.07.08-.14.14-.19l.95-.95c.18-.18.44-.25.68-.19l5.26.89c.76-1.06,1.51-1.99,2.3-2.89.74-.84,1.51-1.64,2.35-2.5l-1.2-1.21L2.18,4.85c-.36-.17-.52-.6-.35-.97.04-.08.09-.15.14-.21h0s1.42-1.42,1.42-1.42c.19-.19.46-.25.7-.19l12.63,2.76c.19-.2.37-.39.56-.59,2.71-2.79,4.93-5.08,7.79-3.93.17.07.3.19.37.33h0c1.49,2.8-2.11,6.11-3.79,7.65-.2.18-.36.34-.47.44h-.01Z"/>
  </g>
</svg>