<?xml version="1.0" encoding="UTF-8"?>
<svg id="Layer_2" data-name="Layer 2" xmlns="http://www.w3.org/2000/svg" viewBox="0 0 1383 114">
  <g id="_Layer_" data-name="&amp;lt;Layer&amp;gt;">
    <g>
      <path d="M114,57c0,31.48-25.52,57-57,57S0,88.48,0,57,25.52,0,57,0s57,25.52,57,57"/>
      <path d="M1101,57c0,31.48-25.52,57-57,57s-57-25.52-57-57S1012.52,0,1044,0s57,25.52,57,57"/>
      <path d="M960,57c0,31.48-25.52,57-57,57s-57-25.52-57-57S871.52,0,903,0s57,25.52,57,57"/>
      <path d="M1383,57c0,31.48-25.52,57-57,57s-57-25.52-57-57S1294.52,0,1326,0s57,25.52,57,57"/>
      <path d="M1242,57c0,31.48-25.52,57-57,57s-57-25.52-57-57S1153.52,0,1185,0s57,25.52,57,57"/>
      <path d="M819,57c0,31.48-25.52,57-57,57s-57-25.52-57-57S730.52,0,762,0s57,25.52,57,57"/>
      <path d="M678,57c0,31.48-25.52,57-57,57s-57-25.52-57-57S589.52,0,621,0s57,25.52,57,57"/>
      <path d="M537,57c0,31.48-25.52,57-57,57s-57-25.52-57-57S448.52,0,480,0s57,25.52,57,57"/>
      <path d="M396,57c0,31.48-25.52,57-57,57s-57-25.52-57-57S307.52,0,339,0s57,25.52,57,57"/>
      <path d="M255,57c0,31.48-25.52,57-57,57s-57-25.52-57-57S166.52,0,198,0s57,25.52,57,57"/>
    </g>
  </g>
</svg>