<?xml version="1.0" encoding="UTF-8"?>
<svg id="Layer_2" data-name="Layer 2" xmlns="http://www.w3.org/2000/svg" viewBox="0 0 26.5 21.9">
  <defs>
    <style>
      .cls-1 {
        fill: #fff;
        fill-rule: evenodd;
      }
    </style>
  </defs>
  <g id="Layer_1-2" data-name="Layer 1">
    <path class="cls-1" d="M0,12.71c0,.89.54,1.66,1.42,2.2.68.42,1.57.7,2.56.76l-1.3,3.23c-.08.19-.06.42.06.6.2.31.61.4.92.2l6.32-4.03h8.4c1.16,0,2.23-.3,3-.78.88-.54,1.42-1.32,1.42-2.2V2.98c0-.89-.54-1.66-1.42-2.2-.78-.48-1.84-.78-3-.78h0s-.09,0-.13.02L4.37,2.8c-1.14,0-2.18.3-2.95.78-.88.54-1.42,1.32-1.42,2.2v6.94h0ZM8.85,17.2l1.32-.84h8.21c.62,0,1.22-.08,1.78-.22h0c.59-.15,1.12-.37,1.57-.65.53-.33.96-.73,1.26-1.2.31-.47.47-1,.47-1.57v-4.16c.74.06,1.41.28,1.92.59.69.42,1.11,1.03,1.11,1.73v5.44c0,.7-.43,1.31-1.11,1.73-.53.33-1.24.55-2.01.6l1.02,2.54c.06.15.05.33-.04.47-.15.24-.48.31-.72.16l-4.96-3.16h-6.59c-.91,0-1.75-.23-2.36-.61-.38-.23-.68-.52-.87-.85h0ZM8.03,8.85c0,.68-.55,1.24-1.24,1.24s-1.24-.55-1.24-1.24.55-1.24,1.24-1.24,1.24.55,1.24,1.24h0ZM15.74,10.08c-.68,0-1.24-.55-1.24-1.24s.55-1.24,1.24-1.24,1.24.55,1.24,1.24-.55,1.24-1.24,1.24h0ZM11.27,10.08c-.68,0-1.24-.55-1.24-1.24s.55-1.24,1.24-1.24,1.24.55,1.24,1.24-.55,1.24-1.24,1.24Z"/>
  </g>
</svg>