<?xml version="1.0" encoding="UTF-8"?>
<svg id="Layer_2" data-name="Layer 2" xmlns="http://www.w3.org/2000/svg" viewBox="0 0 25.21 18.89">
  <defs>
    <style>
      .cls-1 {
        fill: #fff;
        fill-rule: evenodd;
      }
    </style>
  </defs>
  <g id="Layer_1-2" data-name="Layer 1">
    <path class="cls-1" d="M8.41,0c1.42,0,2.71.58,3.64,1.51.93.93,1.51,2.22,1.51,3.64s-.58,2.71-1.51,3.64c-.93.93-2.22,1.51-3.64,1.51s-2.71-.58-3.64-1.51c-.93-.93-1.51-2.22-1.51-3.64s.58-2.71,1.51-3.64c.93-.93,2.22-1.51,3.64-1.51h0ZM22.45,8.58c.85.62,1.54,1.44,2.02,2.38.47.92.74,1.96.74,3.06v.78c0,.46-.19.87-.49,1.18h0c-.3.31-.72.49-1.18.49h-5.45c-.37,0-.67-.3-.67-.67v-.05c-.02-.98-.2-1.94-.53-2.85-.34-.93-.82-1.8-1.45-2.58-.23-.29-.18-.7.1-.93.23-.18.55-.19.78-.04.31.17.65.31,1,.4.35.09.73.14,1.12.14.6,0,1.16-.12,1.68-.33.54-.22,1.02-.55,1.42-.95.25-.24.63-.26.89-.04h0ZM18.45,1.71c-1.05,0-2,.43-2.69,1.11-.69.69-1.11,1.64-1.11,2.69s.43,2,1.11,2.69,1.64,1.11,2.69,1.11,2-.43,2.69-1.11h0c.69-.69,1.11-1.64,1.11-2.69s-.43-2-1.11-2.69-1.64-1.11-2.69-1.11h0ZM13.37,9.18c-.26-.22-.65-.2-.89.04-.53.53-1.17.96-1.87,1.25-.67.28-1.42.43-2.2.43s-1.53-.15-2.2-.43c-.7-.29-1.34-.72-1.87-1.25-.23-.23-.59-.26-.86-.07-1.07.78-1.95,1.81-2.56,2.99-.59,1.15-.92,2.44-.92,3.8v1c0,.53.22,1.02.57,1.37.35.35.84.57,1.37.57h12.93c.51,0,.98-.2,1.33-.53l.04-.04c.35-.35.57-.84.57-1.37v-1c0-1.36-.33-2.66-.92-3.8-.6-1.17-1.47-2.19-2.53-2.97Z"/>
  </g>
</svg>