<?xml version="1.0" encoding="UTF-8"?>
<svg id="Layer_2" data-name="Layer 2" xmlns="http://www.w3.org/2000/svg" viewBox="0 0 32.59 9.27">
  <defs>
    <style>
      .cls-1 {
        fill: #fff;
        fill-rule: evenodd;
      }
    </style>
  </defs>
  <g id="Layer_1-2" data-name="Layer 1">
    <path class="cls-1" d="M0,0l3.33,3.75c.45.51.45,1.26,0,1.77l-3.33,3.75h2.67c.4,0,.73-.15,1-.45l2.84-3.2c.26-.3.6-.45,1-.45h20.34l-.07.18c-.21.53-.08,1.11.35,1.49.43.38,1.02.45,1.52.18l2.25-1.21c.44-.24.7-.67.7-1.17s-.26-.93-.7-1.17L26.39.49l.72,1.78c.17.42.12.87-.13,1.24-.26.38-.65.59-1.1.59H7.5c-.39,0-.73-.15-1-.45L3.67.45c-.26-.3-.6-.45-1-.45H0Z"/>
  </g>
</svg>