<?xml version="1.0" encoding="UTF-8"?>
<svg id="Layer_2" data-name="Layer 2" xmlns="http://www.w3.org/2000/svg" viewBox="0 0 160.6 160.54">
  <defs>
    <style>
      .cls-1 {
        fill: #080a16;
      }
    </style>
  </defs>
  <g id="Calque_1" data-name="Calque 1">
    <g>
      <polygon class="cls-1" points="24.18 0 16.42 0 16.42 16.41 0 16.41 0 24.18 16.42 24.18 16.42 40.59 24.18 40.59 24.18 24.18 40.59 24.18 40.59 16.41 24.18 16.41 24.18 0"/>
      <polygon class="cls-1" points="84.18 0 76.42 0 76.42 16.41 60 16.41 60 24.18 76.42 24.18 76.42 40.59 84.18 40.59 84.18 24.18 100.59 24.18 100.59 16.41 84.18 16.41 84.18 0"/>
      <polygon class="cls-1" points="144.18 16.41 144.18 0 136.42 0 136.42 16.41 120 16.41 120 24.18 136.42 24.18 136.42 40.59 144.18 40.59 144.18 24.18 160.6 24.18 160.6 16.41 144.18 16.41"/>
      <polygon class="cls-1" points="24.18 59.97 16.42 59.97 16.42 76.39 0 76.39 0 84.15 16.42 84.15 16.42 100.57 24.18 100.57 24.18 84.15 40.59 84.15 40.59 76.39 24.18 76.39 24.18 59.97"/>
      <polygon class="cls-1" points="84.18 59.97 76.42 59.97 76.42 76.39 60 76.39 60 84.15 76.42 84.15 76.42 100.57 84.18 100.57 84.18 84.15 100.59 84.15 100.59 76.39 84.18 76.39 84.18 59.97"/>
      <polygon class="cls-1" points="144.18 59.97 136.42 59.97 136.42 76.39 120 76.39 120 84.15 136.42 84.15 136.42 100.57 144.18 100.57 144.18 84.15 160.6 84.15 160.6 76.39 144.18 76.39 144.18 59.97"/>
      <polygon class="cls-1" points="24.18 119.95 16.42 119.95 16.42 136.36 0 136.36 0 144.12 16.42 144.12 16.42 160.54 24.18 160.54 24.18 144.12 40.59 144.12 40.59 136.36 24.18 136.36 24.18 119.95"/>
      <polygon class="cls-1" points="84.18 119.95 76.42 119.95 76.42 136.36 60 136.36 60 144.12 76.42 144.12 76.42 160.54 84.18 160.54 84.18 144.12 100.59 144.12 100.59 136.36 84.18 136.36 84.18 119.95"/>
      <polygon class="cls-1" points="144.18 119.95 136.42 119.95 136.42 136.36 120 136.36 120 144.12 136.42 144.12 136.42 160.54 144.18 160.54 144.18 144.12 160.6 144.12 160.6 136.36 144.18 136.36 144.18 119.95"/>
    </g>
  </g>
</svg>