<?xml version="1.0" encoding="UTF-8"?>
<svg id="Layer_2" data-name="Layer 2" xmlns="http://www.w3.org/2000/svg" viewBox="0 0 18.05 4.61">
  <defs>
    <style>
      .cls-1 {
        fill: #fff;
        fill-rule: evenodd;
      }
    </style>
  </defs>
  <g id="Layer_1-2" data-name="Layer 1">
    <path class="cls-1" d="M16.16.28l1.42,1.09c.3.23.47.56.47.94s-.16.71-.47.94l-1.42,1.09c-.49.37-1.14.37-1.62,0-.48-.37-.65-1-.42-1.56.06-.14.09-.29.09-.46s-.03-.32-.09-.46c-.23-.56-.07-1.19.42-1.56.48-.37,1.13-.37,1.62,0h0ZM2.14.28l1.42,1.09c.3.23.47.56.47.94s-.16.71-.47.94l-1.42,1.09c-.49.37-1.14.37-1.62,0S-.13,3.33.1,2.76c.06-.14.09-.29.09-.46s-.03-.32-.09-.46C-.13,1.28.04.65.52.28c.48-.37,1.13-.37,1.62,0h0ZM9,.28l1.42,1.09c.3.23.47.56.47.94s-.16.71-.47.94l-1.42,1.09c-.49.37-1.14.37-1.62,0-.48-.37-.65-1-.42-1.56.06-.14.09-.29.09-.46s-.03-.32-.09-.46c-.23-.56-.07-1.19.42-1.56.48-.37,1.13-.37,1.62,0Z"/>
  </g>
</svg>