<?xml version="1.0" encoding="UTF-8"?>
<svg id="Layer_2" data-name="Layer 2" xmlns="http://www.w3.org/2000/svg" viewBox="0 0 26.13 18.33">
  <defs>
    <style>
      .cls-1 {
        fill: #fff;
        fill-rule: evenodd;
      }
    </style>
  </defs>
  <g id="Layer_1-2" data-name="Layer 1">
    <path class="cls-1" d="M1.48,0h20.52l-10.29,6.94L1.48,0h0ZM20.54,7.16c1.54,0,2.94.63,3.95,1.64,1.01,1.01,1.64,2.41,1.64,3.95s-.63,2.94-1.64,3.95c-1.01,1.01-2.41,1.64-3.95,1.64s-2.94-.63-3.95-1.64c-1.01-1.01-1.64-2.41-1.64-3.95s.63-2.94,1.64-3.95c1.01-1.01,2.41-1.64,3.95-1.64h0ZM21.13,9.63c-.06-.12-.16-.23-.29-.29-.33-.17-.73-.03-.89.29l-.67,1.33-1.45.23c-.15.02-.29.08-.4.19-.26.26-.26.68,0,.94l1.06,1.05-.24,1.48c-.02.13,0,.28.06.41.17.33.57.46.89.29l1.33-.68,1.31.67c.13.07.28.1.43.08.36-.06.61-.4.55-.76l-.24-1.48,1.06-1.05c.1-.1.17-.22.19-.37.06-.36-.19-.7-.55-.76l-1.48-.23-.67-1.33h0ZM23.41.55l-11.36,7.66c-.2.14-.48.14-.7,0L.01.51s-.01.08-.01.12v14.13c0,.35.28.63.63.63h14.24c-.37-.8-.58-1.69-.58-2.63,0-.84.17-1.65.48-2.39.32-.77.78-1.45,1.36-2.03h0c.58-.58,1.26-1.04,2.03-1.36.74-.31,1.55-.48,2.39-.48s1.65.17,2.39.48c.17.07.33.15.49.23V.63s0-.05,0-.08Z"/>
  </g>
</svg>