<?xml version="1.0" encoding="UTF-8"?>
<svg id="Layer_2" data-name="Layer 2" xmlns="http://www.w3.org/2000/svg" viewBox="0 0 23.78 23.78">
  <defs>
    <style>
      .cls-1 {
        fill: #fff;
        fill-rule: evenodd;
      }
    </style>
  </defs>
  <g id="Layer_1-2" data-name="Layer 1">
    <path class="cls-1" d="M11.89,0c3.28,0,6.26,1.33,8.41,3.48,2.15,2.15,3.48,5.12,3.48,8.41s-1.33,6.26-3.48,8.41c-2.15,2.15-5.12,3.48-8.41,3.48s-6.26-1.33-8.41-3.48C1.33,18.14,0,15.17,0,11.89S1.33,5.63,3.48,3.48C5.63,1.33,8.61,0,11.89,0h0ZM12.53,5.64c-.06-.21-.22-.38-.44-.45-.35-.11-.72.09-.83.44l-.14.46c-.32,1.04-.95,1.9-1.76,2.5-.82.6-1.83.93-2.92.91h-.44c-.23-.02-.46.07-.6.27-.21.3-.14.72.16.93l.39.27c.89.63,1.52,1.49,1.83,2.45.31.96.31,2.02-.04,3.06l-.16.45h0c-.07.2-.04.43.1.61.22.29.64.35.93.13l.38-.29c.87-.65,1.88-.98,2.9-.98s2.03.33,2.9.98l.35.26c.17.15.42.2.65.13.35-.12.53-.5.42-.84l-.15-.45c-.35-1.03-.35-2.1-.04-3.06.31-.96.94-1.82,1.83-2.45l.39-.28c.17-.12.28-.32.28-.55,0-.37-.3-.66-.67-.66h-.48c-1.09.02-2.1-.31-2.92-.9-.82-.59-1.44-1.45-1.76-2.5l-.14-.45Z"/>
  </g>
</svg>