<?xml version="1.0" encoding="UTF-8"?>
<svg id="Layer_2" data-name="Layer 2" xmlns="http://www.w3.org/2000/svg" viewBox="0 0 29.09 30.43">
  <defs>
    <style>
      .cls-1 {
        fill: #fff;
        fill-rule: evenodd;
      }
    </style>
  </defs>
  <g id="Layer_1-2" data-name="Layer 1">
    <path class="cls-1" d="M11.02,11.27l2.66-4.69c.12-.25.37-.42.66-.42h4.94v-2.87h0c0-.25.13-.49.36-.63L24.03.1c.35-.2.79-.09.99.26s.09.79-.26.99l-4.03,2.36v2.45h4.94c.25,0,.5.13.63.37l2.66,4.69c.08.12.12.26.12.41,0,.4-.33.73-.73.73H11.65c-.12,0-.25-.03-.36-.1-.35-.2-.47-.64-.27-.99h0ZM7.29,13.1h2.48c2.01,0,3.83.82,5.15,2.14,1.32,1.32,2.14,3.15,2.14,5.15,0,.4-.33.73-.73.73H.73c-.4,0-.73-.33-.73-.73,0-2.01.82-3.83,2.14-5.15,1.32-1.32,3.15-2.14,5.15-2.14h0ZM.73,24.65c-.4,0-.73-.33-.73-.73s.33-.73.73-.73h15.46c.4,0,.73.33.73.73s-.33.73-.73.73H.73ZM.73,22.89c-.4,0-.73-.33-.73-.73s.33-.73.73-.73h15.46c.4,0,.73.33.73.73s-.33.73-.73.73H.73ZM12.47,30.43h-7.86c-1.27,0-2.42-.52-3.25-1.35-.83-.83-1.35-1.98-1.35-3.25,0-.4.33-.73.73-.73h15.61c.4,0,.73.33.73.73,0,1.27-.52,2.42-1.35,3.25-.83.83-1.98,1.35-3.25,1.35h0ZM13.69,13.4c.64.36,1.23.81,1.75,1.33h0c.74.74,1.34,1.63,1.75,2.61.39.95.61,1.98.61,3.06,0,.37-.14.71-.38.97.15.23.23.5.23.79,0,.33-.11.63-.3.88.19.24.3.55.3.88s-.11.63-.29.87h0s0,0,0,0c.26.26.43.63.43,1.03,0,.72-.14,1.41-.41,2.04-.27.65-.67,1.24-1.16,1.73-.27.27-.57.51-.9.72.11.07.25.11.39.11h8.56c.34,0,.64-.24.71-.58l3.28-15.51c.02-.06.03-.13.03-.2,0-.4-.33-.73-.73-.73h-13.89Z"/>
  </g>
</svg>