<?xml version="1.0" encoding="UTF-8"?>
<svg id="Layer_2" data-name="Layer 2" xmlns="http://www.w3.org/2000/svg" viewBox="0 0 77.5 75.84">
  <g id="Layer_1-2" data-name="Layer 1">
    <g>
      <path d="M2.5,75.84c-.64,0-1.28-.24-1.77-.73-.98-.98-.98-2.56,0-3.54L62.41,9.89c.98-.98,2.56-.98,3.54,0,.98.98.98,2.56,0,3.54L4.27,75.11c-.49.49-1.13.73-1.77.73Z"/>
      <path d="M49.22,41.32c-3.93,0-7.62-1.53-10.4-4.31-5.73-5.73-5.73-15.06,0-20.79L53.78,1.27c.98-.98,2.56-.98,3.54,0,.98.98.98,2.56,0,3.54l-14.96,14.96c-3.78,3.78-3.78,9.94,0,13.72,1.83,1.83,4.27,2.84,6.86,2.84s5.03-1.01,6.86-2.84l14.96-14.96c.98-.98,2.56-.98,3.54,0,.98.98.98,2.56,0,3.54l-14.96,14.96c-2.78,2.78-6.47,4.31-10.4,4.31Z"/>
      <path d="M75,72.18c-.64,0-1.28-.24-1.77-.73l-15.5-15.52h-12.06c-1.95,0-3.95-.24-5.95-.71-1.34-.32-2.17-1.67-1.86-3.01.32-1.34,1.66-2.17,3.01-1.86,1.62.38,3.23.58,4.79.58h13.09c.66,0,1.3.26,1.77.73l16.23,16.25c.98.98.97,2.56,0,3.54-.49.49-1.13.73-1.77.73Z"/>
      <path d="M20.37,39.92c-.64,0-1.28-.24-1.77-.73l-12.53-12.53C2.61,23.2.7,18.59.7,13.7S2.61,4.19,6.07.73c.98-.98,2.56-.98,3.54,0l19.82,19.82c.98.98.98,2.56,0,3.54-.98.98-2.56.98-3.54,0L8.01,6.2c-1.5,2.19-2.3,4.78-2.3,7.5,0,3.56,1.39,6.91,3.9,9.43l12.53,12.53c.98.98.98,2.56,0,3.54-.49.49-1.13.73-1.77.73Z"/>
    </g>
  </g>
</svg>