<?xml version="1.0" encoding="UTF-8"?>
<svg id="Layer_2" data-name="Layer 2" xmlns="http://www.w3.org/2000/svg" viewBox="0 0 17.28 21.22">
  <defs>
    <style>
      .cls-1 {
        fill: #fff;
        fill-rule: evenodd;
      }
    </style>
  </defs>
  <g id="Layer_1-2" data-name="Layer 1">
    <path class="cls-1" d="M2.04,21.01l3.07-1.95c.4-.25.62-.65.62-1.12V3.29c0-.47-.22-.87-.62-1.12L2.04.21C1.62-.05,1.13-.07.69.17.25.41,0,.84,0,1.34v18.55c0,.5.25.93.69,1.17.44.24.93.23,1.36-.04h0ZM9.23,16.45l1.4-.89c.4-.25.62-.65.62-1.12v-7.66c0-.47-.22-.87-.62-1.12l-1.4-.89c-.42-.27-.92-.28-1.35-.04-.44.24-.69.67-.69,1.17v9.43c0,.5.25.93.69,1.17.44.24.93.22,1.35-.04h0ZM14.74,12.95l1.92-1.22c.4-.25.62-.65.62-1.12s-.22-.87-.62-1.12l-1.92-1.22c-.42-.27-.92-.28-1.35-.04-.44.24-.69.67-.69,1.17v2.43c0,.5.25.93.69,1.17.44.24.93.22,1.35-.04Z"/>
  </g>
</svg>