<?xml version="1.0" encoding="UTF-8"?>
<svg id="Layer_2" data-name="Layer 2" xmlns="http://www.w3.org/2000/svg" viewBox="0 0 25.46 22.69">
  <defs>
    <style>
      .cls-1 {
        fill: #fff;
        fill-rule: evenodd;
      }
    </style>
  </defs>
  <g id="Layer_1-2" data-name="Layer 1">
    <path class="cls-1" d="M12.73,2.1c.5,0,.99.04,1.48.12.31.05.62.12.92.2l.71-1.22.03-.04c.33-.55.85-.91,1.42-1.07.57-.15,1.19-.1,1.74.2.04.02.08.04.11.06.54.33.91.85,1.06,1.42.16.59.09,1.24-.24,1.81l-.71,1.23c.57.57,1.07,1.22,1.48,1.92.4.69.71,1.44.92,2.23h1.41c.66,0,1.25.27,1.69.7.43.43.7,1.03.7,1.69s-.27,1.25-.7,1.69c-.43.43-1.03.7-1.69.7h-1.41c-.21.79-.52,1.54-.92,2.23-.41.7-.91,1.35-1.48,1.92l.71,1.23c.33.57.39,1.22.24,1.81-.15.57-.52,1.09-1.06,1.42-.03.02-.06.04-.1.06-.56.3-1.19.36-1.76.21-.59-.16-1.12-.54-1.45-1.11l-.71-1.22c-.3.08-.61.15-.92.2-.49.08-.99.12-1.48.12s-.99-.04-1.48-.12c-.31-.05-.62-.12-.92-.2l-.71,1.22-.03.04c-.33.55-.85.91-1.42,1.07-.57.15-1.19.1-1.74-.2-.04-.02-.08-.04-.11-.06-.54-.33-.91-.85-1.06-1.42-.16-.59-.09-1.24.24-1.81l.71-1.23c-.57-.57-1.07-1.22-1.48-1.92-.4-.69-.71-1.44-.92-2.23h-1.41c-.66,0-1.25-.27-1.69-.7-.43-.43-.7-1.03-.7-1.69s.27-1.25.7-1.69c.43-.43,1.03-.7,1.69-.7h1.41c.21-.79.52-1.54.92-2.23.41-.7.91-1.35,1.48-1.92l-.71-1.23c-.33-.57-.39-1.22-.24-1.81.15-.57.52-1.09,1.06-1.42.03-.02.06-.04.1-.06.56-.3,1.19-.36,1.76-.21.59.16,1.12.54,1.45,1.11l.71,1.22c.3-.08.61-.15.92-.2.49-.08.99-.12,1.48-.12h0ZM12.73,8.59c-.76,0-1.45.31-1.95.81h0c-.5.5-.81,1.19-.81,1.95s.31,1.45.81,1.95h0c.5.5,1.19.81,1.95.81s1.41-.29,1.91-.77l.04-.04c.5-.5.81-1.19.81-1.95s-.31-1.45-.81-1.95c-.5-.5-1.19-.81-1.95-.81h0ZM16.04,8.03c-.85-.85-2.02-1.37-3.31-1.37s-2.46.52-3.31,1.37-1.37,2.02-1.37,3.31.52,2.46,1.37,3.31c.85.85,2.02,1.37,3.31,1.37s2.46-.52,3.31-1.37c.85-.85,1.37-2.02,1.37-3.31s-.52-2.46-1.37-3.31Z"/>
  </g>
</svg>