<?xml version="1.0" encoding="UTF-8"?>
<svg id="Layer_2" data-name="Layer 2" xmlns="http://www.w3.org/2000/svg" viewBox="0 0 23.45 25.45">
  <defs>
    <style>
      .cls-1 {
        fill: #fff;
        fill-rule: evenodd;
      }
    </style>
  </defs>
  <g id="Layer_1-2" data-name="Layer 1">
    <path class="cls-1" d="M10,0c1.68,0,3.19.68,4.29,1.78,1.1,1.1,1.78,2.62,1.78,4.29s-.68,3.19-1.78,4.29c-.5.5-1.08.91-1.73,1.21,1.5.4,2.86,1.14,4,2.13-.77.03-1.51.16-2.2.36-.85.25-1.62.62-2.27,1.08-.7.5-1.27,1.1-1.67,1.78-.39.68-.6,1.42-.6,2.21s.22,1.53.6,2.21c.39.68.96,1.29,1.67,1.78.65.46,1.42.83,2.27,1.08.81.24,1.69.37,2.61.37.14,0,.3,0,.48-.02.17,0,.33-.02.5-.04.12-.01.24-.03.35-.04l.1-.02.1.06c-.22.08-.46.12-.71.12H2.2c-.61,0-1.16-.25-1.56-.65-.4-.4-.65-.95-.65-1.56v-1.2c0-2.75,1.12-5.25,2.94-7.06,1.23-1.23,2.77-2.14,4.49-2.6-.64-.3-1.23-.71-1.73-1.21-1.1-1.1-1.78-2.62-1.78-4.29s.68-3.19,1.78-4.29c1.1-1.1,2.62-1.78,4.29-1.78h0ZM16.97,14.36c-1.74,0-3.33.51-4.49,1.32-1.23.87-1.99,2.08-1.99,3.44s.76,2.58,1.99,3.44c1.16.82,2.75,1.32,4.49,1.32.3,0,.61-.02.91-.05.22-.02.43-.05.64-.09l2.76,1.6c.15.09.34.13.53.07.35-.1.56-.47.46-.82l-.62-2.18c.49-.38.9-.81,1.19-1.29.38-.61.59-1.29.59-2,0-1.36-.76-2.58-1.99-3.44-1.16-.82-2.75-1.32-4.49-1.32h0ZM14.47,18.41c-.4,0-.73.33-.73.73s.33.73.73.73.73-.33.73-.73-.33-.73-.73-.73h0ZM19.74,18.41c.4,0,.73.33.73.73s-.33.73-.73.73-.73-.33-.73-.73.33-.73.73-.73h0ZM17.11,18.41c-.4,0-.73.33-.73.73s.33.73.73.73.73-.33.73-.73-.33-.73-.73-.73Z"/>
  </g>
</svg>