<?xml version="1.0" encoding="UTF-8"?>
<svg id="Layer_2" data-name="Layer 2" xmlns="http://www.w3.org/2000/svg" viewBox="0 0 19.98 24.55">
  <defs>
    <style>
      .cls-1 {
        fill: #fff;
        fill-rule: evenodd;
      }
    </style>
  </defs>
  <g id="Layer_1-2" data-name="Layer 1">
    <path class="cls-1" d="M.67,0h18.65c.37,0,.67.3.67.67v2.84c0,.37-.3.67-.67.67H.67c-.37,0-.67-.3-.67-.67V.67c0-.37.3-.67.67-.67h0ZM18.34,4.84l-.29,2.94s0,.07-.01.11l-.57,5.81s0,.07-.01.11l-.57,5.81s0,.07-.01.11l-.41,4.2c-.03.34-.32.6-.66.6h0s-11.62,0-11.62,0c-.36,0-.66-.29-.67-.66l-.41-4.15s-.01-.07-.01-.11l-.57-5.82s-.01-.07-.01-.11l-.57-5.82s-.01-.07-.01-.11l-.29-2.94h1.33l.22,2.26h3.75l-.06-2.26h1.33l.06,2.26h3.43l.06-2.26h1.33l-.06,2.26h3.75l.22-2.26h1.33ZM11.26,23.21l.08-2.93h-2.71l.08,2.93h2.55ZM11.38,18.95l.13-4.59h-3.03l.13,4.59h2.78ZM11.54,13.03l.12-4.59h-3.35l.12,4.59h3.1ZM12.99,8.43l-.12,4.59h3.33l.45-4.59h-3.65ZM12.83,14.36l-.13,4.59h2.91l.45-4.59h-3.23ZM12.67,20.28l-.08,2.93h2.61l.29-2.93h-2.81ZM7.39,23.21l-.08-2.93h-2.81l.29,2.93h2.61ZM7.27,18.95l-.13-4.59h-3.23l.45,4.59h2.91ZM7.11,13.03l-.13-4.59h-3.65l.45,4.59h3.33Z"/>
  </g>
</svg>