<?xml version="1.0" encoding="UTF-8"?>
<svg id="Layer_2" data-name="Layer 2" xmlns="http://www.w3.org/2000/svg" viewBox="0 0 30.03 30.68">
  <defs>
    <style>
      .cls-1 {
        fill: #fff;
        fill-rule: evenodd;
      }
    </style>
  </defs>
  <g id="Layer_1-2" data-name="Layer 1">
    <path class="cls-1" d="M13.68,1.33c0-.74.6-1.33,1.33-1.33s1.33.6,1.33,1.33v1.95l1.89-2.18c.48-.55,1.32-.61,1.88-.13.55.48.61,1.32.13,1.88l-3.9,4.49v5.69l4.87-2.81,1.98-5.67c.24-.69,1-1.06,1.69-.82.69.24,1.06,1,.82,1.69l-.96,2.76,1.73-1c.64-.37,1.45-.15,1.82.48.37.64.15,1.45-.48,1.82l-1.7.98,2.83.55c.72.14,1.19.84,1.06,1.56-.14.72-.84,1.2-1.56,1.06l-5.84-1.14-4.93,2.84,4.87,2.81,5.91-1.12c.72-.13,1.42.34,1.55,1.06.13.72-.34,1.42-1.06,1.55l-2.87.54,1.74,1c.64.37.85,1.18.48,1.82-.37.64-1.18.85-1.82.48l-1.7-.98.94,2.73c.24.7-.13,1.45-.83,1.69-.7.24-1.45-.13-1.69-.83l-1.93-5.62-4.92-2.84v5.63l3.92,4.56c.48.56.41,1.4-.15,1.87-.56.48-1.4.41-1.87-.15l-1.9-2.21v2c0,.74-.6,1.33-1.33,1.33s-1.33-.6-1.33-1.33v-1.95l-1.89,2.18c-.48.55-1.32.61-1.88.13-.55-.48-.61-1.32-.13-1.88l3.9-4.49v-5.69l-4.87,2.81-1.98,5.67c-.24.69-1,1.06-1.69.82s-1.06-1-.82-1.69l.96-2.76-1.73,1c-.64.37-1.45.15-1.82-.48-.37-.64-.15-1.45.48-1.82l1.7-.98-2.83-.55c-.72-.14-1.19-.84-1.06-1.56.14-.72.84-1.2,1.56-1.06l5.84,1.14,4.93-2.84-4.87-2.81-5.91,1.12c-.72.13-1.42-.34-1.55-1.06-.13-.72.34-1.42,1.06-1.55l2.87-.54-1.74-1c-.64-.37-.85-1.18-.48-1.82.37-.64,1.18-.85,1.82-.48l1.7.98-.94-2.73c-.24-.7.13-1.45.83-1.69.7-.24,1.45.13,1.69.83l1.93,5.63,4.92,2.84v-5.63l-3.92-4.56c-.48-.56-.41-1.4.15-1.87.56-.48,1.4-.41,1.87.15l1.9,2.21v-2Z"/>
  </g>
</svg>