<?xml version="1.0" encoding="UTF-8"?>
<svg id="Layer_2" data-name="Layer 2" xmlns="http://www.w3.org/2000/svg" viewBox="0 0 30.25 21.88">
  <defs>
    <style>
      .cls-1 {
        fill: #fff;
        fill-rule: evenodd;
      }
    </style>
  </defs>
  <g id="Layer_1-2" data-name="Layer 1">
    <path class="cls-1" d="M16.77,18.31v2.39c0,.48.26.88.7,1.08.43.2.91.12,1.27-.19l11.11-9.75c.27-.23.4-.54.4-.89s-.14-.66-.4-.89L18.74.3c-.36-.31-.84-.38-1.27-.19-.43.2-.7.6-.7,1.08v2.39c0,.65-.53,1.18-1.18,1.18h-7.18c-.48.01-.88.27-1.08.71-.19.43-.12.91.19,1.27l3.03,3.42c.4.45.4,1.12,0,1.57l-3.03,3.42c-.32.36-.39.84-.19,1.27.2.43.6.7,1.08.7h7.18c.65.01,1.18.54,1.18,1.19h0ZM1.19,4.77h2.41c.35,0,.65.14.89.4l4.42,4.98c.4.45.4,1.12,0,1.57l-4.42,4.98c-.23.26-.53.4-.89.4H1.19c-.48,0-.88-.26-1.08-.7-.2-.43-.12-.91.19-1.27l3.03-3.41c.4-.45.4-1.12,0-1.57L.3,6.74c-.32-.36-.39-.84-.19-1.27.2-.43.6-.7,1.08-.7Z"/>
  </g>
</svg>