<?xml version="1.0" encoding="UTF-8"?>
<svg id="Layer_2" data-name="Layer 2" xmlns="http://www.w3.org/2000/svg" viewBox="0 0 26.67 20.36">
  <defs>
    <style>
      .cls-1 {
        fill: #fff;
        fill-rule: evenodd;
      }
    </style>
  </defs>
  <g id="Layer_1-2" data-name="Layer 1">
    <path class="cls-1" d="M17.16,0c5.11.33,9.19,4.42,9.51,9.52-.04,0-.07,0-.11,0h-2.74c-.37,0-.67.3-.67.67s.3.67.67.67h2.74s.08,0,.11,0c-.32,5.11-4.41,9.19-9.51,9.52v-2.85c0-.37-.3-.67-.67-.67s-.67.3-.67.67v2.85c-3.65-.23-6.79-2.39-8.39-5.48h-2.55c-.37,0-.67-.3-.67-.67s.3-.67.67-.67h1.97c-.12-.35-.23-.71-.31-1.08h-.11c-.37,0-.67-.3-.67-.67,0-.33.24-.61.56-.66-.03-.32-.05-.64-.05-.97,0-.18,0-.36.01-.54H.67c-.37,0-.67-.3-.67-.67s.3-.67.67-.67h5.79C7.3,3.78,11.13.3,15.82,0v2.85c0,.37.3.67.67.67s.67-.3.67-.67V0h0ZM4.42,11.14h-1.32c-.37,0-.67.3-.67.67s.3.67.67.67h1.32c.37,0,.67-.3.67-.67s-.3-.67-.67-.67h0ZM3.76,6.81h1.33c.37,0,.67-.3.67-.67s-.3-.67-.67-.67h-1.33c-.37,0-.67.3-.67.67s.3.67.67.67h0ZM8.51,6.81h2.08c.37,0,.67-.3.67-.67s-.3-.67-.67-.67h-2.08c-.37,0-.67.3-.67.67s.3.67.67.67h0ZM11.05,14.89h1.32c.37,0,.67-.3.67-.67s-.3-.67-.67-.67h-1.32c-.37,0-.67.3-.67.67s.3.67.67.67h0ZM15.88,4.8v5.38c0,.24.12.44.31.56l3.35,2.46c.3.22.71.15.93-.14.22-.3.15-.71-.14-.93l-3.11-2.29v-5.04c0-.37-.3-.67-.67-.67s-.67.3-.67.67Z"/>
  </g>
</svg>