<?xml version="1.0" encoding="UTF-8"?>
<svg id="Layer_2" data-name="Layer 2" xmlns="http://www.w3.org/2000/svg" viewBox="0 0 34.04 9.2">
  <defs>
    <style>
      .cls-1 {
        fill: #fff;
        fill-rule: evenodd;
      }
    </style>
  </defs>
  <g id="Layer_1-2" data-name="Layer 1">
    <path class="cls-1" d="M19.57,0l14.47,4.6-14.47,4.6-3.7-3.41H7.31c-.19.56-.5,1.06-.91,1.46-.68.68-1.62,1.1-2.65,1.1s-1.97-.42-2.65-1.1c-.68-.68-1.1-1.62-1.1-2.65s.42-1.97,1.1-2.65c.68-.68,1.62-1.1,2.65-1.1s1.97.42,2.65,1.1c.41.41.72.91.91,1.46h8.57l3.7-3.41h0ZM4.68,3.67c-.24-.24-.57-.39-.93-.39s-.69.15-.93.39-.39.57-.39.93.15.69.39.93c.24.24.57.39.93.39s.69-.15.93-.39c.24-.24.39-.57.39-.93s-.15-.69-.39-.93Z"/>
  </g>
</svg>