<?xml version="1.0" encoding="UTF-8"?>
<svg id="Layer_2" data-name="Layer 2" xmlns="http://www.w3.org/2000/svg" viewBox="0 0 28.29 18.03">
  <defs>
    <style>
      .cls-1 {
        fill: #fff;
        fill-rule: evenodd;
      }
    </style>
  </defs>
  <g id="Layer_1-2" data-name="Layer 1">
    <path class="cls-1" d="M16.88,15.66v1.04c0,.53.3.99.78,1.21.49.22,1.03.14,1.43-.21l8.75-7.68c.3-.26.45-.6.45-1s-.15-.74-.45-1L19.09.34c-.4-.35-.94-.43-1.43-.21-.49.22-.78.68-.78,1.21v1.04c0,.73-.6,1.33-1.33,1.33h-5.15c-.54,0-.99.31-1.21.79s-.14,1.03.22,1.43l1.95,2.2c.45.51.45,1.26,0,1.77l-1.95,2.2c-.36.4-.44.94-.22,1.43.22.49.68.79,1.21.79h5.15c.73,0,1.33.61,1.33,1.34h0ZM2.33,8.08l.05.06c.45.51.45,1.26,0,1.77l-.05.06c-.38.43-.95.56-1.48.36C.32,10.11-.01,9.61,0,9.05c0-.02,0-.04,0-.06-.01-.57.32-1.06.85-1.27s1.1-.07,1.48.36h0ZM2.93,3.72h2.5c.39,0,.73.15,1,.45l3.52,3.97c.45.51.45,1.26,0,1.77l-3.52,3.97c-.26.3-.6.45-1,.45h-2.5c-.54,0-.99-.3-1.21-.79-.22-.49-.14-1.03.22-1.43l1.95-2.2c.45-.51.45-1.26,0-1.77l-1.95-2.2c-.36-.4-.44-.94-.22-1.43.22-.49.68-.79,1.21-.79Z"/>
  </g>
</svg>