<?xml version="1.0" encoding="UTF-8"?>
<svg id="Layer_2" data-name="Layer 2" xmlns="http://www.w3.org/2000/svg" viewBox="0 0 74.17 74.17">
  <g id="Layer_1-2" data-name="Layer 1">
    <g>
      <path d="M37.08,74.17C16.64,74.17,0,57.53,0,37.08S16.64,0,37.08,0s37.08,16.64,37.08,37.08-16.64,37.08-37.08,37.08ZM37.08,5C19.39,5,5,19.39,5,37.08s14.39,32.08,32.08,32.08,32.08-14.39,32.08-32.08S54.77,5,37.08,5Z"/>
      <path d="M37.08,22.18c-1.38,0-2.5-1.12-2.5-2.5v-5.22c0-1.38,1.12-2.5,2.5-2.5s2.5,1.12,2.5,2.5v5.22c0,1.38-1.12,2.5-2.5,2.5Z"/>
      <path d="M24.78,27.28c-.64,0-1.28-.24-1.77-.73l-3.69-3.69c-.98-.98-.98-2.56,0-3.54.97-.98,2.56-.98,3.54,0l3.69,3.69c.98.98.98,2.56,0,3.54-.49.49-1.13.73-1.77.73Z"/>
      <path d="M19.68,39.58h-5.2c-1.38,0-2.5-1.12-2.5-2.5s1.12-2.5,2.5-2.5h5.2c1.38,0,2.5,1.12,2.5,2.5s-1.12,2.5-2.5,2.5Z"/>
      <path d="M21.09,55.58c-.64,0-1.28-.24-1.77-.73-.98-.98-.98-2.56,0-3.54l3.7-3.7c.97-.98,2.56-.98,3.54,0,.98.98.98,2.56,0,3.54l-3.7,3.7c-.49.49-1.13.73-1.77.73Z"/>
      <path d="M37.08,62.2c-1.38,0-2.5-1.12-2.5-2.5v-5.22c0-1.38,1.12-2.5,2.5-2.5s2.5,1.12,2.5,2.5v5.22c0,1.38-1.12,2.5-2.5,2.5Z"/>
      <path d="M53.08,55.58c-.64,0-1.28-.24-1.77-.73l-3.7-3.7c-.98-.98-.98-2.56,0-3.54.98-.98,2.56-.98,3.54,0l3.7,3.7c.98.98.98,2.56,0,3.54-.49.49-1.13.73-1.77.73Z"/>
      <path d="M59.69,39.58h-5.2c-1.38,0-2.5-1.12-2.5-2.5s1.12-2.5,2.5-2.5h5.2c1.38,0,2.5,1.12,2.5,2.5s-1.12,2.5-2.5,2.5Z"/>
      <path d="M49.39,27.28c-.64,0-1.28-.24-1.77-.73-.98-.98-.98-2.56,0-3.54l3.69-3.69c.98-.98,2.56-.98,3.54,0,.98.98.98,2.56,0,3.54l-3.69,3.69c-.49.49-1.13.73-1.77.73Z"/>
    </g>
  </g>
</svg>