<?xml version="1.0" encoding="UTF-8"?>
<svg id="Layer_2" data-name="Layer 2" xmlns="http://www.w3.org/2000/svg" viewBox="0 0 31.81 15.4">
  <defs>
    <style>
      .cls-1 {
        fill: #fff;
        fill-rule: evenodd;
      }
    </style>
  </defs>
  <g id="Layer_1-2" data-name="Layer 1">
    <path class="cls-1" d="M1.94,15.12l6.94-5.8c.36-.3.83-.36,1.26-.16.43.2.68.6.68,1.07v3.98c0,.47.26.87.68,1.07.43.2.9.14,1.26-.16l6.94-5.8c.36-.3.83-.36,1.26-.16.43.2.68.6.68,1.07v3.98c0,.47.26.87.68,1.07.43.2.9.14,1.26-.16l7.79-6.51c.28-.23.42-.55.42-.91s-.15-.68-.42-.91L23.59.28c-.36-.3-.83-.36-1.26-.16-.43.2-.68.6-.68,1.07v3.98c0,.47-.26.87-.68,1.07-.43.2-.9.14-1.26-.16L12.77.28c-.36-.3-.83-.36-1.26-.16-.43.2-.68.6-.68,1.07v3.98c0,.47-.26.87-.68,1.07-.43.2-.9.14-1.26-.16L1.94.28C1.58-.02,1.11-.08.68.12.26.32,0,.72,0,1.19v13.02c0,.47.26.87.68,1.07.43.2.9.14,1.26-.16Z"/>
  </g>
</svg>