<?xml version="1.0" encoding="UTF-8"?>
<svg id="Layer_2" data-name="Layer 2" xmlns="http://www.w3.org/2000/svg" viewBox="0 0 71.11 82.75">
  <g id="Layer_1-2" data-name="Layer 1">
    <g>
      <g>
        <path d="M47.73,60.87h-24.41c-6.54,0-11.85-5.32-11.85-11.85V11.85C11.47,5.32,16.79,0,23.32,0h24.41c6.53,0,11.85,5.32,11.85,11.85v37.17c0,6.53-5.32,11.85-11.85,11.85ZM23.32,5c-3.78,0-6.85,3.07-6.85,6.85v37.17c0,3.78,3.07,6.85,6.85,6.85h24.41c3.78,0,6.85-3.07,6.85-6.85V11.85c0-3.78-3.07-6.85-6.85-6.85h-24.41Z"/>
        <path d="M35.55,72.4C15.95,72.4,0,56.45,0,36.85c0-1.38,1.12-2.5,2.5-2.5s2.5,1.12,2.5,2.5c0,16.85,13.71,30.55,30.55,30.55s30.55-13.71,30.55-30.55c0-1.38,1.12-2.5,2.5-2.5s2.5,1.12,2.5,2.5c0,19.6-15.95,35.55-35.55,35.55Z"/>
        <path d="M25.38,26.56h-11.41c-1.38,0-2.5-1.12-2.5-2.5s1.12-2.5,2.5-2.5h11.41c1.38,0,2.5,1.12,2.5,2.5s-1.12,2.5-2.5,2.5Z"/>
        <path d="M25.38,39.32h-11.41c-1.38,0-2.5-1.12-2.5-2.5s1.12-2.5,2.5-2.5h11.41c1.38,0,2.5,1.12,2.5,2.5s-1.12,2.5-2.5,2.5Z"/>
        <path d="M57.08,26.56h-11.41c-1.38,0-2.5-1.12-2.5-2.5s1.12-2.5,2.5-2.5h11.41c1.38,0,2.5,1.12,2.5,2.5s-1.12,2.5-2.5,2.5Z"/>
        <path d="M57.08,39.32h-11.41c-1.38,0-2.5-1.12-2.5-2.5s1.12-2.5,2.5-2.5h11.41c1.38,0,2.5,1.12,2.5,2.5s-1.12,2.5-2.5,2.5Z"/>
      </g>
      <path d="M35.55,82.75c-1.38,0-2.5-1.12-2.5-2.5v-10.35c0-1.38,1.12-2.5,2.5-2.5s2.5,1.12,2.5,2.5v10.35c0,1.38-1.12,2.5-2.5,2.5Z"/>
    </g>
  </g>
</svg>