<?xml version="1.0" encoding="UTF-8"?>
<svg id="Layer_2" data-name="Layer 2" xmlns="http://www.w3.org/2000/svg" viewBox="0 0 26.13 18.75">
  <defs>
    <style>
      .cls-1 {
        fill: #fff;
        fill-rule: evenodd;
      }
    </style>
  </defs>
  <g id="Layer_1-2" data-name="Layer 1">
    <path class="cls-1" d="M20.46,12.6c0-.74.6-1.33,1.33-1.33s1.33.6,1.33,1.33v4.81c0,.74-.6,1.33-1.33,1.33H1.33c-.74,0-1.33-.6-1.33-1.33V4.64c0-.74.6-1.33,1.33-1.33h.1s3.98-.05,3.98-.05c.73,0,1.33.58,1.34,1.31,0,.73-.58,1.33-1.31,1.34l-2.78.03v10.12h17.79v-3.48h0ZM20.39,3.21h0S14.98.09,14.98.09c-.32-.18-.72-.08-.91.24-.06.11-.09.22-.09.33h0v2.77h-.36c-.96,0-1.89.17-2.76.47-.9.32-1.73.78-2.46,1.36-.99.79-1.79,1.79-2.35,2.93-.53,1.1-.83,2.34-.83,3.64v1.45c0,.37.3.67.67.67.29,0,.54-.19.63-.45.41-.92,1.08-1.71,1.92-2.25.82-.54,1.8-.85,2.86-.85h2.68v2.76c0,.37.3.67.67.67.14,0,.27-.04.37-.11l10.77-6.22c.32-.18.43-.59.24-.91-.06-.11-.15-.19-.25-.25l-5.4-3.12Z"/>
  </g>
</svg>