<?xml version="1.0" encoding="UTF-8"?>
<svg id="Layer_2" data-name="Layer 2" xmlns="http://www.w3.org/2000/svg" viewBox="0 0 71.56 71.56">
  <g id="Layer_1-2" data-name="Layer 1">
    <g>
      <path d="M35.78,71.56C16.05,71.56,0,55.51,0,35.78S16.05,0,35.78,0s35.78,16.05,35.78,35.78-16.05,35.78-35.78,35.78ZM35.78,5c-16.97,0-30.78,13.81-30.78,30.78s13.81,30.78,30.78,30.78,30.78-13.81,30.78-30.78S52.75,5,35.78,5Z"/>
      <g>
        <path d="M35.78,52.86c-1.38,0-2.5-1.12-2.5-2.5v-18.76c0-1.38,1.12-2.5,2.5-2.5s2.5,1.12,2.5,2.5v18.76c0,1.38-1.12,2.5-2.5,2.5Z"/>
        <path d="M35.78,23.7c-.66,0-1.3-.27-1.77-.74-.11-.11-.22-.24-.31-.38-.09-.13-.17-.28-.23-.43-.06-.15-.11-.31-.14-.46-.04-.17-.05-.33-.05-.49,0-.17,0-.33.05-.49.03-.16.08-.32.14-.47.06-.15.14-.3.23-.43.09-.14.2-.27.31-.38.12-.12.24-.22.38-.31.14-.09.28-.17.43-.23.15-.07.31-.11.47-.15.81-.16,1.68.11,2.26.69.11.11.22.24.31.38.09.13.16.28.23.43.06.15.11.31.14.47.03.16.05.32.05.49,0,.16-.02.32-.05.49-.03.15-.08.31-.14.46-.07.15-.14.3-.23.43-.09.14-.2.27-.31.38-.12.12-.25.22-.38.31-.14.09-.28.17-.44.23-.15.07-.3.12-.46.15-.17.03-.33.05-.49.05Z"/>
      </g>
    </g>
  </g>
</svg>