<?xml version="1.0" encoding="UTF-8"?>
<svg id="Layer_2" data-name="Layer 2" xmlns="http://www.w3.org/2000/svg" viewBox="0 0 70.77 71.7">
  <g id="Layer_1-2" data-name="Layer 1">
    <g>
      <path d="M63.03,71.7H7.74c-4.27,0-7.74-3.46-7.74-7.72V7.74C0,3.47,3.47,0,7.74,0h42.45c1.68,0,3.28.36,4.75,1.08,1.1.49,2.18,1.24,3.12,2.18l9.44,9.42c.93.93,1.67,2,2.22,3.19.68,1.43,1.05,3.06,1.05,4.69v43.4c0,4.27-3.47,7.74-7.74,7.74ZM7.74,5c-1.51,0-2.74,1.23-2.74,2.74v56.24c0,1.5,1.23,2.72,2.74,2.72h55.29c1.51,0,2.74-1.23,2.74-2.74V20.57c0-.89-.2-1.78-.58-2.57-.31-.67-.73-1.27-1.23-1.77l-9.44-9.42c-.51-.51-1.09-.92-1.71-1.19-.86-.42-1.73-.61-2.64-.61H7.74Z"/>
      <path d="M50.69,21.1h-30.61c-2.85,0-5.16-2.32-5.16-5.16V2.63c0-1.38,1.12-2.5,2.5-2.5h35.94c1.38,0,2.5,1.12,2.5,2.5v13.3c0,2.85-2.32,5.16-5.16,5.16ZM19.91,5.13v10.8c0,.09.07.16.16.16h30.61c.09,0,.16-.07.16-.16V5.13h-30.94Z"/>
      <path d="M35.38,57.5c-6.97,0-12.63-5.67-12.63-12.63s5.67-12.63,12.63-12.63,12.63,5.67,12.63,12.63-5.67,12.63-12.63,12.63ZM35.38,37.23c-4.21,0-7.63,3.42-7.63,7.63s3.42,7.63,7.63,7.63,7.63-3.42,7.63-7.63-3.42-7.63-7.63-7.63Z"/>
    </g>
  </g>
</svg>