<?xml version="1.0" encoding="UTF-8"?>
<svg id="Layer_2" data-name="Layer 2" xmlns="http://www.w3.org/2000/svg" viewBox="0 0 24.86 24.86">
  <defs>
    <style>
      .cls-1 {
        fill: #fff;
        fill-rule: evenodd;
      }
    </style>
  </defs>
  <g id="Layer_1-2" data-name="Layer 1">
    <path class="cls-1" d="M11.64,0h1.58c.37,0,.67.3.67.67l.17,1.91c.33.05.65.12.96.21.32.08.63.18.93.3l1.13-1.61c.21-.3.62-.37.92-.17l1.33.77c.3.17.41.54.27.85h0s-.83,1.79-.83,1.79c.25.21.5.43.72.66.23.23.45.47.66.73l1.79-.83c.33-.15.72-.01.88.31l.77,1.33c.17.3.08.68-.19.87h0s-1.61,1.14-1.61,1.14c.11.3.21.61.3.93.08.31.15.63.21.96l1.96.18c.35.03.61.32.61.66h0v1.58c0,.37-.3.67-.67.67l-1.9.17c-.05.33-.12.65-.21.96-.08.32-.18.63-.3.93l1.61,1.13c.3.21.37.62.17.92l-.77,1.33c-.17.3-.54.41-.85.27h0s-1.79-.83-1.79-.83c-.21.25-.43.5-.66.72-.23.23-.47.45-.72.66l.83,1.79c.15.33.01.72-.31.88l-1.33.77c-.3.17-.68.08-.87-.19h0s-1.13-1.61-1.13-1.61c-.3.11-.61.21-.93.3-.31.08-.63.15-.96.21l-.18,1.96c-.03.35-.32.61-.66.61h0s-1.58,0-1.58,0c-.37,0-.67-.3-.67-.67l-.17-1.9c-.33-.05-.65-.12-.96-.21-.32-.08-.63-.18-.93-.3l-1.13,1.61c-.21.3-.62.37-.92.17l-1.33-.77c-.3-.17-.41-.54-.27-.85h0s.83-1.79.83-1.79c-.25-.21-.49-.43-.72-.66h0c-.23-.23-.45-.47-.66-.72l-1.79.83c-.33.15-.72.01-.88-.31l-.77-1.33c-.17-.3-.08-.68.19-.87h0s1.61-1.14,1.61-1.14c-.11-.3-.21-.61-.3-.93-.08-.31-.15-.63-.21-.96l-1.96-.18c-.35-.03-.61-.32-.61-.66h0v-1.58c0-.37.3-.67.67-.67l1.91-.17c.05-.33.12-.65.21-.96.08-.32.18-.63.3-.93l-1.61-1.13c-.3-.21-.37-.62-.17-.92l.77-1.33c.17-.3.54-.41.85-.27h0s1.79.83,1.79.83c.21-.25.43-.5.66-.72.23-.23.47-.45.73-.66l-.83-1.79c-.15-.33-.01-.72.31-.88l1.33-.77c.3-.17.68-.08.87.19h0s1.13,1.61,1.13,1.61c.3-.11.61-.21.93-.3.31-.08.63-.15.96-.21l.18-1.96c.03-.35.32-.61.66-.61h0ZM16.4,8.46c-1.02-1.02-2.42-1.64-3.97-1.64s-2.95.63-3.97,1.64c-1.02,1.02-1.64,2.42-1.64,3.97s.63,2.95,1.64,3.97,2.42,1.64,3.97,1.64,2.95-.63,3.97-1.64,1.64-2.42,1.64-3.97-.63-2.95-1.64-3.97Z"/>
  </g>
</svg>