<?xml version="1.0" encoding="UTF-8"?>
<svg id="Layer_2" data-name="Layer 2" xmlns="http://www.w3.org/2000/svg" viewBox="0 0 72.39 71.27">
  <g id="Layer_1-2" data-name="Layer 1">
    <g>
      <path d="M26.74,53.48H2.5c-1.38,0-2.5-1.12-2.5-2.5v-24.24C0,12,12,0,26.74,0s26.74,12,26.74,26.74-12,26.74-26.74,26.74ZM5,48.48h21.74c11.99,0,21.74-9.75,21.74-21.74S38.73,5,26.74,5,5,14.75,5,26.74v21.74Z"/>
      <path d="M69.89,71.27h-24.25c-6.69,0-13.11-2.49-18.05-7.02-1.02-.93-1.09-2.51-.16-3.53.93-1.02,2.51-1.09,3.53-.16,4.03,3.68,9.24,5.71,14.68,5.71h21.75v-21.73c0-5.93-2.35-11.47-6.62-15.61-.99-.96-1.02-2.54-.05-3.54s2.54-1.02,3.54-.05c5.25,5.09,8.14,11.91,8.14,19.2v24.23c0,1.38-1.12,2.5-2.5,2.5Z"/>
    </g>
  </g>
</svg>