<?xml version="1.0" encoding="UTF-8"?>
<svg id="Layer_2" data-name="Layer 2" xmlns="http://www.w3.org/2000/svg" viewBox="0 0 25.63 24.49">
  <defs>
    <style>
      .cls-1 {
        fill: #fff;
        fill-rule: evenodd;
      }
    </style>
  </defs>
  <g id="Layer_1-2" data-name="Layer 1">
    <path class="cls-1" d="M10.63,1.16c.84.61,1.53,1.45,2.18,2.53.66-1.08,1.35-1.92,2.18-2.53,1.06-.77,2.31-1.16,3.95-1.16.19,0,.38,0,.58.02,1.63.13,3.14.8,4.25,1.8,1.13,1.03,1.85,2.42,1.85,3.97,0,.13,0,.26-.02.4-.36,4.53-3,6.47-5.79,8.52-2.72,2-5.6,4.12-6.26,9.14-.02.32-.27.58-.59.62-.36.04-.69-.22-.73-.59-.56-4.98-3.49-7.1-6.29-9.12h0C3.1,12.7.38,10.73.02,6.2c-.01-.14-.02-.27-.02-.4h0C0,4.25.72,2.86,1.85,1.83,2.96.82,4.47.15,6.1.02c.2-.02.39-.02.58-.02,1.65,0,2.9.39,3.95,1.16Z"/>
  </g>
</svg>