<?xml version="1.0" encoding="UTF-8"?>
<svg id="Layer_2" data-name="Layer 2" xmlns="http://www.w3.org/2000/svg" viewBox="0 0 22.66 26.35">
  <defs>
    <style>
      .cls-1 {
        fill: #fff;
        fill-rule: evenodd;
      }
    </style>
  </defs>
  <g id="Layer_1-2" data-name="Layer 1">
    <path class="cls-1" d="M21.99,7.69H0v-2c0-.92.37-1.75.98-2.35h0c.6-.6,1.44-.98,2.35-.98h4.05v-.63c0-.47.19-.9.51-1.21h0c.31-.31.74-.51,1.21-.51h4.45c.47,0,.9.19,1.21.51h0c.31.32.51.75.51,1.22v.63h4.05c.92,0,1.75.37,2.35.98.6.6.98,1.44.98,2.35v2h-.67ZM21.33,8.35v15.99c0,.55-.23,1.05-.59,1.41h0c-.36.36-.86.59-1.41.59H3.33c-.55,0-1.05-.22-1.41-.59h0c-.36-.36-.59-.86-.59-1.41v-15.99h19.99Z"/>
  </g>
</svg>