<?xml version="1.0" encoding="UTF-8"?>
<svg id="Layer_2" data-name="Layer 2" xmlns="http://www.w3.org/2000/svg" viewBox="0 0 71.88 73.24">
  <g id="Layer_1-2" data-name="Layer 1">
    <g>
      <path d="M49.52,73.24h-27.17c-3.11,0-5.65-2.53-5.65-5.65v-20.81c0-2.43,1.97-4.4,4.4-4.4h29.67c2.43,0,4.4,1.97,4.4,4.4v20.81c0,3.11-2.53,5.65-5.65,5.65ZM21.7,47.38v20.21c0,.36.29.65.65.65h27.17c.36,0,.65-.29.65-.65v-20.21h-28.47Z"/>
      <path d="M52.36,21.09H19.51c-1.55,0-2.81-1.26-2.81-2.81V5.65c0-3.11,2.53-5.65,5.65-5.65h27.17c3.11,0,5.65,2.53,5.65,5.65v12.63c0,1.55-1.26,2.81-2.81,2.81ZM21.7,16.09h28.47V5.65c0-.36-.29-.65-.65-.65h-27.17c-.36,0-.65.29-.65.65v10.44Z"/>
      <path d="M54.18,63.54h-1.52c-1.38,0-2.5-1.12-2.5-2.5s1.12-2.5,2.5-2.5h1.52c7,0,12.69-5.69,12.69-12.69v-12.06c0-7-5.69-12.69-12.69-12.69H17.69c-7,0-12.69,5.69-12.69,12.69v12.06c0,7,5.69,12.69,12.69,12.69h1.52c1.38,0,2.5,1.12,2.5,2.5s-1.12,2.5-2.5,2.5h-1.52C7.94,63.54,0,55.6,0,45.84v-12.06c0-9.76,7.94-17.69,17.69-17.69h36.49c9.75,0,17.69,7.94,17.69,17.69v12.06c0,9.76-7.94,17.69-17.69,17.69Z"/>
      <path d="M50.2,34.24h-8.22c-1.38,0-2.5-1.12-2.5-2.5s1.12-2.5,2.5-2.5h8.22c1.38,0,2.5,1.12,2.5,2.5s-1.12,2.5-2.5,2.5Z"/>
    </g>
  </g>
</svg>