<?xml version="1.0" encoding="UTF-8"?>
<svg id="Layer_2" data-name="Layer 2" xmlns="http://www.w3.org/2000/svg" viewBox="0 0 21.66 20.08">
  <defs>
    <style>
      .cls-1 {
        fill: #fff;
        fill-rule: evenodd;
      }
    </style>
  </defs>
  <g id="Layer_1-2" data-name="Layer 1">
    <path class="cls-1" d="M9.01,0h.21c2.42,0,4.62.99,6.21,2.58,1.59,1.59,2.58,3.79,2.58,6.21s-1.04,4.84-2.71,6.51c-1.67,1.67-3.98,2.71-6.51,2.71H.67c-.37,0-.67-.3-.67-.67v-8.34c0-2.48,1.01-4.73,2.65-6.36,1.63-1.63,3.88-2.65,6.36-2.65h0ZM4.57,8.22c-.68,0-1.24.55-1.24,1.24s.55,1.24,1.24,1.24,1.24-.55,1.24-1.24-.55-1.24-1.24-1.24h0ZM13.52,8.22c-.68,0-1.24.55-1.24,1.24s.55,1.24,1.24,1.24,1.24-.55,1.24-1.24-.55-1.24-1.24-1.24h0ZM9.04,8.22c-.68,0-1.24.55-1.24,1.24s.55,1.24,1.24,1.24,1.24-.55,1.24-1.24-.55-1.24-1.24-1.24h0ZM10.33,18.56c1.23.95,2.76,1.52,4.42,1.52h6.39c.29,0,.52-.23.52-.52v-6.56c0-1.95-.8-3.72-2.08-5-.32-.32-.67-.61-1.05-.87.1.54.15,1.1.15,1.67,0,1.33-.27,2.61-.75,3.77-.5,1.21-1.24,2.3-2.15,3.21-.91.91-2,1.65-3.21,2.15-.71.3-1.46.51-2.24.63Z"/>
  </g>
</svg>