<?xml version="1.0" encoding="UTF-8"?>
<svg id="Layer_2" data-name="Layer 2" xmlns="http://www.w3.org/2000/svg" viewBox="0 0 56.93 56.93">
  <defs>
    <style>
      .cls-1 {
        fill: none;
        stroke: #fff;
        stroke-linecap: round;
        stroke-linejoin: round;
        stroke-width: 6px;
      }
    </style>
  </defs>
  <g id="_Layer_" data-name="&amp;lt;Layer&amp;gt;">
    <g>
      <path class="cls-1" d="M32.4,39.45c-6.15-3.62-11.29-8.77-14.92-14.92-.68-1.16-.44-2.64.51-3.59l4.29-4.29c.97-.97,1.16-2.48.45-3.66l-3.84-6.4c-2.01-3.35-6.63-3.92-9.39-1.16l-4.72,4.72c-1.17,1.17-1.86,2.79-1.76,4.45,1.29,21.12,18.19,38.02,39.32,39.32,1.66.1,3.27-.59,4.45-1.76l4.72-4.72c2.76-2.76,2.19-7.38-1.16-9.39l-6.4-3.84c-1.18-.71-2.69-.52-3.66.45l-4.29,4.29c-.95.95-2.43,1.19-3.59.51Z"/>
      <g>
        <line class="cls-1" x1="53.93" y1="3" x2="36.19" y2="20.75"/>
        <line class="cls-1" x1="53.93" y1="20.75" x2="36.19" y2="3"/>
      </g>
    </g>
  </g>
</svg>