<?xml version="1.0" encoding="UTF-8"?>
<svg id="Layer_2" data-name="Layer 2" xmlns="http://www.w3.org/2000/svg" viewBox="0 0 22.88 25.55">
  <defs>
    <style>
      .cls-1 {
        fill: #fff;
        fill-rule: evenodd;
      }
    </style>
  </defs>
  <g id="Layer_1-2" data-name="Layer 1">
    <path class="cls-1" d="M10,0c1.68,0,3.19.68,4.29,1.78,1.1,1.1,1.78,2.62,1.78,4.29s-.68,3.19-1.78,4.29c-.5.5-1.08.91-1.73,1.21,1.26.34,2.43.92,3.45,1.69-.21.12-.38.31-.5.54l-1.42,2.81-3.05.47c-.15.02-.3.06-.43.13-.13.06-.26.15-.36.26-.26.26-.39.6-.39.94,0,.34.13.68.39.94l2.23,2.22-.49,3.07H2.2c-.61,0-1.16-.25-1.56-.65s-.65-.95-.65-1.56v-1.2c0-2.75,1.12-5.25,2.94-7.06,1.23-1.23,2.77-2.14,4.5-2.6-.65-.3-1.23-.71-1.73-1.21-1.1-1.1-1.78-2.62-1.78-4.29s.68-3.19,1.78-4.29c1.1-1.1,2.62-1.78,4.29-1.78h0ZM17.3,14.1c-.06-.12-.16-.23-.29-.29-.33-.17-.73-.03-.89.29l-1.58,3.11-3.42.53c-.15.02-.29.08-.4.19-.26.26-.26.68,0,.94l2.47,2.46-.55,3.45c-.02.13,0,.28.06.41.17.33.57.46.89.29l3.11-1.59,3.08,1.58c.13.07.28.1.43.08.36-.06.61-.4.55-.76l-.56-3.45,2.47-2.46c.1-.1.17-.22.19-.37.06-.36-.19-.7-.55-.76l-3.45-.54-1.58-3.11h0ZM16.71,24.63h0,0s0,0,0,0Z"/>
  </g>
</svg>