<?xml version="1.0" encoding="UTF-8"?>
<svg id="Layer_2" data-name="Layer 2" xmlns="http://www.w3.org/2000/svg" viewBox="0 0 74.04 71.71">
  <g id="Layer_1-2" data-name="Layer 1">
    <g>
      <path d="M37.02,39.19c-2,0-4-.45-5.82-1.34L2.66,23.87C1.02,23.06,0,21.42,0,19.6c0-1.83,1.02-3.47,2.66-4.27L31.2,1.34h0c3.64-1.79,7.99-1.79,11.64,0l28.54,13.98c1.64.81,2.66,2.44,2.66,4.27,0,1.83-1.02,3.47-2.66,4.27l-28.54,13.98c-1.82.89-3.82,1.34-5.82,1.34ZM5.31,19.59l28.09,13.77c2.27,1.11,4.97,1.11,7.24,0l28.09-13.77-28.09-13.77c-2.27-1.11-4.97-1.11-7.24,0L5.31,19.59Z"/>
      <path d="M37.01,71.71c-1.99,0-3.97-.45-5.81-1.35L1.67,55.88c-1.24-.61-1.75-2.11-1.14-3.35.61-1.24,2.1-1.75,3.35-1.14l29.53,14.48c2.29,1.12,4.94,1.12,7.26,0l29.52-14.47c1.24-.61,2.74-.09,3.35,1.14.61,1.24.1,2.74-1.14,3.35l-29.53,14.48c-1.86.9-3.85,1.35-5.84,1.35Z"/>
      <path d="M37.01,55.46c-1.99,0-3.97-.45-5.81-1.35L1.67,39.63c-1.24-.61-1.75-2.11-1.14-3.35.61-1.24,2.1-1.75,3.35-1.14l29.53,14.48c2.29,1.12,4.94,1.12,7.26,0l29.52-14.47c1.24-.61,2.74-.1,3.35,1.14.61,1.24.1,2.74-1.14,3.35l-29.53,14.48c-1.86.9-3.85,1.35-5.84,1.35Z"/>
    </g>
  </g>
</svg>