<?xml version="1.0" encoding="UTF-8"?>
<svg id="Layer_2" data-name="Layer 2" xmlns="http://www.w3.org/2000/svg" viewBox="0 0 30.02 28.09">
  <defs>
    <style>
      .cls-1 {
        fill: #fff;
        fill-rule: evenodd;
      }
    </style>
  </defs>
  <g id="Layer_1-2" data-name="Layer 1">
    <path class="cls-1" d="M7.26,4.91h0c.22,0,.46.01.71.04l.19.02c.72-1.42,1.81-2.62,3.14-3.49,1.43-.93,3.13-1.47,4.96-1.47,2.26,0,4.32.83,5.91,2.19,1.5,1.28,2.57,3.05,2.98,5.05,1.31.29,2.48.99,3.33,1.98.95,1.09,1.53,2.51,1.53,4.05,0,1.71-.7,3.25-1.82,4.36-1.12,1.12-2.67,1.81-4.38,1.81h0c-1,0-6.92,0-11.51,0-2.57,0-4.73,0-5.35-.01-1.91-.03-3.63-.88-4.89-2.19-1.28-1.34-2.08-3.16-2.08-5.06,0-2,.82-3.81,2.13-5.13,1.32-1.32,3.13-2.13,5.13-2.13h0ZM20.73,20.94c.21-.3.63-.37.93-.15.3.21.37.63.15.93l-1.52,2.12c-.21.3-.63.37-.93.15-.3-.21-.37-.63-.15-.93l1.52-2.12h0ZM17.87,24.92c.21-.3.63-.37.93-.15.3.21.37.63.15.93l-1.52,2.12c-.21.3-.63.37-.93.15-.3-.21-.37-.63-.15-.93l1.52-2.12h0ZM15.1,20.94c.21-.3.63-.37.93-.15.3.21.37.63.15.93l-1.52,2.12c-.21.3-.63.37-.93.15-.3-.21-.37-.63-.15-.93l1.52-2.12h0ZM12.24,24.92c.21-.3.63-.37.93-.15.3.21.37.63.15.93l-1.52,2.12c-.21.3-.63.37-.93.15-.3-.21-.37-.63-.15-.93l1.52-2.12h0ZM9.47,20.94c.21-.3.63-.37.93-.15.3.21.37.63.15.93l-1.52,2.12c-.21.3-.63.37-.93.15-.3-.21-.37-.63-.15-.93l1.52-2.12h0ZM6.62,24.92c.21-.3.63-.37.93-.15.3.21.37.63.15.93l-1.52,2.12c-.21.3-.63.37-.93.15-.3-.21-.37-.63-.15-.93l1.52-2.12Z"/>
  </g>
</svg>