<?xml version="1.0" encoding="UTF-8"?>
<svg id="Layer_2" data-name="Layer 2" xmlns="http://www.w3.org/2000/svg" viewBox="0 0 72.79 69.95">
  <g id="Layer_1-2" data-name="Layer 1">
    <g>
      <path d="M36.39,69.95c-1.63,0-3.26-.24-4.84-.72l-20.72-6.31c-6.48-1.97-10.83-7.85-10.83-14.62V9.57C0,6.51,1.41,3.71,3.87,1.89,6.33.06,9.42-.47,12.35.42l20.66,6.3c2.21.67,4.55.68,6.77,0L60.44.42c2.93-.89,6.02-.36,8.48,1.46,2.46,1.82,3.87,4.62,3.87,7.68v38.72c0,6.77-4.35,12.65-10.83,14.63l-20.72,6.31c-1.58.48-3.21.72-4.84.72ZM9.55,5c-.96,0-1.9.31-2.7.9-1.17.87-1.85,2.21-1.85,3.67v38.72c0,4.56,2.93,8.51,7.29,9.84l20.72,6.31c2.21.68,4.55.68,6.77,0l20.72-6.31c4.36-1.33,7.29-5.28,7.29-9.84V9.57c0-1.46-.67-2.8-1.85-3.67-1.17-.87-2.65-1.12-4.04-.7h0l-20.66,6.3c-3.17.96-6.52.96-9.68,0L10.89,5.21c-.44-.14-.9-.2-1.34-.2ZM61.17,2.81h0,0Z"/>
      <path d="M36.39,69.8c-1.38,0-2.5-1.12-2.5-2.5V9.72c0-1.38,1.12-2.5,2.5-2.5s2.5,1.12,2.5,2.5v57.58c0,1.38-1.12,2.5-2.5,2.5Z"/>
    </g>
  </g>
</svg>