<?xml version="1.0" encoding="UTF-8"?>
<svg id="Layer_2" data-name="Layer 2" xmlns="http://www.w3.org/2000/svg" viewBox="0 0 21.97 27.46">
  <defs>
    <style>
      .cls-1 {
        fill: #fff;
        fill-rule: evenodd;
      }
    </style>
  </defs>
  <g id="Layer_1-2" data-name="Layer 1">
    <path class="cls-1" d="M1.33,17.75h1.81c.73,0,1.33.6,1.33,1.33v7.04c0,.53.29.98.77,1.21.48.22,1.01.15,1.42-.18l14.83-12.39c.31-.26.48-.61.48-1.02s-.16-.76-.48-1.02L6.66.31c-.41-.34-.94-.41-1.42-.18-.48.22-.77.68-.77,1.21v7.04c0,.73-.6,1.33-1.33,1.33h-1.81c-.73,0-1.33.6-1.33,1.33v5.39c0,.73.6,1.33,1.33,1.33Z"/>
  </g>
</svg>