<?xml version="1.0" encoding="UTF-8"?>
<svg id="Layer_2" data-name="Layer 2" xmlns="http://www.w3.org/2000/svg" viewBox="0 0 30.68 27.29">
  <defs>
    <style>
      .cls-1 {
        fill: #fff;
        fill-rule: evenodd;
      }
    </style>
  </defs>
  <g id="Layer_1-2" data-name="Layer 1">
    <path class="cls-1" d="M.73,10.15h4.21L13.37,2.87c-.09-.23-.13-.48-.13-.74,0-1.17.94-2.13,2.11-2.13s2.11.95,2.11,2.13c0,.26-.05.5-.13.73l8.57,7.29h4.06c.4,0,.73.33.73.73v15.68c0,.4-.33.73-.73.73H.73c-.4,0-.73-.33-.73-.73v-15.68c0-.4.33-.73.73-.73h0ZM7.52,19.72c0-.14-.05-.25-.14-.34-.09-.09-.21-.14-.34-.14-.15,0-.27.05-.33.14-.07.09-.13.21-.18.35-.11.31-.28.54-.49.69-.22.16-.49.24-.8.24-.29,0-.55-.07-.77-.21-.22-.14-.39-.35-.5-.63-.12-.28-.18-.63-.18-1.06,0-.63.13-1.12.4-1.47.27-.34.63-.52,1.08-.52.28,0,.52.07.72.2.19.13.36.34.51.61.09.16.16.28.24.35.07.07.18.1.32.1.13,0,.23-.05.32-.14.09-.1.13-.21.13-.33,0-.23-.09-.47-.27-.73-.18-.26-.45-.48-.79-.65-.34-.18-.74-.26-1.18-.26-.36,0-.7.06-1.02.19-.32.13-.6.32-.83.56-.24.25-.42.54-.55.89-.13.35-.19.74-.19,1.18,0,.27.03.52.08.77.05.24.13.47.23.68.1.21.22.4.37.57.16.19.34.34.53.45.19.12.4.2.64.25.24.05.5.08.78.08.38,0,.71-.06,1-.18.28-.12.52-.28.7-.47.18-.19.32-.39.4-.59.09-.2.13-.39.13-.56h0ZM9.59,16.57c0-.22-.05-.39-.15-.5-.1-.11-.24-.16-.4-.16s-.3.06-.4.17-.15.28-.15.5v4.19c0,.24.05.41.16.52.11.11.28.16.52.16h2.66c.18,0,.32-.04.41-.12.09-.08.14-.19.14-.32s-.05-.24-.14-.33c-.09-.09-.23-.13-.41-.13h-2.23v-3.96h0ZM15.12,15.91c-.42,0-.79.06-1.11.19-.33.13-.6.32-.83.56-.23.25-.4.54-.52.89-.12.35-.18.73-.18,1.15s.06.79.17,1.14c.11.35.28.65.51.9.23.25.51.44.84.58.34.14.72.21,1.14.21s.81-.07,1.14-.2c.33-.13.61-.33.84-.58.23-.25.4-.55.51-.89.11-.34.17-.73.17-1.15,0-.57-.1-1.06-.31-1.49-.21-.42-.51-.75-.92-.98-.4-.23-.89-.34-1.45-.34h0ZM16.68,18.7c0-.4-.06-.74-.19-1.04-.13-.29-.31-.51-.55-.66-.24-.15-.51-.22-.82-.22-.22,0-.42.04-.61.12-.19.08-.35.2-.48.36-.13.16-.24.36-.32.61-.08.25-.12.52-.12.83s.04.59.12.84c.08.25.19.46.33.62.14.16.31.29.49.37.18.08.39.12.61.12.28,0,.54-.07.78-.21.24-.14.42-.36.56-.65.14-.29.21-.66.21-1.09h0ZM22.88,19.81c0-.27-.05-.51-.15-.7-.1-.19-.23-.35-.41-.47-.17-.12-.39-.23-.63-.32-.25-.09-.53-.17-.83-.24-.24-.06-.42-.11-.53-.14-.11-.03-.21-.08-.32-.13-.1-.06-.19-.13-.25-.2-.06-.08-.09-.17-.09-.28,0-.18.09-.33.26-.45.17-.13.4-.19.69-.19.31,0,.53.06.67.17.14.12.26.28.36.48.08.14.15.25.21.31.07.06.16.09.29.09.14,0,.25-.05.35-.16.09-.11.14-.22.14-.35,0-.14-.04-.29-.11-.44-.07-.15-.19-.3-.35-.43-.16-.14-.36-.25-.61-.33-.24-.08-.53-.12-.87-.12-.42,0-.78.06-1.09.19-.31.13-.55.3-.71.54-.16.23-.24.5-.24.8,0,.32.08.58.23.79.15.21.36.38.63.5.26.12.59.23.98.32.29.07.53.13.7.19.17.06.32.15.43.26.11.11.16.26.16.44,0,.23-.1.42-.31.57-.2.15-.47.23-.8.23-.24,0-.43-.04-.58-.11-.15-.08-.26-.17-.34-.29-.08-.12-.16-.26-.22-.43-.06-.15-.13-.26-.21-.33-.08-.07-.18-.11-.29-.11-.14,0-.26.05-.35.14-.09.1-.14.21-.14.34,0,.23.08.47.23.71.15.24.35.44.6.58.35.2.79.3,1.33.3.45,0,.83-.07,1.16-.22.33-.15.58-.35.74-.62.17-.26.25-.56.25-.89h0ZM27.4,16.85c.18,0,.31-.04.39-.12.08-.08.13-.18.13-.31s-.04-.23-.13-.31c-.08-.08-.22-.12-.39-.12h-2.91c-.16,0-.28.02-.38.07-.1.05-.17.12-.22.22-.05.1-.07.23-.07.39v4.09c0,.24.05.41.16.52.11.11.28.16.52.16h2.99c.17,0,.3-.04.39-.12.09-.08.13-.18.13-.31s-.04-.24-.13-.32c-.09-.08-.22-.12-.39-.12h-2.57v-1.55h2.29c.17,0,.3-.04.38-.12.08-.08.12-.18.12-.3s-.04-.22-.12-.3c-.08-.07-.21-.11-.38-.11h-2.29v-1.34h2.48ZM7.16,10.15h16.49l-7.26-6.18c-.31.18-.67.28-1.05.28s-.73-.1-1.03-.27l-7.15,6.17Z"/>
  </g>
</svg>