<?xml version="1.0" encoding="UTF-8"?>
<svg id="Layer_2" data-name="Layer 2" xmlns="http://www.w3.org/2000/svg" viewBox="0 0 61.42 72.1">
  <g id="Layer_1-2" data-name="Layer 1">
    <g>
      <path d="M58.92,17.6H2.5c-1.38,0-2.5-1.12-2.5-2.5s1.12-2.5,2.5-2.5h56.42c1.38,0,2.5,1.12,2.5,2.5s-1.12,2.5-2.5,2.5Z"/>
      <path d="M47.51,72.1H13.91c-3.44,0-6.24-2.8-6.24-6.24V15.1c0-1.38,1.12-2.5,2.5-2.5h41.08c1.38,0,2.5,1.12,2.5,2.5v50.76c0,3.44-2.8,6.24-6.24,6.24ZM12.67,17.6v48.26c0,.69.56,1.24,1.24,1.24h33.6c.69,0,1.24-.56,1.24-1.24V17.6H12.67Z"/>
      <path d="M44.68,17.6h-27.94c-1.38,0-2.5-1.12-2.5-2.5v-7.13c0-4.39,3.57-7.97,7.97-7.97h17.01c4.39,0,7.97,3.57,7.97,7.97v7.13c0,1.38-1.12,2.5-2.5,2.5ZM19.24,12.6h22.94v-4.63c0-1.64-1.33-2.97-2.97-2.97h-17.01c-1.64,0-2.97,1.33-2.97,2.97v4.63Z"/>
      <path d="M37.56,52.9c-1.38,0-2.5-1.12-2.5-2.5v-16.09c0-1.38,1.12-2.5,2.5-2.5s2.5,1.12,2.5,2.5v16.09c0,1.38-1.12,2.5-2.5,2.5Z"/>
      <path d="M23.86,52.9c-1.38,0-2.5-1.12-2.5-2.5v-16.09c0-1.38,1.12-2.5,2.5-2.5s2.5,1.12,2.5,2.5v16.09c0,1.38-1.12,2.5-2.5,2.5Z"/>
    </g>
  </g>
</svg>