<?xml version="1.0" encoding="UTF-8"?>
<svg id="Layer_2" data-name="Layer 2" xmlns="http://www.w3.org/2000/svg" viewBox="0 0 24.14 30.75">
  <defs>
    <style>
      .cls-1 {
        fill: #fff;
        fill-rule: evenodd;
      }
    </style>
  </defs>
  <g id="Layer_1-2" data-name="Layer 1">
    <path class="cls-1" d="M16.19,15.14l-1.16,15.18c-.02.26-.24.45-.5.43l-7.38-.57c-.26-.02-.45-.24-.43-.5l1.16-15.18-7.45-.57c-.11,0-.21-.05-.29-.13-.18-.18-.19-.47,0-.66L12.79.14s.04-.04.07-.06c.21-.15.5-.1.65.11l10.53,14.76c.07.09.11.2.1.33-.02.26-.24.45-.5.43l-7.45-.57Z"/>
  </g>
</svg>