<?xml version="1.0" encoding="UTF-8"?>
<svg id="Layer_2" data-name="Layer 2" xmlns="http://www.w3.org/2000/svg" viewBox="0 0 25.54 19.4">
  <defs>
    <style>
      .cls-1 {
        fill: #fff;
        fill-rule: evenodd;
      }
    </style>
  </defs>
  <g id="Layer_1-2" data-name="Layer 1">
    <path class="cls-1" d="M6.45,0h9.31c1.77,0,3.38.73,4.55,1.89,1.17,1.17,1.89,2.78,1.89,4.55s-.73,3.39-1.89,4.55-2.78,1.89-4.55,1.89H6.6l-4.14,4.43c-.17.2-.44.29-.7.21-.35-.11-.55-.48-.44-.83l1.5-4.94c-.79-.54-1.45-1.26-1.94-2.09-.55-.95-.87-2.06-.87-3.23,0-1.77.73-3.38,1.89-4.55C3.06.73,4.67,0,6.45,0h0ZM8.11,13.56c.09.11.19.21.29.31.99.99,2.35,1.6,3.84,1.6h7.73l3.49,3.73c.14.17.37.24.59.17.3-.09.46-.4.37-.7l-1.27-4.16c.67-.46,1.23-1.06,1.63-1.76.47-.8.74-1.73.74-2.72,0-1.5-.61-2.86-1.6-3.84-.35-.35-.74-.64-1.16-.89.06.37.09.76.09,1.15,0,.96-.19,1.87-.54,2.71-.36.87-.89,1.66-1.55,2.31-1.29,1.29-3.07,2.09-5.02,2.09h-7.64Z"/>
  </g>
</svg>