<?xml version="1.0" encoding="UTF-8"?>
<svg id="Layer_2" data-name="Layer 2" xmlns="http://www.w3.org/2000/svg" viewBox="0 0 24.9 24.59">
  <defs>
    <style>
      .cls-1 {
        fill: #fff;
        fill-rule: evenodd;
      }
    </style>
  </defs>
  <g id="Layer_1-2" data-name="Layer 1">
    <path class="cls-1" d="M21.99,4.21c-.65.61-1.37,1.16-2.13,1.64.88,1.72,1.42,3.63,1.53,5.67h3.5c-.17-2.73-1.2-5.22-2.82-7.2l-.09-.11h0ZM18.51,6.6c-.18.09-.37.17-.55.25-1.47.63-3.06,1.02-4.73,1.11v3.55h6.61c-.11-1.76-.57-3.42-1.33-4.91h0ZM11.67,7.97c-1.67-.09-3.26-.48-4.73-1.11-.19-.08-.37-.16-.55-.25-.75,1.49-1.22,3.15-1.33,4.91h6.61v-3.55h0ZM5.03,5.85c-.76-.48-1.47-1.03-2.13-1.64l-.09.11C1.2,6.3.17,8.79,0,11.51h3.5c.11-2.03.65-3.95,1.53-5.67h0ZM4.63,2.51l.05-.04h0s.05-.04.05-.04l.05-.04h0s.05-.04.05-.04h0s.08-.07.08-.07l.02-.02.05-.03h0s.05-.05.05-.05h0s.06-.05.06-.05l.09-.06h.01c1.38-1,2.98-1.72,4.7-2.07.17.04.34.07.5.12-1.43.84-2.69,1.93-3.74,3.21-.31.38-.6.77-.87,1.18-.66-.42-1.27-.89-1.84-1.42.21-.2.43-.39.66-.57h0ZM7.18,5.25c.12.06.24.11.37.17,1.28.55,2.67.89,4.12.98V1.2c-1.46.78-2.75,1.84-3.8,3.12-.25.3-.48.61-.7.94h0ZM13.22,6.4c1.46-.09,2.85-.43,4.12-.98.12-.05.25-.11.37-.17-.22-.32-.45-.64-.7-.94-1.04-1.27-2.33-2.34-3.8-3.12v5.2h0ZM19.08,4.5c-.27-.41-.56-.8-.87-1.18-1.05-1.28-2.31-2.37-3.74-3.21.17-.04.33-.08.5-.12,1.77.37,3.4,1.11,4.81,2.15h0s.04.04.04.04l.05.04h0s0,0,0,0l.09.07h0s0,.01,0,.01h.02s.08.08.08.08h0s.05.04.05.04l.05.04h0s.05.04.05.04l.05.04h0s.05.04.05.04l.05.04.05.04.05.04h0s.05.05.05.05l.05.04h0s.05.05.05.05c.08.07.17.15.25.22-.57.53-1.18,1.01-1.84,1.42h0ZM2.9,20.38c.65-.61,1.37-1.16,2.13-1.64-.88-1.71-1.42-3.63-1.53-5.67H0c.17,2.73,1.2,5.22,2.82,7.2l.09.11h0ZM6.39,17.99c.18-.09.37-.17.55-.25,1.47-.63,3.06-1.02,4.73-1.11v-3.55h-6.61c.11,1.76.57,3.42,1.33,4.91h0ZM13.22,16.63c1.67.09,3.26.48,4.73,1.11.19.08.37.16.55.25.75-1.49,1.22-3.15,1.33-4.91h-6.61v3.55h0ZM19.87,18.74c.76.48,1.47,1.03,2.13,1.64l.09-.11c1.62-1.98,2.65-4.47,2.82-7.2h-3.5c-.11,2.03-.65,3.95-1.53,5.67h0ZM20.78,21.64l-.02.02-.09.08-.05.04h0s-.05.04-.05.04l-.05.04h0s0,0,0,0l-.08.07h-.02s0,.01,0,.01l-.05.04-.05.04h0s-.1.08-.1.08h0c-.07.06-.14.11-.2.16h0c-1.46,1.12-3.17,1.92-5.03,2.31-.17-.03-.34-.07-.5-.12,1.43-.84,2.69-1.93,3.74-3.21.31-.38.6-.77.87-1.18.66.42,1.27.89,1.84,1.42l-.14.13h0ZM17.72,19.34c-.12-.06-.25-.11-.37-.17-1.28-.55-2.67-.89-4.12-.98v5.2c1.46-.78,2.75-1.84,3.8-3.12.25-.3.48-.61.7-.94h0ZM11.67,18.19c-1.46.09-2.85.43-4.12.98-.12.05-.25.11-.37.17.22.32.45.64.7.94,1.04,1.27,2.33,2.34,3.8,3.12v-5.2h0ZM5.81,20.09c.27.41.56.8.87,1.18,1.05,1.28,2.31,2.37,3.74,3.21-.17.04-.33.08-.5.12-1.77-.37-3.4-1.11-4.81-2.15h0s-.1-.08-.1-.08h0s-.1-.08-.1-.08h0s0,0,0,0l-.09-.07h0s-.09-.08-.09-.08h0s0,0,0,0l-.05-.04-.05-.04h0s-.05-.04-.05-.04h0s-.09-.08-.09-.08h0s-.05-.05-.05-.05h0s-.05-.05-.05-.05l-.05-.04-.05-.04c-.08-.07-.17-.15-.25-.22.57-.53,1.18-1.01,1.84-1.42Z"/>
  </g>
</svg>