<?xml version="1.0" encoding="UTF-8"?>
<svg id="Layer_2" data-name="Layer 2" xmlns="http://www.w3.org/2000/svg" viewBox="0 0 60 60">
  <defs>
    <style>
      .cls-1 {
        fill: none;
        stroke: #333;
        stroke-linecap: round;
        stroke-linejoin: round;
        stroke-width: 6px;
      }
    </style>
  </defs>
  <g id="_Layer_" data-name="&amp;lt;Layer&amp;gt;">
    <g>
      <path class="cls-1" d="M45,48h6c3.31,0,6-2.69,6-6h0c0-3.31-2.69-6-6-6h0c-1.66,0-3-1.34-3-3v-12c0-9.94-8.06-18-18-18h0c-9.94,0-18,8.06-18,18v12c0,1.66-1.34,3-3,3h0c-3.31,0-6,2.69-6,6h0c0,3.31,2.69,6,6,6h6"/>
      <g>
        <line class="cls-1" x1="39" y1="39" x2="21" y2="57"/>
        <line class="cls-1" x1="39" y1="57" x2="21" y2="39"/>
      </g>
    </g>
  </g>
</svg>