<?xml version="1.0" encoding="UTF-8"?>
<svg id="Layer_2" data-name="Layer 2" xmlns="http://www.w3.org/2000/svg" viewBox="0 0 26.01 26.01">
  <defs>
    <style>
      .cls-1 {
        fill: #fff;
        fill-rule: evenodd;
      }
    </style>
  </defs>
  <g id="Layer_1-2" data-name="Layer 1">
    <path class="cls-1" d="M2.79,0h6.86c.77,0,1.46.31,1.97.82l.04.05c.48.5.78,1.18.78,1.92v6.86c0,.76-.31,1.46-.82,1.97h0c-.51.51-1.2.82-1.96.82H2.79c-.77,0-1.46-.31-1.97-.82h0c-.5-.5-.82-1.2-.82-1.97V2.79c0-.77.31-1.46.82-1.97h0c.5-.51,1.2-.82,1.97-.82h0ZM2.79,13.58h6.86c.77,0,1.46.31,1.97.82l.04.05c.48.5.78,1.18.78,1.92v6.86c0,.77-.31,1.46-.82,1.97h0c-.5.51-1.2.82-1.97.82H2.79c-.77,0-1.46-.31-1.97-.82h0c-.5-.51-.82-1.2-.82-1.97v-6.86c0-.77.31-1.46.82-1.97h0c.5-.51,1.2-.82,1.97-.82h0ZM16.37,13.58h6.86c.77,0,1.46.31,1.97.82h0c.5.51.82,1.2.82,1.97v6.86c0,.77-.31,1.46-.82,1.97h0c-.5.51-1.2.82-1.97.82h-6.86c-.77,0-1.46-.31-1.97-.82h0c-.5-.51-.82-1.2-.82-1.97v-6.86c0-.77.31-1.46.82-1.97h0c.51-.51,1.2-.82,1.97-.82h0ZM16.37,0h6.86c.77,0,1.46.31,1.97.82h0c.5.51.82,1.2.82,1.97v6.86c0,.77-.31,1.46-.82,1.97l-.05.04c-.5.48-1.18.78-1.92.78h-6.86c-.77,0-1.46-.31-1.97-.82h0c-.5-.5-.82-1.2-.82-1.97V2.79c0-.77.31-1.46.82-1.97h0c.51-.51,1.2-.82,1.97-.82Z"/>
  </g>
</svg>