<?xml version="1.0" encoding="UTF-8"?>
<svg id="Layer_2" data-name="Layer 2" xmlns="http://www.w3.org/2000/svg" viewBox="0 0 24.49 24.49">
  <defs>
    <style>
      .cls-1 {
        fill: #fff;
        fill-rule: evenodd;
      }
    </style>
  </defs>
  <g id="Layer_1-2" data-name="Layer 1">
    <path class="cls-1" d="M12.24,5.22c1,0,1.9.4,2.56,1.06h0c.65.66,1.06,1.56,1.06,2.56s-.4,1.9-1.06,2.55h0c-.13.14-.28.26-.43.37.73.29,1.39.73,1.94,1.28,1.04,1.04,1.69,2.48,1.69,4.07v.66c0,.41-.17.79-.44,1.06h0c-.27.27-.65.44-1.06.44H7.99c-.41,0-.79-.17-1.06-.44h0c-.27-.28-.44-.65-.44-1.06v-.66c0-1.58.65-3.02,1.69-4.07.55-.55,1.21-.99,1.94-1.28-.15-.11-.3-.23-.43-.37h0c-.65-.66-1.06-1.56-1.06-2.56s.4-1.9,1.06-2.55h0c.65-.66,1.56-1.06,2.56-1.06h0ZM12.24,0c-3.38,0-6.44,1.37-8.66,3.59C1.37,5.8,0,8.86,0,12.24c0,1.43.25,2.81.7,4.09.03.2.1.38.21.54.62,1.52,1.54,2.89,2.68,4.03,2.22,2.22,5.28,3.59,8.66,3.59s6.44-1.37,8.66-3.59c1.14-1.14,2.06-2.51,2.68-4.03.11-.16.18-.34.21-.54.45-1.28.7-2.65.7-4.09,0-3.38-1.37-6.44-3.59-8.66S15.63,0,12.24,0h0ZM6.87,11.82c.23.11.44.24.65.39l.06.05c.27.25.29.67.04.94-.44.49-.8,1.05-1.05,1.67-.23.58-.37,1.21-.4,1.86v.04c0,.37-.3.67-.67.67h-2.87c.51.93,1.14,1.79,1.89,2.53,1.97,1.97,4.7,3.2,7.72,3.2s5.74-1.22,7.72-3.2c.74-.74,1.38-1.6,1.89-2.53h-2.87c-.37,0-.67-.3-.67-.67v-.04c-.02-.65-.16-1.28-.4-1.86-.25-.62-.61-1.18-1.05-1.67-.25-.27-.23-.69.04-.94.02-.02.04-.03.06-.05.2-.15.42-.28.65-.39-.03-.03-.06-.05-.08-.08h0c-.5-.51-.81-1.2-.81-1.96s.31-1.46.81-1.96c.5-.5,1.2-.81,1.96-.81s1.46.31,1.96.81h0c.5.51.81,1.2.81,1.96s-.31,1.46-.81,1.96c-.03.03-.06.05-.08.08.43.21.83.49,1.16.83.21.21.4.44.56.69.04-.36.06-.73.06-1.1,0-3.01-1.22-5.74-3.2-7.72-1.97-1.97-4.7-3.2-7.72-3.2s-5.74,1.22-7.72,3.2c-1.97,1.97-3.2,4.7-3.2,7.72,0,.37.02.74.06,1.1.16-.25.35-.48.56-.69.34-.34.73-.62,1.16-.83-.03-.03-.06-.05-.08-.08-.5-.5-.81-1.2-.81-1.96s.31-1.46.81-1.96h0c.5-.5,1.2-.82,1.96-.82s1.46.31,1.96.81.81,1.2.81,1.96-.31,1.46-.81,1.96h0s-.06.06-.08.08Z"/>
  </g>
</svg>