<?xml version="1.0" encoding="UTF-8"?>
<svg id="Layer_2" data-name="Layer 2" xmlns="http://www.w3.org/2000/svg" viewBox="0 0 29.27 24.08">
  <defs>
    <style>
      .cls-1 {
        fill: #fff;
        fill-rule: evenodd;
      }
    </style>
  </defs>
  <g id="Layer_1-2" data-name="Layer 1">
    <path class="cls-1" d="M15.99,10.78l9.11-2.8s.1-.04.14-.06h.02s0-.02,0-.02h0s0,0,0,0h0s0,0,0,0h0s0,0,0,0h0s0,0,0,0h0s0,0,0,0h0s0,0,0,0h0s0,0,0,0h0s0,0,0,0h0s0,0,0,0h0s0,0,0,0h0s0,0,0,0h0s0,0,0,0h0s0,0,0,0h0s0,0,0,0h0s0,0,0,0h0s0,0,0,0h0s0,0,0,0h0s0,0,0,0h0s0,0,0,0h0s0,0,0,0h0s0,0,0,0h0s0,0,0,0h0s0,0,0,0h0s0,0,0,0h0s0,0,0,0h0s0,0,0,0h0s0,0,0,0h0s.01-.02.01-.02h0s0,0,0,0h0s0-.02,0-.02h0s0-.01,0-.01h0s0,0,0,0h0s0,0,0,0h0s0,0,0,0h0s0,0,0,0h0s0,0,0,0h0s0,0,0,0v-.02s0,0,0,0h0s0-.01,0-.01h0s0-.01,0-.01h0s0,0,0,0h0s0,0,0,0h0s0,0,0,0h0s0,0,0,0h0s0-.02,0-.02h0s0,0,0,0h0s0,0,0,0h0s0,0,0,0h0c.1-.4-.13-.79-.52-.9h-.05s0-.01,0-.01l-10.15-2.64h0s0,0,0,0h0s0,0,0,0h0s0,0,0,0h0s0,0,0,0h0s0,0,0,0h0s0,0,0,0h0s0,0,0,0h0s0,0,0,0h0s0,0,0,0h0s0,0,0,0h0s0,0,0,0h0s0,0,0,0h0s0,0,0,0h0s0,0,0,0h0s0,0,0,0h0s0,0,0,0h0s0,0,0,0h0s0,0,0,0h0s0,0,0,0h0s0,0,0,0h0s0,0,0,0h0s0,0,0,0h0s0,0,0,0h0s0,0,0,0h0s0,0,0,0h0s0,0,0,0h0s0,0,0,0h0s0,0,0,0h0s0,0,0,0h0s0,0,0,0h0s0,0,0,0h0s0,0,0,0h-.01s0,0,0,0h-.02s0,0,0,0h0s0,0,0,0h0s0,0,0,0h0s0,0,0,0h0s0,0,0,0h0s0,0,0,0h0s0,0,0,0h0s0,0,0,0h0s0,0,0,0h0s0,0,0,0h0s0,0,0,0h0s0,0,0,0h0s0,0,0,0h0s0,0,0,0h0s0,0,0,0h0s0,0,0,0h0s0,0,0,0h0s0,0,0,0h0s0,0,0,0h0s0,0,0,0h0s0,0,0,0h0s0,0,0,0h0s0,0,0,0h0s0,0,0,0h0s0,0,0,0h0s0,0,0,0h0s0,0,0,0h0s0,0,0,0h0s0,0,0,0h0s0,0,0,0h0s0,0,0,0h0s0,0,0,0h0s0,0,0,0l-10.15,2.64h0s-.05.01-.05.01c-.39.1-.62.5-.52.89h0s0,.01,0,.01h0s0,0,0,0h0s0,0,0,0h0s0,0,0,0h0s0,0,0,0h0s0,0,0,0h0s0,0,0,0h0s0,0,0,0h0s0,0,0,0h0s0,0,0,0h0s0,.01,0,.01h0s0,.01,0,.01h0s0,0,0,0h0s0,0,0,0h0s0,0,0,0h0s0,0,0,0h0s0,0,0,0h0s0,0,0,0h0s0,0,0,0h0s0,0,0,0h0s0,0,0,0h0s0,0,0,0h0s0,0,0,0h0s0,0,0,0h0s0,0,0,0h0s0,.01,0,.01h0s0,0,0,0h0s0,0,0,0h0s0,0,0,0h0s0,0,0,0h0s0,0,0,0h0s0,.01,0,.01h0s0,0,0,0h0s0,0,0,0h0s0,0,0,0h0s0,0,0,0h0s0,0,0,0h0s0,0,0,0h0s0,0,0,0h0s0,0,0,0h0s0,0,0,0h0s0,0,0,0h0c.09.1.2.17.32.21l10.1,3.11-.03-.04c.05.03.11.06.17.08h0s0,0,0,0h0s0,0,0,0h0s0,0,0,0h0s0,0,0,0h0s0,0,0,0h0s0,0,0,0h0s0,0,0,0h0s0,0,0,0h0s0,0,0,0h0s0,0,0,0h0s0,0,0,0h0s0,0,0,0h0s0,0,0,0h0s0,0,0,0h.02s0,0,0,0h0s0,0,0,0h0s0,0,0,0h0s0,0,0,0h0s0,0,0,0h.04s0,0,0,0h0s0,0,0,0h0s0,0,0,0h0s0,0,0,0h0s0,0,0,0h0s0,0,0,0h0s0,0,0,0h0s0,0,0,0h0s0,0,0,0h0s0,0,0,0h0s0,0,0,0h0s0,0,0,0h0s0,0,0,0h0s0,0,0,0h0s0,0,0,0h0s0,0,0,0h0s0,0,0,0h0s0,0,0,0h0s0,0,0,0h0c.06-.02.11-.05.16-.08l-.03.03.99-.31h0ZM13.91,4.82v5.4l-9.52-2.93,9.52-2.47h0ZM15.36,4.82l9.52,2.47-9.52,2.93v-5.4h0ZM3.46,7.36L.19,3.85c-.27-.29-.26-.75.04-1.03.09-.09.2-.14.32-.17L10.81.02c.29-.07.59.04.76.26l3.07,3.28,3.07-3.28c.17-.22.47-.34.76-.26l10.26,2.63c.11.03.22.09.32.17.29.27.31.73.04,1.03l-3.26,3.51,2.93,4.34c.04.06.07.12.09.19.12.38-.09.79-.47.91l-9.87,3.18c-.3.12-.66.02-.86-.25l-3-4.13-3,4.13c-.2.27-.55.37-.86.25L.91,12.8c-.38-.12-.59-.53-.47-.91.02-.07.05-.13.09-.18l2.93-4.34h0ZM14.39,24.05h0s0,0,0,0h0s0,0,0,0h.01s0,0,0,0h.01s0,0,0,0h.01s0,0,0,0h.01s0-11.04,0-11.04l-.58.8-1.68,2.31c-.2.27-.47.45-.77.54h0c-.3.09-.63.08-.93-.04l-6.85-2.2.02,5.44c0,.32.21.59.49.69l10.21,3.47h0ZM14.78,13.04v11.05h.01s0,0,0,0h.01s0,0,0,0h.01s0,0,0,0h.01s0,0,0,0h0s0,0,0,0h0s10.21-3.48,10.21-3.48c.29-.1.49-.37.49-.69l.02-5.44-6.85,2.2c-.3.12-.63.13-.93.04h0c-.3-.09-.57-.27-.77-.54l-1.68-2.31-.58-.8Z"/>
  </g>
</svg>