<?xml version="1.0" encoding="UTF-8"?>
<svg id="Layer_2" data-name="Layer 2" xmlns="http://www.w3.org/2000/svg" viewBox="0 0 49.92 70.46">
  <g id="Layer_1-2" data-name="Layer 1">
    <g>
      <path d="M24.96,61.9c-.16,0-.33-.01-.49-.04-.16-.04-.32-.09-.47-.15-.15-.06-.29-.14-.43-.23-.13-.09-.26-.19-.38-.31-.11-.11-.22-.24-.31-.38-.09-.13-.17-.28-.23-.43s-.11-.31-.14-.47c-.03-.16-.05-.32-.05-.49,0-.16.02-.32.05-.48.03-.16.08-.32.14-.47s.14-.3.23-.43c.09-.14.2-.27.31-.38.12-.12.25-.22.38-.31.14-.09.28-.17.43-.23.15-.07.31-.12.47-.15.82-.16,1.68.11,2.26.69.11.11.22.24.31.38.09.13.17.28.23.43s.11.31.14.47c.03.16.05.32.05.48,0,.17-.02.33-.05.49-.03.16-.08.32-.14.47s-.14.3-.23.43c-.09.14-.2.27-.31.38-.47.47-1.11.73-1.77.73Z"/>
      <path d="M41.89,70.46H8.02c-4.42,0-8.02-3.6-8.02-8.02V8.02C0,3.6,3.6,0,8.02,0h33.87c4.42,0,8.02,3.6,8.02,8.02v54.41c0,4.42-3.6,8.02-8.02,8.02ZM8.02,5c-1.67,0-3.02,1.36-3.02,3.02v54.41c0,1.67,1.36,3.02,3.02,3.02h33.87c1.67,0,3.02-1.36,3.02-3.02V8.02c0-1.67-1.36-3.02-3.02-3.02H8.02Z"/>
      <path d="M47.42,53.63H2.5c-1.38,0-2.5-1.12-2.5-2.5s1.12-2.5,2.5-2.5h44.92c1.38,0,2.5,1.12,2.5,2.5s-1.12,2.5-2.5,2.5Z"/>
    </g>
  </g>
</svg>