<?xml version="1.0" encoding="UTF-8"?>
<svg id="Layer_2" data-name="Layer 2" xmlns="http://www.w3.org/2000/svg" viewBox="0 0 28.91 25.28">
  <defs>
    <style>
      .cls-1 {
        fill: #fff;
        fill-rule: evenodd;
      }
    </style>
  </defs>
  <g id="Layer_1-2" data-name="Layer 1">
    <path class="cls-1" d="M2,20.71l11.98-6.97c.42-.25.66-.66.66-1.15s-.24-.91-.66-1.15L2,4.46c-.42-.25-.91-.25-1.33,0C.24,4.7,0,5.12,0,5.61v13.95C0,20.05.24,20.47.67,20.71c.42.24.91.24,1.33,0h0ZM7.49,21.42l13.1-7.63c.42-.25.66-.66.66-1.15s-.24-.91-.66-1.15L7.49,3.86c-.42-.25-.66-.66-.66-1.15v-1.37c0-.49.24-.91.67-1.15.42-.24.91-.24,1.33,0l19.41,11.3c.42.25.66.66.66,1.15s-.24.91-.66,1.15c-6.47,3.77-12.94,7.53-19.41,11.3-.42.25-.91.25-1.33,0-.42-.24-.67-.66-.67-1.15v-1.37c0-.49.24-.91.66-1.15Z"/>
  </g>
</svg>