<?xml version="1.0" encoding="UTF-8"?>
<svg id="Layer_2" data-name="Layer 2" xmlns="http://www.w3.org/2000/svg" viewBox="0 0 23.94 17.96">
  <defs>
    <style>
      .cls-1 {
        fill: #fff;
        fill-rule: evenodd;
      }
    </style>
  </defs>
  <g id="Layer_1-2" data-name="Layer 1">
    <path class="cls-1" d="M1.95.15l14.53,7.53-.58-.88c-.34-.51-.29-1.17.12-1.63.41-.46,1.06-.58,1.6-.29l5.61,2.91c.45.23.72.67.72,1.18s-.27.95-.72,1.18l-10.17,5.28.58-.88c.34-.51.29-1.17-.12-1.63-.41-.46-1.06-.58-1.6-.29L1.95,17.81c-.55.28-1.19.17-1.6-.29-.41-.46-.46-1.11-.12-1.63l4.09-6.18c.3-.46.3-1.02,0-1.47L.23,2.07C-.11,1.56-.07.9.34.44.76-.01,1.4-.13,1.95.15Z"/>
  </g>
</svg>