<?xml version="1.0" encoding="UTF-8"?>
<svg id="Layer_2" data-name="Layer 2" xmlns="http://www.w3.org/2000/svg" viewBox="0 0 32.71 20.49">
  <defs>
    <style>
      .cls-1 {
        fill: #fff;
        fill-rule: evenodd;
      }
    </style>
  </defs>
  <g id="Layer_1-2" data-name="Layer 1">
    <path class="cls-1" d="M14.22.15l17.76,8.91c.46.23.73.67.73,1.19s-.27.96-.73,1.19l-17.76,8.91c-.5.25-1.09.17-1.5-.21l-.14-.13c3.94-1.49,6.74-5.3,6.74-9.76S16.52,1.97,12.58.48l.14-.13c.42-.38,1-.47,1.5-.21h0ZM8.89,1.35C3.98,1.35,0,5.33,0,10.24s3.98,8.89,8.89,8.89,8.89-3.98,8.89-8.89S13.8,1.35,8.89,1.35Z"/>
  </g>
</svg>