<?xml version="1.0" encoding="UTF-8"?>
<svg id="Layer_2" data-name="Layer 2" xmlns="http://www.w3.org/2000/svg" viewBox="0 0 18.08 28.43">
  <defs>
    <style>
      .cls-1 {
        fill: #fff;
        fill-rule: evenodd;
      }
    </style>
  </defs>
  <g id="Layer_1-2" data-name="Layer 1">
    <path class="cls-1" d="M2.19,6.43l2.44-2.03c.31-.26.48-.61.48-1.02s-.16-.76-.48-1.02L2.19.31C1.78-.02,1.25-.09.77.13c-.48.22-.77.68-.77,1.21v4.07c0,.53.29.98.77,1.21.48.22,1.01.15,1.42-.18h0ZM15.17,17.27l2.44-2.03c.31-.26.48-.61.48-1.02s-.16-.76-.48-1.02l-2.44-2.03c-.41-.34-.94-.41-1.42-.18-.48.22-.77.68-.77,1.21v4.07c0,.53.29.98.77,1.21.48.22,1.01.16,1.42-.18h0ZM8.68,11.85l2.44-2.03c.31-.26.48-.61.48-1.02,0-.41-.16-.76-.48-1.02l-2.44-2.03c-.41-.34-.94-.41-1.42-.18-.48.22-.77.68-.77,1.21v4.07c0,.53.29.98.77,1.21.48.22,1.01.15,1.42-.18h0ZM8.68,22.69l2.44-2.03c.31-.26.48-.61.48-1.02,0-.41-.16-.76-.48-1.02l-2.44-2.03c-.41-.34-.94-.41-1.42-.18-.48.22-.77.68-.77,1.21v4.07c0,.53.29.98.77,1.21.48.22,1.01.15,1.42-.18h0ZM2.19,28.12l2.44-2.03c.31-.26.48-.61.48-1.02s-.16-.76-.48-1.02l-2.44-2.03c-.41-.34-.94-.41-1.42-.18-.48.22-.77.68-.77,1.21v4.07c0,.53.29.98.77,1.21.48.22,1.01.15,1.42-.18h0ZM2.19,17.27l2.44-2.03c.31-.26.48-.61.48-1.02s-.16-.76-.48-1.02l-2.44-2.03c-.41-.34-.94-.41-1.42-.18-.48.22-.77.68-.77,1.21v4.07c0,.53.29.98.77,1.21.48.22,1.01.16,1.42-.18Z"/>
  </g>
</svg>