<?xml version="1.0" encoding="UTF-8"?>
<svg id="Layer_2" data-name="Layer 2" xmlns="http://www.w3.org/2000/svg" viewBox="0 0 23.95 24.28">
  <defs>
    <style>
      .cls-1 {
        fill: #fff;
        fill-rule: evenodd;
      }
    </style>
  </defs>
  <g id="Layer_1-2" data-name="Layer 1">
    <path class="cls-1" d="M2.68,11.7l9.09-5.6c.22-.14.5-.13.7,0h0s8.86,5.63,8.86,5.63c.2.13.31.34.31.56v11.31c0,.37-.3.67-.67.67h-4.35c-.37,0-.67-.3-.67-.67v-8.57c0-.54-.44-.97-.97-.97h-6.02c-.54,0-.97.44-.97.97v8.57c0,.37-.3.67-.67.67H2.98c-.37,0-.67-.3-.67-.67v-11.31c0-.26.15-.49.37-.6h0ZM.37,7.13c-.22.11-.37.34-.37.6v3.96h0c0,.12.03.24.1.35.19.31.6.41.91.22l11.03-6.84,10.84,6.81c.11.08.25.13.4.13.37,0,.67-.3.67-.67v-3.96h0c0-.22-.11-.44-.31-.56L12.4.1c-.21-.13-.48-.14-.7,0L.37,7.13Z"/>
  </g>
</svg>