<?xml version="1.0" encoding="UTF-8"?>
<svg id="Layer_2" data-name="Layer 2" xmlns="http://www.w3.org/2000/svg" viewBox="0 0 26.84 26.72">
  <defs>
    <style>
      .cls-1 {
        fill: #fff;
        fill-rule: evenodd;
      }
    </style>
  </defs>
  <g id="Layer_1-2" data-name="Layer 1">
    <path class="cls-1" d="M13.65,10.58l9.79,3.25c.38.13.59.54.46.92l-.02.06-3.11,7.26c-.37-.3-.76-.55-1.19-.72-.98-.39-2.05-.31-3.31.66-.4.31-.76.57-1.08.78-.32.21-.6.37-.86.5-.2.1-.39.18-.57.24-.07.02-.13.04-.19.05v-13.01s.05.01.08.02h0ZM13.28,23.56c-.06-.01-.13-.03-.2-.05-.18-.06-.37-.13-.57-.24-.26-.13-.54-.3-.86-.5-.32-.21-.68-.47-1.08-.78-1.26-.97-2.32-1.04-3.31-.66-.43.17-.82.42-1.19.72l-3.11-7.26c-.16-.37.01-.8.38-.95.03-.01.07-.03.1-.03l9.75-3.23s.06-.02.09-.02v13.01h0ZM15.29,3.66h1.8c.4,0,.73.33.73.73v.8h-8.81v-.8c0-.4.33-.73.73-.73h5.55ZM11.55,3.37V.73c0-.4.33-.73.73-.73h2.28c.4,0,.73.33.73.73v2.64h-3.74ZM8.13,5.92c-.43,0-.79.16-1.07.42-.28.26-.47.63-.54,1.01l-.9,4.96,7.35-2.44h0c.15-.05.31-.08.46-.08s.31.03.46.07h0s7.35,2.44,7.35,2.44l-.9-4.97c-.07-.39-.26-.75-.54-1.01-.28-.26-.64-.42-1.07-.42h-10.58ZM.25,25.44c2.89,2.5,4.59.82,6.18-.75.92-.91,1.79-1.76,2.81-.97.89.69,1.64,1.18,2.3,1.5.7.35,1.29.52,1.83.55h.01s0,0,0,0h.01s0,0,0,0h.04s.01,0,.01,0h0s.01,0,.01,0h0c.54-.03,1.13-.2,1.83-.55.65-.33,1.4-.82,2.3-1.5,1.02-.79,1.89.07,2.81.97,1.59,1.57,3.29,3.25,6.18.75.3-.26.34-.72.07-1.03-.26-.3-.72-.34-1.03-.07-1.87,1.62-3.08.43-4.21-.69-1.38-1.37-2.69-2.65-4.71-1.09-.82.63-1.49,1.07-2.06,1.36-.49.25-.89.37-1.24.4-.34-.03-.74-.15-1.24-.4-.56-.28-1.24-.72-2.06-1.36-2.03-1.56-3.33-.28-4.71,1.09-1.13,1.11-2.34,2.31-4.21.69-.3-.26-.76-.23-1.03.07-.26.3-.23.76.07,1.03Z"/>
  </g>
</svg>