<?xml version="1.0" encoding="UTF-8"?>
<svg id="Layer_2" data-name="Layer 2" xmlns="http://www.w3.org/2000/svg" viewBox="0 0 28.13 24.03">
  <defs>
    <style>
      .cls-1 {
        fill: #fff;
        fill-rule: evenodd;
      }
    </style>
  </defs>
  <g id="Layer_1-2" data-name="Layer 1">
    <path class="cls-1" d="M12.98,11.54l3.07-3.07c-.4-1.05-.5-2.18-.32-3.27.21-1.23.79-2.41,1.74-3.36.88-.88,1.95-1.44,3.08-1.69,1.14-.25,2.34-.17,3.45.23.12.03.23.09.33.19.28.28.28.75,0,1.03l-2.86,2.86.47,1.74,1.74.47,2.86-2.86h0c.07-.07.16-.13.26-.17.38-.14.79.05.93.43.42,1.13.5,2.35.25,3.51-.25,1.13-.81,2.21-1.69,3.08-.98.98-2.2,1.56-3.47,1.76-1.12.17-2.28.03-3.35-.41l-3.02,3.02,6.32,6.32h0s.06.06.08.1l1.01,1.45c.17.25.18.59,0,.84-.24.32-.69.4-1.01.16l-1.37-.99c-.05-.03-.1-.07-.15-.11l-6.32-6.32-6.6,6.6c-.48.48-1.11.72-1.74.72s-1.26-.24-1.74-.72h0c-.48-.48-.72-1.11-.72-1.74s.24-1.26.72-1.74l6.6-6.6-.74-.74-.3.3c-.48.48-1.11.72-1.74.72s-1.26-.24-1.74-.72L.72,6.24c-.48-.48-.72-1.11-.72-1.74s.24-1.26.72-1.74L2.75.72c.48-.48,1.11-.72,1.74-.72s1.26.24,1.74.72l6.29,6.29c.48.48.72,1.11.72,1.74h0c0,.63-.24,1.26-.72,1.74l-.3.3.74.74h0ZM9.88,7.22l-3.84-3.84c-.28-.28-.75-.28-1.03,0-.28.28-.28.75,0,1.03l3.84,3.84c.28.28.75.28,1.03,0,.28-.28.28-.75,0-1.03h0ZM8.25,8.84l-3.84-3.84c-.28-.28-.75-.28-1.03,0s-.28.75,0,1.03l3.84,3.84c.28.28.75.28,1.03,0,.28-.28.28-.75,0-1.03Z"/>
  </g>
</svg>