<?xml version="1.0" encoding="UTF-8"?>
<svg id="Layer_2" data-name="Layer 2" xmlns="http://www.w3.org/2000/svg" viewBox="0 0 27.44 27.72">
  <defs>
    <style>
      .cls-1 {
        fill: #fff;
        fill-rule: evenodd;
      }
    </style>
  </defs>
  <g id="Layer_1-2" data-name="Layer 1">
    <path class="cls-1" d="M13.58,0c3.02,0,5.76,1.22,7.74,3.2,1.98,1.98,3.2,4.72,3.2,7.74s-1.23,5.76-3.2,7.74c-1.98,1.98-4.72,3.2-7.74,3.2s-5.76-1.22-7.74-3.2-3.2-4.72-3.2-7.74,1.22-5.76,3.2-7.74S10.56,0,13.58,0h0ZM21.82,27.51c.28.28.75.28,1.03,0,.14-.14.21-.33.21-.52v-3.67l3.66-.09c.4,0,.72-.34.71-.74,0-.2-.09-.37-.22-.5l-4.21-4.16c-.36.49-.75.95-1.17,1.37-1.07,1.07-2.36,1.94-3.79,2.53-.48.2-.98.37-1.5.5l5.27,5.27h0ZM10.84,22.29c-.59-.14-1.16-.33-1.72-.56-1.43-.59-2.72-1.46-3.79-2.53-.38-.38-.73-.78-1.06-1.21L.22,21.99c-.13.13-.21.3-.22.5,0,.4.31.73.71.74l3.66.09v3.67c0,.19.07.37.21.52.28.28.75.28,1.03,0l5.22-5.22h0ZM11.68,8.19l-2.74.43c-.4.06-.67.43-.61.83.02.16.1.3.21.4l1.97,1.96-.44,2.74c-.06.4.21.77.6.83.17.03.33,0,.47-.08l2.44-1.25,2.47,1.27c.36.18.79.04.98-.32.07-.14.09-.3.07-.44l-.44-2.74,1.97-1.96c.28-.28.29-.74,0-1.03-.12-.12-.28-.19-.43-.21l-2.71-.42-1.25-2.47c-.18-.36-.62-.5-.98-.32-.14.07-.25.19-.32.32l-1.25,2.47Z"/>
  </g>
</svg>