<?xml version="1.0" encoding="UTF-8"?>
<svg id="Layer_2" data-name="Layer 2" xmlns="http://www.w3.org/2000/svg" viewBox="0 0 30.02 16.32">
  <defs>
    <style>
      .cls-1 {
        fill: #fff;
        fill-rule: evenodd;
      }
    </style>
  </defs>
  <g id="Layer_1-2" data-name="Layer 1">
    <path class="cls-1" d="M10.45,0h3.06c.39,0,.73.15,1,.45l6.06,6.83c.45.51.45,1.26,0,1.77l-6.06,6.83c-.26.3-.6.45-1,.45h-3.06c-.54,0-.99-.3-1.21-.79-.22-.49-.14-1.03.22-1.43l4.49-5.06c.45-.51.45-1.26,0-1.77l-4.49-5.06c-.36-.4-.44-.94-.22-1.43.22-.49.68-.79,1.21-.79h0ZM1.34,0C.8,0,.34.3.12.79c-.22.49-.14,1.03.22,1.43l4.49,5.06c.45.51.45,1.26,0,1.77L.34,14.11c-.36.4-.44.94-.22,1.43.22.49.68.79,1.21.79h3.06c.39,0,.73-.15,1-.45l6.06-6.83c.45-.51.45-1.26,0-1.77L5.39.45c-.26-.3-.6-.45-1-.45H1.34ZM19.57,0c-.54,0-.99.3-1.21.79-.22.49-.14,1.03.22,1.43l4.49,5.06c.45.51.45,1.26,0,1.77l-4.49,5.06c-.36.4-.44.94-.22,1.43.22.49.68.79,1.21.79h3.06c.39,0,.73-.15,1-.45l6.06-6.83c.45-.51.45-1.26,0-1.77L23.63.45c-.26-.3-.6-.45-1-.45h-3.06Z"/>
  </g>
</svg>