<?xml version="1.0" encoding="UTF-8"?>
<svg id="Layer_2" data-name="Layer 2" xmlns="http://www.w3.org/2000/svg" viewBox="0 0 73.61 73.61">
  <g id="Layer_1-2" data-name="Layer 1">
    <g>
      <path d="M28.19,53.5c-.73,0-1.46-.19-2.12-.57-1.33-.77-2.12-2.14-2.12-3.67v-24.91c0-1.53.79-2.9,2.12-3.67,1.33-.77,2.91-.77,4.24,0l21.58,12.46h0c1.33.77,2.12,2.14,2.12,3.67s-.79,2.9-2.12,3.67l-21.58,12.46c-.66.38-1.39.57-2.12.57ZM28.95,25.67v22.27l19.29-11.14-19.29-11.14Z"/>
      <path d="M53.31,73.61H20.3c-11.19,0-20.3-9.11-20.3-20.3V20.3C0,9.11,9.11,0,20.3,0h33c11.19,0,20.3,9.11,20.3,20.3v33c0,11.19-9.11,20.3-20.3,20.3ZM20.3,5c-8.44,0-15.3,6.86-15.3,15.3v33c0,8.44,6.86,15.3,15.3,15.3h33c8.44,0,15.3-6.86,15.3-15.3V20.3c0-8.44-6.86-15.3-15.3-15.3H20.3Z"/>
    </g>
  </g>
</svg>