<?xml version="1.0" encoding="UTF-8"?>
<svg id="Layer_2" data-name="Layer 2" xmlns="http://www.w3.org/2000/svg" viewBox="0 0 30.38 9.49">
  <defs>
    <style>
      .cls-1 {
        fill: #fff;
        fill-rule: evenodd;
      }
    </style>
  </defs>
  <g id="Layer_1-2" data-name="Layer 1">
    <path class="cls-1" d="M26.49.57l2.93,2.24c.63.48.96,1.15.96,1.94s-.33,1.46-.96,1.94l-2.93,2.24c-1,.76-2.34.76-3.33,0-1-.77-1.34-2.06-.86-3.22.12-.29.18-.61.18-.95s-.06-.66-.18-.95c-.48-1.16-.13-2.46.86-3.22,1-.77,2.34-.77,3.33,0h0ZM4.41.57l2.93,2.24c.63.48.96,1.15.96,1.94s-.34,1.46-.96,1.94l-2.93,2.24c-1,.76-2.34.76-3.33,0C.08,8.14-.27,6.85.21,5.69c.12-.29.18-.61.18-.95s-.06-.66-.18-.95C-.27,2.64.08,1.34,1.08.58c1-.77,2.34-.77,3.33,0h0ZM15.13.57l2.93,2.24c.63.48.96,1.15.96,1.94s-.33,1.46-.96,1.94l-2.93,2.24c-1,.76-2.34.76-3.33,0-1-.77-1.34-2.06-.86-3.22.12-.29.18-.61.18-.95s-.06-.66-.18-.95c-.48-1.16-.13-2.46.86-3.22,1-.77,2.34-.77,3.33,0Z"/>
  </g>
</svg>