<?xml version="1.0" encoding="UTF-8"?>
<svg id="Layer_2" data-name="Layer 2" xmlns="http://www.w3.org/2000/svg" viewBox="0 0 24.91 18.63">
  <defs>
    <style>
      .cls-1 {
        fill: #fff;
        fill-rule: evenodd;
      }
    </style>
  </defs>
  <g id="Layer_1-2" data-name="Layer 1">
    <path class="cls-1" d="M9.49,2.67c-.74,0-1.33-.6-1.33-1.33s.6-1.33,1.33-1.33h8.01c.74,0,1.33.6,1.33,1.33v8.05c0,.74-.6,1.33-1.33,1.33s-1.33-.6-1.33-1.33v-5.07l-7.82,7.94c-.51.52-1.36.53-1.88.02-.52-.51-.53-1.36-.02-1.88l7.61-7.73h-4.58ZM22.24,9.63v6.33H2.67v-6.33c0-.74-.6-1.33-1.33-1.33s-1.33.6-1.33,1.33v7.66c0,.74.6,1.33,1.33,1.33h22.24c.74,0,1.33-.6,1.33-1.33v-7.66c0-.74-.6-1.33-1.33-1.33s-1.33.6-1.33,1.33Z"/>
  </g>
</svg>