<?xml version="1.0" encoding="UTF-8"?>
<svg id="Layer_2" data-name="Layer 2" xmlns="http://www.w3.org/2000/svg" viewBox="0 0 24.72 24.63">
  <defs>
    <style>
      .cls-1 {
        fill: #fff;
        fill-rule: evenodd;
      }
    </style>
  </defs>
  <g id="Layer_1-2" data-name="Layer 1">
    <path class="cls-1" d="M10,0c1.68,0,3.19.68,4.29,1.78,1.1,1.1,1.78,2.62,1.78,4.29s-.68,3.19-1.78,4.29c-.5.5-1.08.91-1.73,1.21,1.3.35,2.49.95,3.53,1.75h-6.2c-.37,0-.67.3-.67.67v10.2c0,.18.07.33.18.45H2.2c-.61,0-1.16-.25-1.56-.65-.4-.4-.65-.95-.65-1.56v-1.2c0-2.75,1.12-5.25,2.94-7.06,1.23-1.23,2.77-2.14,4.5-2.6-.65-.3-1.23-.71-1.73-1.21-1.1-1.1-1.78-2.62-1.78-4.29s.68-3.19,1.78-4.29c1.1-1.1,2.62-1.78,4.29-1.78h0ZM10.94,13.98l6.36,4.17,6.4-4.17h-12.77ZM24.72,14.91l-7.02,4.57c-.22.16-.52.18-.76.02l-7.05-4.62v8.31l4.48-3.66c.28-.23.7-.19.93.1.23.28.19.7-.1.93l-4.09,3.34h12.43l-4.07-3.34c-.28-.23-.32-.65-.09-.93.23-.28.65-.32.93-.09l4.4,3.62v-8.25Z"/>
  </g>
</svg>