<?xml version="1.0" encoding="UTF-8"?>
<svg id="Layer_2" data-name="Layer 2" xmlns="http://www.w3.org/2000/svg" viewBox="0 0 72.38 63.9">
  <g id="Layer_1-2" data-name="Layer 1">
    <path d="M60.02,63.9H12.36c-6.82,0-12.36-5.54-12.36-12.36V11.69c0-.94.53-1.81,1.37-2.23s1.85-.34,2.61.22l13.68,10.09L34.31.81c.95-1.08,2.81-1.08,3.76,0l16.65,18.96,13.68-10.09c.76-.56,1.77-.64,2.61-.22.84.42,1.37,1.29,1.37,2.23v39.85c0,6.82-5.54,12.36-12.36,12.36ZM5,16.64v34.9c0,4.06,3.3,7.36,7.36,7.36h47.66c4.06,0,7.36-3.3,7.36-7.36V16.64l-11.54,8.51c-1.04.77-2.51.62-3.36-.36L36.19,6.25l-16.29,18.54c-.86.98-2.32,1.13-3.36.36l-11.54-8.51Z"/>
  </g>
</svg>