<?xml version="1.0" encoding="UTF-8"?>
<svg id="Layer_2" data-name="Layer 2" xmlns="http://www.w3.org/2000/svg" viewBox="0 0 21.43 24.91">
  <defs>
    <style>
      .cls-1 {
        fill: #fff;
        fill-rule: evenodd;
      }
    </style>
  </defs>
  <g id="Layer_1-2" data-name="Layer 1">
    <path class="cls-1" d="M19.89,7.32H1.55c-.43,0-.81-.17-1.09-.45H.45c-.28-.28-.45-.67-.45-1.09v-.38c0-.87.36-1.67.93-2.24h0c.58-.58,1.37-.94,2.24-.94h3.78v-.56c0-.46.19-.87.49-1.17h0c.3-.3.72-.49,1.17-.49h4.2c.46,0,.87.19,1.17.49h0c.3.3.49.72.49,1.17v.56h3.78c.87,0,1.67.36,2.24.93h0c.58.58.93,1.37.93,2.25v.38c0,.42-.17.81-.45,1.09h0c-.28.28-.67.46-1.09.46h0ZM9.38,16.85c.37,0,.67.3.67.67s-.3.67-.67.67h-2.75c-.37,0-.67-.3-.67-.67,0-.14.04-.27.11-.37l1.31-2.27c.18-.32.59-.43.91-.24.32.18.43.59.24.91l-.76,1.32h1.59ZM10.01,13.01c-.18.32-.59.43-.91.24-.32-.18-.43-.59-.24-.91l1.28-2.22c.18-.32.59-.43.91-.24.11.06.19.15.25.25l1.32,2.29c.18.32.07.72-.24.91-.32.18-.72.07-.91-.24l-.75-1.29-.71,1.23h0ZM12.87,15.51c-.18-.32-.08-.72.24-.91.32-.18.72-.08.91.24l1.35,2.34c.18.32.08.72-.24.91-.11.06-.22.09-.33.09h0s-2.76,0-2.76,0c-.37,0-.67-.3-.67-.67s.3-.67.67-.67h1.61l-.77-1.34h0ZM20.03,7.98s-.09,0-.14,0H1.55s-.09,0-.14,0l1.74,15.08c.06.5.28.97.61,1.3h0c.34.34.78.55,1.3.55h11.31c.52,0,.97-.21,1.31-.55.34-.34.55-.8.61-1.3l1.74-15.08Z"/>
  </g>
</svg>