<?xml version="1.0" encoding="UTF-8"?>
<svg id="Layer_2" data-name="Layer 2" xmlns="http://www.w3.org/2000/svg" viewBox="0 0 22.59 25.67">
  <defs>
    <style>
      .cls-1 {
        fill: #fff;
        fill-rule: evenodd;
      }
    </style>
  </defs>
  <g id="Layer_1-2" data-name="Layer 1">
    <path class="cls-1" d="M10,0c1.68,0,3.19.68,4.29,1.78s1.78,2.62,1.78,4.29-.68,3.19-1.78,4.29c-.5.5-1.08.91-1.73,1.21,1.72.46,3.27,1.37,4.5,2.6.53.53,1,1.12,1.4,1.75l-4-2.55c-.31-.2-.67-.25-1-.18-.31.07-.59.25-.79.52-.02.02-.03.04-.05.06-.07.1-.12.22-.15.34-.02.08-.04.17-.05.25,0,.04-.01.08-.01.12v10.15H2.2c-.61,0-1.16-.25-1.56-.65-.4-.4-.65-.95-.65-1.56v-1.2c0-2.75,1.12-5.25,2.94-7.06,1.23-1.23,2.77-2.14,4.5-2.6-.65-.3-1.23-.71-1.73-1.21-1.1-1.1-1.78-2.62-1.78-4.29s.68-3.19,1.78-4.29c1.1-1.1,2.62-1.78,4.29-1.78h0ZM13.08,25.01c0,.37.3.67.67.67.15,0,.29-.05.4-.14l8.14-5.26c.31-.2.39-.61.19-.92-.06-.09-.14-.16-.23-.21l-8.16-5.21c-.31-.2-.72-.11-.92.2-.07.11-.1.23-.1.36h0v10.52h0ZM19.99,22.55l-3.22,2.08h1.02c.61,0,1.16-.25,1.56-.65.37-.37.61-.88.64-1.43Z"/>
  </g>
</svg>