<?xml version="1.0" encoding="UTF-8"?>
<svg id="Layer_2" data-name="Layer 2" xmlns="http://www.w3.org/2000/svg" viewBox="0 0 80.25 72.52">
  <g id="Layer_1-2" data-name="Layer 1">
    <g>
      <path d="M46.7,72.52h-13.14c-1.38,0-2.5-1.12-2.5-2.5v-22.76c0-4.03-1.51-7.88-4.25-10.83l-12.44-13.42c-3.76-4.06-4.72-9.72-2.51-14.79C14.08,3.15,18.89,0,24.42,0h31.41c5.53,0,10.34,3.15,12.55,8.21,2.21,5.07,1.25,10.73-2.5,14.79h0l-12.43,13.42c-2.74,2.96-4.24,6.8-4.24,10.83v22.77c0,1.38-1.12,2.5-2.5,2.5ZM36.06,67.52h8.14v-20.27c0-5.29,1.98-10.34,5.58-14.23l12.43-13.42c2.85-3.08,2.69-6.87,1.59-9.39-1.1-2.52-3.77-5.22-7.97-5.22h-31.41c-4.2,0-6.87,2.69-7.97,5.22s-1.26,6.31,1.59,9.39l12.44,13.42c3.6,3.88,5.58,8.94,5.58,14.23v20.26ZM64.05,21.31h0,0Z"/>
      <path d="M57.18,72.52H23.07c-1.38,0-2.5-1.12-2.5-2.5s1.12-2.5,2.5-2.5h34.1c1.38,0,2.5,1.12,2.5,2.5s-1.12,2.5-2.5,2.5Z"/>
      <path d="M46.69,51.76c-1.04,0-2-.65-2.36-1.68-.45-1.3.24-2.73,1.54-3.18.18-.06,18.4-6.43,26.07-12.59,2.07-1.67,3.31-3.88,3.32-5.92,0-1.6-.76-3.03-2.27-4.25-3.49-2.82-7.58-.72-7.75-.63-1.22.64-2.73.18-3.38-1.03-.65-1.21-.21-2.71,1-3.37.29-.16,7.15-3.8,13.27,1.13,3.42,2.76,4.14,5.95,4.13,8.15,0,3.54-1.94,7.21-5.18,9.82-8.34,6.7-26.78,13.15-27.56,13.42-.27.09-.55.14-.82.14Z"/>
      <path d="M33.56,51.76c-.27,0-.55-.04-.82-.14-.78-.27-19.22-6.71-27.56-13.42C1.94,35.6,0,31.93,0,28.39c0-2.19.71-5.39,4.13-8.15,6.12-4.94,12.98-1.29,13.27-1.13,1.21.66,1.66,2.18,1,3.39-.66,1.21-2.18,1.66-3.39,1-.16-.08-4.25-2.18-7.74.64-1.51,1.22-2.28,2.65-2.27,4.25,0,2.04,1.24,4.26,3.32,5.92,7.67,6.16,25.88,12.53,26.07,12.59,1.3.45,1.99,1.88,1.54,3.18-.36,1.03-1.33,1.68-2.36,1.68Z"/>
    </g>
  </g>
</svg>