<?xml version="1.0" encoding="UTF-8"?>
<svg id="Layer_2" data-name="Layer 2" xmlns="http://www.w3.org/2000/svg" viewBox="0 0 23.15 25.82">
  <defs>
    <style>
      .cls-1 {
        fill: #fff;
        fill-rule: evenodd;
      }
    </style>
  </defs>
  <g id="Layer_1-2" data-name="Layer 1">
    <path class="cls-1" d="M12.59,16.45h-.46v.92c0,.46.19.88.49,1.19l.03.03c-.04-.21-.05-.43-.05-.65v-1.49h0ZM13.27,13.92h7.37c.37,0,.67.3.67.67v.53h1.18c.37,0,.67.3.67.67v1.58c0,.82-.33,1.57-.87,2.12-.47.48-1.1.81-1.81.89-.41.54-.96.97-1.59,1.25-.1.05-.19.12-.24.2-.06.09-.09.19-.09.31v.5h.71c.37,0,.67.3.67.67v1.86c0,.37-.3.67-.67.67h-4.63c-.37,0-.67-.3-.67-.67v-1.86c0-.37.3-.67.67-.67h.71v-.5c0-.12-.03-.22-.09-.31-.06-.09-.14-.16-.24-.2-.63-.28-1.18-.71-1.59-1.25-.69-.09-1.3-.41-1.76-.88-.54-.55-.87-1.3-.87-2.12v-1.58c0-.37.3-.67.67-.67h1.14v-.53c0-.37.3-.67.67-.67h0ZM21.82,16.45h-.46v1.49c0,.22-.02.44-.05.65l.03-.03c.3-.31.49-.73.49-1.19v-.92h0ZM10,0c1.68,0,3.19.68,4.29,1.78,1.1,1.1,1.78,2.62,1.78,4.29s-.68,3.19-1.78,4.29c-.5.5-1.08.91-1.73,1.21,1.26.34,2.43.92,3.45,1.69h-2.74c-.37,0-.7.15-.94.39h0c-.21.21-.35.49-.38.8h-.48c-.37,0-.7.15-.94.39h0c-.24.24-.39.58-.39.94v1.58c0,.49.1.96.28,1.39.18.45.45.85.79,1.19.28.29.62.53.99.72.28.14.58.24.89.31.2.24.43.45.67.64.18.14.37.27.57.39-.24.06-.45.18-.61.35h0c-.24.24-.39.58-.39.94v1.33H2.2c-.61,0-1.16-.25-1.56-.65-.4-.4-.65-.95-.65-1.56v-1.2c0-2.75,1.12-5.25,2.94-7.06,1.23-1.23,2.77-2.14,4.49-2.6-.64-.3-1.23-.71-1.73-1.21-1.1-1.1-1.78-2.62-1.78-4.29s.68-3.19,1.78-4.29c1.1-1.1,2.62-1.78,4.29-1.78Z"/>
  </g>
</svg>