<?xml version="1.0" encoding="UTF-8"?>
<svg id="Layer_2" data-name="Layer 2" xmlns="http://www.w3.org/2000/svg" viewBox="0 0 20.05 23.68">
  <defs>
    <style>
      .cls-1 {
        fill: #fff;
        fill-rule: evenodd;
      }
    </style>
  </defs>
  <g id="Layer_1-2" data-name="Layer 1">
    <path class="cls-1" d="M2.8,0h11.27c.77,0,1.47.32,1.98.82h0c.51.51.82,1.21.82,1.98v11.27c0,.77-.32,1.47-.82,1.98-.51.51-1.21.82-1.98.82h-7.76l-5.22,4.43c-.28.24-.7.2-.94-.08-.11-.12-.16-.28-.16-.43h0V2.8c0-.77.32-1.47.82-1.98s1.21-.82,1.98-.82h0ZM3.8,7.51c-.68,0-1.24.55-1.24,1.24s.55,1.24,1.24,1.24,1.24-.55,1.24-1.24-.55-1.24-1.24-1.24h0ZM12.75,7.51c-.68,0-1.24.55-1.24,1.24s.55,1.24,1.24,1.24,1.24-.55,1.24-1.24-.55-1.24-1.24-1.24h0ZM8.27,7.51c-.68,0-1.24.55-1.24,1.24s.55,1.24,1.24,1.24,1.24-.55,1.24-1.24-.55-1.24-1.24-1.24h0ZM18.01,8.04h-.47v6.04c0,.47-.09.91-.27,1.32-.18.43-.44.81-.75,1.13-.32.32-.7.58-1.13.75-.41.17-.86.27-1.32.27h-6.32v.75c0,.56.23,1.07.6,1.44.37.37.88.6,1.44.6h5.65l3.8,3.23c.2.17.51.15.68-.06.08-.09.11-.2.11-.31h0v-13.12c0-.56-.23-1.07-.6-1.44-.37-.37-.88-.6-1.44-.6Z"/>
  </g>
</svg>