<?xml version="1.0" encoding="UTF-8"?>
<svg id="Layer_2" data-name="Layer 2" xmlns="http://www.w3.org/2000/svg" viewBox="0 0 24.98 21.67">
  <defs>
    <style>
      .cls-1 {
        fill: #fff;
        fill-rule: evenodd;
      }
    </style>
  </defs>
  <g id="Layer_1-2" data-name="Layer 1">
    <path class="cls-1" d="M8.69,4.93l3.43,5.94c.05.08.09.17.1.27.05.36-.2.7-.56.76-.69.1-1.33.33-1.9.66l-.03.02c-.59.34-1.11.79-1.54,1.31-.05.08-.13.15-.21.2-.32.18-.72.08-.91-.24l-3.45-5.98-2.57,1.48c-.15.11-.35.15-.55.09-.36-.09-.57-.46-.47-.81L2.2.49c.09-.35.46-.57.81-.47l8.13,2.18h0c.16.05.31.15.4.31.18.32.07.72-.25.91l-2.61,1.51h0ZM8.2,17.38c0,1.18.48,2.26,1.26,3.03.78.78,1.85,1.26,3.03,1.26s2.26-.48,3.03-1.26c.78-.78,1.26-1.85,1.26-3.03s-.48-2.26-1.26-3.03c-.78-.78-1.85-1.26-3.03-1.26s-2.26.48-3.03,1.26c-.78.78-1.26,1.85-1.26,3.03h0ZM21.37,7.86l-3.45,5.98h0c-.04.07-.09.13-.16.18-.29.23-.7.18-.93-.1-.43-.54-.96-.99-1.57-1.34-.58-.34-1.24-.57-1.94-.68h0c-.08-.01-.16-.04-.23-.08-.32-.18-.43-.59-.24-.91l3.45-5.98-2.59-1.5c-.16-.08-.29-.23-.34-.42-.09-.35.12-.72.47-.81L21.97.02c.36-.09.72.12.81.47l2.18,8.13h0c.04.16.03.34-.07.5-.18.32-.59.43-.91.24l-2.62-1.51Z"/>
  </g>
</svg>