<?xml version="1.0" encoding="UTF-8"?>
<svg id="Layer_2" data-name="Layer 2" xmlns="http://www.w3.org/2000/svg" viewBox="0 0 68.54 74.57">
  <g id="Layer_1-2" data-name="Layer 1">
    <g>
      <path d="M48.98,74.57H7.06c-2.14,0-4.14-.96-5.49-2.63-1.36-1.7-1.88-3.9-1.4-6.04,2.86-12.95,14.57-22.35,27.85-22.35h0c13.28,0,24.99,9.4,27.85,22.35.47,2.14-.04,4.34-1.4,6.04-1.34,1.67-3.34,2.63-5.49,2.63ZM28.02,48.55c-10.95,0-20.61,7.75-22.97,18.43-.14.65,0,1.32.42,1.83.23.28.74.76,1.59.76h41.92c.85,0,1.36-.48,1.59-.76.41-.51.56-1.18.42-1.83-2.36-10.68-12.01-18.43-22.97-18.43Z"/>
      <path d="M28.02,36.77c-10.14,0-18.39-8.25-18.39-18.39S17.88,0,28.02,0s18.39,8.25,18.39,18.39-8.25,18.39-18.39,18.39ZM28.02,5c-7.38,0-13.39,6-13.39,13.39s6,13.39,13.39,13.39,13.39-6,13.39-13.39-6-13.39-13.39-13.39Z"/>
      <path d="M66.04,41.02h-17.43c-1.38,0-2.5-1.12-2.5-2.5s1.12-2.5,2.5-2.5h17.43c1.38,0,2.5,1.12,2.5,2.5s-1.12,2.5-2.5,2.5Z"/>
      <path d="M57.33,49.73c-1.38,0-2.5-1.12-2.5-2.5v-17.42c0-1.38,1.12-2.5,2.5-2.5s2.5,1.12,2.5,2.5v17.42c0,1.38-1.12,2.5-2.5,2.5Z"/>
    </g>
  </g>
</svg>