<?xml version="1.0" encoding="UTF-8"?>
<svg id="Layer_2" data-name="Layer 2" xmlns="http://www.w3.org/2000/svg" viewBox="0 0 160.35 160.35">
  <defs>
    <style>
      .cls-1 {
        fill: #080a16;
      }
    </style>
  </defs>
  <g id="Calque_1" data-name="Calque 1">
    <path class="cls-1" d="M100.35,78.87c13.01-7.15,21.85-20.99,21.85-36.85C122.2,18.85,103.35,0,80.17,0s-42.02,18.85-42.02,42.02c0,15.86,8.84,29.7,21.84,36.85C25.52,87.84,0,119.23,0,156.47v3.88h160.35v-3.88c0-37.24-25.52-68.63-59.99-77.6ZM45.9,42.02c0-18.9,15.37-34.27,34.27-34.27s34.27,15.38,34.27,34.27-15.38,34.27-34.27,34.27-34.27-15.37-34.27-34.27ZM7.85,152.6c2.02-38.14,33.69-68.55,72.32-68.55s70.3,30.41,72.32,68.55H7.85Z"/>
  </g>
</svg>