<?xml version="1.0" encoding="UTF-8"?>
<svg id="Layer_2" data-name="Layer 2" xmlns="http://www.w3.org/2000/svg" viewBox="0 0 27.43 14.11">
  <defs>
    <style>
      .cls-1 {
        fill: #fff;
        fill-rule: evenodd;
      }
    </style>
  </defs>
  <g id="Layer_1-2" data-name="Layer 1">
    <path class="cls-1" d="M6.11,2.96V.66s0-.04,0-.06l10.28,7.03c.25.17.56.15.79-.03L27.42.65s0,.05,0,.07h0v12.72c0,.37-.3.67-.67.67h-.06s-19.93-.06-19.93-.06c-.37,0-.66-.3-.66-.66h0v-2.41h4.86c.37,0,.67-.3.67-.67s-.3-.67-.67-.67h-4.86v-1.45H.67c-.37,0-.67-.3-.67-.67s.3-.67.67-.67h5.44v-1.45h-3.09c-.37,0-.67-.3-.67-.67s.3-.67.67-.67h3.09v-1.11h0ZM3.71,10.97h1.01c.37,0,.67-.3.67-.67s-.3-.67-.67-.67h-1.01c-.37,0-.67.3-.67.67s.3.67.67.67h0ZM8.5,5.4h.72c.37,0,.67-.3.67-.67s-.3-.67-.67-.67h-.72c-.37,0-.67.3-.67.67s.3.67.67.67h0ZM7.58,0l9.19,6.28L25.93.05l-18.35-.05Z"/>
  </g>
</svg>