<?xml version="1.0" encoding="UTF-8"?>
<svg id="Layer_2" data-name="Layer 2" xmlns="http://www.w3.org/2000/svg" viewBox="0 0 25.32 25.32">
  <defs>
    <style>
      .cls-1 {
        fill: #fff;
        fill-rule: evenodd;
      }
    </style>
  </defs>
  <g id="Layer_1-2" data-name="Layer 1">
    <path class="cls-1" d="M10.64,1.27c.77.62,1.41,1.44,2.02,2.49,1.45-2.51,3.07-3.76,6-3.76,1.84,0,3.51.75,4.71,1.95,1.21,1.21,1.95,2.87,1.95,4.71,0,6.27-6.1,12.37-12.19,18.46h0c-.12.12-.28.19-.46.19-.37,0-.67-.29-.67-.66-.04-4.41-3.47-7.45-6.6-10.2C2.58,11.97,0,9.69,0,6.66c0-1.84.75-3.51,1.95-4.71C3.16.75,4.82,0,6.66,0c1.66,0,2.91.42,3.98,1.27Z"/>
  </g>
</svg>