<?xml version="1.0" encoding="UTF-8"?>
<svg id="Layer_2" data-name="Layer 2" xmlns="http://www.w3.org/2000/svg" viewBox="0 0 29.91 26.89">
  <defs>
    <style>
      .cls-1 {
        fill: #fff;
        fill-rule: evenodd;
      }
    </style>
  </defs>
  <g id="Layer_1-2" data-name="Layer 1">
    <path class="cls-1" d="M7.24,4.89h0c.22,0,.46.01.71.04l.18.02c.72-1.42,1.8-2.62,3.13-3.48,1.42-.93,3.12-1.47,4.94-1.47,2.25,0,4.31.82,5.89,2.18,1.49,1.28,2.56,3.04,2.97,5.03,1.31.29,2.47.99,3.32,1.97.95,1.08,1.52,2.5,1.52,4.04,0,1.7-.69,3.23-1.81,4.34-1.12,1.11-2.67,1.8-4.36,1.8h0c-1,0-6.9,0-11.46,0-2.56,0-4.71,0-5.33-.01-1.9-.03-3.62-.87-4.87-2.18-1.28-1.33-2.07-3.15-2.07-5.04,0-1.99.81-3.8,2.13-5.11,1.31-1.31,3.12-2.13,5.11-2.13h0ZM16.05,21.8c.57,1.05,1.15,2.11,1.15,3.04h0c0,1.01-.61,1.64-1.39,1.92-.28.1-.58.15-.88.14-.3,0-.6-.06-.88-.16-.77-.28-1.36-.92-1.34-1.91.02-.97.64-2.12,1.24-3.21.14-.25.27-.5.41-.77.06-.12.16-.23.3-.29.33-.16.73-.03.89.3.16.32.33.63.5.94Z"/>
  </g>
</svg>