<?xml version="1.0" encoding="UTF-8"?>
<svg id="Layer_2" data-name="Layer 2" xmlns="http://www.w3.org/2000/svg" viewBox="0 0 29.73 21.19">
  <defs>
    <style>
      .cls-1 {
        fill: #fff;
        fill-rule: evenodd;
      }
    </style>
  </defs>
  <g id="Layer_1-2" data-name="Layer 1">
    <path class="cls-1" d="M5.75,9.7h0c.18,0,.36.01.56.03h.04c.57-1.07,1.41-1.99,2.42-2.65,1.12-.73,2.46-1.16,3.9-1.16,1.78,0,3.4.65,4.65,1.72,1.15.99,1.99,2.34,2.33,3.88,1,.24,1.89.79,2.55,1.55.76.86,1.22,1.99,1.22,3.22,0,1.36-.55,2.58-1.44,3.47-.89.89-2.13,1.44-3.48,1.44h0c-.77,0-5.33,0-8.86,0-1.98,0-3.64,0-4.12-.01-1.51-.02-2.88-.69-3.87-1.73-1.01-1.06-1.64-2.5-1.64-4,0-1.58.65-3.02,1.69-4.06,1.04-1.04,2.48-1.69,4.06-1.69h0ZM19.36,4.99c-.81,0-1.58.18-2.28.51-.34.16-.65.35-.94.57.59.29,1.13.65,1.63,1.08.64.55,1.18,1.19,1.62,1.92.36.6.64,1.24.83,1.93.42.13.82.32,1.18.54.49.3.94.67,1.32,1.1.31.36.58.76.8,1.18.26-.31.49-.66.67-1.03.37-.73.57-1.55.57-2.41,0-1.49-.6-2.83-1.58-3.81-.97-.97-2.32-1.58-3.81-1.58h0ZM25.75,3.04c.26-.26.68-.26.94,0,.26.26.26.68,0,.94l-1.92,1.92c-.26.26-.68.26-.94,0-.26-.26-.26-.68,0-.94l1.92-1.92h0ZM29.07,9.71c.37,0,.67.3.67.67s-.3.67-.67.67h-2.71c-.37,0-.67-.3-.67-.67s.3-.67.67-.67h2.71ZM26.69,16.77c.26.26.26.68,0,.94-.26.26-.68.26-.94,0l-1.67-1.67c-.02-.42-.09-.84-.2-1.23.26-.21.65-.2.89.04l1.92,1.92h0ZM12.02,3.98c-.26-.26-.26-.68,0-.94.26-.26.68-.26.94,0l1.92,1.92c.18.18.24.44.17.67-.55-.18-1.13-.29-1.72-.34l-1.3-1.3h0ZM18.69.67c0-.37.3-.67.67-.67s.67.3.67.67v2.71c0,.37-.3.67-.67.67s-.67-.3-.67-.67V.67Z"/>
  </g>
</svg>