<?xml version="1.0" encoding="UTF-8"?>
<svg id="Layer_2" data-name="Layer 2" xmlns="http://www.w3.org/2000/svg" viewBox="0 0 160.57 160.54">
  <defs>
    <style>
      .cls-1 {
        fill: #080a16;
      }
    </style>
  </defs>
  <g id="Calque_1" data-name="Calque 1">
    <path class="cls-1" d="M160.57,108.06h-.02v-44.87l.02-.02h-.02V0H.02v63.15h-.02s.02.03.02.03v44.86h-.02s.02.03.02.03v44.86h-.02s.02.03.02.03v7.57h160.54v-7.57l.02-.02h-.02v-44.87l.02-.02ZM152.79,101.95l-68.8-54.04V12.89l68.8,54.04v35.02ZM84,102.67l63.79,50.11h-63.79v-50.11ZM76.24,152.78H12.78l63.46-49.84v49.84ZM152.79,57.06L90.03,7.76h62.77v49.3ZM7.78,7.76h62.77L7.78,57.06V7.76ZM7.78,66.93L76.24,13.16v35.02L7.78,101.95v-35.02ZM7.78,111.82l68.46-53.77v35.02L7.78,146.84v-35.02ZM84,92.8v-35.02l68.8,54.04v35.02l-68.8-54.04Z"/>
  </g>
</svg>