<?xml version="1.0" encoding="UTF-8"?>
<svg id="Layer_2" data-name="Layer 2" xmlns="http://www.w3.org/2000/svg" viewBox="0 0 75.24 77.8">
  <g id="Layer_1-2" data-name="Layer 1">
    <g>
      <path d="M39.54,32.38c-5.32,0-9.64-4.33-9.64-9.64s4.33-9.64,9.64-9.64,9.64,4.33,9.64,9.64-4.33,9.64-9.64,9.64ZM39.54,18.09c-2.56,0-4.64,2.08-4.64,4.64s2.08,4.64,4.64,4.64,4.64-2.08,4.64-4.64-2.08-4.64-4.64-4.64Z"/>
      <path d="M39.54,58.87c-6.96,0-22.74-18.52-22.74-36.13C16.8,10.2,27,0,39.54,0s22.74,10.2,22.74,22.74c0,17.61-15.78,36.13-22.74,36.13ZM39.54,53.87h.01-.01ZM39.54,5c-9.78,0-17.74,7.96-17.74,17.74,0,16,14.46,30.99,17.74,31.13,3.27-.14,17.74-15.13,17.74-31.13,0-9.78-7.96-17.74-17.74-17.74Z"/>
      <path d="M49.32,77.8c-2.91,0-5.82-.57-8.59-1.72l-8.16-3.39c-4.23-1.77-9.09-1.76-13.34,0l-4.31,1.8c-3.35,1.38-7.13,1.01-10.13-1-3-2-4.79-5.36-4.79-8.96v-14.24c0-4.37,2.6-8.28,6.63-9.96l10.68-4.45c1.44-.61,3.04-1.07,4.74-1.38,1.36-.24,2.66.67,2.9,2.02.24,1.36-.67,2.66-2.02,2.9-1.34.24-2.58.59-3.68,1.06l-10.69,4.45c-2.16.9-3.56,3-3.56,5.35v14.24c0,1.96.94,3.72,2.57,4.81,1.63,1.09,3.61,1.29,5.43.54l4.3-1.79c5.48-2.27,11.74-2.27,17.19,0l8.16,3.39c4.3,1.79,9.04,1.79,13.34,0l10.69-4.45c2.16-.9,3.55-3,3.55-5.35v-14.24c0-1.96-.94-3.71-2.57-4.8-1.64-1.09-3.62-1.28-5.44-.52l-4.32,1.78c-1.15.5-2.42.9-3.72,1.17-1.35.29-2.68-.59-2.96-1.94s.59-2.68,1.94-2.96c.96-.2,1.9-.5,2.79-.88l4.36-1.79c3.33-1.39,7.12-1.03,10.13.98,3.01,2,4.8,5.35,4.8,8.96v14.24c0,4.37-2.6,8.28-6.63,9.96l-10.7,4.45c-2.77,1.15-5.68,1.73-8.59,1.73Z"/>
    </g>
  </g>
</svg>