<?xml version="1.0" encoding="UTF-8"?>
<svg id="Layer_2" data-name="Layer 2" xmlns="http://www.w3.org/2000/svg" viewBox="0 0 68.27 70.46">
  <g id="Layer_1-2" data-name="Layer 1">
    <g>
      <path d="M48.48,57.72h-20.96c-1.45,0-2.81-.65-3.72-1.78-.92-1.15-1.27-2.63-.95-4.07,1.55-7.04,7.92-12.16,15.15-12.16h0c7.22,0,13.59,5.11,15.15,12.16.32,1.44-.03,2.93-.95,4.07-.91,1.13-2.26,1.78-3.72,1.78ZM27.79,52.72h20.42c-1.14-4.65-5.39-8.01-10.21-8.01s-9.08,3.35-10.21,8.01Z"/>
      <path d="M38,34.64c-4.93,0-8.94-4.01-8.94-8.94s4.01-8.94,8.94-8.94,8.94,4.01,8.94,8.94-4.01,8.94-8.94,8.94ZM38,21.77c-2.17,0-3.94,1.77-3.94,3.94s1.77,3.94,3.94,3.94,3.94-1.77,3.94-3.94-1.77-3.94-3.94-3.94Z"/>
      <path d="M60.24,70.46H15.76c-4.42,0-8.02-3.6-8.02-8.02V8.02C7.74,3.6,11.34,0,15.76,0h44.48c4.42,0,8.02,3.6,8.02,8.02v54.41c0,4.42-3.6,8.02-8.02,8.02ZM15.76,5c-1.67,0-3.02,1.36-3.02,3.02v54.41c0,1.67,1.36,3.02,3.02,3.02h44.48c1.67,0,3.02-1.36,3.02-3.02V8.02c0-1.67-1.36-3.02-3.02-3.02H15.76Z"/>
      <path d="M10.24,17.74H2.5c-1.38,0-2.5-1.12-2.5-2.5s1.12-2.5,2.5-2.5h7.74c1.38,0,2.5,1.12,2.5,2.5s-1.12,2.5-2.5,2.5Z"/>
      <path d="M10.24,57.72H2.5c-1.38,0-2.5-1.12-2.5-2.5s1.12-2.5,2.5-2.5h7.74c1.38,0,2.5,1.12,2.5,2.5s-1.12,2.5-2.5,2.5Z"/>
      <path d="M10.24,44.39H2.5c-1.38,0-2.5-1.12-2.5-2.5s1.12-2.5,2.5-2.5h7.74c1.38,0,2.5,1.12,2.5,2.5s-1.12,2.5-2.5,2.5Z"/>
      <path d="M10.24,31.07H2.5c-1.38,0-2.5-1.12-2.5-2.5s1.12-2.5,2.5-2.5h7.74c1.38,0,2.5,1.12,2.5,2.5s-1.12,2.5-2.5,2.5Z"/>
    </g>
  </g>
</svg>