<?xml version="1.0" encoding="UTF-8"?>
<svg id="Layer_2" data-name="Layer 2" xmlns="http://www.w3.org/2000/svg" viewBox="0 0 70.41 75.16">
  <g id="Layer_1-2" data-name="Layer 1">
    <g>
      <path d="M57.59,75.16H12.82c-7.07,0-12.82-5.75-12.82-12.82v-30.94c0-2.99,1.31-5.82,3.59-7.75L28.62,2.42c3.81-3.23,9.34-3.23,13.15,0l25.05,21.23c2.28,1.94,3.59,4.76,3.59,7.76v30.94c0,7.07-5.75,12.82-12.82,12.82ZM35.19,5c-1.19,0-2.37.41-3.34,1.23L6.82,27.46c-1.16.98-1.82,2.42-1.82,3.94v30.94c0,4.31,3.51,7.82,7.82,7.82h44.77c4.31,0,7.82-3.51,7.82-7.82v-30.94c0-1.52-.67-2.96-1.83-3.94L38.54,6.24c-.97-.82-2.15-1.23-3.34-1.23Z"/>
      <path d="M44.65,56.95h-18.89c-1.38,0-2.5-1.12-2.5-2.5v-18.89c0-1.38,1.12-2.5,2.5-2.5h18.89c1.38,0,2.5,1.12,2.5,2.5v18.89c0,1.38-1.12,2.5-2.5,2.5ZM28.26,51.95h13.89v-13.89h-13.89v13.89Z"/>
    </g>
  </g>
</svg>