<?xml version="1.0" encoding="UTF-8"?>
<svg id="Layer_2" data-name="Layer 2" xmlns="http://www.w3.org/2000/svg" viewBox="0 0 24.8 28.84">
  <defs>
    <style>
      .cls-1 {
        fill: #fff;
        fill-rule: evenodd;
      }
    </style>
  </defs>
  <g id="Layer_1-2" data-name="Layer 1">
    <path class="cls-1" d="M23.34,8.71v17.94c0,.6-.25,1.15-.64,1.54h0c-.4.4-.94.64-1.55.64H3.65c-.6,0-1.15-.25-1.55-.64h0c-.4-.4-.64-.95-.64-1.55V8.71h21.88ZM1.46,8.42H0v-2.19c0-1,.41-1.91,1.07-2.57h0c.66-.66,1.57-1.07,2.57-1.07h4.43v-.69c0-.52.21-.99.55-1.33h0c.34-.34.81-.56,1.33-.56h4.87c.52,0,.99.21,1.33.55h0c.34.35.55.82.55,1.33v.69h4.43c1,0,1.92.41,2.58,1.07.66.66,1.07,1.57,1.07,2.58v2.19H1.46ZM14.84,1.46h-4.87c-.12,0-.23.05-.3.12h0c-.08.08-.12.19-.12.3v.56h5.73v-.56c0-.12-.05-.23-.12-.3h0c-.08-.08-.18-.13-.3-.13h0ZM5.11,26.61h14.76c.4,0,.73-.33.73-.73s-.33-.73-.73-.73H5.11c-.4,0-.73.33-.73.73s.33.73.73.73h0ZM7.29,11.31v11.73c0,.4.33.73.73.73s.73-.33.73-.73v-11.73c0-.4-.33-.73-.73-.73s-.73.33-.73.73h0ZM11.59,11.31v11.73c0,.4.33.73.73.73s.73-.33.73-.73v-11.73c0-.4-.33-.73-.73-.73s-.73.33-.73.73h0ZM16.05,11.31v11.73c0,.4.33.73.73.73s.73-.33.73-.73v-11.73c0-.4-.33-.73-.73-.73s-.73.33-.73.73Z"/>
  </g>
</svg>