<?xml version="1.0" encoding="UTF-8"?>
<svg id="Layer_2" data-name="Layer 2" xmlns="http://www.w3.org/2000/svg" viewBox="0 0 22.83 29.02">
  <defs>
    <style>
      .cls-1 {
        fill: #fff;
        fill-rule: evenodd;
      }
    </style>
  </defs>
  <g id="Layer_1-2" data-name="Layer 1">
    <path class="cls-1" d="M0,24.06V1.34C0,.83.26.4.7.17c.44-.24.94-.22,1.36.06l20.17,13.17c.39.25.6.65.6,1.11,0,.46-.22.86-.6,1.11L2.06,28.8c-.42.27-.92.3-1.36.06-.44-.24-.7-.67-.7-1.17v-3.62h0ZM5.7,22.72l10.85-7.09c.39-.25.6-.65.6-1.11s-.22-.86-.6-1.11L5.7,6.31c-.42-.27-.92-.3-1.36-.06-.44.24-.7.67-.7,1.17v14.18c0,.5.26.93.7,1.17.44.24.94.22,1.36-.06h0ZM2.1,4.96v19.22c0,.5.26.93.7,1.17.44.24.94.22,1.36-.06l14.8-9.67c.39-.25.6-.65.6-1.11,0-.46-.22-.86-.6-1.11L4.16,3.73c-.42-.27-.92-.3-1.36-.06-.44.24-.7.67-.7,1.17v.12Z"/>
  </g>
</svg>