<?xml version="1.0" encoding="UTF-8"?>
<svg id="Layer_2" data-name="Layer 2" xmlns="http://www.w3.org/2000/svg" viewBox="0 0 26.01 26.01">
  <defs>
    <style>
      .cls-1 {
        fill: #fff;
        fill-rule: evenodd;
      }
    </style>
  </defs>
  <g id="Layer_1-2" data-name="Layer 1">
    <path class="cls-1" d="M5.33,0h15.34c1.47,0,2.8.6,3.77,1.57.97.97,1.57,2.3,1.57,3.77v15.34c0,1.47-.6,2.8-1.57,3.77s-2.3,1.57-3.77,1.57H5.33c-1.47,0-2.8-.6-3.77-1.57-.97-.97-1.57-2.3-1.57-3.77V5.33c0-1.47.6-2.8,1.57-3.77.97-.97,2.3-1.57,3.77-1.57h0ZM4.45,12.91l4.85,5.66c.26.31.72.34,1.03.08l11.17-10.2c.3-.27.32-.73.05-1.03-.27-.3-.73-.32-1.03-.05l-10.6,9.68-4.36-5.09c-.26-.31-.72-.34-1.03-.08-.3.26-.34.72-.08,1.03Z"/>
  </g>
</svg>