<?xml version="1.0" encoding="UTF-8"?>
<svg id="Layer_2" data-name="Layer 2" xmlns="http://www.w3.org/2000/svg" viewBox="0 0 71.97 71.97">
  <g id="Layer_1-2" data-name="Layer 1">
    <g>
      <path d="M69.47,71.97H17.03c-9.39,0-17.03-7.64-17.03-17.02V17.02C0,7.64,7.64,0,17.03,0h37.92c9.39,0,17.03,7.64,17.03,17.02v52.44c0,1.38-1.12,2.5-2.5,2.5ZM17.03,5c-6.63,0-12.03,5.39-12.03,12.02v37.92c0,6.63,5.39,12.02,12.03,12.02h49.94V17.02c0-6.63-5.39-12.02-12.03-12.02H17.03Z"/>
      <g>
        <path d="M35.09,26.58h-11.37c-1.38,0-2.5-1.12-2.5-2.5s1.12-2.5,2.5-2.5h11.37c1.38,0,2.5,1.12,2.5,2.5s-1.12,2.5-2.5,2.5Z"/>
        <path d="M48.24,38.48h-24.51c-1.38,0-2.5-1.12-2.5-2.5s1.12-2.5,2.5-2.5h24.51c1.38,0,2.5,1.12,2.5,2.5s-1.12,2.5-2.5,2.5Z"/>
        <path d="M48.24,50.39h-24.51c-1.38,0-2.5-1.12-2.5-2.5s1.12-2.5,2.5-2.5h24.51c1.38,0,2.5,1.12,2.5,2.5s-1.12,2.5-2.5,2.5Z"/>
      </g>
    </g>
  </g>
</svg>