<?xml version="1.0" encoding="UTF-8"?>
<svg id="Layer_2" data-name="Layer 2" xmlns="http://www.w3.org/2000/svg" viewBox="0 0 30.68 20.06">
  <defs>
    <style>
      .cls-1 {
        fill: #fff;
        fill-rule: evenodd;
      }
    </style>
  </defs>
  <g id="Layer_1-2" data-name="Layer 1">
    <path class="cls-1" d="M.67,0h29.35c.37,0,.67.3.67.67v18.72c0,.37-.3.67-.67.67H.67c-.37,0-.67-.3-.67-.67V.67c0-.37.3-.67.67-.67h0ZM1.71,5.35h27.13c.37,0,.67-.3.67-.67s-.3-.67-.67-.67H1.71c-.37,0-.67.3-.67.67s.3.67.67.67h0ZM3.33,9.36h4c.37,0,.67-.3.67-.67s-.3-.67-.67-.67H3.33c-.37,0-.67.3-.67.67s.3.67.67.67h0ZM3.33,13.37h11.93c.37,0,.67-.3.67-.67s-.3-.67-.67-.67H3.33c-.37,0-.67.3-.67.67s.3.67.67.67h0ZM21.34,8.02c-.37,0-.67.3-.67.67v4.01c0,.37.3.67.67.67h6c.37,0,.67-.3.67-.67v-4.01c0-.37-.3-.67-.67-.67h-6Z"/>
  </g>
</svg>