<?xml version="1.0" encoding="UTF-8"?>
<svg id="Layer_2" data-name="Layer 2" xmlns="http://www.w3.org/2000/svg" viewBox="0 0 30.33 25.83">
  <defs>
    <style>
      .cls-1 {
        fill: #fff;
        fill-rule: evenodd;
      }
    </style>
  </defs>
  <g id="Layer_1-2" data-name="Layer 1">
    <path class="cls-1" d="M21.09,21.36h8.45s.06,0,.06,0c.4,0,.73-.33.73-.73v-7.41h0c0-.16-.06-.33-.17-.46l-3.57-4.28c-.13-.16-.34-.27-.56-.27h-4.21v-2.39c0-.4-.33-.73-.73-.73h-3.55c.48,1.14.74,2.38.74,3.69,0,2.61-1.05,4.97-2.75,6.69h1.85c.4,0,.73.33.73.73s-.33.73-.73.73h-3.7c-.31.19-.64.36-.98.51h7.26c.4,0,.73.33.73.73s-.33.73-.73.73H3.68c-.4,0-.73-.33-.73-.73s.33-.73.73-.73h1.16c-1.04-.48-1.99-1.13-2.79-1.93-.07-.08-.15-.15-.22-.23v5.36c0,.4.33.73.73.73h.06s18.46,0,18.46,0h0ZM5.11,14.05h1.78c.18,0,.31.04.41.11.09.07.14.17.14.3,0,.11-.04.21-.11.28-.07.08-.19.12-.34.12h-2.52c-.17,0-.3-.05-.4-.14-.1-.09-.14-.21-.14-.33,0-.08.03-.19.09-.33.06-.14.13-.24.2-.32.3-.31.58-.58.82-.81.24-.22.42-.37.52-.44.19-.13.34-.27.47-.4.12-.13.22-.27.28-.41.06-.14.1-.28.1-.41,0-.15-.03-.28-.1-.39-.07-.12-.16-.2-.28-.27-.12-.06-.25-.1-.39-.1-.3,0-.53.13-.7.39-.02.03-.06.13-.12.28s-.11.27-.18.35c-.07.08-.17.12-.3.12-.11,0-.21-.04-.28-.11-.08-.07-.11-.18-.11-.31,0-.16.03-.32.11-.49.07-.17.18-.33.32-.47.14-.14.32-.25.53-.34.21-.09.47-.13.76-.13.35,0,.65.05.89.16.16.07.3.17.42.3.12.13.22.28.28.44.07.17.1.34.1.52,0,.28-.07.54-.21.77-.14.23-.28.41-.43.54-.15.13-.39.34-.73.62-.34.28-.58.5-.71.65-.05.06-.11.14-.17.22h0ZM10.16,14.42v-.64h-1.72c-.22,0-.38-.05-.49-.15-.11-.1-.16-.23-.16-.4,0-.04,0-.09.02-.13.02-.04.04-.09.07-.14.03-.05.06-.1.1-.14.03-.05.08-.1.13-.17l1.81-2.42c.12-.16.22-.27.29-.35.08-.07.17-.11.28-.11.35,0,.52.2.52.6v2.65h.15c.18,0,.32.02.42.07.11.05.16.15.16.31,0,.13-.04.23-.13.29-.09.06-.22.09-.39.09h-.21v.64c0,.17-.04.31-.12.39-.08.09-.18.13-.31.13s-.23-.04-.31-.13c-.08-.09-.12-.22-.12-.39h0ZM8.68,13.02l1.47-1.99v1.99h-1.47ZM5.04,2.93c-.18-.36-.03-.8.32-.97.36-.18.8-.03.97.32l2.88,5.77h4.64c.4,0,.73.33.73.73s-.33.73-.73.73h-5.09c-.27,0-.52-.15-.65-.4l-3.09-6.17h0ZM8.78,0c4.85,0,8.78,3.93,8.78,8.78s-3.93,8.78-8.78,8.78S0,13.62,0,8.78,3.93,0,8.78,0h0ZM22.34,14.47v-3.01c0-.4.32-.73.72-.72h2.31c.22,0,.44.09.6.27l2.52,2.99c.11.13.17.29.17.47,0,.4-.33.73-.73.73h-4.87c-.4,0-.73-.32-.73-.72h0ZM8.74,21.5c1.2,0,2.16.97,2.16,2.16s-.97,2.16-2.16,2.16-2.16-.97-2.16-2.16.97-2.16,2.16-2.16h0ZM24.79,21.5c1.2,0,2.16.97,2.16,2.16s-.97,2.16-2.16,2.16-2.17-.97-2.17-2.16.97-2.16,2.17-2.16Z"/>
  </g>
</svg>