<?xml version="1.0" encoding="UTF-8"?>
<svg id="Layer_2" data-name="Layer 2" xmlns="http://www.w3.org/2000/svg" viewBox="0 0 23.97 23.1">
  <defs>
    <style>
      .cls-1 {
        fill: #fff;
        fill-rule: evenodd;
      }
    </style>
  </defs>
  <g id="Layer_1-2" data-name="Layer 1">
    <path class="cls-1" d="M14.98,2.41l.55,2.51c.13.58.46,1.07.91,1.39.45.33,1.01.49,1.61.43l2.56-.25c.72-.07,1.41.11,1.98.48.57.37,1.01.93,1.23,1.62.22.69.2,1.4-.04,2.04-.24.63-.69,1.19-1.32,1.56l-2.21,1.3c-.51.3-.87.77-1.04,1.29-.17.53-.15,1.11.08,1.66l1.03,2.35c.29.67.33,1.38.16,2.03-.18.65-.58,1.25-1.16,1.68-.59.43-1.27.62-1.95.59-.68-.03-1.34-.29-1.89-.78l-1.92-1.7c-.45-.4-1-.59-1.55-.59h0c-.55,0-1.11.2-1.55.59l-1.92,1.7c-.54.48-1.21.74-1.89.78-.68.03-1.36-.16-1.95-.59-.59-.43-.99-1.02-1.16-1.68-.18-.65-.13-1.37.16-2.03l1.03-2.35c.24-.55.26-1.13.08-1.66-.17-.53-.53-.99-1.04-1.29l-2.22-1.3c-.63-.37-1.08-.92-1.32-1.56-.24-.63-.27-1.35-.04-2.04.22-.69.67-1.25,1.23-1.62.57-.37,1.26-.55,1.98-.48l2.56.25c.59.06,1.16-.11,1.61-.43.45-.32.78-.81.91-1.39l.55-2.51c.16-.71.54-1.31,1.07-1.74.53-.43,1.2-.67,1.93-.67s1.4.25,1.93.67c.53.43.92,1.03,1.07,1.74Z"/>
  </g>
</svg>