<?xml version="1.0" encoding="UTF-8"?>
<svg id="Layer_2" data-name="Layer 2" xmlns="http://www.w3.org/2000/svg" viewBox="0 0 30.49 27">
  <defs>
    <style>
      .cls-1 {
        fill: #fff;
        fill-rule: evenodd;
      }
    </style>
  </defs>
  <g id="Layer_1-2" data-name="Layer 1">
    <path class="cls-1" d="M2.42,19.34l7.99-2.55c.58-.19,1.17-.09,1.66.27.49.36.76.89.76,1.5v6.59c0,.74.4,1.37,1.07,1.68.67.31,1.41.22,1.98-.26l13.93-11.64c.44-.37.67-.86.67-1.43s-.23-1.06-.67-1.43L15.89.44c-.57-.47-1.31-.57-1.98-.26-.67.31-1.07.95-1.07,1.68v6.59c0,.61-.27,1.14-.76,1.5-.49.36-1.08.46-1.66.27l-7.99-2.55c-.58-.19-1.17-.09-1.66.27-.49.36-.76.89-.76,1.5v8.13c0,.61.27,1.14.76,1.5.49.36,1.08.46,1.66.27Z"/>
  </g>
</svg>