<?xml version="1.0" encoding="UTF-8"?>
<svg id="Layer_2" data-name="Layer 2" xmlns="http://www.w3.org/2000/svg" viewBox="0 0 24.29 24.29">
  <defs>
    <style>
      .cls-1 {
        fill: #fff;
        fill-rule: evenodd;
      }
    </style>
  </defs>
  <g id="Layer_1-2" data-name="Layer 1">
    <path class="cls-1" d="M12.15,1.54c.13,0,.3,0,.48.01l.44-1.13c.12-.32.47-.49.79-.4l2.86.76c.33.09.54.41.49.74l-.18,1.2c.15.07.29.15.42.23.14.08.28.17.42.25l.95-.76c.27-.21.65-.19.88.05h0s2.09,2.09,2.09,2.09c.26.26.26.68,0,.94l-.72.9c.09.14.17.28.25.42.08.14.16.28.23.42l1.2-.18c.35-.05.67.17.75.51l.76,2.83c.09.34-.1.69-.42.8l-1.11.43c0,.19.01.35.01.48s0,.3-.01.48l1.13.44c.32.12.49.47.4.79l-.76,2.86c-.09.33-.41.54-.74.49l-1.2-.18c-.07.14-.15.29-.23.42-.08.14-.17.28-.25.41l.76.95c.21.27.19.65-.05.88h0s-2.09,2.09-2.09,2.09c-.26.26-.68.26-.94,0l-.9-.72c-.14.09-.28.17-.42.25-.14.08-.28.16-.42.23l.18,1.2c.05.35-.17.67-.51.75l-2.83.76c-.34.09-.69-.1-.8-.42l-.43-1.11c-.19,0-.35.01-.48.01s-.3,0-.48-.01l-.44,1.13c-.12.32-.47.49-.79.4l-2.86-.76c-.33-.09-.54-.41-.49-.74l.18-1.2c-.15-.07-.29-.15-.42-.23-.14-.08-.28-.17-.41-.25l-.95.76c-.27.21-.65.19-.88-.05h0s-2.09-2.09-2.09-2.09c-.26-.26-.26-.68,0-.94l.72-.9c-.09-.14-.17-.28-.25-.42-.08-.14-.16-.28-.23-.42l-1.2.18c-.35.05-.67-.17-.75-.51L.02,13.87c-.09-.34.1-.69.42-.8l1.11-.43c0-.19-.01-.35-.01-.48s0-.3.01-.48l-1.13-.44c-.32-.12-.49-.47-.4-.79l.76-2.86c.09-.33.41-.54.74-.49l1.2.18c.07-.15.15-.29.23-.42.08-.14.17-.28.25-.42l-.76-.95c-.21-.27-.19-.65.05-.88h0s2.09-2.09,2.09-2.09c.26-.26.68-.26.94,0l.9.72c.14-.09.28-.17.42-.25.14-.08.28-.16.42-.23l-.18-1.2c-.05-.35.17-.67.51-.75L10.43.02c.34-.09.69.1.8.42l.43,1.11c.19,0,.35-.01.48-.01h0ZM12.15,8.89c-.89,0-1.71.36-2.3.95h0c-.59.59-.95,1.41-.95,2.3s.36,1.71.95,2.3h0c.59.59,1.4.96,2.3.96s1.71-.36,2.3-.95h0c.59-.59.95-1.41.95-2.3s-.36-1.71-.95-2.3h0c-.59-.59-1.4-.96-2.3-.96h0ZM16.61,7.68c-1.14-1.14-2.72-1.85-4.46-1.85s-3.32.71-4.46,1.85c-1.14,1.14-1.85,2.72-1.85,4.46s.71,3.32,1.85,4.46c1.14,1.14,2.72,1.85,4.46,1.85s3.32-.71,4.46-1.85c1.14-1.14,1.85-2.72,1.85-4.46s-.71-3.32-1.85-4.46Z"/>
  </g>
</svg>