<?xml version="1.0" encoding="UTF-8"?>
<svg id="Layer_2" data-name="Layer 2" xmlns="http://www.w3.org/2000/svg" viewBox="0 0 29.03 24.46">
  <defs>
    <style>
      .cls-1 {
        fill: #fff;
        fill-rule: evenodd;
      }
    </style>
  </defs>
  <g id="Layer_1-2" data-name="Layer 1">
    <path class="cls-1" d="M26.22,9.43c1.55,0,2.8,1.26,2.8,2.8s-1.26,2.8-2.8,2.8c-.35,0-.68-.06-.99-.18l-4.16,5.76c.13.32.2.68.2,1.04,0,1.55-1.26,2.8-2.8,2.8s-2.8-1.26-2.8-2.8c0-1.33.92-2.44,2.16-2.73v-6.06H5.53c-.29,1.24-1.4,2.16-2.73,2.16-1.55,0-2.8-1.26-2.8-2.8s1.26-2.8,2.8-2.8c1.33,0,2.44.92,2.73,2.16h12.29v-6.05c-1.24-.29-2.16-1.4-2.16-2.73,0-1.55,1.26-2.8,2.8-2.8s2.8,1.26,2.8,2.8c0,.37-.07.72-.2,1.04l4.16,5.76c.31-.12.64-.18.99-.18h0ZM24.34,14.31c-.41-.38-.72-.87-.85-1.44h-4.38v6.06c.52.12.99.39,1.35.76l3.88-5.37h0ZM20.46,4.78c-.36.37-.83.63-1.35.76v6.05h4.38c.13-.56.43-1.06.85-1.44l-3.88-5.37Z"/>
  </g>
</svg>