<?xml version="1.0" encoding="UTF-8"?>
<svg id="Layer_2" data-name="Layer 2" xmlns="http://www.w3.org/2000/svg" viewBox="0 0 16.95 24.64">
  <defs>
    <style>
      .cls-1 {
        fill: #fff;
        fill-rule: evenodd;
      }
    </style>
  </defs>
  <g id="Layer_1-2" data-name="Layer 1">
    <path class="cls-1" d="M16.29,4.22H.67c-.37,0-.67-.3-.67-.67v-.85c0-.72.29-1.38.76-1.87l.04-.04c.49-.49,1.17-.79,1.91-.79h11.55c.74,0,1.42.3,1.91.79h0c.49.49.79,1.17.79,1.91v.85c0,.37-.3.67-.67.67h0ZM7.83,11.67c-.17.3-.55.4-.84.23-.3-.17-.4-.55-.23-.84l1.18-2.04c.17-.3.55-.4.84-.23.1.06.17.14.23.23l1.18,2.04c.17.29.07.67-.23.84-.29.17-.67.07-.84-.23l-.65-1.12-.65,1.12h0ZM10.27,13.65c-.17-.29-.07-.67.23-.84.29-.17.67-.07.84.23l1.14,1.98c.17.3.07.67-.23.84-.1.06-.2.08-.31.08h-2.29c-.34,0-.62-.28-.62-.62s.28-.62.62-.62h1.22l-.61-1.06h0ZM7.3,14.71c.34,0,.62.28.62.62s-.28.62-.62.62h-2.29c-.34,0-.62-.28-.62-.62,0-.13.04-.26.12-.36l1.11-1.93c.17-.29.55-.4.84-.23.3.17.4.55.23.84l-.61,1.06h1.22ZM.67,5.07c-.37,0-.67.3-.67.67v18.25c0,.37.3.67.67.67h3.35v-4.55c0-.37.3-.67.67-.67h7.58c.37,0,.67.3.67.67v4.55h3.35c.37,0,.67-.3.67-.67V5.73c0-.37-.3-.67-.67-.67H.67ZM11.6,24.64h-6.25v-3.88h6.25v3.88Z"/>
  </g>
</svg>