<?xml version="1.0" encoding="UTF-8"?>
<svg id="Layer_2" data-name="Layer 2" xmlns="http://www.w3.org/2000/svg" viewBox="0 0 21.77 24.88">
  <defs>
    <style>
      .cls-1 {
        fill: #fff;
        fill-rule: evenodd;
      }
    </style>
  </defs>
  <g id="Layer_1-2" data-name="Layer 1">
    <path class="cls-1" d="M3.08,24.88h15.62c.37,0,.67-.3.67-.67V4.5h1.74c.37,0,.67-.3.67-.67s-.3-.67-.67-.67h-5.54V.67c0-.37-.3-.67-.67-.67H6.87c-.37,0-.67.3-.67.67v2.5H.67c-.37,0-.67.3-.67.67s.3.67.67.67h1.74v19.71c0,.37.3.67.67.67h0ZM9.56,16.64h-2.75c-.37,0-.67-.3-.67-.67,0-.14.04-.27.11-.37l1.31-2.27c.18-.32.59-.43.91-.24.32.18.43.59.24.91l-.76,1.31h1.59c.37,0,.67.3.67.67s-.3.67-.67.67h0ZM10.18,11.46c-.18.32-.59.43-.91.24-.32-.18-.43-.59-.24-.91l1.28-2.22c.18-.32.59-.43.91-.24.11.06.19.15.25.25l1.32,2.29c.18.32.07.72-.24.91-.32.18-.72.07-.91-.24l-.75-1.29-.71,1.23h0ZM13.04,13.96c-.18-.32-.08-.72.24-.91.32-.18.72-.08.91.24l1.35,2.34c.18.32.08.72-.24.91-.11.06-.22.09-.33.09h-2.76c-.37,0-.67-.3-.67-.67s.3-.67.67-.67h1.61l-.77-1.34h0ZM14.24,3.17h-6.7v-1.83h6.7v1.83Z"/>
  </g>
</svg>