<?xml version="1.0" encoding="UTF-8"?>
<svg id="Layer_2" data-name="Layer 2" xmlns="http://www.w3.org/2000/svg" viewBox="0 0 23.01 23.34">
  <defs>
    <style>
      .cls-1 {
        fill: #fff;
        fill-rule: evenodd;
      }
    </style>
  </defs>
  <g id="Layer_1-2" data-name="Layer 1">
    <path class="cls-1" d="M21.75,1.03c.79.73,1.21,1.71,1.25,2.71.04,1-.3,2.01-1.03,2.8l-.02.02c-.73.78-1.7,1.19-2.69,1.23-1,.04-2.01-.3-2.8-1.03l-.02-.02c-.78-.73-1.19-1.7-1.23-2.69-.02-.52.06-1.04.24-1.53-1.29-.41-2.65-.5-3.97-.29-1.52.25-2.99.91-4.21,1.98-.28.24-.7.21-.94-.07-.24-.28-.21-.7.07-.94,1.42-1.23,3.11-2,4.88-2.29,1.62-.27,3.3-.12,4.88.43.03-.03.06-.07.09-.1C16.97.46,17.96.04,18.95,0c1-.04,2.01.3,2.8,1.03h0ZM21.27,9.1c-.07-.36.17-.71.53-.77.36-.07.71.17.77.53.28,1.5.21,3.06-.22,4.54-.41,1.43-1.15,2.78-2.23,3.95-.18.2-.38.4-.6.59-.08.07-.16.14-.24.21.02.04.03.09.04.13.32,1.03.19,2.08-.27,2.97-.46.88-1.26,1.59-2.29,1.91-1.02.32-2.08.19-2.97-.27-.88-.46-1.59-1.26-1.91-2.29-.32-1.02-.19-2.08.27-2.97.46-.88,1.26-1.59,2.29-1.91,1.03-.32,2.08-.19,2.97.27.46.24.87.57,1.2.98h.01c.17-.16.34-.33.51-.53.93-1.01,1.57-2.18,1.92-3.41.37-1.29.43-2.64.19-3.94h0ZM9.95,18.68c-1.47-.54-2.76-1.48-3.74-2.69-.81-1-1.39-2.2-1.68-3.5.52-.09,1.01-.28,1.44-.55.84-.53,1.48-1.39,1.72-2.44.24-1.05.02-2.1-.51-2.94-.53-.84-1.39-1.48-2.44-1.72-1.05-.24-2.09-.02-2.94.51-.84.53-1.48,1.39-1.72,2.44-.24,1.05-.02,2.1.51,2.94.53.84,1.39,1.48,2.44,1.72.04.01.09.02.13.03.3,1.63,1.01,3.11,2,4.35,1.12,1.4,2.61,2.48,4.31,3.11.34.13.73-.05.85-.4.13-.35-.05-.73-.4-.85Z"/>
  </g>
</svg>