<?xml version="1.0" encoding="UTF-8"?>
<svg id="Layer_2" data-name="Layer 2" xmlns="http://www.w3.org/2000/svg" viewBox="0 0 23.78 23.78">
  <defs>
    <style>
      .cls-1 {
        fill: #fff;
        fill-rule: evenodd;
      }
    </style>
  </defs>
  <g id="Layer_1-2" data-name="Layer 1">
    <path class="cls-1" d="M12.56,2.39c2.36.16,4.49,1.19,6.06,2.76s2.6,3.7,2.76,6.06h-1.85c-.37,0-.67.3-.67.67s.3.67.67.67h1.85c-.16,2.36-1.19,4.49-2.76,6.06s-3.7,2.6-6.06,2.76v-1.85c0-.37-.3-.67-.67-.67s-.67.3-.67.67v1.85c-2.36-.16-4.49-1.19-6.06-2.76-1.58-1.58-2.6-3.7-2.76-6.06h1.85c.37,0,.67-.3.67-.67s-.3-.67-.67-.67h-1.85c.16-2.36,1.19-4.49,2.76-6.06,1.58-1.58,3.7-2.6,6.06-2.76v1.85c0,.37.3.67.67.67s.67-.3.67-.67v-1.85h0ZM11.89,0c-3.28,0-6.26,1.33-8.41,3.48C1.33,5.63,0,8.61,0,11.89s1.33,6.26,3.48,8.41c2.15,2.15,5.12,3.48,8.41,3.48s6.26-1.33,8.41-3.48c2.15-2.15,3.48-5.12,3.48-8.41s-1.33-6.26-3.48-8.41C18.14,1.33,15.17,0,11.89,0h0ZM19.35,4.42c-1.91-1.91-4.55-3.09-7.46-3.09s-5.55,1.18-7.46,3.09c-1.91,1.91-3.09,4.55-3.09,7.46s1.18,5.55,3.09,7.46c1.91,1.91,4.55,3.09,7.46,3.09s5.55-1.18,7.46-3.09c1.91-1.91,3.09-4.55,3.09-7.46s-1.18-5.55-3.09-7.46h0ZM11.28,6.37v5.15l-3.34,2.05c-.16-.32-.54-.45-.87-.3-.13.06-.23.15-.29.26l-.66,1.03c-.2.31-.11.72.2.92.08.05.17.09.27.1l1.23.17c.36.05.7-.2.75-.57.02-.14,0-.27-.07-.39l3.78-2.32c.2-.11.34-.33.34-.58v-5.52c0-.37-.3-.67-.67-.67s-.67.3-.67.67Z"/>
  </g>
</svg>