<?xml version="1.0" encoding="UTF-8"?>
<svg id="Layer_2" data-name="Layer 2" xmlns="http://www.w3.org/2000/svg" viewBox="0 0 58.84 77.73">
  <g id="Layer_1-2" data-name="Layer 1">
    <g>
      <path d="M47.63,77.73H11.21c-6.18,0-11.21-5.02-11.21-11.19V11.21C0,5.03,5.03,0,11.21,0h15.04c2.54,0,4.96.55,7.18,1.64,1.69.75,3.32,1.88,4.75,3.31l15.7,15.67c1.4,1.4,2.53,3.02,3.36,4.83,1.04,2.18,1.59,4.64,1.59,7.11v33.96c0,6.18-5.03,11.21-11.21,11.21ZM11.21,5c-3.43,0-6.21,2.79-6.21,6.21v55.33c0,3.41,2.79,6.19,6.21,6.19h36.41c3.43,0,6.21-2.79,6.21-6.21v-33.96c0-1.73-.39-3.45-1.12-4.99-.59-1.27-1.4-2.44-2.37-3.41l-15.7-15.67c-1-1-2.12-1.78-3.33-2.32-1.62-.79-3.29-1.17-5.07-1.17h-15.04Z"/>
      <path d="M54.98,29h-22.64c-1.38,0-2.5-1.12-2.5-2.5V3.88c0-.85.43-1.64,1.14-2.1s1.61-.53,2.38-.19c1.77.79,3.39,1.92,4.83,3.35l15.7,15.68c1.4,1.4,2.53,3.02,3.36,4.82.36.77.3,1.68-.16,2.4-.46.72-1.25,1.15-2.11,1.15ZM34.84,24h15.35l-15.35-15.32v15.32Z"/>
      <path d="M25.22,60.77c-.64,0-1.28-.24-1.77-.73l-8.39-8.39c-.98-.98-.98-2.56,0-3.54.98-.98,2.56-.98,3.54,0l6.63,6.63,15.02-15.02c.98-.98,2.56-.98,3.54,0,.98.98.98,2.56,0,3.54l-16.79,16.79c-.49.49-1.13.73-1.77.73Z"/>
    </g>
  </g>
</svg>