<?xml version="1.0" encoding="UTF-8"?>
<svg id="Layer_2" data-name="Layer 2" xmlns="http://www.w3.org/2000/svg" viewBox="0 0 26.35 26.35">
  <defs>
    <style>
      .cls-1 {
        fill: #fff;
        fill-rule: evenodd;
      }
    </style>
  </defs>
  <g id="Layer_1-2" data-name="Layer 1">
    <path class="cls-1" d="M13.18,0c3.64,0,6.93,1.47,9.32,3.86,2.38,2.38,3.86,5.68,3.86,9.32s-1.47,6.93-3.86,9.32-5.68,3.86-9.32,3.86-6.93-1.48-9.32-3.86S0,16.82,0,13.18,1.47,6.24,3.86,3.86,9.54,0,13.18,0h0ZM13.69,3.29c-.97.58-1.69,1.87-1.05,2.94.64,1.07,2.12,1.04,3.09.46.97-.58,1.69-1.87,1.05-2.94-.64-1.07-2.12-1.04-3.09-.46h0ZM13.95,20.37l1.93-10.54c.06-.33-.06-.65-.31-.86-.26-.21-.57-.23-.88-.15-1.74.46-3.68,1.08-5.2,2.06l-.15.1.36.71c.15.3.49.44.8.34l1.1-.36-1.82,10.76c-.06.33.07.65.33.86.26.21.56.19.87.13,1.74-.35,3.94-1.34,5.4-2.32l.1-.07-.08-.67c-.03-.21-.14-.38-.31-.49-.18-.11-.38-.13-.57-.06l-1.56.55Z"/>
  </g>
</svg>