<?xml version="1.0" encoding="UTF-8"?>
<svg id="Layer_2" data-name="Layer 2" xmlns="http://www.w3.org/2000/svg" viewBox="0 0 18.84 28.6">
  <defs>
    <style>
      .cls-1 {
        fill: #fff;
        fill-rule: evenodd;
      }
    </style>
  </defs>
  <g id="Layer_1-2" data-name="Layer 1">
    <path class="cls-1" d="M2.31,0h14.21c.64,0,1.22.26,1.64.68l.04.05c.39.42.64.97.64,1.59v.03H2.9c-.4,0-.73.33-.73.73s.33.73.73.73h15.94v18.84c0,.64-.26,1.21-.68,1.63h0c-.42.42-1,.68-1.64.68h-.46s-5.84,0-5.84,0h0s-7.91,0-7.91,0c-.64,0-1.22-.26-1.64-.68l-.04-.05c-.39-.42-.64-.98-.64-1.59V2.31c0-.64.26-1.21.68-1.63h0c.42-.42,1-.68,1.63-.68h0ZM16.06,25.25v2.63c0,.4-.33.73-.73.73-.18,0-.34-.06-.47-.17l-1.72-1.26-1.76,1.29c-.32.24-.78.17-1.02-.16-.1-.13-.14-.28-.14-.43h0v-2.62h5.84Z"/>
  </g>
</svg>