<?xml version="1.0" encoding="UTF-8"?>
<svg id="Layer_2" data-name="Layer 2" xmlns="http://www.w3.org/2000/svg" viewBox="0 0 29.57 29.57">
  <defs>
    <style>
      .cls-1 {
        fill: #fff;
        fill-rule: evenodd;
      }
    </style>
  </defs>
  <g id="Layer_1-2" data-name="Layer 1">
    <path class="cls-1" d="M14.79,0c8.17,0,14.79,6.62,14.79,14.78s-6.62,14.79-14.79,14.79S0,22.95,0,14.78,6.62,0,14.79,0h0ZM18.61,13.63c-.64,0-1.15.52-1.15,1.15s.52,1.15,1.15,1.15,1.15-.52,1.15-1.15-.52-1.15-1.15-1.15h0ZM25.82,13.63c-.64,0-1.15.52-1.15,1.15s.52,1.15,1.15,1.15,1.15-.52,1.15-1.15-.52-1.15-1.15-1.15h0ZM22.27,12.38c0,.64.52,1.15,1.15,1.15s1.15-.52,1.15-1.15-.52-1.15-1.15-1.15-1.15.52-1.15,1.15h0ZM22.27,14.78c0,.64.52,1.15,1.15,1.15s1.15-.52,1.15-1.15-.52-1.15-1.15-1.15-1.15.52-1.15,1.15h0ZM22.27,17.19c0,.64.52,1.15,1.15,1.15s1.15-.52,1.15-1.15-.52-1.15-1.15-1.15-1.15.52-1.15,1.15h0ZM22.17,19.59c0-.64-.52-1.15-1.15-1.15s-1.15.52-1.15,1.15.52,1.15,1.15,1.15,1.15-.52,1.15-1.15h0ZM22.17,14.78c0-.64-.52-1.15-1.15-1.15s-1.15.52-1.15,1.15.52,1.15,1.15,1.15,1.15-.52,1.15-1.15h0ZM19.86,9.98c0,.64.52,1.15,1.15,1.15s1.15-.52,1.15-1.15-.52-1.15-1.15-1.15-1.15.52-1.15,1.15h0ZM3.75,13.63c-.64,0-1.15.52-1.15,1.15s.52,1.15,1.15,1.15,1.15-.52,1.15-1.15-.52-1.15-1.15-1.15h0ZM6.26,13.63c-.64,0-1.15.52-1.15,1.15s.52,1.15,1.15,1.15,1.15-.52,1.15-1.15-.52-1.15-1.15-1.15h0ZM8.78,13.63c-.64,0-1.15.52-1.15,1.15s.52,1.15,1.15,1.15,1.15-.52,1.15-1.15-.52-1.15-1.15-1.15h0ZM11.29,13.63c-.64,0-1.15.52-1.15,1.15s.52,1.15,1.15,1.15,1.15-.52,1.15-1.15-.52-1.15-1.15-1.15h0ZM13.8,13.63c-.64,0-1.15.52-1.15,1.15s.52,1.15,1.15,1.15,1.15-.52,1.15-1.15-.52-1.15-1.15-1.15h0ZM16.21,13.63c-.64,0-1.15.52-1.15,1.15s.52,1.15,1.15,1.15,1.15-.52,1.15-1.15-.52-1.15-1.15-1.15h0ZM18.61,8.73c.64,0,1.15-.52,1.15-1.15s-.52-1.15-1.15-1.15-1.15.52-1.15,1.15.52,1.15,1.15,1.15h0ZM19.76,22c0-.64-.52-1.15-1.15-1.15s-1.15.52-1.15,1.15.52,1.15,1.15,1.15,1.15-.52,1.15-1.15Z"/>
  </g>
</svg>