<?xml version="1.0" encoding="UTF-8"?>
<svg id="Layer_2" data-name="Layer 2" xmlns="http://www.w3.org/2000/svg" viewBox="0 0 24.35 25.46">
  <defs>
    <style>
      .cls-1 {
        fill: #fff;
        fill-rule: evenodd;
      }
    </style>
  </defs>
  <g id="Layer_1-2" data-name="Layer 1">
    <path class="cls-1" d="M14.97,2.61c.87.24,1.69.59,2.46,1.03.77.45,1.49.99,2.12,1.62l1.68-.97c.32-.18.72-.08.91.24l2.13,3.69c.18.32.07.72-.24.9h0s-1.68.97-1.68.97c.09.34.16.69.22,1.05.08.52.12,1.06.12,1.6s-.04,1.08-.12,1.6c-.05.35-.13.7-.22,1.05l1.68.97c.32.18.43.59.24.91l-2.13,3.68c-.18.32-.59.43-.91.24l-1.68-.97c-.64.63-1.35,1.17-2.13,1.62-.77.44-1.59.79-2.46,1.03v1.94c0,.37-.3.67-.67.67h-4.25c-.37,0-.67-.3-.67-.67v-1.94c-.87-.24-1.69-.59-2.45-1.03-.77-.45-1.49-.99-2.12-1.62l-1.68.97c-.32.18-.72.08-.91-.24L.09,17.25c-.18-.32-.07-.72.24-.91l1.68-.97c-.09-.34-.16-.69-.22-1.05-.08-.52-.12-1.06-.12-1.6s.04-1.08.12-1.6c.05-.35.13-.7.22-1.05l-1.68-.97c-.32-.18-.43-.59-.24-.91l2.13-3.68c.18-.32.59-.43.91-.24l1.68.97c.64-.63,1.35-1.17,2.13-1.62.76-.44,1.59-.79,2.45-1.03V.67c0-.37.3-.67.67-.67h4.25c.37,0,.67.3.67.67v1.94h0ZM14.96,9.95c-.71-.71-1.69-1.15-2.78-1.15s-2.07.44-2.78,1.15c-.71.71-1.15,1.69-1.15,2.78s.44,2.07,1.15,2.78c.71.71,1.69,1.15,2.78,1.15s2.07-.44,2.78-1.15c.71-.71,1.15-1.69,1.15-2.78s-.44-2.07-1.15-2.78Z"/>
  </g>
</svg>