<?xml version="1.0" encoding="UTF-8"?>
<svg id="Layer_2" data-name="Layer 2" xmlns="http://www.w3.org/2000/svg" viewBox="0 0 66.51 62.2">
  <g id="Layer_1-2" data-name="Layer 1">
    <g>
      <path d="M46.32,62.2h-29.81c-1.38,0-2.5-1.12-2.5-2.5v-24.43c0-.38.08-.75.25-1.09L27.79,6.22c1.26-2.64,3.49-4.63,6.26-5.6,2.79-.98,5.8-.8,8.46.5,2.63,1.26,4.63,3.49,5.59,6.26.97,2.79.8,5.79-.5,8.46l-3.66,7.55h9.16c4.41,0,8.4,2.07,10.94,5.68,2.54,3.61,3.15,8.06,1.66,12.21l-3.47,9.71c-2.4,6.71-8.8,11.21-15.92,11.21ZM19.01,57.2h27.31c5.02,0,9.52-3.17,11.21-7.9l3.47-9.71c.93-2.6.55-5.39-1.04-7.65-1.59-2.26-4.09-3.56-6.85-3.56h-13.15c-.86,0-1.66-.44-2.12-1.17-.46-.73-.51-1.64-.13-2.42l5.41-11.14c.71-1.46.8-3.1.27-4.62-.53-1.51-1.61-2.72-3.05-3.41-1.47-.72-3.11-.81-4.64-.28-1.51.53-2.72,1.61-3.41,3.05l-13.29,27.45v21.36Z"/>
      <path d="M16.51,62.2H4.58c-2.53,0-4.58-2.05-4.58-4.58v-29.65c0-2.53,2.05-4.58,4.58-4.58h11.93c1.38,0,2.5,1.12,2.5,2.5v33.81c0,1.38-1.12,2.5-2.5,2.5ZM5,57.2h9.01v-28.81H5v28.81Z"/>
    </g>
  </g>
</svg>