<?xml version="1.0" encoding="UTF-8"?>
<svg id="Layer_2" data-name="Layer 2" xmlns="http://www.w3.org/2000/svg" viewBox="0 0 20.04 23.08">
  <defs>
    <style>
      .cls-1 {
        fill: #fff;
        fill-rule: evenodd;
      }
    </style>
  </defs>
  <g id="Layer_1-2" data-name="Layer 1">
    <path class="cls-1" d="M15.74.44c2.67,2.93,4.3,6.83,4.3,11.1s-1.63,8.17-4.3,11.1c-.46.5-1.21.58-1.76.19-.55-.39-.72-1.13-.39-1.72,1.56-2.84,2.44-6.1,2.44-9.57s-.89-6.73-2.44-9.57c-.33-.59-.16-1.33.39-1.72.55-.39,1.3-.31,1.76.19h0ZM0,2.29c4,1.18,6.92,4.87,6.92,9.25S4,19.61,0,20.79c2.78-2.13,4.57-5.48,4.57-9.25S2.78,4.42,0,2.29h0ZM10.89,4.36c1.3,2.08,2.05,4.54,2.05,7.18s-.75,5.1-2.05,7.18c-.37.59-1.11.79-1.73.48-.62-.31-.89-1.03-.64-1.68.73-1.85,1.13-3.87,1.13-5.98s-.4-4.13-1.13-5.98c-.25-.64.02-1.37.64-1.68.62-.31,1.36-.1,1.73.48Z"/>
  </g>
</svg>