<?xml version="1.0" encoding="UTF-8"?>
<svg id="Layer_2" data-name="Layer 2" xmlns="http://www.w3.org/2000/svg" viewBox="0 0 58.56 73.44">
  <g id="Layer_1-2" data-name="Layer 1">
    <g>
      <g>
        <path d="M33.17,61.66H12.87c-7.1,0-12.87-5.78-12.87-12.88V12.89C0,5.78,5.78,0,12.89,0h14.54c1.54,0,3,.33,4.36,1,1,.45,1.99,1.13,2.86,2l8.42,8.4c.85.85,1.53,1.83,2.04,2.92.62,1.31.96,2.8.96,4.3v30.15c0,7.11-5.78,12.89-12.89,12.89ZM12.89,5c-4.35,0-7.89,3.54-7.89,7.89v35.89c0,4.34,3.53,7.88,7.87,7.88h20.3c4.35,0,7.89-3.54,7.89-7.89v-30.15c0-.75-.17-1.51-.49-2.18-.26-.57-.62-1.08-1.04-1.51l-8.42-8.4c-.44-.44-.92-.77-1.44-1.01-.74-.36-1.47-.53-2.24-.53h-14.54Z"/>
        <path d="M42.83,17.86h-12.14c-1.38,0-2.5-1.12-2.5-2.5V3.24c0-.85.43-1.64,1.14-2.1.71-.46,1.61-.53,2.38-.19,1.08.48,2.07,1.17,2.94,2.03l8.42,8.4c.85.85,1.53,1.83,2.04,2.92.36.77.3,1.68-.16,2.4-.46.72-1.25,1.15-2.11,1.15ZM33.19,12.86h4.26l-4.26-4.26v4.26Z"/>
      </g>
      <path d="M36.81,73.44h-19.58c-1.38,0-2.5-1.12-2.5-2.5s1.12-2.5,2.5-2.5h19.58c9.23,0,16.75-7.51,16.75-16.75v-27.05c0-1.38,1.12-2.5,2.5-2.5s2.5,1.12,2.5,2.5v27.05c0,11.99-9.76,21.75-21.75,21.75Z"/>
    </g>
  </g>
</svg>