<?xml version="1.0" encoding="UTF-8"?>
<svg id="Layer_2" data-name="Layer 2" xmlns="http://www.w3.org/2000/svg" viewBox="0 0 30.68 27.29">
  <defs>
    <style>
      .cls-1 {
        fill: #fff;
        fill-rule: evenodd;
      }
    </style>
  </defs>
  <g id="Layer_1-2" data-name="Layer 1">
    <path class="cls-1" d="M.73,10.15h4.21L13.37,2.87c-.09-.23-.13-.48-.13-.74,0-1.17.94-2.13,2.11-2.13s2.11.95,2.11,2.13c0,.26-.05.5-.13.73l8.57,7.29h4.06c.4,0,.73.33.73.73v15.68c0,.4-.33.73-.73.73H.73c-.4,0-.73-.33-.73-.73v-15.68c0-.4.33-.73.73-.73h0ZM8.14,20.04c0-.33-.06-.61-.18-.84-.12-.23-.28-.42-.49-.57-.21-.15-.47-.28-.77-.38-.3-.11-.64-.2-1.01-.29-.3-.08-.51-.13-.64-.17-.13-.04-.26-.09-.38-.16-.13-.07-.23-.15-.3-.25-.07-.1-.11-.21-.11-.34,0-.21.11-.39.32-.55.21-.15.49-.23.83-.23.37,0,.64.07.81.21.17.14.31.33.43.58.09.17.18.3.26.38.08.08.2.11.35.11.17,0,.31-.06.42-.19.11-.13.17-.27.17-.43,0-.17-.05-.35-.14-.54-.09-.18-.23-.36-.43-.52-.19-.17-.44-.3-.74-.4-.3-.1-.65-.15-1.05-.15-.51,0-.95.08-1.32.23-.37.15-.66.37-.86.65-.2.28-.3.6-.3.97,0,.38.09.7.28.96.19.26.44.46.76.61.32.15.72.28,1.19.39.35.08.64.16.85.23.21.07.39.18.52.31.13.14.2.31.2.53,0,.28-.12.51-.37.69-.25.18-.57.28-.96.28-.29,0-.52-.05-.7-.14-.18-.09-.31-.21-.41-.35-.1-.14-.19-.32-.27-.53-.07-.18-.15-.31-.25-.4-.1-.09-.21-.14-.36-.14-.17,0-.32.06-.43.17-.11.12-.17.25-.17.42,0,.28.09.57.28.86.19.29.43.53.73.71.42.24.96.37,1.61.37.54,0,1.01-.09,1.41-.27.4-.18.7-.43.9-.75.21-.32.31-.68.31-1.07h0ZM12.17,15.31c-.5,0-.95.08-1.35.24-.4.16-.73.38-1.01.68-.28.3-.49.66-.63,1.08-.15.42-.22.89-.22,1.39s.07.95.21,1.38c.14.43.35.79.62,1.09.27.3.61.54,1.02.7.41.17.87.25,1.38.25s.98-.08,1.38-.24c.4-.16.74-.4,1.02-.7.28-.31.48-.67.62-1.08.14-.42.21-.88.21-1.39,0-.69-.13-1.29-.38-1.8-.25-.51-.62-.91-1.11-1.18-.49-.28-1.08-.42-1.76-.42h0ZM14.07,18.7c0-.48-.08-.9-.23-1.26-.16-.35-.38-.62-.67-.8-.29-.18-.62-.27-1-.27-.27,0-.51.05-.74.15-.23.1-.42.25-.59.44-.16.19-.29.44-.39.74-.09.3-.14.63-.14,1.01s.05.71.14,1.02c.1.3.23.55.4.75.17.2.37.35.59.45.22.1.47.15.74.15.34,0,.66-.09.94-.26.29-.17.51-.43.68-.79.17-.36.25-.8.25-1.32h0ZM17.88,16.12c0-.27-.06-.48-.19-.61s-.29-.2-.49-.2-.36.07-.48.2c-.12.13-.18.34-.18.61v5.08c0,.29.06.5.19.63.13.13.34.19.63.19h3.23c.22,0,.39-.05.5-.15.11-.1.17-.23.17-.39s-.06-.29-.17-.4c-.12-.1-.28-.16-.5-.16h-2.71v-4.8h0ZM22.96,15.42c-.29,0-.5.06-.63.19-.13.13-.19.34-.19.62v4.84c0,.21.02.39.06.52.04.13.12.24.24.31.12.07.31.11.55.11h1.74c.3,0,.58-.02.82-.06.24-.04.47-.11.68-.2.21-.09.4-.22.58-.38.23-.21.41-.44.55-.7.14-.26.25-.56.32-.88.07-.33.1-.69.1-1.08,0-1.2-.34-2.09-1.03-2.68-.26-.23-.56-.39-.88-.47-.32-.08-.71-.13-1.17-.13h-1.74ZM23.48,16.48v4.48h1.01c.22,0,.4,0,.52-.02.13-.01.26-.04.39-.09.14-.05.25-.12.35-.2.45-.38.67-1.03.67-1.95,0-.65-.1-1.14-.29-1.46-.2-.32-.44-.53-.73-.62-.29-.09-.64-.13-1.04-.13h-.88ZM7.16,10.15h16.49l-7.26-6.18c-.31.18-.67.28-1.05.28s-.73-.1-1.03-.27l-7.14,6.17Z"/>
  </g>
</svg>