<?xml version="1.0" encoding="UTF-8"?>
<svg id="Layer_2" data-name="Layer 2" xmlns="http://www.w3.org/2000/svg" viewBox="0 0 19.99 24.3">
  <defs>
    <style>
      .cls-1 {
        fill: #fff;
        fill-rule: evenodd;
      }
    </style>
  </defs>
  <g id="Layer_1-2" data-name="Layer 1">
    <path class="cls-1" d="M10,0c1.58,0,3.02.64,4.06,1.68,1.04,1.04,1.68,2.47,1.68,4.06s-.64,3.02-1.68,4.06c-1.04,1.04-2.47,1.68-4.06,1.68s-3.02-.64-4.06-1.68c-1.04-1.04-1.68-2.47-1.68-4.06s.64-3.02,1.68-4.06c1.04-1.04,2.47-1.68,4.06-1.68h0ZM9.53,12.89h.93c2.62,0,5,1.07,6.73,2.8,1.73,1.73,2.8,4.11,2.8,6.73,0,.52-.21.99-.55,1.33h0c-.34.34-.81.55-1.33.55H1.89c-.52,0-.99-.21-1.33-.55s-.55-.81-.55-1.33c0-2.62,1.07-5,2.8-6.73,1.73-1.73,4.11-2.8,6.73-2.8Z"/>
  </g>
</svg>