<?xml version="1.0" encoding="UTF-8"?>
<svg id="Layer_2" data-name="Layer 2" xmlns="http://www.w3.org/2000/svg" viewBox="0 0 23.8 17.84">
  <defs>
    <style>
      .cls-1 {
        fill: #fff;
        fill-rule: evenodd;
      }
    </style>
  </defs>
  <g id="Layer_1-2" data-name="Layer 1">
    <path class="cls-1" d="M9.74,16.08c-.64-.08-1.28-.2-1.93-.36l-5.74,2.07c-.19.08-.42.07-.61-.04-.31-.19-.41-.6-.22-.91l1.95-3.19c-.91-.66-1.66-1.43-2.2-2.28-.64-1-.99-2.1-.99-3.26C0,5.81,1.37,3.76,3.59,2.29,5.73.88,8.67,0,11.9,0s6.17.88,8.31,2.29c2.22,1.47,3.59,3.52,3.59,5.81s-1.37,4.35-3.59,5.81c-2.14,1.42-5.08,2.29-8.31,2.29-.74,0-1.45-.04-2.16-.13Z"/>
  </g>
</svg>