<?xml version="1.0" encoding="UTF-8"?>
<svg id="Layer_2" data-name="Layer 2" xmlns="http://www.w3.org/2000/svg" viewBox="0 0 22.23 26.54">
  <defs>
    <style>
      .cls-1 {
        fill: #fff;
        fill-rule: evenodd;
      }
    </style>
  </defs>
  <g id="Layer_1-2" data-name="Layer 1">
    <path class="cls-1" d="M9.12,19.24h0c-.04-1.46.52-2.81,1.45-3.79.94-.99,2.25-1.63,3.72-1.67h.02s0,0,0,0c1.46-.04,2.8.52,3.79,1.45.99.94,1.63,2.25,1.67,3.72.04,1.47-.51,2.82-1.45,3.81-.94.99-2.25,1.63-3.72,1.67h-.02s0,0,0,0c-1.46.04-2.8-.52-3.79-1.45-.99-.94-1.63-2.25-1.67-3.72v-.02h0ZM19.83,21.74c-.26.52-.59,1-.97,1.42h0s-.08.09-.08.09c-.4.42-.86.78-1.37,1.07l.19.18h0s1.66,1.56,1.66,1.56c.35.33.81.49,1.27.48.44-.01.87-.18,1.2-.51l.04-.04c.33-.35.49-.81.48-1.27-.01-.45-.2-.9-.55-1.24l-1.85-1.74h0ZM10,0c-1.68,0-3.19.68-4.29,1.78-1.1,1.1-1.78,2.62-1.78,4.29s.68,3.19,1.78,4.29c.5.5,1.08.91,1.73,1.21-1.72.46-3.27,1.37-4.5,2.6-1.81,1.81-2.94,4.31-2.94,7.06v1.2c0,.61.25,1.16.65,1.56s.95.65,1.56.65h9.94c-.67-.28-1.28-.68-1.8-1.17-.57-.54-1.03-1.18-1.36-1.91-.31-.68-.49-1.43-.52-2.23,0-.05,0-.1,0-.14-.01-.78.13-1.53.39-2.22.28-.74.71-1.41,1.24-1.97.54-.57,1.18-1.03,1.91-1.36.68-.31,1.43-.49,2.23-.52.05,0,.1,0,.14,0,.61,0,1.2.07,1.76.23-1.04-.81-2.25-1.42-3.56-1.77.64-.3,1.23-.71,1.73-1.21,1.1-1.1,1.78-2.62,1.78-4.29s-.68-3.19-1.78-4.29c-1.1-1.1-2.62-1.78-4.29-1.78Z"/>
  </g>
</svg>