<?xml version="1.0" encoding="UTF-8"?>
<svg id="Layer_2" data-name="Layer 2" xmlns="http://www.w3.org/2000/svg" viewBox="0 0 25.97 25.83">
  <defs>
    <style>
      .cls-1 {
        fill: #fff;
        fill-rule: evenodd;
      }
    </style>
  </defs>
  <g id="Layer_1-2" data-name="Layer 1">
    <path class="cls-1" d="M5.93,25.83l19.4-11.78c.41-.25.64-.66.64-1.14s-.23-.89-.64-1.14L5.93,0v1.23c0,.49-.25.92-.68,1.16-.43.24-.92.23-1.34-.02l-1.88-1.14c-.42-.26-.91-.26-1.34-.02C.25,1.45,0,1.87,0,2.37v21.1c0,.49.25.92.68,1.16.43.24.92.23,1.34-.02l1.88-1.14c.42-.26.91-.26,1.34-.02.43.24.68.67.68,1.16v1.23Z"/>
  </g>
</svg>