<?xml version="1.0" encoding="UTF-8"?>
<svg id="Layer_2" data-name="Layer 2" xmlns="http://www.w3.org/2000/svg" viewBox="0 0 25.46 21.59">
  <defs>
    <style>
      .cls-1 {
        fill: #fff;
        fill-rule: evenodd;
      }
    </style>
  </defs>
  <g id="Layer_1-2" data-name="Layer 1">
    <path class="cls-1" d="M12.73,0c3.46,0,6.61.93,8.9,2.43,2.37,1.55,3.84,3.73,3.84,6.15,0,2.13-1.14,4.07-3.03,5.57-1.78,1.41-4.25,2.42-7.04,2.82l-2.06,4.25c-.16.33-.56.47-.89.31-.14-.07-.25-.18-.31-.31l-2.06-4.25c-2.8-.4-5.26-1.41-7.04-2.82-1.89-1.49-3.03-3.43-3.03-5.57C0,6.15,1.47,3.98,3.84,2.43,6.12.93,9.27,0,12.73,0h0ZM7.73,7.25c-.76,0-1.38.62-1.38,1.38s.62,1.38,1.38,1.38,1.38-.62,1.38-1.38-.62-1.38-1.38-1.38h0ZM17.73,7.25c-.76,0-1.38.62-1.38,1.38s.62,1.38,1.38,1.38,1.38-.62,1.38-1.38-.62-1.38-1.38-1.38h0ZM12.73,7.25c-.76,0-1.38.62-1.38,1.38s.62,1.38,1.38,1.38,1.38-.62,1.38-1.38-.62-1.38-1.38-1.38Z"/>
  </g>
</svg>