<?xml version="1.0" encoding="UTF-8"?>
<svg id="Layer_2" data-name="Layer 2" xmlns="http://www.w3.org/2000/svg" viewBox="0 0 23.41 25.46">
  <defs>
    <style>
      .cls-1 {
        fill: #fff;
        fill-rule: evenodd;
      }
    </style>
  </defs>
  <g id="Layer_1-2" data-name="Layer 1">
    <path class="cls-1" d="M1.48,9.15c.92-.92,2.18-1.48,3.58-1.48.71,0,1.39.15,2.01.42.48.21.92.48,1.3.82l4.98-2.88c-.18-.96-.09-1.93.26-2.82.41-1.03,1.15-1.93,2.18-2.52,1.21-.7,2.59-.84,3.84-.51,1.25.34,2.38,1.15,3.08,2.36h0c.7,1.21.84,2.59.51,3.84-.33,1.24-1.13,2.35-2.32,3.05l-.04.02c-1.03.6-2.18.79-3.27.63-.94-.14-1.84-.54-2.57-1.18l-4.98,2.88c.01.07.03.14.04.21.04.25.06.5.06.74s-.02.5-.06.74c-.01.07-.02.14-.04.21l4.98,2.88c.74-.64,1.63-1.04,2.57-1.18,1.08-.16,2.21.03,3.23.6l.04.02c1.21.7,2.02,1.82,2.36,3.08.33,1.24.2,2.6-.49,3.8l-.02.04c-.7,1.21-1.82,2.03-3.08,2.36-1.24.33-2.6.2-3.8-.49l-.04-.02c-1.03-.59-1.77-1.5-2.18-2.52-.35-.88-.45-1.86-.26-2.82l-4.99-2.88c-.39.33-.82.61-1.3.82-.62.27-1.3.42-2.01.42-1.4,0-2.67-.57-3.58-1.48-.92-.92-1.48-2.18-1.48-3.58s.57-2.67,1.48-3.58Z"/>
  </g>
</svg>