<?xml version="1.0" encoding="UTF-8"?>
<svg id="Layer_2" data-name="Layer 2" xmlns="http://www.w3.org/2000/svg" viewBox="0 0 25.11 29.36">
  <defs>
    <style>
      .cls-1 {
        fill: #fff;
        fill-rule: evenodd;
      }
    </style>
  </defs>
  <g id="Layer_1-2" data-name="Layer 1">
    <path class="cls-1" d="M1.95,0c1.08,0,1.95.87,1.95,1.95s-.87,1.95-1.95,1.95-1.95-.87-1.95-1.95S.87,0,1.95,0h0ZM23.17,12.73c1.07,0,1.95.87,1.95,1.95s-.87,1.95-1.95,1.95-1.95-.87-1.95-1.95.87-1.95,1.95-1.95h0ZM18.92,16.97c1.07,0,1.95.87,1.95,1.95s-.87,1.95-1.95,1.95-1.95-.87-1.95-1.95.87-1.95,1.95-1.95h0ZM18.92,12.73c1.07,0,1.95.87,1.95,1.95s-.87,1.95-1.95,1.95-1.95-.87-1.95-1.95.87-1.95,1.95-1.95h0ZM18.92,8.49c1.07,0,1.95.87,1.95,1.95s-.87,1.95-1.95,1.95-1.95-.87-1.95-1.95.87-1.95,1.95-1.95h0ZM14.68,21.22c1.08,0,1.95.87,1.95,1.95s-.87,1.95-1.95,1.95-1.95-.87-1.95-1.95.87-1.95,1.95-1.95h0ZM14.68,16.97c1.08,0,1.95.87,1.95,1.95s-.87,1.95-1.95,1.95-1.95-.87-1.95-1.95.87-1.95,1.95-1.95h0ZM14.68,12.73c1.08,0,1.95.87,1.95,1.95s-.87,1.95-1.95,1.95-1.95-.87-1.95-1.95.87-1.95,1.95-1.95h0ZM14.68,8.49c1.08,0,1.95.87,1.95,1.95s-.87,1.95-1.95,1.95-1.95-.87-1.95-1.95.87-1.95,1.95-1.95h0ZM14.68,4.24c1.08,0,1.95.87,1.95,1.95s-.87,1.95-1.95,1.95-1.95-.87-1.95-1.95.87-1.95,1.95-1.95h0ZM10.43,25.46c1.08,0,1.95.87,1.95,1.95s-.87,1.95-1.95,1.95-1.95-.87-1.95-1.95.87-1.95,1.95-1.95h0ZM10.43,21.22c1.08,0,1.95.87,1.95,1.95s-.87,1.95-1.95,1.95-1.95-.87-1.95-1.95.87-1.95,1.95-1.95h0ZM10.43,16.97c1.08,0,1.95.87,1.95,1.95s-.87,1.95-1.95,1.95-1.95-.87-1.95-1.95.87-1.95,1.95-1.95h0ZM10.43,8.49c1.08,0,1.95.87,1.95,1.95s-.87,1.95-1.95,1.95-1.95-.87-1.95-1.95.87-1.95,1.95-1.95h0ZM10.43,4.24c1.08,0,1.95.87,1.95,1.95s-.87,1.95-1.95,1.95-1.95-.87-1.95-1.95.87-1.95,1.95-1.95h0ZM10.43,0c1.08,0,1.95.87,1.95,1.95s-.87,1.95-1.95,1.95-1.95-.87-1.95-1.95.87-1.95,1.95-1.95h0ZM6.19,25.46c1.08,0,1.95.87,1.95,1.95s-.87,1.95-1.95,1.95-1.95-.87-1.95-1.95.87-1.95,1.95-1.95h0ZM6.19,21.22c1.08,0,1.95.87,1.95,1.95s-.87,1.95-1.95,1.95-1.95-.87-1.95-1.95.87-1.95,1.95-1.95h0ZM6.19,4.24c1.08,0,1.95.87,1.95,1.95s-.87,1.95-1.95,1.95-1.95-.87-1.95-1.95.87-1.95,1.95-1.95h0ZM6.19,0c1.08,0,1.95.87,1.95,1.95s-.87,1.95-1.95,1.95-1.95-.87-1.95-1.95.87-1.95,1.95-1.95h0ZM1.95,25.46c1.08,0,1.95.87,1.95,1.95s-.87,1.95-1.95,1.95-1.95-.87-1.95-1.95.87-1.95,1.95-1.95Z"/>
  </g>
</svg>