<?xml version="1.0" encoding="UTF-8"?>
<svg id="Layer_2" data-name="Layer 2" xmlns="http://www.w3.org/2000/svg" viewBox="0 0 25.46 24.25">
  <defs>
    <style>
      .cls-1 {
        fill: #fff;
        fill-rule: evenodd;
      }
    </style>
  </defs>
  <g id="Layer_1-2" data-name="Layer 1">
    <path class="cls-1" d="M.34,7.9L12.45.11c.24-.15.53-.13.75.02l11.96,7.8c.2.13.3.34.3.56h0v2.37c0,.37-.3.67-.67.67-.15,0-.29-.05-.4-.13l-11.6-7.28L1.02,11.42c-.31.19-.72.1-.91-.22-.07-.11-.1-.23-.1-.35h0v-2.37c0-.25.14-.47.34-.58H.34ZM15.47,13.75v-3.47c0-.37-.3-.67-.67-.67h-4.14c-.37,0-.67.3-.67.67v3.47c0,.37.3.67.67.67h4.14c.37,0,.67-.3.67-.67h0ZM2.83,10.92c-.22.11-.37.34-.37.6v12.07c0,.37.3.67.67.67h4.95c.37,0,.67-.3.67-.67v-4.91c0-.54.44-.97.97-.97h6.02c.54,0,.97.44.97.97v4.91c0,.37.3.67.67.67h4.95c.37,0,.67-.3.67-.67v-12.07c0-.22-.11-.44-.31-.56l-9.45-6h0c-.21-.13-.48-.14-.7,0L2.83,10.92Z"/>
  </g>
</svg>