<?xml version="1.0" encoding="UTF-8"?>
<svg id="Layer_2" data-name="Layer 2" xmlns="http://www.w3.org/2000/svg" viewBox="0 0 54.89 82.46">
  <g id="Layer_1-2" data-name="Layer 1">
    <path d="M16.17,82.46c-.95,0-1.92-.25-2.84-.75-2.61-1.45-3.65-4.38-2.53-7.15l10-24.78H5.73c-1.85,0-3.54-.86-4.62-2.35s-1.39-3.36-.82-5.12L12.65,3.97c.77-2.37,2.95-3.97,5.45-3.97h19.72c1.9,0,3.68.94,4.74,2.52s1.28,3.58.56,5.34l-7.14,17.68h13.17c2.16,0,4.12,1.2,5.1,3.13.98,1.93.8,4.21-.47,5.96l-33.05,45.44c-1.14,1.56-2.81,2.39-4.56,2.39ZM18.09,5c-.31,0-.59.2-.69.5L5.04,43.84c-.1.3.02.54.1.65.08.11.26.3.58.3h18.78c.83,0,1.61.41,2.07,1.1.46.69.56,1.56.25,2.33l-11.39,28.21c-.07.16-.24.59.32.9.56.31.83-.06.93-.21L49.74,31.69c.21-.3.15-.57.06-.75-.09-.18-.28-.39-.64-.39h-16.88c-.83,0-1.61-.41-2.07-1.1-.46-.69-.56-1.56-.25-2.33l8.52-21.11c.12-.31,0-.56-.07-.67-.08-.12-.26-.32-.6-.32h-19.72Z"/>
  </g>
</svg>