<?xml version="1.0" encoding="UTF-8"?>
<svg id="Layer_2" data-name="Layer 2" xmlns="http://www.w3.org/2000/svg" viewBox="0 0 21.2 26.11">
  <defs>
    <style>
      .cls-1 {
        fill: #fff;
        fill-rule: evenodd;
      }
    </style>
  </defs>
  <g id="Layer_1-2" data-name="Layer 1">
    <path class="cls-1" d="M10,0c1.68,0,3.19.68,4.29,1.78s1.78,2.62,1.78,4.29-.68,3.19-1.78,4.29c-.5.5-1.08.91-1.73,1.21.9.24,1.75.6,2.53,1.07-.22.06-.43.13-.64.22-.66.27-1.25.67-1.74,1.16-.49.49-.89,1.08-1.16,1.74-.26.63-.41,1.33-.41,2.05,0,1.47.45,2.83,1.11,4.1.5.96,1.11,1.86,1.73,2.72H2.2c-.61,0-1.16-.25-1.56-.65-.4-.4-.65-.95-.65-1.56v-1.2c0-2.75,1.12-5.25,2.94-7.06,1.23-1.23,2.77-2.14,4.5-2.6-.65-.3-1.23-.71-1.73-1.21-1.1-1.1-1.78-2.62-1.78-4.29s.68-3.19,1.78-4.29c1.1-1.1,2.62-1.78,4.29-1.78h0ZM16.51,13.12c-1.3,0-2.47.53-3.32,1.38s-1.37,2.02-1.37,3.32c0,2.7,1.69,5.02,3.23,7.15l.45.63c.12.16.27.29.44.38.17.09.37.14.56.14s.39-.05.56-.14c.18-.09.33-.22.44-.38l.45-.63c1.55-2.13,3.23-4.45,3.23-7.15,0-1.3-.53-2.47-1.38-3.32-.85-.85-2.02-1.38-3.32-1.38h0ZM17.79,16.53c-.33-.33-.78-.53-1.28-.53s-.95.2-1.28.53h0c-.32.32-.53.78-.53,1.28s.2.95.53,1.28c.33.33.78.53,1.28.53s.91-.18,1.23-.48l.04-.05c.33-.33.53-.78.53-1.28s-.2-.95-.53-1.28Z"/>
  </g>
</svg>