<?xml version="1.0" encoding="UTF-8"?>
<svg id="Layer_2" data-name="Layer 2" xmlns="http://www.w3.org/2000/svg" viewBox="0 0 74.02 69.38">
  <g id="Layer_1-2" data-name="Layer 1">
    <g>
      <path d="M14.21,13.69c-.66,0-1.3-.27-1.77-.73-.12-.12-.22-.24-.31-.38-.09-.14-.17-.28-.23-.43-.06-.15-.11-.31-.14-.47-.04-.16-.05-.33-.05-.49,0-.66.27-1.3.73-1.77.93-.93,2.6-.93,3.53,0,.47.47.74,1.11.74,1.77,0,.16-.02.33-.05.49-.03.16-.08.32-.14.47-.07.15-.14.29-.23.43-.09.14-.2.26-.32.38-.46.46-1.11.73-1.76.73Z"/>
      <path d="M26.67,13.69c-.66,0-1.3-.27-1.77-.73-.11-.12-.22-.25-.31-.38-.09-.14-.17-.28-.23-.43-.06-.15-.11-.31-.14-.47s-.05-.33-.05-.49c0-.66.27-1.3.73-1.77.58-.58,1.44-.84,2.26-.68.16.03.32.08.47.14.15.07.29.14.43.23.13.09.26.2.38.31.46.47.73,1.11.73,1.77,0,.16-.02.33-.05.49-.03.16-.08.32-.14.47-.06.15-.14.29-.23.43-.09.13-.2.26-.31.38-.12.11-.25.22-.38.31-.14.09-.28.17-.43.23-.15.06-.31.11-.47.14-.16.03-.33.05-.49.05Z"/>
      <path d="M39.13,13.69c-.16,0-.33-.02-.49-.05-.16-.03-.32-.08-.47-.14-.15-.06-.29-.14-.43-.23-.13-.09-.26-.2-.38-.31-.11-.12-.21-.24-.31-.38-.09-.14-.16-.28-.23-.43-.06-.15-.11-.31-.14-.47s-.05-.33-.05-.49.02-.33.05-.49.08-.32.14-.47c.07-.15.14-.29.23-.43.09-.13.2-.26.31-.38.12-.11.25-.22.38-.31.14-.09.28-.16.43-.23.15-.06.31-.11.47-.14.81-.16,1.68.1,2.26.68.46.47.73,1.11.73,1.77,0,.16-.01.33-.05.49-.03.16-.08.32-.14.47-.06.15-.14.29-.23.43-.09.14-.2.26-.31.38-.46.46-1.11.73-1.77.73Z"/>
      <path d="M66.42,69.38H7.6c-4.19,0-7.6-3.41-7.6-7.6V7.6C0,3.41,3.41,0,7.6,0h58.83c4.19,0,7.6,3.41,7.6,7.6v54.18c0,4.19-3.41,7.6-7.6,7.6ZM7.6,5c-1.43,0-2.6,1.17-2.6,2.6v54.18c0,1.43,1.17,2.6,2.6,2.6h58.83c1.43,0,2.6-1.17,2.6-2.6V7.6c0-1.43-1.17-2.6-2.6-2.6H7.6Z"/>
      <path d="M71.52,22.27H2.5c-1.38,0-2.5-1.12-2.5-2.5s1.12-2.5,2.5-2.5h69.02c1.38,0,2.5,1.12,2.5,2.5s-1.12,2.5-2.5,2.5Z"/>
      <path d="M54.28,37.19H19.74c-1.38,0-2.5-1.12-2.5-2.5s1.12-2.5,2.5-2.5h34.53c1.38,0,2.5,1.12,2.5,2.5s-1.12,2.5-2.5,2.5Z"/>
      <path d="M38.12,52.11h-18.37c-1.38,0-2.5-1.12-2.5-2.5s1.12-2.5,2.5-2.5h18.37c1.38,0,2.5,1.12,2.5,2.5s-1.12,2.5-2.5,2.5Z"/>
    </g>
  </g>
</svg>