<?xml version="1.0" encoding="UTF-8"?>
<svg id="Layer_2" data-name="Layer 2" xmlns="http://www.w3.org/2000/svg" viewBox="0 0 86.14 67.04">
  <g id="Layer_1-2" data-name="Layer 1">
    <g>
      <path d="M79.86,67.04H6.28c-3.46,0-6.28-2.82-6.28-6.28V6.28C0,2.82,2.82,0,6.28,0h73.58c3.46,0,6.28,2.82,6.28,6.28v54.48c0,3.46-2.82,6.28-6.28,6.28ZM6.28,5c-.71,0-1.28.57-1.28,1.28v54.48c0,.71.57,1.28,1.28,1.28h73.58c.71,0,1.28-.57,1.28-1.28V6.28c0-.71-.57-1.28-1.28-1.28H6.28Z"/>
      <path d="M43.07,37.15c-2.61,0-5.22-.92-7.34-2.76L3.67,6.75c-1.05-.9-1.16-2.48-.26-3.53.9-1.05,2.48-1.16,3.53-.26l32.07,27.64c2.35,2.04,5.77,2.05,8.13.02L79.23,2.99c1.05-.9,2.63-.78,3.53.26.9,1.05.78,2.62-.26,3.53l-32.11,27.64c-2.12,1.82-4.72,2.73-7.31,2.73Z"/>
    </g>
  </g>
</svg>