<?xml version="1.0" encoding="UTF-8"?>
<svg id="Layer_2" data-name="Layer 2" xmlns="http://www.w3.org/2000/svg" viewBox="0 0 33.91 18.24">
  <defs>
    <style>
      .cls-1 {
        fill: #fff;
        fill-rule: evenodd;
      }
    </style>
  </defs>
  <g id="Layer_1-2" data-name="Layer 1">
    <path class="cls-1" d="M15.22,2.53l-.82-.9.81-.74c.54-.49,1.39-.45,1.88.09l6.28,6.92h0s.53.59.53.59c.48.53.46,1.34-.05,1.84l-7.95,7.9-.77-.78c-.52-.52-.52-1.37,0-1.88l2.98-2.97c.39-.39.5-.94.29-1.45-.21-.51-.68-.82-1.23-.82H0v-1.1c0-.73.6-1.33,1.33-1.33h15.75c.54,0,1-.3,1.22-.79.22-.49.13-1.04-.23-1.43l-2.85-3.14h0ZM24.95,2.62l5.26,5.79c.48.53.46,1.34-.05,1.84l-6.3,6.27.77.78c.52.52,1.36.52,1.88,0l7-6.97c.5-.5.53-1.31.05-1.84L26.67.9l-.82-.9-.81.74c-.54.49-.58,1.34-.09,1.88h0ZM20.08,2.53l5.34,5.88c.48.53.46,1.34-.05,1.84l-5.36,5.33c-.52.52-.52,1.36,0,1.88l.77.78,7.95-7.9c.5-.5.53-1.31.05-1.84L21.96.99c-.49-.54-1.34-.58-1.88-.09l-.81.74.82.9Z"/>
  </g>
</svg>