<?xml version="1.0" encoding="UTF-8"?>
<svg id="Layer_2" data-name="Layer 2" xmlns="http://www.w3.org/2000/svg" viewBox="0 0 29.64 27.63">
  <defs>
    <style>
      .cls-1 {
        fill: #fff;
        fill-rule: evenodd;
      }
    </style>
  </defs>
  <g id="Layer_1-2" data-name="Layer 1">
    <path class="cls-1" d="M5.62,9.3h0c.17,0,.35,0,.55.03h.03c.56-1.05,1.37-1.94,2.36-2.58,1.1-.72,2.41-1.13,3.81-1.13,1.74,0,3.33.63,4.55,1.69,1.12.97,1.94,2.28,2.27,3.78.98.24,1.84.78,2.49,1.51.74.85,1.19,1.95,1.19,3.15,0,1.33-.54,2.52-1.41,3.39-.87.87-2.08,1.41-3.41,1.41h0c-.75,0-5.19,0-8.64,0-1.94,0-3.56,0-4.03-.01-1.48-.02-2.82-.68-3.79-1.69-.99-1.04-1.61-2.44-1.61-3.92,0-1.55.63-2.95,1.65-3.97s2.42-1.65,3.97-1.65h0ZM17.53,23.19c.49.89.98,1.79.98,2.6h0c0,.9-.55,1.47-1.24,1.71-.25.09-.51.13-.78.13-.27,0-.53-.05-.78-.14-.68-.25-1.21-.82-1.2-1.71.01-.84.55-1.82,1.05-2.74.11-.21.23-.41.35-.65.06-.12.16-.23.3-.29.33-.16.73-.03.89.3.13.27.27.53.42.79h0ZM12.45,23.19c.49.89.98,1.79.98,2.6h0c0,.9-.55,1.47-1.24,1.71-.25.09-.51.13-.78.13-.27,0-.53-.05-.78-.14-.68-.25-1.21-.82-1.19-1.71.01-.84.55-1.82,1.05-2.74.11-.21.23-.41.35-.65.06-.12.16-.23.3-.29.33-.16.73-.03.89.3.13.27.27.53.42.79h0ZM7.38,23.19c.49.89.98,1.79.98,2.6h0c0,.89-.52,1.45-1.2,1.7h-.04c-.25.1-.51.14-.78.14-.27,0-.53-.05-.78-.14-.68-.25-1.21-.82-1.19-1.71.01-.84.55-1.82,1.05-2.74.11-.21.23-.41.35-.65.06-.12.16-.23.3-.29.33-.16.73-.03.89.3.13.27.27.53.42.79h0ZM16.28,2.53c-.69.81-1.23,1.75-1.55,2.79.1.03.21.07.31.11.86.32,1.65.79,2.33,1.37.62.53,1.16,1.17,1.58,1.87.35.58.62,1.21.81,1.88.41.13.79.31,1.15.53.48.29.92.66,1.29,1.08.43.49.77,1.06,1.01,1.68.21.56.33,1.16.35,1.78,1.12-.17,2.16-.57,3.08-1.16,1.28-.82,2.31-1.98,2.96-3.37.15-.33.01-.73-.32-.89-.17-.08-.35-.08-.51-.02-.26.07-.54.12-.82.16-.28.04-.58.06-.89.06-1.84,0-3.5-.74-4.7-1.95s-1.95-2.87-1.95-4.7c0-.5.05-.98.15-1.44.1-.47.26-.93.47-1.37.16-.33.01-.73-.32-.88-.17-.08-.35-.08-.51-.02-1.54.43-2.89,1.31-3.9,2.49Z"/>
  </g>
</svg>