<?xml version="1.0" encoding="UTF-8"?>
<svg id="Layer_2" data-name="Layer 2" xmlns="http://www.w3.org/2000/svg" viewBox="0 0 26.35 26.35">
  <defs>
    <style>
      .cls-1 {
        fill: #fff;
        fill-rule: evenodd;
      }
    </style>
  </defs>
  <g id="Layer_1-2" data-name="Layer 1">
    <path class="cls-1" d="M13.17,0c3.64,0,6.93,1.47,9.32,3.86,2.38,2.38,3.86,5.68,3.86,9.32s-1.47,6.93-3.86,9.32-5.68,3.86-9.32,3.86-6.93-1.47-9.32-3.86S0,16.81,0,13.17,1.47,6.24,3.86,3.86C6.24,1.47,9.54,0,13.17,0h0ZM8.27,20.04l4.9-4.9,4.9,4.9c.54.54,1.42.54,1.96,0s.54-1.42,0-1.96l-4.9-4.9,4.9-4.9c.54-.54.54-1.42,0-1.96s-1.42-.54-1.96,0l-4.9,4.9-4.9-4.9c-.54-.54-1.42-.54-1.96,0-.54.54-.54,1.42,0,1.96l4.9,4.9-4.9,4.9c-.54.54-.54,1.42,0,1.96.54.54,1.42.54,1.96,0Z"/>
  </g>
</svg>