<?xml version="1.0" encoding="UTF-8"?>
<svg id="Layer_2" data-name="Layer 2" xmlns="http://www.w3.org/2000/svg" viewBox="0 0 68.82 68.82">
  <g id="Layer_1-2" data-name="Layer 1">
    <g>
      <path d="M28.18,56.35C12.64,56.35,0,43.71,0,28.18S12.64,0,28.18,0s28.18,12.64,28.18,28.18-12.64,28.18-28.18,28.18ZM28.18,5C15.4,5,5,15.4,5,28.18s10.4,23.18,23.18,23.18,23.18-10.4,23.18-23.18S40.96,5,28.18,5Z"/>
      <path d="M66.32,68.82c-.64,0-1.28-.24-1.77-.73l-19.99-19.99c-.98-.98-.98-2.56,0-3.54.98-.98,2.56-.98,3.54,0l19.99,19.99c.98.98.98,2.56,0,3.54-.49.49-1.13.73-1.77.73Z"/>
    </g>
  </g>
</svg>