<?xml version="1.0" encoding="UTF-8"?>
<svg id="Layer_2" data-name="Layer 2" xmlns="http://www.w3.org/2000/svg" viewBox="0 0 27.52 25.9">
  <defs>
    <style>
      .cls-1 {
        fill: #fff;
        fill-rule: evenodd;
      }
    </style>
  </defs>
  <g id="Layer_1-2" data-name="Layer 1">
    <path class="cls-1" d="M23.52,5.34l3.27-.06c.4,0,.73.31.74.72,0,.14-.04.28-.11.39-.63,1.03-1.47,2-2.43,2.84-.84.73-1.77,1.36-2.76,1.86l-.02,1.55c1.87.84,2.95,2.21,3.42,3.76.36,1.16.37,2.41.12,3.61-.24,1.18-.74,2.32-1.39,3.27-1.07,1.55-2.59,2.62-4.21,2.62h-11.68s-.06,0-.09,0c-1.67-.15-3.32-.96-4.71-2.2-1.15-1.03-2.13-2.36-2.78-3.86C.22,18.32-.11,16.64.03,14.92c.17-2.01.98-4.07,2.67-5.97.27-.3.73-.32,1.03-.06.07.07.13.14.17.23h0c.33.68.94,1.54,1.6,2.24.5.52,1,.93,1.4,1.06h5.83v-.42c-.75-.59-1.36-1.33-1.8-2.18-.48-.93-.75-1.98-.75-3.09,0-1.86.75-3.54,1.97-4.76s2.9-1.97,4.76-1.97c1.72,0,3.3.65,4.49,1.72,1.05.94,1.8,2.2,2.1,3.62h0ZM19.46,3.79c-.6,0-1.15.24-1.54.64-.39.39-.64.94-.64,1.54s.24,1.15.64,1.54h0c.39.4.94.64,1.54.64s1.14-.24,1.54-.64h0c.39-.4.64-.94.64-1.54s-.24-1.15-.64-1.54h0c-.4-.39-.94-.64-1.54-.64Z"/>
  </g>
</svg>