<?xml version="1.0" encoding="UTF-8"?>
<svg id="Layer_2" data-name="Layer 2" xmlns="http://www.w3.org/2000/svg" viewBox="0 0 74.84 66.91">
  <g id="Layer_1-2" data-name="Layer 1">
    <g>
      <path d="M37.42,52.89c-1.47,0-2.85-.57-3.88-1.61l-11.18-11.17c-.98-.98-.98-2.56,0-3.54s2.56-.98,3.54,0l11.18,11.18c.24.24.46.24.7,0l11.18-11.18c.98-.98,2.56-.98,3.54,0s.98,2.56,0,3.54l-11.18,11.18c-1.04,1.04-2.42,1.61-3.88,1.61Z"/>
      <path d="M37.42,52.89c-1.38,0-2.5-1.12-2.5-2.5V2.5c0-1.38,1.12-2.5,2.5-2.5s2.5,1.12,2.5,2.5v47.89c0,1.38-1.12,2.5-2.5,2.5Z"/>
      <path d="M63.63,66.91H11.21c-6.18,0-11.21-5.03-11.21-11.21v-9.36c0-1.38,1.12-2.5,2.5-2.5s2.5,1.12,2.5,2.5v9.36c0,3.43,2.79,6.21,6.21,6.21h52.42c3.43,0,6.21-2.79,6.21-6.21v-9.36c0-1.38,1.12-2.5,2.5-2.5s2.5,1.12,2.5,2.5v9.36c0,6.18-5.03,11.21-11.21,11.21Z"/>
    </g>
  </g>
</svg>