<?xml version="1.0" encoding="UTF-8"?>
<svg id="Layer_2" data-name="Layer 2" xmlns="http://www.w3.org/2000/svg" viewBox="0 0 77.16 78.89">
  <g id="Layer_1-2" data-name="Layer 1">
    <g>
      <path d="M69.13,68.45H8.03c-3.28,0-5.95-2.67-5.95-5.95V18.47c0-3.46,2.82-6.28,6.28-6.28h60.43c3.46,0,6.28,2.82,6.28,6.28v44.03c0,3.28-2.67,5.95-5.95,5.95ZM8.36,17.19c-.71,0-1.28.57-1.28,1.28v44.03c0,.52.43.95.95.95h61.1c.52,0,.95-.42.95-.95V18.47c0-.71-.57-1.28-1.28-1.28H8.36Z"/>
      <path d="M38.58,55.4c-8.31,0-15.08-6.76-15.08-15.08s6.76-15.08,15.08-15.08,15.08,6.76,15.08,15.08-6.76,15.08-15.08,15.08ZM38.58,30.24c-5.56,0-10.08,4.52-10.08,10.08s4.52,10.08,10.08,10.08,10.08-4.52,10.08-10.08-4.52-10.08-10.08-10.08Z"/>
      <path d="M54.98,17.19H22.17c-.83,0-1.61-.41-2.07-1.1-.46-.69-.56-1.56-.25-2.33l3.39-8.4c1.31-3.25,4.42-5.35,7.93-5.35h14.81c3.5,0,6.62,2.1,7.93,5.35l3.39,8.4c.31.77.22,1.65-.25,2.33-.46.69-1.24,1.1-2.07,1.1ZM25.88,12.19h25.4l-2.01-4.97c-.54-1.35-1.84-2.22-3.29-2.22h-14.81c-1.46,0-2.75.87-3.29,2.22l-2.01,4.97Z"/>
      <path d="M2.5,78.89c-.64,0-1.28-.24-1.77-.73-.98-.98-.98-2.56,0-3.54L72.89,2.47c.98-.98,2.56-.98,3.54,0,.98.98.98,2.56,0,3.54L4.27,78.16c-.49.49-1.13.73-1.77.73Z"/>
    </g>
  </g>
</svg>