<?xml version="1.0" encoding="UTF-8"?>
<svg id="Layer_2" data-name="Layer 2" xmlns="http://www.w3.org/2000/svg" viewBox="0 0 67.74 67.74">
  <g id="Layer_1-2" data-name="Layer 1">
    <g>
      <path d="M2.5,67.74c-.66,0-1.3-.26-1.77-.73-.49-.49-.76-1.17-.73-1.87l.37-8.93c.03-.63.29-1.22.73-1.67L53.14,2.5h0c3.33-3.34,8.76-3.34,12.1,0,3.34,3.33,3.34,8.76,0,12.1L13.2,66.64c-.44.44-1.04.7-1.66.73l-8.93.37s-.07,0-.1,0ZM5.33,57.39l-.22,5.24,5.24-.22L61.7,11.06c1.39-1.39,1.39-3.64,0-5.03-1.39-1.38-3.64-1.38-5.03,0L5.33,57.39Z"/>
      <path d="M57.85,20.95c-.64,0-1.28-.24-1.77-.73l-8.56-8.56c-.98-.98-.98-2.56,0-3.54.98-.98,2.56-.98,3.54,0l8.56,8.56c.98.98.98,2.56,0,3.54-.49.49-1.13.73-1.77.73Z"/>
    </g>
  </g>
</svg>