<?xml version="1.0" encoding="UTF-8"?>
<svg id="Layer_2" data-name="Layer 2" xmlns="http://www.w3.org/2000/svg" viewBox="0 0 23.01 24.31">
  <defs>
    <style>
      .cls-1 {
        fill: #fff;
        fill-rule: evenodd;
      }
    </style>
  </defs>
  <g id="Layer_1-2" data-name="Layer 1">
    <path class="cls-1" d="M15.85,4.49l.08.04c.43.25.87.4,1.32.44.45.05.91,0,1.38-.16l1.73-.58c.32-.11.66.04.8.33l1.72,2.97c.16.28.1.62-.14.83l-1.32,1.17c-.37.33-.65.71-.84,1.13-.19.42-.28.89-.27,1.38v.12c0,.49.09.95.28,1.37.19.41.46.79.83,1.11l1.36,1.21c.24.21.29.56.13.83l-1.73,3c-.17.29-.51.4-.81.29l-1.65-.55c-.47-.16-.94-.21-1.4-.16-.45.05-.9.2-1.33.46l-.1.06-.05.03c-.41.24-.74.54-.99.89-.26.37-.45.8-.55,1.28l-.36,1.78c-.06.31-.34.53-.65.53h0s-3.47,0-3.47,0c-.34,0-.62-.26-.66-.59l-.34-1.67c-.1-.49-.29-.92-.56-1.29-.27-.37-.62-.68-1.06-.92l-.14-.08c-.42-.24-.85-.38-1.29-.43-.45-.05-.91,0-1.38.16l-1.73.58c-.32.11-.66-.04-.8-.33l-1.72-2.97c-.16-.28-.1-.62.14-.83l1.32-1.17c.37-.33.65-.71.84-1.13.19-.42.28-.89.27-1.38v-.12c0-.49-.09-.95-.28-1.37-.18-.41-.46-.79-.83-1.11l-1.36-1.21c-.24-.21-.29-.56-.13-.83l1.73-3c.17-.29.51-.4.81-.29l1.65.55c.47.16.94.21,1.4.16.45-.05.9-.2,1.33-.46l.1-.06.05-.03c.41-.24.74-.54.99-.89.26-.37.45-.8.55-1.28l.36-1.78C9.14.22,9.41,0,9.72,0h0s3.47,0,3.47,0c.34,0,.62.26.66.59l.34,1.67c.1.49.29.92.56,1.29.27.37.62.68,1.06.92l.03.02h0ZM11.5,9.38c-.77,0-1.46.31-1.96.81h0c-.5.51-.81,1.2-.81,1.96s.31,1.46.81,1.96h0c.5.51,1.2.82,1.96.82s1.42-.3,1.92-.78l.04-.04c.5-.5.81-1.2.81-1.96s-.31-1.46-.81-1.96c-.5-.5-1.2-.81-1.96-.81h0ZM14.89,8.77c-.87-.87-2.06-1.4-3.39-1.4s-2.52.54-3.39,1.4c-.87.87-1.4,2.06-1.4,3.39s.54,2.52,1.4,3.39c.87.87,2.06,1.4,3.39,1.4s2.52-.54,3.39-1.4c.87-.87,1.4-2.06,1.4-3.39s-.54-2.52-1.4-3.39Z"/>
  </g>
</svg>