<?xml version="1.0" encoding="UTF-8"?>
<svg id="Layer_2" data-name="Layer 2" xmlns="http://www.w3.org/2000/svg" viewBox="0 0 29.57 29.57">
  <defs>
    <style>
      .cls-1 {
        fill: #fff;
        fill-rule: evenodd;
      }
    </style>
  </defs>
  <g id="Layer_1-2" data-name="Layer 1">
    <path class="cls-1" d="M14.79,0c8.17,0,14.79,6.62,14.79,14.79s-6.62,14.79-14.79,14.79S0,22.95,0,14.79,6.62,0,14.79,0h0ZM12.29,22.54c.97,0,1.89-.18,2.75-.5l12.26-7.25-12.24-7.24c-.53-.31-2.12-.51-2.77-.51-4.28,0-7.75,3.47-7.75,7.75s3.47,7.75,7.75,7.75h0ZM12.29,18.59c2.1,0,3.8-1.7,3.8-3.8s-1.7-3.8-3.8-3.8-3.8,1.7-3.8,3.8,1.7,3.8,3.8,3.8Z"/>
  </g>
</svg>