<?xml version="1.0" encoding="UTF-8"?>
<svg id="Layer_2" data-name="Layer 2" xmlns="http://www.w3.org/2000/svg" viewBox="0 0 32.19 24.46">
  <defs>
    <style>
      .cls-1 {
        fill: #fff;
        fill-rule: evenodd;
      }
    </style>
  </defs>
  <g id="Layer_1-2" data-name="Layer 1">
    <path class="cls-1" d="M10.58,3.07c.53-.18,1.12-.33,1.73-.45.14-.03.27-.05.41-.07.02.34.1.68.23,1.01.15.37.38.71.67,1,.29.29.64.52,1.01.67.38.16.78.24,1.18.24s.8-.08,1.18-.24c.29-.12.56-.29.81-.5h.02s.17-.17.17-.17c.29-.29.52-.64.67-1.01.13-.33.21-.67.23-1.01.14.02.28.05.41.07.61.12,1.19.27,1.73.45.96.33,1.65.75,2.06,1.21.34.38.51.79.51,1.21s-.17.84-.51,1.21c-.41.46-1.1.87-2.06,1.21-1.46.51-3.36.76-5.24.76s-3.77-.25-5.23-.76c-.96-.33-1.65-.75-2.06-1.21-.34-.38-.51-.79-.51-1.21s.17-.84.51-1.21c.41-.46,1.1-.87,2.06-1.21h0ZM14.14.69h0c-.46.47-.69,1.07-.69,1.68s.23,1.21.69,1.68c.46.46,1.07.69,1.67.69s1.21-.23,1.67-.69h0c.46-.46.69-1.07.69-1.68s-.23-1.21-.69-1.67h0s0,0,0,0c-.46-.46-1.07-.69-1.67-.69s-1.21.23-1.67.69h0ZM3.65,6.83c-.14-.2-.36-.3-.59-.3h0s-2.33,0-2.33,0c-.4,0-.73.33-.73.73,0,.25.13.47.32.6,1.07.85,1.36,2.59,1.64,4.3.45,2.67.88,5.28,3.88,5.7.53,1.24,1.29,2.39,2.3,3.4.24.24.49.46.75.68.26.21.53.42.81.61l.06.04,12.21-.1v-.03c.23-.16.46-.34.67-.51.26-.22.51-.44.75-.68.86-.86,1.54-1.83,2.05-2.86,1.03-.15,2.07-.52,3.01-1.07,1.04-.61,1.97-1.46,2.65-2.48.32-.48.57-.97.75-1.46.39-1.07.44-2.13.18-3.08-.27-.97-.85-1.81-1.73-2.4-.31-.21-.66-.39-1.04-.53-.8-.29-1.66-.39-2.54-.32-.69.05-1.39.21-2.07.46-.2-.28-.41-.56-.63-.83-.1.17-.22.33-.36.49-.26.29-.6.56-1.01.8-.38.22-.83.43-1.35.61-.77.27-1.63.46-2.54.6-.95.14-1.94.21-2.93.21s-1.98-.07-2.93-.21c-.91-.13-1.78-.33-2.54-.6-.52-.18-.97-.38-1.35-.61-.42-.24-.75-.51-1.01-.8-.16-.18-.3-.37-.41-.57-.81.94-1.43,1.98-1.86,3.08l-2.07-2.87h0ZM21.96,22.78v.96c0,.4-.33.73-.73.73h-10.67c-.4,0-.73-.33-.73-.73v-.85l12.13-.1h0ZM26.09,10.53c.28-.09.56-.15.83-.17.42-.04.82,0,1.2.14.13.05.24.1.33.16.23.16.36.37.4.61.05.3,0,.64-.13.99-.09.25-.22.51-.38.74-.3.45-.75.89-1.27,1.25-.18.13-.38.25-.57.35.03-.32.04-.65.04-.97,0-1.05-.15-2.09-.45-3.1Z"/>
  </g>
</svg>