<?xml version="1.0" encoding="UTF-8"?>
<svg id="Layer_2" data-name="Layer 2" xmlns="http://www.w3.org/2000/svg" viewBox="0 0 29.85 20.45">
  <defs>
    <style>
      .cls-1 {
        fill: #fff;
        fill-rule: evenodd;
      }
    </style>
  </defs>
  <g id="Layer_1-2" data-name="Layer 1">
    <path class="cls-1" d="M29.37,6.85L21.54.31c-.41-.34-.94-.41-1.42-.18-.48.22-.77.68-.77,1.21v3.13c0,.73-.6,1.33-1.33,1.33H1.33c-.73,0-1.33.6-1.33,1.33v.75c0,.73.6,1.33,1.33,1.33h27.18c.57,0,1.06-.34,1.25-.88.19-.54.04-1.11-.4-1.48h0ZM29.37,13.59l-7.82,6.54c-.41.34-.94.41-1.42.18-.48-.22-.77-.68-.77-1.21v-3.13c0-.73-.6-1.33-1.33-1.33H1.33c-.73,0-1.33-.6-1.33-1.33v-.75c0-.73.6-1.33,1.33-1.33h27.18c.57,0,1.06.34,1.25.88.19.54.04,1.11-.4,1.48Z"/>
  </g>
</svg>