<?xml version="1.0" encoding="UTF-8"?>
<svg id="Layer_2" data-name="Layer 2" xmlns="http://www.w3.org/2000/svg" viewBox="0 0 26.79 18.33">
  <defs>
    <style>
      .cls-1 {
        fill: #fff;
        fill-rule: evenodd;
      }
    </style>
  </defs>
  <g id="Layer_1-2" data-name="Layer 1">
    <path class="cls-1" d="M1.48,0h20.52l-10.29,6.94L1.48,0h0ZM15.62,13.84v-2.19c0-.37.3-.67.67-.67h.67l-.47-.47c-.26-.26-.26-.68,0-.94l1.55-1.55c.26-.26.68-.26.94,0l.47.47v-.67c0-.37.3-.67.67-.67h2.19c.37,0,.67.3.67.67v.67l.47-.47c.26-.26.68-.26.94,0l1.55,1.55c.26.26.26.68,0,.94l-.47.47h.67c.37,0,.67.3.67.67v2.19c0,.37-.3.67-.67.67h-.67l.47.47c.26.26.26.68,0,.94l-1.55,1.55c-.26.26-.68.26-.94,0l-.47-.47v.67c0,.37-.3.67-.67.67h-2.19c-.37,0-.67-.3-.67-.67v-.67l-.47.47c-.26.26-.68.26-.94,0l-1.55-1.55c-.26-.26-.26-.68,0-.94l.47-.47h-.67c-.37,0-.67-.3-.67-.67h0ZM21.21,11.1c-.91,0-1.65.74-1.65,1.65s.74,1.65,1.65,1.65,1.65-.74,1.65-1.65-.74-1.65-1.65-1.65h0ZM23.41.55l-11.36,7.66c-.2.14-.48.14-.7,0L.01.51s-.01.08-.01.12v14.13c0,.35.28.63.63.63h15c0-.12.03-.24.07-.35-.13-.06-.24-.15-.35-.25h0c-.24-.24-.39-.58-.39-.94v-2.19c0-.37.15-.7.39-.94.1-.1.22-.18.35-.25-.05-.14-.07-.28-.07-.42,0-.34.13-.68.39-.94l1.55-1.55c.26-.26.6-.39.94-.39.14,0,.28.02.42.07.06-.13.15-.24.25-.34.24-.24.57-.39.94-.39h2.19c.37,0,.7.15.94.39h0c.07.06.12.14.18.22V.63s0-.05,0-.08Z"/>
  </g>
</svg>