<?xml version="1.0" encoding="UTF-8"?>
<svg id="Layer_2" data-name="Layer 2" xmlns="http://www.w3.org/2000/svg" viewBox="0 0 160.54 160.54">
  <defs>
    <style>
      .cls-1 {
        fill: #080a16;
      }
    </style>
  </defs>
  <g id="Calque_1" data-name="Calque 1">
    <path class="cls-1" d="M131.2,0c-10.89,0-20.4,5.96-25.46,14.79-5.06-8.83-14.58-14.79-25.46-14.79s-20.4,5.96-25.46,14.79C49.74,5.96,40.23,0,29.34,0,13.16,0,0,13.16,0,29.34v131.2h160.54V29.34c0-16.18-13.16-29.34-29.34-29.34ZM50.93,152.78H7.76V29.34c0-11.9,9.68-21.58,21.58-21.58s21.58,9.68,21.58,21.58v123.44ZM101.85,152.78h-43.17V29.34c0-11.9,9.68-21.58,21.58-21.58s21.58,9.68,21.58,21.58v123.44ZM152.78,152.78h-43.17V29.34c0-11.9,9.68-21.58,21.58-21.58s21.58,9.68,21.58,21.58v123.44Z"/>
  </g>
</svg>