<?xml version="1.0" encoding="UTF-8"?>
<svg id="Layer_2" data-name="Layer 2" xmlns="http://www.w3.org/2000/svg" viewBox="0 0 24.63 23.99">
  <defs>
    <style>
      .cls-1 {
        fill: #fff;
        fill-rule: evenodd;
      }
    </style>
  </defs>
  <g id="Layer_1-2" data-name="Layer 1">
    <path class="cls-1" d="M2.16,23.19l.92-4.12c.03-.15.11-.29.24-.39.29-.23.71-.17.93.11.3.39.64.76,1,1.1.35.34.73.65,1.13.93.08.05.14.12.2.21.19.31.09.72-.22.91l-3.19,1.95c-.14.09-.32.12-.49.08-.36-.08-.58-.43-.51-.79h0ZM11.71,7.15c0-.37.3-.67.67-.67s.67.3.67.67v5.36c0,.27-.16.5-.39.61l-3.94,2.27c-.32.18-.72.07-.91-.24-.18-.32-.07-.72.24-.91l3.66-2.11v-4.98h0ZM5.12,0c-1.41,0-2.7.57-3.62,1.5S0,3.71,0,5.12c0,.7.14,1.37.4,1.98.26.63.65,1.2,1.14,1.67.06.06.13.11.22.14.34.14.73-.03.86-.36.55-1.34,1.37-2.55,2.4-3.55,1.02-.99,2.24-1.78,3.6-2.29.08-.03.16-.08.23-.14.27-.25.28-.67.03-.94-.48-.51-1.06-.92-1.71-1.21-.63-.27-1.32-.43-2.04-.43h0ZM19.51,0c1.41,0,2.7.57,3.62,1.5.93.93,1.5,2.21,1.5,3.62,0,.7-.14,1.37-.4,1.98-.27.63-.65,1.2-1.14,1.67-.26.26-.68.25-.94,0-.07-.07-.12-.16-.16-.25-.55-1.33-1.36-2.52-2.38-3.51-1.02-1-2.25-1.78-3.61-2.3-.34-.13-.52-.51-.39-.86.03-.09.08-.17.15-.23.47-.51,1.05-.91,1.7-1.2.63-.27,1.32-.43,2.04-.43h0ZM12.98,2.65v2.55c0,.37-.3.67-.67.67s-.67-.3-.67-.67v-2.55c-2.46.16-4.68,1.23-6.33,2.87-1.64,1.64-2.71,3.86-2.87,6.32h2.55c.37,0,.67.3.67.67s-.3.67-.67.67h-2.55c.16,2.47,1.23,4.68,2.87,6.33,1.64,1.64,3.86,2.71,6.33,2.87v-2.55c0-.37.3-.67.67-.67s.67.3.67.67v2.55c2.47-.16,4.68-1.23,6.33-2.87,1.64-1.64,2.71-3.86,2.87-6.33h-2.55c-.37,0-.67-.3-.67-.67s.3-.67.67-.67h2.55c-.16-2.46-1.23-4.68-2.87-6.32-1.64-1.64-3.86-2.71-6.33-2.87h0ZM21.56,19.07l.92,4.12c.08.36-.15.71-.51.79-.17.04-.35,0-.49-.08l-3.19-1.95c-.31-.19-.41-.6-.22-.91.05-.08.12-.15.2-.21.4-.28.77-.6,1.13-.93.36-.34.69-.71,1-1.1.23-.29.64-.34.93-.11.13.1.21.24.24.39Z"/>
  </g>
</svg>