<?xml version="1.0" encoding="UTF-8"?>
<svg id="Layer_2" data-name="Layer 2" xmlns="http://www.w3.org/2000/svg" viewBox="0 0 24.44 24.44">
  <defs>
    <style>
      .cls-1 {
        fill: #fff;
        fill-rule: evenodd;
      }
    </style>
  </defs>
  <g id="Layer_1-2" data-name="Layer 1">
    <path class="cls-1" d="M18.3,4.04c.38.28.74.59,1.07.91.34.33.65.68.93,1.05l.02.02s.1.08.15.1c.06.02.14.02.21,0l1.14-.34c.41-.12.83-.08,1.2.09.36.17.67.47.83.87l.39.92c.17.4.18.82.05,1.2-.13.38-.4.71-.77.93l-1.04.58c-.07.04-.12.09-.15.15-.03.06-.04.13-.03.21.07.45.1.92.11,1.4,0,.47-.02.93-.08,1.4-.01.08,0,.15.03.21.03.06.08.11.15.15l1.05.56c.38.2.65.53.79.91.14.38.14.8-.02,1.2l-.38.93c-.16.4-.46.71-.82.88-.36.18-.78.23-1.2.11l-1.15-.32c-.07-.02-.15-.02-.21,0-.06.02-.12.06-.17.13-.28.38-.59.73-.91,1.07-.33.34-.68.65-1.05.93l-.02.02s-.08.1-.1.15c-.02.06-.02.14,0,.21l.34,1.14c.12.41.08.83-.09,1.2-.17.36-.47.67-.87.84l-.92.39c-.4.17-.82.18-1.2.05-.38-.13-.71-.4-.93-.77l-.58-1.04c-.04-.07-.09-.12-.15-.15-.06-.03-.13-.04-.21-.03-.45.07-.92.1-1.4.11-.47,0-.93-.02-1.4-.08-.08,0-.15,0-.21.03-.06.03-.11.08-.15.15l-.56,1.05c-.2.38-.53.65-.91.79-.38.14-.8.14-1.2-.02l-.93-.38c-.4-.16-.71-.46-.88-.82-.18-.36-.23-.78-.11-1.2l.32-1.15c.02-.07.02-.15,0-.21-.02-.06-.06-.12-.13-.17-.38-.28-.73-.59-1.07-.91-.33-.33-.65-.68-.93-1.05-.05-.06-.11-.11-.17-.13-.06-.02-.14-.02-.21,0l-1.14.34c-.41.12-.83.08-1.2-.09-.36-.17-.67-.47-.84-.87l-.39-.92c-.17-.4-.18-.82-.05-1.2.13-.38.4-.72.77-.93l1.04-.58c.07-.04.12-.09.15-.15.03-.06.04-.13.03-.21-.07-.45-.1-.92-.11-1.4,0-.47.02-.93.08-1.4,0-.08,0-.15-.03-.21-.03-.06-.08-.11-.15-.15l-1.05-.57c-.38-.2-.65-.53-.79-.91-.14-.38-.14-.8.02-1.2l.38-.93c.16-.4.46-.7.82-.88.36-.18.78-.23,1.2-.11l1.15.32c.07.02.15.02.21,0,.06-.02.12-.06.17-.13.28-.38.59-.74.91-1.07.33-.34.68-.65,1.05-.93h0c.06-.05.1-.11.12-.17.02-.06.02-.14,0-.21l-.34-1.14c-.12-.41-.08-.83.09-1.2.17-.36.47-.67.87-.84l.92-.39c.4-.17.82-.18,1.2-.05.38.13.72.4.93.77l.58,1.04c.04.07.09.12.15.15.06.03.13.04.21.03.45-.07.92-.1,1.4-.11.47,0,.93.02,1.4.08.08.01.15,0,.21-.03.06-.03.11-.08.15-.15l.56-1.05c.2-.38.53-.65.91-.79.38-.14.8-.14,1.2.02l.93.38c.4.16.71.46.88.82.18.36.23.78.11,1.2l-.32,1.15c-.02.07-.02.15,0,.21.02.06.06.12.13.17h0ZM14.14,7.59s-.06-.02-.08-.03c-1.27-.5-2.63-.45-3.79.05-1.18.5-2.17,1.45-2.69,2.73-.52,1.29-.47,2.66.03,3.84.5,1.18,1.45,2.17,2.73,2.69,1.28.52,2.66.47,3.84-.03,1.17-.5,2.15-1.43,2.67-2.7,0-.03.02-.06.03-.08.5-1.27.45-2.63-.05-3.79-.5-1.17-1.43-2.15-2.7-2.67Z"/>
  </g>
</svg>