<?xml version="1.0" encoding="UTF-8"?>
<svg id="Layer_2" data-name="Layer 2" xmlns="http://www.w3.org/2000/svg" viewBox="0 0 23.11 24.98">
  <defs>
    <style>
      .cls-1 {
        fill: #fff;
        fill-rule: evenodd;
      }
    </style>
  </defs>
  <g id="Layer_1-2" data-name="Layer 1">
    <path class="cls-1" d="M15.15,5.58c.11.06.21.11.3.16l.04.02c.11.06.2.12.29.18.48.31,1,.47,1.51.48.52.01,1.05-.12,1.53-.4h0s1.99-1.15,1.99-1.15c.32-.18.72-.08.91.24l1.3,2.26c.18.32.08.72-.24.91l-2,1.15c-.49.28-.87.67-1.11,1.12-.25.46-.37.98-.34,1.55,0,.15.01.28.01.38s0,.23-.01.38c-.03.56.09,1.09.34,1.55.25.45.63.84,1.12,1.12l1.99,1.15c.32.18.43.59.24.91l-1.3,2.26c-.18.32-.59.43-.91.24l-2.02-1.17c-.48-.27-.99-.4-1.5-.38-.52.01-1.04.17-1.51.48-.1.07-.21.13-.32.2-.11.06-.22.12-.33.18-.5.26-.9.63-1.17,1.07-.27.44-.41.96-.41,1.53v2.3c0,.37-.3.67-.67.67h-2.61c-.37,0-.67-.3-.67-.67v-2.3c0-.57-.15-1.09-.41-1.53-.27-.44-.67-.81-1.17-1.07-.11-.06-.22-.12-.33-.18-.11-.07-.22-.13-.32-.2-.48-.31-1-.47-1.51-.48-.52-.01-1.05.12-1.53.4h0s-1.99,1.15-1.99,1.15c-.32.18-.72.08-.91-.24L.09,17.6c-.18-.32-.08-.72.24-.91l2-1.15c.49-.28.87-.67,1.11-1.12.25-.46.37-.98.34-1.55,0-.15-.01-.28-.01-.38s0-.23.01-.38c.03-.57-.09-1.09-.34-1.55-.25-.45-.63-.84-1.12-1.12l-1.99-1.15c-.32-.18-.43-.59-.24-.91l1.3-2.26c.18-.32.59-.43.91-.24l2.02,1.17c.48.27.99.4,1.5.39.52-.01,1.04-.17,1.51-.48.1-.07.21-.13.32-.2.11-.06.22-.13.34-.18.5-.26.9-.63,1.17-1.07.27-.44.41-.96.41-1.53V.67c0-.37.3-.67.67-.67h2.61c.37,0,.67.3.67.67v2.3c0,.57.15,1.09.41,1.53.27.44.67.81,1.17,1.07l.03.02h0ZM13.92,10.12c-.61-.61-1.44-.98-2.37-.98s-1.76.37-2.37.98c-.61.61-.98,1.44-.98,2.37s.37,1.76.98,2.37c.61.61,1.44.98,2.37.98s1.76-.37,2.37-.98c.61-.61.98-1.44.98-2.37s-.37-1.76-.98-2.37Z"/>
  </g>
</svg>