<?xml version="1.0" encoding="UTF-8"?>
<svg id="Layer_2" data-name="Layer 2" xmlns="http://www.w3.org/2000/svg" viewBox="0 0 30.58 19.05">
  <defs>
    <style>
      .cls-1 {
        fill: #fff;
        fill-rule: evenodd;
      }
    </style>
  </defs>
  <g id="Layer_1-2" data-name="Layer 1">
    <path class="cls-1" d="M7.99.08l21.83,8.34c.47.18.76.61.76,1.11s-.29.93-.76,1.11L7.99,18.97c-.52.2-1.08.02-1.4-.44-.31-.46-.27-1.05.1-1.46l6.08-6.75c.41-.45.41-1.13,0-1.58L6.69,1.98c-.37-.41-.41-1-.1-1.46.31-.46.88-.63,1.4-.44h0ZM1.15,6.93l1.93,2.15c.23.25.23.63,0,.89l-1.93,2.15c-.22.25-.59.29-.87.1-.28-.19-.37-.55-.22-.84l.78-1.55c.1-.19.1-.4,0-.59L.07,7.67c-.15-.3-.06-.66.22-.84.28-.19.64-.14.87.1h0ZM5.21,4.89c-.4-.44-1.05-.52-1.55-.19-.49.34-.66.98-.39,1.51l1.4,2.78c.17.35.17.72,0,1.06l-1.4,2.78c-.27.53-.1,1.17.39,1.51.49.34,1.15.26,1.55-.19l3.45-3.84c.41-.45.41-1.13,0-1.58l-3.45-3.84Z"/>
  </g>
</svg>