<?xml version="1.0" encoding="UTF-8"?>
<svg id="Layer_2" data-name="Layer 2" xmlns="http://www.w3.org/2000/svg" viewBox="0 0 160.54 160.53">
  <defs>
    <style>
      .cls-1 {
        fill: #080a16;
      }
    </style>
  </defs>
  <g id="Calque_1" data-name="Calque 1">
    <g>
      <path class="cls-1" d="M0,80.26v-40.13c22.17,0,40.13-17.97,40.13-40.13h40.14c0,44.33-35.94,80.26-80.27,80.26Z"/>
      <path class="cls-1" d="M160.54,80.26v-40.13c-22.17,0-40.13-17.97-40.13-40.13h-40.14c0,44.33,35.94,80.26,80.27,80.26Z"/>
      <path class="cls-1" d="M0,160.53v-40.13c22.17,0,40.13-17.97,40.13-40.13h40.14c0,44.33-35.94,80.26-80.27,80.26Z"/>
      <path class="cls-1" d="M160.54,160.53v-40.13c-22.17,0-40.13-17.97-40.13-40.13h-40.14c0,44.33,35.94,80.26,80.27,80.26Z"/>
    </g>
  </g>
</svg>