<?xml version="1.0" encoding="UTF-8"?>
<svg id="Layer_2" data-name="Layer 2" xmlns="http://www.w3.org/2000/svg" viewBox="0 0 21.94 17.28">
  <defs>
    <style>
      .cls-1 {
        fill: #fff;
        fill-rule: evenodd;
      }
    </style>
  </defs>
  <g id="Layer_1-2" data-name="Layer 1">
    <path class="cls-1" d="M0,.67v11.55c0,.37.3.67.67.67h10.69l6.79,4.29c.31.2.72.1.92-.21.12-.19.13-.43.04-.62l-1.42-3.46h3.58c.37,0,.67-.3.67-.67V.67c0-.37-.3-.67-.67-.67H.67c-.37,0-.67.3-.67.67h0ZM6.49,5.27c.68,0,1.24.55,1.24,1.24s-.55,1.24-1.24,1.24-1.24-.55-1.24-1.24.55-1.24,1.24-1.24h0ZM15.44,7.74c-.68,0-1.24-.55-1.24-1.24s.55-1.24,1.24-1.24,1.24.55,1.24,1.24-.55,1.24-1.24,1.24h0ZM12.21,6.51c0,.68-.55,1.24-1.24,1.24s-1.24-.55-1.24-1.24.55-1.24,1.24-1.24,1.24.55,1.24,1.24Z"/>
  </g>
</svg>