<?xml version="1.0" encoding="UTF-8"?>
<svg id="Layer_2" data-name="Layer 2" xmlns="http://www.w3.org/2000/svg" viewBox="0 0 24.97 17.76">
  <defs>
    <style>
      .cls-1 {
        fill: #fff;
        fill-rule: evenodd;
      }
    </style>
  </defs>
  <g id="Layer_1-2" data-name="Layer 1">
    <path class="cls-1" d="M1.58,0h21.87l-10.97,7.39L1.58,0h0ZM17.25,8.81c-.37,0-.67.3-.67.67v7.62c0,.37.3.67.67.67h7.03c.37,0,.67-.3.67-.67v-7.62c0-.37-.3-.67-.67-.67h-1.09v-.51c0-.67-.27-1.27-.71-1.71-.44-.44-1.05-.71-1.71-.71s-1.27.27-1.71.71h0c-.44.44-.71,1.05-.71,1.71v.51h-1.09ZM19.67,8.81h2.18v-.51c0-.3-.12-.57-.32-.77-.2-.2-.47-.32-.77-.32s-.57.12-.77.32h0c-.2.2-.32.47-.32.77v.51h0ZM20.73,11.46c.52,0,.95.42.95.95,0,.39-.23.72-.56.86l.02.07.41,1.17h-1.64l.41-1.17.02-.07c-.33-.15-.56-.48-.56-.86,0-.52.42-.95.95-.95h0ZM24.96.59l-12.11,8.15c-.22.15-.51.15-.74,0L.01.54s-.01.08-.01.13v15.04c0,.37.3.67.67.67h15.25v-6.9c0-.37.15-.7.39-.94.24-.24.57-.39.94-.39h.43c.02-.36.1-.7.23-1.02.16-.38.39-.72.67-1h0s.05-.04.05-.04c.28-.27.6-.48.96-.63.37-.15.76-.24,1.18-.24s.81.08,1.18.24c.38.16.72.39,1,.67.52.52.86,1.24.9,2.02h.43c.25,0,.48.07.68.19V.67s0-.05,0-.08Z"/>
  </g>
</svg>