<?xml version="1.0" encoding="UTF-8"?>
<svg id="Layer_2" data-name="Layer 2" xmlns="http://www.w3.org/2000/svg" viewBox="0 0 22.8 19.82">
  <defs>
    <style>
      .cls-1 {
        fill: #fff;
        fill-rule: evenodd;
      }
    </style>
  </defs>
  <g id="Layer_1-2" data-name="Layer 1">
    <path class="cls-1" d="M0,14.04v-6.94c0-.89.54-1.66,1.42-2.2.68-.42,1.57-.7,2.56-.76L2.68.91c-.08-.19-.06-.42.06-.6C2.93,0,3.35-.09,3.65.1l6.32,4.03h8.4c1.16,0,2.23.3,3.01.78.88.54,1.42,1.32,1.42,2.2v9.74c0,.89-.54,1.66-1.42,2.2-.78.48-1.84.78-3,.78h0s-.09,0-.13-.02l-13.88-2.78c-1.14,0-2.18-.3-2.95-.78-.88-.54-1.42-1.32-1.42-2.2Z"/>
  </g>
</svg>