<?xml version="1.0" encoding="UTF-8"?>
<svg id="Layer_2" data-name="Layer 2" xmlns="http://www.w3.org/2000/svg" viewBox="0 0 27.93 27.91">
  <defs>
    <style>
      .cls-1 {
        fill: #fff;
        fill-rule: evenodd;
      }
    </style>
  </defs>
  <g id="Layer_1-2" data-name="Layer 1">
    <path class="cls-1" d="M27.93.78l-.05,10.23c0,.2-.06.4-.21.54L11.49,27.66l-.04.04c-.28.28-.75.28-1.03,0L.21,17.48h0c-.28-.28-.28-.74,0-1.03L16.32.21C16.45.08,16.64,0,16.84,0l10.37.05c.4,0,.73.33.72.73h0ZM6.82,18.17c-.1-.02-.2-.04-.29-.06-.09-.02-.17-.03-.24-.03-.07,0-.14.01-.21.04-.07.02-.13.07-.2.13-.08.08-.14.18-.16.3-.02.12-.02.23.03.33.04.09.12.2.23.31l2.73,2.73c.13.13.27.21.4.21.13,0,.25-.04.35-.14.1-.1.14-.21.14-.35,0-.13-.08-.27-.21-.4l-2.07-2.07,3.4.72c.09.02.19.03.28.05.09.02.18.02.27.02.08,0,.16-.02.23-.06.07-.03.14-.08.2-.15.26-.26.23-.54-.08-.85l-2.78-2.78c-.14-.14-.27-.21-.4-.22-.13,0-.24.04-.35.14-.1.1-.14.21-.13.34,0,.13.08.26.22.4l2.11,2.11-3.46-.71h0ZM12.16,13.2c.11-.11.17-.23.18-.33,0-.11-.04-.2-.12-.29-.08-.08-.18-.12-.28-.12-.11,0-.22.06-.33.18l-1.89,1.89c-.1.1-.17.2-.2.29-.04.09-.04.19,0,.29.03.1.1.2.21.3l2.66,2.66c.15.15.3.23.44.23.14,0,.28-.08.44-.23l1.95-1.95c.11-.11.17-.22.18-.33,0-.11-.03-.21-.12-.29-.09-.09-.19-.13-.29-.12-.11,0-.22.06-.33.18l-1.67,1.67-1.01-1.01,1.49-1.49c.11-.11.17-.22.17-.32,0-.1-.04-.2-.12-.28-.08-.08-.17-.12-.27-.11-.1,0-.21.06-.32.17l-1.49,1.49-.87-.87,1.62-1.62h0ZM18.06,12.15c.21.12.37.2.46.24.09.04.2.06.32.05.12-.01.24-.07.35-.18.12-.12.18-.23.18-.35,0-.12-.01-.23-.06-.33-.05-.1-.13-.25-.25-.45l-1.79-2.97c-.11-.18-.2-.3-.26-.37-.09-.09-.2-.14-.33-.13-.13,0-.24.05-.33.14-.09.09-.14.19-.14.29,0,.1.02.19.06.27.04.08.1.19.19.32l1.6,2.53-2.46-1.41c-.2-.12-.35-.2-.45-.24-.09-.04-.2-.06-.33-.05-.12,0-.25.07-.37.19-.12.12-.18.24-.2.37-.01.13,0,.24.05.35.05.11.12.25.23.44l1.41,2.45-2.53-1.6c-.19-.13-.35-.21-.48-.25-.13-.04-.26,0-.39.14-.09.09-.14.21-.15.33s.04.24.14.33c.07.07.2.16.37.26l2.97,1.79c.09.05.19.11.29.17.11.06.21.1.3.13.1.02.19.03.28,0,.09-.02.18-.08.27-.17.11-.11.17-.22.18-.35.01-.12,0-.23-.05-.33-.04-.1-.12-.25-.24-.45l-1.54-2.7,2.69,1.55h0ZM22.02,3.06c-.77,0-1.47.31-1.97.82h0c-.5.51-.82,1.2-.82,1.97s.31,1.47.82,1.97c.5.51,1.2.82,1.97.82s1.47-.31,1.97-.82c.5-.5.82-1.2.82-1.97s-.31-1.47-.82-1.97c-.5-.5-1.2-.82-1.97-.82Z"/>
  </g>
</svg>