<?xml version="1.0" encoding="UTF-8"?>
<svg id="Layer_2" data-name="Layer 2" xmlns="http://www.w3.org/2000/svg" viewBox="0 0 21.88 27.45">
  <defs>
    <style>
      .cls-1 {
        fill: #fff;
        fill-rule: evenodd;
      }
    </style>
  </defs>
  <g id="Layer_1-2" data-name="Layer 1">
    <path class="cls-1" d="M7.99.26l2.87,3.36L13.7.3c.18-.24.49-.36.8-.26l3.43,1.04h0c.11.04.22.1.31.19.28.29.27.75-.01,1.03-.4.39-.73.86-.95,1.38-.21.5-.33,1.05-.33,1.64,0,.37.04.72.13,1.05.09.34.22.67.39.98.09.17.12.38.05.58l-.89,2.61H5.25l-.89-2.61c-.06-.19-.05-.4.05-.58.17-.31.3-.64.39-.98.08-.33.13-.68.13-1.05,0-.59-.12-1.14-.33-1.64-.22-.51-.53-.97-.93-1.36-.1-.09-.17-.2-.21-.33-.12-.38.1-.79.48-.91L7.22.03c.27-.08.57,0,.77.22h0ZM16.23,11.7l-.14.42.21.53H5.58l.21-.53-.14-.42h10.59ZM16.77,13.81l5.04,12.6c.05.1.07.21.07.32,0,.4-.33.73-.73.73H.73c-.09,0-.18-.02-.27-.05-.37-.15-.55-.57-.4-.95l5.06-12.65h11.66Z"/>
  </g>
</svg>