<?xml version="1.0" encoding="UTF-8"?>
<svg id="Layer_2" data-name="Layer 2" xmlns="http://www.w3.org/2000/svg" viewBox="0 0 28.38 20.17">
  <defs>
    <style>
      .cls-1 {
        fill: #fff;
        fill-rule: evenodd;
      }
    </style>
  </defs>
  <g id="Layer_1-2" data-name="Layer 1">
    <path class="cls-1" d="M17.75,2.4l-.06-.06c-.49-.54-.45-1.39.09-1.88l.13-.11c.54-.49,1.39-.45,1.88.09l.06.06,7.42,8.17h0s.76.85.76.85c.48.53.46,1.34-.05,1.84l-8.48,8.43c-.52.52-1.37.51-1.88,0l-.12-.12c-.52-.52-.51-1.37,0-1.88l4.02-4c.39-.39.5-.94.29-1.45-.21-.51-.68-.82-1.23-.82H1.33c-.73,0-1.33-.6-1.33-1.33v-.18c0-.73.6-1.33,1.33-1.33h19.1c.54,0,1-.3,1.22-.79.22-.49.13-1.04-.23-1.43l-3.67-4.04Z"/>
  </g>
</svg>