<?xml version="1.0" encoding="UTF-8"?>
<svg id="Layer_2" data-name="Layer 2" xmlns="http://www.w3.org/2000/svg" viewBox="0 0 30.68 27.29">
  <defs>
    <style>
      .cls-1 {
        fill: #fff;
        fill-rule: evenodd;
      }
    </style>
  </defs>
  <g id="Layer_1-2" data-name="Layer 1">
    <path class="cls-1" d="M.73,10.15h4.21L13.37,2.87c-.09-.23-.13-.48-.13-.74,0-1.17.94-2.13,2.11-2.13s2.11.95,2.11,2.13c0,.26-.04.5-.13.73l8.57,7.29h4.06c.4,0,.73.33.73.73v15.68c0,.4-.33.73-.73.73H.73c-.4,0-.73-.33-.73-.73v-15.68c0-.4.33-.73.73-.73h0ZM6.5,15.55c-.47,0-.89.07-1.25.22-.37.15-.68.36-.94.63-.26.28-.45.61-.59,1-.14.39-.2.83-.2,1.3s.06.89.19,1.28c.13.4.32.74.58,1.02.25.28.57.5.95.65.38.16.81.23,1.29.23s.91-.08,1.28-.23c.37-.15.69-.37.95-.65.26-.28.45-.62.58-1.01.13-.39.19-.82.19-1.29,0-.64-.12-1.2-.35-1.68-.23-.48-.58-.84-1.04-1.1-.46-.26-1-.39-1.64-.39h0ZM8.26,18.7c0-.45-.07-.84-.22-1.17-.15-.33-.35-.58-.62-.75-.27-.17-.58-.25-.93-.25-.25,0-.48.05-.69.14-.21.09-.39.23-.54.41-.15.18-.27.41-.36.68-.09.28-.13.59-.13.94s.04.66.13.95c.09.28.21.52.37.7.16.19.34.32.55.42.21.09.44.14.68.14.32,0,.61-.08.88-.24.27-.16.48-.4.64-.74.16-.33.24-.74.24-1.23h0ZM12.97,19.4c.76,0,1.34-.16,1.72-.48.38-.32.58-.8.58-1.42,0-.29-.05-.56-.14-.79-.09-.23-.23-.43-.42-.59-.18-.16-.4-.28-.65-.35-.25-.07-.62-.11-1.09-.11h-1.59c-.27,0-.47.06-.6.18-.13.12-.19.31-.19.59v4.73c0,.24.06.43.17.56.11.13.27.19.45.19.18,0,.33-.06.44-.19.12-.13.18-.32.18-.56v-1.74h1.14ZM12.66,16.58h-.84v1.88h.84c.29,0,.54-.03.74-.09.2-.06.35-.16.45-.3.1-.14.15-.32.15-.55,0-.27-.08-.49-.24-.66-.18-.18-.55-.27-1.1-.27h0ZM20.34,16.61c.2,0,.35-.04.44-.13.1-.09.14-.21.14-.35s-.05-.26-.14-.35c-.1-.09-.24-.13-.44-.13h-3.28c-.18,0-.32.03-.43.08-.11.05-.2.13-.25.25-.05.11-.08.26-.08.44v4.61c0,.27.06.46.18.58.12.12.31.18.58.18h3.38c.2,0,.34-.05.44-.14.1-.09.15-.21.15-.35s-.05-.27-.15-.36c-.1-.09-.25-.14-.44-.14h-2.9v-1.75h2.58c.19,0,.33-.04.43-.13.09-.09.14-.2.14-.34s-.05-.25-.14-.34c-.09-.08-.23-.13-.42-.13h-2.58v-1.51h2.8ZM23.64,16.29c-.07-.11-.13-.21-.2-.31-.06-.1-.12-.18-.18-.24-.06-.06-.13-.11-.21-.15-.08-.04-.17-.05-.29-.05-.14,0-.27.04-.4.12-.12.08-.21.18-.26.31-.04.11-.07.27-.07.47v4.73c0,.23.05.41.16.53.11.12.25.18.42.18s.31-.06.42-.18c.11-.12.16-.3.16-.53v-3.59l2.33,3.57c.07.1.13.19.2.29.07.09.14.18.22.25.08.07.16.12.25.15.09.03.19.05.3.05.45,0,.67-.27.67-.81v-4.82c0-.24-.05-.42-.15-.53-.1-.12-.24-.18-.42-.18s-.31.06-.41.18c-.1.12-.15.3-.15.53v3.65l-2.39-3.62h0ZM7.16,10.15h16.49l-7.26-6.18c-.31.18-.67.28-1.05.28s-.73-.1-1.03-.27l-7.14,6.17Z"/>
  </g>
</svg>