<?xml version="1.0" encoding="UTF-8"?>
<svg id="Layer_2" data-name="Layer 2" xmlns="http://www.w3.org/2000/svg" viewBox="0 0 25.48 14.88">
  <defs>
    <style>
      .cls-1 {
        fill: #fff;
        fill-rule: evenodd;
      }
    </style>
  </defs>
  <g id="Layer_1-2" data-name="Layer 1">
    <path class="cls-1" d="M14.31.17l10.58,6.25c.37.22.58.59.58,1.02s-.21.8-.58,1.02l-10.58,6.25c-.51.3-1.14.19-1.52-.27-.37-.46-.36-1.1.04-1.54l4.2-4.67c.41-.45.41-1.13,0-1.58L12.83,1.98c-.39-.44-.41-1.09-.04-1.54.37-.46,1.01-.57,1.52-.27h0ZM1.79.17C1.28-.13.64-.02.27.44c-.37.46-.36,1.1.04,1.54l4.2,4.67c.41.45.41,1.13,0,1.58L.31,12.9c-.39.44-.41,1.09-.04,1.54.37.46,1.01.57,1.52.27l10.58-6.25c.37-.22.58-.59.58-1.02s-.21-.8-.58-1.02L1.79.17Z"/>
  </g>
</svg>