<?xml version="1.0" encoding="UTF-8"?>
<svg id="Layer_2" data-name="Layer 2" xmlns="http://www.w3.org/2000/svg" viewBox="0 0 81.61 74.23">
  <g id="Layer_1-2" data-name="Layer 1">
    <g>
      <g>
        <path d="M65,19.25h-14.25c-1.38,0-2.5-1.12-2.5-2.5s1.12-2.5,2.5-2.5h11.75V2.5c0-1.38,1.12-2.5,2.5-2.5s2.5,1.12,2.5,2.5v14.25c0,1.38-1.12,2.5-2.5,2.5Z"/>
        <path d="M37.11,74.23C16.65,74.23,0,57.58,0,37.11S16.57.08,36.97,0h.18c11.77.05,22.92,5.75,29.86,15.27.81,1.12.57,2.68-.55,3.49-1.12.81-2.68.57-3.49-.55-6.02-8.26-15.71-13.2-25.92-13.22-17.68.03-32.06,14.42-32.06,32.11s14.41,32.11,32.11,32.11c1.38,0,2.5,1.12,2.5,2.5s-1.12,2.5-2.5,2.5Z"/>
      </g>
      <path d="M37.25,39.61c-1.38,0-2.5-1.12-2.5-2.5v-17.08c0-1.38,1.12-2.5,2.5-2.5s2.5,1.12,2.5,2.5v17.08c0,1.38-1.12,2.5-2.5,2.5Z"/>
      <path d="M37.25,39.61h-12.12c-1.38,0-2.5-1.12-2.5-2.5s1.12-2.5,2.5-2.5h12.12c1.38,0,2.5,1.12,2.5,2.5s-1.12,2.5-2.5,2.5Z"/>
      <g>
        <path d="M47.91,64.24c-1.24,0-2.23-1.11-2.02-2.33.62-3.64,2.73-7.08,6.47-11.26,3.53-3.97,4.45-5.21,4.45-8.33,0-2.36-.57-4.22-3.06-4.22-1.99,0-2.89,1.28-3.22,3.44-.15.95-.93,1.68-1.9,1.68h-.68c-1.15,0-2.09-1.02-1.9-2.16.61-3.66,2.82-6.72,7.83-6.72,5.57,0,7.71,3.41,7.71,8.11,0,3.69-1.04,5.64-4.88,9.69-3.03,3.23-5.03,6-5.64,8.07h9.39c1.06,0,1.91.86,1.91,1.91v.19c0,1.06-.86,1.91-1.91,1.91h-12.55Z"/>
        <path d="M72.5,62.33v-5.04c0-.19-.16-.35-.35-.35h-8.23c-1.06,0-1.91-.86-1.91-1.91v-1.49c0-.29.06-.57.19-.83l8.13-16.85c.34-.7,1.05-1.15,1.83-1.15h2.64c1.12,0,2.03.91,2.03,2.03v15.94c0,.24.2.44.44.44h2.44c1.06,0,1.91.86,1.91,1.91h0c0,1.06-.86,1.91-1.91,1.91h-2.44c-.24,0-.44.2-.44.44v4.95c0,1.06-.86,1.91-1.91,1.91h-.49c-1.06,0-1.91-.86-1.91-1.91ZM71.97,41.91l-5.35,10.71c-.12.23.05.51.31.51h5.22c.19,0,.35-.15.35-.35l.13-10.71c0-.37-.5-.49-.66-.16Z"/>
      </g>
    </g>
  </g>
</svg>