<?xml version="1.0" encoding="UTF-8"?>
<svg id="Layer_2" data-name="Layer 2" xmlns="http://www.w3.org/2000/svg" viewBox="0 0 22.05 24.91">
  <defs>
    <style>
      .cls-1 {
        fill: #fff;
        fill-rule: evenodd;
      }
    </style>
  </defs>
  <g id="Layer_1-2" data-name="Layer 1">
    <path class="cls-1" d="M13.34,3.55c.81.21,1.58.53,2.28.94.72.41,1.38.93,1.96,1.52l1.73-.54c.47-.15.97-.19,1.42-.06.42.11.79.36,1.05.77.03.04.06.09.08.13.23.43.25.87.14,1.29-.12.45-.4.86-.76,1.2l-1.33,1.22c.09.32.16.66.22,1,.08.48.12.97.12,1.45s-.04.97-.12,1.45c-.05.34-.13.67-.22,1l1.33,1.22c.36.33.64.75.77,1.2.11.42.09.86-.14,1.29-.02.04-.04.08-.07.12-.26.42-.63.67-1.06.78-.45.12-.95.08-1.42-.06l-1.73-.54c-.58.59-1.24,1.1-1.96,1.52-.71.41-1.47.73-2.28.94l-.4,1.76c-.11.48-.32.93-.65,1.26h0c-.32.33-.75.53-1.26.53s-.94-.2-1.26-.53c-.33-.33-.54-.78-.65-1.26l-.4-1.76c-.81-.21-1.58-.53-2.28-.94-.72-.41-1.38-.93-1.96-1.52l-1.73.54c-.47.15-.97.19-1.42.06-.42-.11-.79-.36-1.05-.77-.03-.04-.06-.09-.08-.13-.23-.43-.25-.87-.14-1.29.12-.45.4-.86.77-1.19l1.33-1.22c-.09-.32-.16-.66-.22-1-.08-.48-.12-.97-.12-1.45s.04-.97.12-1.45c.05-.34.13-.67.22-1l-1.33-1.22c-.36-.33-.64-.75-.77-1.2-.11-.42-.09-.86.14-1.29.02-.04.04-.08.07-.12.26-.42.63-.67,1.06-.78.45-.12.95-.08,1.42.06l1.73.54c.58-.59,1.24-1.1,1.96-1.52.71-.41,1.47-.73,2.28-.94l.4-1.76c.11-.48.32-.93.65-1.26h0c.33-.33.75-.53,1.26-.53s.94.2,1.26.53l.04.04c.31.32.51.76.61,1.22l.4,1.76h0ZM13.82,9.66c-.72-.72-1.7-1.16-2.8-1.16s-2.08.44-2.8,1.16-1.16,1.7-1.16,2.8.44,2.08,1.16,2.8c.72.72,1.7,1.16,2.8,1.16s2.08-.44,2.8-1.16c.72-.72,1.16-1.7,1.16-2.8s-.44-2.08-1.16-2.8Z"/>
  </g>
</svg>