<?xml version="1.0" encoding="UTF-8"?>
<svg id="Layer_2" data-name="Layer 2" xmlns="http://www.w3.org/2000/svg" viewBox="0 0 30.16 23.28">
  <defs>
    <style>
      .cls-1 {
        fill: #fff;
        fill-rule: evenodd;
      }
    </style>
  </defs>
  <g id="Layer_1-2" data-name="Layer 1">
    <path class="cls-1" d="M25.8.43c2.71,2.95,4.36,6.89,4.36,11.21s-1.65,8.26-4.36,11.21c-.46.5-1.21.58-1.76.18-.55-.4-.72-1.13-.39-1.73,1.58-2.86,2.48-6.16,2.48-9.66s-.9-6.8-2.48-9.66c-.33-.59-.16-1.33.39-1.72.55-.4,1.3-.32,1.76.18h0ZM4.48,7.16c2.48,0,4.48,2.01,4.48,4.48s-2.01,4.48-4.48,4.48S0,14.12,0,11.64s2.01-4.48,4.48-4.48h0ZM8.61,4.91c2.02,1.55,3.33,3.98,3.33,6.73s-1.3,5.18-3.33,6.73c2.91-.86,5.03-3.54,5.03-6.73s-2.12-5.87-5.03-6.73h0ZM20.71,7.38c.51,1.32.78,2.76.78,4.26s-.28,2.94-.78,4.26c-.25.66-.97,1.01-1.64.8-.67-.21-1.06-.91-.9-1.59.27-1.11.42-2.27.42-3.47s-.15-2.36-.42-3.47c-.17-.68.22-1.38.9-1.59.67-.21,1.39.14,1.64.8Z"/>
  </g>
</svg>