<?xml version="1.0" encoding="UTF-8"?>
<svg id="Layer_2" data-name="Layer 2" xmlns="http://www.w3.org/2000/svg" viewBox="0 0 26.24 21.67">
  <defs>
    <style>
      .cls-1 {
        fill: #fff;
        fill-rule: evenodd;
      }
    </style>
  </defs>
  <g id="Layer_1-2" data-name="Layer 1">
    <path class="cls-1" d="M13.12,4.03c.65-1.15,1.34-2.05,2.17-2.72,1.09-.87,2.38-1.31,4.09-1.31,1.89,0,3.61.77,4.85,2.01,1.24,1.24,2.01,2.96,2.01,4.85,0,3.34-1.8,7.01-4.32,9.85-2.57,2.9-5.9,4.96-8.87,4.96h-.03c-3.06-.15-6.31-2.22-8.79-5.05C1.74,13.77,0,10.13,0,6.86c0-1.89.77-3.61,2.01-4.85C3.25.77,4.97,0,6.86,0c3.07,0,4.75,1.34,6.26,4.03Z"/>
  </g>
</svg>