<?xml version="1.0" encoding="UTF-8"?>
<svg id="Layer_2" data-name="Layer 2" xmlns="http://www.w3.org/2000/svg" viewBox="0 0 31.82 20.77">
  <defs>
    <style>
      .cls-1 {
        fill: #fff;
        fill-rule: evenodd;
      }
    </style>
  </defs>
  <g id="Layer_1-2" data-name="Layer 1">
    <path class="cls-1" d="M18.25,15.43v3.92c0,.56.31,1.05.82,1.28.51.24,1.08.17,1.51-.2l10.73-8.96c.33-.28.51-.65.51-1.09s-.17-.81-.51-1.09L20.58.33c-.43-.36-1-.43-1.51-.2-.51.24-.82.72-.82,1.28v3.92c0,.71-.51,1.3-1.22,1.4L1.22,8.98C.51,9.08,0,9.67,0,10.38c0,.71.51,1.3,1.22,1.4l15.82,2.24c.7.1,1.22.69,1.22,1.4Z"/>
  </g>
</svg>