<?xml version="1.0" encoding="UTF-8"?>
<svg id="Layer_2" data-name="Layer 2" xmlns="http://www.w3.org/2000/svg" viewBox="0 0 21.43 22.69">
  <defs>
    <style>
      .cls-1 {
        fill: #fff;
        fill-rule: evenodd;
      }
    </style>
  </defs>
  <g id="Layer_1-2" data-name="Layer 1">
    <path class="cls-1" d="M20.77,5.1H.67c-.37,0-.67-.3-.67-.67V.67c0-.37.3-.67.67-.67h20.1c.37,0,.67.3.67.67v3.77c0,.37-.3.67-.67.67h0ZM20.1,5.77l-.88,15.03c-.03.52-.25.99-.59,1.33s-.81.56-1.33.56H4.13c-.52,0-.97-.21-1.31-.55-.33-.33-.55-.8-.61-1.3-.33-5.02-.59-10.05-.88-15.07h18.76Z"/>
  </g>
</svg>