<?xml version="1.0" encoding="UTF-8"?>
<svg id="Layer_2" data-name="Layer 2" xmlns="http://www.w3.org/2000/svg" viewBox="0 0 72.99 70.33">
  <g id="Layer_1-2" data-name="Layer 1">
    <g>
      <path d="M67.04,70.33H5.95c-3.28,0-5.95-2.67-5.95-5.95V20.35c0-3.46,2.82-6.28,6.28-6.28h60.43c3.46,0,6.28,2.82,6.28,6.28v44.03c0,3.28-2.67,5.95-5.95,5.95ZM6.28,19.07c-.71,0-1.28.57-1.28,1.28v44.03c0,.52.42.95.95.95h61.1c.52,0,.95-.43.95-.95V20.35c0-.71-.57-1.28-1.28-1.28H6.28Z"/>
      <path d="M50.57,19.07c-1.38,0-2.5-1.12-2.5-2.5,0-6.38-5.19-11.57-11.57-11.57s-11.57,5.19-11.57,11.57c0,1.38-1.12,2.5-2.5,2.5s-2.5-1.12-2.5-2.5C19.92,7.43,27.36,0,36.5,0s16.57,7.43,16.57,16.57c0,1.38-1.12,2.5-2.5,2.5Z"/>
      <path d="M70.49,41.29H2.5c-1.38,0-2.5-1.12-2.5-2.5s1.12-2.5,2.5-2.5h67.99c1.38,0,2.5,1.12,2.5,2.5s-1.12,2.5-2.5,2.5Z"/>
      <path d="M36.5,47.86c-1.38,0-2.5-1.12-2.5-2.5v-6.57c0-1.38,1.12-2.5,2.5-2.5s2.5,1.12,2.5,2.5v6.57c0,1.38-1.12,2.5-2.5,2.5Z"/>
    </g>
  </g>
</svg>