<?xml version="1.0" encoding="UTF-8"?>
<svg id="Layer_2" data-name="Layer 2" xmlns="http://www.w3.org/2000/svg" viewBox="0 0 29.57 29.57">
  <defs>
    <style>
      .cls-1 {
        fill: #fff;
        fill-rule: evenodd;
      }
    </style>
  </defs>
  <g id="Layer_1-2" data-name="Layer 1">
    <path class="cls-1" d="M14.78,0c8.17,0,14.79,6.62,14.79,14.78s-6.62,14.79-14.79,14.79S0,22.95,0,14.78,6.62,0,14.78,0h0ZM11.89,7.06l-.6.55c2.9,1.1,4.96,3.89,4.96,7.17s-2.06,6.08-4.96,7.17l.6.55,15.4-7.73-15.4-7.73h0ZM8.58,8.25c-3.61,0-6.54,2.93-6.54,6.54s2.93,6.54,6.54,6.54,6.54-2.93,6.54-6.54-2.93-6.54-6.54-6.54Z"/>
  </g>
</svg>