<?xml version="1.0" encoding="UTF-8"?>
<svg id="Layer_2" data-name="Layer 2" xmlns="http://www.w3.org/2000/svg" viewBox="0 0 21.68 25.52">
  <defs>
    <style>
      .cls-1 {
        fill: #fff;
        fill-rule: evenodd;
      }
    </style>
  </defs>
  <g id="Layer_1-2" data-name="Layer 1">
    <path class="cls-1" d="M10,0c1.68,0,3.19.68,4.29,1.78,1.1,1.1,1.78,2.62,1.78,4.29s-.68,3.19-1.78,4.29c-.5.5-1.08.91-1.73,1.21,1.4.37,2.67,1.04,3.76,1.93-.03.06-.06.13-.09.19l-.02.04c-.16.38-.24.79-.24,1.22,0,.08,0,.15,0,.23l-2.25,1.24c-.21-.15-.44-.28-.68-.38-.38-.16-.79-.24-1.22-.24s-.81.08-1.18.23h-.04c-.37.17-.71.39-.99.67l-.05.04h0c-.29.3-.53.65-.69,1.03-.16.38-.24.79-.24,1.22s.08.81.23,1.18v.04c.17.37.39.71.67.99l.04.05h0c.29.29.64.53,1.03.69.38.16.79.24,1.22.24s.81-.08,1.18-.23c.25-.1.49-.24.71-.4l2.25,1.24c0,.08,0,.15,0,.23,0,.43.09.84.24,1.22.06.14.13.28.21.41H2.2c-.61,0-1.16-.25-1.56-.65-.4-.4-.65-.95-.65-1.56v-1.2c0-2.75,1.12-5.25,2.94-7.06,1.23-1.23,2.77-2.14,4.49-2.6-.64-.3-1.23-.71-1.73-1.21-1.1-1.1-1.78-2.62-1.78-4.29s.68-3.19,1.78-4.29c1.1-1.1,2.62-1.78,4.29-1.78h0ZM17.35,16.7c.16.17.35.31.55.43.37.22.8.34,1.26.34.69,0,1.32-.28,1.78-.74h0c.46-.46.74-1.09.74-1.78s-.28-1.32-.74-1.78h0c-.46-.46-1.09-.74-1.78-.74s-1.33.28-1.78.74c-.46.46-.74,1.09-.74,1.78,0,.2.02.39.07.59l-3.06,1.68-.03-.03c-.46-.46-1.09-.74-1.78-.74s-1.32.28-1.78.74h0c-.46.46-.74,1.09-.74,1.78s.28,1.32.74,1.78h0c.46.46,1.09.74,1.78.74s1.29-.27,1.74-.7l.07-.07,3.06,1.68c-.05.19-.07.39-.07.59,0,.7.28,1.33.74,1.78.46.46,1.09.74,1.78.74s1.32-.28,1.78-.74h0c.46-.46.74-1.09.74-1.78s-.28-1.32-.74-1.78h0c-.46-.46-1.09-.74-1.78-.74-.47,0-.9.13-1.28.35-.19.11-.37.26-.53.42l-3.06-1.68c.05-.19.07-.39.07-.59s-.02-.4-.07-.59l3.06-1.68h0ZM19.49,18.12c-.11.01-.22.02-.33.02-.28,0-.56-.04-.82-.11-.27-.07-.53-.18-.77-.32-.1-.06-.2-.12-.3-.2l-2.25,1.24c0,.08,0,.15,0,.23s0,.15,0,.23l2.25,1.24c.09-.06.18-.13.28-.18.24-.14.5-.25.78-.33.27-.07.55-.11.84-.11.25,0,.5.03.74.09-.08-.61-.22-1.21-.41-1.78Z"/>
  </g>
</svg>