<?xml version="1.0" encoding="UTF-8"?>
<svg id="Layer_2" data-name="Layer 2" xmlns="http://www.w3.org/2000/svg" viewBox="0 0 29.57 29.57">
  <defs>
    <style>
      .cls-1 {
        fill: #fff;
        fill-rule: evenodd;
      }
    </style>
  </defs>
  <g id="Layer_1-2" data-name="Layer 1">
    <path class="cls-1" d="M14.79,0c8.17,0,14.79,6.62,14.79,14.79s-6.62,14.79-14.79,14.79S0,22.95,0,14.79,6.62,0,14.79,0h0ZM17.09,3.3c3.45,2.64,5.68,6.8,5.68,11.48s-2.23,8.84-5.68,11.48c4.96-1.46,8.58-6.05,8.58-11.48s-3.62-10.02-8.58-11.48h0ZM7.13,11.55c-1.79,0-3.24,1.45-3.24,3.24s1.45,3.24,3.24,3.24,3.24-1.45,3.24-3.24-1.45-3.24-3.24-3.24h0ZM10.12,9.93c1.46,1.12,2.4,2.88,2.4,4.86s-.94,3.74-2.4,4.86c2.1-.62,3.63-2.56,3.63-4.86s-1.53-4.24-3.63-4.86h0ZM13.23,6.52c2.49,1.9,4.09,4.9,4.09,8.27s-1.6,6.37-4.09,8.27c3.57-1.05,6.18-4.36,6.18-8.27s-2.61-7.22-6.18-8.27Z"/>
  </g>
</svg>