<?xml version="1.0" encoding="UTF-8"?>
<svg id="Layer_2" data-name="Layer 2" xmlns="http://www.w3.org/2000/svg" viewBox="0 0 25.47 19.33">
  <defs>
    <style>
      .cls-1 {
        fill: #fff;
        fill-rule: evenodd;
      }
    </style>
  </defs>
  <g id="Layer_1-2" data-name="Layer 1">
    <path class="cls-1" d="M9.71,0h9.31c1.77,0,3.38.73,4.55,1.89,1.17,1.17,1.89,2.78,1.89,4.55,0,1.17-.32,2.28-.87,3.23-.48.83-1.15,1.55-1.94,2.09l1.5,4.94c.11.35-.09.72-.44.83-.26.08-.53-.01-.7-.21l-4.14-4.43h-9.16c-1.77,0-3.38-.73-4.55-1.89-1.17-1.17-1.89-2.78-1.89-4.55s.73-3.38,1.89-4.55c1.17-1.17,2.78-1.89,4.55-1.89h0ZM9.77,5.42c-.68,0-1.24.55-1.24,1.24s.55,1.24,1.24,1.24,1.24-.55,1.24-1.24-.55-1.24-1.24-1.24h0ZM18.72,5.42c-.68,0-1.24.55-1.24,1.24s.55,1.24,1.24,1.24,1.24-.55,1.24-1.24-.55-1.24-1.24-1.24h0ZM14.25,5.42c-.68,0-1.24.55-1.24,1.24s.55,1.24,1.24,1.24,1.24-.55,1.24-1.24-.55-1.24-1.24-1.24h0ZM2.63,5.72c-.4.23-.77.51-1.09.84-.95.95-1.54,2.27-1.54,3.71,0,.96.26,1.86.71,2.63.4.68.94,1.26,1.58,1.7l-1.22,4.03c-.09.29.07.59.36.68.21.06.44,0,.57-.17l3.38-3.61h7.47c1.45,0,2.76-.59,3.71-1.54.13-.13.26-.28.38-.42h-7.23c-.96,0-1.87-.19-2.71-.54-.87-.36-1.65-.89-2.31-1.55h0c-.66-.66-1.19-1.44-1.55-2.31-.35-.84-.54-1.76-.54-2.71,0-.25.01-.49.04-.73Z"/>
  </g>
</svg>