<?xml version="1.0" encoding="UTF-8"?>
<svg id="Layer_2" data-name="Layer 2" xmlns="http://www.w3.org/2000/svg" viewBox="0 0 28.89 24.62">
  <defs>
    <style>
      .cls-1 {
        fill: #fff;
        fill-rule: evenodd;
      }
    </style>
  </defs>
  <g id="Layer_1-2" data-name="Layer 1">
    <path class="cls-1" d="M1.48,19.35h10.64c.81,0,1.48.66,1.48,1.48v2.3c0,.59.33,1.1.87,1.35.54.25,1.14.16,1.59-.24l12.33-10.82c.33-.29.5-.67.5-1.11s-.17-.82-.5-1.11L16.06.37c-.45-.39-1.04-.48-1.59-.24-.54.24-.87.75-.87,1.35v2.3c0,.82-.66,1.48-1.48,1.48H1.48c-.63,0-1.16.37-1.38.96-.22.59-.06,1.22.41,1.63l3.81,3.34c.33.29.5.67.5,1.11s-.17.82-.5,1.11l-3.81,3.34c-.47.41-.63,1.05-.41,1.63.22.59.76.96,1.38.96Z"/>
  </g>
</svg>