<?xml version="1.0" encoding="UTF-8"?>
<svg id="Layer_2" data-name="Layer 2" xmlns="http://www.w3.org/2000/svg" viewBox="0 0 25.04 25.74">
  <defs>
    <style>
      .cls-1 {
        fill: #fff;
        fill-rule: evenodd;
      }
    </style>
  </defs>
  <g id="Layer_1-2" data-name="Layer 1">
    <path class="cls-1" d="M6,0c.4,0,.73.33.73.73s-.33.73-.73.73H1.46v4.54c0,.4-.33.73-.73.73s-.73-.33-.73-.73V.73c0-.4.33-.73.73-.73h5.27ZM19.5,8.27v9.33h-.73v-9.33h.73ZM15.12,8.27v9.33h-.73v-9.33h.73ZM18.04,8.27v9.33h-2.19v-9.33h2.19ZM24.24,8.27v9.33h-1.46v-9.33h1.46ZM22.05,8.27v9.33h-1.46v-9.33h1.46ZM13.66,8.27v9.33h-2.19v-9.33h2.19ZM11.11,8.27v9.33h-1.46v-9.33h1.46ZM8.92,8.27v9.33h-1.46v-9.33h1.46ZM7.1,8.27v9.33h-2.19v-9.33h2.19ZM4.18,8.27v9.33h-.73v-9.33h.73ZM2.35,8.27v9.33H.9v-9.33h1.46ZM19.04,25.74c-.4,0-.73-.33-.73-.73s.33-.73.73-.73h4.54v-4.54c0-.4.33-.73.73-.73s.73.33.73.73v5.27c0,.4-.33.73-.73.73h-5.27ZM19.04,1.46c-.4,0-.73-.33-.73-.73s.33-.73.73-.73h5.27c.4,0,.73.33.73.73v5.27c0,.4-.33.73-.73.73s-.73-.33-.73-.73V1.46h-4.54ZM6,24.28c.4,0,.73.33.73.73s-.33.73-.73.73H.73c-.4,0-.73-.33-.73-.73v-5.27c0-.4.33-.73.73-.73s.73.33.73.73v4.54h4.54Z"/>
  </g>
</svg>