<?xml version="1.0" encoding="UTF-8"?>
<svg id="Layer_2" data-name="Layer 2" xmlns="http://www.w3.org/2000/svg" viewBox="0 0 24.09 24.09">
  <defs>
    <style>
      .cls-1 {
        fill: #fff;
        fill-rule: evenodd;
      }
    </style>
  </defs>
  <g id="Layer_1-2" data-name="Layer 1">
    <path class="cls-1" d="M16.53,4.27l1.94-1.55h0c.23-.19.52-.27.8-.26.28.02.55.13.77.34h0s1.25,1.24,1.25,1.24c.21.21.33.49.34.77.02.28-.07.56-.26.8l-1.56,1.95,2.46-.38c.3-.04.58.02.82.18l.06.04c.21.15.37.38.44.64l.46,1.7c.08.29.04.58-.09.83-.13.25-.34.46-.62.56l-2.32.91,2.32.91c.28.11.49.31.62.56.13.25.16.54.09.83l-.46,1.7c-.08.29-.26.53-.49.68-.23.15-.52.22-.82.18l-2.46-.38,1.55,1.94h0c.19.23.27.52.26.8-.02.28-.13.55-.34.76-.11.11-1.25,1.25-1.25,1.25-.21.21-.49.33-.77.34-.28.02-.56-.07-.8-.26l-1.94-1.56.38,2.46c.04.3-.02.58-.18.82-.15.23-.39.41-.68.49l-1.7.46c-.29.08-.58.04-.83-.09-.25-.13-.46-.34-.56-.62l-.91-2.32-.91,2.32-.02.05c-.11.26-.31.45-.54.57-.25.13-.54.16-.83.09l-1.7-.46c-.29-.08-.53-.26-.68-.49-.15-.23-.22-.52-.18-.82l.38-2.46-1.94,1.55h0c-.23.19-.52.27-.8.26-.28-.02-.56-.13-.77-.34l-.03-.04c-.1-.1-1.21-1.21-1.21-1.21-.21-.21-.33-.48-.34-.77-.02-.28.07-.56.25-.8l.04-.04,1.52-1.9-2.46.38c-.29.04-.58-.02-.82-.18h0c-.23-.15-.41-.39-.49-.68l-.46-1.7C-.04,14.06,0,13.76.13,13.51c.13-.25.34-.45.62-.56l2.32-.91-2.32-.91c-.28-.11-.49-.31-.62-.56C0,10.32-.04,10.03.04,9.74l.46-1.7c.08-.29.26-.53.49-.68.23-.15.52-.22.82-.18l2.46.38-1.56-1.95c-.19-.23-.27-.52-.26-.8.02-.28.13-.55.34-.76.11-.11,1.25-1.25,1.25-1.25.21-.21.49-.33.77-.34.28-.02.56.07.8.26l1.95,1.56-.38-2.46c-.05-.3.02-.58.18-.82l.04-.05c.15-.21.38-.37.64-.44l1.7-.46c.29-.08.58-.04.83.09.25.13.46.34.56.62l.91,2.32.91-2.32c.11-.28.31-.49.56-.62C13.76,0,14.06-.04,14.35.04l1.7.46c.29.08.53.26.68.49h0c.15.23.22.52.18.82l-.38,2.46h0ZM14.3,9.78c-.58-.58-1.38-.94-2.26-.94s-1.68.36-2.26.94c-.58.58-.94,1.38-.94,2.26s.36,1.68.94,2.26c.58.58,1.38.94,2.26.94s1.68-.36,2.26-.94c.58-.58.94-1.38.94-2.26s-.36-1.68-.94-2.26Z"/>
  </g>
</svg>