<?xml version="1.0" encoding="UTF-8"?>
<svg id="Layer_2" data-name="Layer 2" xmlns="http://www.w3.org/2000/svg" viewBox="0 0 27.08 18.67">
  <defs>
    <style>
      .cls-1 {
        fill: #fff;
        fill-rule: evenodd;
      }
    </style>
  </defs>
  <g id="Layer_1-2" data-name="Layer 1">
    <path class="cls-1" d="M1.35,0h22.34l-5.97,3.94h-.45c-.37,0-.7.15-.94.39-.2.2-.34.47-.38.78l-3.47,2.29L1.35,0h0ZM23.48,5.27c0-.37-.3-.67-.67-.67h-5.54c-.37,0-.67.3-.67.67v5.7h-2.93c-.17,0-.34.07-.47.2-.26.26-.26.68,0,.94l6.37,6.37c.26.26.68.26.94,0l6.36-6.36c.12-.12.2-.29.2-.48,0-.37-.3-.67-.67-.67h-2.93v-5.7h0ZM24.97.75l-4.83,3.19h2.68c.37,0,.7.15.94.39h0c.24.24.39.57.39.94v5.04h.82V.75h0ZM16.53,16.37l-3.79-3.79c-.26-.26-.39-.6-.39-.94s.13-.68.39-.94c.12-.12.27-.22.43-.29.17-.07.34-.1.51-.1h0s2.27,0,2.27,0v-3.61l-3.06,2.02c-.22.17-.53.19-.77.03L0,.7v14.92l8.6-6.72c.29-.23.71-.17.93.11.23.29.17.71-.11.93L1.2,16.37h15.33ZM24.97,14.97v.73c0,.37-.3.67-.67.67h-.73l1.4-1.4Z"/>
  </g>
</svg>