<?xml version="1.0" encoding="UTF-8"?>
<svg id="Layer_2" data-name="Layer 2" xmlns="http://www.w3.org/2000/svg" viewBox="0 0 74.02 66.36">
  <g id="Layer_1-2" data-name="Layer 1">
    <g>
      <path d="M66.42,52.48H7.6c-4.19,0-7.6-3.41-7.6-7.6V7.6C0,3.41,3.41,0,7.6,0h58.83c4.19,0,7.6,3.41,7.6,7.6v37.28c0,4.19-3.41,7.6-7.6,7.6ZM7.6,5c-1.43,0-2.6,1.17-2.6,2.6v37.28c0,1.43,1.17,2.6,2.6,2.6h58.83c1.43,0,2.6-1.17,2.6-2.6V7.6c0-1.43-1.17-2.6-2.6-2.6H7.6Z"/>
      <path d="M71.52,40.73H2.5c-1.38,0-2.5-1.12-2.5-2.5s1.12-2.5,2.5-2.5h69.02c1.38,0,2.5,1.12,2.5,2.5s-1.12,2.5-2.5,2.5Z"/>
      <path d="M51.73,66.36h-29.44c-1.38,0-2.5-1.12-2.5-2.5s1.12-2.5,2.5-2.5h29.44c1.38,0,2.5,1.12,2.5,2.5s-1.12,2.5-2.5,2.5Z"/>
      <path d="M37.01,66.36c-1.38,0-2.5-1.12-2.5-2.5v-12.53c0-1.38,1.12-2.5,2.5-2.5s2.5,1.12,2.5,2.5v12.53c0,1.38-1.12,2.5-2.5,2.5Z"/>
    </g>
  </g>
</svg>