<?xml version="1.0" encoding="UTF-8"?>
<svg id="Layer_2" data-name="Layer 2" xmlns="http://www.w3.org/2000/svg" viewBox="0 0 60 63">
  <defs>
    <style>
      .cls-1 {
        fill: none;
        stroke: #fff;
        stroke-linecap: round;
        stroke-linejoin: round;
        stroke-width: 6px;
      }
    </style>
  </defs>
  <g id="_Layer_" data-name="&amp;lt;Layer&amp;gt;">
    <g>
      <path class="cls-1" d="M48,33v-12c0-9.94-8.06-18-18-18h0c-9.94,0-18,8.06-18,18v12c0,1.66-1.34,3-3,3h0c-3.31,0-6,2.69-6,6h0c0,3.31,2.69,6,6,6h42c3.31,0,6-2.69,6-6h0c0-3.31-2.69-6-6-6h0c-1.66,0-3-1.34-3-3Z"/>
      <path class="cls-1" d="M21,48v3c0,4.97,4.03,9,9,9s9-4.03,9-9v-3"/>
    </g>
  </g>
</svg>