<?xml version="1.0" encoding="UTF-8"?>
<svg id="Layer_2" data-name="Layer 2" xmlns="http://www.w3.org/2000/svg" viewBox="0 0 26.71 20.36">
  <defs>
    <style>
      .cls-1 {
        fill: #fff;
        fill-rule: evenodd;
      }
    </style>
  </defs>
  <g id="Layer_1-2" data-name="Layer 1">
    <path class="cls-1" d="M13.36,0c1.17,0,2.23.48,3,1.24.77.77,1.24,1.83,1.24,3s-.48,2.23-1.24,3c-.77.77-1.83,1.24-3,1.24s-2.23-.48-3-1.24c-.77-.77-1.24-1.83-1.24-3s.48-2.23,1.24-3c.77-.77,1.83-1.24,3-1.24h0ZM21.79,3.3c.78,0,1.48.32,1.99.83.51.51.83,1.21.83,1.99s-.32,1.48-.83,1.99c-.51.51-1.21.83-1.99.83s-1.48-.32-1.99-.83c-.51-.51-.83-1.21-.83-1.99s.32-1.48.83-1.99c.51-.51,1.21-.83,1.99-.83h0ZM19.1,10.12c.71-.44,1.55-.69,2.45-.69h.46c1.29,0,2.47.53,3.32,1.38.85.85,1.38,2.02,1.38,3.32,0,.13-.08.23-.18.28l-4.6,2.38s-.08.03-.12.03c.05-.16.08-.34.08-.52,0-2.2-.88-4.29-2.43-5.85-.11-.11-.23-.23-.35-.33h0ZM4.93,3.3c-.78,0-1.48.32-1.99.83-.51.51-.83,1.21-.83,1.99s.32,1.48.83,1.99c.51.51,1.21.83,1.99.83s1.48-.32,1.99-.83.83-1.21.83-1.99-.32-1.48-.83-1.99-1.21-.83-1.99-.83h0ZM7.61,10.12c-.71-.44-1.55-.69-2.45-.69h-.46c-1.29,0-2.47.53-3.32,1.38-.85.85-1.38,2.02-1.38,3.32,0,.13.08.23.18.28l4.6,2.38s.08.03.12.03c-.05-.16-.08-.34-.08-.52,0-2.2.88-4.29,2.43-5.85.11-.11.23-.23.35-.33h0ZM5.93,16.3h0c0,.17.09.33.25.41l6.96,3.6c.13.07.28.07.42,0l6.94-3.59c.16-.07.28-.23.28-.42,0-1.95-.8-3.72-2.08-5-1.28-1.28-3.05-2.08-5-2.08h-.7c-1.95,0-3.72.8-5,2.08-1.28,1.28-2.08,3.05-2.08,5Z"/>
  </g>
</svg>