<?xml version="1.0" encoding="UTF-8"?>
<svg id="Layer_2" data-name="Layer 2" xmlns="http://www.w3.org/2000/svg" viewBox="0 0 160.55 160.54">
  <defs>
    <style>
      .cls-1 {
        fill: #080a16;
      }
    </style>
  </defs>
  <g id="Calque_1" data-name="Calque 1">
    <path class="cls-1" d="M84.16.09c-1.28-.06-2.57-.09-3.88-.09H0v160.54h80.28c1.31,0,2.6-.03,3.88-.09,20.62-.98,39.2-9.75,52.88-23.42,14.52-14.53,23.51-34.59,23.51-56.76C160.55,37.24,126.69,2.12,84.16.09ZM76.4,7.76v63.14L13.27,7.76h63.13ZM7.76,13.24l67.02,67.02L7.76,147.29V13.24ZM13.26,152.78l63.14-63.14v63.14H13.26ZM131.55,131.54c-12.7,12.69-29.5,20.19-47.39,21.13V7.86c38.52,2.03,68.63,33.77,68.63,72.41,0,19.36-7.54,37.57-21.24,51.27Z"/>
  </g>
</svg>