<?xml version="1.0" encoding="UTF-8"?>
<svg id="Layer_2" data-name="Layer 2" xmlns="http://www.w3.org/2000/svg" viewBox="0 0 23.78 23.78">
  <defs>
    <style>
      .cls-1 {
        fill: #fff;
        fill-rule: evenodd;
      }
    </style>
  </defs>
  <g id="Layer_1-2" data-name="Layer 1">
    <path class="cls-1" d="M11.89,0c6.57,0,11.89,5.32,11.89,11.89s-5.32,11.89-11.89,11.89S0,18.45,0,11.89,5.32,0,11.89,0h0ZM11.33,6.32v5.71c0,.2.11.38.27.47l4.34,2.67c.26.16.59.08.75-.18.16-.26.08-.59-.18-.75l-4.1-2.52v-5.41c0-.3-.24-.54-.54-.54s-.54.24-.54.54h0ZM2.29,13.23l-.65-.38c-.26-.15-.59-.06-.74.2-.15.26-.06.59.2.74l1.77,1.02c.26.15.59.06.74-.2l1.02-1.77c.15-.26.06-.59-.2-.74-.26-.15-.59-.06-.74.2l-.35.6c-.03-.28-.04-.58-.04-.88,0-2.38.97-4.54,2.53-6.1,1.56-1.56,3.72-2.53,6.1-2.53s4.54.97,6.1,2.53c1.56,1.56,2.53,3.72,2.53,6.1,0,1.39-.33,2.7-.91,3.86-.6,1.21-1.48,2.25-2.55,3.05-.24.18-.29.52-.11.76.18.24.52.29.76.11,1.2-.9,2.19-2.08,2.87-3.43.66-1.31,1.03-2.79,1.03-4.34,0-2.68-1.09-5.11-2.84-6.87-1.76-1.76-4.19-2.84-6.87-2.84s-5.11,1.09-6.87,2.84c-1.76,1.76-2.84,4.19-2.84,6.87,0,.35.02.7.06,1.06,0,.05.01.1.02.15h0ZM15.14,20.03c-.35.14-.71.26-1.09.35-.37.09-.74.16-1.12.21-.3.03-.51.3-.48.6.03.3.3.51.6.48.43-.05.86-.13,1.26-.23.41-.11.82-.24,1.22-.4.28-.11.41-.43.3-.71-.11-.28-.43-.41-.71-.3h0ZM10.7,20.57c-.38-.05-.75-.13-1.11-.23-.36-.1-.72-.23-1.07-.38-.28-.12-.6,0-.71.28-.12.28,0,.6.28.71.39.17.79.31,1.2.43.41.11.82.2,1.25.26.3.04.57-.16.61-.46.04-.3-.16-.57-.46-.61h0ZM6.61,18.81c-.3-.24-.58-.49-.84-.75-.26-.27-.51-.56-.73-.85-.18-.24-.52-.29-.76-.11-.24.18-.29.52-.11.76.26.34.53.66.83.96.3.3.61.59.94.85.24.19.58.14.76-.09.19-.24.14-.58-.09-.76Z"/>
  </g>
</svg>