<?xml version="1.0" encoding="UTF-8"?>
<svg id="Layer_2" data-name="Layer 2" xmlns="http://www.w3.org/2000/svg" viewBox="0 0 22.34 23.81">
  <defs>
    <style>
      .cls-1 {
        fill: #fff;
        fill-rule: evenodd;
      }
    </style>
  </defs>
  <g id="Layer_1-2" data-name="Layer 1">
    <path class="cls-1" d="M22.34,15.37V4.34c0-1.2-.49-2.28-1.27-3.07-.79-.79-1.87-1.27-3.07-1.27H4.34c-1.2,0-2.28.49-3.07,1.27-.79.79-1.27,1.87-1.27,3.07v11.03c0,1.2.49,2.28,1.27,3.07.79.79,1.87,1.27,3.07,1.27h8.19l5.48,3.97c.3.22.71.15.93-.15.12-.17.16-.38.1-.57l-.74-3.26c1.08-.07,2.05-.54,2.77-1.26.79-.79,1.27-1.87,1.27-3.07h0ZM7.93,10.54c0,.68-.55,1.24-1.24,1.24s-1.24-.55-1.24-1.24.55-1.24,1.24-1.24,1.24.55,1.24,1.24h0ZM15.64,11.78c-.68,0-1.24-.55-1.24-1.24s.55-1.24,1.24-1.24,1.24.55,1.24,1.24-.55,1.24-1.24,1.24h0ZM11.17,11.78c-.68,0-1.24-.55-1.24-1.24s.55-1.24,1.24-1.24,1.24.55,1.24,1.24-.55,1.24-1.24,1.24Z"/>
  </g>
</svg>