<?xml version="1.0" encoding="UTF-8"?>
<svg id="Layer_2" data-name="Layer 2" xmlns="http://www.w3.org/2000/svg" viewBox="0 0 20.52 24.36">
  <defs>
    <style>
      .cls-1 {
        fill: #fff;
        fill-rule: evenodd;
      }
    </style>
  </defs>
  <g id="Layer_1-2" data-name="Layer 1">
    <path class="cls-1" d="M.27,8.6L9.9.16c.26-.22.63-.22.88,0h0s2.97,2.64,2.97,2.64v-1.42c0-.37.3-.67.67-.67h3.58c.37,0,.67.3.67.67v5.79l1.64,1.46c.15.13.22.31.22.5v14.56c0,.37-.3.67-.67.67h-6.22c-.37,0-.67-.3-.67-.67v-8.28h0v-.05c0-.36-.3-.66-.66-.66h-4.1c-.36,0-.66.3-.66.66v8.33c0,.37-.3.67-.67.67H.67c-.37,0-.67-.3-.67-.67v-14.56c0-.22.11-.41.27-.54H.27ZM13.33,12.13v-4.79c0-.37-.3-.67-.67-.67h-4.79c-.37,0-.67.3-.67.67v4.79c0,.37.3.67.67.67h4.79c.37,0,.67-.3.67-.67Z"/>
  </g>
</svg>