<?xml version="1.0" encoding="UTF-8"?>
<svg id="Layer_2" data-name="Layer 2" xmlns="http://www.w3.org/2000/svg" viewBox="0 0 23.78 23.78">
  <defs>
    <style>
      .cls-1 {
        fill: #fff;
        fill-rule: evenodd;
      }
    </style>
  </defs>
  <g id="Layer_1-2" data-name="Layer 1">
    <path class="cls-1" d="M11.89,0c3.28,0,6.26,1.33,8.41,3.48,2.15,2.15,3.48,5.12,3.48,8.41s-1.33,6.26-3.48,8.41c-2.15,2.15-5.12,3.48-8.41,3.48s-6.26-1.33-8.41-3.48C1.33,18.14,0,15.17,0,11.89S1.33,5.63,3.48,3.48C5.63,1.33,8.61,0,11.89,0h0ZM12.43,4.74c-.04-.06-.09-.12-.16-.16-.3-.21-.71-.15-.93.15l-2.3,3.2-3.71,1.18c-.08.02-.16.06-.23.11-.3.22-.36.63-.14.93l2.33,3.18-.02,3.88c0,.09,0,.18.03.27.12.35.49.54.84.42l3.74-1.24,3.74,1.24h0c.07.02.14.03.21.03.37,0,.66-.3.66-.67l-.02-3.94,2.33-3.18c.04-.06.07-.12.1-.19.11-.35-.08-.72-.43-.83l-3.75-1.2-2.29-3.19Z"/>
  </g>
</svg>