<?xml version="1.0" encoding="UTF-8"?>
<svg id="Layer_2" data-name="Layer 2" xmlns="http://www.w3.org/2000/svg" viewBox="0 0 26.03 26.03">
  <defs>
    <style>
      .cls-1 {
        fill: #fff;
        fill-rule: evenodd;
      }
    </style>
  </defs>
  <g id="Layer_1-2" data-name="Layer 1">
    <path class="cls-1" d="M13.01,0c3.59,0,6.85,1.46,9.2,3.81,2.35,2.36,3.81,5.61,3.81,9.2s-1.46,6.85-3.81,9.2-5.61,3.81-9.2,3.81-6.85-1.46-9.2-3.81c-2.35-2.35-3.81-5.61-3.81-9.2S1.46,6.17,3.81,3.81C6.17,1.46,9.42,0,13.01,0h0ZM8.37,7.47c-1.32,0-2.39,1.07-2.39,2.39s1.07,2.39,2.39,2.39,2.39-1.07,2.39-2.39-1.07-2.39-2.39-2.39h0ZM17.83,7.55c-1.32,0-2.39,1.07-2.39,2.39s1.07,2.39,2.39,2.39,2.39-1.07,2.39-2.39-1.07-2.39-2.39-2.39h0ZM8.37,18.56h9.64c.4,0,.73-.33.73-.73s-.33-.73-.73-.73h-9.64c-.4,0-.73.33-.73.73s.33.73.73.73Z"/>
  </g>
</svg>