<?xml version="1.0" encoding="UTF-8"?>
<svg id="Layer_2" data-name="Layer 2" xmlns="http://www.w3.org/2000/svg" viewBox="0 0 25.46 24.13">
  <defs>
    <style>
      .cls-1 {
        fill: #fff;
        fill-rule: evenodd;
      }
    </style>
  </defs>
  <g id="Layer_1-2" data-name="Layer 1">
    <path class="cls-1" d="M2.83,10.79l9.7-5.97c.22-.14.5-.13.7,0h0s9.45,6,9.45,6c.2.13.31.34.31.56v9.4c0,.92-.37,1.75-.98,2.35-.6.6-1.44.98-2.35.98h-2.66c-.37,0-.7-.15-.94-.39l-.05-.05c-.09-.1-.16-.21-.22-.32v-7.09c0-.41-.34-.75-.75-.75h-4.64c-.41,0-.75.34-.75.75v7.09c-.07.14-.16.27-.26.37-.24.24-.57.39-.94.39h-2.66c-.92,0-1.75-.37-2.35-.98-.6-.6-.98-1.44-.98-2.35v-9.4c0-.26.15-.49.37-.6h0ZM.61,7.6c-.19.12-.34.29-.45.48-.11.19-.16.41-.16.64v2.01h0c0,.12.03.24.1.35.19.31.6.41.91.22L12.8,3.98l11.6,7.29c.11.08.25.13.4.13.37,0,.67-.3.67-.67v-2.01c0-.21-.05-.41-.13-.59l-.02-.05c-.1-.19-.25-.35-.45-.48l-2.04-1.33-.02-4.2c0-.37-.15-.7-.39-.94-.24-.24-.57-.39-.94-.39h-2.67c-.37,0-.7.15-.94.39h0c-.24.24-.39.58-.39.94v.71L13.53.22C13.31.07,13.06,0,12.81,0c-.25,0-.5.07-.72.21L.61,7.6Z"/>
  </g>
</svg>