<?xml version="1.0" encoding="UTF-8"?>
<svg id="Layer_2" data-name="Layer 2" xmlns="http://www.w3.org/2000/svg" viewBox="0 0 27.34 26.07">
  <defs>
    <style>
      .cls-1 {
        fill: #fff;
        fill-rule: evenodd;
      }
    </style>
  </defs>
  <g id="Layer_1-2" data-name="Layer 1">
    <path class="cls-1" d="M14.33.6l1.31,11.03,10.91-2.17c.36-.07.71.16.78.53.06.32-.11.63-.4.74l-10.07,4.64,5.43,9.7c.18.32.07.73-.26.91-.29.16-.65.08-.85-.17l-7.51-8.13-7.55,8.17c-.25.27-.67.28-.94.04-.23-.21-.27-.55-.13-.81h0s5.43-9.7,5.43-9.7L.39,10.72c-.33-.15-.48-.55-.33-.88.13-.28.44-.43.73-.37l10.91,2.17L13.01.59c.04-.37.37-.63.74-.58.32.04.55.29.58.59Z"/>
  </g>
</svg>