<?xml version="1.0" encoding="UTF-8"?>
<svg id="Layer_2" data-name="Layer 2" xmlns="http://www.w3.org/2000/svg" viewBox="0 0 21.03 25.3">
  <defs>
    <style>
      .cls-1 {
        fill: #fff;
        fill-rule: evenodd;
      }
    </style>
  </defs>
  <g id="Layer_1-2" data-name="Layer 1">
    <path class="cls-1" d="M21.03,1.51v17.95H0V1.51c0-.4.33-.73.73-.73.22,0,.42.1.55.25l2.69,2.68L6.75.43c.26-.31.72-.35,1.03-.09.04.03.07.07.1.1l2.64,3.08L13.34.25c.26-.3.72-.34,1.03-.07.03.03.06.06.09.09l2.77,3.43,2.54-2.69c.28-.29.74-.31,1.03-.03.15.14.23.34.23.53h0ZM5.41,7.15v1.26c0,1.26.59,2.4,1.54,3.22.92.8,2.18,1.29,3.57,1.29s2.65-.49,3.57-1.29c.95-.82,1.54-1.96,1.54-3.22v-1.26c0-.4-.33-.73-.73-.73s-.73.33-.73.73v1.26c0,.82-.39,1.57-1.03,2.12-.66.57-1.59.93-2.62.93s-1.95-.36-2.62-.93c-.64-.55-1.03-1.3-1.03-2.12v-1.26c0-.4-.33-.73-.73-.73s-.73.33-.73.73h0ZM21.03,20.92v3.65c0,.4-.33.73-.73.73H.73c-.4,0-.73-.33-.73-.73v-3.65h21.03Z"/>
  </g>
</svg>