<?xml version="1.0" encoding="UTF-8"?>
<svg id="Layer_2" data-name="Layer 2" xmlns="http://www.w3.org/2000/svg" viewBox="0 0 26.63 23.71">
  <defs>
    <style>
      .cls-1 {
        fill: #fff;
        fill-rule: evenodd;
      }
    </style>
  </defs>
  <g id="Layer_1-2" data-name="Layer 1">
    <path class="cls-1" d="M4.3,3.18h2.34l.59-1.22c.48-1,.94-1.97,2.27-1.97h7.78c.71,0,1.22.31,1.62.79.33.39.54.87.74,1.35l.43,1.05h2.26c1.18,0,2.26.48,3.04,1.26.78.78,1.26,1.86,1.26,3.04v11.92c0,1.18-.48,2.26-1.26,3.04-.78.78-1.86,1.26-3.04,1.26H4.3c-1.18,0-2.26-.48-3.04-1.26h0c-.78-.78-1.26-1.86-1.26-3.04V7.49c0-1.18.48-2.26,1.26-3.04h0c.78-.78,1.86-1.27,3.04-1.27h0ZM13.32,9.41c-1.03,0-1.97.42-2.64,1.09-.68.68-1.09,1.61-1.09,2.64s.42,1.97,1.09,2.64c.68.68,1.61,1.09,2.64,1.09s1.97-.42,2.64-1.1c.68-.68,1.09-1.61,1.09-2.64s-.42-1.97-1.09-2.64c-.68-.68-1.61-1.09-2.64-1.09h0ZM15.75,10.71c-.62-.62-1.49-1.01-2.44-1.01s-1.81.39-2.44,1.01c-.62.62-1.01,1.49-1.01,2.44s.39,1.81,1.01,2.44c.62.62,1.49,1.01,2.44,1.01s1.81-.39,2.44-1.01c.62-.62,1.01-1.49,1.01-2.44s-.39-1.81-1.01-2.44h0ZM13.32,6.5c-1.83,0-3.49.74-4.7,1.95-1.2,1.2-1.95,2.86-1.95,4.7s.74,3.49,1.95,4.7c1.2,1.2,2.86,1.95,4.7,1.95s3.49-.74,4.7-1.95c1.2-1.2,1.95-2.86,1.95-4.7s-.74-3.49-1.95-4.7c-1.2-1.2-2.86-1.95-4.7-1.95h0ZM16.98,9.48c-.94-.94-2.23-1.52-3.67-1.52s-2.73.58-3.67,1.52-1.52,2.23-1.52,3.67.58,2.73,1.52,3.67c.94.94,2.23,1.52,3.67,1.52s2.73-.58,3.67-1.52c.94-.94,1.52-2.23,1.52-3.67s-.58-2.73-1.52-3.67h0ZM4.13,7.44h1.99c.4,0,.73-.33.73-.73s-.33-.73-.73-.73h-1.99c-.4,0-.73.33-.73.73s.33.73.73.73Z"/>
  </g>
</svg>