<?xml version="1.0" encoding="UTF-8"?>
<svg id="Layer_2" data-name="Layer 2" xmlns="http://www.w3.org/2000/svg" viewBox="0 0 62.42 69.29">
  <g id="Layer_1-2" data-name="Layer 1">
    <g>
      <path d="M30.78,69.29c-.64,0-1.28-.24-1.77-.73-.98-.98-.98-2.56,0-3.54l27.03-27.03c.89-.89,1.39-2.08,1.39-3.35s-.49-2.46-1.39-3.35L29.01,4.27c-.98-.98-.98-2.56,0-3.54.98-.98,2.56-.98,3.54,0l27.03,27.03c1.84,1.84,2.85,4.28,2.85,6.88s-1.01,5.05-2.85,6.88l-27.03,27.03c-.49.49-1.13.73-1.77.73Z"/>
      <path d="M2.5,69.29c-.64,0-1.28-.24-1.77-.73-.98-.98-.98-2.56,0-3.54l27.03-27.03c.89-.89,1.39-2.08,1.39-3.35s-.49-2.46-1.39-3.35L.73,4.27C-.24,3.29-.24,1.71.73.73,1.71-.24,3.29-.24,4.27.73l27.03,27.03c3.8,3.8,3.8,9.97,0,13.77l-27.03,27.03c-.49.49-1.13.73-1.77.73Z"/>
    </g>
  </g>
</svg>