<?xml version="1.0" encoding="UTF-8"?>
<svg id="Layer_2" data-name="Layer 2" xmlns="http://www.w3.org/2000/svg" viewBox="0 0 15.88 23.5">
  <defs>
    <style>
      .cls-1 {
        fill: #fff;
        fill-rule: evenodd;
      }
    </style>
  </defs>
  <g id="Layer_1-2" data-name="Layer 1">
    <path class="cls-1" d="M11.35,10.66c1.24.62,2.36,1.55,3.17,2.7.85,1.2,1.36,2.63,1.36,4.16v3.73c0,.61-.25,1.17-.66,1.58s-.96.66-1.58.66H2.23c-.61,0-1.17-.25-1.58-.66h0c-.4-.4-.66-.96-.66-1.58v-3.73c0-1.56.54-3.02,1.41-4.24.8-1.12,1.89-2.03,3.11-2.63-.68-.49-1.25-1.11-1.67-1.84-.5-.87-.79-1.87-.79-2.94,0-1.62.66-3.09,1.72-4.16S6.32,0,7.94,0s3.09.66,4.16,1.72,1.72,2.53,1.72,4.16c0,1.04-.27,2.01-.74,2.86-.43.76-1.02,1.42-1.72,1.92Z"/>
  </g>
</svg>