<?xml version="1.0" encoding="UTF-8"?>
<svg id="Layer_2" data-name="Layer 2" xmlns="http://www.w3.org/2000/svg" viewBox="0 0 160.54 160.54">
  <defs>
    <style>
      .cls-1 {
        fill: #080a16;
      }
    </style>
  </defs>
  <g id="Calque_1" data-name="Calque 1">
    <path class="cls-1" d="M160.54,0H0s0,160.53,0,160.53h160.54s0-160.53,0-160.53ZM152.78,118.59l-17.7-93.12L41.95,7.76h110.82v110.83ZM76.39,84.15l63.65,60.5-81.35-42.8L15.89,20.5l60.5,63.65ZM20.5,15.89l81.35,42.8,42.8,81.35-60.5-63.65L20.5,15.89ZM109.61,50.93L28.7,12.47l98.62,20.75,20.75,98.62-38.45-80.91ZM50.93,109.61l80.91,38.45-98.62-20.75L12.47,28.7l38.45,80.91ZM7.76,41.95l17.7,93.12,93.12,17.7H7.76V41.95Z"/>
  </g>
</svg>