<?xml version="1.0" encoding="UTF-8"?>
<svg id="Layer_2" data-name="Layer 2" xmlns="http://www.w3.org/2000/svg" viewBox="0 0 160.49 160.49">
  <defs>
    <style>
      .cls-1 {
        fill: #080a16;
      }
    </style>
  </defs>
  <g id="Calque_1" data-name="Calque 1">
    <path class="cls-1" d="M160.49,0h-80.18s0,0-.01,0,0,0-.01,0H0v160.49h160.49V0ZM80.31,7.76c38.66,0,70.35,30.44,72.37,68.61H7.91C9.94,38.2,41.62,7.76,80.28,7.76h.02ZM152.68,84.12c-2.02,38.17-33.71,68.61-72.38,68.61S9.94,122.3,7.91,84.12h144.76ZM152.73,7.76v37.93c-7.93-16.59-21.39-30.02-37.99-37.93h37.99ZM45.85,7.76C29.17,15.7,15.67,29.22,7.76,45.91V7.76h38.09ZM7.76,152.73v-38.15c7.91,16.69,21.41,30.21,38.09,38.15H7.76ZM114.74,152.73c16.6-7.9,30.06-21.34,37.99-37.93v37.93h-37.99Z"/>
  </g>
</svg>