<?xml version="1.0" encoding="UTF-8"?>
<svg id="Layer_2" data-name="Layer 2" xmlns="http://www.w3.org/2000/svg" viewBox="0 0 24.95 27.72">
  <defs>
    <style>
      .cls-1 {
        fill: #fff;
        fill-rule: evenodd;
      }
    </style>
  </defs>
  <g id="Layer_1-2" data-name="Layer 1">
    <path class="cls-1" d="M12.8.08l11.75,5.84c.27.13.42.41.4.7-.33,5.23-1.67,9.47-3.77,12.91-2.1,3.45-4.96,6.08-8.34,8.1-.24.15-.54.13-.76,0-3.37-2.02-6.22-4.65-8.32-8.09C1.67,16.08.34,11.84,0,6.61c-.02-.31.16-.59.43-.71L12.15.08c.21-.1.45-.1.64,0h0ZM6.6,13.18l3.58,4.18c.26.31.72.34,1.03.08l8.25-7.53c.3-.27.32-.73.05-1.03-.27-.3-.73-.32-1.03-.05l-7.68,7.01-3.09-3.61c-.26-.3-.72-.34-1.03-.08-.31.26-.34.72-.08,1.03Z"/>
  </g>
</svg>