<?xml version="1.0" encoding="UTF-8"?>
<svg id="Layer_2" data-name="Layer 2" xmlns="http://www.w3.org/2000/svg" viewBox="0 0 61.32 59.93">
  <defs>
    <style>
      .cls-1 {
        fill: none;
        stroke: #fff;
        stroke-linecap: round;
        stroke-linejoin: round;
        stroke-width: 6px;
      }
    </style>
  </defs>
  <g id="_Layer_" data-name="&amp;lt;Layer&amp;gt;">
    <g>
      <path class="cls-1" d="M48.93,40.33l6.71,1.53,2.67-11.7-6.73-1.54c-.15-2.28-.65-4.45-1.46-6.47l5.38-4.29-7.48-9.38-5.38,4.29c-1.81-1.26-3.82-2.24-5.98-2.89V3h-12v6.88c-2.16.64-4.18,1.63-5.98,2.89l-5.38-4.29-7.48,9.38,5.38,4.29c-.82,2.02-1.31,4.2-1.46,6.47l-6.73,1.54,2.67,11.7,6.71-1.53c1.1,1.94,2.51,3.69,4.15,5.18l-2.99,6.22,10.81,5.21,2.99-6.22c1.08.17,2.18.29,3.32.29s2.23-.11,3.32-.29l2.99,6.22,10.81-5.21-2.99-6.22c1.64-1.49,3.05-3.24,4.15-5.18Z"/>
      <circle class="cls-1" cx="30.66" cy="30" r="9"/>
    </g>
  </g>
</svg>