<?xml version="1.0" encoding="UTF-8"?>
<svg id="Layer_2" data-name="Layer 2" xmlns="http://www.w3.org/2000/svg" viewBox="0 0 79.81 73.43">
  <g id="Layer_1-2" data-name="Layer 1">
    <g>
      <path d="M41.45,73.43H6.32c-1.92,0-3.71-.86-4.91-2.35-1.22-1.52-1.68-3.49-1.26-5.4,2.44-11.04,12.42-19.05,23.74-19.05s21.3,8.01,23.74,19.05c.42,1.91-.04,3.88-1.26,5.4-1.2,1.5-2.99,2.35-4.91,2.35ZM23.89,51.63c-8.99,0-16.92,6.36-18.85,15.12-.09.43,0,.86.27,1.19.15.18.47.49,1.02.49h35.13c.54,0,.87-.3,1.02-.49.27-.33.37-.77.27-1.19-1.93-8.76-9.86-15.12-18.85-15.12Z"/>
      <path d="M23.89,38.42c-7.07,0-12.83-5.76-12.83-12.83s5.76-12.83,12.83-12.83,12.83,5.76,12.83,12.83-5.76,12.83-12.83,12.83ZM23.89,17.76c-4.32,0-7.83,3.51-7.83,7.83s3.51,7.83,7.83,7.83,7.83-3.51,7.83-7.83-3.51-7.83-7.83-7.83Z"/>
      <path d="M73.49,60.68h-18.5c-1.38,0-2.5-1.12-2.5-2.5s1.12-2.5,2.5-2.5h18.5c.54,0,.87-.3,1.02-.49.27-.33.37-.77.27-1.2-1.93-8.76-9.86-15.12-18.85-15.12-5.17,0-10.03,2.02-13.68,5.68-.97.98-2.56.98-3.54,0-.98-.97-.98-2.56,0-3.54,4.59-4.61,10.71-7.16,17.22-7.16,11.32,0,21.3,8.01,23.74,19.05.42,1.92-.04,3.88-1.26,5.4-1.2,1.5-2.99,2.35-4.91,2.35Z"/>
      <path d="M55.92,25.66c-7.07,0-12.83-5.76-12.83-12.83S48.85,0,55.92,0s12.83,5.76,12.83,12.83-5.76,12.83-12.83,12.83ZM55.92,5c-4.32,0-7.83,3.51-7.83,7.83s3.51,7.83,7.83,7.83,7.83-3.51,7.83-7.83-3.51-7.83-7.83-7.83Z"/>
    </g>
  </g>
</svg>