<?xml version="1.0" encoding="UTF-8"?>
<svg id="Layer_2" data-name="Layer 2" xmlns="http://www.w3.org/2000/svg" viewBox="0 0 28.13 24.54">
  <defs>
    <style>
      .cls-1 {
        fill: #fff;
        fill-rule: evenodd;
      }
    </style>
  </defs>
  <g id="Layer_1-2" data-name="Layer 1">
    <path class="cls-1" d="M4.6,12.46H1.75c-.38,0-.73-.12-1.02-.32-.29-.21-.52-.5-.64-.86-.12-.36-.13-.73-.02-1.07.1-.34.31-.65.61-.88L11.7.8C12.38.27,13.19,0,14,0c.81,0,1.61.26,2.3.78l11.14,8.54c.3.23.51.54.61.88.1.34.1.71-.02,1.07-.12.36-.35.66-.64.86-.29.21-.64.33-1.02.33h-2.98v8.31c0,1.04-.42,1.98-1.11,2.66-.68.68-1.62,1.11-2.66,1.11h-11.26c-1.04,0-1.98-.42-2.66-1.1l-.04-.04c-.66-.68-1.07-1.6-1.07-2.62v-8.31h0ZM13.82,9.02c0-.32-.13-.61-.34-.82h0c-.21-.22-.51-.35-.83-.35h-1.83c-.32,0-.61.13-.82.34h0c-.21.22-.34.51-.34.83v1.83c0,.32.13.61.34.82h0c.21.22.51.35.83.35h1.83c.32,0,.61-.13.82-.34h0c.21-.22.34-.51.34-.83v-1.83h0ZM12.64,12.51h-1.82c-.32,0-.61.13-.83.34h0c-.21.22-.35.51-.35.83v1.82c0,.32.13.62.35.83s.51.35.83.35h1.82c.32,0,.62-.13.83-.35h0c.21-.22.35-.51.35-.83v-1.82c0-.32-.13-.62-.35-.83-.21-.21-.51-.35-.83-.35h0ZM14.66,12.86c-.21.21-.35.51-.35.83v1.82c0,.32.13.62.35.83.21.21.51.35.83.35h1.82c.32,0,.62-.13.83-.35h0c.21-.22.35-.51.35-.83v-1.82c0-.32-.13-.62-.35-.83-.21-.21-.51-.35-.83-.35h-1.82c-.32,0-.61.13-.83.34h0ZM14.66,11.68c.21.21.51.35.83.35h1.82c.32,0,.62-.13.83-.35h0c.21-.22.35-.51.35-.83v-1.82c0-.32-.13-.62-.35-.83-.21-.21-.51-.35-.83-.35h-1.82c-.32,0-.61.13-.83.34h0c-.21.22-.35.51-.35.83v1.82c0,.32.13.62.35.83Z"/>
  </g>
</svg>