<?xml version="1.0" encoding="UTF-8"?>
<svg id="Layer_2" data-name="Layer 2" xmlns="http://www.w3.org/2000/svg" viewBox="0 0 26.35 26.35">
  <defs>
    <style>
      .cls-1 {
        fill: #fff;
        fill-rule: evenodd;
      }
    </style>
  </defs>
  <g id="Layer_1-2" data-name="Layer 1">
    <path class="cls-1" d="M13.17,0c3.64,0,6.93,1.47,9.32,3.86,2.38,2.38,3.86,5.68,3.86,9.32s-1.47,6.93-3.86,9.32c-2.38,2.38-5.68,3.86-9.32,3.86s-6.93-1.47-9.32-3.86c-2.38-2.38-3.86-5.68-3.86-9.32S1.47,6.24,3.86,3.86C6.24,1.47,9.54,0,13.17,0h0ZM4.85,14.63h16.64c.77,0,1.39-.62,1.39-1.39s-.62-1.39-1.39-1.39H4.85c-.77,0-1.39.62-1.39,1.39s.62,1.39,1.39,1.39Z"/>
  </g>
</svg>