<?xml version="1.0" encoding="UTF-8"?>
<svg id="Layer_2" data-name="Layer 2" xmlns="http://www.w3.org/2000/svg" viewBox="0 0 25.46 24.25">
  <defs>
    <style>
      .cls-1 {
        fill: #fff;
        fill-rule: evenodd;
      }
    </style>
  </defs>
  <g id="Layer_1-2" data-name="Layer 1">
    <path class="cls-1" d="M2.83,10.92l9.7-5.97c.22-.14.5-.13.7,0h0s9.45,6,9.45,6c.2.13.31.34.31.56v12.07c0,.37-.3.67-.67.67h-8.86c-.37,0-.67-.3-.67-.67v-8.03c0-.4-.33-.72-.72-.72h-4.48c-.4,0-.72.33-.72.72v8.03c0,.37-.3.67-.67.67h-3.09c-.37,0-.67-.3-.67-.67v-12.07c0-.26.15-.49.37-.6h0ZM.34,7.9c-.2.11-.34.33-.34.58v2.37h0c0,.12.03.24.1.35.19.31.6.41.91.22l11.79-7.31,11.6,7.29c.11.08.25.13.4.13.37,0,.67-.3.67-.67v-2.37h0c0-.22-.11-.43-.3-.56l-2.35-1.53-.02-4.8v-.06c0-.37-.3-.67-.66-.67h-4c-.37,0-.67.3-.67.67v1.38L13.2.13c-.22-.16-.51-.17-.75-.02L.34,7.9Z"/>
  </g>
</svg>