<?xml version="1.0" encoding="UTF-8"?>
<svg id="Layer_2" data-name="Layer 2" xmlns="http://www.w3.org/2000/svg" viewBox="0 0 24.99 25.96">
  <defs>
    <style>
      .cls-1 {
        fill: #fff;
        fill-rule: evenodd;
      }
    </style>
  </defs>
  <g id="Layer_1-2" data-name="Layer 1">
    <path class="cls-1" d="M24.99,7.25v6.01h-7.84v-6.74h.49v-3.13c0-.52-.24-.99-.62-1.34-.4-.36-.96-.59-1.57-.59h-5.9c-.62,0-1.17.23-1.57.59-.38.35-.62.82-.62,1.34v3.13h.49v6.74H0v-6.01c0-.4.33-.73.73-.73h5.17v-3.13c0-.94.42-1.8,1.1-2.41.66-.6,1.56-.97,2.55-.97h5.9c.99,0,1.89.37,2.55.97.68.62,1.1,1.47,1.1,2.41v3.13h5.17c.4,0,.73.33.73.73h0ZM15.68,13.26v-6.74h-6.38v6.74h6.38ZM24.99,14.72v5.28h-7.84v-5.28h7.84ZM24.99,21.46v3.77c0,.4-.33.73-.73.73h-7.11v-4.5h7.84ZM15.68,25.96h-6.38v-4.5h6.38v4.5h0ZM7.84,25.96H.73c-.4,0-.73-.33-.73-.73v-3.77h7.84v4.5h0ZM0,20v-5.28h7.84v5.28H0ZM15.68,20v-5.28h-6.38v5.28h6.38Z"/>
  </g>
</svg>