<?xml version="1.0" encoding="UTF-8"?>
<svg id="Layer_2" data-name="Layer 2" xmlns="http://www.w3.org/2000/svg" viewBox="0 0 26.1 21.67">
  <defs>
    <style>
      .cls-1 {
        fill: #fff;
        fill-rule: evenodd;
      }
    </style>
  </defs>
  <g id="Layer_1-2" data-name="Layer 1">
    <path class="cls-1" d="M13.05,3.9c.63-1.09,1.3-1.96,2.1-2.6,1.09-.87,2.38-1.31,4.09-1.31,1.89,0,3.61.77,4.85,2.01,1.24,1.24,2.01,2.96,2.01,4.85,0,3.28-.97,5.73-3.09,8.02-2.06,2.21-5.2,4.24-9.63,6.7-.23.13-.49.11-.7-.03-3.97-2.41-7.09-4.42-9.25-6.63C1.19,12.63,0,10.15,0,6.86c0-1.89.77-3.61,2.01-4.85C3.25.77,4.97,0,6.86,0c3.02,0,4.69,1.3,6.19,3.9Z"/>
  </g>
</svg>