<?xml version="1.0" encoding="UTF-8"?>
<svg id="Layer_2" data-name="Layer 2" xmlns="http://www.w3.org/2000/svg" viewBox="0 0 72.72 50.74">
  <g id="Layer_1-2" data-name="Layer 1">
    <g>
      <path d="M15.38,38.62c-.66,0-1.31-.26-1.77-.73-.47-.47-.73-1.11-.73-1.77s.26-1.3.73-1.77c.58-.58,1.44-.84,2.25-.68.16.03.32.08.47.14.15.07.3.14.43.23.14.09.27.2.38.31.47.47.74,1.11.74,1.77s-.27,1.3-.74,1.77c-.11.12-.24.22-.38.31-.13.09-.28.17-.43.23-.15.06-.31.11-.47.14-.16.04-.32.05-.48.05Z"/>
      <path d="M66.77,50.74H5.95c-3.28,0-5.95-2.67-5.95-5.95V6.28C0,2.82,2.82,0,6.28,0h60.16c3.46,0,6.28,2.82,6.28,6.28v38.51c0,3.28-2.67,5.95-5.95,5.95ZM6.28,5c-.71,0-1.28.57-1.28,1.28v38.51c0,.52.43.95.95.95h60.82c.52,0,.95-.43.95-.95V6.28c0-.71-.57-1.28-1.28-1.28H6.28Z"/>
      <path d="M70.22,19.93H2.5c-1.38,0-2.5-1.12-2.5-2.5s1.12-2.5,2.5-2.5h67.72c1.38,0,2.5,1.12,2.5,2.5s-1.12,2.5-2.5,2.5Z"/>
    </g>
  </g>
</svg>