<?xml version="1.0" encoding="UTF-8"?>
<svg id="Layer_2" data-name="Layer 2" xmlns="http://www.w3.org/2000/svg" viewBox="0 0 80.61 72.38">
  <g id="Layer_1-2" data-name="Layer 1">
    <g>
      <path d="M33.19,65.57H9.93c-5.48,0-9.93-4.46-9.93-9.93V17.58C0,12.11,4.46,7.65,9.93,7.65h54.34c5.48,0,9.93,4.46,9.93,9.93v5.27c0,1.38-1.12,2.5-2.5,2.5s-2.5-1.12-2.5-2.5v-5.27c0-2.72-2.21-4.93-4.93-4.93H9.93c-2.72,0-4.93,2.21-4.93,4.93v38.05c0,2.72,2.21,4.93,4.93,4.93h23.26c1.38,0,2.5,1.12,2.5,2.5s-1.12,2.5-2.5,2.5Z"/>
      <path d="M71.71,25.35H2.5c-1.38,0-2.5-1.12-2.5-2.5s1.12-2.5,2.5-2.5h69.21c1.38,0,2.5,1.12,2.5,2.5s-1.12,2.5-2.5,2.5Z"/>
      <g>
        <path d="M48.9,12.65c-1.38,0-2.5-1.12-2.5-2.5V2.5c0-1.38,1.12-2.5,2.5-2.5s2.5,1.12,2.5,2.5v7.65c0,1.38-1.12,2.5-2.5,2.5Z"/>
        <path d="M25.31,12.65c-1.38,0-2.5-1.12-2.5-2.5V2.5c0-1.38,1.12-2.5,2.5-2.5s2.5,1.12,2.5,2.5v7.65c0,1.38-1.12,2.5-2.5,2.5Z"/>
      </g>
      <g>
        <path d="M59.56,72.38c-11.61,0-21.05-9.44-21.05-21.05s9.44-21.05,21.05-21.05,21.05,9.44,21.05,21.05-9.44,21.05-21.05,21.05ZM59.56,35.28c-8.85,0-16.05,7.2-16.05,16.05s7.2,16.05,16.05,16.05,16.05-7.2,16.05-16.05-7.2-16.05-16.05-16.05Z"/>
        <path d="M59.56,53.83c-1.38,0-2.5-1.12-2.5-2.5v-7.68c0-1.38,1.12-2.5,2.5-2.5s2.5,1.12,2.5,2.5v7.68c0,1.38-1.12,2.5-2.5,2.5Z"/>
        <path d="M62.77,57.04c-.64,0-1.28-.24-1.77-.73l-3.21-3.21c-.98-.98-.98-2.56,0-3.54.98-.98,2.56-.98,3.54,0l3.21,3.21c.98.98.98,2.56,0,3.54-.49.49-1.13.73-1.77.73Z"/>
      </g>
    </g>
  </g>
</svg>