<?xml version="1.0" encoding="UTF-8"?>
<svg id="Layer_2" data-name="Layer 2" xmlns="http://www.w3.org/2000/svg" viewBox="0 0 21.46 25.75">
  <defs>
    <style>
      .cls-1 {
        fill: #fff;
        fill-rule: evenodd;
      }
    </style>
  </defs>
  <g id="Layer_1-2" data-name="Layer 1">
    <path class="cls-1" d="M10,0c1.68,0,3.19.68,4.29,1.78,1.1,1.1,1.78,2.62,1.78,4.29s-.68,3.19-1.78,4.29c-.5.5-1.08.91-1.73,1.21,1.21.32,2.34.87,3.33,1.6-.2.08-.39.21-.54.39l-4.4,5.32c-.1.11-.18.25-.24.39-.06.15-.09.31-.09.48,0,.37.15.7.39.94.24.24.57.39.94.39h1.05v3.55H2.2c-.61,0-1.16-.25-1.56-.65-.4-.4-.65-.95-.65-1.56v-1.2c0-2.75,1.12-5.25,2.94-7.06,1.23-1.23,2.77-2.14,4.5-2.6-.65-.3-1.23-.71-1.73-1.21-1.1-1.1-1.78-2.62-1.78-4.29s.68-3.19,1.78-4.29,2.62-1.78,4.29-1.78h0ZM16.89,13.99s-.06-.07-.1-.1c-.28-.23-.7-.19-.94.09l-4.4,5.32c-.11.12-.17.28-.17.45,0,.37.3.67.67.67h1.72v4.68c0,.37.3.67.67.67h4.08c.37,0,.67-.3.67-.67v-4.68h1.72c.15,0,.3-.05.42-.15.28-.23.32-.65.09-.94l-4.42-5.33Z"/>
  </g>
</svg>