<?xml version="1.0" encoding="UTF-8"?>
<svg id="Layer_2" data-name="Layer 2" xmlns="http://www.w3.org/2000/svg" viewBox="0 0 24.55 26.1">
  <defs>
    <style>
      .cls-1 {
        fill: #fff;
        fill-rule: evenodd;
      }
    </style>
  </defs>
  <g id="Layer_1-2" data-name="Layer 1">
    <path class="cls-1" d="M20.02,0c2.5,0,4.52,2.03,4.52,4.52s-2.02,4.52-4.52,4.52c-1.31,0-2.49-.56-3.32-1.45l-7.81,4.3c.1.37.15.76.15,1.16s-.05.79-.15,1.16l7.81,4.3c.83-.89,2.01-1.45,3.32-1.45,2.5,0,4.52,2.03,4.52,4.52s-2.02,4.52-4.52,4.52-4.52-2.02-4.52-4.52c0-.4.05-.79.15-1.16l-7.81-4.3c-.83.89-2.01,1.45-3.32,1.45-2.5,0-4.52-2.03-4.52-4.52s2.03-4.52,4.52-4.52c1.31,0,2.49.56,3.32,1.45l7.81-4.3c-.1-.37-.15-.76-.15-1.16,0-2.5,2.02-4.52,4.52-4.52Z"/>
  </g>
</svg>