<?xml version="1.0" encoding="UTF-8"?>
<svg id="Layer_2" data-name="Layer 2" xmlns="http://www.w3.org/2000/svg" viewBox="0 0 20.23 25.72">
  <defs>
    <style>
      .cls-1 {
        fill: #fff;
        fill-rule: evenodd;
      }
    </style>
  </defs>
  <g id="Layer_1-2" data-name="Layer 1">
    <path class="cls-1" d="M10,0c1.68,0,3.19.68,4.29,1.78,1.1,1.1,1.78,2.62,1.78,4.29s-.68,3.19-1.78,4.29c-.5.5-1.08.91-1.73,1.21,1.2.32,2.31.86,3.29,1.57v1.99c-.19-.1-.4-.15-.62-.15h-2.13c-.37,0-.7.15-.94.39h0c-.24.24-.39.58-.39.94v1.83c-.19-.1-.4-.15-.62-.15h-2.13c-.37,0-.7.15-.94.39h0c-.24.24-.39.58-.39.94v3.46c0,.37.15.7.39.94.05.05.09.09.15.13-.13.06-.24.13-.34.22l-.05.05c-.14.14-.25.32-.32.51H2.2c-.61,0-1.16-.25-1.56-.65-.4-.4-.65-.95-.65-1.56v-1.2c0-2.75,1.12-5.25,2.94-7.06,1.23-1.23,2.77-2.14,4.5-2.6-.64-.3-1.23-.71-1.73-1.21-1.1-1.1-1.78-2.62-1.78-4.29s.68-3.19,1.78-4.29c1.1-1.1,2.62-1.78,4.29-1.78h0ZM9.02,18.65c-.37,0-.67.3-.67.67v3.46c0,.37.3.67.67.67h2.13c.37,0,.67-.3.67-.67v-3.46c0-.37-.3-.67-.67-.67h-2.13ZM8.77,25.72l10.8-.04c.37,0,.66-.3.66-.66s-.3-.66-.66-.66l-10.8.04c-.37,0-.66.3-.66.66s.3.66.66.66h0ZM17.19,12.22h2.13c.37,0,.67.3.67.67v9.89c0,.37-.3.67-.67.67h-2.13c-.37,0-.67-.3-.67-.67v-9.89c0-.37.3-.67.67-.67h0ZM13.1,15.64c-.37,0-.67.3-.67.67v6.47c0,.37.3.67.67.67h2.13c.37,0,.67-.3.67-.67v-6.47c0-.37-.3-.67-.67-.67h-2.13ZM12.13,23.69l-.03.03h.06s-.03-.03-.03-.03h0ZM16.2,23.7h.03l-.02-.02-.02.02Z"/>
  </g>
</svg>