<?xml version="1.0" encoding="UTF-8"?>
<svg id="Layer_2" data-name="Layer 2" xmlns="http://www.w3.org/2000/svg" viewBox="0 0 23.46 25.12">
  <defs>
    <style>
      .cls-1 {
        fill: #fff;
        fill-rule: evenodd;
      }
    </style>
  </defs>
  <g id="Layer_1-2" data-name="Layer 1">
    <path class="cls-1" d="M10,0c1.68,0,3.19.68,4.29,1.78s1.78,2.62,1.78,4.29-.68,3.19-1.78,4.29c-.5.5-1.08.91-1.73,1.21.65.17,1.28.41,1.87.71l-5.3,3.85c-.15.11-.28.25-.39.4-.11.16-.19.33-.23.5h0c-.04.16-.06.33-.06.5,0,.17.03.34.09.5.06.17.13.32.23.46.1.14.22.27.36.37h0c.14.1.3.19.47.24.17.06.35.09.52.09h.42v2.04c-.15.02-.29.06-.43.12-.21.09-.4.22-.55.38-.15.16-.27.34-.35.54-.08.2-.12.41-.12.63v1.18c0,.19.03.37.09.54H2.2c-.61,0-1.16-.25-1.56-.65-.4-.4-.65-.95-.65-1.56v-1.2c0-2.75,1.12-5.25,2.94-7.06,1.23-1.23,2.77-2.14,4.49-2.6-.64-.3-1.23-.71-1.73-1.21-1.1-1.1-1.78-2.62-1.78-4.29s.68-3.19,1.78-4.29c1.1-1.1,2.62-1.78,4.29-1.78h0ZM16.9,12.19c-.18-.13-.39-.2-.61-.2s-.42.07-.61.2l-6.16,4.47c-.19.14-.31.33-.37.54-.05.2-.05.41.02.61.07.21.2.38.36.5.17.13.38.2.6.2h1.08v3.36h-.44c-.28,0-.54.12-.73.32-.18.19-.29.44-.29.72v1.18c0,.28.11.53.29.71.18.19.44.32.73.32h11.03c.28,0,.54-.12.73-.32.18-.19.29-.44.29-.71v-1.18c0-.28-.11-.53-.29-.72-.18-.19-.44-.32-.73-.32h-.44v-3.36h1.08c.19,0,.37-.05.52-.15.03-.01.05-.03.08-.05.16-.12.29-.29.36-.5.07-.2.07-.42.02-.61-.06-.21-.18-.4-.37-.54l-6.16-4.47h0ZM18.95,18.87v2.66c0,.37-.3.67-.67.67h-.5c-.37,0-.67-.3-.67-.67v-2.66c0-.37.3-.67.67-.67h.5c.37,0,.67.3.67.67h0ZM15.47,18.87c0-.37-.3-.67-.67-.67h-.5c-.37,0-.67.3-.67.67v2.66c0,.37.3.67.67.67h.5c.37,0,.67-.3.67-.67v-2.66Z"/>
  </g>
</svg>