<?xml version="1.0" encoding="UTF-8"?>
<svg id="Layer_2" data-name="Layer 2" xmlns="http://www.w3.org/2000/svg" viewBox="0 0 75.1 75.13">
  <g id="Layer_1-2" data-name="Layer 1">
    <g>
      <path d="M37.55,53.9c-9.01,0-16.33-7.33-16.33-16.33s7.33-16.33,16.33-16.33,16.33,7.33,16.33,16.33-7.33,16.33-16.33,16.33ZM37.55,26.24c-6.25,0-11.33,5.08-11.33,11.33s5.08,11.33,11.33,11.33,11.33-5.08,11.33-11.33-5.08-11.33-11.33-11.33Z"/>
      <path d="M37.54,13.09c-1.38,0-2.5-1.12-2.5-2.5V2.5c0-1.38,1.12-2.5,2.5-2.5s2.5,1.12,2.5,2.5v8.09c0,1.38-1.12,2.5-2.5,2.5Z"/>
      <path d="M18.48,21c-.64,0-1.28-.24-1.77-.73l-5.72-5.72c-.98-.98-.98-2.56,0-3.54.98-.98,2.56-.98,3.54,0l5.72,5.72c.98.98.98,2.56,0,3.54-.49.49-1.13.73-1.77.73Z"/>
      <path d="M10.57,40.06H2.5c-1.38,0-2.5-1.12-2.5-2.5s1.12-2.5,2.5-2.5h8.07c1.38,0,2.5,1.12,2.5,2.5s-1.12,2.5-2.5,2.5Z"/>
      <path d="M12.76,64.87c-.64,0-1.28-.24-1.77-.73-.98-.98-.98-2.56,0-3.54l5.74-5.74c.98-.98,2.56-.98,3.54,0,.98.98.98,2.56,0,3.54l-5.74,5.74c-.49.49-1.13.73-1.77.73Z"/>
      <path d="M37.54,75.13c-1.38,0-2.5-1.12-2.5-2.5v-8.09c0-1.38,1.12-2.5,2.5-2.5s2.5,1.12,2.5,2.5v8.09c0,1.38-1.12,2.5-2.5,2.5Z"/>
      <path d="M62.34,64.87c-.64,0-1.28-.24-1.77-.73l-5.74-5.74c-.98-.98-.98-2.56,0-3.54.98-.98,2.56-.98,3.54,0l5.74,5.74c.98.98.98,2.56,0,3.54-.49.49-1.13.73-1.77.73Z"/>
      <path d="M72.6,40.06h-8.07c-1.38,0-2.5-1.12-2.5-2.5s1.12-2.5,2.5-2.5h8.07c1.38,0,2.5,1.12,2.5,2.5s-1.12,2.5-2.5,2.5Z"/>
      <path d="M56.63,21c-.64,0-1.28-.24-1.77-.73-.98-.98-.98-2.56,0-3.54l5.72-5.72c.98-.98,2.56-.98,3.54,0,.98.98.98,2.56,0,3.54l-5.72,5.72c-.49.49-1.13.73-1.77.73Z"/>
    </g>
  </g>
</svg>