<?xml version="1.0" encoding="UTF-8"?>
<svg id="Layer_2" data-name="Layer 2" xmlns="http://www.w3.org/2000/svg" viewBox="0 0 26.25 27.27">
  <defs>
    <style>
      .cls-1 {
        fill: #fff;
        fill-rule: evenodd;
      }
    </style>
  </defs>
  <g id="Layer_1-2" data-name="Layer 1">
    <path class="cls-1" d="M4.3,4.32H1.46v3.06c0,1.34.54,2.56,1.41,3.45.58.59,1.3,1.03,2.1,1.28-.13-.3-.24-.61-.33-.92-.23-.78-.35-1.6-.35-2.44v-4.43h0ZM18.24,3.2c-.01-.4.31-.74.71-.75.4-.01.74.31.75.71.06,2.13.13,4.44-.27,6.31-.44,2.09-1.42,3.65-3.49,3.96-.4.06-.77-.22-.83-.62-.06-.4.22-.77.62-.83,1.31-.2,1.96-1.31,2.28-2.82.36-1.72.3-3.93.24-5.98h0ZM5.1,0h16.04c.4,0,.73.33.73.73v2.13h3.64c.4,0,.73.33.73.73v3.79c0,1.73-.7,3.31-1.84,4.47-1.06,1.08-2.51,1.79-4.12,1.9-.92,1.32-2.2,2.37-3.69,3.02-.41.18-.74.46-.96.8-.22.34-.35.76-.35,1.21v2.07h2.94c.4,0,.73.33.73.73v2.19H7.29v-2.19c0-.4.33-.73.73-.73h2.94v-2.07c0-.45-.12-.86-.35-1.21-.23-.34-.55-.62-.96-.8-1.49-.65-2.76-1.7-3.69-3.02-1.61-.11-3.06-.82-4.12-1.9-1.13-1.16-1.84-2.74-1.84-4.47v-3.79c0-.4.33-.73.73-.73h3.64V.73c0-.4.33-.73.73-.73h0ZM18.95,24.06h.78c.4,0,.73.33.73.73v1.75c0,.4-.33.73-.73.73H6.51c-.4,0-.73-.33-.73-.73v-1.75c0-.4.33-.73.73-.73h12.44ZM24.79,4.32h-2.84v4.43c0,.84-.12,1.66-.35,2.44-.09.32-.2.62-.33.92.81-.24,1.53-.69,2.1-1.28.87-.89,1.41-2.11,1.41-3.45v-3.06Z"/>
  </g>
</svg>