<?xml version="1.0" encoding="UTF-8"?>
<svg id="Layer_2" data-name="Layer 2" xmlns="http://www.w3.org/2000/svg" viewBox="0 0 17.17 26.45">
  <defs>
    <style>
      .cls-1 {
        fill: #fff;
        fill-rule: evenodd;
      }
    </style>
  </defs>
  <g id="Layer_1-2" data-name="Layer 1">
    <path class="cls-1" d="M7.92,24.69H.73c-.4,0-.73-.33-.73-.73v-10.3c0-1.8.74-3.44,1.93-4.63.55-.55,1.2-1.01,1.92-1.34v-3.62c0-.4.33-.73.73-.73h1.24v-1.88h-1.76c-.4,0-.73-.33-.73-.73s.33-.73.73-.73h8.65c.16,0,.31.05.44.15l2.42,1.86c.32.25.38.7.13,1.02s-.7.38-1.02.13l-2.22-1.71h-2.79v1.88h1.24c.4,0,.73.33.73.73v3.62c.72.33,1.37.78,1.92,1.34,1.19,1.19,1.93,2.83,1.93,4.63v3.03c-.16-.2-.33-.41-.49-.62-.62-.77-1.26-1.56-1.78-2.43-.21-.34-.66-.45-1-.24-.1.06-.19.15-.25.25-.53.86-1.16,1.65-1.78,2.42-1.52,1.89-2.95,3.67-2.89,6.34.02.88.24,1.64.61,2.28h0ZM12.61,14.03c-1.79,2.94-4.64,4.91-4.56,8.38.06,2.69,2.31,4.03,4.56,4.04,2.25-.01,4.5-1.36,4.56-4.04.08-3.47-2.77-5.44-4.56-8.38Z"/>
  </g>
</svg>