<?xml version="1.0" encoding="UTF-8"?>
<svg id="Layer_2" data-name="Layer 2" xmlns="http://www.w3.org/2000/svg" viewBox="0 0 28.13 29.78">
  <defs>
    <style>
      .cls-1 {
        fill: #fff;
        fill-rule: evenodd;
      }
    </style>
  </defs>
  <g id="Layer_1-2" data-name="Layer 1">
    <path class="cls-1" d="M5.36,8.81h0c.16,0,.34,0,.52.03h0c.53-.99,1.3-1.83,2.24-2.44,1.05-.68,2.29-1.08,3.63-1.08,1.65,0,3.17.6,4.33,1.6,1.07.91,1.84,2.16,2.16,3.58.93.23,1.74.74,2.35,1.44.71.81,1.13,1.86,1.13,3.01,0,1.27-.52,2.41-1.35,3.24-.83.83-1.98,1.34-3.25,1.34h0c-.71,0-4.93,0-8.19,0-1.83,0-3.36,0-3.8-.01-1.41-.02-2.69-.65-3.61-1.61-.94-.99-1.53-2.33-1.53-3.73,0-1.47.6-2.81,1.57-3.78.97-.97,2.31-1.57,3.78-1.57h0ZM7.6,24.9l1.39-4.08c.08-.28.34-.49.64-.49h2.63c.1,0,.19.02.29.07.33.16.47.55.31.89l-.7,1.47h1.33c.13,0,.27.04.39.12.3.21.37.63.16.93l-4.03,5.67c-.15.24-.44.36-.72.29-.36-.09-.57-.45-.48-.81l.8-3.17h-1.36c-.07,0-.14-.01-.21-.04-.35-.12-.53-.5-.42-.84h0ZM15.42,2.41c-.64.75-1.14,1.63-1.46,2.59.11.03.22.07.33.11.82.3,1.57.75,2.23,1.31.59.51,1.1,1.11,1.51,1.78.33.55.59,1.14.77,1.77.38.13.74.3,1.08.5.46.28.87.63,1.22,1.03.41.47.74,1.02.97,1.61.21.55.32,1.13.33,1.74,1.04-.17,2.01-.55,2.86-1.09,1.22-.78,2.2-1.89,2.81-3.2.16-.33.01-.73-.32-.89-.17-.08-.35-.08-.51-.02-.25.07-.5.12-.77.15-.26.04-.54.05-.84.05-1.73,0-3.29-.7-4.43-1.83-1.13-1.13-1.83-2.7-1.83-4.43,0-.47.05-.93.14-1.36.1-.44.25-.87.44-1.29.16-.33.01-.73-.32-.89-.17-.08-.35-.08-.51-.02-1.46.41-2.74,1.25-3.7,2.37Z"/>
  </g>
</svg>