<?xml version="1.0" encoding="UTF-8"?>
<svg id="Layer_2" data-name="Layer 2" xmlns="http://www.w3.org/2000/svg" viewBox="0 0 29.38 21.46">
  <defs>
    <style>
      .cls-1 {
        fill: #fff;
        fill-rule: evenodd;
      }
    </style>
  </defs>
  <g id="Layer_1-2" data-name="Layer 1">
    <path class="cls-1" d="M11.02,18.21l11.03-6.33c.43-.24.67-.66.67-1.15s-.24-.91-.67-1.15L11.02,3.25c-.43-.24-.67-.66-.67-1.15v-.75c0-.49.24-.91.66-1.15.42-.24.91-.25,1.33,0l16.37,9.39c.43.24.67.66.67,1.15,0,.49-.24.91-.67,1.15-5.46,3.13-10.91,6.26-16.37,9.39-.42.24-.91.24-1.33,0-.42-.24-.66-.66-.66-1.15v-.75c0-.49.24-.91.67-1.15h0ZM8.7,16.05l7.26-4.17c.43-.24.67-.66.67-1.15,0-.49-.24-.91-.67-1.16l-7.26-4.16c-.44-.25-.94-.24-1.37.03L.63,9.63C.22,9.88,0,10.28,0,10.76c0,.47.23.88.63,1.13l6.71,4.14c.43.26.93.27,1.36.02Z"/>
  </g>
</svg>