<?xml version="1.0" encoding="UTF-8"?>
<svg id="Layer_2" data-name="Layer 2" xmlns="http://www.w3.org/2000/svg" viewBox="0 0 22.06 24.77">
  <defs>
    <style>
      .cls-1 {
        fill: #fff;
        fill-rule: evenodd;
      }
    </style>
  </defs>
  <g id="Layer_1-2" data-name="Layer 1">
    <path class="cls-1" d="M4.76,7.46c1.73-1.73,4.01-2.6,6.28-2.6s4.54.87,6.28,2.6c1.73,1.73,2.6,4.01,2.6,6.28s-.87,4.54-2.6,6.28c-1.73,1.73-4.01,2.6-6.28,2.6s-4.54-.87-6.28-2.6-2.6-4.01-2.6-6.28.87-4.54,2.6-6.28h0ZM8.03,8.36l2.39,5.5c.11.25.35.4.61.4h0s3.84,0,3.84,0v.18c0,.37.3.67.67.67.15,0,.29-.05.4-.14l1.28-.83c.31-.2.4-.61.2-.92-.06-.09-.14-.16-.23-.21l-1.3-.83c-.31-.2-.72-.11-.92.2-.07.11-.1.23-.1.36h0v.18h-3.4l-2.22-5.1c-.15-.34-.54-.49-.87-.34-.34.15-.49.54-.34.87h0ZM11.7,1.97v-.63s.78-.01.78-.01c.37,0,.66-.31.66-.67C13.13.29,12.83,0,12.47,0l-2.88.04c-.37,0-.66.31-.66.67,0,.37.31.66.67.66h.76s.01.63.01.63v.73c-1.46.09-2.91.47-4.26,1.13l-.93-1.54c-.19-.31-.6-.41-.91-.22-.31.19-.41.6-.22.91l.92,1.52c-.61.4-1.19.88-1.73,1.41C1.08,8.09,0,10.92,0,13.74s1.08,5.65,3.23,7.8c2.15,2.15,4.98,3.23,7.8,3.23s5.65-1.08,7.8-3.23c2.15-2.15,3.23-4.98,3.23-7.8s-1.08-5.65-3.23-7.8c-.53-.53-1.1-1-1.7-1.4l.87-1.58c.18-.32.06-.73-.26-.9-.32-.18-.73-.06-.9.26l-.85,1.55c-1.34-.67-2.8-1.06-4.27-1.15l-.02-.76h0ZM11.03,4.04c-2.48,0-4.96.95-6.86,2.84-1.89,1.89-2.84,4.38-2.84,6.86s.95,4.96,2.84,6.86c1.89,1.89,4.38,2.84,6.86,2.84s4.96-.95,6.86-2.84c1.89-1.89,2.84-4.38,2.84-6.86s-.95-4.96-2.84-6.86c-1.89-1.89-4.38-2.84-6.86-2.84Z"/>
  </g>
</svg>