<?xml version="1.0" encoding="UTF-8"?>
<svg id="Layer_2" data-name="Layer 2" xmlns="http://www.w3.org/2000/svg" viewBox="0 0 34.04 22.39">
  <defs>
    <style>
      .cls-1 {
        fill: #fff;
        fill-rule: evenodd;
      }
    </style>
  </defs>
  <g id="Layer_1-2" data-name="Layer 1">
    <path class="cls-1" d="M12.29,1.97l20.89,7.98c.53.2.86.68.86,1.24s-.33,1.04-.86,1.24l-20.89,7.98c-.58.22-1.22.02-1.57-.49-.35-.51-.31-1.18.11-1.64l5.58-6.2c.46-.51.46-1.27,0-1.78l-5.58-6.2c-.42-.46-.46-1.13-.11-1.64.35-.51.99-.71,1.57-.49h0ZM0,0l5.33,10.6c.2.39.2.81,0,1.2L0,22.39l3.98-10.73c.12-.31.12-.61,0-.93L0,0h0ZM9.67,7.38c-.45-.5-1.19-.59-1.74-.21-.55.38-.74,1.1-.44,1.7l.87,1.72c.2.39.2.81,0,1.2l-.87,1.72c-.3.6-.12,1.32.44,1.7s1.29.29,1.74-.21l2.63-2.92c.46-.51.46-1.27,0-1.78l-2.63-2.92Z"/>
  </g>
</svg>