<?xml version="1.0" encoding="UTF-8"?>
<svg id="Layer_2" data-name="Layer 2" xmlns="http://www.w3.org/2000/svg" viewBox="0 0 25.46 25.46">
  <defs>
    <style>
      .cls-1 {
        fill: #fff;
        fill-rule: evenodd;
      }
    </style>
  </defs>
  <g id="Layer_1-2" data-name="Layer 1">
    <path class="cls-1" d="M16.57,3.39l.11.05c.47.19.95.25,1.41.19.47-.07.93-.26,1.34-.59l.43-.35c.27-.21.65-.19.88.05h0s1.98,1.98,1.98,1.98c.26.26.26.68,0,.94l-.3.38c-.32.4-.52.86-.59,1.34-.07.47,0,.97.2,1.44,0,.01.04.11.05.11.2.48.5.87.88,1.16.38.29.84.47,1.36.53l.55.06c.34.04.59.33.59.66v2.8c0,.36-.28.65-.63.67l-.51.06c-.52.06-.98.24-1.36.53-.38.29-.68.68-.88,1.16l-.05.12c-.2.47-.26.96-.19,1.43.07.47.26.93.59,1.34l.34.43c.21.27.19.65-.05.88h0s-1.98,1.98-1.98,1.98c-.26.26-.68.26-.94,0l-.38-.3c-.4-.32-.86-.52-1.34-.59-.47-.07-.97,0-1.44.2l-.11.05c-.48.2-.87.5-1.16.88-.29.38-.47.84-.53,1.36l-.06.55c-.04.34-.33.59-.66.59h-2.8c-.36,0-.65-.28-.67-.63l-.06-.51c-.06-.52-.24-.98-.53-1.36-.29-.38-.68-.68-1.16-.88l-.12-.05c-.47-.2-.96-.26-1.43-.19-.47.07-.93.26-1.34.59l-.43.35c-.27.21-.65.19-.88-.05h0s-1.98-1.98-1.98-1.98c-.26-.26-.26-.68,0-.94l.3-.38c.32-.4.52-.86.59-1.34.07-.47,0-.97-.2-1.44l-.05-.11c-.2-.48-.5-.87-.88-1.16-.38-.29-.84-.47-1.36-.53l-.55-.06C.25,14.76,0,14.47,0,14.13v-2.8c0-.36.28-.65.63-.67l.51-.06c.52-.06.98-.24,1.36-.53.38-.29.68-.68.88-1.16l.06-.14c.19-.47.25-.95.19-1.41-.07-.47-.26-.93-.59-1.34l-.34-.43c-.21-.27-.19-.65.05-.88h0s1.98-1.98,1.98-1.98c.26-.26.68-.26.94,0l.38.3c.4.32.86.52,1.34.59.47.07.97,0,1.44-.2l.11-.05c.48-.2.87-.5,1.16-.88.29-.38.47-.84.53-1.36l.06-.55C10.71.25,11,0,11.33,0h2.8c.36,0,.65.28.67.63l.06.51c.06.52.24.98.53,1.36.29.38.68.68,1.16.88h.03ZM16.4,9.06c-.94-.94-2.24-1.52-3.67-1.52s-2.73.58-3.67,1.52-1.52,2.24-1.52,3.67.58,2.73,1.52,3.67,2.24,1.52,3.67,1.52,2.73-.58,3.67-1.52c.94-.94,1.52-2.24,1.52-3.67s-.58-2.73-1.52-3.67Z"/>
  </g>
</svg>