<?xml version="1.0" encoding="UTF-8"?>
<svg id="Layer_2" data-name="Layer 2" xmlns="http://www.w3.org/2000/svg" viewBox="0 0 75.87 74.57">
  <g id="Layer_1-2" data-name="Layer 1">
    <g>
      <path d="M48.98,74.57H7.06c-2.14,0-4.14-.96-5.49-2.63-1.36-1.7-1.88-3.9-1.4-6.04,2.86-12.95,14.57-22.35,27.85-22.35s24.99,9.4,27.85,22.35c.47,2.14-.04,4.34-1.4,6.04-1.34,1.67-3.34,2.63-5.49,2.63ZM28.02,48.55c-10.95,0-20.61,7.75-22.97,18.43-.14.65,0,1.32.42,1.83.23.28.74.76,1.59.76h41.92c.85,0,1.36-.48,1.59-.76.41-.51.56-1.18.42-1.83-2.36-10.68-12.02-18.43-22.97-18.43Z"/>
      <path d="M28.02,36.77c-10.14,0-18.39-8.25-18.39-18.39S17.88,0,28.02,0s18.39,8.25,18.39,18.39-8.25,18.39-18.39,18.39ZM28.02,5c-7.38,0-13.39,6-13.39,13.39s6,13.39,13.39,13.39,13.39-6,13.39-13.39-6-13.39-13.39-13.39Z"/>
      <path d="M61.39,54.03c-1.26,0-2.52-.48-3.48-1.44l-8.81-8.81c-2.91-2.91-2.91-7.64,0-10.55,2.91-2.91,7.64-2.91,10.55,0l1.74,1.74,1.74-1.74c2.91-2.91,7.64-2.91,10.55,0h0c2.91,2.91,2.91,7.64,0,10.55l-8.81,8.81c-.96.96-2.22,1.44-3.48,1.44ZM54.37,36.04c-.63,0-1.26.24-1.74.72-.96.96-.96,2.52,0,3.48l8.76,8.76,8.76-8.76c.96-.96.96-2.52,0-3.48s-2.52-.96-3.48,0l-3.51,3.51c-.94.94-2.6.94-3.54,0l-3.51-3.51c-.48-.48-1.11-.72-1.74-.72Z"/>
    </g>
  </g>
</svg>