<?xml version="1.0" encoding="UTF-8"?>
<svg id="Layer_2" data-name="Layer 2" xmlns="http://www.w3.org/2000/svg" viewBox="0 0 71.01 46.91">
  <g id="Layer_1-2" data-name="Layer 1">
    <g>
      <path d="M66.27,39.98c-.81,0-1.63-.21-2.37-.64l-14.93-8.62c-.77-.45-1.25-1.27-1.25-2.17v-10.19c0-.89.48-1.72,1.25-2.17l14.93-8.62c1.48-.86,3.25-.86,4.74,0,1.48.86,2.37,2.39,2.37,4.1v23.56c0,1.71-.89,3.25-2.37,4.1-.74.43-1.56.64-2.37.64ZM52.72,27.11l13.29,7.67V12.13l-13.29,7.67v7.31Z"/>
      <path d="M46.96,46.91H8.02c-4.42,0-8.02-3.6-8.02-8.02V8.02C0,3.6,3.6,0,8.02,0h38.94c4.42,0,8.02,3.6,8.02,8.02v30.86c0,4.42-3.6,8.02-8.02,8.02ZM8.02,5c-1.67,0-3.02,1.36-3.02,3.02v30.86c0,1.67,1.36,3.02,3.02,3.02h38.94c1.67,0,3.02-1.36,3.02-3.02V8.02c0-1.67-1.36-3.02-3.02-3.02H8.02Z"/>
    </g>
  </g>
</svg>