<?xml version="1.0" encoding="UTF-8"?>
<svg id="Layer_2" data-name="Layer 2" xmlns="http://www.w3.org/2000/svg" viewBox="0 0 21.77 24.88">
  <defs>
    <style>
      .cls-1 {
        fill: #fff;
        fill-rule: evenodd;
      }
    </style>
  </defs>
  <g id="Layer_1-2" data-name="Layer 1">
    <path class="cls-1" d="M7.56,2.64h6.66c-.05-.33-.21-.62-.44-.85l-.03-.03c-.28-.26-.66-.43-1.07-.43h-3.59c-.43,0-.82.17-1.1.46h0c-.23.23-.38.52-.44.85h0ZM9.56,15.3c.37,0,.67.3.67.67s-.3.67-.67.67h-2.75c-.37,0-.67-.3-.67-.67,0-.14.04-.27.11-.37l1.31-2.27c.18-.32.59-.43.91-.24.32.18.43.59.24.91l-.76,1.32h1.59ZM10.18,11.46c-.18.32-.59.43-.91.24-.32-.18-.43-.59-.24-.91l1.28-2.22c.18-.32.59-.43.91-.24.11.06.19.15.25.25l1.32,2.29c.18.32.07.72-.24.91-.32.18-.72.07-.91-.24l-.75-1.29-.71,1.23h0ZM13.04,13.96c-.18-.32-.08-.72.24-.91.32-.18.72-.08.91.24l1.35,2.34c.18.32.08.72-.24.91-.11.06-.22.09-.33.09h0s-2.76,0-2.76,0c-.37,0-.67-.3-.67-.67s.3-.67.67-.67h1.61l-.77-1.34h0ZM3.08,3.17h3.13v-.28c0-.79.32-1.52.85-2.04h0c.52-.52,1.24-.85,2.04-.85h3.59c.77,0,1.48.31,2,.81l.04.04c.52.52.85,1.24.85,2.04v.28h5.54c.37,0,.67.3.67.67s-.3.67-.67.67h-1.81l-1.94,19.77c-.03.34-.32.6-.66.6h0s-11.62,0-11.62,0c-.36,0-.66-.29-.67-.66L2.48,4.5H.67c-.37,0-.67-.3-.67-.67s.3-.67.67-.67h2.41Z"/>
  </g>
</svg>