<?xml version="1.0" encoding="UTF-8"?>
<svg id="Layer_2" data-name="Layer 2" xmlns="http://www.w3.org/2000/svg" viewBox="0 0 74.55 74.55">
  <g id="Layer_1-2" data-name="Layer 1">
    <g>
      <path d="M32.62,74.55c-.42,0-.84,0-1.26-.02C14.43,73.88.67,60.12.02,43.19-.6,26.64,11.23,12.23,27.56,9.68h0c1.92-.3,3.86.25,5.32,1.5,1.43,1.22,2.25,3.01,2.25,4.89v21.88c0,.81.66,1.47,1.47,1.47h21.88c1.88,0,3.67.82,4.89,2.25,1.25,1.46,1.8,3.4,1.5,5.32-2.48,15.91-16.23,27.56-32.25,27.56ZM28.59,14.6c-.09,0-.17,0-.26.02h0c-13.82,2.16-23.84,14.36-23.31,28.38.54,14.09,12.44,25.99,26.53,26.53,14.05.53,26.22-9.49,28.38-23.31.07-.47-.06-.95-.36-1.3-.2-.23-.54-.5-1.09-.5h-21.88c-3.57,0-6.47-2.9-6.47-6.47v-21.88c0-.58-.31-.93-.5-1.09-.29-.24-.65-.38-1.04-.38ZM27.94,12.15h0,0Z"/>
      <path d="M71.57,31.55h-26.08c-1.38,0-2.5-1.12-2.5-2.5V2.98c0-.96.47-1.86,1.25-2.42.78-.56,1.79-.71,2.69-.39,12.8,4.39,23.06,14.65,27.45,27.45.31.9.16,1.91-.39,2.69-.56.78-1.46,1.25-2.42,1.25ZM69.66,29.23s0,0,0,0c0,0,0,0,0,0ZM47.99,26.55h20.63c-3.95-9.22-11.42-16.68-20.63-20.63v20.63Z"/>
    </g>
  </g>
</svg>