<?xml version="1.0" encoding="UTF-8"?>
<svg id="Layer_2" data-name="Layer 2" xmlns="http://www.w3.org/2000/svg" viewBox="0 0 27.42 22.8">
  <defs>
    <style>
      .cls-1 {
        fill: #fff;
        fill-rule: evenodd;
      }
    </style>
  </defs>
  <g id="Layer_1-2" data-name="Layer 1">
    <path class="cls-1" d="M.34,8.53L13.43.11c.24-.15.53-.13.75.02l12.93,8.43c.2.13.3.34.3.56h0v2.57c0,.37-.3.67-.67.67-.15,0-.29-.05-.4-.13l-12.57-7.9L1.02,12.25c-.31.19-.72.1-.91-.22-.07-.11-.1-.23-.1-.35h0v-2.57c0-.25.14-.47.34-.58H.34ZM5.02,15.22v4.03c0,.37.3.67.67.67h6.8c.37,0,.67-.3.67-.67v-4.03c0-.37-.3-.67-.67-.67h-6.8c-.37,0-.67.3-.67.67h0ZM14.26,15.22v4.03c0,.37.3.67.67.67h6.8c.37,0,.67-.3.67-.67v-4.03c0-.37-.3-.67-.67-.67h-6.8c-.37,0-.67.3-.67.67h0ZM3.03,11.8c-.22.11-.37.34-.37.6v9.73c0,.37.3.67.67.67h20.76c.37,0,.67-.3.67-.67v-9.73c0-.22-.11-.44-.31-.56l-10.22-6.49h0c-.21-.13-.48-.14-.7,0L3.03,11.8Z"/>
  </g>
</svg>