<?xml version="1.0" encoding="UTF-8"?>
<svg id="Layer_2" data-name="Layer 2" xmlns="http://www.w3.org/2000/svg" viewBox="0 0 27.99 25.32">
  <defs>
    <style>
      .cls-1 {
        fill: #fff;
        fill-rule: evenodd;
      }
    </style>
  </defs>
  <g id="Layer_1-2" data-name="Layer 1">
    <path class="cls-1" d="M4.93,13.26H.67c-.37,0-.67-.3-.67-.67,0-.21.1-.4.25-.52L13.48.17c.25-.23.64-.23.89,0l13.4,11.93c.27.24.3.67.05.94-.13.15-.31.22-.5.22h-4.27v11.4c0,.37-.3.67-.67.67H5.6c-.37,0-.67-.3-.67-.67v-11.4h0ZM13.11,12.44c.37,0,.67-.3.67-.67v-3.18c0-.37-.3-.67-.67-.67h-3.18c-.37,0-.67.3-.67.67v3.18c0,.37.3.67.67.67h3.18ZM13.77,13.55c0-.37-.3-.67-.67-.67h-3.18c-.37,0-.67.3-.67.67v3.18c0,.37.3.67.67.67h3.18c.37,0,.67-.3.67-.67v-3.18h0ZM14.88,12.88c-.37,0-.67.3-.67.67v3.18c0,.37.3.67.67.67h3.18c.37,0,.67-.3.67-.67v-3.18c0-.37-.3-.67-.67-.67h-3.18ZM14.88,12.44h3.18c.37,0,.67-.3.67-.67v-3.18c0-.37-.3-.67-.67-.67h-3.18c-.37,0-.67.3-.67.67v3.18c0,.37.3.67.67.67Z"/>
  </g>
</svg>