<?xml version="1.0" encoding="UTF-8"?>
<svg id="Layer_2" data-name="Layer 2" xmlns="http://www.w3.org/2000/svg" viewBox="0 0 160.61 160.61">
  <defs>
    <style>
      .cls-1 {
        fill: #080a16;
      }
    </style>
  </defs>
  <g id="Calque_1" data-name="Calque 1">
    <g>
      <path class="cls-1" d="M31.75,31.75H0C0,14.22,14.22,0,31.75,0h0v31.75Z"/>
      <path class="cls-1" d="M160.61,160.61h-31.75c0-17.54,14.22-31.75,31.75-31.75h0v31.75Z"/>
      <path class="cls-1" d="M160.61,96.18h-31.75c0-17.54,14.22-31.75,31.75-31.75h0v31.75Z"/>
      <path class="cls-1" d="M96.18,96.18h-31.75c0-17.54,14.22-31.75,31.75-31.75h0v31.75Z"/>
      <path class="cls-1" d="M31.75,96.18H0c0-17.54,14.22-31.75,31.75-31.75h0v31.75Z"/>
      <path class="cls-1" d="M96.18,31.75h-31.75c0-17.54,14.22-31.75,31.75-31.75h0v31.75Z"/>
      <path class="cls-1" d="M160.61,31.75h-31.75c0-17.54,14.22-31.75,31.75-31.75h0v31.75Z"/>
      <path class="cls-1" d="M96.18,160.61h-31.75c0-17.54,14.22-31.75,31.75-31.75h0v31.75Z"/>
      <path class="cls-1" d="M31.75,160.61H0c0-17.54,14.22-31.75,31.75-31.75h0v31.75Z"/>
    </g>
  </g>
</svg>