<?xml version="1.0" encoding="UTF-8"?>
<svg id="Layer_2" data-name="Layer 2" xmlns="http://www.w3.org/2000/svg" viewBox="0 0 30 19.54">
  <defs>
    <style>
      .cls-1 {
        fill: #fff;
        fill-rule: evenodd;
      }
    </style>
  </defs>
  <g id="Layer_1-2" data-name="Layer 1">
    <path class="cls-1" d="M8.94,8.58h0c.17,0,.35,0,.53.03h.02c.54-1.02,1.33-1.88,2.29-2.51,1.07-.7,2.35-1.1,3.72-1.1,1.69,0,3.24.62,4.43,1.64,1.09.94,1.89,2.22,2.21,3.67.95.23,1.79.76,2.42,1.47.72.83,1.16,1.9,1.16,3.07,0,1.29-.53,2.46-1.38,3.31-.85.85-2.03,1.37-3.32,1.37h0c-.73,0-5.04,0-8.39,0-1.88,0-3.46,0-3.92-.01-1.44-.02-2.75-.66-3.69-1.65-.97-1.01-1.57-2.38-1.57-3.82,0-1.51.62-2.88,1.61-3.87.99-.99,2.36-1.61,3.87-1.61h0ZM4.8,9.53c.52-.48,1.13-.87,1.8-1.15.73-.3,1.52-.47,2.35-.47h.19c.25-.41.54-.79.87-1.15.24-.26.49-.5.76-.73h0s0,0,0,0h0s0-.01,0-.01h0s0,0,0,0h0s0-.01,0-.01h0s0,0,0,0h0s0-.01,0-.01h0s0,0,0,0h0s0-.01,0-.01h0s0,0,0,0h0s0-.01,0-.01h0s0,0,0,0h0s0-.01,0-.01h0s0,0,0,0h0s0-.01,0-.01h0s0,0,0,0h0s0,0,0,0h0s0-.01,0-.01h0s0,0,0,0h0s0-.01,0-.01h0s0,0,0,0h0s0-.01,0-.01h0s0,0,0,0h0s0-.01,0-.01h0s0,0,0,0h0s0-.01,0-.01h0s0,0,0,0h0s0-.01,0-.01h0s0,0,0,0h0s0-.01,0-.01h0s0,0,0,0h.02s0-.01,0-.01h.02s0-.02,0-.02h0s0,0,0,0h0s0,0,0,0h0s0,0,0,0h0s0,0,0,0h0s0,0,0,0h.01s0-.01,0-.01h0s0-.01,0-.01h0s0,0,0,0h0s0-.01,0-.01h0s0,0,0,0c-.21-.34-.47-.65-.76-.92-.73-.66-1.7-1.06-2.76-1.06-1.14,0-2.17.46-2.91,1.21-.75.75-1.21,1.78-1.21,2.91,0,.65.15,1.27.43,1.83.07.14.15.28.24.42h0s0,0,0,0h0s0,0,0,0h0s0,0,0,0h0s0,0,0,0h0s0,0,0,0h0s0,0,0,0h0s0,0,0,0h0s0-.01,0-.01h0s0,0,0,0h0s0,0,0,0h0s0-.01,0-.01h0s0,0,0,0h0s0,0,0,0h0s0,0,0,0h0s0,0,0,0h0s0,0,0,0h0s0,0,0,0h0s0,0,0,0h0s0,0,0,0h0s0,0,0,0h0s0,0,0,0h0s0,0,0,0h0s0,0,0,0h0s0,0,0,0h0s0,0,0,0h0s0,0,0,0h0s0,0,0,0h0s0,0,0,0h0s0,0,0,0h0s0,0,0,0h0s0,0,0,0h0s0,0,0,0h0s0,0,0,0h0s0,0,0,0h0s0,0,0,0h0s0,0,0,0h0s0,0,0,0h0s0,0,0,0h0s0,0,0,0h0s0,0,0,0h0s0,0,0,0h0s0,0,0,0h0s0,0,0,0h0s0,0,0,0h0s0,0,0,0h0s0,0,0,0h0s0,0,0,0h0s0,0,0,0h0s0,0,0,0h0s0,0,0,0h0s0,0,0,0h0s0,0,0,0h0s0,0,0,0h0s0,0,0,0h0s0,0,0,0h0s0,0,0,0h0s0,0,0,0h0s0,0,0,0h0s0,0,0,0h0s0,0,0,0h0s0,0,0,0h0s0,0,0,0h0s0,0,0,0h0s0,0,0,0h0s0,0,0,0h0s0,0,0,0h0s0,0,0,0h0s0,0,0,0h0s0,0,0,0h0s0,0,0,0h0s0,0,0,0h0ZM12.32,2.28c.26-.26.68-.26.94,0,.26.26.26.68,0,.94l-1.4,1.4c-.26.26-.68.26-.94,0-.26-.26-.26-.68,0-.94l1.4-1.4h0ZM2.82,13.46h0s0-.03,0-.03v-.03s0-.03,0-.03h0s0-.03,0-.03h0s0-.03,0-.03v-.02s0-.01,0-.01v-.03s0,0,0,0v-.03s0,0,0,0v-.02s0-.02,0-.02h0s0-.04,0-.04v-.03s0,0,0,0v-.02s0-.02,0-.02h0s0-.04,0-.04h0s0-.03,0-.03h0s0-.03,0-.03v-.02s0-.01,0-.01v-.02s0,0,0,0v-.03s0,0,0,0v-.02s0-.02,0-.02h0s0-.04,0-.04h0s0-.03,0-.03h0s0-.03,0-.03h0s0-.03,0-.03v-.02s0,0,0,0v-.03s0,0,0,0v-.02s0-.01,0-.01h0s0-.04,0-.04h0s0-.03,0-.03h0s0-.03,0-.03h0s0-.03,0-.03v-.02s0,0,0,0v-.03s0,0,0,0v-.02s0-.01,0-.01h0s0-.04,0-.04h0s0-.03,0-.03h0s0-.03,0-.03h0s0-.03,0-.03v-.02s0,0,0,0v-.03s0,0,0,0v-.02s.01-.01.01-.01v-.02s.01-.02.01-.02h0s0-.03,0-.03h0s0-.03,0-.03h0s0-.03,0-.03v-.02s0,0,0,0v-.03s0,0,0,0v-.02s.01-.01.01-.01v-.02s.01-.02.01-.02h0s0-.03,0-.03h0s0-.03,0-.03h0s0-.03,0-.03v-.02s.01,0,.01,0v-.03s.01,0,.01,0v-.03s.01,0,.01,0v-.02s.01-.02.01-.02h0s.01-.03.01-.03h0s0-.02,0-.02h0s0-.01,0-.01h0s0-.02,0-.02h0s0-.01,0-.01h0s0-.02,0-.02h0s0-.01,0-.01h0s0-.02,0-.02h0s0-.01,0-.01h0s0-.02,0-.02h0s0-.01,0-.01h0s0-.02,0-.02h0s0-.01,0-.01h0s0-.02,0-.02h0s0-.01,0-.01h0s0-.02,0-.02h0s0-.01,0-.01h0s0-.02,0-.02h0s0-.02,0-.02h0s0-.01,0-.01h0s0-.02,0-.02h0s0-.01,0-.01h0s0-.02,0-.02h0s0-.01,0-.01h0s0-.02,0-.02h0s0-.01,0-.01h0s0-.02,0-.02h0s0-.01,0-.01h0s0-.02,0-.02h0s0-.01,0-.01h0s0-.02,0-.02h0s0-.01,0-.01h0s0-.02,0-.02h0s0-.01,0-.01h0s0-.02,0-.02h0s0-.02,0-.02h0s0-.01,0-.01h0s0-.02,0-.02h0s0-.01,0-.01h0s0-.02,0-.02h0s0-.01,0-.01h0s0-.02,0-.02h0s0-.01,0-.01l-1.36,1.36c-.26.26-.26.68,0,.94.15.15.35.21.55.19h0ZM.67,8.44c-.37,0-.67-.3-.67-.67s.3-.67.67-.67h1.98c.37,0,.67.3.67.67s-.3.67-.67.67H.67ZM2.28,3.22c-.26-.26-.26-.68,0-.94.26-.26.68-.26.94,0l1.4,1.4c.26.26.26.68,0,.94-.26.26-.68.26-.94,0l-1.4-1.4h0ZM7.1.67c0-.37.3-.67.67-.67s.67.3.67.67v1.98c0,.37-.3.67-.67.67s-.67-.3-.67-.67V.67h0ZM18.85,5.12c.55.28,1.06.62,1.52,1.01.61.52,1.13,1.14,1.54,1.82.34.56.6,1.17.79,1.82.39.13.77.3,1.11.51.47.29.89.64,1.25,1.05.42.48.76,1.03.98,1.64.22.59.34,1.22.34,1.87,0,.22-.01.44-.04.66.99-.03,1.89-.44,2.54-1.09.68-.68,1.1-1.61,1.1-2.64,0-.94-.35-1.8-.93-2.45-.48-.55-1.11-.95-1.83-1.15-.27-1.11-.88-2.08-1.72-2.8-.94-.81-2.16-1.29-3.49-1.29-.8,0-1.57.18-2.25.5-.33.15-.64.33-.92.55Z"/>
  </g>
</svg>