<?xml version="1.0" encoding="UTF-8"?>
<svg id="Layer_2" data-name="Layer 2" xmlns="http://www.w3.org/2000/svg" viewBox="0 0 23.41 30.5">
  <defs>
    <style>
      .cls-1 {
        fill: #fff;
        fill-rule: evenodd;
      }
    </style>
  </defs>
  <g id="Layer_1-2" data-name="Layer 1">
    <path class="cls-1" d="M15.61,15.45l-3.94,14.71c-.07.25-.32.4-.57.33l-7.15-1.92c-.25-.07-.4-.32-.33-.57l3.94-14.71L.34,11.36c-.1-.03-.19-.09-.26-.18-.15-.21-.1-.5.11-.65L15.04.09s.05-.03.08-.04c.23-.11.51,0,.62.23l7.62,16.44c.05.1.07.22.04.34-.07.25-.32.4-.57.33l-7.21-1.93Z"/>
  </g>
</svg>