<?xml version="1.0" encoding="UTF-8"?>
<svg id="Layer_2" data-name="Layer 2" xmlns="http://www.w3.org/2000/svg" viewBox="0 0 23.78 23.78">
  <defs>
    <style>
      .cls-1 {
        fill: #fff;
        fill-rule: evenodd;
      }
    </style>
  </defs>
  <g id="Layer_1-2" data-name="Layer 1">
    <path class="cls-1" d="M11.89,0c3.28,0,6.26,1.33,8.41,3.48,2.15,2.15,3.48,5.12,3.48,8.41s-1.33,6.26-3.48,8.41c-2.15,2.15-5.12,3.48-8.41,3.48s-6.26-1.33-8.41-3.48C1.33,18.14,0,15.17,0,11.89S1.33,5.63,3.48,3.48C5.63,1.33,8.61,0,11.89,0h0ZM12.54,3.94c-.05-.25-.24-.46-.51-.52-.36-.08-.71.15-.79.51l-1.2,5.47-5.57-.54c-.25-.02-.5.1-.64.33-.19.32-.08.72.24.91l4.83,2.83-2.24,5.13c-.1.23-.07.51.11.71.24.27.66.3.94.06l4.19-3.72,4.17,3.7c.19.18.47.24.73.13.34-.15.49-.54.34-.87l-2.24-5.13,4.81-2.82c.23-.12.37-.37.34-.65-.03-.36-.36-.63-.72-.6l-5.57.54-1.2-5.46Z"/>
  </g>
</svg>