<?xml version="1.0" encoding="UTF-8"?>
<svg id="Layer_2" data-name="Layer 2" xmlns="http://www.w3.org/2000/svg" viewBox="0 0 31.47 19.75">
  <defs>
    <style>
      .cls-1 {
        fill: #fff;
        fill-rule: evenodd;
      }
    </style>
  </defs>
  <g id="Layer_1-2" data-name="Layer 1">
    <path class="cls-1" d="M8.19,0h15.08c1.04,0,1.98.43,2.67,1.11.68.68,1.11,1.63,1.11,2.67v1.62c-.12.03-.23.07-.34.12-.36.15-.69.37-.97.65,0,0,0,0,0,0-.27.28-.5.6-.65.97-.15.35-.23.74-.23,1.14v.63h-7.61c-.36,0-.71.06-1.03.17-.15.05-.3.11-.44.19-.21-.04-.32-.1-.51-.17-.33-.12-.7-.18-1.07-.18h-7.61v-.63c0-.4-.08-.78-.23-1.14-.15-.36-.37-.69-.65-.97,0,0,0,0,0,0-.28-.27-.6-.5-.97-.65-.11-.05-.23-.09-.34-.12v-1.62c0-1.04.43-1.98,1.11-2.67.69-.69,1.63-1.11,2.67-1.11h0ZM5.15,9.63h9.06c.42,0,.82.11,1.16.29v3.73H5.15c-.4,0-.73-.33-.73-.73v-2.56c0-.4.33-.73.73-.73h0ZM17.26,9.63h9.06c.4,0,.73.33.73.73v2.56c0,.4-.33.73-.73.73h-10.22v-3.73c.34-.18.74-.29,1.16-.29h0ZM2.25,6.02c-.33,0-.65.07-.94.2-.29.13-.55.33-.77.59-.22.26-.37.54-.46.85-.09.3-.1.63-.05.96l1.24,7.89c.03.38.34.68.73.68h1.61s25.13,0,25.13,0h.73c.35,0,.66-.26.72-.62l1.25-7.95c.05-.33.03-.66-.05-.96-.09-.31-.24-.59-.46-.85-.22-.26-.48-.45-.77-.59-.29-.13-.61-.2-.94-.2h-1.37c-.62,0-1.18.25-1.59.66h0c-.41.41-.66.98-.66,1.59v.63h.77s0,0,0,0h.01s0,0,0,0h0s.01,0,.01,0h.01s0,0,0,0h0s.01,0,.01,0h.01s0,0,0,0h0s.01,0,.01,0h0s.01,0,.01,0h0s0,0,0,0h.01s0,0,0,0h.01s0,0,0,0h0s.01,0,.01,0h0s.01,0,.01,0h0s0,0,0,0h.01s0,0,0,0h0s0,0,0,0h0s.01,0,.01,0h0s0,0,0,0h0s0,0,0,0h.01s0,0,0,0h0s0,0,0,0h0s.01,0,.01,0h0s0,0,0,0h0s0,0,0,0h.01s0,0,0,0h0s0,0,0,0h0s.01,0,.01,0h0s0,0,0,0h0s0,0,0,0h.01s0,0,0,0h0s0,0,0,0h0s.01,0,.01,0h0s0,0,0,0h0s0,0,0,0h.01s0,0,0,0h0s0,0,0,0h0s.01,0,.01,0h0s0,0,0,0h0s0,0,0,0h.01s0,0,0,0h0s0,0,0,0h0s.01,0,.01,0h0s0,0,0,0h0s0,0,0,0h.01s0,0,0,0h0s0,0,0,0h0s.01,0,.01,0h0s0,0,0,0h0s0,0,0,0h.01s0,0,0,0h0c.11.07.21.15.3.23h0c.26.26.43.63.43,1.03v2.56c0,.4-.16.76-.43,1.03h0c-.27.27-.63.43-1.03.43H5.15c-.4,0-.77-.16-1.03-.43h0c-.26-.27-.43-.63-.43-1.03v-2.56c0-.4.16-.77.43-1.03.09-.09.19-.17.3-.23h0s0,0,0,0h0s0,0,0,0h0s0,0,0,0h0s0,0,0,0h0s.01,0,.01,0h0s0,0,0,0h0s0,0,0,0h.01s0,0,0,0h0s.01,0,.01,0h0s.01,0,.01,0h0s0,0,0,0h.01s0,0,0,0h.01s0,0,0,0h0s.01,0,.01,0h.01s0,0,0,0h0s.01,0,.01,0h0s.01,0,.01,0h0s0,0,0,0h.01s0,0,0,0h.01s0,0,0,0h0s.01,0,.01,0h0s.01,0,.01,0h0s0,0,0,0h.01s0,0,0,0h0s0,0,0,0h0s.01,0,.01,0h0s0,0,0,0h0s0,0,0,0h.01s0,0,0,0h0s0,0,0,0h0s.01,0,.01,0h0s0,0,0,0h0s0,0,0,0h.01s0,0,0,0h0s0,0,0,0h0s.01,0,.01,0h0s0,0,0,0h0s0,0,0,0h.01s0,0,0,0h0s.01,0,.01,0h0s.01,0,.01,0h0s0,0,0,0h.01s0,0,0,0h.01s0,0,0,0h0s.01,0,.01,0h.01s0,0,0,0h0s.01,0,.01,0h.01s0,0,0,0h.02s0,0,0,0h.01s0,0,0,0h.75v-.63c0-.62-.25-1.18-.66-1.59h0c-.41-.41-.97-.67-1.59-.67h-1.37ZM27.21,17.48v1.54c0,.4-.33.73-.73.73h-1.52c-.4,0-.73-.33-.73-.73v-1.54h2.98ZM7.4,17.48v1.54c0,.4-.33.73-.73.73h-1.52c-.4,0-.73-.33-.73-.73v-1.54h2.98Z"/>
  </g>
</svg>