<?xml version="1.0" encoding="UTF-8"?>
<svg id="Layer_2" data-name="Layer 2" xmlns="http://www.w3.org/2000/svg" viewBox="0 0 21.43 24.91">
  <defs>
    <style>
      .cls-1 {
        fill: #fff;
        fill-rule: evenodd;
      }
    </style>
  </defs>
  <g id="Layer_1-2" data-name="Layer 1">
    <path class="cls-1" d="M19.89,7.32H1.55c-.43,0-.81-.17-1.09-.45H.45c-.28-.28-.45-.67-.45-1.09v-.38c0-.87.36-1.67.93-2.24h0c.58-.58,1.37-.94,2.24-.94h3.78v-.56c0-.46.19-.87.49-1.17h0c.3-.3.72-.49,1.17-.49h4.2c.46,0,.87.19,1.17.49h0c.3.3.49.72.49,1.17v.56h3.78c.87,0,1.67.36,2.24.93h0c.58.58.93,1.37.93,2.25v.38c0,.42-.17.81-.45,1.09h0c-.28.28-.67.46-1.09.46h0ZM20.03,7.99l-1.74,15.08c-.06.5-.28.97-.61,1.3-.34.34-.78.55-1.31.55H5.06c-.52,0-.97-.21-1.3-.55h0c-.33-.33-.55-.8-.61-1.3L1.41,7.99s.09,0,.14,0h18.34s.09,0,.14,0Z"/>
  </g>
</svg>