<?xml version="1.0" encoding="UTF-8"?>
<svg id="Layer_2" data-name="Layer 2" xmlns="http://www.w3.org/2000/svg" viewBox="0 0 79.37 57.39">
  <g id="Layer_1-2" data-name="Layer 1">
    <g>
      <path d="M39.68,43.77c-8.31,0-15.08-6.76-15.08-15.08s6.76-15.08,15.08-15.08,15.08,6.76,15.08,15.08-6.76,15.08-15.08,15.08ZM39.68,18.62c-5.56,0-10.08,4.52-10.08,10.08s4.52,10.08,10.08,10.08,10.08-4.52,10.08-10.08-4.52-10.08-10.08-10.08Z"/>
      <path d="M39.68,57.09s0,0,0,0c-14.96,0-28.93-9.63-39.33-27.12-.47-.79-.47-1.77,0-2.56C10.75,9.93,24.72.3,39.68.3s28.93,9.63,39.33,27.11c.47.79.47,1.77,0,2.56-10.4,17.48-24.37,27.12-39.33,27.12ZM5.42,28.7c9.36,15.1,21.49,23.39,34.26,23.39s24.9-8.29,34.26-23.39c-9.36-15.1-21.49-23.39-34.26-23.39S14.79,13.6,5.42,28.7Z"/>
      <path d="M13.49,57.39c-.64,0-1.28-.24-1.77-.73-.98-.98-.98-2.56,0-3.54L64.11.73c.98-.98,2.56-.98,3.54,0,.98.98.98,2.56,0,3.54L15.26,56.66c-.49.49-1.13.73-1.77.73Z"/>
    </g>
  </g>
</svg>