<?xml version="1.0" encoding="UTF-8"?>
<svg id="Layer_2" data-name="Layer 2" xmlns="http://www.w3.org/2000/svg" viewBox="0 0 160.47 160.47">
  <defs>
    <style>
      .cls-1 {
        fill: #080a16;
      }
    </style>
  </defs>
  <g id="Calque_1" data-name="Calque 1">
    <g>
      <path class="cls-1" d="M80.23,79.57c0-14.48,26.22-34.15,26.22-53.36,0-14.48-11.73-26.21-26.21-26.21h-.14c-14.42.08-26.07,11.78-26.07,26.21,0,18.38,24.01,37.19,26.07,51.47.09.64.14,1.27.14,1.89Z"/>
      <path class="cls-1" d="M80.09,82.79c-2.06,14.27-26.07,33.08-26.07,51.47,0,14.43,11.65,26.14,26.07,26.21h.15c14.48,0,26.21-11.74,26.21-26.21,0-19.21-26.21-38.89-26.22-53.36,0,.62-.05,1.25-.14,1.89Z"/>
      <path class="cls-1" d="M134.26,54.02c-18.38,0-37.19,24.01-51.47,26.07-.64.1-1.27.14-1.89.14,14.48,0,34.16,26.22,53.36,26.22,14.48,0,26.21-11.73,26.21-26.22v-.14c-.08-14.42-11.78-26.07-26.21-26.07Z"/>
      <path class="cls-1" d="M77.68,80.09c-14.27-2.06-33.09-26.07-51.47-26.07C11.78,54.02.08,65.68,0,80.09v.14c0,14.48,11.74,26.21,26.21,26.21,19.21,0,38.89-26.21,53.37-26.21-.63,0-1.26-.05-1.89-.14Z"/>
    </g>
  </g>
</svg>