<?xml version="1.0" encoding="UTF-8"?>
<svg id="Layer_2" data-name="Layer 2" xmlns="http://www.w3.org/2000/svg" viewBox="0 0 62.79 70.27">
  <g id="Layer_1-2" data-name="Layer 1">
    <g>
      <path d="M60.29,14.93h-22.19c-1.38,0-2.5-1.12-2.5-2.5s1.12-2.5,2.5-2.5h22.19c1.38,0,2.5,1.12,2.5,2.5s-1.12,2.5-2.5,2.5Z"/>
      <path d="M10.89,21.79c-.64,0-1.28-.24-1.77-.73L.73,12.66c-.98-.98-.98-2.56,0-3.54.98-.98,2.56-.98,3.54,0l6.63,6.63L25.91.73c.98-.98,2.56-.98,3.54,0,.98.98.98,2.56,0,3.54L12.66,21.05c-.49.49-1.13.73-1.77.73Z"/>
      <path d="M60.29,39.16h-22.19c-1.38,0-2.5-1.12-2.5-2.5s1.12-2.5,2.5-2.5h22.19c1.38,0,2.5,1.12,2.5,2.5s-1.12,2.5-2.5,2.5Z"/>
      <path d="M10.89,46.03c-.64,0-1.28-.24-1.77-.73L.73,36.9c-.98-.98-.98-2.56,0-3.54.98-.98,2.56-.98,3.54,0l6.63,6.63,15.02-15.02c.98-.98,2.56-.98,3.54,0,.98.98.98,2.56,0,3.54l-16.79,16.79c-.49.49-1.13.73-1.77.73Z"/>
      <path d="M60.29,63.4h-22.19c-1.38,0-2.5-1.12-2.5-2.5s1.12-2.5,2.5-2.5h22.19c1.38,0,2.5,1.12,2.5,2.5s-1.12,2.5-2.5,2.5Z"/>
      <path d="M10.89,70.27c-.64,0-1.28-.24-1.77-.73L.73,61.14c-.98-.98-.98-2.56,0-3.54.98-.98,2.56-.98,3.54,0l6.63,6.63,15.02-15.02c.98-.98,2.56-.98,3.54,0,.98.98.98,2.56,0,3.54l-16.79,16.79c-.49.49-1.13.73-1.77.73Z"/>
    </g>
  </g>
</svg>