<?xml version="1.0" encoding="UTF-8"?>
<svg id="Layer_2" data-name="Layer 2" xmlns="http://www.w3.org/2000/svg" viewBox="0 0 74.36 74.36">
  <g id="Layer_1-2" data-name="Layer 1">
    <g>
      <path d="M25.97,30.87H4.9c-2.7,0-4.9-2.2-4.9-4.9V4.9C0,2.2,2.2,0,4.9,0h21.06c2.7,0,4.9,2.2,4.9,4.9v21.06c0,2.7-2.2,4.9-4.9,4.9ZM5,25.87h20.87V5H5v20.87Z"/>
      <path d="M69.45,30.87h-21.06c-2.7,0-4.9-2.2-4.9-4.9V4.9c0-2.7,2.2-4.9,4.9-4.9h21.06c2.7,0,4.9,2.2,4.9,4.9v21.06c0,2.7-2.2,4.9-4.9,4.9ZM48.49,25.87h20.87V5h-20.87v20.87Z"/>
      <path d="M25.97,74.36H4.9c-2.7,0-4.9-2.2-4.9-4.9v-21.06c0-2.7,2.2-4.9,4.9-4.9h21.06c2.7,0,4.9,2.2,4.9,4.9v21.06c0,2.7-2.2,4.9-4.9,4.9ZM5,69.36h20.87v-20.87H5v20.87Z"/>
      <path d="M69.45,74.36h-21.06c-2.7,0-4.9-2.2-4.9-4.9v-21.06c0-2.7,2.2-4.9,4.9-4.9h21.06c2.7,0,4.9,2.2,4.9,4.9v21.06c0,2.7-2.2,4.9-4.9,4.9ZM48.49,69.36h20.87v-20.87h-20.87v20.87Z"/>
    </g>
  </g>
</svg>