<?xml version="1.0" encoding="UTF-8"?>
<svg id="Layer_2" data-name="Layer 2" xmlns="http://www.w3.org/2000/svg" viewBox="0 0 33.22 22.48">
  <defs>
    <style>
      .cls-1 {
        fill: #fff;
        fill-rule: evenodd;
      }
    </style>
  </defs>
  <g id="Layer_1-2" data-name="Layer 1">
    <path class="cls-1" d="M21.98,10.12c-.62,0-1.11.5-1.11,1.11s.5,1.11,1.11,1.11,1.11-.5,1.11-1.11-.5-1.11-1.11-1.11h0ZM32.11,10.12c-.62,0-1.11.5-1.11,1.11s.5,1.11,1.11,1.11,1.11-.5,1.11-1.11-.5-1.11-1.11-1.11h0ZM27.62,7.86c0,.62.5,1.11,1.11,1.11s1.11-.5,1.11-1.11-.5-1.11-1.11-1.11-1.11.5-1.11,1.11h0ZM27.62,11.24c0,.62.5,1.11,1.11,1.11s1.11-.5,1.11-1.11-.5-1.11-1.11-1.11-1.11.5-1.11,1.11h0ZM27.62,14.61c0,.62.5,1.11,1.11,1.11s1.11-.5,1.11-1.11-.5-1.11-1.11-1.11-1.11.5-1.11,1.11h0ZM26.47,17.99c0-.62-.5-1.11-1.11-1.11s-1.11.5-1.11,1.11.5,1.11,1.11,1.11,1.11-.5,1.11-1.11h0ZM26.47,11.24c0-.62-.5-1.11-1.11-1.11s-1.11.5-1.11,1.11.5,1.11,1.11,1.11,1.11-.5,1.11-1.11h0ZM24.24,4.49c0,.62.5,1.11,1.11,1.11s1.11-.5,1.11-1.11-.5-1.11-1.11-1.11-1.11.5-1.11,1.11h0ZM1.11,10.12c-.62,0-1.11.5-1.11,1.11s.5,1.11,1.11,1.11,1.11-.5,1.11-1.11-.5-1.11-1.11-1.11h0ZM4.64,10.12c-.62,0-1.11.5-1.11,1.11s.5,1.11,1.11,1.11,1.11-.5,1.11-1.11-.5-1.11-1.11-1.11h0ZM8.17,10.12c-.62,0-1.11.5-1.11,1.11s.5,1.11,1.11,1.11,1.11-.5,1.11-1.11-.5-1.11-1.11-1.11h0ZM11.7,10.12c-.62,0-1.11.5-1.11,1.11s.5,1.11,1.11,1.11,1.11-.5,1.11-1.11-.5-1.11-1.11-1.11h0ZM15.23,10.12c-.62,0-1.11.5-1.11,1.11s.5,1.11,1.11,1.11,1.11-.5,1.11-1.11-.5-1.11-1.11-1.11h0ZM18.61,10.12c-.62,0-1.11.5-1.11,1.11s.5,1.11,1.11,1.11,1.11-.5,1.11-1.11-.5-1.11-1.11-1.11h0ZM21.98,2.23c.62,0,1.11-.5,1.11-1.11s-.5-1.11-1.11-1.11-1.11.5-1.11,1.11.5,1.11,1.11,1.11h0ZM23.1,21.36c0-.62-.5-1.11-1.11-1.11s-1.11.5-1.11,1.11.5,1.11,1.11,1.11,1.11-.5,1.11-1.11Z"/>
  </g>
</svg>