<?xml version="1.0" encoding="UTF-8"?>
<svg id="Layer_2" data-name="Layer 2" xmlns="http://www.w3.org/2000/svg" viewBox="0 0 16.77 15.53">
  <defs>
    <style>
      .cls-1 {
        fill: #fff;
        fill-rule: evenodd;
      }
    </style>
  </defs>
  <g id="Layer_1-2" data-name="Layer 1">
    <path class="cls-1" d="M2.19,15.22l7.7-6.43c.31-.26.48-.61.48-1.02s-.16-.76-.48-1.02L2.19.31C1.78-.03,1.25-.09.77.13.29.35,0,.81,0,1.34v12.86c0,.53.29.98.77,1.21.48.22,1.01.16,1.42-.18h0ZM13.43,8.07c.02-.1.03-.2.03-.3s-.01-.21-.03-.3c-.13-.57.11-1.12.61-1.43.5-.3,1.1-.26,1.55.12l.71.59c.31.26.48.61.48,1.02s-.16.76-.48,1.02l-.71.59c-.45.37-1.05.42-1.55.12-.5-.3-.73-.86-.61-1.43Z"/>
  </g>
</svg>