<?xml version="1.0" encoding="UTF-8"?>
<svg id="Layer_2" data-name="Layer 2" xmlns="http://www.w3.org/2000/svg" viewBox="0 0 30.64 27.72">
  <defs>
    <style>
      .cls-1 {
        fill: #fff;
        fill-rule: evenodd;
      }
    </style>
  </defs>
  <g id="Layer_1-2" data-name="Layer 1">
    <path class="cls-1" d="M4.38,14.51H.73c-.4,0-.73-.33-.73-.73,0-.23.11-.43.27-.57L14.75.19c.28-.25.7-.25.97,0l14.67,13.05c.3.27.33.73.06,1.03-.14.16-.34.24-.54.24h-3.65v12.48c0,.4-.33.73-.73.73h-6.15c-.4,0-.73-.33-.73-.73v-8.02h-6.98v8.02c0,.4-.33.73-.73.73h-5.84c-.4,0-.73-.33-.73-.73v-12.48Z"/>
  </g>
</svg>