<?xml version="1.0" encoding="UTF-8"?>
<svg id="Layer_2" data-name="Layer 2" xmlns="http://www.w3.org/2000/svg" viewBox="0 0 24.49 24.49">
  <defs>
    <style>
      .cls-1 {
        fill: #fff;
        fill-rule: evenodd;
      }
    </style>
  </defs>
  <g id="Layer_1-2" data-name="Layer 1">
    <path class="cls-1" d="M12.24,0c3.38,0,6.44,1.37,8.66,3.59s3.59,5.28,3.59,8.66-1.37,6.44-3.59,8.66c-.46.46-.95.87-1.47,1.25h0s-.12.08-.12.08c-1.8,1.28-3.97,2.08-6.31,2.22h-.06s-.06,0-.06,0h-.05s-.01,0-.01,0h-.06s-.02,0-.02,0h-.07s-.11,0-.11,0h0s-.02,0-.02,0c-.1,0-.19,0-.29,0s-.2,0-.29,0h-.02s0,0,0,0h-.11s-.07,0-.07,0h-.02s-.06,0-.06,0h-.01s-.05,0-.05,0h-.06s-.06,0-.06,0c-2.34-.14-4.51-.95-6.31-2.22l-.12-.08h0c-.52-.38-1.01-.8-1.47-1.26C1.37,18.69,0,15.63,0,12.24S1.37,5.8,3.59,3.59C5.8,1.37,8.86,0,12.24,0h0ZM12.24,3.69c-1.39,0-2.64.56-3.55,1.47-.91.91-1.47,2.16-1.47,3.55s.56,2.64,1.47,3.55c.91.91,2.16,1.47,3.55,1.47s2.64-.56,3.55-1.47,1.47-2.16,1.47-3.55-.56-2.64-1.47-3.55-2.16-1.47-3.55-1.47h0ZM5.05,20.45v-4.43c0-.48.2-.91.51-1.23s.75-.51,1.23-.51h10.91c.48,0,.91.2,1.23.51.31.31.51.75.51,1.23v4.43c.18-.16.36-.32.53-.49,1.97-1.97,3.2-4.7,3.2-7.72s-1.22-5.74-3.2-7.72c-1.97-1.97-4.7-3.2-7.72-3.2s-5.74,1.22-7.72,3.2c-1.97,1.97-3.2,4.7-3.2,7.72s1.22,5.74,3.2,7.72c.17.17.35.33.53.49Z"/>
  </g>
</svg>