<?xml version="1.0" encoding="UTF-8"?>
<svg id="Layer_2" data-name="Layer 2" xmlns="http://www.w3.org/2000/svg" viewBox="0 0 31.14 14.47">
  <defs>
    <style>
      .cls-1 {
        fill: #fff;
        fill-rule: evenodd;
      }
    </style>
  </defs>
  <g id="Layer_1-2" data-name="Layer 1">
    <path class="cls-1" d="M30.45,5.78c-2.31-1.27-4.8-2.24-7.44-2.84-.36-.08-.64-.28-.84-.6l-1.06-1.71c-.25-.4-.66-.63-1.13-.63h-10.16l.75.9c.3.36.39.82.24,1.27-.15.45-.49.76-.95.87-.18.04-.36.09-.54.14-.39.1-.68.35-.86.71-.17.36-.18.75-.02,1.11.27.62.42,1.27.42,1.94s-.15,1.32-.42,1.94c-.16.37-.16.75.02,1.11.17.36.47.61.86.71,1,.27,2.03.48,3.08.64l-.78.94c-.34.41-.4.94-.18,1.42.22.48.68.76,1.2.76h7.33c.48,0,.88-.23,1.13-.63l1.47-2.38c.19-.31.47-.51.82-.59,2.49-.6,4.86-1.54,7.05-2.75.44-.24.69-.67.69-1.17s-.25-.92-.69-1.17h0ZM4.47,4.04c-1.31.49-2.57,1.07-3.78,1.74C.25,6.02,0,6.45,0,6.95c0,.5.25.92.69,1.17,1.21.67,2.47,1.25,3.78,1.74.63.24,1.33-.03,1.65-.63.38-.72.59-1.49.59-2.28s-.2-1.56-.59-2.28c-.31-.6-1.01-.86-1.65-.63Z"/>
  </g>
</svg>