<?xml version="1.0" encoding="UTF-8"?>
<svg id="Layer_2" data-name="Layer 2" xmlns="http://www.w3.org/2000/svg" viewBox="0 0 25.58 17.01">
  <defs>
    <style>
      .cls-1 {
        fill: #fff;
        fill-rule: evenodd;
      }
    </style>
  </defs>
  <g id="Layer_1-2" data-name="Layer 1">
    <path class="cls-1" d="M14.34,12.85v2.83c0,.53.29.98.77,1.21.48.22,1.01.15,1.42-.18l8.58-7.17c.31-.26.48-.61.48-1.02s-.16-.76-.48-1.02L16.52.31c-.41-.34-.94-.41-1.42-.18-.48.22-.77.68-.77,1.21v2.82c0,.67-.48,1.22-1.14,1.32L1.15,7.19C.48,7.28,0,7.84,0,8.5c0,.67.48,1.22,1.15,1.32l12.05,1.71c.66.09,1.14.65,1.14,1.32Z"/>
  </g>
</svg>