<?xml version="1.0" encoding="UTF-8"?>
<svg id="Layer_2" data-name="Layer 2" xmlns="http://www.w3.org/2000/svg" viewBox="0 0 24.21 23.61">
  <defs>
    <style>
      .cls-1 {
        fill: #fff;
        fill-rule: evenodd;
      }
    </style>
  </defs>
  <g id="Layer_1-2" data-name="Layer 1">
    <path class="cls-1" d="M8.61,0c1.36,0,2.59.55,3.48,1.44.89.89,1.44,2.12,1.44,3.48s-.55,2.59-1.44,3.48c-.89.89-2.12,1.44-3.48,1.44s-2.59-.55-3.48-1.44c-.89-.89-1.44-2.12-1.44-3.48s.55-2.59,1.44-3.48c.89-.89,2.12-1.44,3.48-1.44h0ZM18.5,3.83c.9,0,1.72.37,2.31.96s.96,1.41.96,2.31-.37,1.72-.96,2.31c-.59.59-1.41.96-2.31.96s-1.72-.37-2.31-.96c-.59-.59-.96-1.41-.96-2.31s.37-1.72.96-2.31c.59-.59,1.41-.96,2.31-.96h0ZM15.39,11.73c.83-.51,1.8-.8,2.84-.8h.54c1.5,0,2.86.61,3.85,1.6.99.99,1.6,2.35,1.6,3.85,0,.15-.09.27-.21.33l-5.34,2.76s-.09.04-.14.04c.06-.19.1-.39.1-.6,0-2.55-1.02-4.98-2.82-6.78-.13-.13-.27-.26-.41-.38h0ZM0,18.9h0c0,.19.11.38.29.47l8.08,4.18c.15.08.33.08.49,0l8.04-4.16c.19-.08.32-.27.32-.49,0-2.26-.92-4.31-2.41-5.8-1.49-1.49-3.54-2.41-5.8-2.41h-.81c-2.26,0-4.31.92-5.8,2.41-1.49,1.49-2.41,3.54-2.41,5.8Z"/>
  </g>
</svg>