<?xml version="1.0" encoding="UTF-8"?>
<svg id="Layer_2" data-name="Layer 2" xmlns="http://www.w3.org/2000/svg" viewBox="0 0 30.66 24.95">
  <defs>
    <style>
      .cls-1 {
        fill: #fff;
        fill-rule: evenodd;
      }
    </style>
  </defs>
  <g id="Layer_1-2" data-name="Layer 1">
    <path class="cls-1" d="M26.33,14.99l-2.27,9.4c-.08.33-.38.56-.71.56h0s-6.02,0-6.02,0c-.32,0-.59-.21-.69-.49l-1.32-3.14-1.33,3.18c-.12.28-.39.45-.67.45h-6.02c-.36,0-.67-.27-.72-.62l-2.26-9.34c.05.02.1.03.16.05.11.03.23.06.34.06.11,0,.23,0,.35-.02h0c.82-.16,1.54-.51,2.17-1.01.67-.53,1.22-1.22,1.67-1.99.46-.8.81-1.71,1.05-2.62.26-.99.38-1.99.38-2.89,0-.66-.03-1.24-.1-1.75-.06-.52-.16-.98-.29-1.4-.13-.44-.29-.82-.48-1.18-.19-.35-.39-.67-.62-.99-.12-.16-.26-.29-.43-.39-.17-.1-.35-.17-.54-.19h-.04s-.02,0-.02,0L11.15.01c.39-.08.78.17.86.57.01.06.02.11.01.16.02,1.19.43,2.61,1.16,3.67.55.8,1.28,1.36,2.14,1.4.86-.03,1.59-.6,2.14-1.4.74-1.06,1.15-2.49,1.16-3.69,0-.4.33-.72.73-.72.05,0,.09,0,.14.01l3.23.66h-.02s-.04,0-.04,0c-.19.03-.37.09-.54.19-.16.1-.31.23-.43.39-.23.31-.43.63-.62.99-.19.36-.35.74-.48,1.18-.13.42-.22.87-.29,1.4-.06.51-.1,1.09-.1,1.75,0,.9.13,1.9.38,2.89.24.91.58,1.82,1.05,2.62.45.78,1,1.46,1.67,1.99.63.5,1.35.85,2.17,1.01.11.02.23.03.34.02.11,0,.23-.03.34-.06.05-.02.1-.03.16-.05h0ZM.22,8.32c-.19.19-.26.45-.2.7.29,1.19.89,2.39,1.74,3.37h0c.77.89,1.76,1.6,2.94,1.96.12.04.23.04.34.02,1.46-.28,2.57-1.31,3.34-2.65.89-1.54,1.33-3.51,1.33-5.15,0-1.26-.12-2.18-.35-2.94-.24-.78-.57-1.36-.99-1.95-.12-.17-.3-.27-.48-.29h-.04c-.24-.04-.48.05-.64.22L.22,8.32H.22ZM23.45,1.62c-.16-.17-.39-.26-.64-.22h-.04c-.19.03-.36.13-.48.3-.42.58-.76,1.16-.99,1.95-.23.75-.35,1.67-.35,2.94,0,1.63.44,3.6,1.33,5.15.77,1.34,1.88,2.37,3.34,2.65.11.02.23.02.34-.02,1.18-.36,2.17-1.07,2.94-1.96h0c.85-.98,1.45-2.19,1.74-3.37.06-.24,0-.51-.2-.7l-6.99-6.71h0ZM15.33,11.26c-.67,0-1.27.27-1.71.71h0c-.44.44-.71,1.05-.71,1.72s.27,1.27.71,1.71h0c.44.44,1.05.71,1.71.71s1.27-.27,1.71-.71h0c.44-.44.71-1.05.71-1.72s-.27-1.27-.71-1.71h0c-.44-.44-1.05-.71-1.71-.71Z"/>
  </g>
</svg>