<?xml version="1.0" encoding="UTF-8"?>
<svg id="Layer_2" data-name="Layer 2" xmlns="http://www.w3.org/2000/svg" viewBox="0 0 28.62 23.3">
  <defs>
    <style>
      .cls-1 {
        fill: #fff;
        fill-rule: evenodd;
      }
    </style>
  </defs>
  <g id="Layer_1-2" data-name="Layer 1">
    <path class="cls-1" d="M15.79,22.98l12.34-10.31c.31-.26.48-.61.48-1.02s-.16-.76-.48-1.02L15.79.31c-.41-.34-.94-.41-1.42-.18-.48.22-.77.68-.77,1.21v7.42c0,.53-.29.98-.77,1.21-.48.22-1.01.16-1.42-.18l-2.33-1.94v.96c0,.53-.29.98-.77,1.21-.48.22-1.01.15-1.42-.18l-2.38-1.98v.94c0,.53-.29.98-.77,1.21-.48.22-1.01.15-1.42-.18l-.17-.14c-.41-.34-.94-.41-1.42-.18-.48.22-.77.68-.77,1.21v1.93c0,.53.29.98.77,1.21.48.22,1.01.15,1.42-.18l2.35-1.96v.94c0,.53.29.98.77,1.21.48.22,1.01.15,1.42-.18l2.38-1.98v.96c0,.53.29.98.77,1.21.48.22,1.01.15,1.42-.18l.14-.12c.41-.34.94-.41,1.42-.18.48.22.77.68.77,1.21v7.42c0,.53.29.98.77,1.21.48.22,1.01.16,1.42-.18Z"/>
  </g>
</svg>