<?xml version="1.0" encoding="UTF-8"?>
<svg id="Layer_2" data-name="Layer 2" xmlns="http://www.w3.org/2000/svg" viewBox="0 0 160.54 160.54">
  <defs>
    <style>
      .cls-1 {
        fill: #080a16;
      }
    </style>
  </defs>
  <g id="Calque_1" data-name="Calque 1">
    <g>
      <rect class="cls-1" x="74.45" width="11.64" height="40.14"/>
      <rect class="cls-1" x="44.35" y="8.06" width="11.64" height="40.14" transform="translate(-7.35 28.85) rotate(-30)"/>
      <rect class="cls-1" x="22.31" y="30.1" width="11.64" height="40.14" transform="translate(-29.38 49.45) rotate(-60)"/>
      <rect class="cls-1" y="74.45" width="40.14" height="11.64"/>
      <rect class="cls-1" x="8.07" y="104.55" width="40.14" height="11.64" transform="translate(-51.41 28.85) rotate(-30)"/>
      <rect class="cls-1" x="30.1" y="126.58" width="40.14" height="11.64" transform="translate(-89.58 109.66) rotate(-60)"/>
      <rect class="cls-1" x="74.45" y="120.4" width="11.64" height="40.14"/>
      <rect class="cls-1" x="104.55" y="112.34" width="11.64" height="40.14" transform="translate(-51.42 72.92) rotate(-30)"/>
      <rect class="cls-1" x="126.58" y="90.3" width="11.64" height="40.14" transform="translate(-29.38 169.85) rotate(-60)"/>
      <rect class="cls-1" x="120.4" y="74.45" width="40.14" height="11.64"/>
      <rect class="cls-1" x="112.34" y="44.35" width="40.14" height="11.64" transform="translate(-7.35 72.92) rotate(-30)"/>
      <rect class="cls-1" x="90.3" y="22.31" width="40.14" height="11.64" transform="translate(30.82 109.65) rotate(-60)"/>
    </g>
  </g>
</svg>