<?xml version="1.0" encoding="UTF-8"?>
<svg id="Layer_2" data-name="Layer 2" xmlns="http://www.w3.org/2000/svg" viewBox="0 0 27.49 21.92">
  <defs>
    <style>
      .cls-1 {
        fill: #fff;
        fill-rule: evenodd;
      }
    </style>
  </defs>
  <g id="Layer_1-2" data-name="Layer 1">
    <path class="cls-1" d="M17.8,21.52l9.32-9.63c.5-.52.5-1.34,0-1.85L17.8.41c-.39-.4-.94-.52-1.46-.31-.51.21-.83.68-.83,1.24v19.25c0,.55.32,1.03.83,1.23.51.21,1.07.09,1.46-.31h0ZM2.29,21.52l9.32-9.63c.5-.52.5-1.34,0-1.85L2.29.41C1.9.01,1.35-.11.83.1.32.31,0,.78,0,1.34v19.25c0,.55.32,1.03.83,1.23.51.21,1.07.09,1.46-.31Z"/>
  </g>
</svg>