<?xml version="1.0" encoding="UTF-8"?>
<svg id="Layer_2" data-name="Layer 2" xmlns="http://www.w3.org/2000/svg" viewBox="0 0 23.77 23.77">
  <defs>
    <style>
      .cls-1 {
        fill: #fff;
        fill-rule: evenodd;
      }
    </style>
  </defs>
  <g id="Layer_1-2" data-name="Layer 1">
    <path class="cls-1" d="M11.89,0c3.28,0,6.25,1.33,8.4,3.48,2.15,2.15,3.48,5.12,3.48,8.41s-1.33,6.25-3.48,8.4c-2.15,2.15-5.12,3.48-8.4,3.48s-6.25-1.33-8.4-3.48S0,15.17,0,11.89,1.33,5.63,3.48,3.48,8.6,0,11.89,0h0ZM11.22,6.65v5.72c0,.37.3.67.67.67.12,0,.22-.03.32-.08l3.55-1.64c.33-.15.48-.55.33-.88-.15-.33-.55-.48-.88-.33l-2.64,1.22v-4.67c0-.37-.3-.67-.67-.67s-.67.3-.67.67h0ZM16.35,2.83l-1.01,1.74c-.18.32-.07.72.24.91.32.18.72.07.91-.24l1.01-1.74c.18-.32.07-.72-.24-.91-.32-.18-.72-.07-.91.24h0ZM20.28,6.28l-1.74,1.01c-.32.18-.43.59-.24.91.18.32.59.43.91.24l1.74-1.01c.32-.18.43-.59.24-.91-.18-.32-.59-.43-.91-.24h0ZM21.96,11.22h-2.01c-.37,0-.67.3-.67.67s.3.67.67.67h2.01c.37,0,.67-.3.67-.67s-.3-.67-.67-.67h0ZM20.94,16.35l-1.74-1.01c-.32-.18-.72-.07-.91.24-.18.32-.07.72.24.91l1.74,1.01c.32.18.72.07.91-.24.18-.32.07-.72-.24-.91h0ZM17.5,20.28l-1.01-1.74c-.18-.32-.59-.43-.91-.24-.32.18-.43.59-.24.91l1.01,1.74c.18.32.59.43.91.24.32-.18.43-.59.24-.91h0ZM12.55,21.96v-2.01c0-.37-.3-.67-.67-.67s-.67.3-.67.67v2.01c0,.37.3.67.67.67s.67-.3.67-.67h0ZM7.43,20.94l1.01-1.74c.18-.32.07-.72-.24-.91-.32-.18-.72-.07-.91.24l-1.01,1.74c-.18.32-.07.72.24.91.32.18.72.07.91-.24h0ZM3.5,17.5l1.74-1.01c.32-.18.43-.59.24-.91-.18-.32-.59-.43-.91-.24l-1.74,1.01c-.32.18-.43.59-.24.91.18.32.59.43.91.24h0ZM1.82,12.55h2.01c.37,0,.67-.3.67-.67s-.3-.67-.67-.67H1.82c-.37,0-.67.3-.67.67s.3.67.67.67h0ZM2.83,7.43l1.74,1.01c.32.18.72.07.91-.24.18-.32.07-.72-.24-.91l-1.74-1.01c-.32-.18-.72-.07-.91.24-.18.32-.07.72.24.91h0ZM6.28,3.5l1.01,1.74c.18.32.59.43.91.24.32-.18.43-.59.24-.91l-1.01-1.74c-.18-.32-.59-.43-.91-.24-.32.18-.43.59-.24.91h0ZM11.22,1.82v2.01c0,.37.3.67.67.67s.67-.3.67-.67V1.82c0-.37-.3-.67-.67-.67s-.67.3-.67.67Z"/>
  </g>
</svg>