<?xml version="1.0" encoding="UTF-8"?>
<svg id="Layer_2" data-name="Layer 2" xmlns="http://www.w3.org/2000/svg" viewBox="0 0 29.21 27.03">
  <defs>
    <style>
      .cls-1 {
        fill: #fff;
        fill-rule: evenodd;
      }
    </style>
  </defs>
  <g id="Layer_1-2" data-name="Layer 1">
    <path class="cls-1" d="M11.73.26l2.87,3.36,2.84-3.32c.16-.21.43-.33.71-.28l1.53.27-5.09,5.75L9.42.3,11.06.01c.24-.04.51.04.68.24h0ZM21.36.58l-.02.02-6.2,7c-.27.3-.73.33-1.03.06-.02-.02-.04-.04-.06-.06h0S7.73.6,7.73.6l-.99.18c-.16.03-.3.11-.41.22L.23,6.81c-.27.26-.3.69-.07.98l3.04,4.34c.23.33.68.41,1.01.18.03-.02.06-.04.09-.07l1.84-1.75v15.81c0,.4.33.73.73.73h15.49c.4,0,.73-.33.73-.73v-15.81l1.84,1.75c.29.28.75.27,1.03-.03.04-.04.07-.08.09-.12l3.04-4.34c.21-.3.16-.7-.09-.94L22.85.97c-.11-.1-.24-.17-.38-.19l-1.12-.2Z"/>
  </g>
</svg>