<?xml version="1.0" encoding="UTF-8"?>
<svg id="Layer_2" data-name="Layer 2" xmlns="http://www.w3.org/2000/svg" viewBox="0 0 23.78 23.78">
  <defs>
    <style>
      .cls-1 {
        fill: #fff;
        fill-rule: evenodd;
      }
    </style>
  </defs>
  <g id="Layer_1-2" data-name="Layer 1">
    <path class="cls-1" d="M11.89,0c3.28,0,6.26,1.33,8.41,3.48s3.48,5.12,3.48,8.41-1.33,6.26-3.48,8.41-5.12,3.48-8.41,3.48-6.26-1.33-8.41-3.48S0,15.17,0,11.89,1.33,5.63,3.48,3.48C5.63,1.33,8.61,0,11.89,0h0ZM13.24,6.13c-.09-.3-.27-.55-.51-.72-.24-.18-.53-.28-.84-.28s-.6.1-.84.28c-.24.17-.42.42-.51.72l-.78,2.54s-.02.03-.03.04c-.01.01-.03.02-.05.02l-2.65-.04c-.31,0-.61.09-.84.26-.24.17-.43.42-.52.72-.1.3-.09.61,0,.89.09.28.27.53.53.71l2.17,1.53s.03.03.03.04c0,.02,0,.03,0,.06l-.86,2.51c-.1.3-.1.6-.01.88.09.28.27.53.52.72.25.18.54.27.84.27.3,0,.59-.1.84-.29l2.12-1.59s.03-.02.05-.02.04,0,.05.02l2.12,1.59c.25.19.54.28.83.28h0c.3,0,.59-.09.84-.27.25-.18.43-.44.52-.72.09-.28.09-.59-.01-.88l-.86-2.51s0-.04,0-.06c0-.02.02-.03.03-.04l2.17-1.53c.26-.18.44-.43.53-.71.09-.28.1-.59,0-.89-.1-.3-.28-.54-.52-.72-.24-.17-.53-.26-.84-.26l-2.66.04s-.04,0-.05-.02c-.01,0-.02-.02-.03-.04l-.78-2.54Z"/>
  </g>
</svg>