<?xml version="1.0" encoding="UTF-8"?>
<svg id="Layer_2" data-name="Layer 2" xmlns="http://www.w3.org/2000/svg" viewBox="0 0 26.42 27.48">
  <defs>
    <style>
      .cls-1 {
        fill: #fff;
        fill-rule: evenodd;
      }
    </style>
  </defs>
  <g id="Layer_1-2" data-name="Layer 1">
    <path class="cls-1" d="M4.45,26.21L.21,21.97c-.28-.28-.28-.75,0-1.03l1.03-1.03c.28-.28.75-.28,1.03,0l.62.62,2.31-2.31c.95-.95,1.63-2.05,2-3.24.38-1.19.46-2.47.23-3.8-.34-1.94-.05-3.93.77-5.69.8-1.71,2.12-3.2,3.87-4.21h0C14.37-.04,16.98-.31,19.34.33c2.36.63,4.48,2.17,5.8,4.45l.02.05c1.3,2.28,1.56,4.86.93,7.21-.63,2.36-2.17,4.48-4.45,5.8l-.04.02c-.98.56-2.01.93-3.06,1.11-1.1.2-2.22.19-3.3,0-1.33-.23-2.62-.15-3.81.23-1.19.38-2.28,1.05-3.24,2l-2.31,2.31.62.62c.28.28.28.75,0,1.03l-1.03,1.03c-.28.28-.75.28-1.03,0h0ZM16.01,24.45c.24-.9.18-1.88-.24-2.77-.54.05-.99.09-1.33.05h0c-.43.02-.81.18-1.1.41-.19.16-.33.34-.41.53-.06.15-.08.31-.04.44.03.12.11.23.25.33.27.19.52.42.75.69.49.58.86,1.33.92,2.19v.1c.59-.54,1-1.22,1.2-1.96h0ZM13.25,27.3c.1-.31.13-.6.11-.88h0c-.04-.53-.27-.99-.58-1.36-.15-.17-.31-.32-.48-.44-.43-.31-.69-.7-.81-1.12h0c-.13-.46-.08-.93.1-1.38.17-.41.45-.8.83-1.1.51-.42,1.2-.71,1.97-.73.2-.01.4.06.56.21h.01c-.51-.5-1.15-.87-1.84-1.05-1.01-.27-2.12-.15-3.1.41l-.09.05c-.93.57-1.55,1.45-1.81,2.42-.27,1.01-.15,2.12.41,3.1l.05.09h0c.57.93,1.45,1.55,2.42,1.81.72.19,1.5.19,2.24-.04h0ZM15.53,14.36l1.34-1.34,1.34,1.34c.28.28.75.28,1.03,0,.28-.28.28-.75,0-1.03l-1.34-1.34,1.4-1.4,1.34,1.34c.28.28.75.28,1.03,0,.28-.28.28-.75,0-1.03l-1.34-1.34,1.34-1.34c.28-.28.28-.75,0-1.03-.28-.28-.75-.28-1.03,0l-1.34,1.34-1.4-1.4,1.34-1.34c.28-.28.28-.75,0-1.03-.28-.28-.75-.28-1.03,0l-1.34,1.34-1.34-1.34c-.28-.28-.75-.28-1.03,0-.28.28-.28.75,0,1.03l1.34,1.34-1.4,1.4-1.34-1.34c-.28-.28-.75-.28-1.03,0-.28.28-.28.75,0,1.03l1.34,1.34-1.34,1.34c-.28.28-.28.75,0,1.03.28.28.75.28,1.03,0l1.34-1.34,1.4,1.4-1.34,1.34c-.28.28-.28.75,0,1.03.28.28.75.28,1.03,0h0ZM16.86,8.16l-1.4,1.4,1.4,1.4,1.4-1.4-1.4-1.4h0ZM20.71,16.21c1.84-1.06,3.07-2.77,3.58-4.66.51-1.9.29-3.99-.77-5.83h0c-1.06-1.84-2.77-3.07-4.66-3.58-1.89-.51-3.97-.29-5.8.76h-.03c-1.84,1.07-3.07,2.78-3.58,4.68-.51,1.89-.29,3.97.76,5.8l.05.1.02.02c1.06,1.79,2.74,2.99,4.61,3.49,1.84.49,3.85.3,5.65-.67h0l.17-.1h0ZM20.14,14.85c1.4-.86,2.34-2.2,2.73-3.68.41-1.54.24-3.24-.62-4.72h0c-.86-1.49-2.24-2.49-3.77-2.9-1.54-.41-3.24-.24-4.72.62-1.49.86-2.49,2.24-2.9,3.78-.4,1.51-.25,3.17.57,4.64l.05.09c.86,1.49,2.24,2.49,3.78,2.9,1.51.4,3.17.25,4.64-.57l.15-.15h.1Z"/>
  </g>
</svg>