<?xml version="1.0" encoding="UTF-8"?>
<svg id="Layer_2" data-name="Layer 2" xmlns="http://www.w3.org/2000/svg" viewBox="0 0 75.52 70.75">
  <g id="Layer_1-2" data-name="Layer 1">
    <g>
      <path d="M38.6,70.75c-.66,0-1.3-.26-1.77-.73-.49-.49-.76-1.17-.73-1.87l.37-8.93c.03-.63.29-1.22.73-1.67l23.73-23.73h0c3.34-3.33,8.76-3.34,12.1,0,3.34,3.33,3.34,8.76,0,12.1l-23.73,23.73c-.44.44-1.04.7-1.66.73l-8.93.37s-.07,0-.1,0ZM41.42,60.4l-.22,5.24,5.24-.22,23.04-23.04c1.39-1.39,1.39-3.64,0-5.03-1.39-1.38-3.64-1.39-5.03,0l-23.04,23.04Z"/>
      <path d="M23,70.75h-13.07c-5.48,0-9.93-4.46-9.93-9.93V17.58C0,12.11,4.46,7.65,9.93,7.65h49.73c5.48,0,9.93,4.46,9.93,9.93v5.27c0,1.38-1.12,2.5-2.5,2.5s-2.5-1.12-2.5-2.5v-5.27c0-2.72-2.21-4.93-4.93-4.93H9.93c-2.72,0-4.93,2.21-4.93,4.93v43.24c0,2.72,2.21,4.93,4.93,4.93h13.07c1.38,0,2.5,1.12,2.5,2.5s-1.12,2.5-2.5,2.5Z"/>
      <path d="M67.1,25.35H2.5c-1.38,0-2.5-1.12-2.5-2.5s1.12-2.5,2.5-2.5h64.6c1.38,0,2.5,1.12,2.5,2.5s-1.12,2.5-2.5,2.5Z"/>
      <g>
        <path d="M46.6,12.65c-1.38,0-2.5-1.12-2.5-2.5V2.5c0-1.38,1.12-2.5,2.5-2.5s2.5,1.12,2.5,2.5v7.65c0,1.38-1.12,2.5-2.5,2.5Z"/>
        <path d="M23,12.65c-1.38,0-2.5-1.12-2.5-2.5V2.5c0-1.38,1.12-2.5,2.5-2.5s2.5,1.12,2.5,2.5v7.65c0,1.38-1.12,2.5-2.5,2.5Z"/>
      </g>
      <path d="M37.52,42.61H15.54c-1.38,0-2.5-1.12-2.5-2.5s1.12-2.5,2.5-2.5h21.98c1.38,0,2.5,1.12,2.5,2.5s-1.12,2.5-2.5,2.5Z"/>
      <path d="M26.53,56.17h-10.99c-1.38,0-2.5-1.12-2.5-2.5s1.12-2.5,2.5-2.5h10.99c1.38,0,2.5,1.12,2.5,2.5s-1.12,2.5-2.5,2.5Z"/>
    </g>
  </g>
</svg>