<?xml version="1.0" encoding="UTF-8"?>
<svg id="Layer_2" data-name="Layer 2" xmlns="http://www.w3.org/2000/svg" viewBox="0 0 28.25 28.63">
  <defs>
    <style>
      .cls-1 {
        fill: #fff;
        fill-rule: evenodd;
      }
    </style>
  </defs>
  <g id="Layer_1-2" data-name="Layer 1">
    <path class="cls-1" d="M1.95,6.4l-1.35-1.48c-.49-.54-.45-1.39.09-1.88L3.65.35c.54-.49,1.39-.45,1.88.09l1.35,1.48,10.85,11.95c.48.53.46,1.34-.05,1.84l-12.6,12.53c-.52.52-1.37.52-1.88,0l-2.82-2.83c-.52-.52-.52-1.37,0-1.88l8.09-8.04c.5-.5.53-1.31.05-1.84L1.95,6.4h0ZM16.11,9.49l3.98,4.38c.48.53.46,1.34-.05,1.84l-5.07,5.04c-.52.52-.52,1.36,0,1.88l2.1,2.11c.52.52,1.36.52,1.88,0l8.9-8.85c.5-.5.53-1.31.05-1.84-2.87-3.16-5.74-6.32-8.61-9.48-.49-.54-1.34-.58-1.88-.09l-2.21,2.01c-.54.49-.58,1.34-.09,1.88l1,1.1Z"/>
  </g>
</svg>