<?xml version="1.0" encoding="UTF-8"?>
<svg id="Layer_2" data-name="Layer 2" xmlns="http://www.w3.org/2000/svg" viewBox="0 0 20.04 31.64">
  <defs>
    <style>
      .cls-1 {
        fill: #fff;
        fill-rule: evenodd;
      }
    </style>
  </defs>
  <g id="Layer_1-2" data-name="Layer 1">
    <path class="cls-1" d="M8.21,0c6.84,2.01,11.83,8.33,11.83,15.82s-4.99,13.81-11.83,15.82c4.75-3.64,7.82-9.37,7.82-15.82S12.97,3.64,8.21,0h0ZM0,6.57c4,1.18,6.92,4.87,6.92,9.25S4,23.9,0,25.07c2.78-2.13,4.57-5.48,4.57-9.25S2.78,8.7,0,6.57h0ZM3.22,2.81c3.91,2.99,6.43,7.71,6.43,13.01s-2.52,10.02-6.43,13.01c5.62-1.65,9.73-6.85,9.73-13.01S8.84,4.47,3.22,2.81Z"/>
  </g>
</svg>