<?xml version="1.0" encoding="UTF-8"?>
<svg id="Layer_2" data-name="Layer 2" xmlns="http://www.w3.org/2000/svg" viewBox="0 0 23.74 23.74">
  <defs>
    <style>
      .cls-1 {
        fill: #fff;
        fill-rule: evenodd;
      }
    </style>
  </defs>
  <g id="Layer_1-2" data-name="Layer 1">
    <path class="cls-1" d="M12.53,0c1.68.09,3.27.54,4.69,1.26l-.54.93c-.18.32-.07.72.24.91.32.18.72.07.91-.24l.54-.93c.68.45,1.32.97,1.9,1.54.58.58,1.09,1.21,1.54,1.9l-.93.54c-.32.18-.43.59-.24.91.18.32.59.43.91.24l.93-.54c.72,1.42,1.16,3.01,1.26,4.69h-1.07c-.37,0-.67.3-.67.67s.3.67.67.67h1.07c-.09,1.68-.54,3.27-1.26,4.69l-.93-.54c-.32-.18-.72-.07-.91.24-.18.32-.07.72.24.91l.93.54c-.45.68-.97,1.32-1.54,1.9s-1.21,1.09-1.9,1.54l-.54-.93c-.18-.32-.59-.43-.91-.24-.32.18-.43.59-.24.91l.54.93c-1.42.72-3.01,1.16-4.69,1.26v-1.07c0-.37-.3-.67-.67-.67s-.67.3-.67.67v1.07c-1.68-.09-3.27-.54-4.69-1.26l.54-.93c.18-.32.07-.72-.24-.91-.32-.18-.72-.07-.91.24l-.54.93c-.68-.45-1.32-.97-1.9-1.54-.58-.58-1.09-1.21-1.54-1.9l.93-.54c.32-.18.43-.59.24-.91-.18-.32-.59-.43-.91-.24l-.93.54c-.72-1.42-1.16-3.01-1.26-4.69h1.07c.37,0,.67-.3.67-.67s-.3-.67-.67-.67H0c.09-1.68.54-3.27,1.26-4.69l.93.54c.32.18.72.07.91-.24.18-.32.07-.72-.24-.91l-.93-.54c.45-.68.97-1.32,1.54-1.9.58-.58,1.21-1.09,1.9-1.54l.54.93c.18.32.59.43.91.24.32-.18.43-.59.24-.91l-.54-.93C7.93.54,9.52.09,11.2,0v1.07c0,.37.3.67.67.67s.67-.3.67-.67V0h0ZM11.27,4.87v6.99c0,.27.16.5.39.61l5.94,3.42c.32.18.72.07.91-.24.18-.32.07-.72-.24-.91l-5.66-3.26v-6.61c0-.37-.3-.67-.67-.67s-.67.3-.67.67Z"/>
  </g>
</svg>