<?xml version="1.0" encoding="UTF-8"?>
<svg id="Layer_2" data-name="Layer 2" xmlns="http://www.w3.org/2000/svg" viewBox="0 0 23.74 23.74">
  <defs>
    <style>
      .cls-1 {
        fill: #fff;
        fill-rule: evenodd;
      }
    </style>
  </defs>
  <g id="Layer_1-2" data-name="Layer 1">
    <path class="cls-1" d="M17.91,3.56c.46.34.89.71,1.29,1.11.4.41.76.85,1.09,1.31l1.5-.42c.33-.09.67.08.8.39l1.11,2.74c.13.33-.01.7-.32.85l-1.35.73c.09.56.13,1.13.13,1.7,0,.56-.06,1.13-.15,1.69l1.36.76c.31.17.43.56.27.88l-1.14,2.68c-.13.32-.48.47-.8.38h0s-1.5-.45-1.5-.45c-.34.46-.71.89-1.11,1.29-.41.4-.85.76-1.31,1.09l.42,1.5c.09.33-.08.67-.39.8l-2.74,1.11c-.33.13-.7-.01-.85-.32l-.73-1.35c-.56.09-1.13.13-1.7.13-.56,0-1.13-.05-1.69-.15l-.76,1.36c-.18.31-.56.43-.88.27l-2.68-1.14c-.32-.13-.47-.48-.38-.8h0s.45-1.5.45-1.5c-.46-.34-.89-.71-1.29-1.11-.4-.41-.76-.85-1.09-1.31l-1.5.42c-.33.09-.67-.08-.8-.39L.05,15.06c-.13-.33.01-.7.33-.85l1.35-.73c-.09-.56-.13-1.13-.13-1.7,0-.56.06-1.13.15-1.69l-1.36-.76c-.31-.17-.43-.56-.27-.88l1.14-2.68c.13-.32.48-.47.8-.38h0s1.5.45,1.5.45c.34-.46.71-.89,1.11-1.29.41-.4.85-.76,1.31-1.09l-.42-1.5c-.09-.33.08-.67.39-.8L8.68.05c.33-.13.7.01.85.33l.73,1.35c.56-.09,1.13-.13,1.7-.13.56,0,1.13.06,1.69.15l.76-1.36c.18-.31.56-.43.88-.27l2.68,1.14c.32.13.47.48.38.8h0s-.45,1.5-.45,1.5h0ZM15.83,10.27c-.41-1.01-1.21-1.87-2.29-2.33-1.09-.46-2.26-.44-3.27-.03-1.01.41-1.87,1.21-2.33,2.29-.46,1.09-.44,2.26-.03,3.27.41,1.01,1.21,1.87,2.29,2.33,1.09.46,2.26.44,3.27.03,1.01-.41,1.87-1.21,2.33-2.29.46-1.09.44-2.26.03-3.27Z"/>
  </g>
</svg>