<?xml version="1.0" encoding="UTF-8"?>
<svg id="Layer_2" data-name="Layer 2" xmlns="http://www.w3.org/2000/svg" viewBox="0 0 20.87 22.8">
  <defs>
    <style>
      .cls-1 {
        fill: #fff;
        fill-rule: evenodd;
      }
    </style>
  </defs>
  <g id="Layer_1-2" data-name="Layer 1">
    <path class="cls-1" d="M2.96,0h12.1c.81,0,1.55.33,2.09.87h0c.54.54.87,1.28.87,2.09v12.45l2.79,6.42c.1.2.1.45-.02.65-.19.31-.6.41-.91.22l-7.64-4.69H2.96c-.81,0-1.55-.33-2.09-.87-.54-.54-.87-1.28-.87-2.09V2.96c0-.81.33-1.55.87-2.09.54-.54,1.28-.87,2.09-.87h0ZM4.7,7.97c-.68,0-1.24.55-1.24,1.24s.55,1.24,1.24,1.24,1.24-.55,1.24-1.24-.55-1.24-1.24-1.24h0ZM13.65,7.97c-.68,0-1.24.55-1.24,1.24s.55,1.24,1.24,1.24,1.24-.55,1.24-1.24-.55-1.24-1.24-1.24h0ZM9.17,7.97c-.68,0-1.24.55-1.24,1.24s.55,1.24,1.24,1.24,1.24-.55,1.24-1.24-.55-1.24-1.24-1.24Z"/>
  </g>
</svg>