<?xml version="1.0" encoding="UTF-8"?>
<svg id="Layer_2" data-name="Layer 2" xmlns="http://www.w3.org/2000/svg" viewBox="0 0 25.32 22.65">
  <defs>
    <style>
      .cls-1 {
        fill: #fff;
        fill-rule: evenodd;
      }
    </style>
  </defs>
  <g id="Layer_1-2" data-name="Layer 1">
    <path class="cls-1" d="M12.66,4.78c1.5-1.62,4-3.29,6.33-4.16C20.12.2,21.22-.03,22.18,0c1.07.04,1.96.42,2.54,1.24.39.56.61,1.31.61,2.29,0,3.14-1.56,6.39-3.88,9.61-2.28,3.16-5.3,6.3-8.31,9.31-.26.26-.68.26-.94,0h0c-3.01-3.01-6.02-6.15-8.31-9.31C1.56,9.92,0,6.68,0,3.54c0-.97.22-1.73.61-2.29C1.19.42,2.08.05,3.15,0c.95-.04,2.06.2,3.19.62,2.32.87,4.82,2.54,6.33,4.16Z"/>
  </g>
</svg>