<?xml version="1.0" encoding="UTF-8"?>
<svg id="Layer_2" data-name="Layer 2" xmlns="http://www.w3.org/2000/svg" viewBox="0 0 27.13 26.15">
  <defs>
    <style>
      .cls-1 {
        fill: #fff;
        fill-rule: evenodd;
      }
    </style>
  </defs>
  <g id="Layer_1-2" data-name="Layer 1">
    <path class="cls-1" d="M14.06,3.83c.62-1.05,1.27-1.88,2.05-2.51,1.1-.88,2.4-1.32,4.12-1.32,1.9,0,3.63.77,4.88,2.02,1.25,1.25,2.02,2.97,2.02,4.88,0,6.47-6.28,12.75-12.56,19.03-.28.28-.75.28-1.03,0-.65-.65-1.3-1.3-2.21-2.23-.41-.42-.82-.84-1.22-1.25.51-.3,1-.68,1.46-1.14h0c2.81-2.81,2.81-7.37,0-10.18h0c-.66-.66-1.46-1.2-2.34-1.56-2.7-1.12-5.55-.46-7.51,1.26-.16-.44-.29-.89-.4-1.33-.21-.87-.33-1.74-.33-2.6,0-1.9.77-3.63,2.02-4.88C4.25.77,5.98,0,7.88,0c3,0,4.68,1.28,6.17,3.83h0ZM3.17,16.99h6.6c.4,0,.73-.33.73-.73s-.33-.73-.73-.73H3.17c-.4,0-.73.33-.73.73s.33.73.73.73h0ZM11.05,11.65c-1.17-1.17-2.79-1.9-4.58-1.9s-3.4.72-4.58,1.9c-1.17,1.17-1.9,2.79-1.9,4.58s.72,3.41,1.9,4.58c1.17,1.17,2.79,1.9,4.58,1.9s3.41-.72,4.58-1.9c1.17-1.17,1.9-2.79,1.9-4.58s-.72-3.41-1.9-4.58h0ZM21.96,12.17c-.1.17-.1.37,0,.55.1.18.27.28.48.28h.31c.2,0,.37-.1.47-.27.24-.41.47-.84.67-1.27.69-1.45,1.16-3,1.16-4.56,0-1.33-.54-2.54-1.41-3.41-.87-.87-2.08-1.41-3.41-1.41-.23,0-.44.01-.65.03-.19.02-.35.11-.46.26-.12.15-.17.32-.14.51h0c.05.37.38.64.76.6.16-.02.33-.03.5-.03.95,0,1.82.39,2.44,1.01.62.62,1.01,1.49,1.01,2.44,0,1.33-.42,2.69-1.03,3.97-.21.44-.45.88-.7,1.3Z"/>
  </g>
</svg>