<?xml version="1.0" encoding="UTF-8"?>
<svg id="Layer_2" data-name="Layer 2" xmlns="http://www.w3.org/2000/svg" viewBox="0 0 23.75 25.09">
  <defs>
    <style>
      .cls-1 {
        fill: #fff;
        fill-rule: evenodd;
      }
    </style>
  </defs>
  <g id="Layer_1-2" data-name="Layer 1">
    <path class="cls-1" d="M10,0c1.68,0,3.19.68,4.29,1.78s1.78,2.62,1.78,4.29-.68,3.19-1.78,4.29c-.5.5-1.08.91-1.73,1.21.74.2,1.45.48,2.12.84l-5.62,5.05c-.14.12-.26.27-.34.44-.08.17-.13.37-.13.57,0,.37.15.7.39.94s.57.39.94.39h.64v4.62c0,.07,0,.14.02.2H2.2c-.61,0-1.16-.25-1.56-.65-.4-.4-.65-.95-.65-1.56v-1.2c0-2.75,1.12-5.25,2.94-7.06,1.23-1.23,2.77-2.14,4.49-2.6-.64-.3-1.23-.71-1.73-1.21-1.1-1.1-1.78-2.62-1.78-4.29s.68-3.19,1.78-4.29,2.62-1.78,4.29-1.78h0ZM11.23,19.14v5.29c0,.37.3.67.67.67h2.63c.37,0,.67-.3.67-.67v-3.28h2.47v3.28c0,.37.3.67.67.67h2.77c.37,0,.67-.3.67-.67v-5.29h1.31c.18,0,.37-.08.5-.22.24-.27.22-.7-.05-.94l-6.61-5.89c-.25-.22-.63-.23-.89,0l-6.52,5.86c-.15.12-.25.31-.25.52,0,.37.3.67.67.67h1.31Z"/>
  </g>
</svg>