<?xml version="1.0" encoding="UTF-8"?>
<svg id="Layer_2" data-name="Layer 2" xmlns="http://www.w3.org/2000/svg" viewBox="0 0 76.92 74.81">
  <g id="Layer_1-2" data-name="Layer 1">
    <g>
      <path d="M53.02,74.81h-29.12c-10.19,0-18.48-8.29-18.48-18.48v-12.13c0-1.38,1.12-2.5,2.5-2.5s2.5,1.12,2.5,2.5v12.13c0,7.43,6.05,13.48,13.48,13.48h29.12c7.43,0,13.48-6.05,13.48-13.48v-12.13c0-1.38,1.12-2.5,2.5-2.5s2.5,1.12,2.5,2.5v12.13c0,10.19-8.29,18.48-18.48,18.48Z"/>
      <g>
        <path d="M48.44,17.47c-1.24,0-2.31-.92-2.48-2.18l-1.35-10.3h-12.3l-1.35,10.3c-.18,1.37-1.43,2.34-2.8,2.15-1.37-.18-2.33-1.44-2.15-2.8l1.64-12.47c.16-1.24,1.22-2.17,2.48-2.17h16.69c1.25,0,2.32.93,2.48,2.17l1.64,12.47c.18,1.37-.78,2.62-2.15,2.8-.11.01-.22.02-.33.02Z"/>
        <path d="M38.85,46.7h-.78c-4.11,0-8.02-1.77-10.73-4.86-2.71-3.09-3.97-7.21-3.43-11.29.18-1.37,1.43-2.33,2.8-2.15,1.37.18,2.33,1.43,2.15,2.8-.35,2.65.47,5.33,2.23,7.34,1.76,2.01,4.31,3.16,6.98,3.16h.78c2.67,0,5.21-1.15,6.98-3.16,1.77-2.01,2.58-4.69,2.23-7.34-.18-1.37.79-2.62,2.15-2.8,1.37-.17,2.62.79,2.8,2.15.53,4.08-.72,8.19-3.43,11.29-2.71,3.09-6.62,4.86-10.73,4.86Z"/>
        <path d="M14.28,46.7c-4.73,0-9.15-2.34-11.81-6.27-2.66-3.92-3.21-8.88-1.46-13.27l3.94-10.02C9.04,6.73,18.92,0,30.12,0c.72,0,1.4.31,1.88.85s.69,1.26.6,1.97l-1.64,12.47c-.18,1.37-1.43,2.34-2.8,2.15-1.37-.18-2.33-1.44-2.15-2.8l1.24-9.46c-7.91,1.02-14.66,6.21-17.65,13.79l-3.94,10.03c-1.15,2.9-.8,6.04.95,8.63,1.76,2.59,4.55,4.07,7.67,4.07,4.65,0,8.61-3.47,9.21-8.08l.42-3.08c.19-1.37,1.44-2.32,2.81-2.14,1.37.19,2.33,1.44,2.14,2.81l-.42,3.07c-.92,7.08-7.01,12.42-14.17,12.42Z"/>
        <path d="M62.64,46.7c-7.16,0-13.25-5.35-14.17-12.44l-.41-3.05c-.19-1.37.77-2.63,2.14-2.81,1.37-.18,2.63.77,2.81,2.14l.42,3.07c.6,4.62,4.56,8.09,9.21,8.09,3.12,0,5.92-1.48,7.67-4.07,1.75-2.58,2.1-5.72.95-8.62l-3.95-10.04c-1.62-4.13-4.42-7.64-8.1-10.14-2.88-1.96-6.13-3.2-9.55-3.64l1.24,9.46c.18,1.37-.78,2.62-2.15,2.8-1.37.19-2.62-.78-2.8-2.15l-1.64-12.47c-.09-.71.12-1.43.6-1.97s1.16-.85,1.88-.85c5.46,0,10.73,1.62,15.24,4.7,4.51,3.08,7.95,7.38,9.93,12.45l3.94,10.03c1.74,4.38,1.19,9.35-1.47,13.26-2.66,3.92-7.08,6.27-11.81,6.27Z"/>
      </g>
    </g>
  </g>
</svg>