<?xml version="1.0" encoding="UTF-8"?>
<svg id="Layer_2" data-name="Layer 2" xmlns="http://www.w3.org/2000/svg" viewBox="0 0 23.82 17.85">
  <defs>
    <style>
      .cls-1 {
        fill: #fff;
        fill-rule: evenodd;
      }
    </style>
  </defs>
  <g id="Layer_1-2" data-name="Layer 1">
    <path class="cls-1" d="M9.11,13.9c-1.28-.35-2.44-.87-3.41-1.52-1.04-.69-1.88-1.53-2.46-2.46-.57-.93-.89-1.96-.89-3.04,0-.41.05-.81.13-1.2-1.15,1.06-1.83,2.37-1.83,3.8,0,.97.31,1.88.87,2.7.46.67,1.08,1.28,1.83,1.79-.33.49-.71.95-1.13,1.35-.57.55-1.21,1.01-1.91,1.37-.3.15-.42.52-.26.83.11.22.34.34.57.33,1.23.02,2.42-.21,3.52-.64,1.03-.4,1.99-.99,2.82-1.72.42.1.85.17,1.28.23.54.07,1.1.1,1.66.1,2.4,0,4.59-.62,6.23-1.64l-.07-.06c-.14.03-.27.05-.4.08-.24.04-.49.08-.73.11-.3.04-.61.06-.94.09-.33.02-.64.03-.94.03-1.39,0-2.72-.19-3.95-.53h0ZM6.07,11.83c-1.88-1.25-3.04-3-3.04-4.95s1.16-3.7,3.04-4.95c1.8-1.19,4.27-1.93,6.99-1.93s5.19.74,6.99,1.93c1.88,1.25,3.04,3,3.04,4.95,0,1.05-.34,2.04-.94,2.93-.49.73-1.17,1.38-1.99,1.94.36.54.77,1.03,1.22,1.47.62.59,1.31,1.09,2.07,1.48.33.17.45.57.29.9-.12.24-.37.37-.62.36-1.33.02-2.62-.22-3.82-.69-1.12-.44-2.16-1.07-3.05-1.86-.46.1-.92.19-1.39.24-.59.07-1.19.11-1.8.11-2.72,0-5.19-.74-6.99-1.93h0ZM8.53,5.76c.68,0,1.24.55,1.24,1.24s-.55,1.24-1.24,1.24-1.24-.55-1.24-1.24.55-1.24,1.24-1.24h0ZM14.24,7c0,.68-.55,1.24-1.24,1.24s-1.24-.55-1.24-1.24.55-1.24,1.24-1.24,1.24.55,1.24,1.24h0ZM16.24,7c0,.68.55,1.24,1.24,1.24.56,0,1.03-.37,1.18-.87h0s0-.01,0-.01h0s0-.01,0-.01h0s0,0,0,0h0s0-.01,0-.01h0s0-.01,0-.01h0s0-.02,0-.02h0s0-.01,0-.01v-.02s0,0,0,0h0s0-.01,0-.01h0s0-.02,0-.02h0s0-.01,0-.01h0s0-.01,0-.01h0s0-.01,0-.01h0s0-.01,0-.01h0s0,0,0,0h0s0-.01,0-.01h0s0-.01,0-.01h0s0-.02,0-.02h0s0-.01,0-.01h0s0,0,0,0h0s0,0,0,0h0s0-.01,0-.01h0s0-.01,0-.01h0s0-.01,0-.01h0s0-.01,0-.01h0s0-.01,0-.01h0s0-.01,0-.01h0s0-.02,0-.02h0s0-.01,0-.01v-.02c0-.68-.55-1.24-1.24-1.24h-.03s0,0,0,0c-.67.02-1.2.56-1.2,1.24Z"/>
  </g>
</svg>