<?xml version="1.0" encoding="UTF-8"?>
<svg id="Layer_2" data-name="Layer 2" xmlns="http://www.w3.org/2000/svg" viewBox="0 0 160.54 160.54">
  <defs>
    <style>
      .cls-1 {
        fill: #080a16;
      }
    </style>
  </defs>
  <g id="Calque_1" data-name="Calque 1">
    <path class="cls-1" d="M160.52,160.54H20.92c-11.54,0-20.92-9.38-20.92-20.92s9.38-20.92,20.92-20.92h118.7c1.55,0,2.82-1.26,2.82-2.82s-1.26-2.82-2.82-2.82H20.92c-11.54,0-20.92-9.38-20.92-20.92s9.38-20.92,20.92-20.92h118.7c1.55,0,2.82-1.26,2.82-2.82s-1.26-2.82-2.82-2.82H20.92c-11.54,0-20.92-9.38-20.92-20.92s9.38-20.92,20.92-20.92h118.7c1.55,0,2.82-1.26,2.82-2.82s-1.26-2.82-2.82-2.82H.02V0h139.59c11.54,0,20.92,9.38,20.92,20.92s-9.38,20.92-20.92,20.92H20.92c-1.55,0-2.82,1.26-2.82,2.82s1.26,2.82,2.82,2.82h118.7c11.54,0,20.92,9.38,20.92,20.92s-9.38,20.92-20.92,20.92H20.92c-1.55,0-2.82,1.26-2.82,2.82s1.26,2.82,2.82,2.82h118.7c11.54,0,20.92,9.38,20.92,20.92s-9.38,20.92-20.92,20.92H20.92c-1.55,0-2.82,1.26-2.82,2.82s1.26,2.82,2.82,2.82h139.6v18.1Z"/>
  </g>
</svg>