<?xml version="1.0" encoding="UTF-8"?>
<svg id="Layer_2" data-name="Layer 2" xmlns="http://www.w3.org/2000/svg" viewBox="0 0 23.9 23.9">
  <defs>
    <style>
      .cls-1 {
        fill: #fff;
        fill-rule: evenodd;
      }
    </style>
  </defs>
  <g id="Layer_1-2" data-name="Layer 1">
    <path class="cls-1" d="M11.95,0c3.3,0,6.29,1.34,8.45,3.5,2.16,2.16,3.5,5.15,3.5,8.45s-1.34,6.29-3.5,8.45c-2.16,2.16-5.15,3.5-8.45,3.5s-6.29-1.34-8.45-3.5C1.34,18.24,0,15.25,0,11.95S1.34,5.66,3.5,3.5C5.66,1.34,8.65,0,11.95,0h0ZM9.75,7.19h5.9l-9.72,9.72c-.26.26-.26.68,0,.94.26.26.68.26.94,0l9.97-9.97v6.44c0,.37.3.67.67.67s.67-.3.67-.67v-7.8c0-.37-.3-.67-.67-.67h-7.76c-.37,0-.67.3-.67.67s.3.67.67.67Z"/>
  </g>
</svg>