<?xml version="1.0" encoding="UTF-8"?>
<svg id="Layer_2" data-name="Layer 2" xmlns="http://www.w3.org/2000/svg" viewBox="0 0 21.88 27.72">
  <defs>
    <style>
      .cls-1 {
        fill: #fff;
        fill-rule: evenodd;
      }
    </style>
  </defs>
  <g id="Layer_1-2" data-name="Layer 1">
    <path class="cls-1" d="M3.65,7.3h2.19v-2.19c0-1.4.57-2.68,1.5-3.61.92-.92,2.2-1.5,3.61-1.5s2.68.57,3.61,1.5c.92.93,1.5,2.2,1.5,3.61v2.19h2.19c.37,0,.68.28.72.65l2.91,18.94c.06.4-.21.77-.61.83-.04,0-.07,0-.11,0H.73c-.4,0-.73-.33-.73-.73,0-.05,0-.09.01-.14L2.93,7.92c.05-.36.37-.62.72-.62h0ZM7.29,12.21c.44-.25.73-.72.73-1.26,0-.81-.65-1.46-1.46-1.46s-1.46.65-1.46,1.46c0,.54.29,1.01.73,1.26v.2c0,1.41.57,2.68,1.5,3.61.92.92,2.2,1.5,3.61,1.5s2.68-.57,3.61-1.5c.92-.92,1.5-2.2,1.5-3.61v-.2c.44-.25.73-.72.73-1.26,0-.81-.65-1.46-1.46-1.46s-1.46.65-1.46,1.46c0,.54.29,1.01.73,1.26v.2c0,1-.41,1.92-1.07,2.58-.66.66-1.57,1.07-2.58,1.07s-1.92-.41-2.58-1.07c-.66-.66-1.07-1.57-1.07-2.58v-.2h0ZM13.52,2.53c-.66-.66-1.57-1.07-2.58-1.07s-1.91.41-2.58,1.07-1.07,1.57-1.07,2.58v2.19h7.29v-2.19c0-1-.41-1.91-1.07-2.58Z"/>
  </g>
</svg>