<?xml version="1.0" encoding="UTF-8"?>
<svg id="Layer_2" data-name="Layer 2" xmlns="http://www.w3.org/2000/svg" viewBox="0 0 79.34 74.48">
  <g id="Layer_1-2" data-name="Layer 1">
    <path d="M73.03,74.48h-16.26c-3.48,0-6.31-2.83-6.31-6.31v-24.28c0-.72-.59-1.31-1.31-1.31h-18.95c-.72,0-1.31.59-1.31,1.31v24.28c0,3.48-2.83,6.31-6.31,6.31H6.31c-3.48,0-6.31-2.83-6.31-6.31v-32.82c0-3.3,1.44-6.42,3.96-8.55L32.41,2.67c4.2-3.56,10.3-3.56,14.5,0l28.47,24.13c2.52,2.13,3.96,5.25,3.96,8.55v32.81c0,3.48-2.83,6.31-6.31,6.31ZM30.2,37.57h18.95c3.48,0,6.31,2.83,6.31,6.31v24.28c0,.72.59,1.31,1.31,1.31h16.26c.72,0,1.31-.59,1.31-1.31v-32.81c0-1.83-.8-3.56-2.2-4.74L43.68,6.48c-2.33-1.97-5.71-1.97-8.04,0L7.19,30.61c-1.4,1.18-2.19,2.91-2.19,4.74v32.82c0,.72.59,1.31,1.31,1.31h16.26c.72,0,1.31-.59,1.31-1.31v-24.28c0-3.48,2.83-6.31,6.31-6.31Z"/>
  </g>
</svg>