<?xml version="1.0" encoding="UTF-8"?>
<svg id="Layer_2" data-name="Layer 2" xmlns="http://www.w3.org/2000/svg" viewBox="0 0 26.02 26.02">
  <defs>
    <style>
      .cls-1 {
        fill: #fff;
        fill-rule: evenodd;
      }
    </style>
  </defs>
  <g id="Layer_1-2" data-name="Layer 1">
    <path class="cls-1" d="M13.01,0c3.59,0,6.85,1.46,9.2,3.81,2.35,2.35,3.81,5.61,3.81,9.2s-1.46,6.85-3.81,9.2c-2.35,2.35-5.61,3.81-9.2,3.81s-6.85-1.46-9.2-3.81c-2.35-2.35-3.81-5.61-3.81-9.2S1.46,6.17,3.81,3.81C6.17,1.46,9.42,0,13.01,0h0ZM17.14,15.09c0-.83-.26-1.5-.79-1.99-.53-.5-1.38-.9-2.55-1.19v-2.93c.73.15,1.43.48,2.09.99l.86-1.45c-.43-.32-.88-.57-1.35-.77-.47-.2-.98-.33-1.55-.4v-.92h-1.34v.89c-.48.04-.92.14-1.32.29-.4.15-.74.36-1.02.62-.29.26-.51.56-.66.91-.15.35-.23.73-.23,1.14,0,.43.07.81.2,1.15.13.33.34.63.61.88s.61.47,1.02.65c.41.18.9.35,1.46.49v3.02c-.5-.08-.97-.23-1.4-.45-.43-.22-.87-.51-1.31-.87l-.99,1.4c.52.42,1.09.76,1.7,1.02.61.26,1.26.43,1.93.51v1.54h1.34v-1.52c.49-.04.94-.14,1.34-.3.4-.16.74-.37,1.03-.62.29-.26.51-.56.67-.91.16-.35.24-.73.24-1.15h0ZM12.58,11.58v-2.71c-.49.04-.86.18-1.11.42-.25.24-.37.53-.37.87s.1.6.29.82c.19.22.59.42,1.19.59h0ZM15.32,15.2c0-.17-.02-.33-.07-.47-.05-.14-.13-.27-.25-.39s-.27-.23-.47-.32c-.19-.1-.44-.19-.74-.28v2.79c.49-.04.87-.18,1.13-.42.26-.24.39-.54.39-.91h0ZM13.01,2.56c-2.88,0-5.5,1.17-7.39,3.06-1.89,1.89-3.06,4.5-3.06,7.39s1.17,5.5,3.06,7.39c1.89,1.89,4.5,3.06,7.39,3.06s5.5-1.17,7.39-3.06c1.89-1.89,3.06-4.5,3.06-7.39s-1.17-5.5-3.06-7.39c-1.89-1.89-4.5-3.06-7.39-3.06h0ZM19.37,6.66c-1.63-1.63-3.87-2.63-6.36-2.63s-4.73,1.01-6.36,2.63c-1.63,1.63-2.63,3.87-2.63,6.36s1.01,4.73,2.63,6.36c1.63,1.63,3.87,2.63,6.36,2.63s4.73-1.01,6.36-2.63c1.63-1.63,2.63-3.87,2.63-6.36s-1.01-4.73-2.63-6.36Z"/>
  </g>
</svg>