<?xml version="1.0" encoding="UTF-8"?>
<svg id="Layer_2" data-name="Layer 2" xmlns="http://www.w3.org/2000/svg" viewBox="0 0 71.83 81.14">
  <g id="Layer_1-2" data-name="Layer 1">
    <g>
      <g>
        <path d="M69.33,39.49c-1.38,0-2.5-1.12-2.5-2.5v-10.16h-10.16c-1.38,0-2.5-1.12-2.5-2.5s1.12-2.5,2.5-2.5h10.64c2.49,0,4.51,2.03,4.51,4.52v10.64c0,1.38-1.12,2.5-2.5,2.5Z"/>
        <path d="M17.55,59.72c-.64,0-1.28-.24-1.77-.73-.98-.98-.98-2.56,0-3.54l17.87-17.87c2.62-2.62,6.88-2.62,9.49,0l3.49,3.49c.67.67,1.75.67,2.42,0l17.92-17.92c.98-.98,2.56-.98,3.54,0,.98.98.98,2.56,0,3.54l-17.92,17.92c-2.62,2.62-6.88,2.62-9.49,0l-3.49-3.49c-.67-.67-1.75-.67-2.42,0l-17.87,17.87c-.49.49-1.13.73-1.77.73Z"/>
      </g>
      <path d="M69.33,81.14H16.7c-9.21,0-16.7-7.49-16.7-16.7V2.5C0,1.12,1.12,0,2.5,0s2.5,1.12,2.5,2.5v61.94c0,6.45,5.25,11.7,11.7,11.7h52.63c1.38,0,2.5,1.12,2.5,2.5s-1.12,2.5-2.5,2.5Z"/>
    </g>
  </g>
</svg>