<?xml version="1.0" encoding="UTF-8"?>
<svg id="Layer_2" data-name="Layer 2" xmlns="http://www.w3.org/2000/svg" viewBox="0 0 37.45 40.88">
  <g id="Layer_1-2" data-name="Layer 1">
    <g>
      <path d="M18.68,40.88c-.64,0-1.28-.24-1.77-.73-.98-.98-.98-2.56,0-3.54l15.09-15.09c.6-.6.6-1.58,0-2.18l-15.09-15.09c-.98-.98-.98-2.56,0-3.54.98-.98,2.56-.98,3.54,0l15.09,15.09c2.55,2.55,2.55,6.7,0,9.25l-15.09,15.09c-.49.49-1.13.73-1.77.73Z"/>
      <path d="M34.95,22.94H2.5c-1.38,0-2.5-1.12-2.5-2.5s1.12-2.5,2.5-2.5h32.45c1.38,0,2.5,1.12,2.5,2.5s-1.12,2.5-2.5,2.5Z"/>
    </g>
  </g>
</svg>