<?xml version="1.0" encoding="UTF-8"?>
<svg id="Layer_2" data-name="Layer 2" xmlns="http://www.w3.org/2000/svg" viewBox="0 0 19.99 25.17">
  <defs>
    <style>
      .cls-1 {
        fill: #fff;
        fill-rule: evenodd;
      }
    </style>
  </defs>
  <g id="Layer_1-2" data-name="Layer 1">
    <path class="cls-1" d="M10,0c1.68,0,3.19.68,4.29,1.78,1.1,1.1,1.78,2.62,1.78,4.29s-.68,3.19-1.78,4.29c-.5.5-1.08.91-1.73,1.21,1.31.35,2.52.96,3.56,1.78l-7.37,4.71c-.09.05-.18.12-.26.19h0c-.08.07-.15.15-.2.24-.2.31-.26.67-.19,1,.07.33.27.64.58.84l6.66,4.31H2.2c-.61,0-1.16-.25-1.56-.65s-.65-.95-.65-1.56v-1.2c0-2.75,1.12-5.25,2.94-7.06,1.23-1.23,2.77-2.14,4.49-2.6-.64-.3-1.23-.71-1.73-1.21-1.1-1.1-1.78-2.62-1.78-4.29s.68-3.19,1.78-4.29c1.1-1.1,2.62-1.78,4.29-1.78h0ZM18.26,13.98h0c0-.12-.03-.25-.1-.36-.2-.31-.61-.4-.92-.2l-8.16,5.21c-.09.05-.17.12-.23.21-.2.31-.11.72.2.92l8.14,5.26c.11.09.25.14.4.14.37,0,.67-.3.67-.67v-10.52h0ZM18.93,16.75c.68,1.35,1.07,2.87,1.07,4.48v1.2c0,.61-.25,1.16-.65,1.56-.13.13-.27.24-.42.33v-7.56Z"/>
  </g>
</svg>