<?xml version="1.0" encoding="UTF-8"?>
<svg id="Layer_2" data-name="Layer 2" xmlns="http://www.w3.org/2000/svg" viewBox="0 0 25.4 18.66">
  <defs>
    <style>
      .cls-1 {
        fill: #fff;
        fill-rule: evenodd;
      }
    </style>
  </defs>
  <g id="Layer_1-2" data-name="Layer 1">
    <path class="cls-1" d="M22.74,13.73c0-.74.6-1.33,1.33-1.33s1.33.6,1.33,1.33v3.6c0,.74-.6,1.33-1.33,1.33H1.33c-.74,0-1.33-.6-1.33-1.33v-3.6c0-.74.6-1.33,1.33-1.33s1.33.6,1.33,1.33v2.27h20.07v-2.27h0ZM18.21,3.08h0S13.02.09,13.02.09c-.32-.18-.72-.08-.91.24-.06.11-.09.22-.09.33h0v2.62h-.31c-2.22,0-4.24.91-5.7,2.37-1.46,1.46-2.37,3.48-2.37,5.7v1.39c0,.37.3.67.67.67.29,0,.54-.19.63-.45.39-.88,1.03-1.62,1.83-2.15.78-.51,1.72-.81,2.72-.81h2.54v2.62c0,.37.3.67.67.67.14,0,.27-.04.37-.11l10.32-5.96c.32-.18.43-.59.24-.91-.06-.11-.15-.19-.25-.25l-5.18-2.99Z"/>
  </g>
</svg>