<?xml version="1.0" encoding="UTF-8"?>
<svg id="Layer_2" data-name="Layer 2" xmlns="http://www.w3.org/2000/svg" viewBox="0 0 60.07 71.37">
  <g id="Layer_1-2" data-name="Layer 1">
    <g>
      <path d="M35.71,19.99c-.42,0-.85-.11-1.25-.33-1.2-.69-1.61-2.22-.92-3.42l5.44-9.42c.32-.55.11-1.03,0-1.21-.1-.18-.42-.61-1.05-.61h-15.82c-.63,0-.94.42-1.05.61-.11.18-.32.66,0,1.21l5.44,9.42c.69,1.2.28,2.72-.92,3.42-1.19.69-2.72.28-3.42-.92l-5.44-9.42c-1.12-1.94-1.12-4.27,0-6.21,1.12-1.95,3.13-3.11,5.38-3.11h15.82c2.25,0,4.26,1.16,5.38,3.11,1.12,1.94,1.12,4.27,0,6.21l-5.44,9.42c-.46.8-1.3,1.25-2.17,1.25Z"/>
      <path d="M22.53,50.76c1.1,0,2.09.68,2.46,1.71.61,1.69,2.05,2.85,4.92,2.85s4.77-1.34,4.77-4.01c0-2.51-1.39-3.83-5.77-5.37-6.55-2.23-9.28-4.28-9.28-8.8s3.99-7.55,10.01-7.55c4.94,0,7.75,1.45,9.1,3.74,1,1.7-.39,3.84-2.36,3.84h0c-1.1,0-2.04-.71-2.47-1.72-.57-1.34-1.86-2.31-4.35-2.31-2.96,0-4.27,1.46-4.27,3.66s1.49,3.41,6.24,5.04c6.46,2.18,8.88,4.69,8.88,8.96,0,4.86-3.42,8.07-10.73,8.05-5.3,0-8.29-1.64-9.68-4.24-.93-1.74.39-3.86,2.37-3.86h.15ZM27.72,30.33v-1.62c0-1.21.98-2.2,2.2-2.2h0c1.21,0,2.2.98,2.2,2.2v1.62h-4.39ZM27.72,59.86v-1.87h4.39v1.87c0,1.21-.98,2.2-2.2,2.2h0c-1.21,0-2.2-.98-2.2-2.2Z"/>
      <path d="M39.78,71.37h-19.5c-6.84,0-12.59-2.42-16.19-6.83C.34,59.95-.86,53.7.61,46.46,3.7,31.2,15.83,14.74,30.03,14.74s26.33,16.47,29.43,31.72c1.47,7.24.26,13.49-3.49,18.08-3.6,4.4-9.35,6.83-16.19,6.83ZM30.03,19.74c-10.25,0-21.48,12.69-24.53,27.71-1.16,5.72-.31,10.53,2.46,13.92,2.67,3.27,6.93,4.99,12.32,4.99h19.5c5.39,0,9.65-1.73,12.32-4.99,2.77-3.39,3.62-8.2,2.46-13.92-3.05-15.02-14.28-27.71-24.53-27.71Z"/>
    </g>
  </g>
</svg>