<?xml version="1.0" encoding="UTF-8"?>
<svg id="Layer_2" data-name="Layer 2" xmlns="http://www.w3.org/2000/svg" viewBox="0 0 29.16 17.65">
  <defs>
    <style>
      .cls-1 {
        fill: #fff;
        fill-rule: evenodd;
      }
    </style>
  </defs>
  <g id="Layer_1-2" data-name="Layer 1">
    <path class="cls-1" d="M7.25,0h14.65c1.11,0,2.1.47,2.95,1.25,1.46,1.34,2.54,3.64,3.25,6.06.7,2.38,1.05,4.89,1.05,6.71,0,1.34-.21,2.38-.65,2.85l-.03.03s-.08.08-.14.13h0c-.45.38-1.29.6-2.1.62-.82.02-1.67-.16-2.12-.58-.04-.04-.09-.08-.12-.13l-3.84-4.54c-.06-.07-.13-.12-.21-.15-.11-.04-.24-.06-.38-.06h-9.99c-.15,0-.28.02-.38.06-.08.03-.15.08-.21.15l-3.84,4.54s-.08.09-.12.13c-.45.42-1.3.6-2.13.58-.81-.02-1.65-.24-2.1-.62-.05-.04-.09-.09-.14-.13l-.03-.03c-.43-.47-.65-1.51-.65-2.85,0-1.81.35-4.33,1.05-6.71.71-2.42,1.79-4.72,3.25-6.06C5.16.47,6.14,0,7.25,0h0ZM20.13,3c-.57,0-1.03.46-1.03,1.03s.46,1.03,1.03,1.03,1.03-.46,1.03-1.03-.46-1.03-1.03-1.03h0ZM18.17,4.96c-.57,0-1.03.46-1.03,1.03s.46,1.03,1.03,1.03,1.03-.46,1.03-1.03-.46-1.03-1.03-1.03h0ZM22.09,4.96c-.57,0-1.03.46-1.03,1.03s.46,1.03,1.03,1.03,1.03-.46,1.03-1.03-.46-1.03-1.03-1.03h0ZM20.13,6.92c-.57,0-1.03.46-1.03,1.03s.46,1.03,1.03,1.03,1.03-.46,1.03-1.03-.46-1.03-1.03-1.03h0ZM11.16,5.24l-1.61.02-.02-1.61c0-.4-.33-.72-.73-.72-.4,0-.72.33-.72.73l.02,1.61-1.61.02c-.4,0-.72.33-.72.74,0,.4.33.72.73.72l1.61-.02.02,1.61c0,.4.33.72.74.72.4,0,.72-.33.72-.74l-.02-1.61,1.61-.02c.4,0,.72-.33.72-.74,0-.4-.33-.72-.73-.72Z"/>
  </g>
</svg>