<?xml version="1.0" encoding="UTF-8"?>
<svg id="Layer_2" data-name="Layer 2" xmlns="http://www.w3.org/2000/svg" viewBox="0 0 160.54 160.54">
  <defs>
    <style>
      .cls-1 {
        fill: #080a16;
      }
    </style>
  </defs>
  <g id="Calque_1" data-name="Calque 1">
    <path class="cls-1" d="M107.02,58.1v-4.58h26.76c14.78,0,26.76-11.98,26.76-26.76h0c0-14.78-11.98-26.76-26.76-26.76h-.01c-34.95,0-64.66,22.35-75.67,53.52h-4.57v-26.76C53.52,11.99,41.54,0,26.76,0S0,11.99,0,26.76h0c0,34.96,22.34,64.67,53.51,75.68v4.57h-26.75C11.99,107.02,0,119,0,133.78H0c0,14.78,11.98,26.76,26.76,26.76h0c34.94,0,64.65-22.34,75.67-53.51h4.59v26.75c0,14.78,11.98,26.76,26.76,26.76s26.76-11.98,26.76-26.76h0c0-34.95-22.35-64.66-53.52-75.67Z"/>
  </g>
</svg>