<?xml version="1.0" encoding="UTF-8"?>
<svg id="Layer_2" data-name="Layer 2" xmlns="http://www.w3.org/2000/svg" viewBox="0 0 73.18 82.99">
  <g id="Layer_1-2" data-name="Layer 1">
    <g>
      <path d="M59.22,51.49h-25.7c-1.38,0-2.5-1.12-2.5-2.5s1.12-2.5,2.5-2.5h25.7c4.94,0,8.96-4.02,8.96-8.96v-17.27H17.77c-1.38,0-2.5-1.12-2.5-2.5s1.12-2.5,2.5-2.5h52.91c1.38,0,2.5,1.12,2.5,2.5v19.77c0,7.7-6.26,13.96-13.96,13.96Z"/>
      <path d="M67.48,65.87h-35.38c-9.28,0-16.83-7.55-16.83-16.83v-31.27c0-7.04-5.73-12.77-12.77-12.77-1.38,0-2.5-1.12-2.5-2.5S1.12,0,2.5,0c9.8,0,17.77,7.97,17.77,17.77v31.27c0,6.52,5.31,11.83,11.83,11.83h35.38c1.38,0,2.5,1.12,2.5,2.5s-1.12,2.5-2.5,2.5Z"/>
      <path d="M29.14,82.99c-3.91,0-7.09-3.18-7.09-7.09s3.18-7.09,7.09-7.09,7.09,3.18,7.09,7.09-3.18,7.09-7.09,7.09ZM29.14,73.81c-1.15,0-2.09.94-2.09,2.09s.94,2.09,2.09,2.09,2.09-.94,2.09-2.09-.94-2.09-2.09-2.09Z"/>
      <path d="M58.99,82.99c-3.91,0-7.09-3.18-7.09-7.09s3.18-7.09,7.09-7.09,7.09,3.18,7.09,7.09-3.18,7.09-7.09,7.09ZM58.99,73.81c-1.15,0-2.09.94-2.09,2.09s.94,2.09,2.09,2.09,2.09-.94,2.09-2.09-.94-2.09-2.09-2.09Z"/>
    </g>
  </g>
</svg>