<?xml version="1.0" encoding="UTF-8"?>
<svg id="Layer_2" data-name="Layer 2" xmlns="http://www.w3.org/2000/svg" viewBox="0 0 69.67 57.31">
  <g id="Layer_1-2" data-name="Layer 1">
    <g>
      <g>
        <path d="M28.25,23.76h-14.05c-1.38,0-2.5-1.12-2.5-2.5s1.12-2.5,2.5-2.5h14.05c1.38,0,2.5,1.12,2.5,2.5s-1.12,2.5-2.5,2.5Z"/>
        <path d="M21.22,30.79c-1.38,0-2.5-1.12-2.5-2.5v-14.05c0-1.38,1.12-2.5,2.5-2.5s2.5,1.12,2.5,2.5v14.05c0,1.38-1.12,2.5-2.5,2.5Z"/>
      </g>
      <path d="M49.73,18.92c-.66,0-1.3-.27-1.77-.74-.12-.11-.22-.24-.31-.38-.09-.13-.17-.28-.23-.43-.06-.15-.11-.31-.14-.47-.04-.16-.05-.32-.05-.48,0-.17.01-.33.05-.49.03-.16.08-.32.14-.47.06-.15.14-.3.23-.43.09-.14.19-.27.31-.38.11-.12.24-.22.38-.31.13-.09.28-.17.43-.23.15-.07.31-.11.47-.15.81-.16,1.67.11,2.26.69.11.11.22.24.31.38.09.13.16.28.23.43.06.15.11.31.14.47.03.16.05.32.05.49,0,.16-.02.32-.05.48-.03.16-.08.32-.14.47-.07.15-.14.3-.23.43-.1.14-.2.27-.32.38-.46.47-1.1.74-1.76.74Z"/>
      <g>
        <path d="M43.87,27.35c-.65,0-1.3-.26-1.76-.73-.47-.46-.74-1.11-.74-1.77,0-.16.02-.32.05-.48.03-.16.08-.32.14-.47.07-.15.14-.3.23-.43.09-.14.2-.27.32-.38.11-.12.24-.22.38-.32.13-.09.28-.16.43-.23.15-.06.3-.11.46-.14.81-.17,1.68.1,2.26.69.12.11.22.24.31.38.09.13.17.28.23.43s.11.31.14.47c.04.16.05.32.05.48,0,.66-.26,1.31-.73,1.77-.47.47-1.11.73-1.77.73Z"/>
        <path d="M55.58,27.35c-.16,0-.33-.01-.49-.05-.16-.03-.31-.08-.46-.14-.16-.06-.3-.14-.44-.23-.13-.09-.26-.19-.38-.31-.46-.46-.73-1.11-.73-1.77s.27-1.3.73-1.76c.12-.12.25-.22.38-.32.14-.09.28-.16.44-.23.15-.06.3-.11.46-.14.82-.17,1.68.1,2.26.69.47.46.73,1.11.73,1.76s-.26,1.31-.73,1.77c-.47.47-1.11.73-1.77.73Z"/>
      </g>
      <path d="M57.18,57.31c-4.8,0-8.79-5.24-10.94-14.37-.28-1.2-1.42-2.06-2.71-2.06h-17.38c-1.29,0-2.43.87-2.71,2.06-2.15,9.13-6.14,14.37-10.94,14.37C4.29,57.31,0,42.9,0,28.66S4.29,0,12.5,0h44.68c8.2,0,12.5,14.42,12.5,28.66s-4.29,28.66-12.5,28.66ZM26.15,35.88h17.38c3.64,0,6.76,2.43,7.58,5.92,1.63,6.9,4.29,10.52,6.07,10.52,3.06,0,7.5-9.22,7.5-23.66s-4.44-23.66-7.5-23.66H12.5c-3.06,0-7.5,9.22-7.5,23.66s4.44,23.66,7.5,23.66c1.79,0,4.45-3.61,6.07-10.52.82-3.48,3.94-5.92,7.58-5.92Z"/>
    </g>
  </g>
</svg>