<?xml version="1.0" encoding="UTF-8"?>
<svg id="Layer_2" data-name="Layer 2" xmlns="http://www.w3.org/2000/svg" viewBox="0 0 24.02 28.26">
  <defs>
    <style>
      .cls-1 {
        fill: #fff;
        fill-rule: evenodd;
      }
    </style>
  </defs>
  <g id="Layer_1-2" data-name="Layer 1">
    <path class="cls-1" d="M1.4,0c.77,0,1.4.63,1.4,1.4s-.63,1.4-1.4,1.4-1.4-.63-1.4-1.4S.63,0,1.4,0h0ZM22.62,12.73c.77,0,1.4.63,1.4,1.4s-.63,1.4-1.4,1.4-1.4-.63-1.4-1.4.63-1.4,1.4-1.4h0ZM18.38,16.97c.77,0,1.4.63,1.4,1.4s-.63,1.4-1.4,1.4-1.4-.63-1.4-1.4.63-1.4,1.4-1.4h0ZM18.38,12.73c.77,0,1.4.63,1.4,1.4s-.63,1.4-1.4,1.4-1.4-.63-1.4-1.4.63-1.4,1.4-1.4h0ZM18.38,8.49c.77,0,1.4.63,1.4,1.4s-.63,1.4-1.4,1.4-1.4-.63-1.4-1.4.63-1.4,1.4-1.4h0ZM14.13,21.22c.77,0,1.4.63,1.4,1.4s-.63,1.4-1.4,1.4-1.4-.63-1.4-1.4.63-1.4,1.4-1.4h0ZM14.13,16.97c.77,0,1.4.63,1.4,1.4s-.63,1.4-1.4,1.4-1.4-.63-1.4-1.4.63-1.4,1.4-1.4h0ZM14.13,12.73c.77,0,1.4.63,1.4,1.4s-.63,1.4-1.4,1.4-1.4-.63-1.4-1.4.63-1.4,1.4-1.4h0ZM14.13,8.49c.77,0,1.4.63,1.4,1.4s-.63,1.4-1.4,1.4-1.4-.63-1.4-1.4.63-1.4,1.4-1.4h0ZM14.13,4.24c.77,0,1.4.63,1.4,1.4s-.63,1.4-1.4,1.4-1.4-.63-1.4-1.4.63-1.4,1.4-1.4h0ZM9.89,25.46c.77,0,1.4.63,1.4,1.4s-.63,1.4-1.4,1.4-1.4-.63-1.4-1.4.63-1.4,1.4-1.4h0ZM9.89,21.22c.77,0,1.4.63,1.4,1.4s-.63,1.4-1.4,1.4-1.4-.63-1.4-1.4.63-1.4,1.4-1.4h0ZM9.89,16.97c.77,0,1.4.63,1.4,1.4s-.63,1.4-1.4,1.4-1.4-.63-1.4-1.4.63-1.4,1.4-1.4h0ZM9.89,8.49c.77,0,1.4.63,1.4,1.4s-.63,1.4-1.4,1.4-1.4-.63-1.4-1.4.63-1.4,1.4-1.4h0ZM9.89,4.24c.77,0,1.4.63,1.4,1.4s-.63,1.4-1.4,1.4-1.4-.63-1.4-1.4.63-1.4,1.4-1.4h0ZM9.89,0c.77,0,1.4.63,1.4,1.4s-.63,1.4-1.4,1.4-1.4-.63-1.4-1.4.63-1.4,1.4-1.4h0ZM5.64,25.46c.77,0,1.4.63,1.4,1.4s-.63,1.4-1.4,1.4-1.4-.63-1.4-1.4.63-1.4,1.4-1.4h0ZM5.64,21.22c.77,0,1.4.63,1.4,1.4s-.63,1.4-1.4,1.4-1.4-.63-1.4-1.4.63-1.4,1.4-1.4h0ZM5.64,4.24c.77,0,1.4.63,1.4,1.4s-.63,1.4-1.4,1.4-1.4-.63-1.4-1.4.63-1.4,1.4-1.4h0ZM5.64,0c.77,0,1.4.63,1.4,1.4s-.63,1.4-1.4,1.4-1.4-.63-1.4-1.4.63-1.4,1.4-1.4h0ZM1.4,25.46c.77,0,1.4.63,1.4,1.4s-.63,1.4-1.4,1.4-1.4-.63-1.4-1.4.63-1.4,1.4-1.4Z"/>
  </g>
</svg>