<?xml version="1.0" encoding="UTF-8"?>
<svg id="Layer_2" data-name="Layer 2" xmlns="http://www.w3.org/2000/svg" viewBox="0 0 65.36 67.4">
  <g id="Layer_1-2" data-name="Layer 1">
    <g>
      <path d="M30.62,45.61c-.66,0-1.3-.26-1.77-.73l-9.41-9.41c-.98-.98-.98-2.56,0-3.54.98-.98,2.56-.98,3.54,0l7.64,7.64,17.05-17.05c.98-.98,2.56-.98,3.54,0,.98.98.98,2.56,0,3.54l-18.82,18.82c-.47.47-1.1.73-1.77.73Z"/>
      <path d="M32.68,67.4c-2.66,0-5.31-.82-7.58-2.47-1.36-.99-2.96-1.51-4.64-1.51-5.6,0-10.53-3.58-12.27-8.91-.52-1.6-1.51-2.96-2.87-3.95-4.53-3.29-6.42-9.09-4.68-14.42.52-1.6.52-3.28,0-4.88-1.73-5.33.15-11.12,4.69-14.42,1.36-.99,2.35-2.35,2.87-3.95,1.73-5.33,6.66-8.91,12.27-8.91,1.68,0,3.28-.52,4.64-1.51,4.53-3.29,10.63-3.29,15.16,0h0c1.36.99,2.96,1.51,4.64,1.51,5.6,0,10.53,3.58,12.27,8.91.52,1.6,1.51,2.96,2.87,3.95,4.53,3.29,6.42,9.09,4.69,14.42-.52,1.6-.52,3.28,0,4.88,1.73,5.33-.15,11.12-4.69,14.42-1.36.99-2.35,2.35-2.87,3.95-1.73,5.33-6.66,8.91-12.27,8.91-1.68,0-3.28.52-4.64,1.51-2.27,1.65-4.92,2.47-7.58,2.47ZM32.68,5c-1.63,0-3.25.5-4.64,1.51-2.22,1.61-4.84,2.46-7.58,2.46-3.43,0-6.45,2.19-7.51,5.46-.85,2.61-2.47,4.84-4.68,6.45-2.78,2.02-3.93,5.57-2.87,8.83.85,2.61.85,5.36,0,7.97-1.06,3.26.09,6.81,2.87,8.83,2.22,1.61,3.84,3.84,4.69,6.45,1.06,3.26,4.08,5.46,7.51,5.46,2.74,0,5.36.85,7.58,2.46,2.78,2.02,6.51,2.02,9.28,0,2.22-1.61,4.84-2.46,7.58-2.46,3.43,0,6.45-2.19,7.51-5.46.85-2.61,2.47-4.84,4.68-6.45,2.78-2.02,3.93-5.57,2.87-8.83-.85-2.61-.85-5.36,0-7.97,1.06-3.26-.09-6.81-2.87-8.83-2.22-1.61-3.84-3.84-4.69-6.45-1.06-3.26-4.08-5.46-7.51-5.46-2.74,0-5.36-.85-7.58-2.46h0c-1.39-1.01-3.01-1.51-4.64-1.51Z"/>
    </g>
  </g>
</svg>