<?xml version="1.0" encoding="UTF-8"?>
<svg id="Layer_2" data-name="Layer 2" xmlns="http://www.w3.org/2000/svg" viewBox="0 0 30.14 22.48">
  <defs>
    <style>
      .cls-1 {
        fill: #fff;
        fill-rule: evenodd;
      }
    </style>
  </defs>
  <g id="Layer_1-2" data-name="Layer 1">
    <path class="cls-1" d="M17.94,22.13l11.67-9.75c.35-.29.53-.68.53-1.14s-.18-.84-.53-1.14L17.94.35c-.45-.38-1.04-.45-1.58-.2-.53.25-.85.75-.85,1.34v19.51c0,.59.32,1.09.85,1.34.53.25,1.12.17,1.58-.2h0ZM2.43,22.13l11.67-9.75c.35-.29.53-.68.53-1.14s-.18-.84-.53-1.14L2.43.35C1.98-.03,1.39-.1.85.14.32.39,0,.9,0,1.49v19.51C0,21.58.32,22.08.85,22.33c.53.25,1.12.17,1.58-.2Z"/>
  </g>
</svg>