<?xml version="1.0" encoding="UTF-8"?>
<svg id="Layer_2" data-name="Layer 2" xmlns="http://www.w3.org/2000/svg" viewBox="0 0 28.2 25.65">
  <defs>
    <style>
      .cls-1 {
        fill: #fff;
        fill-rule: evenodd;
      }
    </style>
  </defs>
  <g id="Layer_1-2" data-name="Layer 1">
    <path class="cls-1" d="M4.06,0c3.81.52,5.71,4.78,7.56,8.94,1.89,4.24,3.72,8.35,7.3,7.29.1-.03.19-.04.29-.03,1.08.12,2.14.47,3.13.96,1.69.83,3.19,2.08,4.23,3.37,1.11,1.37,1.73,2.82,1.6,3.94-.03.26-.1.52-.22.75-.13.26-.38.41-.65.41h0s-11.79,0-11.79,0c-.13,0-.26-.04-.36-.1-1.79-.86-3.27-3.99-4.76-7.14-1.49-3.16-3-6.36-4.42-6.75l-.82,13.3c-.02.39-.34.69-.73.68h0s-1.63,0-1.63,0c-.4,0-.73-.33-.73-.73l-.8-13.74c-.11-.16-.21-.33-.3-.5C-.14,8.7-.21,6.55.31,4.69.82,2.82,1.93,1.23,3.19.35c.14-.09.28-.18.42-.26.14-.08.3-.11.45-.09Z"/>
  </g>
</svg>