<?xml version="1.0" encoding="UTF-8"?>
<svg id="Layer_2" data-name="Layer 2" xmlns="http://www.w3.org/2000/svg" viewBox="0 0 30.98 8.86">
  <defs>
    <style>
      .cls-1 {
        fill: #fff;
        fill-rule: evenodd;
      }
    </style>
  </defs>
  <g id="Layer_1-2" data-name="Layer 1">
    <path class="cls-1" d="M20.31.07l9.74,3.1c.56.18.93.68.93,1.27s-.37,1.09-.93,1.27l-9.74,3.1c-.47.15-.95.04-1.31-.29l-2.75-2.53c-.26-.24-.56-.35-.9-.35h-7.19c-.49,0-.91.24-1.16.67-.17.29-.37.56-.61.79-.68.68-1.62,1.1-2.65,1.1s-1.97-.42-2.65-1.1c-.68-.68-1.1-1.62-1.1-2.65s.42-1.97,1.1-2.65c.68-.68,1.62-1.1,2.65-1.1s1.97.42,2.65,1.1c.24.24.44.5.61.79.24.43.66.67,1.16.67h7.19c.35,0,.65-.12.9-.35l2.75-2.53c.36-.33.84-.44,1.31-.29h0ZM4.68,3.5c-.24-.24-.57-.39-.93-.39s-.69.15-.93.39c-.24.24-.39.57-.39.93s.15.69.39.93c.24.24.57.39.93.39s.69-.15.93-.39c.24-.24.39-.57.39-.93s-.15-.69-.39-.93Z"/>
  </g>
</svg>