<?xml version="1.0" encoding="UTF-8"?>
<svg id="Layer_2" data-name="Layer 2" xmlns="http://www.w3.org/2000/svg" viewBox="0 0 21.49 29.47">
  <defs>
    <style>
      .cls-1 {
        fill: #fff;
        fill-rule: evenodd;
      }
    </style>
  </defs>
  <g id="Layer_1-2" data-name="Layer 1">
    <path class="cls-1" d="M10.75,0c1.7,0,3.23.69,4.35,1.8,1.11,1.11,1.8,2.65,1.8,4.35s-.69,3.23-1.8,4.35c-1.11,1.11-2.65,1.8-4.35,1.8s-3.23-.69-4.35-1.8c-1.11-1.11-1.8-2.65-1.8-4.35s.69-3.23,1.8-4.35c1.11-1.11,2.65-1.8,4.35-1.8h0ZM0,23.59c0-2.82,1.15-5.38,3.01-7.23,1.86-1.86,4.42-3.01,7.23-3.01h1.01c2.82,0,5.38,1.15,7.23,3.01,1.86,1.86,3.01,4.42,3.01,7.23,0,.27-.17.51-.4.61l-10.04,5.2c-.2.1-.42.1-.61,0L.36,24.18c-.23-.12-.36-.35-.36-.59h0Z"/>
  </g>
</svg>