<?xml version="1.0" encoding="UTF-8"?>
<svg id="Layer_2" data-name="Layer 2" xmlns="http://www.w3.org/2000/svg" viewBox="0 0 160.62 160.6">
  <defs>
    <style>
      .cls-1 {
        fill: #080a16;
      }
    </style>
  </defs>
  <g id="Calque_1" data-name="Calque 1">
    <path class="cls-1" d="M120.46,0c-22.18,0-40.15,17.97-40.15,40.15C80.31,17.97,62.33,0,40.15,0S0,17.97,0,40.15v80.3c0,22.18,17.99,40.15,40.15,40.15s40.16-17.97,40.16-40.15c0,22.18,17.97,40.15,40.15,40.15s40.15-17.97,40.15-40.15V40.15c0-22.18-17.99-40.15-40.15-40.15ZM40.16,7.76c17.86,0,32.39,14.53,32.39,32.39s-14.53,32.39-32.39,32.39S7.76,58.01,7.76,40.15,22.29,7.76,40.16,7.76ZM120.46,152.84c-17.87,0-32.39-14.53-32.39-32.39s14.52-32.39,32.39-32.39,32.39,14.53,32.39,32.39-14.53,32.39-32.39,32.39Z"/>
  </g>
</svg>