<?xml version="1.0" encoding="UTF-8"?>
<svg id="Layer_2" data-name="Layer 2" xmlns="http://www.w3.org/2000/svg" viewBox="0 0 24.31 24.31">
  <defs>
    <style>
      .cls-1 {
        fill: #fff;
        fill-rule: evenodd;
      }
    </style>
  </defs>
  <g id="Layer_1-2" data-name="Layer 1">
    <path class="cls-1" d="M14.47,2.14c.56.13,1.1.3,1.62.52.53.22,1.04.48,1.52.78l1.22-.97c.27-.21.65-.19.88.05h0s2.09,2.09,2.09,2.09c.26.26.26.68,0,.94l-.93,1.17c.3.48.56.99.78,1.52.21.52.39,1.06.52,1.62l1.55.17c.34.04.59.33.59.66v2.96c0,.36-.28.65-.63.67l-1.51.17c-.13.56-.3,1.1-.52,1.62-.22.53-.48,1.04-.78,1.52l.97,1.22c.21.27.19.65-.05.88h0s-2.09,2.09-2.09,2.09c-.26.26-.68.26-.94,0l-1.17-.93c-.48.3-.99.56-1.52.78-.52.21-1.06.39-1.62.52l-.17,1.55c-.04.34-.33.59-.66.59h-2.96c-.36,0-.65-.28-.67-.63l-.17-1.51c-.56-.13-1.1-.3-1.62-.52-.53-.22-1.04-.48-1.52-.78l-1.22.97c-.27.21-.65.19-.88-.05h0s-2.09-2.09-2.09-2.09c-.26-.26-.26-.68,0-.94l.93-1.17c-.3-.48-.56-.99-.78-1.52-.21-.52-.39-1.06-.52-1.62l-1.55-.17C.25,14.26,0,13.97,0,13.63v-2.96c0-.36.28-.65.63-.67l1.51-.17c.13-.56.3-1.1.52-1.62.22-.53.48-1.04.78-1.52l-.97-1.22c-.21-.27-.19-.65.05-.88h0s2.09-2.09,2.09-2.09c.26-.26.68-.26.94,0l1.17.93c.48-.3.99-.56,1.52-.78.52-.21,1.06-.39,1.62-.52l.17-1.55C10.06.25,10.34,0,10.68,0h2.96c.36,0,.65.28.67.63l.17,1.51h0ZM15.18,9.14c-.77-.77-1.84-1.25-3.02-1.25s-2.25.48-3.02,1.25-1.25,1.84-1.25,3.02.48,2.25,1.25,3.02c.77.77,1.84,1.25,3.02,1.25s2.25-.48,3.02-1.25,1.25-1.84,1.25-3.02-.48-2.25-1.25-3.02Z"/>
  </g>
</svg>