<?xml version="1.0" encoding="UTF-8"?>
<svg id="Layer_2" data-name="Layer 2" xmlns="http://www.w3.org/2000/svg" viewBox="0 0 160.54 153.04">
  <defs>
    <style>
      .cls-1 {
        fill: #080a16;
      }
    </style>
  </defs>
  <g id="Calque_1" data-name="Calque 1">
    <path class="cls-1" d="M83.58,2.06l21.95,44.47c.54,1.09,1.58,1.84,2.78,2.02l49.08,7.13c3.03.44,4.23,4.16,2.04,6.29l-35.51,34.62c-.87.85-1.27,2.07-1.06,3.26l8.38,48.88c.52,3.01-2.65,5.31-5.35,3.89l-43.89-23.08c-1.07-.56-2.36-.56-3.43,0l-43.89,23.08c-2.71,1.42-5.87-.88-5.35-3.89l8.38-48.88c.21-1.2-.19-2.42-1.06-3.26L1.12,61.97c-2.19-2.13-.98-5.85,2.04-6.29l49.08-7.13c1.2-.17,2.24-.93,2.78-2.02L76.96,2.06c1.35-2.74,5.26-2.74,6.62,0Z"/>
  </g>
</svg>