<?xml version="1.0" encoding="UTF-8"?>
<svg id="Layer_2" data-name="Layer 2" xmlns="http://www.w3.org/2000/svg" viewBox="0 0 26.03 26.03">
  <defs>
    <style>
      .cls-1 {
        fill: #fff;
        fill-rule: evenodd;
      }
    </style>
  </defs>
  <g id="Layer_1-2" data-name="Layer 1">
    <path class="cls-1" d="M13.01,0c7.19,0,13.01,5.83,13.01,13.01s-5.83,13.01-13.01,13.01S0,20.2,0,13.01,5.83,0,13.01,0h0ZM13.01,10.61c-.66,0-1.26.27-1.7.7-.43.43-.7,1.03-.7,1.7s.27,1.26.7,1.7c.43.43,1.03.7,1.7.7s1.26-.27,1.7-.7c.43-.43.7-1.03.7-1.7s-.27-1.26-.7-1.7c-.43-.43-1.03-.7-1.7-.7h0ZM13.01,9.11c1.3,0,2.45.63,3.16,1.61.15.21.37.32.62.32h5.15c.25,0,.47-.11.62-.31.15-.2.19-.44.12-.69-1.27-4.13-5.12-7.14-9.67-7.14S4.62,5.9,3.35,10.04c-.07.24-.03.48.12.69.15.2.37.31.62.31h5.15c.26,0,.47-.11.62-.32.71-.97,1.86-1.61,3.16-1.61h0ZM16.17,15.31c-.31.42-.7.78-1.15,1.06-.24.14-.38.38-.38.66v5.01c0,.25.1.46.3.61.2.15.43.2.67.13,3.37-.89,6.05-3.48,7.07-6.8.07-.24.03-.48-.12-.69-.15-.2-.37-.31-.62-.31h-5.15c-.26,0-.47.11-.62.32h0ZM11.05,16.39c-.47-.27-.88-.64-1.19-1.08-.15-.21-.37-.32-.62-.32h-5.15c-.25,0-.47.11-.62.31-.15.2-.19.44-.12.69,1.02,3.33,3.73,5.93,7.12,6.81.24.06.47.01.67-.14.2-.15.3-.36.3-.61v-5c0-.28-.14-.53-.38-.67Z"/>
  </g>
</svg>