<?xml version="1.0" encoding="UTF-8"?>
<svg id="Layer_2" data-name="Layer 2" xmlns="http://www.w3.org/2000/svg" viewBox="0 0 24.59 23.54">
  <defs>
    <style>
      .cls-1 {
        fill: #fff;
        fill-rule: evenodd;
      }
    </style>
  </defs>
  <g id="Layer_1-2" data-name="Layer 1">
    <path class="cls-1" d="M13.88,1.41l.79,6.65c.02.18.07.34.15.47.08.13.19.26.34.36.14.1.29.17.45.21.16.03.32.03.5,0l6.57-1.31c.4-.08.79,0,1.12.19.33.19.59.5.71.89.13.39.1.79-.05,1.14-.15.35-.43.64-.8.81l-6.09,2.81c-.16.07-.29.17-.4.29l-.02.03c-.09.11-.17.25-.22.41-.06.17-.08.33-.06.49.02.16.07.31.15.47l3.27,5.85.02.05c.18.34.22.72.14,1.08-.08.37-.3.71-.62.95l-.06.04c-.32.21-.68.3-1.04.26h-.02c-.37-.05-.72-.22-.99-.51l-4.55-4.92c-.12-.13-.25-.23-.4-.29-.14-.06-.31-.09-.49-.09s-.34.03-.49.09c-.15.06-.28.16-.4.29l-4.55,4.92c-.28.3-.64.47-1.02.51-.38.04-.77-.06-1.1-.3h0c-.33-.24-.54-.58-.62-.95-.08-.37-.03-.77.17-1.12,1.11-1.94,2.15-3.96,3.29-5.88.08-.15.12-.29.14-.44.02-.16,0-.32-.06-.49-.05-.17-.14-.31-.24-.43-.11-.12-.24-.22-.4-.29L.93,10.82c-.37-.17-.64-.46-.8-.81-.15-.35-.18-.75-.06-1.14.13-.39.39-.69.71-.89.33-.19.72-.27,1.12-.19l6.57,1.31c.18.03.34.03.5,0,.15-.03.3-.1.45-.21.15-.11.26-.23.34-.36.08-.13.13-.29.15-.47l.79-6.65c.05-.4.24-.76.53-1.01.28-.25.66-.4,1.06-.4s.78.15,1.06.4c.28.25.48.61.53,1.01Z"/>
  </g>
</svg>