<?xml version="1.0" encoding="UTF-8"?>
<svg id="Layer_2" data-name="Layer 2" xmlns="http://www.w3.org/2000/svg" viewBox="0 0 31.96 23.2">
  <defs>
    <style>
      .cls-1 {
        fill: #fff;
        fill-rule: evenodd;
      }
    </style>
  </defs>
  <g id="Layer_1-2" data-name="Layer 1">
    <path class="cls-1" d="M1.34,0h4.44c.56,0,1.04.33,1.24.85,1.3,3.36,4.56,5.74,8.38,5.74,2.97,0,5.61-1.45,7.25-3.67.25-.34.6-.52,1.02-.54.42-.02.78.14,1.06.45l6.91,7.89c.44.5.44,1.25,0,1.75l-6.91,7.89c-.28.31-.64.47-1.06.45-.42-.02-.77-.21-1.02-.54-1.64-2.23-4.27-3.67-7.25-3.67-3.82,0-7.08,2.38-8.38,5.74-.2.52-.68.85-1.24.85H1.34c-.53,0-.99-.29-1.21-.78-.22-.49-.14-1.02.21-1.43l7.45-8.51c.44-.51.44-1.25,0-1.75L.33,2.21C-.02,1.81-.1,1.27.12.78c.22-.49.68-.78,1.21-.78Z"/>
  </g>
</svg>