<?xml version="1.0" encoding="UTF-8"?>
<svg id="Layer_2" data-name="Layer 2" xmlns="http://www.w3.org/2000/svg" viewBox="0 0 14.83 25.64">
  <defs>
    <style>
      .cls-1 {
        fill: #fff;
        fill-rule: evenodd;
      }
    </style>
  </defs>
  <g id="Layer_1-2" data-name="Layer 1">
    <path class="cls-1" d="M0,17.33v-9.02c0-.59.24-1.13.63-1.52.39-.39.93-.63,1.52-.63h8.69c.59,0,1.13.24,1.52.63h0c.39.39.63.93.63,1.52v9.02c0,.59-.24,1.13-.63,1.52l-.04.04c-.39.37-.91.59-1.48.59H2.16c-.59,0-1.13-.24-1.52-.63-.39-.39-.63-.93-.63-1.52h0ZM2.29,25.02l-.35-4.88c.07,0,.15,0,.22,0h8.69c.1,0,.2,0,.29-.02l-.35,4.85c0,.36-.3.65-.67.65H2.95c-.35,0-.64-.27-.66-.62h0ZM1.94,5.5l.35-4.88C2.31.27,2.6,0,2.95,0h7.18c.36,0,.66.29.67.65l.35,4.85c-.1-.01-.19-.02-.29-.02H2.16c-.07,0-.15,0-.22,0h0ZM5.48,8.74v4.08c0,.27.16.5.39.61l3.2,1.73c.32.17.73.05.9-.27.17-.32.05-.73-.27-.9l-2.88-1.56v-3.68c0-.37-.3-.67-.67-.67s-.67.3-.67.67h0ZM13.67,9.22h.49c.37,0,.67.3.67.67v2c0,.37-.3.67-.67.67h-.49v-3.33h0ZM13.67,13.09h.49c.37,0,.67.3.67.67v2c0,.37-.3.67-.67.67h-.49v-3.33Z"/>
  </g>
</svg>