<?xml version="1.0" encoding="UTF-8"?>
<svg id="Layer_2" data-name="Layer 2" xmlns="http://www.w3.org/2000/svg" viewBox="0 0 22.8 24.44">
  <defs>
    <style>
      .cls-1 {
        fill: #fff;
        fill-rule: evenodd;
      }
    </style>
  </defs>
  <g id="Layer_1-2" data-name="Layer 1">
    <path class="cls-1" d="M13.9,3.87l3-1.98c.14-.12.34-.17.53-.14.36.06.6.41.54.77l-.64,3.59,3.64-.22h0c.16,0,.33.04.47.16.28.24.32.65.08.93l-2.36,2.79,3.23,1.62c.16.07.3.2.36.38.12.35-.05.73-.4.85l-3.44,1.24,1.98,3c.12.14.17.34.14.53-.06.36-.41.6-.77.54l-3.59-.64.22,3.64h0c0,.16-.04.33-.15.47-.24.28-.65.32-.93.08l-2.79-2.36-1.62,3.24c-.07.17-.22.31-.41.37-.35.11-.72-.09-.83-.44l-.98-3.18-7.47,5.18c-.21.14-.48.16-.71.03-.32-.19-.42-.59-.24-.91l4.04-6.88-2.9.31h0c-.17.02-.35-.03-.5-.15-.28-.24-.32-.65-.08-.93l2.35-2.79-3.23-1.62c-.16-.07-.29-.2-.36-.38-.12-.35.05-.73.4-.85l3.44-1.24-1.98-3c-.12-.14-.17-.34-.14-.53.06-.36.41-.6.77-.54l3.59.64-.22-3.64h0c0-.16.04-.33.15-.47.24-.28.65-.32.93-.08l2.79,2.36,1.62-3.23c.07-.16.2-.29.38-.36.35-.12.73.05.85.4l1.24,3.44Z"/>
  </g>
</svg>