<?xml version="1.0" encoding="UTF-8"?>
<svg id="Layer_2" data-name="Layer 2" xmlns="http://www.w3.org/2000/svg" viewBox="0 0 21.88 27.28">
  <defs>
    <style>
      .cls-1 {
        fill: #fff;
        fill-rule: evenodd;
      }
    </style>
  </defs>
  <g id="Layer_1-2" data-name="Layer 1">
    <path class="cls-1" d="M14.28,13.13c1.67.54,3.18,1.47,4.39,2.69,1.98,1.98,3.21,4.72,3.21,7.73v1.31c0,.66-.27,1.27-.71,1.7-.44.44-1.04.71-1.7.71H2.41c-.66,0-1.27-.27-1.7-.71-.44-.44-.71-1.04-.71-1.7v-1.31c0-3.01,1.23-5.75,3.21-7.73.67-.67,1.42-1.25,2.24-1.73.69.59,1.51,1.07,2.42,1.4.61.22,1.25.38,1.92.46.06.11.13.21.22.29.23.23.54.37.89.37s.66-.14.88-.37h0c.23-.23.37-.54.37-.89s-.14-.66-.37-.89c-.23-.23-.54-.37-.89-.37s-.66.14-.89.37c-.05.05-.1.11-.14.17-.54-.07-1.06-.2-1.54-.37-.57-.21-1.1-.49-1.57-.82.26-.11.53-.21.8-.3-.59-.32-1.13-.73-1.61-1.2-.76-.76-1.35-1.69-1.69-2.74-.06.07-.14.13-.23.18.08,1.52.81,2.9,1.97,3.92,1.07.94,2.49,1.57,4.08,1.72v-.02s0,0,0,0h0s0-.02,0-.02h0s0-.02,0-.02h0s0-.02,0-.02h0s0-.02,0-.02h0s0-.02,0-.02h0s0-.02,0-.02h0s0-.01,0-.01h0s0-.01,0-.01h0s0-.01,0-.01h0s0-.01,0-.01h0s0-.02,0-.02h0s0-.02,0-.02h0s0-.02,0-.02h0s.01-.02.01-.02h0s0-.01,0-.01h.01s0-.02,0-.02h0s.01-.01.01-.01h0s.01-.01.01-.01h0s.02-.02.02-.02h0s.01-.01.01-.01h0s.01-.01.01-.01h0s0,0,0,0h.01s0-.02,0-.02h.01s0,0,0,0h.01s0-.01,0-.01h.01s0-.01,0-.01h0s.01-.01.01-.01h0s.01-.01.01-.01h0s.01,0,.01,0h0s0,0,0,0h.01s0,0,0,0h.01s0,0,0,0h.01s0,0,0,0h0s.01,0,.01,0h0s.02,0,.02,0h0s.01,0,.01,0h0s.02,0,.02,0h0s.01,0,.01,0h0s.02,0,.02,0h0s.01,0,.01,0h0s0,0,0,0h.01s0,0,0,0h.02s0,0,0,0h.01s0,0,0,0h0s.01,0,.01,0h0s.02,0,.02,0h0s.01,0,.01,0h0s0,0,0,0h.01s0,0,0,0h.02s0,0,0,0h.02s0,0,0,0h.01s.01,0,.01,0h0s.02,0,.02,0c.49,0,.89.4.89.89s-.4.89-.89.89h-.02s0,0,0,0h-.01s0,0,0,0h-.01s-.01,0-.01,0h0s-.02,0-.02,0h0s-.02,0-.02,0h0s-.02,0-.02,0h0s-.01,0-.01,0h0s0,0,0,0h-.01s0,0,0,0h-.02s0,0,0,0h-.02s0,0,0,0h-.01s0,0,0,0h-.01s-.01,0-.01,0h0s-.01,0-.01,0h0s-.02,0-.02,0h0s-.02,0-.02,0h0s-.01,0-.01,0h0s0,0,0,0h-.01s0,0,0,0h-.02s0,0,0,0h-.02s0,0,0,0h-.01s0,0,0,0h0s-.03-.02-.03-.02h-.01s0,0,0,0h-.01s0-.01,0-.01h-.01s-.01-.02-.01-.02h0s0-.01,0-.01h-.01s0-.01,0-.01c-.01-.01-.03-.02-.04-.03h0s0-.01,0-.01h0s0-.01,0-.01c-.03-.03-.06-.06-.08-.09h0s0-.01,0-.01h0s0-.01,0-.01c-.03-.04-.05-.08-.07-.12v-.02s-.02-.03-.02-.03h0s0-.02,0-.02c-.01-.03-.02-.06-.03-.08-1.72-.16-3.27-.84-4.43-1.87-1.27-1.12-2.08-2.64-2.17-4.32-.28-.1-.48-.37-.48-.68v-.14c-.26-.11-.44-.37-.44-.67v-1.87c0-.3.18-.56.44-.67v-.3c0-.4.33-.73.73-.73.25,0,.46.12.6.31.35-1,.92-1.89,1.65-2.62,1.27-1.27,3.02-2.05,4.95-2.05s3.68.78,4.95,2.05c.72.72,1.28,1.6,1.64,2.58.13-.11.3-.18.48-.18.4,0,.73.33.73.73v.06c.37.04.66.35.66.73v1.87c0,.38-.29.69-.66.73v.27c0,.4-.33.73-.73.73-.18,0-.35-.07-.48-.18-.35.98-.92,1.85-1.64,2.58-.46.46-.99.86-1.57,1.18Z"/>
  </g>
</svg>