<?xml version="1.0" encoding="UTF-8"?>
<svg id="Layer_2" data-name="Layer 2" xmlns="http://www.w3.org/2000/svg" viewBox="0 0 24.5 24.5">
  <defs>
    <style>
      .cls-1 {
        fill: #fff;
        fill-rule: evenodd;
      }
    </style>
  </defs>
  <g id="Layer_1-2" data-name="Layer 1">
    <path class="cls-1" d="M16.8,13.59l-10.77,10.77c-.18.18-.48.18-.66,0L.14,19.12c-.18-.18-.18-.48,0-.66L10.9,7.7,5.62,2.42c-.07-.08-.12-.18-.13-.29-.02-.26.17-.48.42-.51L23.98,0s.06,0,.09,0c.26.02.45.25.42.51l-1.62,18.05c0,.11-.05.23-.14.32-.18.18-.48.18-.66,0l-5.28-5.28Z"/>
  </g>
</svg>