<?xml version="1.0" encoding="UTF-8"?>
<svg id="Layer_2" data-name="Layer 2" xmlns="http://www.w3.org/2000/svg" viewBox="0 0 25.57 24.42">
  <defs>
    <style>
      .cls-1 {
        fill: #fff;
        fill-rule: evenodd;
      }
    </style>
  </defs>
  <g id="Layer_1-2" data-name="Layer 1">
    <path class="cls-1" d="M9.59,20.98l9.81-7.72c.33-.26.51-.62.51-1.05s-.18-.79-.51-1.05L9.59,3.45c-.33-.26-.51-.62-.51-1.05v-1.07c0-.52.28-.97.75-1.2.47-.23.99-.17,1.41.15l13.82,10.88c.33.26.51.62.51,1.05s-.18.79-.51,1.05c-4.61,3.63-9.21,7.25-13.82,10.88-.41.32-.94.38-1.41.15-.47-.23-.75-.68-.75-1.2v-1.07c0-.42.18-.79.51-1.05h0ZM7.95,18.2l6.28-4.94c.33-.26.51-.62.51-1.05s-.18-.79-.51-1.05l-6.27-4.93c-.5-.4-1.2-.38-1.69.03L.47,11.24C.16,11.5,0,11.85,0,12.25c0,.4.16.75.47,1.01l5.8,4.9c.49.41,1.18.42,1.68.03Z"/>
  </g>
</svg>