<?xml version="1.0" encoding="UTF-8"?>
<svg id="Layer_2" data-name="Layer 2" xmlns="http://www.w3.org/2000/svg" viewBox="0 0 27.44 26.99">
  <defs>
    <style>
      .cls-1 {
        fill: #fff;
        fill-rule: evenodd;
      }
    </style>
  </defs>
  <g id="Layer_1-2" data-name="Layer 1">
    <path class="cls-1" d="M23.01,17.09l4.21,4.16c.13.13.21.31.22.5,0,.4-.31.73-.71.74l-3.66.09v3.67c0,.19-.07.37-.21.52-.28.28-.75.28-1.03,0l-5.27-5.27c.51-.13,1.01-.3,1.5-.5,1.43-.59,2.72-1.46,3.79-2.53.42-.43.82-.88,1.17-1.37h0ZM12.29,8.61h-1.28v-1.63l1.91-1.91h2.2v7.97h1.04v2.32h-5.15v-2.32h1.28v-4.42h0ZM10.84,21.56l-5.22,5.22c-.28.28-.75.28-1.03,0-.14-.14-.21-.33-.21-.52v-3.67s-3.66-.09-3.66-.09c-.4,0-.72-.34-.71-.74,0-.2.09-.37.22-.5l4.05-4c.32.43.68.83,1.06,1.21,1.07,1.07,2.36,1.94,3.79,2.53.55.23,1.13.42,1.72.56h0ZM17.49.77c-1.2-.5-2.52-.77-3.91-.77s-2.71.27-3.91.77c-1.24.52-2.37,1.27-3.31,2.22s-1.7,2.07-2.22,3.31c-.5,1.2-.77,2.52-.77,3.91,0,2.82,1.14,5.37,2.99,7.22.94.94,2.07,1.7,3.31,2.22,1.2.5,2.52.77,3.91.77s2.71-.27,3.91-.77c1.25-.52,2.37-1.28,3.31-2.22.94-.94,1.7-2.07,2.22-3.31.5-1.2.77-2.52.77-3.91,0-2.82-1.14-5.37-2.99-7.22-.94-.94-2.07-1.7-3.31-2.22Z"/>
  </g>
</svg>