<?xml version="1.0" encoding="UTF-8"?>
<svg id="Layer_2" data-name="Layer 2" xmlns="http://www.w3.org/2000/svg" viewBox="0 0 16.95 24.64">
  <defs>
    <style>
      .cls-1 {
        fill: #fff;
        fill-rule: evenodd;
      }
    </style>
  </defs>
  <g id="Layer_1-2" data-name="Layer 1">
    <path class="cls-1" d="M16.29,4.22H.67c-.37,0-.67-.3-.67-.67v-.85c0-.72.29-1.38.76-1.87l.04-.04c.49-.49,1.17-.79,1.91-.79h11.54c.74,0,1.42.3,1.91.79h0c.49.49.79,1.17.79,1.91v.85c0,.37-.3.67-.67.67h0ZM.67,5.06h15.62c.37,0,.67.3.67.67v18.24c0,.37-.3.67-.67.67h-3.35v-4.55c0-.37-.3-.67-.67-.67h-7.58c-.37,0-.67.3-.67.67v4.55H.67C.3,24.64,0,24.34,0,23.98V5.73C0,5.36.3,5.06.67,5.06h0ZM11.6,24.64v-3.88h-6.25v3.88h6.25Z"/>
  </g>
</svg>