<?xml version="1.0" encoding="UTF-8"?>
<svg id="Layer_2" data-name="Layer 2" xmlns="http://www.w3.org/2000/svg" viewBox="0 0 25.83 29.12">
  <defs>
    <style>
      .cls-1 {
        fill: #fff;
        fill-rule: evenodd;
      }
    </style>
  </defs>
  <g id="Layer_1-2" data-name="Layer 1">
    <path class="cls-1" d="M15.03,2.4c1.76.46,3.33,1.48,4.57,2.89,1.69,1.93,2.74,4.59,2.75,7.51.03,6.72.97,7.83,1.9,8.94.56.66,1.12,1.32,1.55,2.8.11.39-.11.79-.5.9-.07.02-.14.03-.2.03h0s-8.54,0-8.54,0c0,1.01-.41,1.92-1.07,2.58-.66.66-1.57,1.07-2.58,1.07s-1.92-.41-2.58-1.07h0c-.66-.66-1.07-1.57-1.07-2.58H.73c-.4,0-.73-.33-.73-.73,0-.09.02-.18.05-.27.43-1.43.98-2.08,1.53-2.74.94-1.11,1.87-2.22,1.9-8.94.01-2.92,1.06-5.58,2.75-7.51,1.23-1.41,2.81-2.43,4.57-2.89-.01-.09-.02-.18-.02-.27,0-.59.24-1.12.62-1.51.39-.39.92-.62,1.51-.62s1.12.24,1.5.63h0c.39.38.62.92.62,1.5,0,.09,0,.18-.02.27Z"/>
  </g>
</svg>