<?xml version="1.0" encoding="UTF-8"?>
<svg id="Layer_2" data-name="Layer 2" xmlns="http://www.w3.org/2000/svg" viewBox="0 0 51.53 69.29">
  <g id="Layer_1-2" data-name="Layer 1">
    <g>
      <path d="M19.89,69.29c-.64,0-1.28-.24-1.77-.73-.98-.98-.98-2.56,0-3.54l27.03-27.03c.89-.89,1.39-2.08,1.39-3.35s-.49-2.46-1.39-3.35L18.12,4.27c-.98-.98-.98-2.56,0-3.54s2.56-.98,3.54,0l27.03,27.03c3.8,3.8,3.8,9.97,0,13.77l-27.03,27.03c-.49.49-1.13.73-1.77.73Z"/>
      <path d="M2.5,57.53c-.64,0-1.28-.24-1.77-.73-.98-.98-.98-2.56,0-3.54l17.14-17.14c.81-.82.81-2.14,0-2.96L.73,16.03c-.98-.98-.98-2.56,0-3.54.98-.98,2.56-.98,3.54,0l17.14,17.14c2.76,2.76,2.76,7.26,0,10.03L4.27,56.8c-.49.49-1.13.73-1.77.73Z"/>
    </g>
  </g>
</svg>