<?xml version="1.0" encoding="UTF-8"?>
<svg id="Layer_2" data-name="Layer 2" xmlns="http://www.w3.org/2000/svg" viewBox="0 0 75.52 61.66">
  <g id="Layer_1-2" data-name="Layer 1">
    <g>
      <path d="M38.6,61.66c-.66,0-1.3-.26-1.77-.73-.49-.49-.76-1.17-.73-1.87l.37-8.93c.03-.63.29-1.22.73-1.67l23.73-23.73c3.33-3.34,8.76-3.34,12.1,0,3.33,3.33,3.33,8.76,0,12.1l-23.73,23.73c-.44.44-1.04.7-1.67.73l-8.93.37s-.07,0-.1,0ZM47.52,58.79h0,0ZM41.42,51.31l-.21,5.24,5.24-.22,23.04-23.04c1.39-1.39,1.39-3.64,0-5.03-1.39-1.38-3.64-1.39-5.03,0l-23.04,23.04Z"/>
      <path d="M23,61.66h-13.07c-5.48,0-9.93-4.46-9.93-9.93V9.93C0,4.46,4.46,0,9.93,0h49.73c5.48,0,9.93,4.46,9.93,9.93v5.27c0,1.38-1.12,2.5-2.5,2.5s-2.5-1.12-2.5-2.5v-5.27c0-2.72-2.21-4.93-4.93-4.93H9.93c-2.72,0-4.93,2.21-4.93,4.93v41.79c0,2.72,2.21,4.93,4.93,4.93h13.07c1.38,0,2.5,1.12,2.5,2.5s-1.12,2.5-2.5,2.5Z"/>
      <path d="M55.81,17.7h-14.8c-1.38,0-2.5-1.12-2.5-2.5s1.12-2.5,2.5-2.5h14.8c1.38,0,2.5,1.12,2.5,2.5s-1.12,2.5-2.5,2.5Z"/>
      <path d="M15.46,35.4c1.1,0,2.09.68,2.46,1.71.61,1.69,2.05,2.85,4.92,2.85s4.77-1.34,4.77-4.01c0-2.51-1.39-3.83-5.77-5.37-6.55-2.23-9.28-4.28-9.28-8.8s3.99-7.55,10.01-7.55c4.94,0,7.75,1.45,9.1,3.74,1,1.7-.39,3.84-2.36,3.84h0c-1.1,0-2.04-.71-2.47-1.72-.57-1.34-1.86-2.31-4.35-2.31-2.96,0-4.27,1.46-4.27,3.66s1.49,3.41,6.24,5.04c6.46,2.18,8.88,4.69,8.88,8.96,0,4.86-3.42,8.07-10.73,8.05-5.3,0-8.29-1.64-9.68-4.24-.93-1.74.39-3.86,2.37-3.86h.15ZM20.65,14.97v-1.62c0-1.21.98-2.2,2.2-2.2h0c1.21,0,2.2.98,2.2,2.2v1.62h-4.39ZM20.65,44.5v-1.87h4.39v1.87c0,1.21-.98,2.2-2.2,2.2h0c-1.21,0-2.2-.98-2.2-2.2Z"/>
    </g>
  </g>
</svg>