<?xml version="1.0" encoding="UTF-8"?>
<svg id="Layer_2" data-name="Layer 2" xmlns="http://www.w3.org/2000/svg" viewBox="0 0 20.99 22.81">
  <defs>
    <style>
      .cls-1 {
        fill: #fff;
        fill-rule: evenodd;
      }
    </style>
  </defs>
  <g id="Layer_1-2" data-name="Layer 1">
    <path class="cls-1" d="M19.9,15.46c.67-.67,1.09-1.6,1.09-2.62V3.71c0-1.02-.42-1.95-1.09-2.62-.67-.67-1.6-1.09-2.62-1.09H5.98c-1.02,0-1.95.42-2.62,1.09-.67.67-1.09,1.6-1.09,2.62v9.13c0,1.02.42,1.95,1.09,2.62s1.6,1.09,2.62,1.09h5.83l5.04,4.23c.28.24.7.2.94-.08.15-.18.19-.41.13-.62l-1.06-3.53h.42c1.02,0,1.95-.42,2.62-1.09h0ZM13.64,18.95c-.23.05-.46.08-.71.08h-5.03l-4.35,3.65c-.24.2-.6.17-.81-.07-.13-.15-.16-.35-.11-.53l.91-3.04h-.36c-.88,0-1.68-.36-2.26-.94-.58-.58-.94-1.38-.94-2.26v-7.87c0-.88.36-1.68.94-2.26.2-.2.42-.37.67-.51v7.64c0,.59.12,1.15.33,1.67h0c.22.54.55,1.02.95,1.42.4.4.88.73,1.42.95h0c.52.21,1.08.33,1.67.33h5.59l2.07,1.74h0ZM7.15,7.23c.68,0,1.24.55,1.24,1.24s-.55,1.24-1.24,1.24-1.24-.55-1.24-1.24.55-1.24,1.24-1.24h0ZM16.1,9.7c-.68,0-1.24-.55-1.24-1.24s.55-1.24,1.24-1.24,1.24.55,1.24,1.24-.55,1.24-1.24,1.24h0ZM12.86,8.47c0,.68-.55,1.24-1.24,1.24s-1.24-.55-1.24-1.24.55-1.24,1.24-1.24,1.24.55,1.24,1.24Z"/>
  </g>
</svg>