<?xml version="1.0" encoding="UTF-8"?>
<svg id="Layer_2" data-name="Layer 2" xmlns="http://www.w3.org/2000/svg" viewBox="0 0 70.55 60.96">
  <g id="Layer_1-2" data-name="Layer 1">
    <g>
      <path d="M35.28,38.55c-1.65,0-3.31-.37-4.85-1.11L3.23,24.41c-2-.96-3.23-2.92-3.23-5.14s1.24-4.18,3.23-5.14L30.43,1.11h0c3.08-1.47,6.61-1.47,9.69,0l27.2,13.03c2,.96,3.24,2.92,3.24,5.14s-1.24,4.18-3.23,5.14l-27.2,13.03c-1.54.74-3.19,1.11-4.85,1.11ZM32.59,5.62L5.4,18.65c-.33.16-.4.43-.4.63s.07.47.4.63l27.2,13.03c1.71.82,3.66.82,5.37,0l27.2-13.03c.33-.16.4-.43.4-.63s-.07-.47-.4-.63l-27.19-13.03c-1.71-.82-3.66-.82-5.37,0Z"/>
      <path d="M45.03,60.96h-19.51c-7.55,0-13.7-6.14-13.7-13.7v-20.31c0-1.38,1.12-2.5,2.5-2.5s2.5,1.12,2.5,2.5v20.31c0,4.79,3.9,8.7,8.7,8.7h19.51c4.79,0,8.7-3.9,8.7-8.7v-20.31c0-1.38,1.12-2.5,2.5-2.5s2.5,1.12,2.5,2.5v20.31c0,7.55-6.14,13.7-13.7,13.7Z"/>
      <path d="M68.05,50.89c-1.38,0-2.5-1.12-2.5-2.5v-29.12c0-1.38,1.12-2.5,2.5-2.5s2.5,1.12,2.5,2.5v29.12c0,1.38-1.12,2.5-2.5,2.5Z"/>
    </g>
  </g>
</svg>