<?xml version="1.0" encoding="UTF-8"?>
<svg id="Layer_2" data-name="Layer 2" xmlns="http://www.w3.org/2000/svg" viewBox="0 0 78.75 78.75">
  <g id="Layer_1-2" data-name="Layer 1">
    <g>
      <path d="M27.08,78.75H2.5c-1.38,0-2.5-1.12-2.5-2.5v-24.58c0-1.38,1.12-2.5,2.5-2.5h24.58c1.38,0,2.5,1.12,2.5,2.5v24.58c0,1.38-1.12,2.5-2.5,2.5ZM5,73.75h19.58v-19.58H5v19.58Z"/>
      <path d="M51.66,78.75h-24.58c-1.38,0-2.5-1.12-2.5-2.5v-24.58c0-1.38,1.12-2.5,2.5-2.5h24.58c1.38,0,2.5,1.12,2.5,2.5v24.58c0,1.38-1.12,2.5-2.5,2.5ZM29.58,73.75h19.58v-19.58h-19.58v19.58Z"/>
      <path d="M76.25,78.75h-24.58c-1.38,0-2.5-1.12-2.5-2.5v-24.58c0-1.38,1.12-2.5,2.5-2.5h24.58c1.38,0,2.5,1.12,2.5,2.5v24.58c0,1.38-1.12,2.5-2.5,2.5ZM54.16,73.75h19.58v-19.58h-19.58v19.58Z"/>
      <path d="M76.25,54.16h-24.58c-1.38,0-2.5-1.12-2.5-2.5v-24.58c0-1.38,1.12-2.5,2.5-2.5h24.58c1.38,0,2.5,1.12,2.5,2.5v24.58c0,1.38-1.12,2.5-2.5,2.5ZM54.16,49.16h19.58v-19.58h-19.58v19.58Z"/>
      <path d="M76.25,29.58h-24.58c-1.38,0-2.5-1.12-2.5-2.5V2.5c0-1.38,1.12-2.5,2.5-2.5h24.58c1.38,0,2.5,1.12,2.5,2.5v24.58c0,1.38-1.12,2.5-2.5,2.5ZM54.16,24.58h19.58V5h-19.58v19.58Z"/>
      <path d="M51.66,54.16h-24.58c-1.38,0-2.5-1.12-2.5-2.5v-24.58c0-1.38,1.12-2.5,2.5-2.5h24.58c1.38,0,2.5,1.12,2.5,2.5v24.58c0,1.38-1.12,2.5-2.5,2.5ZM29.58,49.16h19.58v-19.58h-19.58v19.58Z"/>
    </g>
  </g>
</svg>