<?xml version="1.0" encoding="UTF-8"?>
<svg id="Layer_2" data-name="Layer 2" xmlns="http://www.w3.org/2000/svg" viewBox="0 0 23.77 23.2">
  <defs>
    <style>
      .cls-1 {
        fill: #fff;
        fill-rule: evenodd;
      }
    </style>
  </defs>
  <g id="Layer_1-2" data-name="Layer 1">
    <path class="cls-1" d="M12.52.49l1.82,6.57,6.27-2.67c.34-.14.73.01.87.35.09.22.06.47-.07.65l-4,5.52,6,3.24c.32.17.44.58.27.9-.12.22-.35.35-.59.35l-6.78.31,1.21,6.71c.06.36-.18.71-.54.77-.24.04-.47-.05-.62-.22l-4.49-5.13-4.49,5.13c-.24.28-.66.3-.94.06-.19-.16-.26-.41-.21-.64l1.21-6.69-6.81-.31c-.37-.02-.65-.33-.63-.69.01-.24.15-.45.35-.56l6-3.24L2.35,5.39c-.22-.3-.15-.71.15-.93.2-.15.47-.16.68-.06l6.25,2.66L11.24.49c.1-.35.46-.56.82-.46.23.06.4.25.46.47Z"/>
  </g>
</svg>