<?xml version="1.0" encoding="UTF-8"?>
<svg id="Layer_2" data-name="Layer 2" xmlns="http://www.w3.org/2000/svg" viewBox="0 0 30.16 31.81">
  <defs>
    <style>
      .cls-1 {
        fill: #fff;
        fill-rule: evenodd;
      }
    </style>
  </defs>
  <g id="Layer_1-2" data-name="Layer 1">
    <path class="cls-1" d="M18.27,0c6.87,2.02,11.89,8.38,11.89,15.91s-5.02,13.88-11.89,15.91c4.78-3.66,7.86-9.42,7.86-15.91S23.05,3.66,18.27,0h0ZM4.48,11.42c2.48,0,4.48,2.01,4.48,4.48s-2.01,4.48-4.48,4.48S0,18.38,0,15.91s2.01-4.48,4.48-4.48h0ZM8.61,9.18c2.02,1.55,3.33,3.98,3.33,6.73s-1.3,5.18-3.33,6.73c2.91-.86,5.03-3.54,5.03-6.73s-2.12-5.87-5.03-6.73h0ZM12.93,4.45c3.44,2.64,5.66,6.79,5.66,11.46s-2.22,8.82-5.66,11.46c4.95-1.46,8.56-6.03,8.56-11.46s-3.61-10-8.56-11.46Z"/>
  </g>
</svg>