<?xml version="1.0" encoding="UTF-8"?>
<svg id="Layer_2" data-name="Layer 2" xmlns="http://www.w3.org/2000/svg" viewBox="0 0 26.03 19.05">
  <defs>
    <style>
      .cls-1 {
        fill: #fff;
        fill-rule: evenodd;
      }
    </style>
  </defs>
  <g id="Layer_1-2" data-name="Layer 1">
    <path class="cls-1" d="M3.44.08l21.83,8.34c.47.18.76.61.76,1.11s-.29.93-.76,1.11L3.44,18.97c-.52.2-1.09.02-1.4-.44-.31-.46-.27-1.05.1-1.46l6.08-6.75c.41-.45.41-1.13,0-1.58L2.14,1.98c-.37-.41-.41-1-.1-1.46C2.36.06,2.93-.12,3.44.08h0ZM2.06,4.89c-.4-.44-1.05-.52-1.55-.19-.49.34-.66.98-.39,1.51l1.4,2.78c.17.35.17.72,0,1.06L.13,12.83c-.27.53-.1,1.17.39,1.51.49.34,1.15.26,1.55-.19l3.45-3.84c.41-.45.41-1.13,0-1.58l-3.45-3.84Z"/>
  </g>
</svg>