<?xml version="1.0" encoding="UTF-8"?>
<svg id="Layer_2" data-name="Layer 2" xmlns="http://www.w3.org/2000/svg" viewBox="0 0 24.49 24.49">
  <defs>
    <style>
      .cls-1 {
        fill: #fff;
        fill-rule: evenodd;
      }
    </style>
  </defs>
  <g id="Layer_1-2" data-name="Layer 1">
    <path class="cls-1" d="M12.24,0c3.38,0,6.44,1.37,8.66,3.59,2.22,2.22,3.59,5.28,3.59,8.66s-1.37,6.44-3.59,8.66c-2.22,2.22-5.28,3.59-8.66,3.59s-6.44-1.37-8.66-3.59S0,15.63,0,12.24,1.37,5.8,3.59,3.59,8.86,0,12.24,0h0ZM8.99,5.09c-1.05,0-2.01.43-2.7,1.12h0c-.69.69-1.12,1.65-1.12,2.7s.43,2.01,1.12,2.7h0c.69.69,1.64,1.12,2.7,1.12s2.01-.43,2.7-1.12h0c.69-.69,1.12-1.65,1.12-2.7s-.43-2.01-1.12-2.7h0c-.69-.69-1.64-1.12-2.7-1.12h0ZM19.97,11.46c-.26-.22-.65-.2-.89.04-.3.3-.66.54-1.06.71-.38.16-.8.24-1.25.24-.29,0-.57-.04-.83-.1-.27-.07-.53-.18-.77-.31-.23-.13-.52-.11-.74.06-.29.23-.33.65-.1.93.47.59.84,1.25,1.1,1.96.25.68.38,1.41.4,2.15v.05c0,.37.3.67.66.67h4.23c.4,0,.76-.16,1.02-.42h0c.26-.26.43-.62.43-1.02v-.61c0-.87-.21-1.7-.59-2.44-.38-.75-.94-1.4-1.61-1.89h0ZM16.78,6.37c-.78,0-1.49.32-2,.83-.51.51-.83,1.22-.83,2s.32,1.48.83,2h0c.51.51,1.22.83,2,.83s1.49-.32,2-.83c.51-.51.83-1.22.83-2s-.32-1.48-.83-2h0c-.51-.51-1.22-.83-2-.83h0ZM12.93,11.93c.83.61,1.52,1.42,2,2.35.47.91.73,1.94.73,3.02v.77c0,.45-.19.87-.49,1.17h0c-.3.3-.71.49-1.17.49H4.3c.08.08.15.16.23.24,1.97,1.97,4.7,3.2,7.72,3.2s5.74-1.22,7.72-3.2c1.97-1.97,3.2-4.7,3.2-7.72s-1.22-5.74-3.2-7.72c-1.97-1.97-4.7-3.2-7.72-3.2s-5.74,1.22-7.72,3.2c-1.97,1.97-3.2,4.7-3.2,7.72,0,1.63.36,3.18,1,4.57.07-.91.31-1.77.71-2.54.48-.94,1.18-1.75,2.03-2.37.27-.19.63-.16.86.07.4.4.88.72,1.4.93.51.21,1.06.32,1.65.32s1.14-.12,1.65-.32c.53-.22,1-.54,1.4-.94.25-.24.63-.26.89-.04Z"/>
  </g>
</svg>