<?xml version="1.0" encoding="UTF-8"?>
<svg id="Layer_2" data-name="Layer 2" xmlns="http://www.w3.org/2000/svg" viewBox="0 0 31.69 17.62">
  <defs>
    <style>
      .cls-1 {
        fill: #fff;
        fill-rule: evenodd;
      }
    </style>
  </defs>
  <g id="Layer_1-2" data-name="Layer 1">
    <path class="cls-1" d="M12.28.1l18.57,7.47c.51.21.83.68.83,1.24s-.32,1.03-.83,1.24l-18.57,7.47c-.49.2-1.01.1-1.4-.26l-.08-.07c3.38-1.28,5.79-4.55,5.79-8.38S14.18,1.71,10.8.43l.08-.07C11.27,0,11.79-.1,12.28.1h0ZM7.63,1.18C3.42,1.18,0,4.59,0,8.81s3.42,7.63,7.63,7.63,7.63-3.42,7.63-7.63S11.85,1.18,7.63,1.18Z"/>
  </g>
</svg>