<?xml version="1.0" encoding="UTF-8"?>
<svg id="Layer_2" data-name="Layer 2" xmlns="http://www.w3.org/2000/svg" viewBox="0 0 25.46 24.35">
  <defs>
    <style>
      .cls-1 {
        fill: #fff;
        fill-rule: evenodd;
      }
    </style>
  </defs>
  <g id="Layer_1-2" data-name="Layer 1">
    <path class="cls-1" d="M12.73,1.77c.53,0,1.06.04,1.58.12.35.05.69.12,1.02.21l1.02-1.77c.18-.32.59-.43.91-.24l3.68,2.13c.32.18.43.59.24.91l-1.02,1.77c.61.62,1.15,1.32,1.59,2.09.43.75.77,1.55,1.01,2.41h2.04c.37,0,.67.3.67.67v4.25c0,.37-.3.67-.67.67h-2.04c-.24.85-.58,1.66-1.01,2.41-.44.76-.97,1.46-1.59,2.09l1.02,1.77c.18.32.08.72-.24.91l-3.68,2.13c-.32.18-.72.07-.91-.24l-1.02-1.77c-.34.09-.68.16-1.02.21-.52.08-1.04.12-1.57.12s-1.06-.04-1.58-.12c-.35-.05-.69-.12-1.02-.21l-1.02,1.77c-.18.32-.59.43-.91.24l-3.68-2.13c-.32-.18-.43-.59-.24-.91l1.02-1.77c-.61-.62-1.15-1.32-1.59-2.09-.43-.75-.77-1.55-1.01-2.41H.67c-.37,0-.67-.3-.67-.67v-4.25c0-.37.3-.67.67-.67h2.04c.24-.85.58-1.66,1.01-2.41.44-.76.97-1.46,1.59-2.09l-1.02-1.77c-.18-.32-.08-.72.24-.91L8.21.09c.32-.18.72-.07.91.24l1.02,1.77c.34-.09.68-.16,1.02-.21.52-.08,1.04-.12,1.57-.12h0ZM12.73,9.04c-.87,0-1.65.35-2.22.92-.57.57-.92,1.35-.92,2.22s.35,1.65.92,2.22c.57.57,1.35.92,2.22.92s1.65-.35,2.22-.92c.57-.57.92-1.35.92-2.22s-.35-1.65-.92-2.22c-.57-.57-1.35-.92-2.22-.92h0ZM16.53,8.38c-.97-.97-2.31-1.57-3.79-1.57s-2.82.6-3.79,1.57c-.97.97-1.57,2.31-1.57,3.79s.6,2.82,1.57,3.79c.97.97,2.31,1.57,3.79,1.57s2.82-.6,3.79-1.57c.97-.97,1.57-2.31,1.57-3.79s-.6-2.82-1.57-3.79Z"/>
  </g>
</svg>