<?xml version="1.0" encoding="UTF-8"?>
<svg id="Layer_2" data-name="Layer 2" xmlns="http://www.w3.org/2000/svg" viewBox="0 0 24.39 26.01">
  <defs>
    <style>
      .cls-1 {
        fill: #fff;
        fill-rule: evenodd;
      }
    </style>
  </defs>
  <g id="Layer_1-2" data-name="Layer 1">
    <path class="cls-1" d="M9.94,25.7l13.97-11.67c.31-.26.48-.61.48-1.02s-.16-.76-.48-1.02L9.94.31c-.41-.34-.94-.41-1.42-.18-.48.22-.77.68-.77,1.21v3.12c0,.69-.52,1.26-1.2,1.33-3.68.35-6.55,3.45-6.55,7.23s2.88,6.87,6.55,7.22c.69.07,1.2.64,1.2,1.33v3.12c0,.53.29.98.77,1.21.48.22,1.01.15,1.42-.18Z"/>
  </g>
</svg>