<?xml version="1.0" encoding="UTF-8"?>
<svg id="Layer_2" data-name="Layer 2" xmlns="http://www.w3.org/2000/svg" viewBox="0 0 15.62 27.59">
  <defs>
    <style>
      .cls-1 {
        fill: #fff;
        fill-rule: evenodd;
      }
    </style>
  </defs>
  <g id="Layer_1-2" data-name="Layer 1">
    <path class="cls-1" d="M1.82,0c1.01,0,1.82.82,1.82,1.82s-.82,1.82-1.82,1.82-1.82-.82-1.82-1.82S.82,0,1.82,0h0ZM1.82,11.97c1.01,0,1.82.82,1.82,1.82s-.82,1.82-1.82,1.82-1.82-.82-1.82-1.82.82-1.82,1.82-1.82h0ZM13.8,11.97c1.01,0,1.82.82,1.82,1.82s-.82,1.82-1.82,1.82-1.82-.82-1.82-1.82.82-1.82,1.82-1.82h0ZM9.81,15.96c1.01,0,1.82.82,1.82,1.82s-.82,1.82-1.82,1.82-1.82-.82-1.82-1.82.82-1.82,1.82-1.82h0ZM9.81,11.97c1.01,0,1.82.82,1.82,1.82s-.82,1.82-1.82,1.82-1.82-.82-1.82-1.82.82-1.82,1.82-1.82h0ZM9.81,7.98c1.01,0,1.82.82,1.82,1.82s-.82,1.82-1.82,1.82-1.82-.82-1.82-1.82.82-1.82,1.82-1.82h0ZM5.81,19.96c1.01,0,1.82.82,1.82,1.82s-.82,1.82-1.82,1.82-1.82-.82-1.82-1.82.82-1.82,1.82-1.82h0ZM5.81,15.96c1.01,0,1.82.82,1.82,1.82s-.82,1.82-1.82,1.82-1.82-.82-1.82-1.82.82-1.82,1.82-1.82h0ZM5.81,11.97c1.01,0,1.82.82,1.82,1.82s-.82,1.82-1.82,1.82-1.82-.82-1.82-1.82.82-1.82,1.82-1.82h0ZM5.81,7.98c1.01,0,1.82.82,1.82,1.82s-.82,1.82-1.82,1.82-1.82-.82-1.82-1.82.82-1.82,1.82-1.82h0ZM5.81,3.99c1.01,0,1.82.82,1.82,1.82s-.82,1.82-1.82,1.82-1.82-.82-1.82-1.82.82-1.82,1.82-1.82h0ZM1.82,23.95c1.01,0,1.82.82,1.82,1.82s-.82,1.82-1.82,1.82-1.82-.82-1.82-1.82.82-1.82,1.82-1.82h0ZM1.82,19.96c1.01,0,1.82.82,1.82,1.82s-.82,1.82-1.82,1.82-1.82-.82-1.82-1.82.82-1.82,1.82-1.82h0ZM1.82,15.96c1.01,0,1.82.82,1.82,1.82s-.82,1.82-1.82,1.82-1.82-.82-1.82-1.82.82-1.82,1.82-1.82h0ZM1.82,7.98c1.01,0,1.82.82,1.82,1.82s-.82,1.82-1.82,1.82-1.82-.82-1.82-1.82.82-1.82,1.82-1.82h0ZM1.82,3.99c1.01,0,1.82.82,1.82,1.82s-.82,1.82-1.82,1.82-1.82-.82-1.82-1.82.82-1.82,1.82-1.82Z"/>
  </g>
</svg>