<?xml version="1.0" encoding="UTF-8"?>
<svg id="Layer_2" data-name="Layer 2" xmlns="http://www.w3.org/2000/svg" viewBox="0 0 25 32.04">
  <defs>
    <style>
      .cls-1 {
        fill: #fff;
        fill-rule: evenodd;
      }
    </style>
  </defs>
  <g id="Layer_1-2" data-name="Layer 1">
    <path class="cls-1" d="M8.14,4.01l-.5-.54c-.55-.6-.5-1.54.1-2.09l1.09-.99c.6-.55,1.54-.5,2.09.1l.5.54,13.2,14.53c.53.59.51,1.49-.05,2.04l-14.09,14.01c-.58.57-1.52.57-2.09,0l-1.03-1.04c-.57-.58-.57-1.52,0-2.09l11.09-11.03c.56-.56.58-1.46.05-2.04L8.14,4.01h0ZM1.06,10.26l4.46,4.91c.53.59.51,1.49-.05,2.04L.43,22.22c-.58.57-.58,1.51,0,2.09l1.03,1.04c.57.58,1.51.58,2.09,0l8.04-8c.56-.56.58-1.46.05-2.04L4.34,7.28l-.5-.54c-.55-.6-1.49-.65-2.09-.1l-1.09.99c-.6.55-.65,1.49-.1,2.09l.49.54Z"/>
  </g>
</svg>