<?xml version="1.0" encoding="UTF-8"?>
<svg id="Layer_2" data-name="Layer 2" xmlns="http://www.w3.org/2000/svg" viewBox="0 0 23.04 23.04">
  <defs>
    <style>
      .cls-1 {
        fill: #fff;
        fill-rule: evenodd;
      }
    </style>
  </defs>
  <g id="Layer_1-2" data-name="Layer 1">
    <path class="cls-1" d="M9.69,13.35c.47.47,1.11.76,1.83.76s1.34-.28,1.8-.73l.03-.03c.47-.47.76-1.11.76-1.83s-.29-1.36-.75-1.83h0c-.47-.47-1.11-.76-1.83-.76s-1.36.29-1.83.76h0c-.47.47-.75,1.11-.75,1.83s.29,1.36.76,1.83h0ZM10.5.4l1.02,2.61,1.01-2.59c.11-.31.44-.49.76-.4l2.43.65c.32.07.53.38.48.71l-.42,2.77,2.14-1.71c.25-.24.64-.24.89,0l1.79,1.79h0c.22.22.25.58.05.84l-1.75,2.19,2.77-.42c.31-.05.62.15.7.46l.66,2.45c.08.31-.08.63-.38.75l-2.61,1.02,2.59,1.01c.31.11.49.44.4.76l-.65,2.43c-.07.32-.38.53-.71.48l-2.77-.42,1.71,2.14c.24.25.24.64,0,.88l-1.79,1.79h0c-.22.22-.58.25-.83.04l-2.19-1.75.42,2.77c.05.31-.15.62-.46.7l-2.45.66c-.31.08-.63-.08-.75-.38l-1.02-2.61-1.01,2.59c-.11.31-.44.49-.76.4l-2.43-.65c-.32-.07-.53-.38-.48-.71l.42-2.77-2.14,1.71c-.25.24-.64.24-.88,0l-1.79-1.79h0c-.22-.22-.25-.58-.05-.84l1.75-2.19-2.77.42c-.31.05-.62-.15-.7-.46L.02,13.29c-.08-.31.08-.63.38-.75l2.61-1.02-2.59-1.01c-.31-.11-.49-.44-.4-.76l.65-2.43c.07-.32.38-.53.71-.48l2.77.42-1.71-2.14c-.24-.25-.24-.64,0-.89l1.79-1.79h0c.22-.22.58-.25.83-.04l2.19,1.75-.42-2.77c-.05-.31.15-.62.46-.7L9.75.02c.31-.08.63.08.75.38Z"/>
  </g>
</svg>