<?xml version="1.0" encoding="UTF-8"?>
<svg id="Layer_2" data-name="Layer 2" xmlns="http://www.w3.org/2000/svg" viewBox="0 0 20.24 23.97">
  <defs>
    <style>
      .cls-1 {
        fill: #fff;
        fill-rule: evenodd;
      }
    </style>
  </defs>
  <g id="Layer_1-2" data-name="Layer 1">
    <path class="cls-1" d="M6.52,2.03c.06-.52.3-1,.66-1.35h0c.42-.41.99-.67,1.62-.67h2.64c.63,0,1.2.26,1.62.67h0c.36.36.6.83.66,1.35h4.13c.66,0,1.26.27,1.69.7h0c.43.44.7,1.03.7,1.69s-.25,1.22-.66,1.65l-.04.04c-.43.43-1.03.7-1.69.7H2.39c-.66,0-1.26-.27-1.69-.7h0c-.43-.44-.7-1.03-.7-1.69s.25-1.22.66-1.65l.04-.04c.43-.43,1.03-.7,1.69-.7h4.13ZM13.36,10.4c0-.37.3-.67.67-.67s.67.3.67.67v8.74c0,.37-.3.67-.67.67s-.67-.3-.67-.67v-8.74h0ZM5.55,10.4c0-.37.3-.67.67-.67s.67.3.67.67v8.74c0,.37-.3.67-.67.67s-.67-.3-.67-.67v-8.74h0ZM9.38,10.4c0-.37.3-.67.67-.67s.67.3.67.67v8.74c0,.37-.3.67-.67.67s-.67-.3-.67-.67v-8.74h0ZM12.32,1.92c-.05-.12-.12-.22-.21-.31h0c-.17-.18-.41-.28-.68-.28h-2.64c-.27,0-.51.11-.68.28h0c-.09.09-.16.19-.21.31h4.41ZM19.31,7.1c-.1.05-.2.1-.3.14-.36.15-.76.23-1.17.23H2.39c-.41,0-.81-.08-1.17-.23-.1-.04-.2-.09-.3-.14v12.55c0,1.19.49,2.27,1.27,3.05.78.78,1.86,1.27,3.05,1.27h9.75c1.19,0,2.27-.49,3.05-1.27.78-.78,1.27-1.86,1.27-3.05V7.1Z"/>
  </g>
</svg>