<?xml version="1.0" encoding="UTF-8"?>
<svg id="Layer_2" data-name="Layer 2" xmlns="http://www.w3.org/2000/svg" viewBox="0 0 27.93 27.91">
  <defs>
    <style>
      .cls-1 {
        fill: #fff;
        fill-rule: evenodd;
      }
    </style>
  </defs>
  <g id="Layer_1-2" data-name="Layer 1">
    <path class="cls-1" d="M27.93.78l-.05,10.23c0,.2-.06.4-.21.54L11.49,27.66l-.04.04c-.28.28-.75.28-1.03,0L.21,17.48h0c-.28-.28-.28-.74,0-1.03L16.32.21C16.45.08,16.64,0,16.84,0l10.37.05c.4,0,.73.33.72.73h0ZM22.02,3.06c-.77,0-1.47.31-1.97.82-.5.5-.82,1.2-.82,1.97s.31,1.47.82,1.97c.51.5,1.2.82,1.97.82s1.47-.31,1.97-.82c.51-.5.82-1.2.82-1.97s-.31-1.47-.82-1.97h0c-.51-.5-1.2-.82-1.97-.82h0ZM11.11,13.06c-.25-.25-.52-.44-.83-.58-.31-.14-.62-.22-.93-.24-.32-.02-.63.02-.93.13-.3.11-.58.29-.84.55-.25.25-.44.54-.55.85-.11.31-.16.62-.14.94.02.32.1.63.24.94.14.31.34.59.59.84.25.25.52.44.83.58.31.14.62.22.93.24.32.02.63-.02.93-.13.3-.11.58-.29.84-.55.25-.25.44-.54.55-.85s.16-.62.14-.94c-.02-.32-.1-.63-.24-.94-.14-.31-.34-.59-.59-.84h0ZM12.99,7.67l-1.02,1.02,1.94,12.51,1.02-1.02-1.94-12.5h0ZM19.17,12.39c-.25-.25-.52-.44-.83-.58-.31-.14-.62-.22-.93-.24-.32-.02-.63.02-.93.13-.3.11-.58.29-.84.55-.25.25-.44.54-.55.85-.11.31-.16.62-.14.94.02.32.1.63.24.94.14.31.34.59.59.84.25.25.52.44.83.58.31.14.62.22.93.24.32.02.63-.02.93-.13.3-.11.58-.29.84-.55.25-.25.44-.54.55-.85.11-.31.16-.62.14-.94-.02-.32-.1-.63-.24-.94-.14-.31-.34-.59-.59-.84h0ZM10.21,13.99c-.3-.3-.63-.48-.98-.54-.35-.06-.64.03-.88.27s-.33.53-.26.87c.07.34.24.66.53.94.3.3.63.48.98.54.35.05.64-.03.88-.27.24-.24.33-.53.26-.87-.07-.34-.24-.66-.53-.94h0ZM18.27,13.32c-.3-.3-.63-.48-.98-.54-.35-.06-.64.03-.88.27-.24.24-.33.53-.26.87.07.34.24.66.53.94.3.3.63.48.98.54.35.06.64-.03.88-.27s.33-.53.26-.87c-.07-.34-.24-.66-.53-.94Z"/>
  </g>
</svg>