<?xml version="1.0" encoding="UTF-8"?>
<svg id="Layer_2" data-name="Layer 2" xmlns="http://www.w3.org/2000/svg" viewBox="0 0 34.35 16.13">
  <defs>
    <style>
      .cls-1 {
        fill: #fff;
        fill-rule: evenodd;
      }
    </style>
  </defs>
  <g id="Layer_1-2" data-name="Layer 1">
    <path class="cls-1" d="M21.6,0c.58,0,1.04.47,1.04,1.04s-.47,1.04-1.04,1.04-1.04-.47-1.04-1.04.47-1.04,1.04-1.04h0ZM1.04,0c.58,0,1.04.47,1.04,1.04s-.47,1.04-1.04,1.04-1.04-.47-1.04-1.04S.47,0,1.04,0h0ZM12.74,7.02c.58,0,1.04.47,1.04,1.04s-.47,1.04-1.04,1.04-1.04-.47-1.04-1.04.47-1.04,1.04-1.04h0ZM10.4,9.36c.58,0,1.04.47,1.04,1.04,0,1.37-2.08,1.37-2.08,0,0-.58.47-1.04,1.04-1.04h0ZM10.4,7.02c.58,0,1.04.47,1.04,1.04s-.47,1.04-1.04,1.04-1.04-.47-1.04-1.04.47-1.04,1.04-1.04h0ZM10.4,4.68c.58,0,1.04.47,1.04,1.04s-.47,1.04-1.04,1.04-1.04-.47-1.04-1.04.47-1.04,1.04-1.04h0ZM8.06,11.7c.58,0,1.04.47,1.04,1.04s-.47,1.04-1.04,1.04-1.04-.47-1.04-1.04.47-1.04,1.04-1.04h0ZM8.06,9.36c.58,0,1.04.47,1.04,1.04s-.47,1.04-1.04,1.04-1.04-.47-1.04-1.04.47-1.04,1.04-1.04h0ZM8.06,7.02c.58,0,1.04.47,1.04,1.04s-.47,1.04-1.04,1.04-1.04-.47-1.04-1.04.47-1.04,1.04-1.04h0ZM8.06,4.68c.58,0,1.04.47,1.04,1.04s-.47,1.04-1.04,1.04-1.04-.47-1.04-1.04.47-1.04,1.04-1.04h0ZM8.06,2.34c.58,0,1.04.47,1.04,1.04s-.47,1.04-1.04,1.04-1.04-.47-1.04-1.04.47-1.04,1.04-1.04h0ZM5.72,14.04c.58,0,1.04.47,1.04,1.04s-.47,1.04-1.04,1.04-1.04-.47-1.04-1.04.47-1.04,1.04-1.04h0ZM5.72,11.7c.58,0,1.04.47,1.04,1.04s-.47,1.04-1.04,1.04-1.04-.47-1.04-1.04.47-1.04,1.04-1.04h0ZM5.72,9.36c.58,0,1.04.47,1.04,1.04s-.47,1.04-1.04,1.04-1.04-.47-1.04-1.04.47-1.04,1.04-1.04h0ZM5.72,4.68c.58,0,1.04.47,1.04,1.04s-.47,1.04-1.04,1.04-1.04-.47-1.04-1.04.47-1.04,1.04-1.04h0ZM5.72,2.34c.58,0,1.04.47,1.04,1.04s-.47,1.04-1.04,1.04-1.04-.47-1.04-1.04.47-1.04,1.04-1.04h0ZM5.72,0c.58,0,1.04.47,1.04,1.04s-.47,1.04-1.04,1.04-1.04-.47-1.04-1.04.47-1.04,1.04-1.04h0ZM3.38,14.04c.58,0,1.04.47,1.04,1.04s-.47,1.04-1.04,1.04-1.04-.47-1.04-1.04.47-1.04,1.04-1.04h0ZM3.38,11.7c.58,0,1.04.47,1.04,1.04s-.47,1.04-1.04,1.04-1.04-.47-1.04-1.04.47-1.04,1.04-1.04h0ZM3.38,2.34c.58,0,1.04.47,1.04,1.04s-.47,1.04-1.04,1.04-1.04-.47-1.04-1.04.47-1.04,1.04-1.04h0ZM3.38,0c.58,0,1.04.47,1.04,1.04s-.47,1.04-1.04,1.04-1.04-.47-1.04-1.04.47-1.04,1.04-1.04h0ZM1.04,14.04c.58,0,1.04.47,1.04,1.04s-.47,1.04-1.04,1.04-1.04-.47-1.04-1.04.47-1.04,1.04-1.04h0ZM11.27,0c.58,0,1.04.47,1.04,1.04s-.47,1.04-1.04,1.04-1.04-.47-1.04-1.04.47-1.04,1.04-1.04h0ZM22.97,7.02c.58,0,1.04.47,1.04,1.04s-.47,1.04-1.04,1.04-1.04-.47-1.04-1.04.47-1.04,1.04-1.04h0ZM20.63,9.36c.58,0,1.04.47,1.04,1.04s-.47,1.04-1.04,1.04-1.04-.47-1.04-1.04.47-1.04,1.04-1.04h0ZM20.63,7.02c.58,0,1.04.47,1.04,1.04s-.47,1.04-1.04,1.04-1.04-.47-1.04-1.04.47-1.04,1.04-1.04h0ZM20.63,4.68c.58,0,1.04.47,1.04,1.04s-.47,1.04-1.04,1.04-1.04-.47-1.04-1.04.47-1.04,1.04-1.04h0ZM18.29,11.7c.58,0,1.04.47,1.04,1.04s-.47,1.04-1.04,1.04-1.04-.47-1.04-1.04.47-1.04,1.04-1.04h0ZM18.29,9.36c.58,0,1.04.47,1.04,1.04s-.47,1.04-1.04,1.04-1.04-.47-1.04-1.04.47-1.04,1.04-1.04h0ZM18.29,7.02c.58,0,1.04.47,1.04,1.04s-.47,1.04-1.04,1.04-1.04-.47-1.04-1.04.47-1.04,1.04-1.04h0ZM18.29,4.68c.58,0,1.04.47,1.04,1.04s-.47,1.04-1.04,1.04-1.04-.47-1.04-1.04.47-1.04,1.04-1.04h0ZM18.29,2.34c.58,0,1.04.47,1.04,1.04s-.47,1.04-1.04,1.04-1.04-.47-1.04-1.04.47-1.04,1.04-1.04h0ZM15.95,14.04c.58,0,1.04.47,1.04,1.04s-.47,1.04-1.04,1.04-1.04-.47-1.04-1.04.47-1.04,1.04-1.04h0ZM15.95,11.7c.58,0,1.04.47,1.04,1.04s-.47,1.04-1.04,1.04-1.04-.47-1.04-1.04.47-1.04,1.04-1.04h0ZM15.95,9.36c.58,0,1.04.47,1.04,1.04s-.47,1.04-1.04,1.04-1.04-.47-1.04-1.04.47-1.04,1.04-1.04h0ZM15.95,4.68c.58,0,1.04.47,1.04,1.04s-.47,1.04-1.04,1.04-1.04-.47-1.04-1.04.47-1.04,1.04-1.04h0ZM15.95,2.34c.58,0,1.04.47,1.04,1.04s-.47,1.04-1.04,1.04-1.04-.47-1.04-1.04.47-1.04,1.04-1.04h0ZM15.95,0c.58,0,1.04.47,1.04,1.04s-.47,1.04-1.04,1.04-1.04-.47-1.04-1.04.47-1.04,1.04-1.04h0ZM13.61,14.04c.58,0,1.04.47,1.04,1.04s-.47,1.04-1.04,1.04-1.04-.47-1.04-1.04.47-1.04,1.04-1.04h0ZM13.61,11.7c.58,0,1.04.47,1.04,1.04s-.47,1.04-1.04,1.04-1.04-.47-1.04-1.04.47-1.04,1.04-1.04h0ZM13.61,2.34c.58,0,1.04.47,1.04,1.04s-.47,1.04-1.04,1.04-1.04-.47-1.04-1.04.47-1.04,1.04-1.04h0ZM13.61,0c.58,0,1.04.47,1.04,1.04s-.47,1.04-1.04,1.04-1.04-.47-1.04-1.04.47-1.04,1.04-1.04h0ZM11.27,14.04c.57,0,1.04.47,1.04,1.04s-.47,1.04-1.04,1.04-1.04-.47-1.04-1.04.47-1.04,1.04-1.04h0ZM33.3,7.02c.58,0,1.04.47,1.04,1.04s-.47,1.04-1.04,1.04-1.04-.47-1.04-1.04.47-1.04,1.04-1.04h0ZM30.96,9.36c.58,0,1.04.47,1.04,1.04s-.47,1.04-1.04,1.04-1.04-.47-1.04-1.04.47-1.04,1.04-1.04h0ZM30.96,7.02c.58,0,1.04.47,1.04,1.04s-.47,1.04-1.04,1.04-1.04-.47-1.04-1.04.47-1.04,1.04-1.04h0ZM30.96,4.68c.58,0,1.04.47,1.04,1.04s-.47,1.04-1.04,1.04-1.04-.47-1.04-1.04.47-1.04,1.04-1.04h0ZM28.62,11.7c.58,0,1.04.47,1.04,1.04s-.47,1.04-1.04,1.04-1.04-.47-1.04-1.04.47-1.04,1.04-1.04h0ZM28.62,9.36c.58,0,1.04.47,1.04,1.04s-.47,1.04-1.04,1.04-1.04-.47-1.04-1.04.47-1.04,1.04-1.04h0ZM28.62,7.02c.58,0,1.04.47,1.04,1.04s-.47,1.04-1.04,1.04-1.04-.47-1.04-1.04.47-1.04,1.04-1.04h0ZM28.62,4.68c.58,0,1.04.47,1.04,1.04s-.47,1.04-1.04,1.04-1.04-.47-1.04-1.04.47-1.04,1.04-1.04h0ZM28.62,2.34c.58,0,1.04.47,1.04,1.04s-.47,1.04-1.04,1.04-1.04-.47-1.04-1.04.47-1.04,1.04-1.04h0ZM26.28,14.04c.58,0,1.04.47,1.04,1.04s-.47,1.04-1.04,1.04-1.04-.47-1.04-1.04.47-1.04,1.04-1.04h0ZM26.28,11.7c.58,0,1.04.47,1.04,1.04s-.47,1.04-1.04,1.04-1.04-.47-1.04-1.04.47-1.04,1.04-1.04h0ZM26.28,9.36c.58,0,1.04.47,1.04,1.04s-.47,1.04-1.04,1.04-1.04-.47-1.04-1.04.47-1.04,1.04-1.04h0ZM26.28,4.68c.58,0,1.04.47,1.04,1.04s-.47,1.04-1.04,1.04-1.04-.47-1.04-1.04.47-1.04,1.04-1.04h0ZM26.28,2.34c.58,0,1.04.47,1.04,1.04s-.47,1.04-1.04,1.04-1.04-.47-1.04-1.04.47-1.04,1.04-1.04h0ZM26.28,0c.58,0,1.04.47,1.04,1.04s-.47,1.04-1.04,1.04-1.04-.47-1.04-1.04.47-1.04,1.04-1.04h0ZM23.94,14.04c.58,0,1.04.47,1.04,1.04s-.47,1.04-1.04,1.04-1.04-.47-1.04-1.04.47-1.04,1.04-1.04h0ZM23.94,11.7c.58,0,1.04.47,1.04,1.04s-.47,1.04-1.04,1.04-1.04-.47-1.04-1.04.47-1.04,1.04-1.04h0ZM23.94,2.34c.58,0,1.04.47,1.04,1.04s-.47,1.04-1.04,1.04-1.04-.47-1.04-1.04.47-1.04,1.04-1.04h0ZM23.94,0c.58,0,1.04.47,1.04,1.04s-.47,1.04-1.04,1.04-1.04-.47-1.04-1.04.47-1.04,1.04-1.04h0ZM21.6,14.04c.58,0,1.04.47,1.04,1.04s-.47,1.04-1.04,1.04-1.04-.47-1.04-1.04.47-1.04,1.04-1.04Z"/>
  </g>
</svg>