<?xml version="1.0" encoding="UTF-8"?>
<svg id="Layer_2" data-name="Layer 2" xmlns="http://www.w3.org/2000/svg" viewBox="0 0 32.23 17.1">
  <defs>
    <style>
      .cls-1 {
        fill: #fff;
        fill-rule: evenodd;
      }
    </style>
  </defs>
  <g id="Layer_1-2" data-name="Layer 1">
    <path class="cls-1" d="M11.99,0h1.85c.39,0,.73.15,1,.45l4.83,5.45c.26.3.6.45,1,.45h1.69c.54,0,.99-.3,1.21-.79.22-.49.14-1.03-.22-1.43l-1.7-1.91c-.36-.4-.44-.94-.22-1.43.22-.49.68-.79,1.21-.79h1.85c.39,0,.73.15,1,.45l6.4,7.22c.45.51.45,1.26,0,1.77l-6.4,7.22c-.26.3-.6.45-1,.45h-1.85c-.54,0-.99-.3-1.21-.79-.22-.49-.14-1.03.22-1.43l1.7-1.91c.36-.4.44-.94.22-1.43-.22-.49-.68-.79-1.21-.79h-1.69c-.4,0-.73.15-1,.45l-4.83,5.45c-.26.3-.6.45-1,.45h-1.85c-.54,0-.99-.3-1.21-.79-.22-.49-.14-1.03.22-1.43l1.7-1.91c.36-.4.44-.94.22-1.43-.22-.49-.68-.79-1.21-.79h-1.69c-.39,0-.73.15-1,.45l-4.83,5.45c-.26.3-.6.45-1,.45h-1.85c-.54,0-.99-.3-1.21-.79-.22-.49-.14-1.03.22-1.43l4.84-5.45c.45-.51.45-1.26,0-1.77L.34,2.22C-.02,1.81-.1,1.27.12.79c.22-.49.68-.79,1.21-.79h1.85c.39,0,.73.15,1,.45l4.83,5.45c.26.3.6.45,1,.45h1.69c.54,0,.99-.3,1.21-.79.22-.49.14-1.03-.22-1.43l-1.7-1.91c-.36-.4-.44-.94-.22-1.43.22-.49.68-.79,1.21-.79Z"/>
  </g>
</svg>