<?xml version="1.0" encoding="UTF-8"?>
<svg id="Layer_2" data-name="Layer 2" xmlns="http://www.w3.org/2000/svg" viewBox="0 0 29.57 29.57">
  <defs>
    <style>
      .cls-1 {
        fill: #fff;
        fill-rule: evenodd;
      }
    </style>
  </defs>
  <g id="Layer_1-2" data-name="Layer 1">
    <path class="cls-1" d="M14.79,0c8.17,0,14.79,6.62,14.79,14.79s-6.62,14.79-14.79,14.79S0,22.95,0,14.79,6.62,0,14.79,0h0ZM18.16,11.01c.74,1.07,1.17,2.37,1.17,3.77s-.43,2.7-1.17,3.77l9.38-3.77-9.38-3.77h0ZM12.67,9.72c-2.8,0-5.06,2.27-5.06,5.07s2.27,5.06,5.06,5.06,5.06-2.27,5.06-5.06-2.27-5.07-5.06-5.07h0ZM6.23,16.49c-.14-.54-.22-1.11-.22-1.7s.08-1.16.22-1.7l-1.84,1.7,1.84,1.7Z"/>
  </g>
</svg>