<?xml version="1.0" encoding="UTF-8"?>
<svg id="Layer_2" data-name="Layer 2" xmlns="http://www.w3.org/2000/svg" viewBox="0 0 33.13 22.42">
  <defs>
    <style>
      .cls-1 {
        fill: #fff;
        fill-rule: evenodd;
      }
    </style>
  </defs>
  <g id="Layer_1-2" data-name="Layer 1">
    <path class="cls-1" d="M21.92,6.73c-.61,0-1.11.5-1.11,1.11s.5,1.11,1.11,1.11,1.11-.5,1.11-1.11-.5-1.11-1.11-1.11h0ZM32.02,10.1c-.61,0-1.11.5-1.11,1.11s.5,1.11,1.11,1.11,1.11-.5,1.11-1.11-.5-1.11-1.11-1.11h0ZM27.54,7.84c0,.61.5,1.11,1.11,1.11s1.11-.5,1.11-1.11-.5-1.11-1.11-1.11-1.11.5-1.11,1.11h0ZM27.54,11.21c0,.61.5,1.11,1.11,1.11s1.11-.5,1.11-1.11-.5-1.11-1.11-1.11-1.11.5-1.11,1.11h0ZM27.54,14.57c0,.61.5,1.11,1.11,1.11s1.11-.5,1.11-1.11-.5-1.11-1.11-1.11-1.11.5-1.11,1.11h0ZM26.4,17.94c0-.61-.5-1.11-1.11-1.11s-1.11.5-1.11,1.11.5,1.11,1.11,1.11,1.11-.5,1.11-1.11h0ZM26.4,14.57c0-.61-.5-1.11-1.11-1.11s-1.11.5-1.11,1.11.5,1.11,1.11,1.11,1.11-.5,1.11-1.11h0ZM26.4,11.21c0-.61-.5-1.11-1.11-1.11s-1.11.5-1.11,1.11.5,1.11,1.11,1.11,1.11-.5,1.11-1.11h0ZM25.29,6.73c-.61,0-1.11.5-1.11,1.11s.5,1.11,1.11,1.11,1.11-.5,1.11-1.11-.5-1.11-1.11-1.11h0ZM24.18,4.48c0,.61.5,1.11,1.11,1.11s1.11-.5,1.11-1.11-.5-1.11-1.11-1.11-1.11.5-1.11,1.11h0ZM1.11,6.73c-.61,0-1.11.5-1.11,1.11s.5,1.11,1.11,1.11,1.11-.5,1.11-1.11-.5-1.11-1.11-1.11h0ZM4.63,6.73c-.61,0-1.11.5-1.11,1.11s.5,1.11,1.11,1.11,1.11-.5,1.11-1.11-.5-1.11-1.11-1.11h0ZM8.15,6.73c-.61,0-1.11.5-1.11,1.11s.5,1.11,1.11,1.11,1.11-.5,1.11-1.11-.5-1.11-1.11-1.11h0ZM11.67,6.73c-.61,0-1.11.5-1.11,1.11s.5,1.11,1.11,1.11,1.11-.5,1.11-1.11-.5-1.11-1.11-1.11h0ZM1.11,10.1c-.61,0-1.11.5-1.11,1.11s.5,1.11,1.11,1.11,1.11-.5,1.11-1.11-.5-1.11-1.11-1.11h0ZM4.63,10.1c-.61,0-1.11.5-1.11,1.11s.5,1.11,1.11,1.11,1.11-.5,1.11-1.11-.5-1.11-1.11-1.11h0ZM8.15,10.1c-.61,0-1.11.5-1.11,1.11s.5,1.11,1.11,1.11,1.11-.5,1.11-1.11-.5-1.11-1.11-1.11h0ZM11.67,10.1c-.61,0-1.11.5-1.11,1.11s.5,1.11,1.11,1.11,1.11-.5,1.11-1.11-.5-1.11-1.11-1.11h0ZM0,14.57c0,.61.5,1.11,1.11,1.11s1.11-.5,1.11-1.11-.5-1.11-1.11-1.11-1.11.5-1.11,1.11h0ZM3.52,14.57c0,.61.5,1.11,1.11,1.11s1.11-.5,1.11-1.11-.5-1.11-1.11-1.11-1.11.5-1.11,1.11h0ZM7.04,14.57c0,.61.5,1.11,1.11,1.11s1.11-.5,1.11-1.11-.5-1.11-1.11-1.11-1.11.5-1.11,1.11h0ZM10.56,14.57c0,.61.5,1.11,1.11,1.11s1.11-.5,1.11-1.11-.5-1.11-1.11-1.11-1.11.5-1.11,1.11h0ZM14.08,14.57c0,.61.5,1.11,1.11,1.11s1.11-.5,1.11-1.11-.5-1.11-1.11-1.11-1.11.5-1.11,1.11h0ZM15.19,10.1c-.61,0-1.11.5-1.11,1.11s.5,1.11,1.11,1.11,1.11-.5,1.11-1.11-.5-1.11-1.11-1.11h0ZM15.19,6.73c-.61,0-1.11.5-1.11,1.11s.5,1.11,1.11,1.11,1.11-.5,1.11-1.11-.5-1.11-1.11-1.11h0ZM17.45,14.57c0,.61.5,1.11,1.11,1.11s1.11-.5,1.11-1.11-.5-1.11-1.11-1.11-1.11.5-1.11,1.11h0ZM18.56,10.1c-.61,0-1.11.5-1.11,1.11s.5,1.11,1.11,1.11,1.11-.5,1.11-1.11-.5-1.11-1.11-1.11h0ZM18.56,6.73c-.61,0-1.11.5-1.11,1.11s.5,1.11,1.11,1.11,1.11-.5,1.11-1.11-.5-1.11-1.11-1.11h0ZM21.92,2.22c.61,0,1.11-.5,1.11-1.11s-.5-1.11-1.11-1.11-1.11.5-1.11,1.11.5,1.11,1.11,1.11h0ZM21.92,5.59c.61,0,1.11-.5,1.11-1.11s-.5-1.11-1.11-1.11-1.11.5-1.11,1.11.5,1.11,1.11,1.11h0ZM23.03,21.31c0-.61-.5-1.11-1.11-1.11s-1.11.5-1.11,1.11.5,1.11,1.11,1.11,1.11-.5,1.11-1.11h0ZM21.92,16.83c-.61,0-1.11.5-1.11,1.11s.5,1.11,1.11,1.11,1.11-.5,1.11-1.11-.5-1.11-1.11-1.11h0ZM20.81,14.57c0,.61.5,1.11,1.11,1.11s1.11-.5,1.11-1.11-.5-1.11-1.11-1.11-1.11.5-1.11,1.11h0ZM16.3,21.31c0-.61-.5-1.11-1.11-1.11s-1.11.5-1.11,1.11.5,1.11,1.11,1.11,1.11-.5,1.11-1.11h0ZM18.56,20.19c-.61,0-1.11.5-1.11,1.11s.5,1.11,1.11,1.11,1.11-.5,1.11-1.11-.5-1.11-1.11-1.11h0ZM18.56,16.83c-.61,0-1.11.5-1.11,1.11s.5,1.11,1.11,1.11,1.11-.5,1.11-1.11-.5-1.11-1.11-1.11h0ZM15.19,2.22c.61,0,1.11-.5,1.11-1.11s-.5-1.11-1.11-1.11-1.11.5-1.11,1.11.5,1.11,1.11,1.11h0ZM18.56,2.22c.61,0,1.11-.5,1.11-1.11s-.5-1.11-1.11-1.11-1.11.5-1.11,1.11.5,1.11,1.11,1.11h0ZM18.56,5.59c.61,0,1.11-.5,1.11-1.11s-.5-1.11-1.11-1.11-1.11.5-1.11,1.11.5,1.11,1.11,1.11h0ZM21.92,10.1c-.61,0-1.11.5-1.11,1.11s.5,1.11,1.11,1.11,1.11-.5,1.11-1.11-.5-1.11-1.11-1.11Z"/>
  </g>
</svg>