<?xml version="1.0" encoding="UTF-8"?>
<svg id="Layer_2" data-name="Layer 2" xmlns="http://www.w3.org/2000/svg" viewBox="0 0 26.03 26.03">
  <defs>
    <style>
      .cls-1 {
        fill: #fff;
        fill-rule: evenodd;
      }
    </style>
  </defs>
  <g id="Layer_1-2" data-name="Layer 1">
    <path class="cls-1" d="M13.01,0c3.59,0,6.85,1.46,9.2,3.81,2.36,2.36,3.81,5.61,3.81,9.2s-1.46,6.85-3.81,9.2c-2.35,2.35-5.61,3.81-9.2,3.81s-6.85-1.46-9.2-3.81S0,16.61,0,13.01,1.46,6.17,3.81,3.81C6.17,1.46,9.42,0,13.01,0h0ZM17.83,7.69c-1.32,0-2.39,1.07-2.39,2.39s1.07,2.39,2.39,2.39,2.39-1.07,2.39-2.39-1.07-2.39-2.39-2.39h0ZM8.37,7.61c-1.32,0-2.39,1.07-2.39,2.39s1.07,2.39,2.39,2.39,2.39-1.07,2.39-2.39-1.07-2.39-2.39-2.39h0ZM6.86,5.36l3.98,2.79c.33.23.78.15,1.01-.18.23-.33.15-.78-.18-1.01l-3.98-2.79c-.33-.23-.78-.15-1.01.18-.23.33-.15.78.18,1.01h0ZM18.34,4.17l-3.98,2.79c-.33.23-.41.68-.18,1.01.23.33.68.41,1.01.18l3.98-2.79c.33-.23.41-.68.18-1.01-.23-.33-.68-.41-1.01-.18h0ZM8.43,19.19c0-1.01.5-1.93,1.3-2.61.84-.7,2-1.14,3.29-1.14s2.45.44,3.29,1.14c.8.68,1.3,1.6,1.3,2.61,0,.4.33.73.73.73s.73-.33.73-.73c0-1.46-.7-2.77-1.82-3.72-1.09-.92-2.59-1.49-4.22-1.49s-3.13.57-4.22,1.49c-1.12.95-1.82,2.26-1.82,3.72,0,.4.33.73.73.73s.73-.33.73-.73Z"/>
  </g>
</svg>