<?xml version="1.0" encoding="UTF-8"?>
<svg id="Layer_2" data-name="Layer 2" xmlns="http://www.w3.org/2000/svg" viewBox="0 0 27.45 24.78">
  <defs>
    <style>
      .cls-1 {
        fill: #fff;
        fill-rule: evenodd;
      }
    </style>
  </defs>
  <g id="Layer_1-2" data-name="Layer 1">
    <path class="cls-1" d="M6.46,14.66H.73c-.4,0-.73-.33-.73-.73V2.45c0-.4.33-.73.73-.73h5.73c.39,0,.71.31.73.69v11.6s0,0,0,0c-.04.37-.35.66-.73.66h0ZM7.47,2.67L13.17.08c.1-.05.22-.08.34-.08h9.43c.63,0,1.2.26,1.61.67.41.41.67.98.67,1.61v.34c0,.33-.07.64-.2.92.93.21,1.74.76,1.74,2.18v.34c0,.53-.19,1.03-.5,1.42l.09.06c.54.4.92.96.92,1.61v.34c0,.57-.17,1.09-.49,1.5.41.41.66.98.66,1.6v.34c0,.63-.26,1.2-.67,1.61h0c-.41.41-.98.67-1.61.67h-7.1c.41.79.75,1.65.95,2.6.3,1.44.3,3.06-.22,4.88-.21.73-.63,1.28-1.14,1.63-.41.28-.87.44-1.33.46-.47.03-.94-.07-1.34-.31-.43-.25-.77-.65-.96-1.19l-1.14-3.28-5.4-5.68V2.67Z"/>
  </g>
</svg>