<?xml version="1.0" encoding="UTF-8"?>
<svg id="Layer_2" data-name="Layer 2" xmlns="http://www.w3.org/2000/svg" viewBox="0 0 72.99 68.45">
  <g id="Layer_1-2" data-name="Layer 1">
    <g>
      <path d="M67.05,68.45H5.95c-3.28,0-5.95-2.67-5.95-5.95V18.47c0-3.46,2.82-6.28,6.28-6.28h60.43c3.46,0,6.28,2.82,6.28,6.28v44.03c0,3.28-2.67,5.95-5.95,5.95ZM6.28,17.19c-.71,0-1.28.57-1.28,1.28v44.03c0,.52.43.95.95.95h61.1c.52,0,.95-.43.95-.95V18.47c0-.71-.57-1.28-1.28-1.28H6.28Z"/>
      <path d="M36.5,55.4c-8.31,0-15.08-6.76-15.08-15.08s6.76-15.08,15.08-15.08,15.08,6.76,15.08,15.08-6.76,15.08-15.08,15.08ZM36.5,30.24c-5.56,0-10.08,4.52-10.08,10.08s4.52,10.08,10.08,10.08,10.08-4.52,10.08-10.08-4.52-10.08-10.08-10.08Z"/>
      <path d="M52.9,17.19H20.09c-.83,0-1.61-.41-2.07-1.1-.46-.69-.56-1.56-.25-2.33l3.39-8.4c1.31-3.25,4.42-5.35,7.93-5.35h14.81c3.5,0,6.62,2.1,7.93,5.35l3.39,8.4c.31.77.22,1.65-.25,2.33-.46.69-1.24,1.1-2.07,1.1ZM23.8,12.19h25.4l-2.01-4.97c-.54-1.35-1.84-2.22-3.29-2.22h-14.81c-1.46,0-2.75.87-3.29,2.22l-2.01,4.97Z"/>
    </g>
  </g>
</svg>