<?xml version="1.0" encoding="UTF-8"?>
<svg id="Layer_2" data-name="Layer 2" xmlns="http://www.w3.org/2000/svg" viewBox="0 0 65.84 73.84">
  <g id="Layer_1-2" data-name="Layer 1">
    <path d="M7.12,73.84c-1.22,0-2.45-.32-3.56-.97-2.23-1.29-3.56-3.59-3.56-6.17V7.14C0,4.56,1.33,2.25,3.56.97,5.79-.32,8.46-.32,10.69.97l51.59,29.78h0c2.23,1.29,3.56,3.59,3.56,6.17,0,2.58-1.33,4.88-3.56,6.17l-51.59,29.78c-1.12.64-2.34.97-3.56.97ZM7.14,5c-.49,0-.88.18-1.07.29-.32.18-1.06.73-1.06,1.84v59.57c0,1.11.74,1.66,1.06,1.84.32.18,1.17.55,2.12,0l51.59-29.78c.96-.55,1.06-1.47,1.06-1.84,0-.37-.1-1.29-1.06-1.84L8.19,5.3c-.38-.22-.73-.29-1.05-.29Z"/>
  </g>
</svg>