<?xml version="1.0" encoding="UTF-8"?>
<svg id="Layer_2" data-name="Layer 2" xmlns="http://www.w3.org/2000/svg" viewBox="0 0 60.64 71.71">
  <g id="Layer_1-2" data-name="Layer 1">
    <g>
      <g>
        <g>
          <path d="M44.82,21.21h-17.26c-1.38,0-2.5-1.12-2.5-2.5s1.12-2.5,2.5-2.5h17.26c1.38,0,2.5,1.12,2.5,2.5s-1.12,2.5-2.5,2.5Z"/>
          <path d="M15.82,21.21c-.17,0-.33-.02-.49-.05-.16-.03-.32-.08-.47-.14-.15-.07-.29-.14-.43-.23s-.26-.2-.38-.31c-.47-.47-.73-1.11-.73-1.77,0-.16.01-.33.05-.49.03-.16.08-.32.14-.47.06-.15.14-.29.23-.43.09-.14.19-.26.31-.38.12-.11.24-.22.38-.31s.28-.17.43-.23c.15-.06.31-.11.47-.14.81-.17,1.67.1,2.25.68.47.47.74,1.11.74,1.77s-.27,1.3-.74,1.77c-.46.46-1.1.73-1.76.73Z"/>
        </g>
        <g>
          <path d="M44.82,38.36h-17.26c-1.38,0-2.5-1.12-2.5-2.5s1.12-2.5,2.5-2.5h17.26c1.38,0,2.5,1.12,2.5,2.5s-1.12,2.5-2.5,2.5Z"/>
          <path d="M15.82,38.35c-.16,0-.33-.01-.49-.04-.16-.04-.32-.09-.47-.15-.15-.06-.29-.14-.43-.23-.14-.09-.26-.19-.38-.31-.12-.11-.22-.24-.31-.38-.09-.13-.17-.28-.23-.43-.06-.15-.11-.31-.14-.47-.04-.16-.05-.32-.05-.49,0-.16.01-.32.05-.48.03-.16.08-.32.14-.47.06-.15.14-.3.23-.43.09-.14.19-.27.31-.38.12-.12.24-.22.38-.31.14-.09.28-.17.43-.23.15-.07.31-.12.47-.15.81-.16,1.67.1,2.25.69.47.46.74,1.11.74,1.76s-.27,1.31-.74,1.77c-.46.47-1.1.73-1.76.73Z"/>
        </g>
        <g>
          <path d="M44.82,55.5h-17.26c-1.38,0-2.5-1.12-2.5-2.5s1.12-2.5,2.5-2.5h17.26c1.38,0,2.5,1.12,2.5,2.5s-1.12,2.5-2.5,2.5Z"/>
          <path d="M15.82,55.5c-.17,0-.33-.02-.49-.05-.16-.03-.32-.08-.47-.14-.15-.07-.29-.14-.43-.23-.14-.1-.26-.2-.38-.32-.47-.46-.73-1.1-.73-1.76,0-.17.01-.33.05-.49.03-.16.08-.32.14-.47.06-.15.14-.3.23-.43.09-.14.19-.27.31-.38.12-.12.24-.22.38-.31s.28-.17.43-.23c.15-.06.31-.11.47-.14.81-.17,1.67.1,2.25.68.47.46.74,1.11.74,1.77s-.27,1.3-.74,1.76c-.46.47-1.1.74-1.76.74Z"/>
        </g>
      </g>
      <path d="M53.04,71.71H7.6c-4.19,0-7.6-3.41-7.6-7.6V7.6C0,3.41,3.41,0,7.6,0h45.45c4.19,0,7.6,3.41,7.6,7.6v56.52c0,4.19-3.41,7.6-7.6,7.6ZM7.6,5c-1.43,0-2.6,1.17-2.6,2.6v56.52c0,1.43,1.17,2.6,2.6,2.6h45.45c1.43,0,2.6-1.17,2.6-2.6V7.6c0-1.43-1.17-2.6-2.6-2.6H7.6Z"/>
    </g>
  </g>
</svg>