<?xml version="1.0" encoding="UTF-8"?>
<svg id="Layer_2" data-name="Layer 2" xmlns="http://www.w3.org/2000/svg" viewBox="0 0 33.17 22.48">
  <defs>
    <style>
      .cls-1 {
        fill: #fff;
        fill-rule: evenodd;
      }
    </style>
  </defs>
  <g id="Layer_1-2" data-name="Layer 1">
    <path class="cls-1" d="M8.27,19l11.43-6.66c.42-.25.66-.66.66-1.15,0-.49-.24-.91-.66-1.15L8.28,3.39c-.54-.32-1.21-.22-1.64.24L.36,10.32c-.48.52-.48,1.31,0,1.83l6.27,6.61c.43.45,1.1.55,1.64.23h0ZM14.15,19.08l11.49-6.69c.42-.25.66-.66.66-1.15s-.24-.91-.66-1.15L14.15,3.4c-.42-.25-.66-.66-.66-1.15v-.92c0-.49.24-.91.67-1.15.42-.24.91-.24,1.33,0l17.01,9.9c.42.25.66.66.66,1.15s-.24.91-.66,1.15c-5.67,3.3-11.34,6.6-17.01,9.9-.42.25-.91.25-1.33,0-.42-.24-.67-.66-.67-1.15v-.92c0-.49.24-.91.66-1.15Z"/>
  </g>
</svg>