<?xml version="1.0" encoding="UTF-8"?>
<svg id="Layer_2" data-name="Layer 2" xmlns="http://www.w3.org/2000/svg" viewBox="0 0 30.19 14.11">
  <defs>
    <style>
      .cls-1 {
        fill: #fff;
        fill-rule: evenodd;
      }
    </style>
  </defs>
  <g id="Layer_1-2" data-name="Layer 1">
    <path class="cls-1" d="M16.25.11l13.15,5.72c.5.22.8.68.8,1.22s-.3,1-.8,1.22l-13.15,5.72c-.66.29-1.43,0-1.73-.65-1.75-3.68-5.51-6.23-9.86-6.23-1.02,0-2.01.14-2.95.4-.33.09-.65.06-.95-.09l-.76-.38.76-.38c.31-.15.62-.18.95-.09.94.26,1.92.4,2.95.4,4.35,0,8.11-2.55,9.86-6.23.31-.65,1.08-.94,1.73-.65Z"/>
  </g>
</svg>