<?xml version="1.0" encoding="UTF-8"?>
<svg id="Layer_2" data-name="Layer 2" xmlns="http://www.w3.org/2000/svg" viewBox="0 0 19.3 25.83">
  <defs>
    <style>
      .cls-1 {
        fill: #fff;
        fill-rule: evenodd;
      }
    </style>
  </defs>
  <g id="Layer_1-2" data-name="Layer 1">
    <path class="cls-1" d="M6.77,24.01l12.05-10.07c.31-.26.48-.61.48-1.02s-.16-.76-.48-1.02L6.77,1.82c-.41-.34-.94-.41-1.42-.18-.48.22-.77.68-.77,1.21v20.14c0,.53.29.98.77,1.21.48.22,1.01.16,1.42-.18h0ZM1.49,0h-.16C.6,0,0,.6,0,1.33v23.17c0,.73.6,1.33,1.33,1.33h.16c.73,0,1.33-.6,1.33-1.33V1.33c0-.73-.6-1.33-1.33-1.33Z"/>
  </g>
</svg>