<?xml version="1.0" encoding="UTF-8"?>
<svg id="Layer_2" data-name="Layer 2" xmlns="http://www.w3.org/2000/svg" viewBox="0 0 87.99 71.56">
  <g id="Layer_1-2" data-name="Layer 1">
    <g>
      <path d="M85.49,71.56H12.57c-6.93,0-12.57-5.64-12.57-12.57V2.5C0,1.12,1.12,0,2.5,0s2.5,1.12,2.5,2.5v56.49c0,4.17,3.39,7.57,7.57,7.57h72.92c1.38,0,2.5,1.12,2.5,2.5s-1.12,2.5-2.5,2.5Z"/>
      <path d="M17.6,60.46c-1.38,0-2.5-1.12-2.5-2.5v-19.31c0-1.38,1.12-2.5,2.5-2.5s2.5,1.12,2.5,2.5v19.31c0,1.38-1.12,2.5-2.5,2.5Z"/>
      <path d="M32.7,60.46c-1.38,0-2.5-1.12-2.5-2.5v-28.62c0-1.38,1.12-2.5,2.5-2.5s2.5,1.12,2.5,2.5v28.62c0,1.38-1.12,2.5-2.5,2.5Z"/>
      <path d="M47.79,60.46c-1.38,0-2.5-1.12-2.5-2.5v-19.31c0-1.38,1.12-2.5,2.5-2.5s2.5,1.12,2.5,2.5v19.31c0,1.38-1.12,2.5-2.5,2.5Z"/>
      <path d="M62.89,60.46c-1.38,0-2.5-1.12-2.5-2.5v-28.62c0-1.38,1.12-2.5,2.5-2.5s2.5,1.12,2.5,2.5v28.62c0,1.38-1.12,2.5-2.5,2.5Z"/>
      <path d="M47.79,25.24h0c-.66,0-1.3-.26-1.77-.73l-13.33-13.33-13.33,13.33c-.98.98-2.56.98-3.54,0-.98-.98-.98-2.56,0-3.54l15.02-15.02c.46-.51,1.13-.81,1.85-.81s1.35.29,1.82.78l13.28,13.28L66.26.73c.98-.98,2.56-.98,3.54,0,.98.98.98,2.56,0,3.54l-20.24,20.24c-.47.47-1.1.73-1.77.73Z"/>
    </g>
  </g>
</svg>