<?xml version="1.0" encoding="UTF-8"?>
<svg id="Layer_2" data-name="Layer 2" xmlns="http://www.w3.org/2000/svg" viewBox="0 0 26.73 19.07">
  <defs>
    <style>
      .cls-1 {
        fill: #fff;
        fill-rule: evenodd;
      }
    </style>
  </defs>
  <g id="Layer_1-2" data-name="Layer 1">
    <path class="cls-1" d="M5.8,4.29h19.34l-9.64,7.84L5.8,4.29h0ZM21.43,0H.67c-.37,0-.67.3-.67.67v13.08c0,.37.3.67.67.67s.67-.3.67-.67V1.33h20.1c.37,0,.67-.3.67-.67s-.3-.67-.67-.67h0ZM23.44,2.15H2.68c-.37,0-.67.3-.67.67v13.08c0,.37.3.67.67.67s.67-.3.67-.67V3.48h20.1c.37,0,.67-.3.67-.67s-.3-.67-.67-.67h0ZM26.69,4.75l-7.34,5.97,7.37,7.38V4.96c0-.07-.01-.15-.04-.21h0ZM25.82,19.07l-7.51-7.51-2.4,1.95c-.25.2-.6.19-.84,0l-2.41-1.95-7.5,7.51h20.65ZM4.27,18.09l7.36-7.37-7.34-5.94c-.02.06-.02.11-.02.18v13.13Z"/>
  </g>
</svg>