<?xml version="1.0" encoding="UTF-8"?>
<svg id="Layer_2" data-name="Layer 2" xmlns="http://www.w3.org/2000/svg" viewBox="0 0 72.96 76.03">
  <g id="Layer_1-2" data-name="Layer 1">
    <g>
      <path d="M33.56,28.39c-1.51,0-2.93-.59-3.99-1.65l-11.46-11.46c-3.49-3.49-3.49-9.17,0-12.66,1.69-1.69,3.94-2.62,6.33-2.62s4.64.93,6.33,2.62l2.79,2.79,2.79-2.79c1.69-1.69,3.94-2.62,6.33-2.62s4.64.93,6.33,2.62,2.62,3.94,2.62,6.33-.93,4.64-2.62,6.33l-11.46,11.46c-1.07,1.07-2.48,1.65-3.99,1.65ZM24.44,5c-1.06,0-2.05.41-2.79,1.16-1.54,1.54-1.54,4.05,0,5.59l11.46,11.46c.16.16.34.19.46.19s.3-.03.46-.19l11.46-11.46c.75-.75,1.16-1.74,1.16-2.79s-.41-2.05-1.16-2.79t0,0c-1.49-1.49-4.09-1.49-5.59,0l-4.56,4.56c-.94.94-2.6.94-3.54,0l-4.56-4.56c-.75-.75-1.74-1.16-2.79-1.16Z"/>
      <path d="M34.3,76.03H14.25c-7.86,0-14.25-6.39-14.25-14.25v-12.75c0-7.86,6.39-14.25,14.25-14.25h23.84c3.75,0,7.05,1.98,8.89,4.96l8.16-8.16c4.07-4.07,10.7-4.07,14.77,0,4.07,4.07,4.07,10.7,0,14.77,0,0-19.15,19.12-25.53,25.5-2.69,2.69-6.27,4.17-10.08,4.17ZM14.25,39.78c-5.1,0-9.25,4.15-9.25,9.25v12.75c0,5.1,4.15,9.25,9.25,9.25h20.05c2.47,0,4.79-.96,6.54-2.71,6.38-6.38,25.53-25.5,25.53-25.5,2.12-2.12,2.12-5.57,0-7.7-2.12-2.12-5.58-2.12-7.7,0l-10.12,10.12h0c0,5.77-4.69,10.46-10.46,10.46h-15.18c-1.38,0-2.5-1.12-2.5-2.5s1.12-2.5,2.5-2.5h15.18c3.01,0,5.46-2.45,5.46-5.46,0-.2-.01-.39-.03-.59,0-.05-.02-.11-.02-.17-.37-2.66-2.65-4.71-5.41-4.71H14.25Z"/>
    </g>
  </g>
</svg>