<?xml version="1.0" encoding="UTF-8"?>
<svg id="Layer_2" data-name="Layer 2" xmlns="http://www.w3.org/2000/svg" viewBox="0 0 27.72 27.72">
  <defs>
    <style>
      .cls-1 {
        fill: #fff;
        fill-rule: evenodd;
      }
    </style>
  </defs>
  <g id="Layer_1-2" data-name="Layer 1">
    <path class="cls-1" d="M0,16.78v-5.84c0-.4.33-.73.73-.73h3.24c.05-.13.1-.26.15-.39.05-.13.11-.26.17-.38l-2.29-2.29c-.28-.28-.28-.75,0-1.03L6.12,2c.28-.28.75-.28,1.03,0l2.29,2.29c.13-.06.26-.11.38-.17.13-.05.26-.1.39-.15V.73c0-.4.33-.73.73-.73h5.84c.4,0,.73.33.73.73v3.29c.13.05.25.1.37.15.12.05.24.1.35.16l2.33-2.33c.28-.28.75-.28,1.03,0l4.13,4.13c.28.28.28.75,0,1.03l-2.39,2.39c.05.11.1.22.14.34.04.11.09.22.13.33h3.39c.4,0,.73.33.73.73v5.84c0,.4-.33.73-.73.73h-3.45c-.04.11-.08.21-.12.31h0c-.04.1-.09.2-.13.31l2.44,2.44c.28.28.28.75,0,1.03l-4.13,4.13c-.28.28-.75.28-1.03,0l-2.44-2.44c-.1.05-.21.09-.3.13-.1.04-.21.08-.31.13v3.45c0,.4-.33.73-.73.73h-5.84c-.4,0-.73-.33-.73-.73v-3.39c-.11-.04-.22-.08-.33-.13-.11-.05-.23-.09-.34-.14l-2.39,2.39c-.28.28-.75.28-1.03,0l-4.13-4.13c-.28-.28-.28-.75,0-1.03l2.33-2.33c-.05-.12-.11-.23-.16-.35-.05-.12-.1-.24-.15-.37H.73c-.4,0-.73-.33-.73-.73h0ZM17.45,10.12c-.94-.94-2.23-1.52-3.67-1.52s-2.73.58-3.67,1.52c-.94.94-1.52,2.23-1.52,3.67s.58,2.73,1.52,3.67c.94.94,2.23,1.52,3.67,1.52s2.73-.58,3.67-1.52,1.52-2.23,1.52-3.67-.58-2.73-1.52-3.67Z"/>
  </g>
</svg>