<?xml version="1.0" encoding="UTF-8"?>
<svg id="Layer_2" data-name="Layer 2" xmlns="http://www.w3.org/2000/svg" viewBox="0 0 154.07 160.54">
  <defs>
    <style>
      .cls-1 {
        fill: #080a16;
      }
    </style>
  </defs>
  <g id="Calque_1" data-name="Calque 1">
    <g>
      <path class="cls-1" d="M77.03,0h0c-8.91,0-15.54,8.22-13.66,16.93l13.66,63.34,13.66-63.34c1.88-8.71-4.76-16.93-13.66-16.93Z"/>
      <path class="cls-1" d="M29.85,15.33h0c-7.21,5.24-7.74,15.79-1.11,21.73l48.29,43.21-26.18-59.28c-3.6-8.15-13.8-10.9-21-5.66Z"/>
      <path class="cls-1" d="M.69,55.46c-2.75,8.47,3.01,17.32,11.88,18.23l64.47,6.58L21.01,47.7c-7.7-4.48-17.57-.71-20.32,7.76Z"/>
      <path class="cls-1" d="M.69,105.07h0c2.75,8.47,12.62,12.24,20.32,7.77l56.02-32.57-64.47,6.58c-8.86.9-14.63,9.75-11.88,18.23Z"/>
      <path class="cls-1" d="M29.85,145.21h0c7.21,5.24,17.41,2.49,21-5.66l26.18-59.28-48.29,43.21c-6.64,5.94-6.1,16.49,1.11,21.73Z"/>
      <path class="cls-1" d="M77.03,160.54h0c8.91,0,15.54-8.22,13.66-16.93l-13.66-63.34-13.66,63.34c-1.88,8.71,4.76,16.93,13.66,16.93Z"/>
      <path class="cls-1" d="M124.21,145.21c7.21-5.24,7.74-15.79,1.11-21.73l-48.29-43.21,26.18,59.28c3.6,8.15,13.8,10.9,21,5.66Z"/>
      <path class="cls-1" d="M141.5,86.85l-64.46-6.58,56.02,32.57c7.7,4.48,17.57.71,20.32-7.77h0c2.75-8.47-3.01-17.32-11.88-18.23Z"/>
      <path class="cls-1" d="M153.37,55.46c-2.75-8.47-12.62-12.24-20.32-7.76l-56.02,32.57,64.46-6.58c8.86-.9,14.63-9.75,11.88-18.23Z"/>
      <path class="cls-1" d="M124.21,15.33c-7.21-5.24-17.41-2.49-21,5.66l-26.18,59.28,48.29-43.21c6.64-5.94,6.1-16.49-1.11-21.73Z"/>
    </g>
  </g>
</svg>