<?xml version="1.0" encoding="UTF-8"?>
<svg id="Layer_2" data-name="Layer 2" xmlns="http://www.w3.org/2000/svg" viewBox="0 0 74.3 69.05">
  <g id="Layer_1-2" data-name="Layer 1">
    <g>
      <path d="M70.62,26.22H3.68c-1.68,0-3.1-1.09-3.54-2.71s.24-3.28,1.69-4.13L33.05,1.11h0c2.53-1.48,5.68-1.48,8.2,0l31.22,18.27c1.45.85,2.13,2.51,1.69,4.13-.44,1.62-1.86,2.71-3.54,2.71ZM8.58,21.22h57.14l-26.99-15.79c-.97-.57-2.18-.57-3.16,0l-26.99,15.79Z"/>
      <path d="M63.51,58.36H10.79c-1.38,0-2.5-1.12-2.5-2.5s1.12-2.5,2.5-2.5h52.71c1.38,0,2.5,1.12,2.5,2.5s-1.12,2.5-2.5,2.5Z"/>
      <path d="M67.69,69.05H6.61c-1.38,0-2.5-1.12-2.5-2.5s1.12-2.5,2.5-2.5h61.07c1.38,0,2.5,1.12,2.5,2.5s-1.12,2.5-2.5,2.5Z"/>
      <path d="M14.69,58.36c-1.38,0-2.5-1.12-2.5-2.5V23.72c0-1.38,1.12-2.5,2.5-2.5s2.5,1.12,2.5,2.5v32.15c0,1.38-1.12,2.5-2.5,2.5Z"/>
      <path d="M29.66,58.36c-1.38,0-2.5-1.12-2.5-2.5V23.72c0-1.38,1.12-2.5,2.5-2.5s2.5,1.12,2.5,2.5v32.15c0,1.38-1.12,2.5-2.5,2.5Z"/>
      <path d="M44.63,58.36c-1.38,0-2.5-1.12-2.5-2.5V23.72c0-1.38,1.12-2.5,2.5-2.5s2.5,1.12,2.5,2.5v32.15c0,1.38-1.12,2.5-2.5,2.5Z"/>
      <path d="M59.6,58.36c-1.38,0-2.5-1.12-2.5-2.5V23.72c0-1.38,1.12-2.5,2.5-2.5s2.5,1.12,2.5,2.5v32.15c0,1.38-1.12,2.5-2.5,2.5Z"/>
    </g>
  </g>
</svg>