<?xml version="1.0" encoding="UTF-8"?>
<svg id="Layer_2" data-name="Layer 2" xmlns="http://www.w3.org/2000/svg" viewBox="0 0 86.14 76.01">
  <g id="Layer_1-2" data-name="Layer 1">
    <g>
      <path d="M79.86,76.01H6.28c-3.46,0-6.28-2.82-6.28-6.28V15.25c0-3.46,2.82-6.28,6.28-6.28h73.58c3.46,0,6.28,2.82,6.28,6.28v54.48c0,3.46-2.82,6.28-6.28,6.28ZM6.28,13.97c-.71,0-1.28.57-1.28,1.28v54.48c0,.71.57,1.28,1.28,1.28h73.58c.71,0,1.28-.57,1.28-1.28V15.25c0-.71-.57-1.28-1.28-1.28H6.28Z"/>
      <g>
        <circle cx="27.46" cy="45.84" r="4.59"/>
        <circle cx="43.07" cy="45.84" r="4.59"/>
        <circle cx="58.68" cy="45.84" r="4.59"/>
      </g>
      <path d="M83.64,28.86H2.5c-1.38,0-2.5-1.12-2.5-2.5s1.12-2.5,2.5-2.5h81.14c1.38,0,2.5,1.12,2.5,2.5s-1.12,2.5-2.5,2.5Z"/>
      <g>
        <path d="M56.9,13.97c-1.38,0-2.5-1.12-2.5-2.5V2.5c0-1.38,1.12-2.5,2.5-2.5s2.5,1.12,2.5,2.5v8.97c0,1.38-1.12,2.5-2.5,2.5Z"/>
        <path d="M29.24,13.97c-1.38,0-2.5-1.12-2.5-2.5V2.5c0-1.38,1.12-2.5,2.5-2.5s2.5,1.12,2.5,2.5v8.97c0,1.38-1.12,2.5-2.5,2.5Z"/>
      </g>
    </g>
  </g>
</svg>