<?xml version="1.0" encoding="UTF-8"?>
<svg id="Layer_2" data-name="Layer 2" xmlns="http://www.w3.org/2000/svg" viewBox="0 0 74.57 74.57">
  <g id="Layer_1-2" data-name="Layer 1">
    <g>
      <path d="M37.28,54.57c-9.53,0-17.29-7.76-17.29-17.29s7.76-17.29,17.29-17.29,17.29,7.76,17.29,17.29-7.76,17.29-17.29,17.29ZM37.28,24.99c-6.78,0-12.29,5.51-12.29,12.29s5.51,12.29,12.29,12.29,12.29-5.51,12.29-12.29-5.51-12.29-12.29-12.29Z"/>
      <path d="M37.28,74.57C16.73,74.57,0,57.84,0,37.28S16.73,0,37.28,0s37.28,16.73,37.28,37.28c0,1.38-1.12,2.5-2.5,2.5s-2.5-1.12-2.5-2.5c0-17.8-14.48-32.28-32.28-32.28S5,19.48,5,37.28s14.48,32.28,32.28,32.28c5.73,0,11.36-1.52,16.28-4.4,1.19-.7,2.72-.3,3.42.9.7,1.19.3,2.72-.9,3.42-5.68,3.32-12.18,5.08-18.8,5.08Z"/>
      <path d="M60.44,58.77c-3.31,0-6.5-1.3-8.89-3.68-3.47-3.47-4.55-8.74-2.77-13.44.74-1.94.97-3.99.68-6.09-.19-1.37.77-2.63,2.14-2.81,1.38-.18,2.63.77,2.81,2.14.39,2.89.06,5.85-.96,8.54-1.09,2.86-.45,6.05,1.63,8.13,1.81,1.81,4.39,2.58,6.91,2.06,2.45-.5,4.38-2.1,5.29-4.39,2.04-5.12,2.72-10.54,2.02-16.13-.17-1.37.8-2.62,2.17-2.79,1.37-.18,2.62.8,2.79,2.17.8,6.35-.01,12.78-2.33,18.61-1.52,3.82-4.86,6.6-8.92,7.43-.86.18-1.72.26-2.57.26Z"/>
    </g>
  </g>
</svg>