<?xml version="1.0" encoding="UTF-8"?>
<svg id="Layer_2" data-name="Layer 2" xmlns="http://www.w3.org/2000/svg" viewBox="0 0 160.54 160.54">
  <defs>
    <style>
      .cls-1 {
        fill: #080a16;
      }
    </style>
  </defs>
  <g id="Calque_1" data-name="Calque 1">
    <g>
      <polygon class="cls-1" points="0 160.54 0 107.02 53.51 160.54 0 160.54"/>
      <polygon class="cls-1" points="107.03 160.54 107.03 107.02 160.54 160.54 107.03 160.54"/>
      <polygon class="cls-1" points="53.51 160.54 53.51 107.02 107.03 160.54 53.51 160.54"/>
      <polygon class="cls-1" points="0 107.02 0 53.51 53.51 107.02 0 107.02"/>
      <polygon class="cls-1" points="107.03 107.02 107.03 53.51 160.54 107.02 107.03 107.02"/>
      <polygon class="cls-1" points="53.51 107.02 53.51 53.51 107.03 107.02 53.51 107.02"/>
      <polygon class="cls-1" points="0 53.51 0 0 53.51 53.51 0 53.51"/>
      <polygon class="cls-1" points="53.51 53.51 53.51 0 107.03 53.51 53.51 53.51"/>
      <polygon class="cls-1" points="107.03 53.51 107.03 0 160.54 53.51 107.03 53.51"/>
    </g>
  </g>
</svg>