<?xml version="1.0" encoding="UTF-8"?>
<svg id="Layer_2" data-name="Layer 2" xmlns="http://www.w3.org/2000/svg" viewBox="0 0 24.91 20">
  <defs>
    <style>
      .cls-1 {
        fill: #fff;
        fill-rule: evenodd;
      }
    </style>
  </defs>
  <g id="Layer_1-2" data-name="Layer 1">
    <path class="cls-1" d="M22.24,11.01c0-.74.6-1.33,1.33-1.33s1.33.6,1.33,1.33v7.66c0,.74-.6,1.33-1.33,1.33H1.33c-.74,0-1.33-.6-1.33-1.33v-7.66c0-.74.6-1.33,1.33-1.33s1.33.6,1.33,1.33v6.33h19.58v-6.33h0ZM7.39,13.83c0-1.46.6-2.8,1.57-3.76.97-.97,2.3-1.57,3.76-1.57h3.97l-3.56,3.56c-.52.52-.52,1.36,0,1.88.52.52,1.36.52,1.88,0l5.83-5.83c.25-.25.38-.59.39-.92v-.02s0,0,0,0v-.02c0-.33-.14-.67-.39-.92L15.02.39c-.52-.52-1.36-.52-1.88,0-.52.52-.52,1.36,0,1.88l3.56,3.56h-3.97c-2.2,0-4.2.9-5.65,2.35-1.45,1.45-2.35,3.45-2.35,5.65,0,.74.6,1.33,1.33,1.33s1.33-.6,1.33-1.33Z"/>
  </g>
</svg>