<?xml version="1.0" encoding="UTF-8"?>
<svg id="Layer_2" data-name="Layer 2" xmlns="http://www.w3.org/2000/svg" viewBox="0 0 26.59 18.28">
  <defs>
    <style>
      .cls-1 {
        fill: #fff;
        fill-rule: evenodd;
      }
    </style>
  </defs>
  <g id="Layer_1-2" data-name="Layer 1">
    <path class="cls-1" d="M7.01,0h12.56c1.93,0,3.68.79,4.95,2.06,1.27,1.27,2.06,3.02,2.06,4.95,0,1.6-.55,3.08-1.46,4.27-.8,1.03-1.87,1.84-3.11,2.3.2.58.47,1.14.8,1.65.44.7.99,1.33,1.62,1.87.28.24.31.66.07.94-.16.19-.41.27-.64.22-1.32-.28-2.55-.84-3.61-1.62-.97-.71-1.81-1.6-2.45-2.62H7.01c-1.93,0-3.68-.79-4.95-2.06-1.27-1.27-2.06-3.02-2.06-4.95S.79,3.33,2.06,2.06C3.33.79,5.08,0,7.01,0Z"/>
  </g>
</svg>