<?xml version="1.0" encoding="UTF-8"?>
<svg id="Layer_2" data-name="Layer 2" xmlns="http://www.w3.org/2000/svg" viewBox="0 0 160.52 160.53">
  <defs>
    <style>
      .cls-1 {
        fill: #080a16;
      }
    </style>
  </defs>
  <g id="Calque_1" data-name="Calque 1">
    <path class="cls-1" d="M160.52,58.68V0h0S0,0,0,0H0s0,0,0,0v58.68h25.46v43.16H0v58.68h0s160.52,0,160.52,0h0s0,0,0,0v-58.68h-25.46v-43.16h25.46ZM58.68,7.76h43.16v43.16h-43.16V7.76ZM109.6,7.76h43.16v43.16h-43.16V7.76ZM7.76,50.92V7.76h43.16v43.16H7.76ZM33.22,58.68h43.16v43.16h-43.16v-43.16ZM101.84,152.76h-43.16v-43.16h43.16v43.16ZM50.92,109.6v43.16H7.76v-43.16h43.16ZM152.76,109.6v43.16h-43.16v-43.16h43.16ZM127.3,101.84h-43.16v-43.16h43.16v43.16Z"/>
  </g>
</svg>