<?xml version="1.0" encoding="UTF-8"?>
<svg id="Layer_2" data-name="Layer 2" xmlns="http://www.w3.org/2000/svg" viewBox="0 0 160.54 160.54">
  <defs>
    <style>
      .cls-1 {
        fill: #080a16;
      }
    </style>
  </defs>
  <g id="Calque_1" data-name="Calque 1">
    <path class="cls-1" d="M58.28,160.52h0s21.99.01,21.99.01h0c0-44.33,35.94-80.28,80.26-80.28h.01v-21.99h-.01c-56.38,0-102.25,45.87-102.25,102.25ZM58.28,160.52h0s21.99.01,21.99.01h0c0-44.33,35.94-80.28,80.26-80.28h.01v-21.99h-.01c-56.38,0-102.25,45.87-102.25,102.25ZM29.75,160.52h0s20.77.01,20.77.01h0c0-60.67,49.35-110.02,110.01-110.02h.01v-20.77h-.01c-72.11,0-130.78,58.66-130.78,130.78ZM58.28,160.52h0s21.99.01,21.99.01h0c0-44.33,35.94-80.28,80.26-80.28h.01v-21.99h-.01c-56.38,0-102.25,45.87-102.25,102.25ZM29.75,160.52h0s20.77.01,20.77.01h0c0-60.67,49.35-110.02,110.01-110.02h.01v-20.77h-.01c-72.11,0-130.78,58.66-130.78,130.78ZM58.28,160.52h0s21.99.01,21.99.01h0c0-44.33,35.94-80.28,80.26-80.28h.01v-21.99h-.01c-56.38,0-102.25,45.87-102.25,102.25ZM0,160.52h0s21.99.01,21.99.01h0c0-76.41,62.14-138.55,138.54-138.55h.01V0h-.01C71.87,0,0,71.87,0,160.52ZM29.75,160.52h0s20.77.01,20.77.01h0c0-60.67,49.35-110.02,110.01-110.02h.01v-20.77h-.01c-72.11,0-130.78,58.66-130.78,130.78ZM58.28,160.52h0s21.99.01,21.99.01h0c0-44.33,35.94-80.28,80.26-80.28h.01v-21.99h-.01c-56.38,0-102.25,45.87-102.25,102.25ZM58.28,160.52h0s21.99.01,21.99.01h0c0-44.33,35.94-80.28,80.26-80.28h.01v-21.99h-.01c-56.38,0-102.25,45.87-102.25,102.25ZM58.28,160.52h0s21.99.01,21.99.01h0c0-44.33,35.94-80.28,80.26-80.28h.01v-21.99h-.01c-56.38,0-102.25,45.87-102.25,102.25Z"/>
  </g>
</svg>