<?xml version="1.0" encoding="UTF-8"?>
<svg id="Layer_2" data-name="Layer 2" xmlns="http://www.w3.org/2000/svg" viewBox="0 0 71.56 71.55">
  <g id="Layer_1-2" data-name="Layer 1">
    <g>
      <path d="M52.61,46.02c2.44,1.74,2.06,5.47-.67,6.7-6.33,2.85-14.02,1.67-19.21-3.54l-10.36-10.36c-5.19-5.19-6.37-12.88-3.53-19.2,1.23-2.74,4.96-3.12,6.7-.68l2.89,4.05c.86,1.21.91,2.77.24,4.1-1.35,2.7-.9,6.07,1.35,8.32l6.12,6.12c2.25,2.25,5.62,2.7,8.32,1.35,1.33-.66,2.89-.62,4.1.24l4.05,2.89Z"/>
      <path d="M35.78,71.55C16.05,71.55,0,55.5,0,35.78S16.05,0,35.78,0s35.78,16.05,35.78,35.78-16.05,35.78-35.78,35.78ZM35.78,5c-16.97,0-30.78,13.81-30.78,30.78s13.81,30.78,30.78,30.78,30.78-13.81,30.78-30.78S52.75,5,35.78,5Z"/>
    </g>
  </g>
</svg>