<?xml version="1.0" encoding="UTF-8"?>
<svg id="Layer_2" data-name="Layer 2" xmlns="http://www.w3.org/2000/svg" viewBox="0 0 77.08 66.5">
  <g id="Layer_1-2" data-name="Layer 1">
    <path d="M74.58,66.5c-1.38,0-2.5-1.12-2.5-2.5,0-11.01-8.95-19.98-19.95-19.98h-20.34v9.96c0,1-.6,1.91-1.52,2.3-.92.39-1.99.2-2.71-.5L.77,30.04c-.49-.47-.77-1.12-.77-1.8s.28-1.33.77-1.8L27.55.7c.72-.69,1.79-.89,2.71-.5.92.39,1.52,1.3,1.52,2.3v9.96h15.27c16.56,0,30.02,13.47,30.02,30.02v21.51c0,1.38-1.12,2.5-2.5,2.5ZM29.29,39.02h22.84c8.15,0,15.4,3.93,19.95,9.99v-6.53c0-13.8-11.23-25.02-25.02-25.02h-17.77c-1.38,0-2.5-1.12-2.5-2.5v-6.59L6.11,28.24l20.68,19.87v-6.59c0-1.38,1.12-2.5,2.5-2.5Z"/>
  </g>
</svg>