<?xml version="1.0" encoding="UTF-8"?>
<svg id="Layer_2" data-name="Layer 2" xmlns="http://www.w3.org/2000/svg" viewBox="0 0 17.44 30.17">
  <defs>
    <style>
      .cls-1 {
        fill: #fff;
        fill-rule: evenodd;
      }
    </style>
  </defs>
  <g id="Layer_1-2" data-name="Layer 1">
    <path class="cls-1" d="M4.71,27.82c0,1.3-1.05,2.35-2.35,2.35s-2.35-1.05-2.35-2.35,1.05-2.35,2.35-2.35,2.35,1.05,2.35,2.35h0ZM15.09,12.73c1.3,0,2.35,1.05,2.35,2.35s-1.05,2.35-2.35,2.35-2.35-1.05-2.35-2.35,1.05-2.35,2.35-2.35h0ZM8.49,10.84c0,1.3,1.05,2.35,2.35,2.35s2.35-1.05,2.35-2.35-1.05-2.35-2.35-2.35-2.35,1.05-2.35,2.35h0ZM8.49,19.33c0,1.3,1.05,2.35,2.35,2.35s2.35-1.05,2.35-2.35-1.05-2.35-2.35-2.35-2.35,1.05-2.35,2.35h0ZM8.95,23.57c0-1.3-1.05-2.35-2.35-2.35s-2.35,1.05-2.35,2.35,1.05,2.35,2.35,2.35,2.35-1.05,2.35-2.35h0ZM4.24,6.6c0-1.3,1.05-2.35,2.35-2.35s2.35,1.05,2.35,2.35-1.05,2.35-2.35,2.35-2.35-1.05-2.35-2.35h0ZM2.35,4.71c1.3,0,2.35-1.05,2.35-2.35S3.65,0,2.35,0,0,1.05,0,2.35s1.05,2.35,2.35,2.35Z"/>
  </g>
</svg>