<?xml version="1.0" encoding="UTF-8"?>
<svg id="Layer_2" data-name="Layer 2" xmlns="http://www.w3.org/2000/svg" viewBox="0 0 29.5 18.78">
  <defs>
    <style>
      .cls-1 {
        fill: #fff;
        fill-rule: evenodd;
      }
    </style>
  </defs>
  <g id="Layer_1-2" data-name="Layer 1">
    <path class="cls-1" d="M22.49,4.55l6.35,3.69c.42.25.66.66.66,1.15s-.24.91-.66,1.15l-6.35,3.69c-.48.28-1.05.24-1.49-.1-.44-.34-.61-.89-.45-1.43.31-1.05.48-2.16.48-3.32s-.17-2.26-.48-3.32c-.16-.53.02-1.08.45-1.43.44-.34,1.01-.38,1.49-.1h0ZM9.39,0c5.19,0,9.39,4.2,9.39,9.39s-4.2,9.39-9.39,9.39S0,14.58,0,9.39,4.2,0,9.39,0Z"/>
  </g>
</svg>