<?xml version="1.0" encoding="UTF-8"?>
<svg id="Layer_2" data-name="Layer 2" xmlns="http://www.w3.org/2000/svg" viewBox="0 0 23.9 23.9">
  <defs>
    <style>
      .cls-1 {
        fill: #fff;
        fill-rule: evenodd;
      }
    </style>
  </defs>
  <g id="Layer_1-2" data-name="Layer 1">
    <path class="cls-1" d="M11.95,0c3.3,0,6.29,1.34,8.45,3.5,2.16,2.16,3.5,5.15,3.5,8.45s-1.34,6.29-3.5,8.45c-2.16,2.16-5.15,3.5-8.45,3.5s-6.29-1.34-8.45-3.5C1.34,18.24,0,15.25,0,11.95S1.34,5.66,3.5,3.5C5.66,1.34,8.65,0,11.95,0h0ZM15.98,8.48h0s-4.24-2.45-4.24-2.45c-.32-.18-.72-.08-.91.24-.06.1-.09.22-.09.33h0v2.03h-.14c-1.85,0-3.53.76-4.75,1.98-1.22,1.22-1.98,2.9-1.98,4.75v1.14c0,.37.3.67.67.67.29,0,.54-.19.63-.44.31-.69.82-1.28,1.45-1.7.62-.41,1.36-.65,2.16-.65h1.96v2.02c0,.37.3.67.67.67.14,0,.27-.04.37-.11l8.44-4.88c.32-.18.43-.59.24-.91-.06-.11-.15-.19-.25-.25l-4.24-2.45Z"/>
  </g>
</svg>