<?xml version="1.0" encoding="UTF-8"?>
<svg id="Layer_2" data-name="Layer 2" xmlns="http://www.w3.org/2000/svg" viewBox="0 0 29.85 24.91">
  <defs>
    <style>
      .cls-1 {
        fill: #fff;
        fill-rule: evenodd;
      }
    </style>
  </defs>
  <g id="Layer_1-2" data-name="Layer 1">
    <path class="cls-1" d="M14.73,0h9.29l-4.78,5.53L15.33.32c-.05-.07-.11-.14-.18-.19-.33-.23-.78-.16-1.01.17l-3.71,5.2L5.68,0h9.05ZM25.26.79l-4.48,5.18h9.07L25.26.79h0ZM29.85,7.43l-14.57,17.23c-.26.31-.72.35-1.03.09-.05-.04-.08-.08-.12-.13L0,7.43h9.98l4.03,16.89c.05.27.25.49.53.57.39.1.79-.13.89-.52l4.41-16.94h10.01ZM0,5.97h8.9L4.45.8,0,5.97H0ZM11.89,5.97h5.87l-3.01-4.01-2.86,4.01h0ZM18.34,7.43h-6.86l3.28,13.75,3.58-13.75Z"/>
  </g>
</svg>