<?xml version="1.0" encoding="UTF-8"?>
<svg id="Layer_2" data-name="Layer 2" xmlns="http://www.w3.org/2000/svg" viewBox="0 0 160.54 160.54">
  <defs>
    <style>
      .cls-1 {
        fill: #080a16;
      }
    </style>
  </defs>
  <g id="Calque_1" data-name="Calque 1">
    <path class="cls-1" d="M0,0v160.54h0s160.54,0,160.54,0V0H0ZM7.76,152.78v-68.53c36.91,1.95,66.58,31.62,68.53,68.53H7.76ZM76.29,76.39H7.76V7.86c36.91,1.95,66.58,31.62,68.53,68.53ZM76.39,84.15v38.09c-7.94-16.65-21.44-30.16-38.1-38.09h38.1ZM84.15,152.78v-68.53c36.9,1.95,66.57,31.61,68.53,68.53h-68.53ZM84.15,7.86c36.9,1.95,66.57,31.61,68.53,68.53h-68.53V7.86ZM76.39,7.76v38.09c-7.94-16.65-21.44-30.16-38.1-38.09h38.1ZM114.68,84.15h38.1v38.1c-7.94-16.66-21.44-30.16-38.1-38.1ZM114.68,7.76h38.09v38.09c-7.93-16.65-21.44-30.16-38.09-38.09Z"/>
  </g>
</svg>