<?xml version="1.0" encoding="UTF-8"?>
<svg id="Layer_2" data-name="Layer 2" xmlns="http://www.w3.org/2000/svg" viewBox="0 0 28.28 25.05">
  <defs>
    <style>
      .cls-1 {
        fill: #fff;
        fill-rule: evenodd;
      }
    </style>
  </defs>
  <g id="Layer_1-2" data-name="Layer 1">
    <path class="cls-1" d="M11.71,0h.6c.34,0,.63.1.9.3l14.5,11.05c.38.29.58.7.58,1.18s-.2.89-.58,1.18l-14.5,11.05c-.27.2-.56.3-.9.3h-.6c-.65,0-1.2-.39-1.4-1.01-.21-.61,0-1.26.51-1.65l11.41-8.69c.38-.29.58-.7.58-1.18s-.2-.89-.58-1.18L10.81,2.66c-.51-.39-.71-1.04-.51-1.65.21-.61.76-1.01,1.4-1.01h0ZM1.48,0C.84,0,.29.39.08,1.01c-.21.61,0,1.26.51,1.65l11.41,8.69c.38.29.58.7.58,1.18s-.2.89-.58,1.18L.59,22.39c-.51.39-.71,1.04-.51,1.65.21.61.76,1.01,1.4,1.01h.6c.34,0,.63-.1.9-.3l14.5-11.05c.38-.29.58-.7.58-1.18s-.2-.89-.58-1.18L2.98.3c-.27-.2-.56-.3-.9-.3h-.6Z"/>
  </g>
</svg>