<?xml version="1.0" encoding="UTF-8"?>
<svg id="Layer_2" data-name="Layer 2" xmlns="http://www.w3.org/2000/svg" viewBox="0 0 77.86 69.91">
  <g id="Layer_1-2" data-name="Layer 1">
    <g>
      <path d="M38.93,69.91c-.75,0-1.45-.33-1.93-.91L.57,24.91c-.7-.85-.76-2.06-.15-2.98L14.34,1.11c.46-.69,1.24-1.11,2.08-1.11h45.03c.83,0,1.61.42,2.08,1.11l13.91,20.82c.61.92.55,2.13-.15,2.98l-36.43,44.1c-.48.58-1.18.91-1.93.91ZM5.61,23.16l33.32,40.33,33.32-40.33-12.14-18.16H17.75L5.61,23.16Z"/>
      <path d="M38.93,69.91c-1.12,0-2.1-.74-2.4-1.81l-12.6-44.1c-.12-.41-.13-.84-.03-1.25L28.71,1.94c.26-1.13,1.27-1.94,2.44-1.94h15.57c1.16,0,2.17.8,2.44,1.94l4.81,20.82c.1.41.08.84-.03,1.25l-12.6,44.1c-.31,1.07-1.29,1.81-2.4,1.81ZM28.91,23.25l10.02,35.06,10.02-35.06-4.22-18.25h-11.6l-4.22,18.25Z"/>
      <path d="M75.36,25.82H2.5C1.12,25.82,0,24.7,0,23.32s1.12-2.5,2.5-2.5h72.86c1.38,0,2.5,1.12,2.5,2.5s-1.12,2.5-2.5,2.5Z"/>
    </g>
  </g>
</svg>