<?xml version="1.0" encoding="UTF-8"?>
<svg id="Layer_2" data-name="Layer 2" xmlns="http://www.w3.org/2000/svg" viewBox="0 0 59.44 58.97">
  <g id="Layer_1-2" data-name="Layer 1">
    <g>
      <path d="M56.94,58.97H12.57c-6.93,0-12.57-5.64-12.57-12.57V2.5C0,1.12,1.12,0,2.5,0s2.5,1.12,2.5,2.5v43.9c0,4.17,3.39,7.57,7.57,7.57h44.37c1.38,0,2.5,1.12,2.5,2.5s-1.12,2.5-2.5,2.5Z"/>
      <path d="M17.6,47.87c-1.38,0-2.5-1.12-2.5-2.5v-19.31c0-1.38,1.12-2.5,2.5-2.5s2.5,1.12,2.5,2.5v19.31c0,1.38-1.12,2.5-2.5,2.5Z"/>
      <path d="M32.7,47.88c-1.38,0-2.5-1.12-2.5-2.5v-14.31c0-1.38,1.12-2.5,2.5-2.5s2.5,1.12,2.5,2.5v14.31c0,1.38-1.12,2.5-2.5,2.5Z"/>
      <path d="M47.79,47.87c-1.38,0-2.5-1.12-2.5-2.5V13.18c0-1.38,1.12-2.5,2.5-2.5s2.5,1.12,2.5,2.5v32.19c0,1.38-1.12,2.5-2.5,2.5Z"/>
    </g>
  </g>
</svg>