<?xml version="1.0" encoding="UTF-8"?>
<svg id="Layer_2" data-name="Layer 2" xmlns="http://www.w3.org/2000/svg" viewBox="0 0 22.73 25.67">
  <defs>
    <style>
      .cls-1 {
        fill: #fff;
        fill-rule: evenodd;
      }
    </style>
  </defs>
  <g id="Layer_1-2" data-name="Layer 1">
    <path class="cls-1" d="M10,0c1.68,0,3.19.68,4.29,1.78,1.1,1.1,1.78,2.62,1.78,4.29s-.68,3.19-1.78,4.29c-.5.5-1.08.91-1.73,1.21,1.4.37,2.68,1.04,3.77,1.94-1.52.15-2.89.83-3.91,1.85-.59.59-1.07,1.3-1.39,2.09-.31.76-.49,1.59-.49,2.46s.17,1.7.49,2.46c.33.79.81,1.5,1.39,2.09.06.06.12.12.18.18H2.2c-.61,0-1.16-.25-1.56-.65-.4-.4-.65-.95-.65-1.56v-1.2c0-2.75,1.12-5.25,2.94-7.06,1.23-1.23,2.77-2.14,4.5-2.6-.64-.3-1.23-.71-1.73-1.21-1.1-1.1-1.78-2.62-1.78-4.29s.68-3.19,1.78-4.29c1.1-1.1,2.62-1.78,4.29-1.78h0ZM16.97,14.14c-1.59,0-3.03.65-4.08,1.69-1.04,1.04-1.69,2.48-1.69,4.08s.65,3.03,1.69,4.08c1.04,1.04,2.48,1.69,4.08,1.69s3.03-.65,4.08-1.69c1.04-1.04,1.69-2.48,1.69-4.08s-.65-3.03-1.69-4.08c-1.04-1.04-2.48-1.69-4.08-1.69h0ZM17.16,16.28c.36-.21.9-.22,1.13.17.24.39-.03.87-.38,1.08-.36.21-.9.22-1.13-.17-.24-.39.03-.86.38-1.08h0ZM17.25,22.54l.71-3.86c.02-.12-.02-.24-.11-.31-.09-.08-.21-.08-.32-.05-.64.17-1.35.4-1.91.76l-.06.04.13.26c.05.11.18.16.29.12l.4-.13-.67,3.95c-.02.12.02.24.12.31.1.08.21.07.32.05.64-.13,1.44-.49,1.98-.85l.04-.03-.03-.25c0-.08-.05-.14-.11-.18-.06-.04-.14-.05-.21-.02l-.57.2Z"/>
  </g>
</svg>