<?xml version="1.0" encoding="UTF-8"?>
<svg id="Layer_2" data-name="Layer 2" xmlns="http://www.w3.org/2000/svg" viewBox="0 0 33.98 22.83">
  <defs>
    <style>
      .cls-1 {
        fill: #fff;
        fill-rule: evenodd;
      }
    </style>
  </defs>
  <g id="Layer_1-2" data-name="Layer 1">
    <path class="cls-1" d="M1.48,15.44l15.87-1.72c.43-.05.83.1,1.12.42.3.32.41.72.33,1.15l-1.12,5.96c-.1.55.13,1.08.6,1.37.47.3,1.05.28,1.5-.06l13.65-10.08c.35-.26.54-.63.54-1.07s-.19-.81-.54-1.07L19.78.26c-.45-.33-1.03-.35-1.5-.06-.47.3-.7.82-.6,1.37l1.12,5.96c.08.43-.04.83-.33,1.15-.3.32-.69.47-1.12.42L1.48,7.39c-.39-.04-.74.07-1.03.33-.29.26-.44.6-.44.99v5.41c0,.39.15.73.44.99.29.26.64.38,1.03.33Z"/>
  </g>
</svg>