<?xml version="1.0" encoding="UTF-8"?>
<svg id="Layer_2" data-name="Layer 2" xmlns="http://www.w3.org/2000/svg" viewBox="0 0 29.96 28.04">
  <defs>
    <style>
      .cls-1 {
        fill: #fff;
        fill-rule: evenodd;
      }
    </style>
  </defs>
  <g id="Layer_1-2" data-name="Layer 1">
    <path class="cls-1" d="M7.25,4.9h0c.23,0,.46.01.71.04l.19.02c.72-1.42,1.81-2.62,3.13-3.48,1.42-.93,3.12-1.47,4.95-1.47,2.25,0,4.32.82,5.9,2.19,1.49,1.28,2.56,3.04,2.98,5.04,1.31.29,2.47.99,3.33,1.97.95,1.08,1.53,2.5,1.53,4.04,0,1.7-.69,3.24-1.81,4.35-1.12,1.12-2.67,1.8-4.37,1.8h0c-1,0-6.91,0-11.48,0-2.57,0-4.72,0-5.34-.01-1.91-.03-3.63-.88-4.88-2.18-1.28-1.34-2.07-3.15-2.07-5.05,0-1.99.82-3.81,2.13-5.12,1.31-1.31,3.13-2.13,5.12-2.13h0ZM20.22,20.96c.18-.32.59-.43.91-.24.32.18.43.59.24.91l-.35.61c-.18.32-.59.43-.91.24-.32-.18-.43-.59-.24-.91l.35-.61h0ZM18.68,23.62c.18-.32.59-.43.91-.24.32.18.43.59.24.91l-.42.73c-.18.32-.59.43-.91.24-.32-.18-.43-.59-.24-.91l.42-.73h0ZM17.06,26.43c.18-.32.59-.43.91-.24.32.18.43.59.24.91l-.35.61c-.18.32-.59.43-.91.24-.32-.18-.43-.59-.24-.91l.35-.61h0ZM14.6,20.96c.18-.32.59-.43.91-.24.32.18.43.59.24.91l-.35.61c-.18.32-.59.43-.91.24-.32-.18-.43-.59-.24-.91l.35-.61h0ZM13.06,23.62c.18-.32.59-.43.91-.24.32.18.43.59.24.91l-.42.73c-.18.32-.59.43-.91.24-.32-.18-.43-.59-.24-.91l.42-.73h0ZM11.44,26.43c.18-.32.59-.43.91-.24.32.18.43.59.24.91l-.35.61c-.18.32-.59.43-.91.24-.32-.18-.43-.59-.24-.91l.35-.61h0ZM8.99,20.96c.18-.32.59-.43.91-.24.32.18.43.59.24.91l-.35.61c-.18.32-.59.43-.91.24-.32-.18-.43-.59-.24-.91l.35-.61h0ZM7.45,23.62c.18-.32.59-.43.91-.24.32.18.43.59.24.91l-.42.73c-.18.32-.59.43-.91.24-.32-.18-.43-.59-.24-.91l.42-.73h0ZM5.83,26.43c.18-.32.59-.43.91-.24.32.18.43.59.24.91l-.35.61c-.18.32-.59.43-.91.24-.32-.18-.43-.59-.24-.91l.35-.61Z"/>
  </g>
</svg>