<?xml version="1.0" encoding="UTF-8"?>
<svg id="Layer_2" data-name="Layer 2" xmlns="http://www.w3.org/2000/svg" viewBox="0 0 16.25 25.35">
  <defs>
    <style>
      .cls-1 {
        fill: #fff;
        fill-rule: evenodd;
      }
    </style>
  </defs>
  <g id="Layer_1-2" data-name="Layer 1">
    <path class="cls-1" d="M11.96,14.06c1.29.7,2.38,1.74,3.13,3,.73,1.22,1.15,2.64,1.15,4.15v3.47c0,.37-.3.67-.67.67H.67c-.37,0-.67-.3-.67-.67v-3.47c0-1.51.42-2.93,1.15-4.15.75-1.26,1.84-2.3,3.13-3,.22-.12.39-.28.5-.47.11-.19.17-.42.17-.67v-.49c0-.25-.06-.48-.17-.67-.12-.19-.29-.36-.5-.47-1.29-.7-2.38-1.74-3.13-3-.73-1.22-1.15-2.64-1.15-4.15V.67c0-.37.3-.67.67-.67h14.91c.37,0,.67.3.67.67v3.47c0,1.51-.42,2.93-1.15,4.15-.75,1.26-1.84,2.3-3.13,3-.22.12-.39.28-.5.47-.11.19-.17.42-.17.67v.49c0,.25.06.48.17.67.11.19.29.36.5.47h0ZM11.8,5.73h-7.35c.13.67.47,1.27.93,1.73.62.62,1.46,1,2.4,1h.69c.93,0,1.78-.38,2.4-1,.47-.47.8-1.06.93-1.73h0ZM4.45,21.45h7.35c-.13-.67-.47-1.27-.93-1.73-.62-.62-1.46-1-2.4-1h-.69c-.93,0-1.78.38-2.4,1-.47.47-.8,1.06-.93,1.73h0ZM8.79,9.78c1.17-.08,2.23-.59,3.02-1.38.86-.86,1.39-2.04,1.39-3.34,0-.37-.3-.67-.67-.67H3.71c-.37,0-.67.3-.67.67,0,1.3.53,2.48,1.39,3.34.79.79,1.85,1.3,3.02,1.38v.6c0,.37.3.67.67.67s.67-.3.67-.67v-.6h0ZM8.79,15.52c0-.37-.3-.66-.67-.66s-.66.29-.67.66h0v1.88c-1.17.08-2.23.59-3.02,1.38-.86.86-1.39,2.04-1.39,3.34,0,.37.3.67.67.67h8.82c.37,0,.67-.3.67-.67,0-1.3-.53-2.48-1.39-3.34-.79-.79-1.85-1.3-3.02-1.38v-1.88h0ZM7.46,12.1v1.01c0,.37.3.67.67.67s.67-.3.67-.67v-1.01c0-.37-.3-.67-.67-.67s-.67.3-.67.67Z"/>
  </g>
</svg>