<?xml version="1.0" encoding="UTF-8"?>
<svg id="Layer_2" data-name="Layer 2" xmlns="http://www.w3.org/2000/svg" viewBox="0 0 24.15 24.15">
  <defs>
    <style>
      .cls-1 {
        fill: #fff;
        fill-rule: evenodd;
      }
    </style>
  </defs>
  <g id="Layer_1-2" data-name="Layer 1">
    <path class="cls-1" d="M13.88,3.48c.16.03.31.07.46.11.15.04.31.09.46.14.07-.12.84-1.45.84-1.45.25-.43.65-.72,1.1-.84.42-.11.88-.07,1.3.14.04.02.08.04.12.07.4.25.68.64.79,1.07.12.44.07.94-.18,1.37l-.84,1.45c.12.11.24.22.35.33l.03.04c.1.1.2.21.29.31l1.45-.84c.43-.25.92-.3,1.37-.18.43.12.82.39,1.07.79.02.03.04.07.06.1.22.42.27.89.15,1.32-.12.45-.41.85-.84,1.1l-1.45.84c.05.15.1.31.14.46.04.15.08.31.11.46h1.68c.5,0,.95.2,1.27.53h0c.33.33.53.78.53,1.28s-.2.95-.53,1.28c-.33.33-.78.53-1.28.53h-1.68c-.03.16-.07.31-.11.46-.04.15-.09.31-.14.46.12.07,1.45.84,1.45.84.43.25.72.65.84,1.1.11.42.07.88-.14,1.3-.02.04-.04.08-.07.12-.25.4-.64.68-1.07.79-.44.12-.94.07-1.37-.18l-1.46-.84c-.11.12-.21.23-.33.35h0c-.11.12-.23.23-.35.33l.84,1.45c.25.43.3.92.18,1.37-.11.43-.39.82-.79,1.07-.03.02-.07.04-.1.06-.42.22-.89.27-1.32.15-.45-.12-.85-.41-1.1-.84l-.84-1.45c-.15.05-.31.1-.46.14-.15.04-.31.08-.46.11v1.68c0,.5-.2.95-.53,1.28-.33.33-.78.53-1.28.53s-.95-.2-1.28-.53h0c-.33-.33-.53-.78-.53-1.28v-1.68c-.16-.03-.31-.07-.46-.11-.15-.04-.31-.09-.46-.14-.07.12-.84,1.45-.84,1.45-.25.43-.65.72-1.1.84-.42.11-.88.07-1.3-.14-.04-.02-.08-.04-.12-.07-.4-.25-.68-.64-.79-1.07-.12-.44-.07-.94.18-1.37l.84-1.46c-.12-.11-.23-.21-.35-.33h0c-.11-.12-.22-.23-.33-.35l-1.45.84c-.43.25-.92.3-1.37.18-.43-.11-.82-.39-1.07-.79-.02-.03-.04-.07-.06-.1-.22-.42-.27-.89-.15-1.32.12-.45.41-.85.84-1.1l1.45-.84c-.05-.15-.1-.31-.14-.46-.04-.15-.08-.31-.11-.46h-1.68c-.5,0-.95-.2-1.28-.53h0c-.33-.33-.53-.78-.53-1.28s.2-.95.53-1.28c.33-.33.78-.53,1.28-.53h1.68c.03-.16.07-.31.11-.46.04-.15.09-.31.14-.46-.12-.07-1.45-.84-1.45-.84-.43-.25-.72-.65-.84-1.1-.11-.42-.07-.88.14-1.3.02-.04.04-.08.07-.12.25-.4.64-.68,1.07-.79.44-.12.94-.07,1.37.18l1.46.84c.11-.12.21-.23.33-.35h0c.11-.12.23-.23.35-.33l-.84-1.45c-.25-.43-.3-.92-.18-1.37.12-.43.39-.82.79-1.07.03-.02.07-.04.1-.06.42-.22.89-.27,1.32-.15.45.12.85.41,1.1.84l.84,1.45c.15-.05.31-.1.46-.14.15-.04.31-.08.46-.11v-1.68c0-.5.2-.95.53-1.28.33-.33.78-.53,1.28-.53s.95.2,1.28.53h0c.33.33.53.78.53,1.28v1.68h0ZM12.08,9.49c-.71,0-1.36.29-1.83.76h0c-.47.47-.76,1.12-.76,1.83s.29,1.36.76,1.83c.47.47,1.11.76,1.83.76s1.32-.27,1.79-.72l.04-.04c.47-.47.76-1.11.76-1.83s-.29-1.36-.76-1.82h0c-.47-.47-1.11-.76-1.83-.76h0ZM15.24,8.91c-.81-.81-1.93-1.31-3.17-1.31s-2.36.5-3.17,1.31c-.81.81-1.31,1.93-1.31,3.17s.5,2.36,1.31,3.17c.81.81,1.93,1.31,3.17,1.31s2.36-.5,3.17-1.31c.81-.81,1.31-1.93,1.31-3.17s-.5-2.36-1.31-3.17Z"/>
  </g>
</svg>