<?xml version="1.0" encoding="UTF-8"?>
<svg id="Layer_2" data-name="Layer 2" xmlns="http://www.w3.org/2000/svg" viewBox="0 0 19.93 25.06">
  <defs>
    <style>
      .cls-1 {
        fill: #fff;
        fill-rule: evenodd;
      }
    </style>
  </defs>
  <g id="Layer_1-2" data-name="Layer 1">
    <path class="cls-1" d="M10,0c1.68,0,3.19.68,4.29,1.78,1.1,1.1,1.78,2.62,1.78,4.29s-.68,3.19-1.78,4.29c-.5.5-1.08.91-1.73,1.21,1.11.3,2.14.78,3.07,1.41h-4.02c-.37,0-.7.15-.94.39h0c-.24.24-.39.58-.39.94v10.07c0,.08,0,.16.02.24H2.2c-.61,0-1.16-.25-1.56-.65-.4-.4-.65-.95-.65-1.56v-1.2c0-2.75,1.12-5.25,2.94-7.06,1.23-1.23,2.77-2.14,4.49-2.6-.64-.3-1.23-.71-1.73-1.21-1.1-1.1-1.78-2.62-1.78-4.29s.68-3.19,1.78-4.29c1.1-1.1,2.62-1.78,4.29-1.78h0ZM11.61,13.65c-.37,0-.67.3-.67.67v10.07c0,.37.3.67.67.67h7.66c.37,0,.67-.3.67-.67v-6.39h-3.4s-.06.01-.06.01c-.37,0-.67-.3-.67-.67v-3.7h-4.19ZM17.14,13.95l2.43,2.73h-2.43s0-2.73,0-2.73h0ZM13.55,23.27l3.78-.02c.37,0,.66-.3.66-.67s-.3-.66-.67-.66l-3.78.02c-.37,0-.66.3-.66.67,0,.37.3.66.67.66h0ZM13.55,19.66l3.78-.02c.37,0,.66-.3.66-.67s-.3-.66-.67-.66l-3.78.02c-.37,0-.66.3-.66.67,0,.37.3.66.67.66h0ZM13.55,21.47l3.78-.02c.37,0,.66-.3.66-.67s-.3-.66-.67-.66l-3.78.02c-.37,0-.66.3-.66.67,0,.37.3.66.67.66Z"/>
  </g>
</svg>