<?xml version="1.0" encoding="UTF-8"?>
<svg id="Layer_2" data-name="Layer 2" xmlns="http://www.w3.org/2000/svg" viewBox="0 0 24.47 24.47">
  <defs>
    <style>
      .cls-1 {
        fill: #fff;
        fill-rule: evenodd;
      }
    </style>
  </defs>
  <g id="Layer_1-2" data-name="Layer 1">
    <path class="cls-1" d="M0,14.81v-5.14c0-.37.3-.67.67-.67h2.84c.04-.11.08-.22.13-.33v-.03c.06-.1.1-.19.14-.29l-2-2c-.26-.26-.26-.68,0-.94l3.64-3.64c.26-.26.68-.26.94,0l2,2c.11-.05.22-.1.32-.14.11-.04.22-.09.33-.13V.67c0-.37.3-.67.67-.67h5.14c.37,0,.67.3.67.67v2.89c.11.04.21.08.31.13.1.04.2.09.3.13l2.05-2.05c.26-.26.68-.26.94,0l3.64,3.64c.26.26.26.68,0,.94l-2.1,2.1c.04.09.08.19.12.28.04.09.07.18.11.28h2.97c.37,0,.67.3.67.67v5.14c0,.37-.3.67-.67.67h-3.02c-.03.09-.07.17-.1.26h0c-.03.09-.07.17-.11.26l2.14,2.14c.26.26.26.68,0,.94l-3.64,3.64c-.26.26-.68.26-.94,0l-2.14-2.14c-.09.04-.17.08-.25.11-.08.04-.17.07-.26.11v3.02c0,.37-.3.67-.67.67h-5.14c-.37,0-.67-.3-.67-.67v-2.97c-.09-.03-.19-.07-.28-.11-.09-.04-.19-.08-.28-.12l-2.1,2.1c-.26.26-.68.26-.94,0l-3.64-3.64c-.26-.26-.26-.68,0-.94l2.05-2.05c-.05-.1-.09-.2-.13-.3-.04-.1-.09-.21-.13-.31H.67c-.37,0-.67-.3-.67-.67h0ZM15.38,8.96c-.82-.82-1.96-1.33-3.21-1.33s-2.39.51-3.21,1.33c-.82.82-1.33,1.96-1.33,3.21s.51,2.39,1.33,3.21,1.96,1.33,3.21,1.33,2.39-.51,3.21-1.33c.82-.82,1.33-1.96,1.33-3.21s-.51-2.39-1.33-3.21Z"/>
  </g>
</svg>