<?xml version="1.0" encoding="UTF-8"?>
<svg id="Layer_2" data-name="Layer 2" xmlns="http://www.w3.org/2000/svg" viewBox="0 0 29.57 29.57">
  <defs>
    <style>
      .cls-1 {
        fill: #fff;
        fill-rule: evenodd;
      }
    </style>
  </defs>
  <g id="Layer_1-2" data-name="Layer 1">
    <path class="cls-1" d="M14.79,0c8.17,0,14.79,6.62,14.79,14.79s-6.62,14.79-14.79,14.79S0,22.95,0,14.79,6.62,0,14.79,0h0ZM9.98,10.89l3.66,4.03-4.8,4.77,2.11,2.12,6.83-6.79-5.59-6.15-1.01-1.11-2.22,2.02,1.01,1.11h0ZM3.35,14.79l3.54,3.54,3.54-3.54-3.54-3.54-3.54,3.54h0ZM14.42,6.65l7.65,8.42-8.89,8.85,2.11,2.12,10.93-10.87-9.57-10.54-1.01-1.11-2.22,2.02,1.01,1.11Z"/>
  </g>
</svg>