<?xml version="1.0" encoding="UTF-8"?>
<svg id="Layer_2" data-name="Layer 2" xmlns="http://www.w3.org/2000/svg" viewBox="0 0 26.28 22.13">
  <defs>
    <style>
      .cls-1 {
        fill: #fff;
        fill-rule: evenodd;
      }
    </style>
  </defs>
  <g id="Layer_1-2" data-name="Layer 1">
    <path class="cls-1" d="M3.17,9.47h-1.84c-.3,0-.57-.1-.8-.27-.23-.17-.4-.41-.48-.7v-.04c-.08-.28-.07-.57.03-.82.11-.27.3-.51.58-.66l3.29-1.74V1.33c0-.37.15-.7.39-.94h0c.24-.24.57-.39.94-.39h2.69c.37,0,.7.15.94.39h0c.24.24.39.57.39.94v.63l2.09-1.22c.55-.32,1.15-.49,1.75-.49.6,0,1.19.16,1.74.48l10.74,6.26c.26.15.45.39.56.65.1.27.12.57.04.85-.08.29-.25.53-.48.7-.23.17-.51.27-.8.27h-1.68v9.33c0,.92-.37,1.75-.98,2.35-.6.6-1.44.98-2.35.98h-7.33v-9.02c0-.41-.34-.75-.75-.75h-4.64c-.41,0-.75.34-.75.75v9.02c-.9-.01-1.72-.38-2.31-.98-.6-.6-.98-1.44-.98-2.35v-9.33h0ZM19.3,12.03h-4.21c-.73,0-1.33.6-1.33,1.33v3.04c0,.73.6,1.33,1.33,1.33h4.21c.73,0,1.33-.6,1.33-1.33v-3.04c0-.37-.15-.7-.39-.94-.01,0-.34-.39-.94-.39Z"/>
  </g>
</svg>