<?xml version="1.0" encoding="UTF-8"?>
<svg id="Layer_2" data-name="Layer 2" xmlns="http://www.w3.org/2000/svg" viewBox="0 0 24.52 18.75">
  <defs>
    <style>
      .cls-1 {
        fill: #fff;
        fill-rule: evenodd;
      }
    </style>
  </defs>
  <g id="Layer_1-2" data-name="Layer 1">
    <path class="cls-1" d="M17.39,3.42l5.78,3.34c.1.06.18.14.24.24.18.32.07.72-.25.91l-11.51,6.65c-.11.07-.23.11-.37.11-.37,0-.67-.3-.67-.67v-3h-2.91c-1.14,0-2.19.34-3.08.92-.9.59-1.62,1.44-2.07,2.43-.09.26-.34.45-.63.45-.37,0-.67-.3-.67-.67v-1.55c0-1.38.32-2.69.89-3.86.59-1.22,1.45-2.28,2.49-3.12.77-.62,1.66-1.11,2.61-1.45.92-.32,1.91-.5,2.93-.5h.43V.66h0c0-.11.03-.23.09-.33.18-.32.59-.43.91-.24l5.78,3.34h0ZM23.18,16.08c.74,0,1.33.6,1.33,1.33s-.6,1.33-1.33,1.33H1.33c-.74,0-1.33-.6-1.33-1.33s.6-1.33,1.33-1.33h21.85Z"/>
  </g>
</svg>