<?xml version="1.0" encoding="UTF-8"?>
<svg id="Layer_2" data-name="Layer 2" xmlns="http://www.w3.org/2000/svg" viewBox="0 0 22.06 24.77">
  <defs>
    <style>
      .cls-1 {
        fill: #fff;
        fill-rule: evenodd;
      }
    </style>
  </defs>
  <g id="Layer_1-2" data-name="Layer 1">
    <path class="cls-1" d="M4.76,7.46c1.73-1.73,4.01-2.6,6.28-2.6s4.54.87,6.28,2.6c1.73,1.73,2.6,4.01,2.6,6.28s-.87,4.54-2.6,6.28c-1.73,1.73-4.01,2.6-6.28,2.6s-4.54-.87-6.28-2.6c-1.73-1.73-2.6-4.01-2.6-6.28s.87-4.54,2.6-6.28h0ZM11.7,1.97v-.63s.78-.01.78-.01c.37,0,.66-.3.66-.67C13.13.29,12.83,0,12.47,0l-2.88.04c-.37,0-.66.3-.66.67,0,.37.3.66.67.66h.76s.01.63.01.63v.73c-1.46.09-2.91.47-4.26,1.13l-.93-1.54c-.19-.31-.6-.41-.91-.22-.31.19-.41.6-.22.91l.92,1.52c-.61.4-1.19.88-1.73,1.41C1.08,8.09,0,10.92,0,13.74s1.08,5.65,3.23,7.8,4.98,3.23,7.8,3.23,5.65-1.08,7.8-3.23c2.15-2.15,3.23-4.98,3.23-7.8s-1.08-5.65-3.23-7.8c-.53-.53-1.1-1-1.7-1.4l.87-1.58c.18-.32.06-.73-.26-.9-.32-.18-.73-.06-.9.26l-.85,1.55c-1.34-.67-2.8-1.06-4.27-1.15l-.02-.76h0ZM11.03,4.04c-2.48,0-4.96.95-6.86,2.84-1.89,1.89-2.84,4.38-2.84,6.86s.95,4.96,2.84,6.86,4.38,2.84,6.86,2.84,4.96-.95,6.86-2.84,2.84-4.38,2.84-6.86-.95-4.96-2.84-6.86-4.38-2.84-6.86-2.84h0ZM7.28,16.07c.08-.12.16-.22.23-.31.17-.21.5-.51.97-.9.47-.39.81-.67,1.01-.85.2-.18.4-.43.59-.75.19-.32.29-.67.29-1.06,0-.25-.05-.49-.14-.72-.09-.23-.22-.43-.39-.61-.17-.18-.36-.31-.58-.41-.34-.15-.75-.23-1.23-.23-.4,0-.75.06-1.04.18-.3.12-.54.27-.73.46-.19.19-.34.4-.44.64-.1.23-.15.46-.15.68,0,.18.05.32.16.42.1.1.23.16.39.16.18,0,.31-.06.41-.17.09-.11.18-.27.25-.49.07-.21.13-.34.16-.39.23-.36.56-.54.97-.54.19,0,.37.04.54.13.16.09.29.21.39.37.09.16.14.34.14.54,0,.18-.05.37-.13.57-.09.19-.22.38-.39.56-.17.18-.38.37-.64.55-.14.1-.38.3-.72.61-.34.31-.71.68-1.13,1.11-.1.11-.19.25-.28.44-.09.19-.13.34-.13.45,0,.18.07.33.2.46.13.13.31.19.55.19h3.47c.21,0,.36-.05.46-.16.1-.11.15-.24.15-.39,0-.17-.06-.31-.19-.41-.13-.1-.31-.15-.56-.15h-2.46ZM14.23,16.58c0,.23.05.41.16.53s.25.18.43.18.32-.06.43-.18c.11-.12.16-.3.16-.54v-.88h.29c.24,0,.42-.04.54-.12.12-.08.18-.22.18-.4,0-.22-.07-.37-.22-.43-.15-.07-.34-.1-.58-.1h-.2v-3.64c0-.55-.24-.82-.71-.82-.15,0-.27.05-.38.15-.1.1-.24.26-.4.48l-2.49,3.34c-.07.09-.13.17-.17.23-.05.06-.09.13-.14.2-.05.07-.08.13-.1.19-.02.06-.03.12-.03.18,0,.23.07.42.22.55s.37.2.67.2h2.36v.88h0ZM12.2,14.65h2.02v-2.74l-2.02,2.74Z"/>
  </g>
</svg>