<?xml version="1.0" encoding="UTF-8"?>
<svg id="Layer_2" data-name="Layer 2" xmlns="http://www.w3.org/2000/svg" viewBox="0 0 27.06 29.46">
  <defs>
    <style>
      .cls-1 {
        fill: #fff;
        fill-rule: evenodd;
      }
    </style>
  </defs>
  <g id="Layer_1-2" data-name="Layer 1">
    <path class="cls-1" d="M6.58,4.4h0c.2,0,.42.01.64.03h.12c.65-1.25,1.63-2.33,2.82-3.1,1.29-.84,2.83-1.33,4.48-1.33,2.04,0,3.91.75,5.35,1.98,1.34,1.15,2.31,2.73,2.69,4.52,1.18.27,2.21.9,2.98,1.78.86.99,1.39,2.28,1.39,3.68,0,1.55-.63,2.95-1.65,3.96-1.02,1.02-2.43,1.64-3.98,1.64h0c-.9,0-6.21,0-10.32,0-2.31,0-4.24,0-4.8-.01-1.73-.02-3.3-.8-4.43-1.98-1.16-1.21-1.88-2.86-1.88-4.59,0-1.81.74-3.46,1.93-4.65,1.19-1.19,2.84-1.93,4.65-1.93h0ZM16.15,23.33c-.32.18-.72.07-.91-.24-.18-.32-.07-.72.24-.91l1.09-.63-1.1-.63c-.32-.18-.43-.59-.24-.91.18-.32.59-.43.91-.24l1.09.63v-1.26c0-.37.3-.67.67-.67s.67.3.67.67v1.26l1.09-.63c.32-.18.72-.07.91.24.18.32.07.72-.24.91l-1.09.63,1.1.63c.32.18.43.59.24.91-.18.32-.59.43-.91.24l-1.09-.63v1.26c0,.37-.3.67-.67.67s-.67-.3-.67-.67v-1.26l-1.09.63h0ZM11.33,28.16l1.09-.63v1.26c0,.37.3.67.67.67s.67-.3.67-.67v-1.26l1.09.63c.32.18.72.08.91-.24.18-.32.08-.72-.24-.91l-1.09-.63,1.09-.63c.32-.18.43-.59.24-.91-.18-.32-.59-.43-.91-.24l-1.09.63v-1.26c0-.37-.3-.67-.67-.67s-.67.3-.67.67v1.26l-1.09-.63c-.32-.18-.72-.08-.91.24-.18.32-.08.72.24.91l1.09.63-1.09.63c-.32.18-.43.59-.24.91.18.32.59.43.91.24h0ZM5.98,23.78c-.32.18-.72.07-.91-.24-.18-.32-.07-.72.24-.91l1.1-.63-1.1-.63c-.32-.18-.43-.59-.24-.91.18-.32.59-.43.91-.24l1.09.63v-1.26c0-.37.3-.67.67-.67s.67.3.67.67v1.26l1.09-.63c.32-.18.72-.07.91.24.18.32.07.72-.24.91l-1.09.63,1.09.63c.32.18.43.59.24.91-.18.32-.59.43-.91.24l-1.09-.63v1.26c0,.37-.3.67-.67.67s-.67-.3-.67-.67v-1.26l-1.09.63Z"/>
  </g>
</svg>