<?xml version="1.0" encoding="UTF-8"?>
<svg id="Layer_2" data-name="Layer 2" xmlns="http://www.w3.org/2000/svg" viewBox="0 0 160.54 160.54">
  <defs>
    <style>
      .cls-1 {
        fill: #080a16;
      }
    </style>
  </defs>
  <g id="Calque_1" data-name="Calque 1">
    <g>
      <path class="cls-1" d="M25.94,106.22C5.21,126.95-5.23,150.1,2.6,157.93c7.84,7.84,30.99-2.61,51.72-23.33,20.72-20.72,31.17-43.88,23.33-51.71-7.84-7.84-30.99,2.61-51.72,23.33Z"/>
      <path class="cls-1" d="M106.22,106.22c-20.72,20.72-31.17,43.88-23.33,51.71,7.84,7.84,30.99-2.61,51.71-23.33,20.72-20.72,31.17-43.88,23.33-51.71-7.84-7.84-30.99,2.61-51.71,23.33Z"/>
      <path class="cls-1" d="M25.94,25.94C5.21,46.66-5.23,69.82,2.6,77.65c7.84,7.84,30.99-2.61,51.72-23.33,20.72-20.72,31.17-43.88,23.33-51.72-7.84-7.84-30.99,2.61-51.72,23.33Z"/>
      <path class="cls-1" d="M134.6,54.32c20.72-20.72,31.17-43.88,23.33-51.72-7.84-7.84-30.99,2.61-51.71,23.33-20.72,20.72-31.17,43.88-23.33,51.72,7.84,7.84,30.99-2.61,51.71-23.33Z"/>
    </g>
  </g>
</svg>