<?xml version="1.0" encoding="UTF-8"?>
<svg id="Layer_2" data-name="Layer 2" xmlns="http://www.w3.org/2000/svg" viewBox="0 0 29.64 20.44">
  <defs>
    <style>
      .cls-1 {
        fill: #fff;
        fill-rule: evenodd;
      }
    </style>
  </defs>
  <g id="Layer_1-2" data-name="Layer 1">
    <path class="cls-1" d="M1.41,0h24.59l-12.33,8.09L1.41,0h0ZM25.7,13.47h3.21c.4,0,.73-.33.73-.73,0-.2-.08-.39-.22-.52l-6.97-6.97c-.28-.28-.75-.28-1.03,0l-6.97,6.97c-.28.28-.28.75,0,1.03.14.14.33.21.52.21h3.21v6.24c0,.4.33.73.73.73h6.06c.4,0,.73-.33.73-.73v-6.24h0ZM27.33.87l-5.25,3.44c.33.03.65.17.9.42l4.35,4.35V.87h0ZM17.45,17.92v-3.72h-2.48c-.19,0-.38-.04-.56-.11-.18-.07-.34-.18-.48-.31-.28-.28-.43-.66-.43-1.03s.14-.75.43-1.03l5.97-5.97-5.85,3.84c-.24.15-.55.16-.8,0L0,.81v16.11l9.42-7.18c.32-.24.78-.18,1.02.14.24.32.18.78-.14,1.02L1.1,17.92h16.36ZM27.33,14.2v2.99c0,.4-.33.73-.73.73h-.16v-3.72h.89Z"/>
  </g>
</svg>