<?xml version="1.0" encoding="UTF-8"?>
<svg id="Layer_2" data-name="Layer 2" xmlns="http://www.w3.org/2000/svg" viewBox="0 0 30.74 26.05">
  <defs>
    <style>
      .cls-1 {
        fill: #fff;
        fill-rule: evenodd;
      }
    </style>
  </defs>
  <g id="Layer_1-2" data-name="Layer 1">
    <path class="cls-1" d="M15.37,0c4.2,0,8.01,1.21,10.77,3.16,2.84,2.01,4.6,4.8,4.6,7.9,0,1.62-.48,3.16-1.35,4.55-.8,1.28-1.92,2.43-3.3,3.39l1.74,6.13c.11.39-.12.79-.5.9-.2.06-.41.02-.58-.08l-7.29-4.21c-.61.12-1.24.22-1.89.28-.73.08-1.47.12-2.21.12-4.2,0-8.01-1.21-10.77-3.16C1.76,16.96,0,14.17,0,11.07S1.76,5.17,4.6,3.16C7.37,1.21,11.18,0,15.37,0h0ZM10.35,8.24c0,.31.13.59.39.86.26.27.57.4.95.4.63,0,1.07-.38,1.3-1.13.24-.72.53-1.27.88-1.64.35-.37.89-.56,1.63-.56.63,0,1.14.19,1.54.55.4.37.6.82.6,1.35,0,.27-.06.53-.2.76-.13.23-.29.45-.48.64-.19.19-.5.47-.93.85-.49.43-.88.8-1.17,1.11-.29.31-.52.67-.69,1.08-.17.41-.26.9-.26,1.46,0,.45.12.79.36,1.01.24.23.53.34.88.34.67,0,1.07-.35,1.2-1.04.07-.33.13-.56.16-.69.04-.13.09-.26.16-.39.07-.13.17-.27.31-.43.14-.16.32-.34.55-.55.82-.74,1.39-1.26,1.71-1.57.32-.31.59-.68.82-1.11.23-.43.35-.93.35-1.5,0-.72-.2-1.39-.61-2.01-.4-.62-.98-1.1-1.72-1.46-.74-.36-1.6-.54-2.57-.54-1.05,0-1.96.21-2.74.64-.78.43-1.38.97-1.79,1.62-.41.66-.61,1.3-.61,1.93h0ZM15.25,19.25c.4,0,.74-.13,1.05-.4.3-.27.45-.64.45-1.11,0-.42-.14-.77-.43-1.06-.29-.29-.64-.43-1.07-.43s-.79.14-1.08.43c-.29.29-.44.64-.44,1.06,0,.48.15.85.46,1.11s.66.4,1.07.4Z"/>
  </g>
</svg>