<?xml version="1.0" encoding="UTF-8"?>
<svg id="Layer_2" data-name="Layer 2" xmlns="http://www.w3.org/2000/svg" viewBox="0 0 71.55 71.56">
  <g id="Layer_1-2" data-name="Layer 1">
    <g>
      <path d="M35.78,71.56C16.05,71.56,0,55.51,0,35.78S16.05,0,35.78,0s35.78,16.05,35.78,35.78-16.05,35.78-35.78,35.78ZM35.78,5c-16.97,0-30.78,13.81-30.78,30.78s13.81,30.78,30.78,30.78,30.78-13.81,30.78-30.78S52.75,5,35.78,5Z"/>
      <path d="M58.83,62.27c-.68,0-1.35-.27-1.85-.81l-7.65-8.36c-1.28-1.4-1.98-3.21-1.98-5.1v-7.16c0-1.41-1.15-2.56-2.56-2.56h-8.92c-3.73,0-6.94-2.78-7.48-6.47-.29-2.01.22-4.01,1.43-5.63s3-2.67,5.01-2.95l.33-.05c1.29-.18,2.24-1.3,2.21-2.6l-.02-.86c-.05-2.06.71-4,2.14-5.47,1.43-1.47,3.36-2.28,5.41-2.28h1.8c.89,0,1.74-.48,2.2-1.24l2.59-4.31c.71-1.18,2.25-1.57,3.43-.86,1.18.71,1.57,2.25.86,3.43l-2.59,4.31c-1.36,2.26-3.84,3.67-6.48,3.67h-1.8c-.7,0-1.35.27-1.83.77-.49.5-.74,1.16-.73,1.85l.02.86c.1,3.85-2.7,7.16-6.52,7.69l-.33.05c-.68.09-1.28.45-1.69,1s-.58,1.23-.49,1.91c.18,1.25,1.27,2.19,2.53,2.19h8.92c4.17,0,7.56,3.39,7.56,7.56v7.16c0,.64.24,1.25.67,1.73l7.65,8.36c.93,1.02.86,2.6-.16,3.53-.48.44-1.08.66-1.69.66Z"/>
      <path d="M35.78,71.56c-.89,0-1.76-.48-2.21-1.32l-3.91-7.32c-.88-1.65-1.35-3.51-1.35-5.38v-.64c0-3.54-2.88-6.42-6.42-6.42-4.67,0-8.83-2.8-10.58-7.13l-.45-1.11c-.37-.91-.96-1.74-1.7-2.4l-7.97-7.04c-1.03-.92-1.13-2.5-.22-3.53.92-1.03,2.5-1.13,3.53-.22l7.97,7.04c1.32,1.17,2.36,2.64,3.02,4.27l.45,1.11c.99,2.43,3.32,4.01,5.95,4.01,6.29,0,11.42,5.12,11.42,11.42v.64c0,1.05.26,2.1.76,3.03l3.91,7.32c.65,1.22.19,2.73-1.03,3.38-.38.2-.78.3-1.18.3Z"/>
    </g>
  </g>
</svg>