<?xml version="1.0" encoding="UTF-8"?>
<svg id="Layer_2" data-name="Layer 2" xmlns="http://www.w3.org/2000/svg" viewBox="0 0 24.15 27.12">
  <defs>
    <style>
      .cls-1 {
        fill: #fff;
        fill-rule: evenodd;
      }
    </style>
  </defs>
  <g id="Layer_1-2" data-name="Layer 1">
    <path class="cls-1" d="M3.54,6.5c.59-.59,1.23-1.11,1.9-1.55l-1.01-1.66c-.21-.34-.1-.79.25-1,.34-.21.79-.1,1,.24l1.02,1.69c1.47-.73,3.06-1.15,4.66-1.24v-.8s-.02-.7-.02-.7h-.83c-.4.02-.73-.3-.74-.71,0-.4.32-.73.72-.74L13.64,0c.4,0,.73.32.73.72,0,.4-.32.73-.72.74h-.86s0,.7,0,.7l.02.83c1.61.1,3.2.52,4.67,1.25l.93-1.7c.19-.35.64-.48.99-.29.35.19.48.64.29.99l-.95,1.73c.66.44,1.28.95,1.87,1.53,2.36,2.36,3.54,5.45,3.54,8.54s-1.18,6.18-3.54,8.54-5.45,3.54-8.54,3.54-6.18-1.18-8.54-3.54c-2.36-2.36-3.54-5.45-3.54-8.54s1.18-6.18,3.54-8.54h0ZM5.72,8.68c-3.51,3.51-3.51,9.2,0,12.71s9.2,3.51,12.71,0,3.51-9.2,0-12.71c-3.51-3.51-9.2-3.51-12.71,0h0ZM8.79,9.15l2.62,6.02c.12.27.39.44.67.44h0s4.2,0,4.2,0v.2c0,.4.33.73.73.73.17,0,.32-.06.44-.15l1.4-.91c.34-.22.43-.67.21-1.01-.07-.1-.15-.18-.25-.24l-1.42-.91c-.34-.22-.79-.12-1,.22-.08.12-.11.26-.11.39h0v.2h-3.73l-2.43-5.58c-.16-.37-.59-.54-.96-.38-.37.16-.54.59-.38.96h0ZM5.21,8.17c-1.9,1.9-2.85,4.38-2.85,6.87s.95,4.97,2.85,6.87c1.9,1.9,4.38,2.85,6.87,2.85s4.97-.95,6.87-2.85c1.9-1.9,2.85-4.38,2.85-6.87s-.95-4.97-2.85-6.87-4.38-2.85-6.87-2.85-4.97.95-6.87,2.85Z"/>
  </g>
</svg>