<?xml version="1.0" encoding="UTF-8"?>
<svg id="Layer_2" data-name="Layer 2" xmlns="http://www.w3.org/2000/svg" viewBox="0 0 31.39 19.9">
  <defs>
    <style>
      .cls-1 {
        fill: #fff;
        fill-rule: evenodd;
      }
    </style>
  </defs>
  <g id="Layer_1-2" data-name="Layer 1">
    <path class="cls-1" d="M10.53,3.81l.51.23-.53.34c-.19.12-.4.22-.59.3l.61-.87h0ZM8.41,6.33l1.85-2.64h0s0,0,0,0c.19-.32.1-.75-.21-.96L6.35.13c-.33-.23-.78-.15-1.01.18L.13,7.74c-.23.33-.15.78.18,1.01l3.71,2.59c.33.23.78.15,1.01-.18l.03-.04h0l.12-.18,2.84-4.06.4-.57h0ZM8.05,7.35c.01.1.03.21.06.32.21.96.63,1.55,1.2,1.87.25.14.52.22.81.26-.28.03-.55.1-.8.22h0c-.05.02-.1.05-.15.08-.18-.12-.38-.22-.58-.29-.31-.11-.63-.15-.95-.13-.31.02-.62.09-.9.23h0c-.27.13-.53.31-.75.55l-.02.03c-.12.15-.27.31-.41.47l2.51-3.58h0ZM13.4,14.81s.05.04.07.07c.33.31.52.74.54,1.17.03.44-.12.9-.43,1.25-.38.42-.76.84-1.13,1.27-.31.34-.74.52-1.17.54-.43.02-.86-.11-1.21-.4-.03-.02-.05-.04-.07-.06-.22-.2-.37-.45-.46-.72l3.57-3.31c.1.05.2.12.29.2h0ZM9.31,17.73l3.67-3.41c0-.05,0-.1,0-.15-.02-.43-.21-.85-.54-1.17h0s-.03-.03-.03-.03c-.08-.07-.16-.13-.24-.18l-4.13,3.79c.09.27.24.52.46.72l.03.03c.23.21.5.34.78.4h0ZM7.81,16.39c-.28-.06-.55-.19-.78-.4l-.03-.03c-.21-.2-.36-.44-.45-.69l2.93-4.52c.24-.14.51-.22.79-.24.44-.03.89.12,1.25.43l.03.03h0c.33.32.52.74.54,1.17,0,.11,0,.22-.01.33l-4.27,3.92h0ZM6.33,15.06c-.29-.06-.57-.19-.81-.4l-.03-.03c-.33-.31-.52-.74-.54-1.17-.03-.44.12-.89.43-1.25.38-.42.77-.84,1.13-1.27.31-.33.74-.52,1.17-.54.44-.03.89.12,1.25.43l.03.03h0s.04.04.06.06l-2.69,4.14h0ZM21.34,2.73L25.05.13c.33-.23.78-.15,1.01.18l5.2,7.43c.23.33.15.78-.18,1.01l-3.7,2.59c-.19.14-.43.16-.64.09l-5.7-8.2c.02-.2.13-.39.31-.52h0ZM26.06,10.99l-5.19-7.47-6.41-.64c-.17-.02-.33.03-.46.11l-3.09,1.99c-.27.17-.54.29-.78.39-.97.42-1.62.7-1.31,2.13.31,1.46,1.18,1.73,2.29,1.49.6-.13,1.25-.44,1.91-.76.85-.41,1.72-.82,2.19-.72l5.55,4.06.58.4c.06.04.11.1.14.16.04.07.06.14.06.21v.05s0,.08,0,.08c0,.03-.01.06-.03.09-.01.04-.03.07-.05.1h0c-.23.33-.16.79.17,1.02.28.2.65.17.9-.04l3.53-2.68h0ZM10.7,9.81c.16.02.32.06.47.11.3.1.58.27.83.48l.04.04h0c.23.22.42.48.54.76.13.28.21.59.23.91,0,.09,0,.17,0,.26.02.02.05.04.07.06h0s.06.06.06.06h0c.23.22.4.47.53.74.13.28.21.59.23.9.05.04.11.08.16.12.04.03.07.06.11.09.23.22.42.48.54.75.13.28.21.59.23.9.02.32-.03.64-.13.95-.1.3-.27.58-.48.83l-.39.44c-.24.26-.48.53-.67.75l.83.58c.44.31.97.41,1.45.32.49-.09.95-.36,1.26-.8l.16-.22c.12-.18.21-.37.27-.56.71.25,1.48.19,2.13-.74l.16-.22c.23-.33.35-.7.35-1.08.54-.03,1.06-.24,1.37-.68l.17-.24c.18-.26.3-.55.36-.84-.13-.04-.25-.11-.36-.19-.33-.23-.53-.58-.59-.94-.05-.29,0-.6.13-.88-1.96-1.37-3.88-2.82-5.8-4.23-.3.04-.96.35-1.61.66,0,0-.02.01-.02,0-.7.33-1.38.66-2.06.81-.2.04-.39.07-.57.08Z"/>
  </g>
</svg>