<?xml version="1.0" encoding="UTF-8"?>
<svg id="Layer_2" data-name="Layer 2" xmlns="http://www.w3.org/2000/svg" viewBox="0 0 28.57 23.72">
  <defs>
    <style>
      .cls-1 {
        fill: #fff;
        fill-rule: evenodd;
      }
    </style>
  </defs>
  <g id="Layer_1-2" data-name="Layer 1">
    <path class="cls-1" d="M14.29,4.27c.69-1.2,1.42-2.14,2.3-2.84,1.19-.96,2.61-1.43,4.48-1.43,2.07,0,3.95.84,5.31,2.2,1.36,1.36,2.2,3.24,2.2,5.31,0,3.59-1.06,6.28-3.39,8.78-2.25,2.42-5.7,4.64-10.55,7.34-.25.14-.54.12-.76-.03-4.34-2.64-7.76-4.84-10.12-7.26C1.31,13.83,0,11.11,0,7.51c0-2.07.84-3.95,2.2-5.31S5.44,0,7.51,0c3.31,0,5.14,1.43,6.78,4.27Z"/>
  </g>
</svg>