<?xml version="1.0" encoding="UTF-8"?>
<svg id="Layer_2" data-name="Layer 2" xmlns="http://www.w3.org/2000/svg" viewBox="0 0 23.92 21.16">
  <defs>
    <style>
      .cls-1 {
        fill: #fff;
        fill-rule: evenodd;
      }
    </style>
  </defs>
  <g id="Layer_1-2" data-name="Layer 1">
    <path class="cls-1" d="M4.82,5.19c.29-.06.58-.07.85-.02.06-.8.32-1.57.75-2.22.64-.96,1.64-1.69,2.86-1.96,1.24-.27,2.48-.02,3.48.62.77.49,1.39,1.2,1.76,2.07.64-.76,1.37-1.43,2.19-1.99,1.15-.79,2.45-1.36,3.86-1.66.36-.08.71.15.79.51.05.26-.05.51-.24.66-.9.77-1.65,1.71-2.21,2.77-.37.7-.66,1.44-.84,2.23.08-.02.16-.04.24-.06,1.25-.28,2.49-.02,3.48.62,1,.64,1.75,1.65,2.03,2.9h0c.27,1.25.02,2.49-.62,3.48-.64,1-1.65,1.75-2.9,2.03h0c-.17.04-.34.07-.51.08.17.32.31.67.39,1.05h0c.24,1.09.01,2.16-.54,3.02-.55.87-1.43,1.52-2.52,1.76h0c-.98.22-1.95.05-2.77-.39-.5-.27-.94-.65-1.29-1.11-.16.17-.33.33-.52.48-.47.37-1.04.64-1.66.78h0c-1.13.25-2.25.02-3.15-.56-.91-.58-1.59-1.5-1.84-2.63h0c-.07-.34-.11-.67-.1-.99-.12.04-.25.07-.38.1-1.2.26-2.39.02-3.34-.59-.96-.61-1.68-1.59-1.95-2.78-.26-1.2-.02-2.39.59-3.34.55-.86,1.4-1.54,2.44-1.86-.03-.08-.05-.16-.07-.24h0c-.13-.62,0-1.23.31-1.73.32-.49.82-.87,1.44-1.01h0Z"/>
  </g>
</svg>