<?xml version="1.0" encoding="UTF-8"?>
<svg id="Layer_2" data-name="Layer 2" xmlns="http://www.w3.org/2000/svg" viewBox="0 0 160.61 160.61">
  <defs>
    <style>
      .cls-1 {
        fill: #080a16;
      }
    </style>
  </defs>
  <g id="Calque_1" data-name="Calque 1">
    <path class="cls-1" d="M160.61,47.06v-13.82c-18.36,0-33.24-14.88-33.24-33.24h-13.81c0,18.36-14.89,33.24-33.26,33.24S47.06,18.36,47.06,0h-13.82c0,18.36-14.88,33.24-33.24,33.24v13.82c18.36,0,33.24,14.88,33.24,33.24S18.36,113.55,0,113.55v13.82c18.36,0,33.24,14.88,33.24,33.24h13.82c0-18.36,14.88-33.24,33.24-33.24s33.26,14.88,33.26,33.24h13.81c0-18.36,14.88-33.24,33.24-33.24v-13.82c-18.36,0-33.24-14.88-33.24-33.24s14.88-33.24,33.24-33.24ZM80.31,113.55c-18.36,0-33.24-14.88-33.24-33.24s14.88-33.24,33.24-33.24,33.26,14.88,33.26,33.24-14.89,33.24-33.26,33.24Z"/>
  </g>
</svg>