<?xml version="1.0" encoding="UTF-8"?>
<svg id="Layer_2" data-name="Layer 2" xmlns="http://www.w3.org/2000/svg" viewBox="0 0 23.41 30.5">
  <defs>
    <style>
      .cls-1 {
        fill: #fff;
        fill-rule: evenodd;
      }
    </style>
  </defs>
  <g id="Layer_1-2" data-name="Layer 1">
    <path class="cls-1" d="M7.56,17.21L3.62,2.5c-.07-.25.08-.5.33-.57L11.1.02c.25-.07.5.08.57.33l3.94,14.71,7.21-1.93c.1-.03.21-.02.32.03.23.11.33.39.23.62l-7.63,16.46s-.03.05-.04.08c-.15.21-.44.26-.65.11L.22,19.99c-.1-.06-.17-.16-.2-.28-.07-.25.08-.5.33-.57l7.21-1.93Z"/>
  </g>
</svg>