<?xml version="1.0" encoding="UTF-8"?>
<svg id="Layer_2" data-name="Layer 2" xmlns="http://www.w3.org/2000/svg" viewBox="0 0 160.54 160.54">
  <defs>
    <style>
      .cls-1 {
        fill: #080a16;
      }
    </style>
  </defs>
  <g id="Calque_1" data-name="Calque 1">
    <path class="cls-1" d="M80.27,0c-22.16,0-42.23,8.99-56.75,23.5C8.99,38.04,0,58.1,0,80.27c0,44.32,35.94,80.27,80.27,80.27s80.27-35.94,80.27-80.27V0h-80.27ZM99.19,99.19c-4.84,4.84-11.54,7.84-18.92,7.84-14.77,0-26.75-11.99-26.75-26.76,0-7.39,2.99-14.08,7.84-18.92,4.84-4.84,11.52-7.84,18.91-7.84s14.09,3,18.92,7.84c4.84,4.84,7.84,11.54,7.84,18.92s-3,14.07-7.84,18.92Z"/>
  </g>
</svg>