<?xml version="1.0" encoding="UTF-8"?>
<svg id="Layer_2" data-name="Layer 2" xmlns="http://www.w3.org/2000/svg" viewBox="0 0 27.7 29.76">
  <defs>
    <style>
      .cls-1 {
        fill: #fff;
        fill-rule: evenodd;
      }
    </style>
  </defs>
  <g id="Layer_1-2" data-name="Layer 1">
    <path class="cls-1" d="M5.38,9.01h0c.16,0,.34,0,.53.03h0c.53-.99,1.31-1.84,2.25-2.45,1.05-.69,2.3-1.08,3.65-1.08,1.66,0,3.18.61,4.35,1.61,1.07.92,1.85,2.17,2.17,3.6.93.23,1.75.74,2.37,1.44.71.81,1.14,1.87,1.14,3.02,0,1.27-.52,2.42-1.35,3.25-.84.83-1.99,1.35-3.26,1.35h0c-.72,0-4.95,0-8.23,0-1.84,0-3.38,0-3.82,0-1.42-.02-2.7-.65-3.63-1.62-.95-.99-1.54-2.34-1.54-3.75,0-1.48.61-2.83,1.58-3.8.98-.98,2.32-1.58,3.8-1.58h0ZM5.29,21.79c0-.37.3-.67.67-.67s.67.3.67.67v.76l.66-.38c.32-.18.72-.08.91.24.18.32.08.72-.24.91l-.66.38.66.38c.32.18.43.59.24.91-.18.32-.59.43-.91.24l-.66-.38v.76c0,.37-.3.67-.67.67s-.67-.3-.67-.67v-.76l-.66.38c-.32.18-.72.08-.91-.24-.18-.32-.08-.72.24-.91l.66-.38-.66-.38c-.32-.18-.43-.59-.24-.91.18-.32.59-.43.91-.24l.66.38v-.76h0ZM12.71,24.88c-.32.18-.72.08-.91-.24-.18-.32-.08-.72.24-.91l.66-.38-.66-.38c-.32-.18-.43-.59-.24-.91.18-.32.59-.43.91-.24l.66.38v-.76c0-.37.3-.67.67-.67s.67.3.67.67v.76l.66-.38c.32-.18.72-.08.91.24.18.32.08.72-.24.91l-.66.38.66.38c.32.18.43.59.24.91-.18.32-.59.43-.91.24l-.66-.38v.76c0,.37-.3.67-.67.67s-.67-.3-.67-.67v-.76l-.66.38h0ZM8.88,28.72l.66-.38v.76c0,.37.3.67.67.67s.67-.3.67-.67v-.76l.66.38c.32.18.72.07.91-.24.18-.32.07-.72-.24-.91l-.66-.38.66-.38c.32-.18.43-.59.24-.91-.18-.32-.59-.43-.91-.24l-.66.38v-.76c0-.37-.3-.67-.67-.67s-.67.3-.67.67v.76l-.66-.38c-.32-.18-.72-.07-.91.24-.18.32-.07.72.24.91l.66.38-.66.38c-.32.18-.43.59-.24.91.18.32.59.43.91.24h0ZM18.02,4.63c-.76,0-1.48.17-2.14.48-.29.14-.56.3-.82.48.55.27,1.07.62,1.53,1.01.6.51,1.11,1.12,1.52,1.79.33.55.59,1.15.77,1.78.38.13.75.3,1.09.5.46.28.87.63,1.23,1.04.3.34.55.72.76,1.13.22-.28.41-.58.58-.9.34-.68.54-1.45.54-2.26,0-1.39-.57-2.66-1.48-3.57-.91-.91-2.18-1.48-3.57-1.48h0ZM23.92,2.84c.26-.26.68-.26.94,0s.26.68,0,.94l-1.78,1.78c-.26.26-.68.26-.94,0-.26-.26-.26-.68,0-.94l1.78-1.78h0ZM27.04,9.02c.37,0,.67.3.67.67s-.3.67-.67.67h-2.52c-.37,0-.67-.3-.67-.67s.3-.67.67-.67h2.52ZM24.87,15.59c.26.26.26.68,0,.94-.26.26-.68.26-.94,0l-1.42-1.42c0-.49-.08-.96-.21-1.42.25-.14.58-.1.79.11l1.78,1.78h0ZM11.17,3.78c-.26-.26-.26-.68,0-.94.26-.26.68-.26.94,0l1.78,1.78c.16.16.22.37.19.57-.59-.19-1.2-.31-1.84-.35l-1.07-1.07h0ZM17.35.67c0-.37.3-.67.67-.67s.67.3.67.67v2.52c0,.37-.3.67-.67.67s-.67-.3-.67-.67V.67Z"/>
  </g>
</svg>