<?xml version="1.0" encoding="UTF-8"?>
<svg id="Layer_2" data-name="Layer 2" xmlns="http://www.w3.org/2000/svg" viewBox="0 0 27.34 26.07">
  <defs>
    <style>
      .cls-1 {
        fill: #fff;
        fill-rule: evenodd;
      }
    </style>
  </defs>
  <g id="Layer_1-2" data-name="Layer 1">
    <path class="cls-1" d="M14.27.37l3.93,7.76,8.59,1.34c.36.06.61.4.55.76-.02.15-.09.27-.19.37l-6.16,6.13,1.38,8.58c.06.36-.19.7-.55.76-.15.02-.3,0-.43-.08l-7.71-3.96-7.74,3.97c-.33.17-.73.04-.89-.29-.07-.13-.09-.27-.06-.41l1.38-8.58L.2,10.59c-.26-.26-.26-.68,0-.94.11-.11.25-.18.4-.19l8.56-1.33L13.08.37c.17-.33.57-.46.89-.29.13.07.23.17.29.29Z"/>
  </g>
</svg>