<?xml version="1.0" encoding="UTF-8"?>
<svg id="Layer_2" data-name="Layer 2" xmlns="http://www.w3.org/2000/svg" viewBox="0 0 21.04 22.79">
  <defs>
    <style>
      .cls-1 {
        fill: #fff;
        fill-rule: evenodd;
      }
    </style>
  </defs>
  <g id="Layer_1-2" data-name="Layer 1">
    <path class="cls-1" d="M13.17,3.22l-1.28-2.22c-.18-.32-.07-.72.24-.91.13-.07.27-.1.4-.08h0s7.92.89,7.92.89c.37.04.63.37.59.73,0,.08-.03.16-.07.22l-3.17,7.28c-.15.34-.54.49-.87.34-.14-.06-.24-.16-.31-.28l-1.28-2.21-7.53,4.41,7.53,4.41,1.28-2.21c.18-.32.59-.43.91-.24.13.08.23.19.28.33l3.18,7.29c.15.34,0,.73-.34.87-.06.03-.13.04-.19.05l-7.92.9c-.37.04-.69-.22-.73-.59-.02-.15.02-.3.1-.42l1.27-2.2L.33,11.97c-.32-.19-.42-.59-.23-.91.06-.1.15-.18.24-.24L13.17,3.22Z"/>
  </g>
</svg>