<?xml version="1.0" encoding="UTF-8"?>
<svg id="Layer_2" data-name="Layer 2" xmlns="http://www.w3.org/2000/svg" viewBox="0 0 26.37 17">
  <defs>
    <style>
      .cls-1 {
        fill: #fff;
        fill-rule: evenodd;
      }
    </style>
  </defs>
  <g id="Layer_1-2" data-name="Layer 1">
    <path class="cls-1" d="M13.18,0c3.56,0,6.79.73,9.15,1.91,2.49,1.25,4.04,3.02,4.04,5.02,0,1.25-.6,2.42-1.67,3.42-.89.84-2.12,1.57-3.58,2.14.34.6.75,1.15,1.22,1.63.65.66,1.4,1.21,2.24,1.62.33.16.47.56.31.89-.12.24-.37.38-.62.37-1.52.06-2.99-.26-4.32-.89-1.24-.58-2.34-1.44-3.22-2.5-.51.07-1.03.13-1.55.17-.65.05-1.32.08-1.98.08-3.56,0-6.79-.73-9.15-1.91C1.54,10.7,0,8.93,0,6.93S1.54,3.15,4.04,1.91C6.39.73,9.63,0,13.18,0Z"/>
  </g>
</svg>