<?xml version="1.0" encoding="UTF-8"?>
<svg id="Layer_2" data-name="Layer 2" xmlns="http://www.w3.org/2000/svg" viewBox="0 0 27.12 17.47">
  <defs>
    <style>
      .cls-1 {
        fill: #fff;
        fill-rule: evenodd;
      }
    </style>
  </defs>
  <g id="Layer_1-2" data-name="Layer 1">
    <path class="cls-1" d="M16.38,7.92c.83.46,1.57,1.11,2.12,1.89.64.9,1.03,1.98,1.03,3.14v2.72c0,.5-.2.95-.53,1.28l-.05.04c-.32.3-.76.49-1.23.49h-8.31c-.5,0-.95-.2-1.27-.53h0c-.33-.33-.53-.78-.53-1.28v-2.72c0-1.18.41-2.28,1.06-3.19.55-.76,1.27-1.39,2.08-1.84-.42-.34-.77-.75-1.04-1.22-.38-.66-.6-1.42-.6-2.23,0-1.23.5-2.35,1.31-3.15.81-.81,1.92-1.31,3.15-1.31s2.35.5,3.15,1.31c.81.81,1.31,1.92,1.31,3.15,0,.79-.21,1.53-.57,2.17-.28.49-.64.93-1.08,1.28h0ZM.79,10.18c-.49.69-.79,1.52-.79,2.41v2c0,.41.17.79.44,1.06.27.27.65.44,1.06.44h5.13c.37,0,.67-.3.67-.67v-2.48c0-.46.06-.9.16-1.33.11-.44.28-.87.49-1.28.14-.27.07-.59-.14-.79-.23-.23-.48-.43-.75-.61l-.13-.08c.24-.23.45-.49.62-.78.3-.51.47-1.1.47-1.73,0-.95-.39-1.82-1.01-2.45-.63-.63-1.49-1.01-2.45-1.01s-1.82.39-2.45,1.01l-.04.04c-.6.62-.98,1.47-.98,2.41,0,.61.16,1.18.44,1.68.17.31.39.59.65.83-.55.34-1.03.79-1.4,1.32h0ZM24.93,8.86c.26-.24.48-.52.65-.83.28-.5.44-1.07.44-1.68,0-.95-.39-1.82-1.01-2.45h0c-.63-.63-1.49-1.01-2.44-1.01s-1.82.39-2.45,1.01c-.63.63-1.01,1.49-1.01,2.45,0,.63.17,1.22.47,1.73.17.29.38.55.62.78l-.13.08c-.27.18-.52.38-.75.61-.21.2-.28.52-.14.79.21.41.38.84.49,1.28.11.42.16.87.16,1.33v2.48c0,.37.3.67.67.67h5.13c.41,0,.79-.17,1.06-.44h0c.27-.27.44-.65.44-1.06v-2c0-.89-.3-1.72-.79-2.41-.37-.53-.86-.98-1.4-1.32Z"/>
  </g>
</svg>