<?xml version="1.0" encoding="UTF-8"?>
<svg id="Layer_2" data-name="Layer 2" xmlns="http://www.w3.org/2000/svg" viewBox="0 0 74.82 74.81">
  <g id="Layer_1-2" data-name="Layer 1">
    <g>
      <path d="M37.4,21.62c-.66,0-1.3-.26-1.77-.73-.11-.11-.22-.24-.31-.38-.09-.14-.17-.28-.23-.43-.06-.15-.11-.31-.14-.47-.04-.16-.05-.32-.05-.49,0-.16,0-.32.05-.49.03-.16.08-.31.14-.46.06-.15.14-.3.23-.43.09-.14.2-.27.31-.38.93-.94,2.61-.94,3.54,0,.11.11.22.24.31.38.09.13.16.28.23.43.06.15.11.3.14.46.03.17.05.33.05.49,0,.17-.02.33-.05.49-.03.16-.08.32-.14.47-.07.15-.14.29-.23.43-.09.14-.2.27-.31.38-.12.12-.25.22-.38.31-.14.09-.28.17-.44.23-.15.06-.3.11-.46.14-.16.04-.33.05-.49.05Z"/>
      <path d="M24.47,26.98c-.66,0-1.3-.27-1.76-.73s-.74-1.12-.74-1.77.27-1.31.74-1.77c.58-.58,1.44-.85,2.25-.68.16.03.32.08.47.14.15.06.3.14.43.23.14.09.27.19.38.31.47.46.73,1.11.73,1.77,0,.16,0,.32-.05.49-.03.15-.08.31-.14.46-.06.15-.14.3-.23.44-.09.13-.19.26-.31.38-.11.11-.24.21-.38.31-.13.09-.28.16-.43.22-.15.07-.31.11-.47.15-.16.03-.32.05-.49.05Z"/>
      <path d="M19.12,39.9c-.66,0-1.3-.27-1.77-.73-.11-.12-.22-.24-.31-.38-.09-.14-.16-.28-.23-.43-.06-.15-.11-.31-.14-.47s-.05-.33-.05-.49c0-.66.27-1.3.73-1.77.58-.58,1.45-.85,2.26-.68.16.03.32.08.47.14.15.06.29.14.43.23.14.09.26.2.38.31.11.12.22.25.31.38.09.14.17.28.23.43.06.15.11.31.14.47s.05.33.05.49-.02.33-.05.49-.08.32-.14.47c-.06.15-.14.29-.23.43-.09.14-.2.26-.31.38-.12.12-.24.22-.38.31-.14.09-.28.17-.43.23-.15.06-.31.11-.47.14s-.32.05-.49.05Z"/>
      <path d="M24.48,52.83c-.17,0-.33-.02-.49-.05s-.32-.08-.47-.15c-.15-.06-.3-.14-.43-.23-.14-.09-.27-.19-.38-.31-.12-.11-.22-.24-.31-.38-.09-.13-.17-.28-.23-.43-.07-.15-.11-.31-.15-.47-.03-.16-.04-.32-.04-.48,0-.17,0-.33.04-.49.04-.16.08-.32.15-.47.06-.15.14-.3.23-.43.09-.14.19-.27.31-.38.11-.12.24-.22.38-.31.13-.09.28-.17.43-.23.15-.07.31-.11.47-.15.32-.06.65-.06.97,0,.16.04.32.08.47.15.15.06.3.14.43.23.14.09.27.19.38.31.12.11.22.24.31.38.09.13.17.28.23.43.07.15.11.31.15.47.03.16.05.32.05.49,0,.65-.27,1.3-.74,1.76-.11.12-.24.22-.38.31-.13.09-.28.17-.43.23-.15.07-.31.12-.47.15s-.32.05-.48.05Z"/>
      <path d="M50.32,26.98c-.66,0-1.3-.27-1.77-.73-.46-.47-.73-1.12-.73-1.77s.27-1.31.73-1.77c.12-.12.25-.22.38-.31.14-.09.29-.17.44-.23.15-.06.3-.11.46-.14.33-.07.66-.07.98,0,.16.03.32.08.47.14.15.06.3.14.43.23.14.09.27.19.38.31.47.46.73,1.11.73,1.77s-.26,1.3-.73,1.77c-.11.11-.24.21-.38.31-.13.09-.28.16-.43.22-.15.07-.31.11-.47.15-.16.03-.32.05-.49.05Z"/>
      <path d="M37.39,74.81c-9.99,0-19.36-3.87-26.44-10.94-14.6-14.6-14.6-38.34,0-52.94,14.6-14.58,38.34-14.58,52.91,0,7.22,7.22,11.12,16.83,10.96,27.05-.04,2.39-1.18,4.55-3.13,5.92-2.04,1.43-4.68,1.79-7.08.96-5.66-1.95-11.8-.54-16.03,3.7-4.24,4.24-5.66,10.38-3.71,16.05.82,2.39.46,5.04-.96,7.07-1.37,1.95-3.53,3.09-5.92,3.13-.2,0-.4,0-.6,0ZM37.41,5c-8.3,0-16.61,3.16-22.93,9.47-12.64,12.64-12.64,33.22,0,45.87,6.14,6.12,14.26,9.48,22.91,9.48.17,0,.34,0,.52,0,1.05-.02,1.65-.64,1.9-1,.51-.72.63-1.68.33-2.57-2.57-7.48-.7-15.61,4.9-21.21,5.58-5.6,13.71-7.48,21.2-4.9.89.31,1.85.19,2.58-.32.37-.26.99-.85,1-1.9h0c.13-8.85-3.24-17.18-9.5-23.43-6.31-6.31-14.61-9.47-22.91-9.47Z"/>
    </g>
  </g>
</svg>