<?xml version="1.0" encoding="UTF-8"?>
<svg id="Layer_2" data-name="Layer 2" xmlns="http://www.w3.org/2000/svg" viewBox="0 0 25.48 16.9">
  <defs>
    <style>
      .cls-1 {
        fill: #fff;
        fill-rule: evenodd;
      }
    </style>
  </defs>
  <g id="Layer_1-2" data-name="Layer 1">
    <path class="cls-1" d="M25.11,7.78c.11.06.21.14.28.26.18.32.08.72-.24.91l-13.31,7.68c-.11.07-.23.11-.37.11-.37,0-.67-.3-.67-.67v-3.57h-3.47c-1.33,0-2.57.4-3.61,1.08-1.06.7-1.91,1.69-2.43,2.86-.09.26-.34.45-.63.45-.37,0-.67-.3-.67-.67v-1.79c0-2.81,1.15-5.36,3-7.21,1.85-1.85,4.4-3,7.21-3h.6V.66h0c0-.11.03-.23.09-.33.18-.32.59-.43.91-.24,4.44,2.56,8.87,5.12,13.31,7.69Z"/>
  </g>
</svg>