<?xml version="1.0" encoding="UTF-8"?>
<svg id="Layer_2" data-name="Layer 2" xmlns="http://www.w3.org/2000/svg" viewBox="0 0 70.7 71.7">
  <g id="Layer_1-2" data-name="Layer 1">
    <g>
      <path d="M60.29,71.7c-.33,0-.66-.07-.99-.2-1.27-.55-1.85-2.02-1.31-3.28,5.32-12.38,7.7-25.41,7.7-32.84v-.42c0-16.52-13.44-29.96-29.96-29.96h-.39c-16.29.19-29.57,13.63-29.57,29.96,0,2.78-.27,5.63-.82,8.72-.25,1.36-1.54,2.26-2.9,2.02-1.36-.24-2.26-1.54-2.02-2.9.5-2.79.75-5.35.75-7.83C.78,15.91,16.28.22,35.32,0h.42c19.28,0,34.96,15.68,34.96,34.96v.42c0,9.54-3.26,23.53-8.11,34.82-.41.95-1.33,1.51-2.3,1.51Z"/>
      <path d="M45.67,71.7c-.34,0-.69-.07-1.02-.22-1.26-.56-1.82-2.04-1.26-3.3,4.15-9.27,7.01-16.94,7.45-24.22.08-1.38,1.22-2.45,2.65-2.34,1.38.08,2.43,1.27,2.34,2.65-.48,8.03-3.5,16.19-7.88,25.96-.42.93-1.33,1.48-2.28,1.48Z"/>
      <path d="M2.5,59.99c-1.21,0-2.28-.88-2.47-2.12-.21-1.36.72-2.64,2.09-2.85,8.29-1.29,12.5-8.04,12.5-20.07s9.48-21.13,21.13-21.13c9.3,0,17.41,5.97,20.17,14.85.41,1.32-.32,2.72-1.64,3.13-1.32.41-2.72-.32-3.13-1.64-2.11-6.78-8.3-11.34-15.4-11.34-8.89,0-16.13,7.23-16.13,16.13,0,14.45-5.94,23.33-16.73,25.01-.13.02-.26.03-.39.03Z"/>
      <path d="M30.82,71c-.57,0-1.15-.2-1.62-.59-1.05-.89-1.18-2.47-.29-3.52,6.6-7.78,9.81-17.84,9.81-30.75,0-2.4-.92-3.47-2.98-3.47-1.39,0-2.17,1.33-2.31,2.58-.16,1.37-1.41,2.35-2.76,2.2-1.37-.16-2.36-1.39-2.2-2.76.46-4.06,3.52-7.01,7.28-7.01s7.98,2.22,7.98,8.47c0,14.15-3.6,25.26-11,33.99-.49.58-1.2.88-1.91.88ZM13.97,68.35c-1.05,0-2.02-.66-2.37-1.71-.44-1.31.27-2.73,1.58-3.16,7.09-2.36,11.3-8.13,13.67-18.71.3-1.35,1.63-2.19,2.99-1.89,1.35.3,2.2,1.64,1.89,2.99-1.73,7.75-5.38,18.5-16.97,22.37-.26.09-.53.13-.79.13Z"/>
    </g>
  </g>
</svg>