<?xml version="1.0" encoding="UTF-8"?>
<svg id="Layer_2" data-name="Layer 2" xmlns="http://www.w3.org/2000/svg" viewBox="0 0 74.52 58.71">
  <g id="Layer_1-2" data-name="Layer 1">
    <g>
      <path d="M62.73,38.28c-1.38,0-2.5-1.12-2.5-2.5v-7.81c0-12.67-10.31-22.97-22.97-22.97S14.29,15.3,14.29,27.97v7.81c0,1.38-1.12,2.5-2.5,2.5s-2.5-1.12-2.5-2.5v-7.81C9.29,12.55,21.84,0,37.26,0s27.97,12.55,27.97,27.97v7.81c0,1.38-1.12,2.5-2.5,2.5Z"/>
      <path d="M61.81,58.71h-5.44c-1.38,0-2.5-1.12-2.5-2.5v-20.43c0-1.38,1.12-2.5,2.5-2.5h5.44c7.01,0,12.72,5.7,12.72,12.72s-5.7,12.72-12.72,12.72ZM58.87,53.71h2.94c4.25,0,7.72-3.46,7.72-7.72s-3.46-7.72-7.72-7.72h-2.94v15.43Z"/>
      <path d="M18.16,58.71h-5.44c-7.01,0-12.72-5.7-12.72-12.72s5.7-12.72,12.72-12.72h5.44c1.38,0,2.5,1.12,2.5,2.5v20.43c0,1.38-1.12,2.5-2.5,2.5ZM12.72,38.28c-4.25,0-7.72,3.46-7.72,7.72s3.46,7.72,7.72,7.72h2.94v-15.43h-2.94Z"/>
      <path d="M56.37,58.71h-10.89c-1.38,0-2.5-1.12-2.5-2.5s1.12-2.5,2.5-2.5h10.89c1.38,0,2.5,1.12,2.5,2.5s-1.12,2.5-2.5,2.5Z"/>
    </g>
  </g>
</svg>