<?xml version="1.0" encoding="UTF-8"?>
<svg id="Layer_2" data-name="Layer 2" xmlns="http://www.w3.org/2000/svg" viewBox="0 0 25.67 26.01">
  <defs>
    <style>
      .cls-1 {
        fill: #fff;
        fill-rule: evenodd;
      }
    </style>
  </defs>
  <g id="Layer_1-2" data-name="Layer 1">
    <path class="cls-1" d="M8.61,7.54c-.4,0-.73-.33-.73-.73s.33-.73.73-.73h9.11c.4,0,.73.33.73.73s-.33.73-.73.73h-9.11ZM20.37,14.72c1.47,0,2.79.59,3.75,1.55.96.96,1.55,2.29,1.55,3.75s-.59,2.79-1.55,3.75c-.96.96-2.29,1.55-3.75,1.55s-2.79-.59-3.75-1.55c-.96-.96-1.55-2.29-1.55-3.75s.59-2.79,1.55-3.75c.96-.96,2.29-1.55,3.75-1.55h0ZM20.61,16.81c0-.2-.08-.3-.23-.3s-.23.1-.23.31v.39c-.51.04-.89.2-1.16.47-.27.27-.4.61-.4,1.04,0,.32.07.59.21.79.14.21.32.36.54.48.22.11.49.21.82.3v1.71c-.16-.05-.3-.11-.39-.2-.1-.09-.17-.19-.22-.29-.05-.11-.11-.26-.17-.46-.03-.09-.08-.17-.16-.22-.08-.05-.17-.08-.28-.08-.14,0-.25.05-.34.14-.09.09-.14.2-.14.32,0,.16.03.32.1.49.07.16.17.32.32.48.14.15.32.28.54.38.21.1.47.17.75.2v.46c0,.11.02.2.05.25.04.05.1.08.19.08.1,0,.16-.03.19-.1.03-.07.04-.17.04-.32v-.38c.35-.03.65-.12.91-.27.25-.16.45-.35.58-.6.13-.24.2-.5.2-.78,0-.22-.04-.43-.12-.62-.08-.19-.2-.35-.35-.48-.14-.13-.3-.23-.48-.3-.18-.07-.42-.15-.73-.23v-1.53c.31.1.5.3.58.61.07.26.23.39.47.39.13,0,.24-.05.33-.13.09-.09.13-.2.13-.32,0-.11-.03-.23-.09-.36-.06-.13-.15-.26-.26-.39-.14-.16-.3-.29-.49-.37-.19-.08-.41-.13-.67-.16v-.4h0ZM20.14,19.33v-1.41c-.21.06-.37.14-.48.24-.12.1-.17.25-.17.46s.05.34.16.44c.11.1.27.19.49.27h0ZM20.61,20.42v1.61c.25-.05.44-.15.57-.3.13-.15.2-.32.2-.52,0-.21-.07-.38-.2-.49-.13-.12-.32-.22-.58-.3h0ZM24.1.59c.05.04.1.07.15.11.57.47.92,1.13.92,1.86v2.02c0,.4-.33.73-.73.73h-3.01v-2.75s0-.04.02-.05c.02-.04.06-.09.11-.12.08-.06.17-.11.27-.15h0c.11-.04.24-.06.38-.06h.18s.1.03.1.03c.06,0,.11.01.16.01.4,0,.76-.16,1.03-.43h0c.26-.27.43-.63.43-1.03v-.04s0-.09,0-.13h0ZM.73,20.86c-.4,0-.73.33-.73.73v.28c0,1.15.53,2.19,1.37,2.95.82.73,1.95,1.18,3.19,1.18,4.19,0,8.38,0,12.57,0,.04,0,.07,0,.11,0,.28-.04.5-.24.59-.5-.55-.25-1.05-.59-1.49-.99-.26-.05-.48-.17-.66-.32h0c-.22-.2-.36-.47-.36-.76v-.12c-.2-.31-.38-.64-.52-.98-.08-.19-.15-.39-.21-.59h0s0,0,0,0h0s0,0,0,0h0s0,0,0,0h0s0,0,0,0h0s0,0,0,0h0s0,0,0,0h0s0,0,0,0h0s0,0,0,0h0s0,0,0,0h0s0,0,0,0h0s0,0,0,0h0s0,0,0,0h0s0,0,0,0h0s0,0,0,0h0s0,0,0,0h0s0,0,0,0h0s0,0,0,0h0s0,0,0,0h0s0,0,0,0h0s0,0,0,0h0s0,0,0,0h0s0,0,0,0h0s0,0,0,0h0s0,0,0,0h0s0,0,0,0h0s0,0,0,0h0s0,0,0,0h0s0,0,0,0h0s0,0,0,0h0s0,0,0,0h0s0,0,0,0h0s0,0,0,0h0s0,0,0,0h0c-.06-.24-.11-.48-.15-.73H.73ZM10.48,0c-1.31,0-2.5.45-3.38,1.17-.91.75-1.48,1.8-1.48,2.96v16h8.7s0-.07,0-.11v-.04s0,0,0,0v-.04s0,0,0,0v-.02s0-.02,0-.02h0s0-.02,0-.02h0v-.04s0-.01,0-.01h0s0-.03,0-.03h0s0-.02,0-.02v-.02s0,0,0,0h0s0-.03,0-.03h0s0-.02,0-.02v-.02s0,0,0,0h0s0-.03,0-.03h0s0-.02,0-.02v-.02s0,0,0,0h0s0-.03,0-.03h0s0-.02,0-.02v-.02s0,0,0,0v-.02s0-.02,0-.02h0s0-.02,0-.02v-.02s0,0,0,0v-.02s0-.02,0-.02h0s0-.02,0-.02v-.02s0,0,0,0v-.02s0-.01,0-.01h0s0-.02,0-.02h0s0-.02,0-.02v-.02s0-.01,0-.01h0s0-.03,0-.03h0s0-.02,0-.02v-.02s0,0,0,0h0s0-.03,0-.03h0s0-.02,0-.02v-.02s0,0,0,0h0s0-.03,0-.03h0s0-.02,0-.02v-.02s0,0,0,0h0s0-.03,0-.03h0s0-.02,0-.02v-.02s0,0,0,0v-.02s0-.02,0-.02h0s0-.02,0-.02v-.02s0,0,0,0v-.02s0-.02,0-.02h0s0-.02,0-.02v-.02s0,0,0,0v-.02s0-.01,0-.01h0s-5.85,0-5.85,0c-.4,0-.73-.33-.73-.73s.33-.73.73-.73h6.35v-.02s.01,0,.01,0v-.02s.02-.01.02-.01h0s.01-.03.01-.03h0s.01-.02.01-.02h0s0-.02,0-.02v-.02s.01,0,.01,0v-.02s.02,0,.02,0v-.02s.02-.02.02-.02h0s.01-.03.01-.03h0s.01-.02.01-.02h0s0-.02,0-.02v-.02s.01,0,.01,0v-.02s.02,0,.02,0h0s.01-.03.01-.03h0s.01-.02.01-.02h0s0-.02,0-.02v-.02s.01,0,.01,0v-.02s.02,0,.02,0v-.02s.02-.01.02-.01h0s.01-.03.01-.03h0s.01-.02.01-.02h0s0-.02,0-.02v-.02s.01,0,.01,0v-.02s.02,0,.02,0h0s.01-.03.01-.03h0s.01-.02.01-.02h0s.01-.02.01-.02v-.02s.01,0,.01,0v-.02s.02,0,.02,0v-.02s.02-.01.02-.01h0s.02-.03.02-.03h0s.01-.02.01-.02h0s0-.02,0-.02v-.02s.02,0,.02,0l.02-.02h0s.02-.04.02-.04h0s.02-.02.02-.02h0s.01-.02.01-.02h.01s0-.02,0-.02l.04-.05h0s.02-.03.02-.03h0s.02-.02.02-.02h0s0-.02,0-.02v-.02s.02,0,.02,0l.02-.02h0s.01-.02.01-.02v-.02s.02,0,.02,0l.02-.02h0s.01-.02.01-.02h.01s0-.02,0-.02l.02-.02h0s.05-.06.05-.06l.02-.02h-7.28c-.4,0-.73-.33-.73-.73s.33-.73.73-.73h9.11s.09,0,.14.01h0s0,0,0,0h0s0,0,0,0h0s0,0,0,0h0s0,0,0,0h0s0,0,0,0h0s0,0,0,0h0s0,0,0,0h0s0,0,0,0h0s0,0,0,0h0s0,0,0,0h0s0,0,0,0h0s0,0,0,0h0s0,0,0,0h0s0,0,0,0h0s0,0,0,0h0s0,0,0,0h0s0,0,0,0h0s0,0,0,0h0s0,0,0,0h0s0,0,0,0h0s0,0,0,0h0s0,0,0,0h0s0,0,0,0h0s0,0,0,0h0s0,0,0,0h0s0,0,0,0h0s0,0,0,0h0s0,0,0,0h0s0,0,0,0h0s0,0,0,0h0s0,0,0,0h0s0,0,0,0h0s0,0,0,0h0s0,0,0,0h0c.71-.3,1.49-.46,2.31-.46h.03s0,0,0,0h.03s0,0,0,0h.02s0,0,0,0h.01s0,0,0,0h.01s0,0,0,0h.01s0,0,0,0h0s0,0,0,0h.01s0,0,0,0h0s0,0,0,0h.01s0,0,0,0h0s0,0,0,0h.01s0,0,0,0h0s0,0,0,0h0s0,0,0,0h0s0,0,0,0h0s0,0,0,0h0s0,0,0,0h0s0,0,0,0h.01s0,0,0,0h0s0,0,0,0h0s0,0,0,0h0s0,0,0,0h0s0,0,0,0V2.57c0-.28.15-.54.39-.74.28-.23.67-.37,1.12-.37v-.11s0,.11,0,.11h0c.06,0,.11,0,.16,0h.12c.05.02.1.03.16.03.4,0,.73-.33.73-.73v-.04c0-.4-.33-.73-.73-.73h-.44v.73s0-.73,0-.73h-11.72ZM8.61,13.17c-.4,0-.73-.33-.73-.73s.33-.73.73-.73h9.11c.4,0,.73.33.73.73s-.33.73-.73.73h-9.11ZM8.61,10.36c-.4,0-.73-.33-.73-.73s.33-.73.73-.73h9.11c.4,0,.73.33.73.73s-.33.73-.73.73h-9.11Z"/>
  </g>
</svg>