<?xml version="1.0" encoding="UTF-8"?>
<svg id="Layer_2" data-name="Layer 2" xmlns="http://www.w3.org/2000/svg" viewBox="0 0 27.45 24.78">
  <defs>
    <style>
      .cls-1 {
        fill: #fff;
        fill-rule: evenodd;
      }
    </style>
  </defs>
  <g id="Layer_1-2" data-name="Layer 1">
    <path class="cls-1" d="M7.18,10.78h0s0,11.2,0,11.2h0s0,.36,0,.36c0,.4-.33.73-.73.73H.73c-.4,0-.73-.33-.73-.73v-11.49c0-.4.33-.73.73-.73h5.73c.38,0,.69.29.73.66h0ZM7.48,10.51l5.96-5.34,1.14-3.28c.19-.54-.02-1.33.4-1.58.4-.24.43-.34.91-.31.46.03.92.18,1.33.46.51.35.93.89,1.14,1.63.52,1.82-.06,3.44-.36,4.88-.2.95-.54,1.81-.95,2.6h8.12c.62,0,1.19.26,1.61.67h0c.41.41.67.98.67,1.61v.34c0,.62-.25,1.19-.66,1.6.31.4.49.93.49,1.5v.34c0,.65-.38,1.21-.92,1.61l-.09.07c.31.39.5.88.5,1.42v.34c0,1.41-.81,1.97-1.74,2.18.13.28.2.59.2.92v.34c0,.63-.26,1.2-.67,1.61s-.98.67-1.61.67h-9.43c-.12,0-.24-.03-.34-.08l-5.69-2.59v-11.6Z"/>
  </g>
</svg>