<?xml version="1.0" encoding="UTF-8"?>
<svg id="Layer_2" data-name="Layer 2" xmlns="http://www.w3.org/2000/svg" viewBox="0 0 26.79 18.33">
  <defs>
    <style>
      .cls-1 {
        fill: #fff;
        fill-rule: evenodd;
      }
    </style>
  </defs>
  <g id="Layer_1-2" data-name="Layer 1">
    <path class="cls-1" d="M1.48,0h20.52l-10.29,6.94L1.48,0h0ZM21.21,7.16c1.54,0,2.94.62,3.95,1.64,1.01,1.01,1.64,2.41,1.64,3.95s-.63,2.94-1.64,3.95c-1.01,1.01-2.41,1.64-3.95,1.64s-2.94-.63-3.95-1.64c-1.01-1.01-1.64-2.41-1.64-3.95s.63-2.94,1.64-3.95c1.01-1.01,2.41-1.64,3.95-1.64h0ZM23.42,12.11h-5.14c-.37,0-.67.3-.67.67s.3.67.67.67h5.85c.37,0,.67-.3.67-.67s-.3-.67-.67-.67h-.71ZM23.41.55l-11.36,7.66c-.2.14-.48.14-.7,0L.01.51s-.01.08-.01.12v14.13c0,.35.28.63.62.63h14.91c-.37-.8-.58-1.69-.58-2.63,0-.84.17-1.65.47-2.39.32-.77.78-1.46,1.36-2.03.57-.57,1.26-1.04,2.03-1.35.74-.31,1.55-.48,2.39-.48.78,0,1.52.14,2.21.4V.63s0-.05,0-.08Z"/>
  </g>
</svg>