<?xml version="1.0" encoding="UTF-8"?>
<svg id="Layer_2" data-name="Layer 2" xmlns="http://www.w3.org/2000/svg" viewBox="0 0 24.49 24.49">
  <defs>
    <style>
      .cls-1 {
        fill: #fff;
        fill-rule: evenodd;
      }
    </style>
  </defs>
  <g id="Layer_1-2" data-name="Layer 1">
    <path class="cls-1" d="M12.24,0c3.38,0,6.44,1.37,8.66,3.59,2.22,2.22,3.59,5.28,3.59,8.66s-1.37,6.44-3.59,8.66c-2.22,2.22-5.28,3.59-8.66,3.59s-6.44-1.37-8.66-3.59C1.37,18.69,0,15.63,0,12.24S1.37,5.8,3.59,3.59C5.8,1.37,8.86,0,12.24,0h0ZM12.24,4.62c-.88,0-1.67.36-2.25.93s-.93,1.37-.93,2.25.36,1.67.93,2.25c.58.58,1.37.93,2.25.93s1.67-.36,2.25-.93c.58-.58.93-1.37.93-2.25s-.36-1.67-.93-2.25c-.58-.58-1.37-.93-2.25-.93h0ZM18.56,7.09c-.58,0-1.11.24-1.49.62-.38.38-.62.91-.62,1.49s.24,1.11.62,1.49c.38.38.91.62,1.49.62s1.11-.24,1.49-.62c.38-.38.62-.91.62-1.49s-.24-1.11-.62-1.49-.91-.62-1.49-.62h0ZM16.55,12.2c.09.08.18.16.26.25,1.16,1.16,1.82,2.73,1.82,4.38,0,.13-.02.26-.06.39.03,0,.06,0,.09-.02l3.45-1.78c.08-.04.14-.12.14-.21,0-.97-.4-1.85-1.03-2.48-.64-.64-1.52-1.03-2.48-1.03h-.35c-.67,0-1.3.19-1.83.52h0ZM5.93,7.09c-.58,0-1.11.24-1.49.62-.38.38-.62.91-.62,1.49s.24,1.11.62,1.49c.38.38.91.62,1.49.62s1.11-.24,1.49-.62c.38-.38.62-.91.62-1.49s-.24-1.11-.62-1.49c-.38-.38-.91-.62-1.49-.62h0ZM7.94,12.2c-.53-.33-1.16-.52-1.83-.52h-.35c-.97,0-1.85.4-2.48,1.03-.64.64-1.03,1.52-1.03,2.48,0,.09.06.18.14.21l3.45,1.78s.06.02.09.02c-.04-.12-.06-.25-.06-.39,0-1.65.66-3.22,1.82-4.38.09-.09.17-.17.26-.25h0ZM6.68,16.83h0c0,.12.07.24.19.31l5.22,2.7c.1.05.21.05.32,0l5.2-2.69c.12-.05.21-.17.21-.32,0-1.46-.6-2.78-1.56-3.74s-2.29-1.56-3.74-1.56h-.52c-1.46,0-2.78.6-3.74,1.56s-1.56,2.29-1.56,3.74h0ZM19.96,4.53c-1.97-1.97-4.7-3.2-7.72-3.2s-5.74,1.22-7.72,3.2c-1.97,1.97-3.2,4.7-3.2,7.72s1.22,5.74,3.2,7.72c1.97,1.97,4.7,3.2,7.72,3.2s5.74-1.22,7.72-3.2c1.97-1.97,3.2-4.7,3.2-7.72s-1.22-5.74-3.2-7.72Z"/>
  </g>
</svg>