<?xml version="1.0" encoding="UTF-8"?>
<svg id="Layer_2" data-name="Layer 2" xmlns="http://www.w3.org/2000/svg" viewBox="0 0 27.32 23.27">
  <defs>
    <style>
      .cls-1 {
        fill: #fff;
        fill-rule: evenodd;
      }
    </style>
  </defs>
  <g id="Layer_1-2" data-name="Layer 1">
    <path class="cls-1" d="M14.09.15l12.99,10.37c.29.23.34.65.11.93-.13.16-.32.25-.52.25h0s-3.28,0-3.28,0v7.26h2.8c.37,0,.67.3.67.67v2.96c0,.37-.3.67-.67.67H1.15c-.37,0-.67-.3-.67-.67v-2.96c0-.37.3-.67.67-.67h2.8v-7.26H.67c-.37,0-.67-.3-.67-.67,0-.23.11-.43.28-.55L13.25.14c.25-.2.6-.19.84,0h0ZM10.41,19v-7.31c0-.37-.3-.67-.67-.67h-2.43c-.37,0-.67.3-.67.67v7.31c0,.37.3.67.67.67h2.43c.37,0,.67-.3.67-.67h0ZM11.78,11.69v7.31c0,.37.3.67.67.67h2.43c.37,0,.67-.3.67-.67v-7.31c0-.37-.3-.67-.67-.67h-2.43c-.37,0-.67.3-.67.67h0ZM16.91,11.69v7.31c0,.37.3.67.67.67h2.43c.37,0,.67-.3.67-.67v-7.31c0-.37-.3-.67-.67-.67h-2.43c-.37,0-.67.3-.67.67Z"/>
  </g>
</svg>