<?xml version="1.0" encoding="UTF-8"?>
<svg id="Layer_2" data-name="Layer 2" xmlns="http://www.w3.org/2000/svg" viewBox="0 0 24.49 24.49">
  <defs>
    <style>
      .cls-1 {
        fill: #fff;
        fill-rule: evenodd;
      }
    </style>
  </defs>
  <g id="Layer_1-2" data-name="Layer 1">
    <path class="cls-1" d="M12.24,0c3.38,0,6.44,1.37,8.66,3.59,2.22,2.22,3.59,5.28,3.59,8.66s-1.37,6.44-3.59,8.66c-2.22,2.22-5.28,3.59-8.66,3.59s-6.44-1.37-8.66-3.59C1.37,18.69,0,15.63,0,12.24S1.37,5.8,3.59,3.59C5.8,1.37,8.86,0,12.24,0h0ZM12.24,3.62c-2.28,0-4.12,1.85-4.12,4.12s1.85,4.12,4.12,4.12,4.12-1.85,4.12-4.12-1.85-4.12-4.12-4.12h0ZM4.7,20.13c.38-3.62,3.45-6.46,7.17-6.46h.76c3.71,0,6.79,2.84,7.17,6.46.06-.05.11-.11.17-.17,1.97-1.97,3.2-4.7,3.2-7.72s-1.22-5.74-3.2-7.72c-1.97-1.97-4.7-3.2-7.72-3.2s-5.74,1.22-7.72,3.2c-1.97,1.97-3.2,4.7-3.2,7.72s1.22,5.74,3.2,7.72c.06.06.11.11.17.17Z"/>
  </g>
</svg>