<?xml version="1.0" encoding="UTF-8"?>
<svg id="Layer_2" data-name="Layer 2" xmlns="http://www.w3.org/2000/svg" viewBox="0 0 22.16 25.66">
  <defs>
    <style>
      .cls-1 {
        fill: #fff;
        fill-rule: evenodd;
      }
    </style>
  </defs>
  <g id="Layer_1-2" data-name="Layer 1">
    <path class="cls-1" d="M10,0c1.68,0,3.19.68,4.29,1.78,1.1,1.1,1.78,2.62,1.78,4.29s-.68,3.19-1.78,4.29c-.5.5-1.08.91-1.73,1.21.81.22,1.58.53,2.3.94l-4.21,2.43c-.21.11-.4.27-.52.47-.13.21-.21.46-.21.72v5.91s0,.08.01.12c.02.19.08.38.17.54.11.2.28.37.49.49h0s2.5,1.44,2.5,1.44H2.2c-.61,0-1.16-.25-1.56-.65-.4-.4-.65-.95-.65-1.56v-1.2c0-2.75,1.12-5.25,2.94-7.06,1.23-1.23,2.77-2.14,4.5-2.6-.65-.3-1.23-.71-1.73-1.21-1.1-1.1-1.78-2.62-1.78-4.29s.68-3.19,1.78-4.29c1.1-1.1,2.62-1.78,4.29-1.78h0ZM16.71,12.6c-.2-.12-.45-.13-.67,0l-5.07,2.92c-.23.1-.39.34-.39.61v5.91h0c0,.23.12.45.33.58l5.11,2.95c.2.12.45.13.67,0l5.06-2.92c.23-.11.39-.34.39-.61v-5.91h0c0-.23-.12-.45-.33-.58l-5.11-2.95h0ZM16.7,15.56c-.21-.12-.47-.11-.67,0l-2.54,1.47c-.21.12-.33.35-.33.58h0v2.95c0,.27.16.5.39.61l2.49,1.44c.21.12.47.11.67,0l2.54-1.47c.21-.12.33-.35.33-.58h0v-2.95c0-.27-.16-.5-.39-.61l-2.49-1.44Z"/>
  </g>
</svg>