<?xml version="1.0" encoding="UTF-8"?>
<svg id="Layer_2" data-name="Layer 2" xmlns="http://www.w3.org/2000/svg" viewBox="0 0 33.9 23.26">
  <defs>
    <style>
      .cls-1 {
        fill: #fff;
        fill-rule: evenodd;
      }
    </style>
  </defs>
  <g id="Layer_1-2" data-name="Layer 1">
    <path class="cls-1" d="M22.27,10.03c.88,0,1.6.72,1.6,1.6s-.72,1.6-1.6,1.6-1.6-.72-1.6-1.6.72-1.6,1.6-1.6h0ZM32.3,10.03c.88,0,1.6.72,1.6,1.6s-.72,1.6-1.6,1.6-1.6-.72-1.6-1.6.72-1.6,1.6-1.6h0ZM27.36,8.29c0-.88.72-1.6,1.6-1.6s1.6.72,1.6,1.6-.72,1.6-1.6,1.6-1.6-.72-1.6-1.6h0ZM27.36,11.63c0-.88.72-1.6,1.6-1.6s1.6.72,1.6,1.6-.72,1.6-1.6,1.6-1.6-.72-1.6-1.6h0ZM27.36,14.97c0-.88.72-1.6,1.6-1.6s1.6.72,1.6,1.6-.72,1.6-1.6,1.6-1.6-.72-1.6-1.6h0ZM27.22,18.32c0,.88-.72,1.6-1.6,1.6s-1.6-.72-1.6-1.6.72-1.6,1.6-1.6,1.6.72,1.6,1.6h0ZM27.22,11.63c0,.88-.72,1.6-1.6,1.6s-1.6-.72-1.6-1.6.72-1.6,1.6-1.6,1.6.72,1.6,1.6h0ZM24.01,4.94c0-.88.72-1.6,1.6-1.6s1.6.72,1.6,1.6-.72,1.6-1.6,1.6-1.6-.72-1.6-1.6h0ZM1.6,10.03c.88,0,1.6.72,1.6,1.6s-.72,1.6-1.6,1.6-1.6-.72-1.6-1.6.72-1.6,1.6-1.6h0ZM5.1,10.03c.88,0,1.6.72,1.6,1.6s-.72,1.6-1.6,1.6-1.6-.72-1.6-1.6.72-1.6,1.6-1.6h0ZM8.59,10.03c.88,0,1.6.72,1.6,1.6s-.72,1.6-1.6,1.6-1.6-.72-1.6-1.6.72-1.6,1.6-1.6h0ZM12.09,10.03c.88,0,1.6.72,1.6,1.6s-.72,1.6-1.6,1.6-1.6-.72-1.6-1.6.72-1.6,1.6-1.6h0ZM15.59,10.03c.88,0,1.6.72,1.6,1.6s-.72,1.6-1.6,1.6-1.6-.72-1.6-1.6.72-1.6,1.6-1.6h0ZM18.93,10.03c.88,0,1.6.72,1.6,1.6s-.72,1.6-1.6,1.6-1.6-.72-1.6-1.6.72-1.6,1.6-1.6h0ZM22.27,3.2c-.88,0-1.6-.72-1.6-1.6s.72-1.6,1.6-1.6,1.6.72,1.6,1.6-.72,1.6-1.6,1.6h0ZM23.87,21.66c0,.88-.72,1.6-1.6,1.6s-1.6-.72-1.6-1.6.72-1.6,1.6-1.6,1.6.72,1.6,1.6Z"/>
  </g>
</svg>