<?xml version="1.0" encoding="UTF-8"?>
<svg id="Layer_2" data-name="Layer 2" xmlns="http://www.w3.org/2000/svg" viewBox="0 0 23.78 23.78">
  <defs>
    <style>
      .cls-1 {
        fill: #fff;
        fill-rule: evenodd;
      }
    </style>
  </defs>
  <g id="Layer_1-2" data-name="Layer 1">
    <path class="cls-1" d="M11.89,0c6.57,0,11.89,5.32,11.89,11.89s-5.32,11.89-11.89,11.89S0,18.45,0,11.89,5.32,0,11.89,0h0ZM12.49,11.34v-6.51c0-.3-.24-.55-.55-.55s-.55.25-.55.55v7.06c0,.3.24.55.55.55h5.74c.3,0,.55-.25.55-.55s-.25-.55-.55-.55h-5.2ZM8.25,20.98c.4.16.81.3,1.23.4.41.1.84.18,1.27.23.3.03.57-.18.61-.48.03-.3-.18-.57-.48-.6-.38-.04-.76-.11-1.13-.21-.38-.1-.74-.22-1.09-.36-.28-.11-.6.02-.71.3-.11.28.02.6.3.71h0ZM13.27,21.59c.43-.06.85-.15,1.26-.26.42-.12.82-.26,1.21-.43.28-.12.41-.44.29-.72-.12-.28-.44-.41-.72-.29-.35.15-.71.28-1.07.38-.36.1-.73.18-1.12.23-.3.04-.51.32-.46.62.04.3.32.51.62.46h0ZM17.92,19.6c.33-.26.65-.55.95-.85.3-.3.57-.63.83-.97.18-.24.13-.58-.11-.76-.24-.18-.58-.13-.76.11-.23.3-.47.59-.74.86-.26.27-.54.52-.85.76-.24.19-.28.53-.09.77.19.24.53.28.77.09h0ZM20.52,12.71h0s0,.03,0,.03h0s0,.03,0,.03h0s0,.03,0,.03h0s-.35-.59-.35-.59c-.15-.26-.48-.35-.74-.2-.26.15-.35.48-.2.74l1.03,1.78c.15.26.48.35.74.2l1.78-1.03c.26-.15.35-.48.2-.74-.15-.26-.48-.35-.74-.2l-.65.38h0s0,0,0,0h0s0,0,0,0h0s0,0,0,0h0s0,0,0,0h0s0,0,0,0h0s0,0,0,0h0s0,0,0,0h0s0,0,0,0h0s0,0,0,0h0s0,0,0,0h0s0,0,0,0h0s0,0,0,0h0s0,0,0,0h0s0,0,0,0h0s0,0,0,0h0s0,0,0,0h0s0,0,0,0h0s0,0,0,0h0s0,0,0,0h0s0,0,0,0h0s0,0,0,0h0s0,0,0,0h0s0,0,0,0h0s0,0,0,0h0s0,0,0,0h0s0,0,0,0h0s0,0,0,0h0s0,0,0,0h0s0,0,0,0h0s0,0,0,0h0s0,0,0,0h0c.04-.36.06-.72.06-1.07,0-2.7-1.09-5.14-2.86-6.9-1.77-1.77-4.21-2.86-6.9-2.86s-5.14,1.09-6.9,2.86c-1.77,1.77-2.86,4.21-2.86,6.9,0,1.57.37,3.05,1.03,4.37.68,1.36,1.68,2.55,2.89,3.45.24.18.58.13.76-.11.18-.24.13-.58-.11-.76-1.08-.81-1.96-1.86-2.57-3.07-.58-1.16-.91-2.48-.91-3.88,0-2.39.97-4.56,2.54-6.13,1.57-1.57,3.74-2.54,6.13-2.54s4.56.97,6.13,2.54,2.54,3.74,2.54,6.13h0v.02h0v.03h0v.02h0s0,.02,0,.02h0v.02h0s0,.03,0,.03h0s0,.03,0,.03h0s0,.03,0,.03h0s0,.03,0,.03h0s0,.03,0,.03h0s0,.01,0,.01h0s0,.01,0,.01h0s0,.01,0,.01h0s0,.01,0,.01h0s0,.03,0,.03h0s0,.02,0,.02h0s0,.02,0,.02h0s0,.03,0,.03h0s0,.03,0,.03h0s0,.03,0,.03h0s0,.03,0,.03h0s0,.02,0,.02h0s0,.02,0,.02h0s0,.01,0,.01h0s0,.03,0,.03h0s0,.02,0,.02h0s0,.03,0,.03h0s0,.01,0,.01h0s0,.02,0,.02h0s0,.02,0,.02h0s0,.03,0,.03h0s0,.02,0,.02h0s0,.02,0,.02h0s0,.03,0,.03h0s0,.03,0,.03h0s0,.01,0,.01Z"/>
  </g>
</svg>