<?xml version="1.0" encoding="UTF-8"?>
<svg id="Layer_2" data-name="Layer 2" xmlns="http://www.w3.org/2000/svg" viewBox="0 0 24.57 19.56">
  <defs>
    <style>
      .cls-1 {
        fill: #fff;
        fill-rule: evenodd;
      }
    </style>
  </defs>
  <g id="Layer_1-2" data-name="Layer 1">
    <path class="cls-1" d="M21.4,3.83c-.52-.36-1.09-.69-1.7-.97.43.45.8.94,1.1,1.46.59,1.01.91,2.13.91,3.3s-.32,2.29-.91,3.3c-.6,1.03-1.47,1.95-2.54,2.71-1.02.72-2.23,1.3-3.58,1.69-1.29.38-2.69.59-4.16.59-.24,0-.5,0-.78-.02-.27-.01-.53-.03-.79-.06-.16-.02-.32-.04-.47-.05,1.61.73,3.52,1.15,5.57,1.15.5,0,1-.03,1.5-.08.42-.04.83-.1,1.22-.18l4.85,2.8c.15.09.34.13.53.07.35-.1.56-.47.46-.82l-1.14-4.01c.9-.65,1.64-1.41,2.16-2.26.6-.96.93-2.03.93-3.15,0-2.15-1.21-4.08-3.17-5.46h0ZM10.52,0c2.86,0,5.46.83,7.35,2.16,1.96,1.38,3.17,3.31,3.17,5.46s-1.21,4.08-3.17,5.46c-1.89,1.33-4.49,2.16-7.35,2.16-.5,0-1-.03-1.5-.08-.42-.04-.83-.1-1.22-.18l-4.85,2.8c-.15.09-.34.13-.53.07-.35-.1-.56-.47-.46-.82l1.14-4.01c-.9-.65-1.64-1.41-2.17-2.26-.6-.96-.93-2.03-.93-3.15C0,5.47,1.21,3.54,3.17,2.16,5.06.83,7.66,0,10.52,0Z"/>
  </g>
</svg>