<?xml version="1.0" encoding="UTF-8"?>
<svg id="Layer_2" data-name="Layer 2" xmlns="http://www.w3.org/2000/svg" viewBox="0 0 23.86 17.8">
  <defs>
    <style>
      .cls-1 {
        fill: #fff;
        fill-rule: evenodd;
      }
    </style>
  </defs>
  <g id="Layer_1-2" data-name="Layer 1">
    <path class="cls-1" d="M22.38,12.65c.91-.56,1.47-1.37,1.47-2.28V3.09c0-.92-.56-1.72-1.47-2.28-.81-.5-1.92-.81-3.14-.81H4.61c-1.21,0-2.32.31-3.14.81-.91.56-1.47,1.37-1.47,2.28v7.28c0,.92.56,1.72,1.47,2.28.81.5,1.92.81,3.14.81h7.62l6.64,4.23c.31.2.72.11.92-.2.12-.19.13-.41.06-.6l-1.38-3.42h.78c1.21,0,2.32-.31,3.14-.81h0ZM7.32,5.66c.68,0,1.24.55,1.24,1.24s-.55,1.24-1.24,1.24-1.24-.55-1.24-1.24.55-1.24,1.24-1.24h0ZM17.5,6.9c0,.68-.55,1.24-1.24,1.24s-1.24-.55-1.24-1.24.55-1.24,1.24-1.24,1.24.55,1.24,1.24h0ZM13.03,6.9c0,.68-.55,1.24-1.24,1.24s-1.24-.55-1.24-1.24.55-1.24,1.24-1.24,1.24.55,1.24,1.24Z"/>
  </g>
</svg>