<?xml version="1.0" encoding="UTF-8"?>
<svg id="Layer_2" data-name="Layer 2" xmlns="http://www.w3.org/2000/svg" viewBox="0 0 21.46 25.75">
  <defs>
    <style>
      .cls-1 {
        fill: #fff;
        fill-rule: evenodd;
      }
    </style>
  </defs>
  <g id="Layer_1-2" data-name="Layer 1">
    <path class="cls-1" d="M13.67,19.08v-4.68c0-.37.3-.67.67-.67h4.08c.37,0,.67.3.67.67v4.68h1.72c.15,0,.3.05.42.15.28.23.32.65.09.94l-4.42,5.33s-.06.07-.1.1c-.28.23-.7.19-.94-.09l-4.4-5.32c-.11-.12-.17-.28-.17-.45,0-.37.3-.67.67-.67h1.72ZM10,0c-1.68,0-3.19.68-4.29,1.78-1.1,1.1-1.78,2.62-1.78,4.29s.68,3.19,1.78,4.29c.5.5,1.08.91,1.73,1.21-1.72.46-3.27,1.37-4.49,2.6-1.81,1.81-2.94,4.31-2.94,7.06v1.2c0,.61.25,1.16.65,1.56.4.4.95.65,1.56.65h12.06l-3.32-4.01c-.1-.11-.18-.25-.24-.39-.06-.15-.09-.31-.09-.48,0-.37.15-.7.39-.94h0c.24-.24.57-.39.94-.39h1.05v-4.01c0-.37.15-.7.39-.94h0c.24-.24.57-.39.94-.39h1.42c-.96-.68-2.03-1.19-3.2-1.5.64-.3,1.23-.71,1.73-1.21,1.1-1.1,1.78-2.62,1.78-4.29s-.68-3.19-1.78-4.29-2.62-1.78-4.29-1.78Z"/>
  </g>
</svg>