<?xml version="1.0" encoding="UTF-8"?>
<svg id="Layer_2" data-name="Layer 2" xmlns="http://www.w3.org/2000/svg" viewBox="0 0 72.78 72.78">
  <g id="Layer_1-2" data-name="Layer 1">
    <g>
      <path d="M63.52,33.39c-1.99,0-3.85-.77-5.26-2.18l-16.69-16.69c-2.9-2.9-2.9-7.62,0-10.51l1.84-1.84c2.9-2.9,7.62-2.9,10.51,0l16.69,16.69c2.9,2.9,2.9,7.62,0,10.51l-1.84,1.84c-1.4,1.4-3.27,2.18-5.26,2.18ZM48.66,5c-.62,0-1.25.24-1.72.71l-1.84,1.84c-.95.95-.95,2.49,0,3.44l16.69,16.69c.92.92,2.52.92,3.44,0l1.84-1.84c.95-.95.95-2.49,0-3.44L50.38,5.71c-.48-.47-1.1-.71-1.72-.71Z"/>
      <path d="M45.66,38.44c-.64,0-1.28-.24-1.77-.73-.98-.98-.98-2.56,0-3.54l8.66-8.66-5.28-5.28-8.66,8.66c-.98.98-2.56.98-3.54,0-.98-.98-.98-2.56,0-3.54l10.43-10.43c.94-.94,2.6-.94,3.54,0l8.82,8.82c.47.47.73,1.1.73,1.77s-.26,1.3-.73,1.77l-10.43,10.43c-.49.49-1.13.73-1.77.73Z"/>
      <path d="M38.39,60.57c-.64,0-1.28-.24-1.77-.73l-23.67-23.67c-.98-.98-.98-2.56,0-3.54l5.33-5.33c6.14-6.14,16.13-6.14,22.27,0l4.93,4.93c6.14,6.14,6.14,16.13,0,22.27t0,0l-5.33,5.33c-.49.49-1.13.73-1.77.73ZM18.25,34.4l20.13,20.13,3.57-3.57c4.19-4.19,4.19-11.01,0-15.2l-4.93-4.93c-4.19-4.19-11.01-4.19-15.2,0l-3.57,3.57ZM43.72,52.73h0,0Z"/>
      <path d="M2.5,72.78c-.64,0-1.28-.24-1.77-.73-.98-.98-.98-2.56,0-3.54l24.05-24.05c.98-.98,2.56-.98,3.54,0,.98.98.98,2.56,0,3.54l-24.05,24.05c-.49.49-1.13.73-1.77.73Z"/>
    </g>
  </g>
</svg>