<?xml version="1.0" encoding="UTF-8"?>
<svg id="Layer_2" data-name="Layer 2" xmlns="http://www.w3.org/2000/svg" viewBox="0 0 26.82 23.97">
  <defs>
    <style>
      .cls-1 {
        fill: #fff;
        fill-rule: evenodd;
      }
    </style>
  </defs>
  <g id="Layer_1-2" data-name="Layer 1">
    <path class="cls-1" d="M3.45,3.45C5.75,1.15,8.77,0,11.78,0s6.03,1.15,8.33,3.45,3.45,5.32,3.45,8.33-1.15,6.03-3.45,8.33c-.46.46-.94.87-1.45,1.23.18-.09.36-.18.53-.27,2.78-1.43,5.33-2.74,7.52.9.21.34.09.79-.25,1-.34.21-.79.09-1-.25-1.48-2.47-3.45-1.46-5.6-.35-2.14,1.1-4.43,2.28-6.89,1.14-.4.04-.79.06-1.19.06-3.01,0-6.03-1.15-8.33-3.45S0,14.8,0,11.78,1.15,5.75,3.45,3.45h0ZM7.68,12.88c.3,1.13,1.04,2.03,1.98,2.58h0c.94.55,2.09.73,3.22.43,1.13-.3,2.03-1.04,2.58-1.98.53-.91.72-2.02.45-3.12l-.03-.1c-.3-1.13-1.04-2.03-1.98-2.58-.91-.53-2.02-.72-3.12-.45l-.1.03c-1.13.3-2.03,1.04-2.58,1.98h0c-.54.94-.73,2.09-.43,3.22h0ZM9.52,5.28c.17.63.57,1.12,1.09,1.42.52.3,1.16.4,1.78.24.62-.17,1.12-.57,1.42-1.09.28-.49.39-1.08.26-1.67h0s-.03-.11-.03-.11c-.17-.62-.57-1.12-1.09-1.42h0c-.49-.28-1.08-.39-1.67-.26h-.01l-.1.03c-.62.17-1.12.57-1.42,1.09-.3.52-.4,1.16-.24,1.78h0ZM15.68,8.84c.17.62.57,1.12,1.09,1.42.52.3,1.16.4,1.78.24.62-.17,1.12-.57,1.42-1.09.28-.49.39-1.08.26-1.67h0s-.03-.11-.03-.11c-.17-.62-.57-1.12-1.09-1.42h0c-.49-.28-1.08-.39-1.67-.26h-.01l-.1.03c-.62.17-1.12.57-1.42,1.09-.3.52-.4,1.16-.24,1.78h0ZM15.68,15.95c.17.63.57,1.12,1.09,1.42.52.3,1.16.4,1.78.24.63-.17,1.12-.57,1.42-1.09.28-.49.39-1.08.26-1.67h0s-.03-.11-.03-.11c-.17-.62-.57-1.12-1.09-1.42h0c-.49-.28-1.08-.39-1.67-.26h-.01l-.1.03c-.62.17-1.12.57-1.42,1.09-.3.52-.4,1.16-.24,1.78h0ZM9.52,19.51c.17.63.57,1.12,1.09,1.42.52.3,1.16.4,1.78.24.62-.17,1.12-.57,1.42-1.09.28-.49.39-1.08.26-1.67h0s-.03-.11-.03-.11c-.17-.62-.57-1.12-1.09-1.42h0c-.49-.28-1.08-.39-1.67-.26h-.01l-.1.03c-.62.17-1.12.57-1.42,1.09-.3.52-.4,1.16-.24,1.78h0ZM3.35,15.95c.17.63.57,1.12,1.09,1.42.52.3,1.16.4,1.78.24.62-.17,1.12-.57,1.42-1.09.28-.49.39-1.08.26-1.67h0s-.03-.11-.03-.11c-.17-.62-.57-1.12-1.09-1.42h0c-.49-.28-1.08-.39-1.67-.26h-.01l-.1.03c-.62.17-1.12.57-1.42,1.09-.3.52-.4,1.16-.24,1.78h0ZM3.35,8.84c.17.62.57,1.12,1.09,1.42.52.3,1.16.4,1.78.24.62-.17,1.12-.57,1.42-1.09.28-.49.39-1.08.26-1.67h0s-.03-.11-.03-.11c-.17-.62-.57-1.12-1.09-1.42h0c-.49-.28-1.08-.39-1.67-.26h-.01l-.1.03c-.62.17-1.12.57-1.42,1.09-.3.52-.4,1.16-.24,1.78Z"/>
  </g>
</svg>