<?xml version="1.0" encoding="UTF-8"?>
<svg id="Layer_2" data-name="Layer 2" xmlns="http://www.w3.org/2000/svg" viewBox="0 0 30.91 20">
  <defs>
    <style>
      .cls-1 {
        fill: #fff;
        fill-rule: evenodd;
      }
    </style>
  </defs>
  <g id="Layer_1-2" data-name="Layer 1">
    <path class="cls-1" d="M21.09,10.18c.07-.07.14-.14.21-.2l1.46,2.81h-3.17c.25-.96.75-1.86,1.5-2.61h0ZM1.69,10.18c1.12-1.12,2.6-1.69,4.07-1.69.44,0,.89.05,1.32.15l-2.61,4.92c-.19.35-.21.75-.1,1.11.11.36.35.67.71.86.35.19.75.21,1.11.1.36-.11.67-.35.86-.71l2.61-4.92c.06.05.12.11.17.16,1.12,1.12,1.69,2.6,1.69,4.07s-.56,2.95-1.69,4.07c-1.12,1.12-2.6,1.69-4.07,1.69s-2.95-.56-4.07-1.69c-1.12-1.12-1.69-2.6-1.69-4.07s.56-2.95,1.69-4.07h0ZM19.93,1.67h1.04l-1.3,2.64h-7.81l1.7-3.21c.06-.11.1-.23.1-.36,0-.4-.33-.73-.73-.73h-3.19c-.4,0-.73.33-.73.73s.33.73.73.73h1.98l-6.61,12.44c-.19.36-.05.8.3.99.36.19.8.05.99-.3l4.25-8.01,2.94,5.67-.04.04h0c-.54.54-.81,1.25-.81,1.96s.27,1.42.81,1.96c.54.54,1.25.81,1.96.81s1.42-.27,1.96-.81h0c.36-.36.59-.78.72-1.23h6.96c.11,0,.23-.03.33-.08.36-.18.5-.62.31-.98l-4.75-9.14,1.53-3.11h1.3c.4,0,.73-.33.73-.73s-.33-.73-.73-.73h-3.96c-.4,0-.73.33-.73.73s.33.73.73.73h0ZM17.75,11.49h0s-.02.04-.03.06l-.34.64s.07.06.1.09h0s0,0,0,0h0s.01.01.01.01h.01s0,.01,0,.01l.02.02h0s0,.01,0,.01h.01s0,.02,0,.02h0s.01.02.01.02h0s0,.01,0,.01h.01s0,.02,0,.02h0s.01.02.01.02h.01s0,.01,0,.01c.28.32.47.69.57,1.08h5.76l-3.6-6.92-1.42,2.66-1.19,2.23h0ZM16.44,10.87l-.35.66c-.19-.04-.37-.06-.56-.06-.22,0-.43.03-.65.08l-3-5.78h7.08l-2.51,5.09v.02h0ZM15.52,12.93c.34,0,.67.13.93.38h0s.01.01.01.01h0s0,0,0,0h0s0,.01,0,.01c.22.24.34.53.36.84h0s0,.04,0,.07c0,.34-.13.68-.38.93h0c-.26.26-.59.39-.93.39s-.67-.13-.93-.39c-.26-.26-.39-.59-.39-.93s.13-.68.38-.93h0c.26-.26.59-.38.93-.38h0ZM23.88,8.63l2.57,4.95c.18.36.21.76.09,1.11-.11.33-.33.63-.66.82l-6.33.05c.25.96.78,2.01,1.53,2.76,1.12,1.12,2.6,1.69,4.07,1.69s2.95-.56,4.07-1.69c1.12-1.12,1.69-2.6,1.69-4.07s-.56-2.95-1.69-4.07c-1.12-1.12-2.6-1.69-4.07-1.69-.43,0-.86.05-1.28.14Z"/>
  </g>
</svg>