<?xml version="1.0" encoding="UTF-8"?>
<svg id="Layer_2" data-name="Layer 2" xmlns="http://www.w3.org/2000/svg" viewBox="0 0 29.57 29.57">
  <defs>
    <style>
      .cls-1 {
        fill: #fff;
        fill-rule: evenodd;
      }
    </style>
  </defs>
  <g id="Layer_1-2" data-name="Layer 1">
    <path class="cls-1" d="M14.79,0c8.17,0,14.79,6.62,14.79,14.79s-6.62,14.79-14.79,14.79S0,22.95,0,14.79,6.62,0,14.79,0h0ZM17.68,11.39l-2.73,2.52h-6.32c-.14-.41-.37-.78-.67-1.08-.5-.5-1.19-.81-1.95-.81s-1.45.31-1.95.81c-.5.5-.81,1.19-.81,1.95s.31,1.45.81,1.95c.5.5,1.19.81,1.95.81s1.45-.31,1.95-.81c.3-.3.53-.67.67-1.08h6.32l2.73,2.52,10.67-3.39-10.67-3.39h0ZM6.7,14.1c-.18-.18-.42-.28-.69-.28s-.51.11-.69.28c-.18.18-.28.42-.28.69s.11.51.28.69c.18.18.42.28.69.28s.51-.11.69-.28c.18-.18.28-.42.28-.69s-.11-.51-.28-.69Z"/>
  </g>
</svg>