<?xml version="1.0" encoding="UTF-8"?>
<svg id="Layer_2" data-name="Layer 2" xmlns="http://www.w3.org/2000/svg" viewBox="0 0 20.98 25.7">
  <defs>
    <style>
      .cls-1 {
        fill: #fff;
        fill-rule: evenodd;
      }
    </style>
  </defs>
  <g id="Layer_1-2" data-name="Layer 1">
    <path class="cls-1" d="M10,0c1.68,0,3.19.68,4.29,1.78s1.78,2.62,1.78,4.29-.68,3.19-1.78,4.29c-.5.5-1.08.91-1.73,1.21.72.19,1.42.47,2.07.81l-1.26,1.01c-.16.12-.29.27-.39.45-.1.19-.15.4-.15.61v1.32l-2.71,2.12c-.18.12-.32.28-.42.47-.1.19-.16.41-.16.64v5.64H2.2c-.61,0-1.16-.25-1.56-.65-.4-.4-.65-.95-.65-1.56v-1.2c0-2.75,1.12-5.25,2.94-7.06,1.23-1.23,2.77-2.14,4.49-2.6-.64-.3-1.23-.71-1.73-1.21-1.1-1.1-1.78-2.62-1.78-4.29s.68-3.19,1.78-4.29c1.1-1.1,2.62-1.78,4.29-1.78h0ZM18.91,18.97l1.75,1.23c.19.12.32.33.32.57v4.27c0,.37-.3.67-.67.67h-1.58c.11-.2.18-.42.18-.67v-6.06h0ZM18.24,11.73h0c0-.15-.05-.29-.14-.41-.23-.29-.65-.34-.93-.11l-3.38,2.7c-.17.12-.28.32-.28.55v10.58c0,.37.3.67.67.67h3.41c.37,0,.67-.3.67-.67v-13.3h0ZM13.01,25.7c-.11-.2-.18-.42-.18-.67v-8.42l-2.33,1.82c-.18.12-.3.32-.3.56v6.04c0,.37.3.67.67.67h2.14Z"/>
  </g>
</svg>