<?xml version="1.0" encoding="UTF-8"?>
<svg id="Layer_2" data-name="Layer 2" xmlns="http://www.w3.org/2000/svg" viewBox="0 0 30.07 28.38">
  <defs>
    <style>
      .cls-1 {
        fill: #fff;
        fill-rule: evenodd;
      }
    </style>
  </defs>
  <g id="Layer_1-2" data-name="Layer 1">
    <path class="cls-1" d="M19.08,22.32c0-.37.3-.67.67-.67s.67.3.67.67v1.54l1.34-.77c.32-.18.72-.08.91.24.18.32.08.72-.24.91l-1.34.77,1.34.77c.32.18.43.59.24.91-.18.32-.59.43-.91.24l-1.34-.77v1.54c0,.37-.3.67-.67.67s-.67-.3-.67-.67v-1.54l-1.34.77c-.32.18-.72.08-.91-.24-.18-.32-.08-.72.24-.91l1.34-.77-1.34-.77c-.32-.18-.43-.59-.24-.91.18-.32.59-.43.91-.24l1.34.77v-1.54h0ZM15.12,20.97c.21-.3.63-.37.93-.15.3.21.37.63.15.93l-1.53,2.12c-.21.3-.63.37-.93.15-.3-.21-.37-.63-.15-.93l1.53-2.12h0ZM12.26,24.96c.21-.3.63-.37.93-.15.3.21.37.63.15.93l-1.53,2.12c-.21.3-.63.37-.93.15-.3-.21-.37-.63-.15-.93l1.53-2.12h0ZM9.49,20.97c.21-.3.63-.37.93-.15.3.21.37.63.15.93l-1.53,2.12c-.21.3-.63.37-.93.15-.3-.21-.37-.63-.15-.93l1.53-2.12h0ZM6.63,24.96c.21-.3.63-.37.93-.15.3.21.37.63.15.93l-1.53,2.12c-.21.3-.63.37-.93.15-.3-.21-.36-.63-.15-.93l1.53-2.12h0ZM7.27,4.92h0c.23,0,.46.01.71.04l.19.02c.72-1.42,1.81-2.63,3.14-3.5,1.43-.93,3.13-1.48,4.97-1.48,2.26,0,4.33.83,5.92,2.19,1.5,1.29,2.57,3.05,2.99,5.06,1.32.29,2.48,1,3.34,1.98.95,1.09,1.53,2.51,1.53,4.06,0,1.71-.7,3.25-1.82,4.37-1.13,1.12-2.68,1.81-4.39,1.81h0c-1,0-6.93,0-11.53,0-2.58,0-4.73,0-5.36-.01-1.91-.03-3.64-.88-4.9-2.19-1.28-1.34-2.08-3.16-2.08-5.07,0-2,.82-3.82,2.14-5.14,1.32-1.32,3.14-2.14,5.14-2.14Z"/>
  </g>
</svg>