<?xml version="1.0" encoding="UTF-8"?>
<svg id="Layer_2" data-name="Layer 2" xmlns="http://www.w3.org/2000/svg" viewBox="0 0 27.34 26.07">
  <defs>
    <style>
      .cls-1 {
        fill: #fff;
        fill-rule: evenodd;
      }
    </style>
  </defs>
  <g id="Layer_1-2" data-name="Layer 1">
    <path class="cls-1" d="M14.22.29l4.81,6.69,7.86,2.51c.35.11.54.48.43.83-.02.07-.06.14-.1.19l-4.88,6.65.04,8.25c0,.37-.29.66-.66.67-.07,0-.14-.01-.21-.03h0s-7.83-2.59-7.83-2.59l-7.83,2.59c-.35.11-.73-.08-.84-.42-.03-.09-.04-.18-.03-.27l.04-8.19L.13,10.51c-.22-.3-.15-.71.14-.93.07-.05.15-.09.23-.11l7.82-2.49L13.13.28c.21-.3.63-.37.93-.15.06.05.12.1.16.16Z"/>
  </g>
</svg>