<?xml version="1.0" encoding="UTF-8"?>
<svg id="Layer_2" data-name="Layer 2" xmlns="http://www.w3.org/2000/svg" viewBox="0 0 29.57 29.57">
  <defs>
    <style>
      .cls-1 {
        fill: #fff;
        fill-rule: evenodd;
      }
    </style>
  </defs>
  <g id="Layer_1-2" data-name="Layer 1">
    <path class="cls-1" d="M14.79,0c8.17,0,14.79,6.62,14.79,14.79s-6.62,14.79-14.79,14.79S0,22.95,0,14.79,6.62,0,14.79,0h0ZM12.01,24.93c0-.62-.5-1.12-1.12-1.12s-1.12.5-1.12,1.12.5,1.12,1.12,1.12,1.12-.5,1.12-1.12h0ZM21.04,13.67c-.62,0-1.12.5-1.12,1.12s.5,1.12,1.12,1.12,1.12-.5,1.12-1.12-.5-1.12-1.12-1.12h0ZM16.54,11.4c0,.62.5,1.12,1.12,1.12s1.12-.5,1.12-1.12-.5-1.12-1.12-1.12-1.12.5-1.12,1.12h0ZM16.54,18.17c0,.62.5,1.12,1.12,1.12s1.12-.5,1.12-1.12-.5-1.12-1.12-1.12-1.12.5-1.12,1.12h0ZM15.39,21.55c0-.62-.5-1.12-1.12-1.12s-1.12.5-1.12,1.12.5,1.12,1.12,1.12,1.12-.5,1.12-1.12h0ZM13.16,8.02c0,.62.5,1.12,1.12,1.12s1.12-.5,1.12-1.12-.5-1.12-1.12-1.12-1.12.5-1.12,1.12h0ZM10.89,5.76c.62,0,1.12-.5,1.12-1.12s-.5-1.12-1.12-1.12-1.12.5-1.12,1.12.5,1.12,1.12,1.12Z"/>
  </g>
</svg>