<?xml version="1.0" encoding="UTF-8"?>
<svg id="Layer_2" data-name="Layer 2" xmlns="http://www.w3.org/2000/svg" viewBox="0 0 62.52 66.32">
  <g id="Layer_1-2" data-name="Layer 1">
    <g>
      <path d="M54.67,66.32H7.85c-4.33,0-7.85-3.52-7.85-7.85V26.03c0-4.33,3.52-7.85,7.85-7.85h46.82c4.33,0,7.85,3.52,7.85,7.85v32.44c0,4.33-3.52,7.85-7.85,7.85ZM7.85,23.18c-1.57,0-2.85,1.28-2.85,2.85v32.44c0,1.57,1.28,2.85,2.85,2.85h46.82c1.57,0,2.85-1.28,2.85-2.85V26.03c0-1.57-1.28-2.85-2.85-2.85H7.85Z"/>
      <path d="M49.44,23.18H13.08c-1.38,0-2.5-1.12-2.5-2.5v-10.29C10.58,4.66,15.24,0,20.96,0h20.59c5.73,0,10.39,4.66,10.39,10.39v10.29c0,1.38-1.12,2.5-2.5,2.5ZM15.58,18.18h31.36v-7.79c0-2.97-2.42-5.39-5.39-5.39h-20.59c-2.97,0-5.39,2.42-5.39,5.39v7.79Z"/>
      <path d="M31.26,49.88c-1.38,0-2.5-1.12-2.5-2.5v-10.27c0-1.38,1.12-2.5,2.5-2.5s2.5,1.12,2.5,2.5v10.27c0,1.38-1.12,2.5-2.5,2.5Z"/>
    </g>
  </g>
</svg>