<?xml version="1.0" encoding="UTF-8"?>
<svg id="Layer_2" data-name="Layer 2" xmlns="http://www.w3.org/2000/svg" viewBox="0 0 66.41 76.7">
  <g id="Layer_1-2" data-name="Layer 1">
    <g>
      <path d="M33.21,76.7c-8.43,0-15.29-6.86-15.29-15.29,0-13.19,13.17-23.9,13.73-24.35.91-.73,2.21-.73,3.13,0,.56.45,13.73,11.17,13.73,24.35,0,8.43-6.86,15.29-15.29,15.29ZM33.21,42.36c-3.22,3.05-10.29,10.7-10.29,19.06,0,5.67,4.62,10.29,10.29,10.29s10.29-4.62,10.29-10.29c0-8.36-7.07-16.01-10.29-19.06Z"/>
      <path d="M33.21,76.69C14.9,76.69,0,61.8,0,43.49c0-7.94,2.83-15.6,7.98-21.57.54-.63,1.36-.94,2.18-.85.82.09,1.54.59,1.93,1.32,1.47,2.8,3.33,5.34,5.53,7.58,2.23-2.56,2.61-5.72,3.08-9.56.74-6.08,1.66-13.64,11.11-19.98.61-.41,1.36-.53,2.06-.33s1.29.69,1.59,1.35c2.74,5.82,7.83,9.54,13.23,13.48,8.3,6.05,17.71,12.92,17.71,28.57,0,18.31-14.9,33.21-33.21,33.21ZM9.63,28.02c-3,4.55-4.63,9.93-4.63,15.47,0,15.55,12.65,28.21,28.21,28.21s28.21-12.65,28.21-28.21c0-13.11-7.6-18.66-15.66-24.53-4.91-3.58-9.97-7.27-13.36-12.73-5.49,4.61-6.09,9.57-6.73,14.78-.62,5.07-1.25,10.31-6.54,14.36-.95.73-2.28.68-3.18-.11-2.42-2.15-4.54-4.57-6.31-7.25Z"/>
    </g>
  </g>
</svg>