<?xml version="1.0" encoding="UTF-8"?>
<svg id="Layer_2" data-name="Layer 2" xmlns="http://www.w3.org/2000/svg" viewBox="0 0 25.46 25.46">
  <defs>
    <style>
      .cls-1 {
        fill: #fff;
        fill-rule: evenodd;
      }
    </style>
  </defs>
  <g id="Layer_1-2" data-name="Layer 1">
    <path class="cls-1" d="M15.31,2.97c.44.12.87.26,1.28.43.42.17.82.37,1.21.6.08.04.16.06.24.06.08,0,.15-.04.22-.09l.85-.68c.35-.28.77-.4,1.18-.38.41.02.82.19,1.13.5l.63.63c.31.31.48.72.5,1.13.02.41-.1.83-.38,1.18l-.68.85c-.05.07-.08.14-.09.22,0,.08.01.16.06.24.23.39.43.79.6,1.21.17.41.32.84.43,1.28.02.08.07.15.12.2.06.05.13.08.22.09l1.08.12c.44.05.82.26,1.1.57.28.31.44.71.44,1.15v.89c0,.44-.17.85-.44,1.15-.28.31-.66.52-1.1.57l-1.08.12c-.09,0-.16.04-.22.09-.06.05-.1.12-.12.2-.12.44-.26.87-.43,1.28-.17.42-.37.82-.6,1.21-.04.08-.06.16-.06.24,0,.08.04.15.09.22l.68.85c.28.35.4.77.38,1.18-.02.41-.19.82-.5,1.13l-.63.63c-.31.31-.72.48-1.13.5-.41.02-.83-.1-1.18-.38l-.85-.68c-.07-.05-.14-.08-.22-.09-.08,0-.16.01-.24.06-.39.23-.79.43-1.21.6-.41.17-.84.32-1.28.43-.08.02-.15.07-.2.12-.05.06-.08.13-.09.22l-.12,1.08c-.05.44-.26.82-.57,1.1-.31.28-.71.44-1.15.44h-.89c-.44,0-.85-.17-1.15-.44-.31-.28-.52-.66-.57-1.1l-.12-1.08c0-.09-.04-.16-.09-.22-.05-.06-.12-.1-.2-.12-.44-.12-.87-.26-1.28-.43-.42-.17-.82-.37-1.21-.6-.08-.04-.16-.06-.24-.06-.08,0-.15.04-.22.09l-.85.68c-.35.28-.77.4-1.18.38-.41-.02-.82-.19-1.13-.5l-.63-.63c-.31-.31-.48-.72-.5-1.13-.02-.41.1-.83.38-1.18l.68-.85c.05-.07.08-.14.09-.22,0-.08-.01-.16-.06-.24-.23-.39-.43-.79-.6-1.21-.17-.41-.32-.84-.43-1.28-.02-.08-.07-.16-.12-.2-.06-.05-.13-.08-.22-.09l-1.08-.12c-.44-.05-.82-.26-1.1-.57-.28-.31-.44-.71-.44-1.15v-.89c0-.44.17-.85.44-1.15.28-.31.66-.52,1.1-.57l1.08-.12c.09,0,.16-.04.22-.09.06-.05.1-.12.12-.2.12-.44.26-.87.43-1.28.17-.42.37-.82.6-1.21.04-.08.06-.16.06-.24,0-.08-.04-.15-.09-.22l-.68-.85c-.28-.35-.4-.77-.38-1.18.02-.41.19-.81.51-1.13h0s.63-.63.63-.63c.31-.31.72-.48,1.13-.5.41-.02.83.1,1.18.38l.85.68c.07.05.14.08.22.09.08,0,.16-.01.24-.06.39-.23.79-.43,1.21-.6.41-.17.84-.32,1.28-.43.08-.02.15-.07.21-.12.05-.06.08-.13.09-.22l.12-1.08c.05-.44.26-.82.57-1.1.31-.28.71-.44,1.15-.44h.89c.44,0,.84.17,1.15.44.31.28.52.66.57,1.1l.12,1.08c0,.09.04.16.09.22.05.06.12.1.21.12h0ZM16.24,9.23c-.9-.9-2.14-1.45-3.51-1.45s-2.61.55-3.51,1.45c-.9.9-1.45,2.14-1.45,3.51s.56,2.61,1.45,3.51c.9.9,2.14,1.45,3.51,1.45s2.61-.56,3.51-1.45c.9-.9,1.45-2.14,1.45-3.51s-.55-2.61-1.45-3.51Z"/>
  </g>
</svg>