<?xml version="1.0" encoding="UTF-8"?>
<svg id="Layer_2" data-name="Layer 2" xmlns="http://www.w3.org/2000/svg" viewBox="0 0 26.98 17.61">
  <defs>
    <style>
      .cls-1 {
        fill: #fff;
        fill-rule: evenodd;
      }
    </style>
  </defs>
  <g id="Layer_1-2" data-name="Layer 1">
    <path class="cls-1" d="M1.48,0h20.52l-10.29,6.94L1.48,0h0ZM21.21,9.18c.19-.26.39-.48.62-.66.52-.42,1.13-.63,1.93-.63.89,0,1.69.36,2.28.94.58.58.94,1.39.94,2.28,0,1.46-.43,2.55-1.38,3.57-.88.95-2.21,1.8-4.07,2.84-.23.13-.5.11-.7-.03-1.65-1-2.96-1.85-3.88-2.78-.99-1.02-1.53-2.13-1.53-3.6,0-.89.36-1.69.94-2.28s1.39-.94,2.28-.94c.8,0,1.41.21,1.93.63.23.18.43.4.62.66h0ZM23.41.55l-11.36,7.66c-.2.14-.48.14-.7,0L.01.51s-.01.08-.01.12v14.13c0,.35.28.63.62.63h16.07c-.07-.07-.14-.14-.21-.21-.55-.57-.98-1.16-1.27-1.83-.29-.67-.45-1.41-.45-2.23,0-.52.11-1.03.3-1.49.2-.48.49-.91.84-1.26.35-.36.78-.64,1.26-.84.46-.19.96-.3,1.49-.3.47,0,.89.06,1.28.19.39.13.74.32,1.07.58.07.06.14.12.21.18.07-.06.14-.12.21-.18.33-.26.68-.46,1.07-.58.29-.1.6-.15.93-.18V.63s0-.05,0-.08Z"/>
  </g>
</svg>