<?xml version="1.0" encoding="UTF-8"?>
<svg id="Layer_2" data-name="Layer 2" xmlns="http://www.w3.org/2000/svg" viewBox="0 0 29.57 29.57">
  <defs>
    <style>
      .cls-1 {
        fill: #fff;
        fill-rule: evenodd;
      }
    </style>
  </defs>
  <g id="Layer_1-2" data-name="Layer 1">
    <path class="cls-1" d="M14.78,0c8.17,0,14.79,6.62,14.79,14.79s-6.62,14.79-14.79,14.79S0,22.95,0,14.79,6.62,0,14.78,0h0ZM13.42,2.83c3.59,2.75,5.91,7.08,5.91,11.95s-2.32,9.2-5.91,11.95c5.16-1.52,8.94-6.3,8.94-11.95s-3.77-10.43-8.94-11.95h0ZM7.21,7.8c2.1,1.61,3.46,4.14,3.46,6.99s-1.35,5.38-3.46,6.99c3.02-.89,5.22-3.68,5.22-6.99s-2.2-6.1-5.22-6.99h0ZM9.65,4.96c2.95,2.26,4.86,5.82,4.86,9.83s-1.91,7.57-4.86,9.83c4.25-1.25,7.35-5.18,7.35-9.83s-3.1-8.58-7.35-9.83Z"/>
  </g>
</svg>