<?xml version="1.0" encoding="UTF-8"?>
<svg id="Layer_2" data-name="Layer 2" xmlns="http://www.w3.org/2000/svg" viewBox="0 0 23.29 22.28">
  <defs>
    <style>
      .cls-1 {
        fill: #fff;
        fill-rule: evenodd;
      }
    </style>
  </defs>
  <g id="Layer_1-2" data-name="Layer 1">
    <path class="cls-1" d="M7.05,1.63c2.3,1.66,4.62,4.36,5.8,6.6,1.58-2.53,3.5-4.38,5.22-5.31.84-.45,1.66-.69,2.39-.7.81,0,1.51.28,2.02.89.48.57.77,1.42.8,2.56.16,6.3-3.29,9.72-8.57,14.95-.47.47-.96.96-1.46,1.46h0c-.26.26-.68.26-.94,0l-1.16-1.16C5.33,15.14-.96,8.88.12,3.04.34,1.88.77,1.09,1.36.61,2.12-.02,3.07-.13,4.11.13c.92.23,1.93.77,2.94,1.49Z"/>
  </g>
</svg>