<?xml version="1.0" encoding="UTF-8"?>
<svg id="Layer_2" data-name="Layer 2" xmlns="http://www.w3.org/2000/svg" viewBox="0 0 23.96 27.32">
  <defs>
    <style>
      .cls-1 {
        fill: #fff;
        fill-rule: evenodd;
      }
    </style>
  </defs>
  <g id="Layer_1-2" data-name="Layer 1">
    <path class="cls-1" d="M2,21.78l12.05-6.97c.42-.24.66-.66.66-1.15s-.24-.91-.66-1.15L2,5.54c-.42-.25-.91-.25-1.33,0C.24,5.78,0,6.2,0,6.69v13.94C0,21.12.24,21.54.67,21.78c.42.24.91.24,1.33,0h0ZM0,25.53l18.52-10.72c.42-.24.66-.66.66-1.15s-.24-.91-.66-1.15L0,1.79v-.46C0,.85.24.43.67.18c.42-.24.91-.24,1.33,0l21.3,12.32c.42.24.66.66.66,1.15s-.24.91-.66,1.15L2,27.14c-.42.25-.91.25-1.33,0C.24,26.89,0,26.47,0,25.98v-.46Z"/>
  </g>
</svg>