<?xml version="1.0" encoding="UTF-8"?>
<svg id="Layer_2" data-name="Layer 2" xmlns="http://www.w3.org/2000/svg" viewBox="0 0 72.88 72.88">
  <g id="Layer_1-2" data-name="Layer 1">
    <g>
      <path d="M34.57,56.77c-.65,0-1.29-.26-1.77-.73l-15.95-15.95c-.68-.68-.91-1.7-.59-2.61C23.42,17.44,43.53-2.41,66.66.24h0c3.11.36,5.62,2.87,5.98,5.98,2.63,23.11-17.22,43.22-37.23,50.4-.28.1-.56.15-.84.15ZM21.52,37.69l13.67,13.67c15.4-6.14,34.89-23.42,32.48-44.57-.09-.82-.76-1.48-1.58-1.58C44.92,2.77,27.65,22.28,21.52,37.69Z"/>
      <path d="M9.01,70.57c-1.75,0-3.46-.69-4.74-1.98-1.76-1.76-2.41-4.31-1.69-6.66,0-.01.03-.09.03-.1.93-2.98,2.54-6.5,4.65-10.14,1.06-1.84,2.88-3.05,4.98-3.33,2.09-.28,4.16.42,5.65,1.92l4.69,4.69c1.49,1.49,2.19,3.55,1.92,5.65-.28,2.1-1.49,3.92-3.32,4.98-3.69,2.14-7.1,3.7-10.14,4.65,0,0-.1.03-.1.03-.63.19-1.28.29-1.92.29ZM13.13,53.31c-.09,0-.17,0-.24.02-.55.07-1.03.39-1.3.87-1.92,3.33-3.38,6.49-4.21,9.14-.27.9.21,1.5.43,1.72.22.22.82.7,1.67.45,2.71-.85,5.87-2.3,9.19-4.23.48-.28.8-.75.87-1.31.04-.32.03-.94-.49-1.46l-4.69-4.69c-.42-.42-.89-.51-1.23-.51Z"/>
      <path d="M18.62,40.81H6.07c-2.1,0-4.02-1.06-5.14-2.84-1.1-1.75-1.24-3.9-.35-5.76,2.93-6.15,10.65-16.31,29.36-15.29,1.38.07,2.44,1.25,2.36,2.63-.07,1.38-1.23,2.45-2.63,2.36-15.03-.81-21.66,6.32-24.58,12.44-.2.41-.04.77.06.94.1.15.38.51.91.51h12.54c1.38,0,2.5,1.12,2.5,2.5s-1.12,2.5-2.5,2.5Z"/>
      <path d="M38.1,72.88c-1.11,0-2.22-.31-3.2-.93-1.78-1.12-2.84-3.04-2.84-5.14v-12.54c0-1.38,1.12-2.5,2.5-2.5s2.5,1.12,2.5,2.5v12.54c0,.53.35.82.51.91.17.11.52.26.94.06,6.13-2.92,13.26-9.55,12.44-24.58-.08-1.38.98-2.56,2.36-2.63,1.39-.09,2.56.98,2.63,2.36,1.02,18.73-9.14,26.43-15.29,29.36-.82.39-1.69.58-2.56.58Z"/>
      <path d="M47.75,33.9c-4.84,0-8.78-3.94-8.78-8.78s3.94-8.78,8.78-8.78,8.78,3.94,8.78,8.78-3.94,8.78-8.78,8.78ZM47.75,21.34c-2.08,0-3.78,1.7-3.78,3.78s1.7,3.78,3.78,3.78,3.78-1.7,3.78-3.78-1.7-3.78-3.78-3.78Z"/>
    </g>
  </g>
</svg>