<?xml version="1.0" encoding="UTF-8"?>
<svg id="Layer_2" data-name="Layer 2" xmlns="http://www.w3.org/2000/svg" viewBox="0 0 71.56 71.56">
  <g id="Layer_1-2" data-name="Layer 1">
    <g>
      <path d="M35.78,71.56c-11.39,0-22.21-5.5-28.93-14.72-.81-1.12-.57-2.68.55-3.49,1.11-.81,2.68-.57,3.49.55,5.78,7.93,15.09,12.67,24.89,12.67,16.97,0,30.78-13.81,30.78-30.78,0-1.38,1.12-2.5,2.5-2.5s2.5,1.12,2.5,2.5c0,19.73-16.05,35.78-35.78,35.78Z"/>
      <path d="M2.5,38.28c-1.38,0-2.5-1.12-2.5-2.5C0,16.05,16.05,0,35.78,0c11.4,0,22.21,5.5,28.93,14.72.81,1.12.57,2.68-.55,3.49-1.12.81-2.68.57-3.49-.55-5.78-7.93-15.09-12.67-24.89-12.67-16.97,0-30.78,13.81-30.78,30.78,0,1.38-1.12,2.5-2.5,2.5Z"/>
      <path d="M8.87,71.56c-1.38,0-2.5-1.12-2.5-2.5v-13.7c0-1.38,1.12-2.5,2.5-2.5h13.7c1.38,0,2.5,1.12,2.5,2.5s-1.12,2.5-2.5,2.5h-11.2v11.2c0,1.38-1.12,2.5-2.5,2.5Z"/>
      <path d="M62.69,18.7h-13.7c-1.38,0-2.5-1.12-2.5-2.5s1.12-2.5,2.5-2.5h11.2V2.5c0-1.38,1.12-2.5,2.5-2.5s2.5,1.12,2.5,2.5v13.7c0,1.38-1.12,2.5-2.5,2.5Z"/>
    </g>
  </g>
</svg>