<?xml version="1.0" encoding="UTF-8"?>
<svg id="Layer_2" data-name="Layer 2" xmlns="http://www.w3.org/2000/svg" viewBox="0 0 51.63 74.11">
  <g id="Layer_1-2" data-name="Layer 1">
    <g>
      <path d="M25.86,74.11c-5.85,0-10.61-4.76-10.61-10.61v-3.39c0-5.85-2.42-11.26-6.82-15.25C3.07,39.96,0,33.02,0,25.81,0,11.58,11.58,0,25.81,0s25.82,11.58,25.82,25.81c0,6.98-2.74,13.49-7.73,18.39-.11.16-.24.31-.39.44-4.47,3.94-7.04,9.57-7.04,15.46v3.39c0,5.85-4.76,10.61-10.62,10.61ZM25.81,5C14.34,5,5,14.34,5,25.81c0,5.81,2.47,11.4,6.79,15.34,5.37,4.87,8.46,11.77,8.46,18.95v3.39c0,3.1,2.52,5.61,5.61,5.61s5.62-2.52,5.62-5.61v-3.39c0-7.14,3.02-13.97,8.32-18.84.08-.11.18-.22.28-.32,4.23-3.99,6.56-9.36,6.56-15.13,0-11.48-9.34-20.81-20.82-20.81Z"/>
      <path d="M34.08,60.68h-16.42c-1.38,0-2.5-1.12-2.5-2.5s1.12-2.5,2.5-2.5h16.42c1.38,0,2.5,1.12,2.5,2.5s-1.12,2.5-2.5,2.5Z"/>
      <path d="M25.87,60.68c-1.38,0-2.5-1.12-2.5-2.5v-27.94c0-1.38,1.12-2.5,2.5-2.5s2.5,1.12,2.5,2.5v27.94c0,1.38-1.12,2.5-2.5,2.5Z"/>
      <path d="M25.87,32.74c-4.55,0-8.25-3.7-8.25-8.25,0-1.38,1.12-2.5,2.5-2.5s2.5,1.12,2.5,2.5c0,1.79,1.46,3.25,3.25,3.25s3.25-1.46,3.25-3.25c0-1.38,1.12-2.5,2.5-2.5s2.5,1.12,2.5,2.5c0,4.55-3.7,8.25-8.25,8.25Z"/>
    </g>
  </g>
</svg>