<?xml version="1.0" encoding="UTF-8"?>
<svg id="Layer_2" data-name="Layer 2" xmlns="http://www.w3.org/2000/svg" viewBox="0 0 29.79 29.07">
  <defs>
    <style>
      .cls-1 {
        fill: #fff;
        fill-rule: evenodd;
      }
    </style>
  </defs>
  <g id="Layer_1-2" data-name="Layer 1">
    <path class="cls-1" d="M5.65,9.35h0c.17,0,.35,0,.55.03h.03c.56-1.05,1.38-1.95,2.37-2.6,1.1-.72,2.42-1.14,3.83-1.14,1.74,0,3.34.64,4.57,1.69,1.13.97,1.95,2.3,2.28,3.8.99.24,1.85.78,2.5,1.52.74.85,1.19,1.96,1.19,3.17,0,1.33-.54,2.54-1.42,3.41-.88.87-2.09,1.41-3.42,1.41h0c-.76,0-5.23,0-8.69,0-1.95,0-3.57,0-4.05-.01-1.49-.02-2.83-.68-3.81-1.7-1-1.04-1.62-2.46-1.62-3.94,0-1.55.64-2.97,1.66-3.99,1.02-1.02,2.44-1.66,3.99-1.66h0ZM5.4,25.73c-.33.17-.73.04-.9-.29-.17-.33-.04-.73.29-.9,1.52-.77,2.42-.25,3.26.23.43.25.83.48,1.29.28.46-.21.85-.36,1.18-.46.36-.11.67-.16.95-.17h.04c.28,0,.59.06.95.17.34.1.73.25,1.19.46.46.21.86-.03,1.29-.28.84-.49,1.73-1.01,3.26-.23.33.17.46.57.29.9-.17.33-.57.46-.9.29-.88-.45-1.45-.12-1.99.2-.73.43-1.42.83-2.5.34-.41-.19-.74-.31-1.01-.39-.24-.07-.44-.11-.6-.11-.16,0-.36.04-.6.11-.27.08-.61.21-1.01.39-1.08.49-1.77.09-2.5-.34-.53-.31-1.11-.64-1.99-.2h0ZM5.4,28.31c.88-.45,1.45-.12,1.99.2.73.43,1.42.83,2.5.34.41-.19.74-.31,1.01-.39.24-.07.44-.11.6-.11.16,0,.36.04.6.11.27.08.61.21,1.01.39,1.08.49,1.77.09,2.5-.34.53-.31,1.11-.64,1.99-.2.33.17.73.04.9-.29.17-.33.04-.73-.29-.9-1.52-.78-2.42-.25-3.26.23-.43.25-.83.48-1.29.27-.46-.21-.85-.36-1.19-.46-.36-.11-.67-.16-.95-.17h-.04c-.28,0-.59.06-.95.17-.34.1-.73.25-1.18.46-.46.21-.86-.03-1.29-.27-.84-.49-1.73-1.01-3.26-.23-.33.17-.46.57-.29.9.17.33.57.46.9.29h0ZM5.4,23.16c.88-.45,1.45-.12,1.99.2.73.43,1.43.83,2.5.34.41-.19.74-.31,1.01-.39.24-.07.44-.11.6-.11.16,0,.36.04.6.11.27.08.61.21,1.01.39,1.08.49,1.77.09,2.5-.34.53-.31,1.11-.64,1.99-.2.33.17.73.04.9-.29.17-.33.04-.73-.29-.9-1.52-.78-2.42-.25-3.26.23-.43.25-.83.48-1.29.28-.46-.21-.85-.36-1.19-.46-.36-.11-.67-.16-.95-.17h-.04c-.28,0-.59.06-.95.17-.34.1-.73.25-1.18.46-.46.21-.86-.03-1.29-.28-.84-.49-1.73-1.01-3.26-.23-.33.17-.46.57-.29.9.17.33.57.46.9.29h0ZM16.37,2.54c-.7.81-1.23,1.76-1.56,2.81.1.03.2.07.3.11.86.32,1.65.79,2.34,1.38.63.54,1.16,1.17,1.59,1.88.35.58.63,1.22.81,1.89.41.13.8.31,1.16.53.49.3.92.66,1.29,1.09.43.49.78,1.06,1.01,1.68.21.56.33,1.16.35,1.79,1.13-.17,2.18-.58,3.1-1.16,1.29-.82,2.32-1.99,2.97-3.38.16-.33.01-.73-.32-.89-.17-.08-.35-.08-.51-.02-.27.07-.54.13-.82.16-.28.04-.58.06-.89.06-1.85,0-3.52-.75-4.73-1.96-1.21-1.21-1.96-2.88-1.96-4.73,0-.51.05-.99.15-1.45.1-.47.26-.93.47-1.37.16-.33.01-.73-.32-.88-.17-.08-.35-.08-.51-.02-1.54.43-2.9,1.32-3.92,2.5Z"/>
  </g>
</svg>