<?xml version="1.0" encoding="UTF-8"?>
<svg id="Layer_2" data-name="Layer 2" xmlns="http://www.w3.org/2000/svg" viewBox="0 0 29.57 29.57">
  <defs>
    <style>
      .cls-1 {
        fill: #fff;
        fill-rule: evenodd;
      }
    </style>
  </defs>
  <g id="Layer_1-2" data-name="Layer 1">
    <path class="cls-1" d="M14.79,0c8.17,0,14.79,6.62,14.79,14.79s-6.62,14.79-14.79,14.79S0,22.95,0,14.79,6.62,0,14.79,0h0ZM10.62,10.65l4.05-3.38-4.05-3.38v6.77h0ZM19.62,18.17l4.05-3.38-4.05-3.38v6.77h0ZM15.12,14.41l4.05-3.38-4.05-3.38v6.77h0ZM15.12,21.93l4.05-3.38-4.05-3.38v6.77h0ZM10.62,25.69l4.05-3.38-4.05-3.38v6.77h0ZM10.62,18.17l4.05-3.38-4.05-3.38v6.77Z"/>
  </g>
</svg>