<?xml version="1.0" encoding="UTF-8"?>
<svg id="Layer_2" data-name="Layer 2" xmlns="http://www.w3.org/2000/svg" viewBox="0 0 21.77 24.88">
  <defs>
    <style>
      .cls-1 {
        fill: #fff;
        fill-rule: evenodd;
      }
    </style>
  </defs>
  <g id="Layer_1-2" data-name="Layer 1">
    <path class="cls-1" d="M7.56,2.64h6.66c-.05-.33-.21-.62-.44-.85l-.03-.03c-.28-.26-.66-.43-1.07-.43h-3.59c-.43,0-.82.17-1.1.46h0c-.23.23-.38.52-.44.85h0ZM15.28,20.4c-.03.37-.35.64-.72.61-.37-.03-.64-.35-.61-.72l1.07-12.64c.03-.37.35-.64.72-.61.37.03.64.35.61.72l-1.07,12.64h0ZM12.75,20.37c-.01.37-.32.65-.69.64-.37-.01-.65-.32-.64-.69l.53-12.64c.01-.37.32-.65.69-.64.37.01.65.32.64.69l-.53,12.64h0ZM10.35,20.32c.01.37-.27.68-.64.69-.37.01-.68-.27-.69-.64l-.53-12.64c-.01-.37.27-.68.64-.69.37-.01.68.27.69.64l.53,12.64h0ZM7.82,20.29c.03.37-.24.69-.61.72-.37.03-.69-.24-.72-.61l-1.07-12.64c-.03-.37.24-.69.61-.72.37-.03.69.24.72.61l1.07,12.64h0ZM3.08,3.17h3.13v-.28c0-.79.32-1.52.85-2.04h0c.52-.52,1.24-.85,2.04-.85h3.59c.77,0,1.48.31,2,.81l.04.04c.52.52.85,1.24.85,2.04v.28h5.54c.37,0,.67.3.67.67s-.3.67-.67.67h-1.81l-1.94,19.77c-.03.34-.32.6-.66.6h0s-11.62,0-11.62,0c-.36,0-.66-.29-.67-.66L2.47,4.5H.67c-.37,0-.67-.3-.67-.67s.3-.67.67-.67h2.41Z"/>
  </g>
</svg>