<?xml version="1.0" encoding="UTF-8"?>
<svg id="Layer_2" data-name="Layer 2" xmlns="http://www.w3.org/2000/svg" viewBox="0 0 22.73 25.67">
  <defs>
    <style>
      .cls-1 {
        fill: #fff;
        fill-rule: evenodd;
      }
    </style>
  </defs>
  <g id="Layer_1-2" data-name="Layer 1">
    <path class="cls-1" d="M10,0c1.68,0,3.19.68,4.29,1.78,1.1,1.1,1.78,2.62,1.78,4.29s-.68,3.19-1.78,4.29c-.5.5-1.08.91-1.73,1.21,1.4.37,2.68,1.04,3.77,1.94-.64.06-1.25.22-1.82.46-.79.33-1.5.81-2.09,1.4-1.16,1.16-1.88,2.77-1.88,4.55,0,.87.17,1.7.49,2.46.33.79.8,1.5,1.39,2.09.06.06.12.12.18.18H2.2c-.61,0-1.16-.25-1.56-.65-.4-.4-.65-.95-.65-1.56v-1.2c0-2.75,1.12-5.25,2.94-7.06,1.23-1.23,2.77-2.14,4.5-2.6-.65-.3-1.23-.71-1.73-1.21-1.1-1.1-1.78-2.62-1.78-4.29s.68-3.19,1.78-4.29,2.62-1.78,4.29-1.78h0ZM13.99,19.22c-.28.24-.31.66-.07.94l1.54,1.8c.24.28.66.31.94.07l3.56-3.25c.27-.25.29-.67.04-.94-.25-.27-.67-.29-.94-.04l-3.04,2.78-1.09-1.28c-.24-.28-.66-.31-.94-.07h0ZM21.04,15.83c-1.04-1.04-2.48-1.69-4.08-1.69s-3.03.65-4.08,1.69-1.69,2.48-1.69,4.08.65,3.03,1.69,4.08c1.04,1.04,2.48,1.69,4.08,1.69s3.03-.65,4.08-1.69c1.04-1.04,1.69-2.48,1.69-4.08s-.65-3.03-1.69-4.08Z"/>
  </g>
</svg>