<?xml version="1.0" encoding="UTF-8"?>
<svg id="Layer_2" data-name="Layer 2" xmlns="http://www.w3.org/2000/svg" viewBox="0 0 22.06 28.44">
  <defs>
    <style>
      .cls-1 {
        fill: #fff;
        fill-rule: evenodd;
      }
    </style>
  </defs>
  <g id="Layer_1-2" data-name="Layer 1">
    <path class="cls-1" d="M14.39,10.85l7.61,13.19c.13.22.05.51-.17.64l-6.41,3.7c-.22.13-.51.05-.64-.17l-7.61-13.19-6.47,3.73c-.09.05-.2.07-.31.05-.25-.04-.42-.29-.38-.54L3.12.39s.01-.06.02-.09c.09-.24.36-.37.6-.28l17.02,6.24c.11.03.21.11.27.21.13.22.05.51-.17.64l-6.47,3.73Z"/>
  </g>
</svg>