<?xml version="1.0" encoding="UTF-8"?>
<svg id="Layer_2" data-name="Layer 2" xmlns="http://www.w3.org/2000/svg" viewBox="0 0 28.51 17.55">
  <defs>
    <style>
      .cls-1 {
        fill: #fff;
        fill-rule: evenodd;
      }
    </style>
  </defs>
  <g id="Layer_1-2" data-name="Layer 1">
    <path class="cls-1" d="M14.02,0h3.39c.3,0,.57.09.81.27l9.77,7.44c.34.26.52.63.52,1.06s-.18.8-.52,1.06l-9.77,7.44c-.24.18-.5.27-.81.27h-3.39l10.13-7.72c.34-.26.52-.63.52-1.06s-.18-.8-.52-1.06L14.02,0h0ZM0,0l10.13,7.72c.34.26.52.63.52,1.06s-.18.8-.52,1.06L0,17.55h3.39c.3,0,.57-.09.81-.27l9.77-7.44c.34-.26.52-.63.52-1.06s-.18-.8-.52-1.06L4.2.27c-.24-.18-.5-.27-.81-.27H0ZM6.86,0l10.13,7.72c.34.26.52.63.52,1.06s-.18.8-.52,1.06l-10.13,7.72h3.39c.3,0,.57-.09.81-.27l9.77-7.44c.34-.26.52-.63.52-1.06s-.18-.8-.52-1.06L11.05.27c-.24-.18-.5-.27-.81-.27h-3.39Z"/>
  </g>
</svg>