<?xml version="1.0" encoding="UTF-8"?>
<svg id="Layer_2" data-name="Layer 2" xmlns="http://www.w3.org/2000/svg" viewBox="0 0 24.63 23.99">
  <defs>
    <style>
      .cls-1 {
        fill: #fff;
        fill-rule: evenodd;
      }
    </style>
  </defs>
  <g id="Layer_1-2" data-name="Layer 1">
    <path class="cls-1" d="M12.32,2.63c2.73,0,5.2,1.11,6.99,2.9,1.79,1.79,2.9,4.26,2.9,6.99s-1.11,5.2-2.9,6.99c-1.79,1.79-4.26,2.9-6.99,2.9s-5.2-1.11-6.99-2.9c-1.79-1.79-2.9-4.26-2.9-6.99s1.11-5.2,2.9-6.99,4.26-2.9,6.99-2.9h0ZM11.71,6.76v5.75c0,.37.3.67.67.67h4.73c.37,0,.67-.3.67-.67s-.3-.67-.67-.67h-4.07v-5.08c0-.37-.3-.67-.67-.67s-.67.3-.67.67h0ZM21.56,19.07c-.03-.15-.11-.29-.24-.39-.29-.23-.71-.17-.93.11-.3.39-.64.76-.99,1.1-.35.34-.73.65-1.13.93-.08.05-.15.12-.2.21-.19.31-.09.72.22.91l3.19,1.95c.14.09.31.12.49.08.36-.08.58-.43.51-.79l-.92-4.12h0ZM2.16,23.18c-.08.36.15.71.5.79.17.04.35,0,.49-.08l3.19-1.95c.31-.19.41-.6.22-.91-.05-.08-.12-.15-.2-.21-.4-.28-.77-.6-1.13-.93-.36-.34-.69-.71-1-1.1-.23-.29-.64-.34-.93-.11-.13.1-.21.24-.24.39l-.92,4.12h0ZM19.51,0c-.72,0-1.41.15-2.04.43-.65.28-1.22.69-1.7,1.2-.06.06-.11.14-.15.23-.13.34.04.73.39.86,1.36.51,2.59,1.3,3.61,2.3,1.02.99,1.83,2.18,2.38,3.51.03.09.08.18.16.25.26.26.68.27.94,0,.47-.46.85-1.02,1.12-1.64l.02-.04c.26-.61.4-1.28.4-1.98,0-1.41-.57-2.69-1.5-3.62-.93-.93-2.21-1.5-3.62-1.5h0ZM5.12,0c-1.41,0-2.7.57-3.62,1.5-.93.93-1.5,2.21-1.5,3.62,0,.7.14,1.37.4,1.98.26.63.65,1.2,1.14,1.67.06.06.13.11.22.14.34.14.73-.03.86-.36.55-1.34,1.37-2.55,2.4-3.54,1.02-.99,2.24-1.78,3.6-2.29.08-.03.16-.08.23-.14.27-.25.28-.67.03-.94-.48-.51-1.06-.92-1.71-1.21-.63-.27-1.32-.43-2.04-.43Z"/>
  </g>
</svg>