<?xml version="1.0" encoding="UTF-8"?>
<svg id="Layer_2" data-name="Layer 2" xmlns="http://www.w3.org/2000/svg" viewBox="0 0 27.08 18.67">
  <defs>
    <style>
      .cls-1 {
        fill: #fff;
        fill-rule: evenodd;
      }
    </style>
  </defs>
  <g id="Layer_1-2" data-name="Layer 1">
    <path class="cls-1" d="M2.06,0h20.91l-10.48,7.37L2.06,0h0ZM26.42,15.07c.37,0,.67-.3.67-.67v-5.54c0-.37-.3-.67-.67-.67h-5.7v-2.93c0-.17-.07-.34-.2-.47-.26-.26-.68-.26-.94,0l-6.37,6.37c-.26.26-.26.68,0,.94l6.36,6.36c.12.12.29.2.48.2.37,0,.67-.3.67-.67v-2.93h5.7ZM24.86.3l-5.31,3.74c.16-.07.33-.1.51-.1.34,0,.68.13.94.39.12.12.22.27.29.43.07.17.1.34.1.51h0v2.27h3.59V.67c0-.14-.04-.26-.11-.37h0ZM19.05,4.38l-6.17,4.34c-.22.16-.54.18-.78,0L.13.27c-.08.11-.13.25-.13.4v15.04c0,.07.01.14.03.21l8.55-7c.28-.23.7-.19.94.09.23.28.19.7-.09.94l-7.85,6.43h14.95s-3.79-3.79-3.79-3.79c-.26-.26-.39-.6-.39-.94s.13-.68.39-.94l6.32-6.31h0ZM24.97,15.74c-.02.35-.31.63-.67.63h-2.92v-.63h3.59Z"/>
  </g>
</svg>