<?xml version="1.0" encoding="UTF-8"?>
<svg id="Layer_2" data-name="Layer 2" xmlns="http://www.w3.org/2000/svg" viewBox="0 0 33.93 22.21">
  <defs>
    <style>
      .cls-1 {
        fill: #fff;
        fill-rule: evenodd;
      }
    </style>
  </defs>
  <g id="Layer_1-2" data-name="Layer 1">
    <path class="cls-1" d="M4.17,0h19.89c.4,0,.73.33.73.73v2.61h4.57c.23.01.43.12.56.28l3.83,4.6c.11.14.17.3.17.46h0v7.95c0,.4-.33.73-.73.73h-.06s-9.08,0-9.08,0H4.24s-.06,0-.06,0c-.4,0-.73-.33-.73-.73v-5.05h5.11c.4,0,.73-.33.73-.73s-.33-.73-.73-.73c-1.55,0-4.55,0-6.1,0-.4,0-.73-.33-.73-.73,0-.3.19-.56.45-.67h3.22c.4,0,.73-.33.73-.73s-.33-.73-.73-.73H.6c-.34-.06-.6-.36-.6-.72,0-.4.33-.73.73-.73,2.05,0,4.07-.01,6.12-.01.4,0,.73-.33.73-.73s-.33-.73-.73-.73c-1.48,0-2.96,0-4.44,0-.4,0-.73-.33-.73-.73s.33-.73.73-.73h1.33s-.29,0-.29,0V.73c0-.4.33-.73.73-.73h0ZM16.11,12.6h3.98c.4,0,.73-.33.73-.73s-.33-.73-.73-.73h-3.98c-.4,0-.73.33-.73.73s.33.73.73.73h0ZM13.45,11.14h-1.33c-.4,0-.73.33-.73.73s.33.73.73.73h1.33c.4,0,.73-.33.73-.73s-.33-.73-.73-.73h0ZM9.3,4.37h3.38c.4,0,.73-.33.73-.73s-.33-.73-.73-.73h-3.38c-.4,0-.73.33-.73.73s.33.73.73.73h0ZM5.05,14.72h18.12c.4,0,.73-.33.73-.73s-.33-.73-.73-.73H5.05c-.4,0-.73.33-.73.73s.33.73.73.73h0ZM10.8,17.57c1.28,0,2.32,1.04,2.32,2.32s-1.04,2.32-2.32,2.32-2.32-1.04-2.32-2.32,1.04-2.32,2.32-2.32h0ZM28.04,17.57c1.28,0,2.32,1.04,2.32,2.32s-1.04,2.32-2.32,2.32-2.32-1.04-2.32-2.32,1.04-2.32,2.32-2.32h0ZM25.45,10.02c0,.4.33.73.73.73h5.23c.4,0,.73-.33.73-.73,0-.18-.06-.34-.17-.47l-2.71-3.21c-.15-.18-.38-.27-.6-.26h-2.49c-.4-.01-.73.31-.73.71v3.23Z"/>
  </g>
</svg>