<?xml version="1.0" encoding="UTF-8"?>
<svg id="Layer_2" data-name="Layer 2" xmlns="http://www.w3.org/2000/svg" viewBox="0 0 25.32 25.32">
  <defs>
    <style>
      .cls-1 {
        fill: #fff;
        fill-rule: evenodd;
      }
    </style>
  </defs>
  <g id="Layer_1-2" data-name="Layer 1">
    <path class="cls-1" d="M12.66,3.76c.61-1.05,1.25-1.87,2.02-2.49,1.06-.85,2.32-1.27,3.97-1.27,1.84,0,3.51.75,4.71,1.95s1.95,2.87,1.95,4.71c0,3.03-2.58,5.31-5.4,7.79-3.12,2.76-6.56,5.79-6.6,10.2,0,.37-.3.66-.67.66-.18,0-.35-.08-.46-.19h0C6.1,19.03,0,12.94,0,6.66c0-1.84.75-3.51,1.95-4.71C3.16.75,4.83,0,6.66,0c2.92,0,4.55,1.25,6,3.76Z"/>
  </g>
</svg>