<?xml version="1.0" encoding="UTF-8"?>
<svg id="Layer_2" data-name="Layer 2" xmlns="http://www.w3.org/2000/svg" viewBox="0 0 28.66 27.51">
  <defs>
    <style>
      .cls-1 {
        fill: #fff;
        fill-rule: evenodd;
      }
    </style>
  </defs>
  <g id="Layer_1-2" data-name="Layer 1">
    <path class="cls-1" d="M27.49,12.69v14.03c0,.43-.35.78-.78.78h-15.56c-.43,0-.78-.35-.78-.78v-10.9h-5.24v10.9c0,.43-.35.78-.78.78h-2.21c-.43,0-.78-.35-.78-.78v-13.91l.44.3c.26.19.62.2.9,0l2.58-1.78,2.57,1.77c.26.19.62.2.9,0l2.58-1.78,2.57,1.77c.26.19.62.2.9,0l2.58-1.78,2.57,1.77c.26.19.62.2.9,0l2.58-1.78,2.57,1.77c.26.19.62.2.9,0l.63-.43h0ZM7.57,0l-1.47,7.6v2.43s2.18,1.5,2.18,1.5l2.31-1.59v-2.37s0-.06,0-.09l.47-7.47h-3.48ZM4.54,9.94v-2.36c-.01-.07,0-.13,0-.2L5.98,0h-3.48L0,7.49v2.5l2.24,1.55,2.31-1.59h0ZM12.62,0l-.47,7.56v2.47s2.18,1.5,2.18,1.5l2.31-1.59v-2.38s-.44-7.56-.44-7.56h-3.57ZM17.76,0l.45,7.47s0,.06,0,.09v2.46s2.17,1.5,2.17,1.5l2.31-1.59v-2.34s-1.47-7.6-1.47-7.6h-3.45ZM22.81,0l1.43,7.37c.01.07.02.14.01.2v2.45s2.17,1.5,2.17,1.5l2.24-1.55v-2.46l-3.07-7.52h-2.78ZM23.15,16.2h-7.38v4.36h7.38v-4.36Z"/>
  </g>
</svg>