<?xml version="1.0" encoding="UTF-8"?>
<svg id="Layer_2" data-name="Layer 2" xmlns="http://www.w3.org/2000/svg" viewBox="0 0 27.34 26.07">
  <defs>
    <style>
      .cls-1 {
        fill: #fff;
        fill-rule: evenodd;
      }
    </style>
  </defs>
  <g id="Layer_1-2" data-name="Layer 1">
    <path class="cls-1" d="M14.26.37l3.69,7.29-4.2,4.41-4.27-4.59L13.08.37c.17-.33.56-.46.89-.29.13.07.23.17.29.29h0ZM19.19,8.28l-4.38,4.6,6.37,3.64,5.97-5.94c.1-.1.17-.22.19-.37.06-.36-.19-.7-.55-.76l-7.59-1.18h0ZM21.2,18.07l1.17,7.23c.06.36-.19.7-.55.76-.15.02-.3,0-.43-.08l-6.98-3.58v-8.22l6.79,3.89h0ZM13.08,22.33l-7.14,3.66c-.33.17-.73.04-.89-.29-.07-.13-.09-.27-.06-.41l1.16-7.21,6.94-3.91v8.16h0ZM6.18,16.54l6.5-3.67-4.31-4.63-7.78,1.21c-.15.02-.29.08-.4.19-.26.26-.26.68,0,.94l5.99,5.95Z"/>
  </g>
</svg>