<?xml version="1.0" encoding="UTF-8"?>
<svg id="Layer_2" data-name="Layer 2" xmlns="http://www.w3.org/2000/svg" viewBox="0 0 26.31 23.61">
  <defs>
    <style>
      .cls-1 {
        fill: #fff;
        fill-rule: evenodd;
      }
    </style>
  </defs>
  <g id="Layer_1-2" data-name="Layer 1">
    <path class="cls-1" d="M13.82,6.1v3.54c1.2.15,2.28.7,3.1,1.52.96.96,1.56,2.3,1.56,3.77,0,.66-.12,1.3-.34,1.89l2.81,1.62c.4-.44.92-.75,1.48-.9.76-.2,1.6-.12,2.34.31h0c.74.43,1.24,1.11,1.44,1.87.2.76.12,1.6-.31,2.34h0c-.43.74-1.11,1.24-1.87,1.44-.76.2-1.6.12-2.34-.31-.74-.43-1.24-1.11-1.44-1.87-.15-.56-.14-1.16.04-1.73l-2.77-1.6c-.18.25-.37.49-.59.7-.96.96-2.3,1.56-3.77,1.56s-2.8-.6-3.77-1.56c-.22-.22-.41-.45-.59-.7l-2.77,1.6c.18.57.19,1.17.04,1.73-.2.76-.7,1.45-1.44,1.87l-.16.09h-.01c-.7.35-1.47.41-2.17.22-.73-.2-1.39-.66-1.82-1.35h0s-.05-.09-.05-.09c-.43-.74-.51-1.58-.31-2.34.2-.73.66-1.39,1.35-1.82h0s.08-.05.08-.05c.74-.43,1.58-.51,2.34-.31.56.15,1.08.46,1.48.9l2.81-1.62c-.22-.59-.35-1.22-.35-1.89,0-1.47.6-2.8,1.56-3.77.82-.82,1.9-1.37,3.1-1.52v-3.55c-.58-.13-1.11-.42-1.52-.83h0c-.56-.56-.9-1.33-.9-2.18s.35-1.63.9-2.18h0c.56-.56,1.33-.9,2.18-.9s1.62.35,2.18.9h0c.56.56.9,1.33.9,2.18s-.35,1.62-.9,2.18c-.41.41-.93.7-1.52.83Z"/>
  </g>
</svg>