<?xml version="1.0" encoding="UTF-8"?>
<svg id="Layer_2" data-name="Layer 2" xmlns="http://www.w3.org/2000/svg" viewBox="0 0 78.04 78.04">
  <g id="Layer_1-2" data-name="Layer 1">
    <path d="M57.42,78.04c-2.24,0-4.42-.88-6.05-2.51l-11.8-11.8c-.65-.65-1.54-.97-2.45-.88l-17.75,1.71c-1.61.15-3.19-.41-4.33-1.55-1.14-1.14-1.71-2.72-1.55-4.33l1.71-17.75c.09-.91-.23-1.8-.88-2.45L2.51,26.68h0C.27,24.44-.55,21.16.37,18.13c.92-3.03,3.42-5.29,6.53-5.91L67.82.16c2.81-.56,5.69.32,7.72,2.34s2.9,4.91,2.34,7.72l-12.06,60.92c-.62,3.11-2.88,5.61-5.91,6.53-.82.25-1.66.37-2.5.37ZM37.42,57.84c2.13,0,4.17.84,5.69,2.36l11.8,11.8c.95.95,2.27,1.28,3.55.89,1.28-.39,2.2-1.4,2.46-2.71l12.06-60.92c.23-1.19-.12-2.36-.97-3.21-.85-.85-2.02-1.21-3.21-.98L7.87,17.13c-1.31.26-2.33,1.18-2.72,2.46s-.06,2.61.89,3.55l11.8,11.8c1.71,1.71,2.55,4.06,2.32,6.47l-1.71,17.75c-.01.15.05.26.11.32.06.06.17.12.32.11l17.75-1.71c.26-.03.52-.04.78-.04Z"/>
  </g>
</svg>