<?xml version="1.0" encoding="UTF-8"?>
<svg id="Layer_2" data-name="Layer 2" xmlns="http://www.w3.org/2000/svg" viewBox="0 0 76.67 58.9">
  <g id="Layer_1-2" data-name="Layer 1">
    <g>
      <path d="M20.24,58.9c-1.01,0-2.02-.17-3-.51-2.29-.8-4.12-2.44-5.17-4.62L1.63,32.2c-1.06-2.06-1.63-4.47-1.63-6.9,0-4.17,1.62-8.08,4.57-11,2.93-2.93,6.83-4.55,10.98-4.55h37.09c1.38,0,2.5,1.12,2.5,2.5v26.1c0,1.38-1.12,2.5-2.5,2.5h-26.67l2.43,5.01c1.07,2.19,1.21,4.67.41,6.96-.8,2.29-2.44,4.12-4.62,5.17-1.25.61-2.6.91-3.95.91ZM15.55,14.75c-2.81,0-5.46,1.1-7.45,3.09-2,1.98-3.09,4.62-3.09,7.45,0,1.64.38,3.26,1.11,4.67l10.47,21.63c.47.98,1.29,1.71,2.31,2.07,1.03.36,2.14.29,3.13-.18.98-.47,1.72-1.29,2.07-2.31.36-1.03.29-2.14-.18-3.13l-4.17-8.6c-.38-.78-.33-1.69.13-2.42.46-.73,1.26-1.17,2.12-1.17h28.16V14.75H15.55Z"/>
      <path d="M52.63,50.6c-1.38,0-2.5-1.12-2.5-2.5V2.5c0-1.38,1.12-2.5,2.5-2.5s2.5,1.12,2.5,2.5v45.6c0,1.38-1.12,2.5-2.5,2.5Z"/>
      <path d="M74.17,27.8h-10.41c-1.38,0-2.5-1.12-2.5-2.5s1.12-2.5,2.5-2.5h10.41c1.38,0,2.5,1.12,2.5,2.5s-1.12,2.5-2.5,2.5Z"/>
      <path d="M63.76,17.61c-.81,0-1.6-.39-2.08-1.12-.76-1.15-.45-2.7.7-3.47l7.36-4.89c1.15-.76,2.7-.45,3.47.7.76,1.15.45,2.7-.7,3.47l-7.36,4.89c-.42.28-.91.42-1.38.42Z"/>
      <path d="M71.12,42.88c-.48,0-.96-.13-1.38-.42l-7.36-4.89c-1.15-.76-1.46-2.32-.7-3.47.76-1.15,2.32-1.46,3.47-.7l7.36,4.89c1.15.76,1.46,2.32.7,3.47-.48.72-1.28,1.12-2.08,1.12Z"/>
      <path d="M21.98,40.85H7.19c-1.38,0-2.5-1.12-2.5-2.5s1.12-2.5,2.5-2.5h14.79c1.38,0,2.5,1.12,2.5,2.5s-1.12,2.5-2.5,2.5Z"/>
    </g>
  </g>
</svg>