<?xml version="1.0" encoding="UTF-8"?>
<svg id="Layer_2" data-name="Layer 2" xmlns="http://www.w3.org/2000/svg" viewBox="0 0 71.12 73.75">
  <g id="Layer_1-2" data-name="Layer 1">
    <g>
      <path d="M34.3,73.75H14.25c-7.99,0-14.25-4.73-14.25-10.76v-8.96c0-6.03,6.26-10.76,14.25-10.76h26.04c2.81,0,5.29,1.44,6.74,3.62l9.96-7c3.9-2.74,9.26-1.95,12.2,1.8,1.52,1.93,2.18,4.43,1.82,6.85-.36,2.45-1.68,4.58-3.71,6.01l-23.27,16.34c-2.64,1.85-6.1,2.87-9.74,2.87ZM14.25,48.27c-5.01,0-9.25,2.64-9.25,5.76v8.96c0,3.12,4.24,5.76,9.25,5.76h20.05c2.59,0,5.09-.72,6.87-1.96l23.27-16.34c.89-.63,1.47-1.57,1.63-2.65.16-1.09-.13-2.16-.81-3.03-1.3-1.66-3.67-2-5.39-.79l-11.51,8.09c-.36,4.14-3.84,7.4-8.07,7.4h-17.39c-1.38,0-2.5-1.12-2.5-2.5s1.12-2.5,2.5-2.5h17.39c1.71,0,3.1-1.39,3.1-3.1s-1.39-3.1-3.1-3.1H14.25Z"/>
      <g>
        <path d="M32.4,28.42c-6.57,0-12.73-2.72-17.36-7.65C10.45,15.88,7.92,9.39,7.92,2.5c0-1.38,1.12-2.5,2.5-2.5,13.5,0,24.48,11.63,24.48,25.92,0,1.38-1.12,2.5-2.5,2.5h0ZM13.08,5.19c1.12,9.33,7.99,16.75,16.66,18.03-1.12-9.33-7.99-16.75-16.66-18.03Z"/>
        <path d="M32.4,28.42c-1.38,0-2.5-1.12-2.5-2.5C29.9,11.63,40.88,0,54.38,0c1.38,0,2.5,1.12,2.5,2.5,0,14.29-10.98,25.92-24.48,25.92ZM51.72,5.19c-8.67,1.28-15.54,8.7-16.66,18.03,4.17-.61,8.02-2.64,11.06-5.88,3.11-3.32,5.06-7.56,5.6-12.15Z"/>
        <path d="M32.4,36.22c-1.38,0-2.5-1.12-2.5-2.5v-7.81c0-1.38,1.12-2.5,2.5-2.5s2.5,1.12,2.5,2.5v7.81c0,1.38-1.12,2.5-2.5,2.5Z"/>
      </g>
    </g>
  </g>
</svg>