<?xml version="1.0" encoding="UTF-8"?>
<svg id="Layer_2" data-name="Layer 2" xmlns="http://www.w3.org/2000/svg" viewBox="0 0 27.67 27.67">
  <defs>
    <style>
      .cls-1 {
        fill: #fff;
        fill-rule: evenodd;
      }
    </style>
  </defs>
  <g id="Layer_1-2" data-name="Layer 1">
    <path class="cls-1" d="M3.34,3.34C5.57,1.11,8.49,0,11.41,0s5.84,1.11,8.07,3.34,3.34,5.15,3.34,8.07c0,2.12-.59,4.25-1.77,6.11l5.89,5.89h0c.49.49.73,1.13.73,1.77s-.24,1.28-.73,1.77-1.13.73-1.77.73-1.28-.24-1.76-.73h0l-5.89-5.89c-1.86,1.18-3.98,1.77-6.11,1.77-2.92,0-5.84-1.11-8.07-3.34S0,14.33,0,11.41,1.11,5.57,3.34,3.34h0ZM12.18,2.42c-.21-.02-.39.05-.54.19-.15.14-.23.32-.23.53v.03c0,.37.28.68.65.71,1.83.16,3.47.96,4.69,2.19,1.22,1.22,2.03,2.86,2.19,4.69.03.37.34.65.71.65h.03c.21,0,.39-.08.53-.23.14-.15.2-.34.19-.54-.19-2.18-1.15-4.14-2.61-5.6-1.46-1.46-3.42-2.42-5.6-2.61h0ZM10.68,6v4.68h-4.68c-.4,0-.73.33-.73.73s.33.73.73.73h4.68v4.68c0,.4.33.73.73.73s.73-.33.73-.73v-4.68h4.68c.4,0,.73-.33.73-.73s-.33-.73-.73-.73h-4.68v-4.68c0-.4-.33-.73-.73-.73s-.73.33-.73.73Z"/>
  </g>
</svg>