<?xml version="1.0" encoding="UTF-8"?>
<svg id="Layer_2" data-name="Layer 2" xmlns="http://www.w3.org/2000/svg" viewBox="0 0 81.96 64.01">
  <g id="Layer_1-2" data-name="Layer 1">
    <g>
      <path d="M40.12,64.01c-4,0-7.99-1.52-11.03-4.56l-15.89-15.89H2.5c-1.38,0-2.5-1.12-2.5-2.5s1.12-2.5,2.5-2.5h11.74c.66,0,1.3.26,1.77.73l16.62,16.62c4.13,4.13,10.86,4.13,14.99,0l11.92-11.92-13.98-13.98c-.98-.98-.98-2.56,0-3.54.98-.98,2.56-.98,3.54,0l15.75,15.75c.47.47.73,1.1.73,1.77s-.26,1.3-.73,1.77l-13.69,13.69c-3.04,3.04-7.04,4.56-11.03,4.56Z"/>
      <path d="M79.46,46.49h-16.39c-.66,0-1.3-.26-1.77-.73l-17.26-17.26-2.5,2.5c-2.04,2.04-4.76,3.17-7.65,3.17s-5.6-1.12-7.65-3.17c-4.21-4.21-4.21-11.07,0-15.29l12.12-12.12c2.31-2.32,5.39-3.59,8.67-3.59s6.35,1.28,8.67,3.59l4.12,4.12h19.64c1.38,0,2.5,1.12,2.5,2.5v33.78c0,1.38-1.12,2.5-2.5,2.5ZM64.11,41.49h12.86V12.71h-18.17c-.66,0-1.3-.26-1.77-.73l-4.85-4.85c-1.37-1.37-3.19-2.13-5.13-2.13s-3.76.75-5.13,2.13l-12.12,12.12c-2.27,2.27-2.27,5.95,0,8.22,1.1,1.1,2.56,1.7,4.11,1.7s3.01-.61,4.11-1.7l4.27-4.27c.98-.98,2.56-.98,3.54,0l18.3,18.29Z"/>
      <path d="M39.77,31.73c-.64,0-1.28-.24-1.77-.73-.98-.98-.98-2.56,0-3.54l10.39-10.39c.98-.98,2.56-.98,3.54,0,.98.98.98,2.56,0,3.54l-10.39,10.39c-.49.49-1.13.73-1.77.73Z"/>
      <path d="M35.26,12.73c-.67,0-1.33-.27-1.82-.79l-4.09-4.36c-1.67-1.78-4.39-2.13-6.46-.83l-4.85,3.05c-2.02,1.27-4.35,1.94-6.74,1.94H2.5c-1.38,0-2.5-1.12-2.5-2.5s1.12-2.5,2.5-2.5h8.81c1.44,0,2.85-.41,4.07-1.18l4.85-3.05c4.09-2.57,9.46-1.88,12.77,1.64l4.09,4.36c.94,1.01.89,2.59-.11,3.53-.48.45-1.1.68-1.71.68Z"/>
      <path d="M49.38,60.18c-.64,0-1.28-.24-1.77-.73-.98-.98-.98-2.56,0-3.54l9.05-9.05c3.46-3.46,8.06-5.37,12.96-5.37h9.84c1.38,0,2.5,1.12,2.5,2.5s-1.12,2.5-2.5,2.5h-9.84c-3.56,0-6.9,1.39-9.42,3.9l-9.05,9.05c-.49.49-1.13.73-1.77.73Z"/>
    </g>
  </g>
</svg>