<?xml version="1.0" encoding="UTF-8"?>
<svg id="Layer_2" data-name="Layer 2" xmlns="http://www.w3.org/2000/svg" viewBox="0 0 27.42 22.8">
  <defs>
    <style>
      .cls-1 {
        fill: #fff;
        fill-rule: evenodd;
      }
    </style>
  </defs>
  <g id="Layer_1-2" data-name="Layer 1">
    <path class="cls-1" d="M3.03,11.8l10.49-6.46c.22-.14.5-.13.7,0h0s10.22,6.49,10.22,6.49c.2.13.31.34.31.56v9.73c0,.37-.3.67-.67.67h-7.03c-.1,0-.19-.02-.28-.06v-7.49c0-.41-.34-.75-.75-.75h-4.64c-.41,0-.75.34-.75.75v7.49c-.09.04-.18.06-.28.06H3.33c-.37,0-.67-.3-.67-.67v-9.73c0-.26.15-.49.37-.6h0ZM.34,8.53c-.2.11-.34.33-.34.58v2.57h0c0,.12.03.24.1.35.19.31.6.41.91.22l12.77-7.92,12.57,7.9c.11.08.25.13.4.13.37,0,.67-.3.67-.67v-2.57h0c0-.22-.11-.43-.3-.56L14.18.13c-.21-.16-.51-.17-.75-.02L.34,8.53Z"/>
  </g>
</svg>