<?xml version="1.0" encoding="UTF-8"?>
<svg id="Layer_2" data-name="Layer 2" xmlns="http://www.w3.org/2000/svg" viewBox="0 0 58.96 71.61">
  <g id="Layer_1-2" data-name="Layer 1">
    <g>
      <path d="M27.4,45.66c-.64,0-1.28-.24-1.77-.73l-8.25-8.25c-.98-.98-.98-2.56,0-3.54.98-.98,2.56-.98,3.54,0l6.48,6.48,14.72-14.72c.98-.98,2.56-.98,3.54,0,.98.98.98,2.56,0,3.54l-16.49,16.49c-.49.49-1.13.73-1.77.73Z"/>
      <path d="M29.48,71.61c-1.85,0-3.7-.53-5.31-1.6h0C20.13,67.33,0,53.57,0,44.88V13.46C0,8.78,15.62,0,29.48,0s29.48,8.78,29.48,13.46v31.43c0,8.68-20.13,22.45-24.17,25.12-1.61,1.07-3.46,1.6-5.31,1.6ZM5,13.98v30.91c0,3.16,8.2,11.86,21.93,20.95,0,0,0,0,0,0,1.55,1.02,3.55,1.03,5.1,0,13.73-9.09,21.93-17.79,21.93-20.95V13.98c-1.73-2.09-12.25-8.98-24.48-8.98S6.73,11.89,5,13.98Z"/>
    </g>
  </g>
</svg>