<?xml version="1.0" encoding="UTF-8"?>
<svg id="Layer_2" data-name="Layer 2" xmlns="http://www.w3.org/2000/svg" viewBox="0 0 23.21 24.83">
  <defs>
    <style>
      .cls-1 {
        fill: #fff;
        fill-rule: evenodd;
      }
    </style>
  </defs>
  <g id="Layer_1-2" data-name="Layer 1">
    <path class="cls-1" d="M10,0c1.68,0,3.19.68,4.29,1.78,1.1,1.1,1.78,2.62,1.78,4.29s-.68,3.19-1.78,4.29c-.5.5-1.08.91-1.73,1.21,1.11.3,2.15.78,3.08,1.42-.08.06-.16.13-.23.22-.1.12-.17.25-.22.4h0c-.04.12-.07.24-.08.36,0,.03,0,.06,0,.09v1.39h-4.77c-.37,0-.7.15-.94.39h0c-.24.24-.39.58-.39.94v4.66c0,.37.15.7.39.94.24.24.57.39.94.39h4.77v1.39c0,.16.03.32.08.47H2.2c-.61,0-1.16-.25-1.56-.65-.4-.4-.65-.95-.65-1.56v-1.2c0-2.75,1.12-5.25,2.94-7.06,1.23-1.23,2.77-2.14,4.49-2.6-.64-.3-1.23-.71-1.73-1.21-1.1-1.1-1.78-2.62-1.78-4.29s.68-3.19,1.78-4.29c1.1-1.1,2.62-1.78,4.29-1.78h0ZM15.77,22.1v2.06c0,.37.3.67.67.67.17,0,.33-.07.45-.17l6.08-5.04c.28-.23.32-.65.09-.94-.03-.04-.06-.07-.1-.1l-6.1-5.05c-.28-.23-.7-.19-.94.09-.1.12-.15.27-.15.42v2.06h-5.44c-.37,0-.67.3-.67.67v4.66c0,.37.3.67.67.67h5.44Z"/>
  </g>
</svg>