<?xml version="1.0" encoding="UTF-8"?>
<svg id="Layer_2" data-name="Layer 2" xmlns="http://www.w3.org/2000/svg" viewBox="0 0 20.76 26.16">
  <defs>
    <style>
      .cls-1 {
        fill: #fff;
        fill-rule: evenodd;
      }
    </style>
  </defs>
  <g id="Layer_1-2" data-name="Layer 1">
    <path class="cls-1" d="M10,0c1.68,0,3.19.68,4.29,1.78,1.1,1.1,1.78,2.62,1.78,4.29s-.68,3.19-1.78,4.29c-.5.5-1.08.91-1.73,1.21.37.1.72.22,1.07.35-.06.05-.11.09-.16.14-.31.29-.58.64-.77,1.03-.18.38-.29.78-.29,1.19,0,.21.03.43.07.64.05.21.12.42.21.61.04.08.08.15.12.23h-1.61c-.37,0-.7.15-.94.39h0c-.24.24-.39.58-.39.94v3.28c0,.36.14.69.37.93-.23.24-.37.57-.37.92v2.42H2.2c-.61,0-1.16-.25-1.56-.65-.4-.4-.65-.95-.65-1.56v-1.2c0-2.75,1.12-5.25,2.94-7.06,1.23-1.23,2.77-2.14,4.49-2.6-.64-.3-1.23-.71-1.73-1.21-1.1-1.1-1.78-2.62-1.78-4.29s.68-3.19,1.78-4.29c1.1-1.1,2.62-1.78,4.29-1.78h0ZM11.21,16.42c-.37,0-.67.3-.67.67v3.28c0,.37.3.67.67.67h.87c.23,0,.44-.05.64-.13l.05-.02c.21-.1.4-.25.56-.43.09-.11.2-.2.32-.25.12-.06.26-.09.4-.09.22,0,.44.13.61.33.21.24.34.56.34.86s-.13.62-.34.86c-.17.19-.38.33-.61.33-.15,0-.28-.03-.4-.09-.12-.06-.23-.15-.32-.25-.16-.19-.34-.33-.56-.43-.21-.1-.45-.15-.69-.15h-.87c-.37,0-.67.3-.67.67v3.28c0,.37.3.67.67.67h6.59c.81,0,1.55-.33,2.09-.87h0c.54-.54.87-1.28.87-2.09v-6.11c0-.37-.3-.67-.67-.67h-2.77v-.17c0-.05,0-.09.02-.13.01-.03.04-.06.08-.1.24-.2.44-.45.59-.74l.02-.04c.14-.3.22-.62.22-.97,0-.63-.32-1.26-.79-1.73h0c-.47-.47-1.1-.79-1.73-.79s-1.29.32-1.79.79c-.5.47-.85,1.1-.85,1.73,0,.34.08.67.22.97.14.31.35.57.61.79.03.03.06.05.07.08v.02s.03.07.03.12v.17h-2.81Z"/>
  </g>
</svg>