<?xml version="1.0" encoding="UTF-8"?>
<svg id="Layer_2" data-name="Layer 2" xmlns="http://www.w3.org/2000/svg" viewBox="0 0 74.02 59.23">
  <g id="Layer_1-2" data-name="Layer 1">
    <g>
      <path d="M55.47,38.89c-.16,0-.33-.02-.49-.05-.16-.03-.32-.08-.47-.14-.15-.06-.29-.14-.43-.23-.14-.09-.26-.2-.38-.31-.46-.46-.73-1.11-.73-1.77,0-.16.02-.33.05-.49.03-.16.08-.32.14-.47.06-.15.14-.29.23-.43.09-.13.2-.26.31-.38.12-.11.24-.22.38-.31.14-.09.28-.17.43-.23.15-.06.31-.11.47-.14.81-.16,1.67.1,2.26.68.46.47.73,1.11.73,1.77s-.27,1.3-.73,1.77c-.47.46-1.11.73-1.77.73Z"/>
      <path d="M64.74,59.23H9.28c-5.12,0-9.28-4.16-9.28-9.28V9.28C0,4.16,4.16,0,9.28,0h62.24c1.38,0,2.5,1.12,2.5,2.5s-1.12,2.5-2.5,2.5H9.28c-2.36,0-4.28,1.92-4.28,4.28s1.92,4.28,4.28,4.28h55.46c5.12,0,9.28,4.16,9.28,9.28v27.12c0,5.12-4.16,9.28-9.28,9.28ZM5,17.51v32.44c0,2.36,1.92,4.28,4.28,4.28h55.46c2.36,0,4.28-1.92,4.28-4.28v-27.12c0-2.36-1.92-4.28-4.28-4.28H9.28c-1.54,0-3-.38-4.28-1.05Z"/>
    </g>
  </g>
</svg>