<?xml version="1.0" encoding="UTF-8"?>
<svg id="Layer_2" data-name="Layer 2" xmlns="http://www.w3.org/2000/svg" viewBox="0 0 18.01 26.26">
  <defs>
    <style>
      .cls-1 {
        fill: #fff;
        fill-rule: evenodd;
      }
    </style>
  </defs>
  <g id="Layer_1-2" data-name="Layer 1">
    <path class="cls-1" d="M4.5,0h10.42c.4,0,.73.33.73.73,0,.16-.05.31-.14.44l-5.77,9.53h3.22c.4,0,.73.33.73.73,0,.18-.07.35-.18.48l-.34.41c-.55-.14-1.13-.21-1.72-.21-.98,0-1.92.2-2.79.55-.89.37-1.7.91-2.37,1.58h0c-.67.67-1.21,1.48-1.58,2.37-.36.86-.55,1.8-.55,2.79s.2,1.92.55,2.79c.04.1.08.2.13.29l-2.87,3.51c-.25.31-.71.36-1.03.1-.26-.21-.33-.56-.21-.84l3.97-10.41H.73c-.4,0-.73-.33-.73-.73,0-.08.01-.17.04-.24L3.8.53C3.89.21,4.18,0,4.5,0h0ZM11.44,12.84c-1.81,0-3.45.74-4.64,1.92-1.19,1.19-1.92,2.83-1.92,4.64s.74,3.45,1.92,4.64,2.83,1.92,4.64,1.92,3.45-.74,4.64-1.92c1.19-1.19,1.92-2.83,1.92-4.64s-.73-3.45-1.92-4.64c-1.19-1.19-2.83-1.92-4.64-1.92h0ZM13.92,20.65c0-.5-.16-.9-.48-1.2-.32-.3-.83-.54-1.53-.72v-1.76c.44.09.86.29,1.26.59l.52-.87c-.26-.19-.53-.35-.81-.46-.28-.12-.59-.2-.93-.24v-.55h-.8v.54c-.29.02-.55.08-.79.18-.24.09-.44.22-.62.37-.17.15-.3.34-.4.55-.09.21-.14.44-.14.68,0,.26.04.49.12.69.08.2.2.38.37.53.16.15.37.28.62.39.25.11.54.21.88.3v1.81c-.3-.05-.58-.14-.84-.27-.26-.13-.52-.31-.79-.52l-.59.84c.31.25.66.46,1.02.61s.75.26,1.16.31v.93h.8v-.92c.3-.02.56-.08.8-.18s.45-.22.62-.37c.17-.15.31-.34.4-.55.1-.21.14-.44.14-.69h0ZM11.18,18.54v-1.63c-.3.02-.52.11-.67.25-.15.14-.22.32-.22.52s.06.36.18.49c.12.13.35.25.71.36h0ZM12.83,20.72c0-.1-.01-.2-.04-.28-.03-.08-.08-.16-.15-.23-.07-.07-.17-.14-.28-.19-.12-.06-.27-.12-.44-.17v1.67c.3-.02.52-.11.68-.25.16-.14.24-.32.24-.55Z"/>
  </g>
</svg>