<?xml version="1.0" encoding="UTF-8"?>
<svg id="Layer_2" data-name="Layer 2" xmlns="http://www.w3.org/2000/svg" viewBox="0 0 22.73 25.67">
  <defs>
    <style>
      .cls-1 {
        fill: #fff;
        fill-rule: evenodd;
      }
    </style>
  </defs>
  <g id="Layer_1-2" data-name="Layer 1">
    <path class="cls-1" d="M10,0c1.68,0,3.19.68,4.29,1.78,1.1,1.1,1.78,2.62,1.78,4.29s-.68,3.19-1.78,4.29c-.5.5-1.08.91-1.73,1.21,1.4.37,2.68,1.04,3.77,1.94-1.52.15-2.89.83-3.91,1.85-.59.59-1.07,1.3-1.39,2.09-.31.76-.49,1.59-.49,2.46s.17,1.7.49,2.46c.33.79.81,1.5,1.39,2.09.06.06.12.12.18.18H2.2c-.61,0-1.16-.25-1.56-.65-.4-.4-.65-.95-.65-1.56v-1.2c0-2.75,1.12-5.25,2.94-7.06,1.23-1.23,2.77-2.14,4.49-2.6-.64-.3-1.23-.71-1.73-1.21-1.1-1.1-1.78-2.62-1.78-4.29s.68-3.19,1.78-4.29c1.1-1.1,2.62-1.78,4.29-1.78h0ZM16.97,14.14c-1.59,0-3.03.65-4.08,1.69s-1.69,2.48-1.69,4.08.65,3.03,1.69,4.08c1.04,1.04,2.48,1.69,4.08,1.69s3.03-.65,4.08-1.69c1.04-1.04,1.69-2.48,1.69-4.08s-.65-3.03-1.69-4.08c-1.04-1.04-2.48-1.69-4.08-1.69h0ZM16.28,17.08l.02,2.17-2.17.02c-.37,0-.66.3-.66.67,0,.37.3.66.67.66l2.17-.02.02,2.17c0,.37.3.66.67.66s.66-.3.66-.67l-.02-2.17,2.17-.02c.37,0,.66-.3.66-.67,0-.37-.3-.66-.67-.66l-2.17.02-.02-2.17c0-.37-.3-.66-.67-.66-.37,0-.66.3-.66.67Z"/>
  </g>
</svg>