<?xml version="1.0" encoding="UTF-8"?>
<svg id="Layer_2" data-name="Layer 2" xmlns="http://www.w3.org/2000/svg" viewBox="0 0 21.77 24.88">
  <defs>
    <style>
      .cls-1 {
        fill: #fff;
        fill-rule: evenodd;
      }
    </style>
  </defs>
  <g id="Layer_1-2" data-name="Layer 1">
    <path class="cls-1" d="M2.41,4.5v19.71c0,.37.3.67.67.67h15.62c.37,0,.67-.3.67-.67V4.5h1.74c.37,0,.67-.3.67-.67s-.3-.67-.67-.67h-5.54V.67c0-.37-.3-.67-.67-.67H6.87c-.37,0-.67.3-.67.67v2.5H.67c-.37,0-.67.3-.67.67s.3.67.67.67h1.74ZM6.89,20.34c0,.37-.3.67-.67.67s-.67-.3-.67-.67V7.7c0-.37.3-.67.67-.67s.67.3.67.67v12.64h0ZM9.96,20.34c0,.37-.3.67-.67.67s-.67-.3-.67-.67V7.7c0-.37.3-.67.67-.67s.67.3.67.67v12.64h0ZM12.49,21.01c-.37,0-.67-.3-.67-.67V7.7c0-.37.3-.67.67-.67s.67.3.67.67v12.64c0,.37-.3.67-.67.67h0ZM15.55,21.01c-.37,0-.67-.3-.67-.67V7.7c0-.37.3-.67.67-.67s.67.3.67.67v12.64c0,.37-.3.67-.67.67h0ZM14.24,3.17h-6.7v-1.83h6.7v1.83Z"/>
  </g>
</svg>