<?xml version="1.0" encoding="UTF-8"?>
<svg id="Layer_2" data-name="Layer 2" xmlns="http://www.w3.org/2000/svg" viewBox="0 0 160.54 160.54">
  <defs>
    <style>
      .cls-1 {
        fill: #080a16;
      }
    </style>
  </defs>
  <g id="Calque_1" data-name="Calque 1">
    <g>
      <path id="heart" class="cls-1" d="M6.59,116.28h0c-8.79-8.79-8.79-23.05,0-31.84l4.16-4.16-4.16-4.16c-8.79-8.79-8.79-23.05,0-31.84h0c8.79-8.79,23.05-8.79,31.84,0l4.16,4.16,31.84,31.84-31.84,31.84-4.16,4.16c-8.79,8.79-23.05,8.79-31.84,0Z"/>
      <path id="heart-2" data-name="heart" class="cls-1" d="M153.94,116.28h0c8.79-8.79,8.79-23.05,0-31.84l-4.16-4.16,4.16-4.16c8.79-8.79,8.79-23.05,0-31.84h0c-8.79-8.79-23.05-8.79-31.84,0l-4.16,4.16-31.84,31.84,31.84,31.84,4.16,4.16c8.79,8.79,23.05,8.79,31.84,0Z"/>
      <path id="heart-3" data-name="heart" class="cls-1" d="M44.26,6.59h0c8.79-8.79,23.05-8.79,31.84,0l4.16,4.16,4.16-4.16c8.79-8.79,23.05-8.79,31.84,0h0c8.79,8.79,8.79,23.05,0,31.84l-4.16,4.16-31.84,31.84-31.84-31.84-4.16-4.16c-8.79-8.79-8.79-23.05,0-31.84Z"/>
      <path id="heart-4" data-name="heart" class="cls-1" d="M44.26,153.94h0c8.79,8.79,23.05,8.79,31.84,0l4.16-4.16,4.16,4.16c8.79,8.79,23.05,8.79,31.84,0h0c8.79-8.79,8.79-23.05,0-31.84l-4.16-4.16-31.84-31.84-31.84,31.84-4.16,4.16c-8.79,8.79-8.79,23.05,0,31.84Z"/>
    </g>
  </g>
</svg>