<?xml version="1.0" encoding="UTF-8"?>
<svg id="Layer_2" data-name="Layer 2" xmlns="http://www.w3.org/2000/svg" viewBox="0 0 21.88 26.96">
  <defs>
    <style>
      .cls-1 {
        fill: #fff;
        fill-rule: evenodd;
      }
    </style>
  </defs>
  <g id="Layer_1-2" data-name="Layer 1">
    <path class="cls-1" d="M10.94,0c1.83,0,3.49.74,4.7,1.95s1.95,2.86,1.95,4.7-.74,3.49-1.95,4.7c-.54.54-1.18.99-1.89,1.32,1.89.5,3.58,1.5,4.92,2.85,1.98,1.98,3.21,4.72,3.21,7.73v1.31c0,.66-.27,1.27-.71,1.7-.44.44-1.04.71-1.7.71H2.41c-.66,0-1.27-.27-1.7-.71-.44-.44-.71-1.04-.71-1.7v-1.31c0-3.01,1.23-5.75,3.21-7.73,1.34-1.34,3.03-2.34,4.92-2.85-.71-.33-1.34-.78-1.89-1.32-1.2-1.2-1.95-2.86-1.95-4.7s.74-3.49,1.95-4.7,2.86-1.95,4.7-1.95Z"/>
  </g>
</svg>