<?xml version="1.0" encoding="UTF-8"?>
<svg id="Layer_2" data-name="Layer 2" xmlns="http://www.w3.org/2000/svg" viewBox="0 0 25.46 19.67">
  <defs>
    <style>
      .cls-1 {
        fill: #fff;
        fill-rule: evenodd;
      }
    </style>
  </defs>
  <g id="Layer_1-2" data-name="Layer 1">
    <path class="cls-1" d="M0,11.06V3.27c0-.97.59-1.81,1.55-2.41.86-.53,2.04-.86,3.33-.86h15.69c1.29,0,2.47.33,3.33.86.96.59,1.55,1.44,1.55,2.41v7.8c0,.97-.59,1.81-1.55,2.41-.86.53-2.04.86-3.33.86h-5.66l-1.54,4.87c-.11.35-.48.55-.84.43-.22-.07-.37-.23-.43-.43l-1.54-4.87h-5.66c-1.29,0-2.47-.33-3.33-.86-.96-.59-1.55-1.44-1.55-2.41Z"/>
  </g>
</svg>