<?xml version="1.0" encoding="UTF-8"?>
<svg id="Layer_2" data-name="Layer 2" xmlns="http://www.w3.org/2000/svg" viewBox="0 0 24.95 26.7">
  <defs>
    <style>
      .cls-1 {
        fill: #fff;
        fill-rule: evenodd;
      }
    </style>
  </defs>
  <g id="Layer_1-2" data-name="Layer 1">
    <path class="cls-1" d="M.73,1.74h3.43v2.82c0,.13.02.25.05.36-.12.48,0,1.02.38,1.4.57.57,1.49.57,2.06,0,.38-.38.51-.91.38-1.4.03-.12.05-.24.05-.36V1.74h10.8v2.82c0,.13.02.25.05.36-.12.48,0,1.02.38,1.4.57.57,1.49.57,2.06,0,.38-.38.51-.91.38-1.4.03-.12.05-.24.05-.36V1.74h3.43c.4,0,.73.33.73.73v23.5c0,.4-.33.73-.73.73H.73c-.4,0-.73-.33-.73-.73V2.47c0-.4.33-.73.73-.73h0ZM4.89.73v3.84c0,.4.33.73.73.73s.73-.33.73-.73V.73c0-.4-.33-.73-.73-.73s-.73.33-.73.73h0ZM18.6.73v3.84c0,.4.33.73.73.73s.73-.33.73-.73V.73c0-.4-.33-.73-.73-.73s-.73.33-.73.73h0ZM9.33,15.3h-.25c-.29,0-.5.06-.64.18-.15.12-.22.27-.22.47s.06.35.18.46c.12.11.29.16.51.16.05,0,.16,0,.33-.02.17-.02.29-.02.37-.02.46,0,.82.13,1.07.4.26.27.38.64.38,1.11,0,.32-.08.6-.23.84-.15.24-.34.42-.57.55-.23.12-.47.18-.72.18-.43,0-.77-.14-1.01-.41-.24-.27-.46-.69-.67-1.25-.03-.09-.1-.17-.2-.24-.11-.07-.21-.1-.33-.1-.23,0-.41.07-.56.21-.15.14-.23.33-.23.56,0,.18.06.41.19.69.13.28.31.55.56.8.25.26.56.48.94.65.38.17.81.26,1.3.26s.91-.08,1.3-.23c.39-.15.73-.36,1.02-.63.29-.27.5-.57.65-.91.15-.34.22-.69.22-1.06,0-.3-.05-.59-.16-.85-.11-.26-.27-.5-.49-.72-.22-.22-.48-.41-.79-.58.33-.27.58-.55.75-.84.17-.29.26-.63.26-1.03,0-.3-.06-.59-.18-.86-.12-.27-.3-.5-.54-.7-.24-.2-.52-.36-.84-.46-.32-.11-.68-.16-1.07-.16-.44,0-.85.06-1.21.19-.36.13-.66.29-.91.5-.24.21-.43.43-.56.66-.13.23-.19.45-.19.66s.07.39.2.52c.13.13.28.2.44.2.14,0,.26-.02.36-.07.11-.05.18-.12.22-.2.07-.16.14-.32.23-.5.08-.18.17-.32.26-.43.09-.11.22-.2.38-.27.16-.07.36-.1.61-.1.36,0,.65.11.86.34.21.22.32.49.32.8,0,.41-.13.72-.4.94-.27.22-.59.33-.96.33h0ZM16.77,19.81c0,.32.07.56.22.73.15.16.35.25.59.25.55,0,.83-.4.83-1.21v-6.9c0-.29-.06-.52-.19-.68-.13-.16-.3-.25-.51-.25-.19,0-.32.04-.39.11-.07.07-.22.26-.44.58-.23.31-.48.6-.78.85-.29.25-.68.49-1.17.72-.33.15-.55.28-.68.37-.13.1-.19.25-.19.45,0,.18.06.33.2.47.13.13.28.2.45.2.35,0,1.04-.39,2.06-1.17v5.48h0ZM2.78,7.96c-.4,0-.73.33-.73.73v15.15c0,.4.33.73.73.73h19.4c.4,0,.73-.33.73-.73v-15.15c0-.4-.33-.73-.73-.73H2.78Z"/>
  </g>
</svg>