<?xml version="1.0" encoding="UTF-8"?>
<svg id="Layer_2" data-name="Layer 2" xmlns="http://www.w3.org/2000/svg" viewBox="0 0 29.62 14.67">
  <defs>
    <style>
      .cls-1 {
        fill: #fff;
        fill-rule: evenodd;
      }
    </style>
  </defs>
  <g id="Layer_1-2" data-name="Layer 1">
    <path class="cls-1" d="M20.95.89c.16-.11.34-.21.52-.3.57-.29,1.22-.45,1.9-.45,1.06,0,2.03.39,2.77,1.03.64.55,1.12,1.29,1.34,2.14.54.17,1.03.48,1.39.9.47.53.75,1.23.75,1.98,0,.83-.34,1.59-.89,2.13-.39.39-.89.67-1.45.8-.06-.36-.15-.72-.28-1.05-.23-.61-.57-1.17-.99-1.65-.36-.42-.79-.78-1.26-1.06-.35-.21-.73-.39-1.13-.52-.18-.66-.45-1.27-.79-1.84-.42-.69-.94-1.31-1.56-1.84-.11-.09-.21-.18-.33-.26h0ZM9.74,3.62c-1.52,0-2.9.62-3.9,1.62-1,1-1.62,2.38-1.62,3.9s.61,2.83,1.58,3.85c.95,1,2.27,1.65,3.73,1.66.46,0,2.04,0,3.93.01,3.38,0,7.75,0,8.49,0h0c1.3,0,2.49-.52,3.35-1.38.86-.85,1.39-2.03,1.39-3.34,0-1.18-.44-2.27-1.17-3.1-.63-.72-1.48-1.25-2.44-1.49-.33-1.47-1.13-2.76-2.23-3.71-1.2-1.03-2.76-1.66-4.47-1.66-1.38,0-2.67.41-3.75,1.11-.97.63-1.77,1.51-2.32,2.53h-.02c-.19-.02-.37-.03-.54-.03h0ZM3.48,3.63h0c.05,0,.11,0,.17,0,.33-.57.8-1.05,1.35-1.41.67-.44,1.47-.69,2.32-.69s1.66.26,2.33.69c.18.12.34.24.5.38-.08.11-.15.22-.22.34-.08,0-.14,0-.19,0h0c-.83,0-1.63.17-2.36.47-.76.32-1.44.78-2.01,1.35s-1.03,1.25-1.35,2.01c-.3.73-.47,1.53-.47,2.36,0,.49.06.98.18,1.45h-.37c-.92-.01-1.76-.42-2.36-1.05-.61-.64-.99-1.51-.99-2.43s.39-1.83,1.02-2.46h0c.63-.63,1.5-1.03,2.46-1.03Z"/>
  </g>
</svg>