<?xml version="1.0" encoding="UTF-8"?>
<svg id="Layer_2" data-name="Layer 2" xmlns="http://www.w3.org/2000/svg" viewBox="0 0 72.99 68.99">
  <g id="Layer_1-2" data-name="Layer 1">
    <g>
      <path d="M62.09,68.99H10.91c-6.01,0-10.91-4.89-10.91-10.91V23.12c0-3.46,2.82-6.28,6.28-6.28h60.43c3.46,0,6.28,2.82,6.28,6.28v34.96c0,6.01-4.89,10.91-10.91,10.91ZM6.28,21.84c-.71,0-1.28.57-1.28,1.28v34.96c0,3.26,2.65,5.91,5.91,5.91h51.18c3.26,0,5.91-2.65,5.91-5.91V23.12c0-.71-.57-1.28-1.28-1.28H6.28Z"/>
      <path d="M50.57,30.47c-1.38,0-2.5-1.12-2.5-2.5v-11.4c0-6.38-5.19-11.57-11.57-11.57s-11.57,5.19-11.57,11.57v11.4c0,1.38-1.12,2.5-2.5,2.5s-2.5-1.12-2.5-2.5v-11.4C19.92,7.43,27.36,0,36.5,0s16.57,7.43,16.57,16.57v11.4c0,1.38-1.12,2.5-2.5,2.5Z"/>
    </g>
  </g>
</svg>