<?xml version="1.0" encoding="UTF-8"?>
<svg id="Layer_2" data-name="Layer 2" xmlns="http://www.w3.org/2000/svg" viewBox="0 0 33.93 13.93">
  <defs>
    <style>
      .cls-1 {
        fill: #fff;
        fill-rule: evenodd;
      }
    </style>
  </defs>
  <g id="Layer_1-2" data-name="Layer 1">
    <path class="cls-1" d="M33.93,6.71c-4.23-2.79-9.2-4.54-14.56-4.88l-.58-.93c-.35-.57-.93-.9-1.61-.9h-6.59l1.81,2.2c-1.51.26-2.97.63-4.39,1.1.83,1.05,1.29,2.2,1.29,3.42s-.46,2.37-1.29,3.42c1.53.51,3.12.9,4.76,1.16l-2.18,2.64h6.59c.68,0,1.26-.32,1.61-.9l.9-1.46c5.24-.39,10.1-2.12,14.24-4.86h0ZM6.82,4.58c.8.65,1.25,1.37,1.25,2.13s-.45,1.48-1.25,2.13c-2.43-.52-4.72-1.24-6.82-2.13,2.1-.89,4.38-1.61,6.82-2.13Z"/>
  </g>
</svg>