<?xml version="1.0" encoding="UTF-8"?>
<svg id="Layer_2" data-name="Layer 2" xmlns="http://www.w3.org/2000/svg" viewBox="0 0 160.62 160.62">
  <defs>
    <style>
      .cls-1 {
        fill: #080a16;
      }
    </style>
  </defs>
  <g id="Calque_1" data-name="Calque 1">
    <path class="cls-1" d="M160.62,80.31c0,8.51-10.78,15.13-13.16,22.81-2.47,7.96,2.44,19.92-2.17,26.54-4.66,6.69-17.09,5.48-23.49,10.35-6.34,4.82-9.05,17.58-16.66,20.16-7.34,2.49-16.68-6.08-24.82-6.08s-17.48,8.57-24.82,6.08c-7.61-2.58-10.33-15.34-16.66-20.16-6.4-4.87-18.83-3.66-23.49-10.35-4.61-6.62.3-18.58-2.17-26.54-2.38-7.68-13.16-14.3-13.16-22.81s10.78-15.13,13.16-22.81c2.47-7.96-2.44-19.92,2.17-26.54,4.66-6.69,17.09-5.48,23.49-10.35C45.16,15.79,47.87,3.04,55.49.45c7.34-2.49,16.68,6.08,24.82,6.08S97.79-2.04,105.13.45c7.61,2.58,10.33,15.34,16.66,20.16,6.4,4.87,18.83,3.66,23.49,10.35,4.61,6.62-.3,18.58,2.17,26.54s13.16,14.3,13.16,22.81Z"/>
  </g>
</svg>