<?xml version="1.0" encoding="UTF-8"?>
<svg id="Layer_2" data-name="Layer 2" xmlns="http://www.w3.org/2000/svg" viewBox="0 0 24.49 24.49">
  <defs>
    <style>
      .cls-1 {
        fill: #fff;
        fill-rule: evenodd;
      }
    </style>
  </defs>
  <g id="Layer_1-2" data-name="Layer 1">
    <path class="cls-1" d="M12.24,0c3.38,0,6.44,1.37,8.66,3.59,2.22,2.22,3.59,5.28,3.59,8.66s-1.37,6.44-3.59,8.66c-2.22,2.22-5.28,3.59-8.66,3.59s-6.44-1.37-8.66-3.59C1.37,18.69,0,15.63,0,12.24S1.37,5.8,3.59,3.59,8.86,0,12.24,0h0ZM20.04,12.36c.5.32.95.74,1.3,1.23.47.66.75,1.45.75,2.3v1.08c.69-1.43,1.07-3.03,1.07-4.72,0-3.01-1.22-5.74-3.2-7.72-1.97-1.97-4.7-3.2-7.72-3.2s-5.74,1.22-7.72,3.2c-1.97,1.97-3.2,4.7-3.2,7.72,0,2.09.59,4.04,1.6,5.7v-1.72c0-1.12.39-2.17,1.01-3.04.51-.71,1.18-1.3,1.93-1.72-.38-.32-.7-.7-.95-1.13-.36-.63-.57-1.36-.57-2.13,0-1.17.48-2.24,1.25-3.01.77-.77,1.83-1.25,3.01-1.25s2.24.48,3.01,1.25c.77.77,1.25,1.83,1.25,3.01,0,.75-.2,1.45-.54,2.07-.25.45-.59.86-.99,1.19.77.43,1.45,1.05,1.97,1.77.61.86.98,1.88.98,2.98v2.57c0,.48-.2.91-.51,1.23h0c-.32.32-.75.51-1.23.51h-7.38c1.91,1.63,4.39,2.62,7.1,2.62,3.01,0,5.74-1.22,7.72-3.2.23-.23.45-.47.66-.73h-4.84c-.37,0-.67-.3-.67-.67v-2.34c0-.43-.05-.85-.15-1.24-.1-.41-.26-.81-.46-1.2-.15-.28-.07-.61.15-.81.21-.21.45-.4.69-.56l.08-.05c-.22-.21-.4-.45-.56-.71-.28-.49-.45-1.05-.45-1.66,0-.91.37-1.74.97-2.34.6-.6,1.42-.97,2.34-.97s1.74.37,2.34.97c.6.6.97,1.42.97,2.34,0,.58-.15,1.13-.42,1.61-.16.28-.36.54-.59.76Z"/>
  </g>
</svg>