<?xml version="1.0" encoding="UTF-8"?>
<svg id="Layer_2" data-name="Layer 2" xmlns="http://www.w3.org/2000/svg" viewBox="0 0 32.34 24.35">
  <defs>
    <style>
      .cls-1 {
        fill: #fff;
        fill-rule: evenodd;
      }
    </style>
  </defs>
  <g id="Layer_1-2" data-name="Layer 1">
    <path class="cls-1" d="M6.47,10.69h6.73c.18,0,.34.06.47.17l3.45,2.53h4.59c.71,0,1.35.28,1.81.74.46.46.75,1.1.76,1.81v1c0,.4-.32.73-.72.73h0s-5.95,0-5.95,0v.8l6.32.03,3.15-3.39c.24-.26.53-.46.84-.59.31-.13.65-.2,1.01-.2l2.67-.03c.4,0,.73.32.74.72,0,.2-.08.38-.2.51l-8.22,8.53c-.15.16-.35.23-.55.22l-8.42.09c-.12,0-.24-.03-.35-.08h0s-8.13-4.32-8.13-4.32v-9.26h0ZM15.46,0c-.21,0-.37.17-.37.38v10.68c0,.21.17.38.37.38h16.38c.21,0,.37-.17.37-.38V.38c0-.21-.17-.38-.37-.38H15.46ZM16.04,3.05c-.21,0-.37-.17-.37-.38s.17-.38.37-.38h15.14c.21,0,.37.17.37.38s-.17.38-.37.38h-15.14ZM16.95,5.34c-.21,0-.37-.17-.37-.38s.17-.38.37-.38h2.23c.21,0,.37.17.37.38s-.17.38-.37.38h-2.23ZM16.95,7.63c-.21,0-.37-.17-.37-.38s.17-.38.37-.38h6.66c.21,0,.37.17.37.38s-.17.38-.37.38h-6.66ZM27.01,4.58h3.35c.21,0,.37.17.37.38v2.29c0,.21-.17.38-.37.38h-3.35c-.21,0-.37-.17-.37-.38v-2.29c0-.21.17-.38.37-.38h0ZM6.17,21.04c-.13.18-.34.29-.58.29H.73c-.4,0-.73-.33-.73-.73v-11.05c0-.4.33-.73.73-.73h4.86c.24,0,.45.11.58.29v11.92Z"/>
  </g>
</svg>