<?xml version="1.0" encoding="UTF-8"?>
<svg id="Layer_2" data-name="Layer 2" xmlns="http://www.w3.org/2000/svg" viewBox="0 0 25.68 20">
  <defs>
    <style>
      .cls-1 {
        fill: #fff;
        fill-rule: evenodd;
      }
    </style>
  </defs>
  <g id="Layer_1-2" data-name="Layer 1">
    <path class="cls-1" d="M21.27,15.57c2.15-2.15,3.9-4.98,4.33-8.26.22-1.7-.11-3.19-.79-4.38-.59-1.03-1.45-1.82-2.44-2.32-.99-.5-2.12-.71-3.25-.57-1.22.15-2.44.72-3.49,1.77-.3.3-.56.65-.83,1.01-.55.74-1.13,1.52-1.97,1.55-.84-.04-1.42-.82-1.97-1.55-.27-.36-.53-.71-.83-1.01C8.99.76,7.77.2,6.55.04c-1.13-.14-2.26.07-3.25.57-.99.5-1.85,1.29-2.44,2.32C.18,4.12-.15,5.6.07,7.31c.45,3.45,2.18,6.46,4.39,8.67,2.51,2.51,5.67,4.02,8.38,4.02,2.18,0,5.66-1.65,8.44-4.43Z"/>
  </g>
</svg>