<?xml version="1.0" encoding="UTF-8"?>
<svg id="Layer_2" data-name="Layer 2" xmlns="http://www.w3.org/2000/svg" viewBox="0 0 28 29.72">
  <defs>
    <style>
      .cls-1 {
        fill: #fff;
        fill-rule: evenodd;
      }
    </style>
  </defs>
  <g id="Layer_1-2" data-name="Layer 1">
    <path class="cls-1" d="M5.33,8.76h0c.16,0,.34,0,.52.03h0c.53-.98,1.3-1.82,2.22-2.43,1.04-.68,2.28-1.07,3.61-1.07,1.65,0,3.15.6,4.31,1.6,1.06.91,1.83,2.15,2.15,3.56.92.23,1.73.74,2.34,1.43.7.8,1.13,1.85,1.13,2.99,0,1.26-.51,2.4-1.34,3.22-.83.83-1.98,1.34-3.23,1.34h0c-.71,0-4.9,0-8.14,0-1.82,0-3.34,0-3.79,0-1.41-.02-2.68-.64-3.6-1.61-.94-.98-1.52-2.32-1.52-3.72,0-1.47.6-2.8,1.57-3.77.97-.97,2.3-1.57,3.77-1.57h0ZM5.22,21.5c0-.37.3-.67.67-.67s.67.3.67.67v.83l.72-.41c.32-.18.72-.08.91.24.18.32.08.72-.24.91l-.72.42.72.42c.32.18.43.59.24.91-.18.32-.59.43-.91.24l-.72-.41v.83c0,.37-.3.67-.67.67s-.67-.3-.67-.67v-.83l-.72.41c-.32.18-.72.08-.91-.24-.18-.32-.08-.72.24-.91l.72-.42-.72-.42c-.32-.18-.43-.59-.24-.91.18-.32.59-.43.91-.24l.72.41v-.83h0ZM12.85,24.67c-.32.18-.72.08-.91-.24-.18-.32-.08-.72.24-.91l.72-.42-.72-.42c-.32-.18-.43-.59-.24-.91.18-.32.59-.43.91-.24l.72.41v-.83c0-.37.3-.67.67-.67s.67.3.67.67v.83l.72-.41c.32-.18.72-.08.91.24.18.32.08.72-.24.91l-.72.42.72.42c.32.18.43.59.24.91-.18.32-.59.43-.91.24l-.72-.41v.83c0,.37-.3.67-.67.67s-.67-.3-.67-.67v-.83l-.72.41h0ZM8.9,28.64l.72-.41v.83c0,.37.3.67.67.67s.67-.3.67-.67v-.83l.72.41c.32.18.72.08.91-.24.18-.32.08-.72-.24-.91l-.72-.42.72-.42c.32-.18.43-.59.24-.91-.18-.32-.59-.43-.91-.24l-.72.41v-.83c0-.37-.3-.67-.67-.67s-.67.3-.67.67v.83l-.72-.41c-.32-.18-.72-.08-.91.24-.18.32-.08.72.24.91l.72.42-.72.42c-.32.18-.43.59-.24.91.18.32.59.43.91.24h0ZM15.35,2.4c-.64.74-1.14,1.61-1.45,2.57.11.03.22.07.33.11.82.3,1.57.75,2.22,1.31.59.51,1.1,1.11,1.5,1.77.33.54.59,1.13.76,1.76.38.13.74.29,1.07.5.46.28.87.63,1.22,1.03.41.47.74,1.01.96,1.6.21.54.32,1.13.33,1.73,1.03-.17,1.99-.54,2.84-1.09,1.21-.77,2.19-1.88,2.8-3.19.16-.33.01-.73-.32-.88-.17-.08-.35-.08-.51-.02-.25.06-.5.12-.76.15-.26.04-.54.05-.83.05-1.72,0-3.28-.7-4.4-1.82-1.13-1.13-1.82-2.68-1.82-4.4,0-.47.05-.92.14-1.35.1-.44.24-.87.44-1.28.16-.33.01-.73-.32-.89-.17-.08-.35-.08-.51-.02-1.45.41-2.73,1.24-3.69,2.36Z"/>
  </g>
</svg>