<?xml version="1.0" encoding="UTF-8"?>
<svg id="Layer_2" data-name="Layer 2" xmlns="http://www.w3.org/2000/svg" viewBox="0 0 29.64 20.44">
  <defs>
    <style>
      .cls-1 {
        fill: #fff;
        fill-rule: evenodd;
      }
    </style>
  </defs>
  <g id="Layer_1-2" data-name="Layer 1">
    <path class="cls-1" d="M1.41,0h24.59l-6.57,4.31h-.52c-.4,0-.77.16-1.03.43-.23.23-.38.53-.42.86l-3.8,2.49L1.41,0h0ZM25.7,5.77c0-.4-.33-.73-.73-.73h-6.06c-.4,0-.73.33-.73.73v6.24h-3.21c-.19,0-.37.07-.52.21-.28.28-.28.75,0,1.03l6.97,6.97c.29.28.75.28,1.03,0l6.97-6.97c.13-.13.22-.32.22-.52,0-.4-.33-.73-.73-.73h-3.21v-6.24h0ZM27.33.87l-5.24,3.44h2.89c.4,0,.76.16,1.03.43h0c.26.26.43.63.43,1.03v5.51h.89V.87h0ZM18.09,17.92l-4.15-4.15c-.28-.28-.43-.66-.43-1.03s.14-.75.43-1.03c.14-.14.3-.24.48-.31.18-.07.37-.11.56-.11h0s2.48,0,2.48,0v-3.94l-3.39,2.22c-.24.15-.55.16-.8,0L0,.81v16.25l9.41-7.32c.32-.25.78-.19,1.02.13.25.32.19.78-.13,1.02L1.27,17.92h16.82ZM27.33,16.39v.8c0,.4-.33.73-.73.73h-.8l1.53-1.53Z"/>
  </g>
</svg>