<?xml version="1.0" encoding="UTF-8"?>
<svg id="Layer_2" data-name="Layer 2" xmlns="http://www.w3.org/2000/svg" viewBox="0 0 66.91 74.84">
  <g id="Layer_1-2" data-name="Layer 1">
    <g>
      <g>
        <path d="M52.35,53.21c-.64,0-1.28-.24-1.77-.73-.98-.98-.98-2.56,0-3.54l11.18-11.18c.19-.19.19-.5,0-.7l-11.18-11.18c-.98-.98-.98-2.56,0-3.54.98-.98,2.56-.98,3.54,0l11.18,11.18c2.14,2.14,2.14,5.63,0,7.77l-11.18,11.18c-.49.49-1.13.73-1.77.73Z"/>
        <path d="M64.41,39.92H16.52c-1.38,0-2.5-1.12-2.5-2.5s1.12-2.5,2.5-2.5h47.89c1.38,0,2.5,1.12,2.5,2.5s-1.12,2.5-2.5,2.5Z"/>
      </g>
      <path d="M20.58,74.84h-9.36c-6.18,0-11.21-5.03-11.21-11.21V11.21C0,5.03,5.03,0,11.21,0h9.36c1.38,0,2.5,1.12,2.5,2.5s-1.12,2.5-2.5,2.5h-9.36c-3.43,0-6.21,2.79-6.21,6.21v52.41c0,3.43,2.79,6.21,6.21,6.21h9.36c1.38,0,2.5,1.12,2.5,2.5s-1.12,2.5-2.5,2.5Z"/>
    </g>
  </g>
</svg>