<?xml version="1.0" encoding="UTF-8"?>
<svg id="Layer_2" data-name="Layer 2" xmlns="http://www.w3.org/2000/svg" viewBox="0 0 28.74 15.65">
  <defs>
    <style>
      .cls-1 {
        fill: #fff;
        fill-rule: evenodd;
      }
    </style>
  </defs>
  <g id="Layer_1-2" data-name="Layer 1">
    <path class="cls-1" d="M28.1,11.39l-6.72,4.06c-.42.26-.91.26-1.34.02-.43-.24-.68-.67-.68-1.16v-2.13c0-.73-.6-1.33-1.33-1.33H0v-.6c0-.73.6-1.33,1.33-1.33h26.08c.61,0,1.12.39,1.28.97.16.58-.07,1.18-.59,1.5h0ZM28.1,4.26L21.38.2c-.42-.26-.91-.26-1.34-.02-.43.24-.68.67-.68,1.16v2.13c0,.73-.6,1.33-1.33,1.33H0v.6c0,.73.6,1.33,1.33,1.33h26.08c.61,0,1.12-.39,1.28-.97.16-.58-.07-1.18-.59-1.5Z"/>
  </g>
</svg>