<?xml version="1.0" encoding="UTF-8"?>
<svg id="Layer_2" data-name="Layer 2" xmlns="http://www.w3.org/2000/svg" viewBox="0 0 19.99 22.5">
  <defs>
    <style>
      .cls-1 {
        fill: #fff;
        fill-rule: evenodd;
      }
    </style>
  </defs>
  <g id="Layer_1-2" data-name="Layer 1">
    <path class="cls-1" d="M10,0c1.68,0,3.19.68,4.29,1.78,1.1,1.1,1.78,2.62,1.78,4.29s-.68,3.19-1.78,4.29c-1.1,1.1-2.62,1.78-4.29,1.78s-3.19-.68-4.29-1.78-1.78-2.62-1.78-4.29.68-3.19,1.78-4.29c1.1-1.1,2.62-1.78,4.29-1.78h0ZM15.89,11.04c-.26-.22-.65-.2-.89.04-.65.65-1.43,1.18-2.3,1.53-.83.34-1.74.53-2.7.53s-1.87-.19-2.7-.53c-.86-.36-1.64-.88-2.3-1.53-.23-.23-.59-.26-.86-.07-1.27.93-2.32,2.15-3.04,3.56-.7,1.36-1.09,2.9-1.09,4.52v1.2c0,.61.25,1.16.65,1.56.4.4.95.65,1.56.65h15.59c.61,0,1.16-.25,1.56-.65.4-.4.65-.95.65-1.56v-1.2c0-1.62-.39-3.16-1.09-4.52-.72-1.4-1.75-2.61-3.01-3.53Z"/>
  </g>
</svg>