<?xml version="1.0" encoding="UTF-8"?>
<svg id="Layer_2" data-name="Layer 2" xmlns="http://www.w3.org/2000/svg" viewBox="0 0 29.33 27.9">
  <defs>
    <style>
      .cls-1 {
        fill: #fff;
        fill-rule: evenodd;
      }
    </style>
  </defs>
  <g id="Layer_1-2" data-name="Layer 1">
    <path class="cls-1" d="M7.1,4.79h0c.22,0,.45.01.69.04l.17.02c.71-1.38,1.77-2.56,3.06-3.4,1.39-.91,3.06-1.44,4.85-1.44,2.21,0,4.23.81,5.78,2.14,1.46,1.25,2.51,2.97,2.91,4.93,1.28.28,2.42.97,3.25,1.93.93,1.06,1.5,2.45,1.5,3.96,0,1.67-.68,3.17-1.78,4.27-1.1,1.09-2.62,1.77-4.28,1.77h0c-.98,0-6.77,0-11.24,0-2.5,0-4.6,0-5.21-.01-1.87-.02-3.55-.86-4.78-2.14-1.25-1.31-2.03-3.09-2.03-4.95,0-1.95.8-3.73,2.09-5.02,1.29-1.29,3.06-2.09,5.02-2.09h0ZM22.68,23.39c-.07-.36.17-.71.53-.77.36-.07.71.17.77.53.06.32.23.6.47.8.23.19.54.31.87.31.38,0,.71-.15.96-.4.24-.25.4-.58.4-.96s-.15-.72-.39-.96h0c-.24-.25-.58-.4-.96-.4h-.06s-7.97,0-7.97,0c-.37,0-.66-.3-.66-.66s.3-.66.66-.66h7.97s.06,0,.06,0c.74,0,1.41.3,1.9.79h0c.49.49.79,1.16.79,1.9s-.3,1.41-.79,1.9h0c-.49.49-1.16.79-1.9.79-.65,0-1.25-.23-1.72-.62-.47-.39-.81-.95-.93-1.58h0ZM15.62,25.24c0,.73.3,1.4.78,1.88h0c.48.48,1.15.78,1.88.78s1.4-.3,1.88-.78h0c.48-.49.78-1.15.78-1.88s-.3-1.4-.78-1.88h0c-.48-.48-1.15-.78-1.88-.78h-.06s-4.07,0-4.07,0c-.37,0-.66.3-.66.66s.3.66.66.66h4.07s.06,0,.06,0c.37,0,.7.15.94.39h0c.24.24.39.57.39.94s-.15.7-.39.94h0c-.24.24-.57.39-.94.39s-.7-.15-.94-.39h0c-.24-.24-.39-.57-.39-.94s-.3-.67-.67-.67-.67.3-.67.67h0ZM8.56,24.76c-.32.18-.72.08-.91-.24-.18-.32-.08-.72.24-.91l.91-.53-.91-.53c-.32-.18-.43-.59-.24-.91.18-.32.59-.43.91-.24l.91.53v-1.05c0-.37.3-.67.67-.67s.67.3.67.67v1.05l.91-.53c.32-.18.72-.08.91.24.18.32.08.72-.24.91l-.91.53.91.53c.32.18.43.59.24.91-.18.32-.59.43-.91.24l-.91-.53v1.05c0,.37-.3.67-.67.67s-.67-.3-.67-.67v-1.05l-.91.53h0ZM2.32,24.76c-.32.18-.72.08-.91-.24-.18-.32-.08-.72.24-.91l.91-.53-.91-.53c-.32-.18-.43-.59-.24-.91.18-.32.59-.43.91-.24l.91.53v-1.05c0-.37.3-.67.67-.67s.67.3.67.67v1.05l.91-.53c.32-.18.72-.08.91.24.18.32.08.72-.24.91l-.91.53.91.53c.32.18.43.59.24.91-.18.32-.59.43-.91.24l-.91-.53v1.05c0,.37-.3.67-.67.67s-.67-.3-.67-.67v-1.05l-.91.53Z"/>
  </g>
</svg>