<?xml version="1.0" encoding="UTF-8"?>
<svg id="Layer_2" data-name="Layer 2" xmlns="http://www.w3.org/2000/svg" viewBox="0 0 25.02 28.68">
  <defs>
    <style>
      .cls-1 {
        fill: #fff;
        fill-rule: evenodd;
      }
    </style>
  </defs>
  <g id="Layer_1-2" data-name="Layer 1">
    <path class="cls-1" d="M13.15.48l2.49,8.45,8.56-2.07c.36-.09.72.13.8.49.05.23-.01.46-.16.61l-6.08,6.38,6.08,6.38c.25.27.24.69-.02.94-.18.17-.42.22-.64.16l-8.54-2.07-2.49,8.45c-.1.35-.47.55-.83.45-.23-.07-.39-.24-.45-.45l-2.49-8.45L.82,21.83c-.36.09-.72-.13-.8-.49-.05-.23.01-.46.16-.61l6.08-6.38L.18,7.96c-.25-.27-.24-.69.02-.94.18-.17.42-.22.64-.16l8.54,2.07L11.87.48c.1-.35.47-.55.83-.45.23.07.39.24.45.45Z"/>
  </g>
</svg>