<?xml version="1.0" encoding="UTF-8"?>
<svg id="Layer_2" data-name="Layer 2" xmlns="http://www.w3.org/2000/svg" viewBox="0 0 26.3 24.77">
  <defs>
    <style>
      .cls-1 {
        fill: #fff;
        fill-rule: evenodd;
      }
    </style>
  </defs>
  <g id="Layer_1-2" data-name="Layer 1">
    <path class="cls-1" d="M15.26,4.86c-2.27,0-4.54.87-6.28,2.6-.92.92-1.6,1.99-2.03,3.14-.16.44-.29.88-.39,1.33-.09.44-.15.89-.17,1.33,0,.16-.01.32-.01.47,0,.29.01.57.04.86.19,1.98,1.04,3.9,2.56,5.42,1.73,1.73,4.01,2.6,6.28,2.6s4.54-.87,6.28-2.6c1.73-1.73,2.6-4.01,2.6-6.28s-.87-4.54-2.6-6.28c-1.73-1.73-4-2.6-6.28-2.6h0ZM6.96,10.6h1.2c.37,0,.67.3.67.67s-.3.67-.67.67H3.27c-.37,0-.67-.3-.67-.67s.3-.67.67-.67h3.69ZM6.4,13.27h3.68c.37,0,.67.3.67.67s-.3.67-.67.67H.67c-.37,0-.67-.3-.67-.67s.3-.67.67-.67h5.73ZM4.04,17.26c-.37,0-.67-.3-.67-.67s.3-.67.67-.67h1.57c.37,0,.67.3.67.67s-.3.67-.67.67h-1.57ZM8.9,17.26c-.37,0-.67-.3-.67-.67s.3-.67.67-.67h3.17c.37,0,.67.3.67.67s-.3.67-.67.67h-3.17ZM10.53,11.93c-.37,0-.67-.3-.67-.67s.3-.67.67-.67h1.55c.37,0,.67.3.67.67s-.3.67-.67.67h-1.55ZM6.71,9.13c-.17.32-.57.45-.9.28-.32-.17-.45-.57-.28-.9.25-.47.54-.92.86-1.36.32-.43.68-.84,1.07-1.22.54-.53,1.12-1,1.73-1.4l-.93-1.53c-.19-.31-.09-.72.22-.91.31-.19.72-.09.91.22l.94,1.56c1.34-.67,2.79-1.04,4.25-1.14v-.74s-.01-.64-.01-.64h-.76c-.37.02-.67-.28-.67-.64,0-.37.29-.67.66-.67L16.7,0c.37,0,.67.29.67.66,0,.37-.29.67-.66.67h-.79s0,.64,0,.64l.02.77c1.47.09,2.92.46,4.26,1.14l.85-1.55c.18-.32.58-.44.9-.26.32.18.44.58.26.9l-.87,1.58c.6.4,1.17.86,1.71,1.4,2.15,2.15,3.23,4.98,3.23,7.8s-1.08,5.65-3.23,7.8c-2.15,2.15-4.98,3.23-7.8,3.23s-5.65-1.08-7.8-3.23c-.36-.36-.7-.75-1-1.15-.31-.4-.58-.83-.83-1.27-.18-.32-.06-.73.26-.9.32-.18.73-.06.9.26.21.38.46.75.73,1.12.26.35.56.69.88,1.01,1.89,1.89,4.38,2.84,6.86,2.84s4.96-.95,6.86-2.84c1.89-1.89,2.84-4.38,2.84-6.86s-.95-4.96-2.84-6.86c-1.89-1.89-4.36-2.83-6.83-2.83s-4.98.95-6.89,2.83c-.35.34-.66.7-.94,1.07-.28.37-.53.76-.75,1.18h0ZM19.1,14.26h-3.84c-.37,0-.66-.3-.66-.67v-5.5c0-.37.3-.66.67-.66s.66.3.66.66v4.83s3.17,0,3.17,0v-.18h0c0-.12.03-.25.1-.36.2-.31.61-.4.92-.2l1.3.83c.09.05.17.12.23.21.2.31.11.72-.2.92l-1.28.83c-.11.09-.25.14-.4.14-.37,0-.67-.3-.67-.67v-.18Z"/>
  </g>
</svg>