<?xml version="1.0" encoding="UTF-8"?>
<svg id="Layer_2" data-name="Layer 2" xmlns="http://www.w3.org/2000/svg" viewBox="0 0 65.26 47.18">
  <g id="Layer_1-2" data-name="Layer 1">
    <g>
      <path d="M62.76,5H2.5c-1.38,0-2.5-1.12-2.5-2.5S1.12,0,2.5,0h60.26c1.38,0,2.5,1.12,2.5,2.5s-1.12,2.5-2.5,2.5Z"/>
      <path d="M62.76,26.09H2.5c-1.38,0-2.5-1.12-2.5-2.5s1.12-2.5,2.5-2.5h60.26c1.38,0,2.5,1.12,2.5,2.5s-1.12,2.5-2.5,2.5Z"/>
      <path d="M62.76,47.18H2.5c-1.38,0-2.5-1.12-2.5-2.5s1.12-2.5,2.5-2.5h60.26c1.38,0,2.5,1.12,2.5,2.5s-1.12,2.5-2.5,2.5Z"/>
    </g>
  </g>
</svg>