<?xml version="1.0" encoding="UTF-8"?>
<svg id="Layer_2" data-name="Layer 2" xmlns="http://www.w3.org/2000/svg" viewBox="0 0 23.78 23.78">
  <defs>
    <style>
      .cls-1 {
        fill: #fff;
        fill-rule: evenodd;
      }
    </style>
  </defs>
  <g id="Layer_1-2" data-name="Layer 1">
    <path class="cls-1" d="M11.89,0c3.28,0,6.26,1.33,8.41,3.48s3.48,5.12,3.48,8.41-1.33,6.26-3.48,8.41c-2.15,2.15-5.12,3.48-8.41,3.48s-6.26-1.33-8.41-3.48C1.33,18.14,0,15.17,0,11.89S1.33,5.63,3.48,3.48C5.63,1.33,8.61,0,11.89,0h0ZM12.47,4.8c-.06-.12-.16-.23-.29-.29-.33-.17-.73-.03-.89.29l-1.86,3.67-4.04.63c-.15.02-.29.08-.4.19-.26.26-.26.68,0,.94l2.92,2.9-.65,4.06c-.02.13,0,.28.06.41.17.33.57.46.89.29l3.66-1.88,3.64,1.87c.13.07.28.1.43.08.36-.06.61-.4.55-.76l-.65-4.06,2.92-2.9c.1-.1.17-.22.19-.37.06-.36-.19-.7-.55-.76l-4.06-.63-1.86-3.67Z"/>
  </g>
</svg>