<?xml version="1.0" encoding="UTF-8"?>
<svg id="Layer_2" data-name="Layer 2" xmlns="http://www.w3.org/2000/svg" viewBox="0 0 69.35 69.35">
  <g id="Layer_1-2" data-name="Layer 1">
    <g>
      <path d="M50.63,69.35c-8.48,0-16.86-3.3-23.06-9.51l-18.07-18.07C.01,32.3-2.67,17.71,2.82,5.49,4.2,2.41,7.02.38,10.37.05c3.35-.33,6.5,1.1,8.45,3.83l5.04,7.06c1.99,2.79,2.23,6.52.62,9.72-1.94,3.88-1.19,8.55,1.89,11.63l10.67,10.67c3.07,3.07,7.75,3.83,11.63,1.89,3.21-1.61,6.93-1.37,9.72.62l7.07,5.05c2.73,1.95,4.16,5.1,3.83,8.44-.33,3.35-2.36,6.17-5.43,7.56-4.23,1.91-8.75,2.83-13.24,2.83ZM11.3,5c-.14,0-.29,0-.44.02-1.55.15-2.85,1.09-3.48,2.51-4.64,10.35-2.37,22.69,5.65,30.7l18.07,18.07c8.03,8.04,20.37,10.31,30.72,5.65,1.42-.64,2.36-1.94,2.51-3.49.15-1.54-.51-2.99-1.76-3.88h0l-7.07-5.05c-1.28-.91-3.03-1-4.58-.22-5.81,2.91-12.8,1.78-17.4-2.82l-10.67-10.67c-4.6-4.6-5.73-11.59-2.82-17.4.77-1.55.69-3.3-.22-4.58l-5.04-7.06c-.81-1.14-2.08-1.78-3.45-1.78Z"/>
      <path d="M48.35,37.19c-1.38,0-2.5-1.12-2.5-2.5,0-6.17-5.02-11.19-11.19-11.19-1.38,0-2.5-1.12-2.5-2.5s1.12-2.5,2.5-2.5c8.93,0,16.19,7.26,16.19,16.19,0,1.38-1.12,2.5-2.5,2.5Z"/>
      <path d="M61.28,37.19c-1.38,0-2.5-1.12-2.5-2.5,0-13.3-10.82-24.12-24.12-24.12-1.38,0-2.5-1.12-2.5-2.5s1.12-2.5,2.5-2.5c16.05,0,29.12,13.06,29.12,29.12,0,1.38-1.12,2.5-2.5,2.5Z"/>
    </g>
  </g>
</svg>