<?xml version="1.0" encoding="UTF-8"?>
<svg id="Layer_2" data-name="Layer 2" xmlns="http://www.w3.org/2000/svg" viewBox="0 0 23.86 18.2">
  <defs>
    <style>
      .cls-1 {
        fill: #fff;
        fill-rule: evenodd;
      }
    </style>
  </defs>
  <g id="Layer_1-2" data-name="Layer 1">
    <path class="cls-1" d="M23.86,7.83v7.28c0,.92-.56,1.72-1.47,2.28-.81.5-1.92.81-3.14.81H4.61c-1.21,0-2.32-.31-3.14-.81-.91-.56-1.47-1.37-1.47-2.28v-7.28c0-.92.56-1.72,1.47-2.28.81-.5,1.92-.81,3.14-.81h7.86L18.7.13c.29-.22.71-.16.93.14.13.17.16.38.11.58l-1.1,3.89h.62c1.21,0,2.32.31,3.14.81.91.56,1.47,1.37,1.47,2.28Z"/>
  </g>
</svg>