<?xml version="1.0" encoding="UTF-8"?>
<svg id="Layer_2" data-name="Layer 2" xmlns="http://www.w3.org/2000/svg" viewBox="0 0 33.42 22.09">
  <defs>
    <style>
      .cls-1 {
        fill: #fff;
        fill-rule: evenodd;
      }
    </style>
  </defs>
  <g id="Layer_1-2" data-name="Layer 1">
    <path class="cls-1" d="M15.74,0c.61,0,1.1.49,1.1,1.09s-.49,1.09-1.1,1.09-1.1-.49-1.1-1.09.49-1.09,1.1-1.09h0ZM1.1,0c.6,0,1.09.49,1.09,1.09s-.49,1.09-1.09,1.09-1.1-.49-1.1-1.09S.49,0,1.1,0h0ZM17.68,9.95c.6,0,1.1.49,1.1,1.09s-.49,1.09-1.1,1.09-1.09-.49-1.09-1.09.49-1.09,1.09-1.09h0ZM14.36,13.27c.6,0,1.09.49,1.09,1.1s-.49,1.1-1.09,1.1-1.09-.49-1.09-1.1.49-1.1,1.09-1.1h0ZM14.36,9.95c.6,0,1.09.49,1.09,1.09s-.49,1.09-1.09,1.09-1.09-.49-1.09-1.09.49-1.09,1.09-1.09h0ZM14.36,6.63c.6,0,1.09.49,1.09,1.1s-.49,1.1-1.09,1.1-1.09-.49-1.09-1.1.49-1.1,1.09-1.1h0ZM11.04,16.58c.6,0,1.09.49,1.09,1.1s-.49,1.09-1.09,1.09-1.1-.49-1.1-1.09.49-1.1,1.1-1.1h0ZM11.04,13.27c.6,0,1.09.49,1.09,1.1s-.49,1.1-1.09,1.1-1.1-.49-1.1-1.1.49-1.1,1.1-1.1h0ZM11.04,9.95c.6,0,1.09.49,1.09,1.09s-.49,1.09-1.09,1.09-1.1-.49-1.1-1.09.49-1.09,1.1-1.09h0ZM11.04,6.63c.6,0,1.09.49,1.09,1.1s-.49,1.1-1.09,1.1-1.1-.49-1.1-1.1.49-1.1,1.1-1.1h0ZM11.04,3.32c.6,0,1.09.49,1.09,1.1s-.49,1.1-1.09,1.1-1.1-.49-1.1-1.1.49-1.1,1.1-1.1h0ZM7.73,19.9c.61,0,1.1.49,1.1,1.1s-.49,1.1-1.1,1.1-1.09-.49-1.09-1.1.49-1.1,1.09-1.1h0ZM7.73,16.58c.61,0,1.1.49,1.1,1.1s-.49,1.09-1.1,1.09-1.09-.49-1.09-1.09.49-1.1,1.09-1.1h0ZM7.73,13.27c.61,0,1.1.49,1.1,1.1s-.49,1.1-1.1,1.1-1.09-.49-1.09-1.1.49-1.1,1.09-1.1h0ZM7.73,6.63c.61,0,1.1.49,1.1,1.1s-.49,1.1-1.1,1.1-1.09-.49-1.09-1.1.49-1.1,1.09-1.1h0ZM7.73,3.32c.61,0,1.1.49,1.1,1.1s-.49,1.1-1.1,1.1-1.09-.49-1.09-1.1.49-1.1,1.09-1.1h0ZM7.73,0c.61,0,1.1.49,1.1,1.09s-.49,1.09-1.1,1.09-1.09-.49-1.09-1.09.49-1.09,1.09-1.09h0ZM4.41,19.9c.6,0,1.09.49,1.09,1.1s-.49,1.1-1.09,1.1-1.09-.49-1.09-1.1.49-1.1,1.09-1.1h0ZM4.41,16.58c.6,0,1.09.49,1.09,1.1s-.49,1.09-1.09,1.09-1.09-.49-1.09-1.09.49-1.1,1.09-1.1h0ZM4.41,3.32c.6,0,1.09.49,1.09,1.1s-.49,1.1-1.09,1.1-1.09-.49-1.09-1.1.49-1.1,1.09-1.1h0ZM4.41,0c.6,0,1.09.49,1.09,1.09s-.49,1.09-1.09,1.09-1.09-.49-1.09-1.09.49-1.09,1.09-1.09h0ZM1.1,19.9c.6,0,1.09.49,1.09,1.1s-.49,1.1-1.09,1.1-1.1-.49-1.1-1.1.49-1.1,1.1-1.1h0ZM32.32,9.95c.6,0,1.09.49,1.09,1.09s-.49,1.09-1.09,1.09-1.1-.49-1.1-1.09.49-1.09,1.1-1.09h0ZM29.01,13.27c.6,0,1.1.49,1.1,1.1s-.49,1.1-1.1,1.1-1.09-.49-1.09-1.1.49-1.1,1.09-1.1h0ZM29.01,9.95c.6,0,1.1.49,1.1,1.09s-.49,1.09-1.1,1.09-1.09-.49-1.09-1.09.49-1.09,1.09-1.09h0ZM29.01,6.63c.6,0,1.1.49,1.1,1.1s-.49,1.1-1.1,1.1-1.09-.49-1.09-1.1.49-1.1,1.09-1.1h0ZM25.69,16.58c.6,0,1.09.49,1.09,1.1s-.49,1.09-1.09,1.09-1.1-.49-1.1-1.09.49-1.1,1.1-1.1h0ZM25.69,13.27c.6,0,1.09.49,1.09,1.1s-.49,1.1-1.09,1.1-1.1-.49-1.1-1.1.49-1.1,1.1-1.1h0ZM25.69,9.95c.6,0,1.09.49,1.09,1.09s-.49,1.09-1.09,1.09-1.1-.49-1.1-1.09.49-1.09,1.1-1.09h0ZM25.69,6.63c.6,0,1.09.49,1.09,1.1s-.49,1.1-1.09,1.1-1.1-.49-1.1-1.1.49-1.1,1.1-1.1h0ZM25.69,3.32c.6,0,1.09.49,1.09,1.1s-.49,1.1-1.09,1.1-1.1-.49-1.1-1.1.49-1.1,1.1-1.1h0ZM22.37,19.9c.6,0,1.09.49,1.09,1.1s-.49,1.1-1.09,1.1-1.1-.49-1.1-1.1.49-1.1,1.1-1.1h0ZM22.37,16.58c.6,0,1.09.49,1.09,1.1s-.49,1.09-1.09,1.09-1.1-.49-1.1-1.09.49-1.1,1.1-1.1h0ZM22.37,13.27c.6,0,1.09.49,1.09,1.1s-.49,1.1-1.09,1.1-1.1-.49-1.1-1.1.49-1.1,1.1-1.1h0ZM22.37,6.63c.6,0,1.09.49,1.09,1.1s-.49,1.1-1.09,1.1-1.1-.49-1.1-1.1.49-1.1,1.1-1.1h0ZM22.37,3.32c.6,0,1.09.49,1.09,1.1s-.49,1.1-1.09,1.1-1.1-.49-1.1-1.1.49-1.1,1.1-1.1h0ZM22.37,0c.6,0,1.09.49,1.09,1.09s-.49,1.09-1.09,1.09-1.1-.49-1.1-1.09.49-1.09,1.1-1.09h0ZM19.06,19.9c.6,0,1.1.49,1.1,1.1s-.49,1.1-1.1,1.1-1.1-.49-1.1-1.1.49-1.1,1.1-1.1h0ZM19.06,16.58c.6,0,1.1.49,1.1,1.1s-.49,1.09-1.1,1.09-1.1-.49-1.1-1.09.49-1.1,1.1-1.1h0ZM19.06,3.32c.6,0,1.1.49,1.1,1.1s-.49,1.1-1.1,1.1-1.1-.49-1.1-1.1.49-1.1,1.1-1.1h0ZM19.06,0c.6,0,1.1.49,1.1,1.09s-.49,1.09-1.1,1.09-1.1-.49-1.1-1.09.49-1.09,1.1-1.09h0ZM15.74,19.9c.61,0,1.1.49,1.1,1.1s-.49,1.1-1.1,1.1-1.1-.49-1.1-1.1.49-1.1,1.1-1.1Z"/>
  </g>
</svg>