<?xml version="1.0" encoding="UTF-8"?>
<svg id="Layer_2" data-name="Layer 2" xmlns="http://www.w3.org/2000/svg" viewBox="0 0 26.8 27.81">
  <defs>
    <style>
      .cls-1 {
        fill: #fff;
        fill-rule: evenodd;
      }
    </style>
  </defs>
  <g id="Layer_1-2" data-name="Layer 1">
    <path class="cls-1" d="M23.53,2.64l2.38,2.73c.18.21.33.43.44.67l.02.05c.1.25.16.51.16.8,0,.3-.06.58-.17.85-.11.26-.27.5-.49.71l-.16.16c-.21.21-.45.37-.72.47-.26.1-.54.16-.84.15-.46,0-.74-.17-1.03-.35-.09-.06-.19-.11-.26-.14l-.59-.24-.53.71.17,12.08c.13-.1.26-.2.39-.3h0c.42-.34.83-.71,1.18-1.09.33-.36.76-.56,1.2-.61.45-.05.91.07,1.3.35h0l.08.06c.2.15.36.34.48.55.13.23.21.48.24.76.03.27,0,.54-.08.78-.08.25-.21.48-.4.68l-.04.04c-.47.52-.98,1-1.51,1.44-3.15,2.59-7.36,3.9-11.54,3.87-4.18-.03-8.34-1.39-11.38-4.13-.5-.46-.98-.95-1.41-1.48-.32-.39-.46-.86-.43-1.32.03-.46.23-.92.6-1.26h0s.06-.05.06-.05c.18-.16.38-.28.6-.36.23-.09.49-.12.75-.11.26.01.51.08.74.19.23.11.43.27.6.46.19.22.38.42.58.61l-.04-4.32c0-.91.15-1.77.48-2.56.32-.79.81-1.51,1.46-2.15.65-.65,1.37-1.13,2.16-1.45.79-.32,1.64-.47,2.56-.46l3.92.05c.02-1.79.22-3.77,1.18-5.48C16.74,2.01,18.83.43,22.72,0c.4-.04.76.25.8.65v.08h0v1.91h0ZM18.68,23.04c-.02-1.48-.64-2.83-1.62-3.81-1-1-2.38-1.62-3.89-1.62s-2.89.62-3.89,1.62c-.93.93-1.53,2.19-1.61,3.58.8.34,1.66.62,2.56.81,1.03.22,2.11.34,3.23.34,1.01,0,1.99-.1,2.92-.28.8-.16,1.57-.37,2.3-.65Z"/>
  </g>
</svg>