<?xml version="1.0" encoding="UTF-8"?>
<svg id="Layer_2" data-name="Layer 2" xmlns="http://www.w3.org/2000/svg" viewBox="0 0 160.54 160.54">
  <defs>
    <style>
      .cls-1 {
        fill: #080a16;
      }
    </style>
  </defs>
  <g id="Calque_1" data-name="Calque 1">
    <path class="cls-1" d="M160.54,0h0s0,0,0,0H0s0,0,0,0v3.88c0,.09,0,.17,0,.26v152.37c0,.05,0,.1,0,.15v3.88h3.88c.08,0,.17,0,.25,0h152.38s.1,0,.15,0h3.88V0h0ZM80.27,55.65c-6.82-21.12-22.17-38.45-41.99-47.89h83.97c-19.81,9.44-35.16,26.76-41.98,47.89ZM152.67,7.87c-2,36.82-31.6,66.41-68.41,68.41,2-36.81,31.6-66.41,68.41-68.41ZM76.28,76.28C39.46,74.28,9.87,44.68,7.87,7.87c36.82,2,66.41,31.6,68.41,68.41ZM23.51,60.64c9.15,9.15,20.13,15.8,32.1,19.65-21.1,6.83-38.4,22.17-47.84,41.96V38.42c3.89,8.14,9.17,15.65,15.74,22.22ZM76.28,84.26c-2,36.82-31.6,66.41-68.41,68.41,2-36.82,31.6-66.41,68.41-68.41ZM80.27,104.89c6.82,21.12,22.17,38.44,41.97,47.88H38.3c19.8-9.44,35.14-26.76,41.97-47.88ZM84.26,84.26c36.82,2.01,66.41,31.6,68.41,68.41-36.82-2-66.41-31.6-68.41-68.41ZM104.89,80.27c21.12-6.83,38.45-22.18,47.88-41.99v83.97c-9.44-19.81-26.76-35.16-47.88-41.98Z"/>
  </g>
</svg>