<?xml version="1.0" encoding="UTF-8"?>
<svg id="Layer_2" data-name="Layer 2" xmlns="http://www.w3.org/2000/svg" viewBox="0 0 160.54 160.54">
  <defs>
    <style>
      .cls-1 {
        fill: #080a16;
      }
    </style>
  </defs>
  <g id="Calque_1" data-name="Calque 1">
    <polygon class="cls-1" points="152.78 105.73 152.78 147.29 85.76 80.27 152.77 13.26 152.77 54.8 160.53 54.8 160.53 0 105.73 0 105.73 7.76 147.3 7.76 80.28 74.78 13.26 7.77 54.8 7.77 54.8 0 0 0 0 54.81 7.76 54.81 7.76 13.24 74.79 80.27 7.77 147.29 7.77 105.74 0 105.74 0 160.54 54.81 160.54 54.81 152.78 13.25 152.78 80.28 85.76 147.29 152.77 105.74 152.77 105.74 160.53 160.54 160.53 160.54 105.73 152.78 105.73"/>
  </g>
</svg>