<?xml version="1.0" encoding="UTF-8"?>
<svg id="Layer_2" data-name="Layer 2" xmlns="http://www.w3.org/2000/svg" viewBox="0 0 20.81 29.25">
  <defs>
    <style>
      .cls-1 {
        fill: #fff;
        fill-rule: evenodd;
      }
    </style>
  </defs>
  <g id="Layer_1-2" data-name="Layer 1">
    <path class="cls-1" d="M7.24.39l2.48,2.48,2.48,2.48c.52.52.52,1.36,0,1.88l-2.48,2.48-2.48,2.48c-.52.52-1.36.52-1.88,0l-2.48-2.48L.39,7.24c-.52-.52-.52-1.36,0-1.88l2.48-2.48L5.36.39c.52-.52,1.36-.52,1.88,0h0ZM15.46,8.72c-.52-.52-1.36-.52-1.88,0l-2.48,2.48-2.48,2.48c-.52.52-.52,1.36,0,1.88l2.48,2.48,2.48,2.48c.52.52,1.36.52,1.88,0l2.48-2.48,2.48-2.48c.52-.52.52-1.36,0-1.88l-2.48-2.48-2.48-2.48h0ZM7.24,17.05l2.48,2.48,2.48,2.48c.52.52.52,1.36,0,1.88l-2.48,2.48-2.48,2.48c-.52.52-1.36.52-1.88,0l-2.48-2.48-2.48-2.48c-.52-.52-.52-1.36,0-1.88l2.48-2.48,2.48-2.48c.52-.52,1.36-.52,1.88,0Z"/>
  </g>
</svg>