<?xml version="1.0" encoding="UTF-8"?>
<svg id="Layer_2" data-name="Layer 2" xmlns="http://www.w3.org/2000/svg" viewBox="0 0 32.14 22.81">
  <defs>
    <style>
      .cls-1 {
        fill: #fff;
        fill-rule: evenodd;
      }
    </style>
  </defs>
  <g id="Layer_1-2" data-name="Layer 1">
    <path class="cls-1" d="M1.33,15.52h14.76c.73,0,1.33.6,1.33,1.33v4.63c0,.53.29.98.77,1.21.48.22,1.01.16,1.42-.18l12.05-10.07c.31-.26.48-.61.48-1.02s-.16-.76-.48-1.02L19.6.31c-.41-.34-.94-.41-1.42-.18-.48.22-.77.68-.77,1.21v4.63c0,.73-.6,1.33-1.33,1.33H1.33c-.73,0-1.33.6-1.33,1.33v5.56c0,.73.6,1.33,1.33,1.33Z"/>
  </g>
</svg>