<?xml version="1.0" encoding="UTF-8"?>
<svg id="Layer_2" data-name="Layer 2" xmlns="http://www.w3.org/2000/svg" viewBox="0 0 25.95 25.53">
  <defs>
    <style>
      .cls-1 {
        fill: #fff;
        fill-rule: evenodd;
      }
    </style>
  </defs>
  <g id="Layer_1-2" data-name="Layer 1">
    <path class="cls-1" d="M21.53,13.64c-3.05,2.49-6.94,5.66-7.89,11.3-.04.33-.32.59-.66.59s-.62-.26-.66-.59c-.96-5.64-4.85-8.81-7.9-11.3-2.07-1.69-3.78-3.08-4.16-4.83-.18-.8-.26-1.55-.26-2.23,0-1.92.63-3.37,1.6-4.42C2.56,1.11,3.85.48,5.17.19c.58-.13,1.17-.19,1.74-.19,1.66,0,2.91.42,3.97,1.27.8.64,1.46,1.51,2.09,2.61,1.47-2.59,3.1-3.88,6.07-3.88.57,0,1.16.06,1.74.19,1.32.29,2.61.92,3.57,1.97.97,1.05,1.6,2.51,1.6,4.42,0,.68-.08,1.42-.26,2.23-.38,1.75-2.09,3.15-4.16,4.83Z"/>
  </g>
</svg>