<?xml version="1.0" encoding="UTF-8"?>
<svg id="Layer_2" data-name="Layer 2" xmlns="http://www.w3.org/2000/svg" viewBox="0 0 32.44 21.72">
  <defs>
    <style>
      .cls-1 {
        fill: #fff;
        fill-rule: evenodd;
      }
    </style>
  </defs>
  <g id="Layer_1-2" data-name="Layer 1">
    <path class="cls-1" d="M14.04,0h9.92c.43,0,.81.19,1.06.53l7.15,9.53c.36.48.36,1.12,0,1.6l-7.15,9.53c-.26.35-.63.53-1.06.53h-9.92c-.52,0-.96-.27-1.19-.74-.23-.46-.18-.98.13-1.39l.66-.88c.31-.41.36-.93.13-1.39-.23-.46-.67-.74-1.19-.74H1.33c-.73,0-1.33-.6-1.33-1.33V6.47c0-.73.6-1.33,1.33-1.33h11.23c.52,0,.96-.27,1.19-.74.23-.46.18-.98-.13-1.39l-.66-.88c-.31-.41-.36-.93-.13-1.39.23-.46.67-.74,1.19-.74Z"/>
  </g>
</svg>