<?xml version="1.0" encoding="UTF-8"?>
<svg id="Layer_2" data-name="Layer 2" xmlns="http://www.w3.org/2000/svg" viewBox="0 0 22.67 24.09">
  <defs>
    <style>
      .cls-1 {
        fill: #fff;
        fill-rule: evenodd;
      }
    </style>
  </defs>
  <g id="Layer_1-2" data-name="Layer 1">
    <path class="cls-1" d="M15.06,6.86l-6.8,3.74c.16.45.25.94.25,1.44s-.09.99-.25,1.44l6.8,3.74c.33-.42.74-.78,1.2-1.06.63-.38,1.37-.59,2.16-.59,1.17,0,2.24.48,3.01,1.25.77.77,1.25,1.83,1.25,3.01s-.48,2.24-1.25,3.01c-.77.77-1.83,1.25-3.01,1.25s-2.24-.48-3.01-1.25c-.77-.77-1.25-1.83-1.25-3.01,0-.36.05-.71.14-1.06.03-.13.07-.26.12-.38l-6.8-3.74c-.11.14-.23.27-.35.4-.77.77-1.83,1.25-3.01,1.25s-2.24-.48-3.01-1.25c-.77-.77-1.25-1.83-1.25-3.01s.48-2.24,1.25-3.01c.77-.77,1.83-1.25,3.01-1.25s2.24.48,3.01,1.25c.13.13.24.26.35.4l6.8-3.74c-.04-.12-.08-.25-.12-.38-.09-.35-.14-.7-.14-1.06,0-1.17.48-2.24,1.25-3.01.77-.77,1.83-1.25,3.01-1.25s2.24.48,3.01,1.25c.77.77,1.25,1.83,1.25,3.01s-.48,2.24-1.25,3.01c-.77.77-1.83,1.25-3.01,1.25-.77,0-1.5-.21-2.13-.57-.48-.28-.89-.64-1.23-1.08Z"/>
  </g>
</svg>