<?xml version="1.0" encoding="UTF-8"?>
<svg id="Layer_2" data-name="Layer 2" xmlns="http://www.w3.org/2000/svg" viewBox="0 0 24.96 26.24">
  <defs>
    <style>
      .cls-1 {
        fill: #fff;
        fill-rule: evenodd;
      }
    </style>
  </defs>
  <g id="Layer_1-2" data-name="Layer 1">
    <path class="cls-1" d="M5.29,18.37c.47,0,.92.05,1.36.13.09.02.18.04.26.06V5.15c0-.36.25-.65.59-.72L24.04.02c.39-.1.79.13.89.52.02.06.02.12.02.19h0v17.82c0,1.14-.63,2.15-1.65,2.86-.94.66-2.23,1.07-3.65,1.07s-2.7-.41-3.65-1.07c-1.02-.72-1.65-1.73-1.65-2.86s.63-2.15,1.65-2.86c.94-.66,2.23-1.07,3.65-1.07.47,0,.92.05,1.36.13.09.02.18.04.26.06v-6.49l-10.7,2.92v11.07c0,1.24-.65,2.16-1.58,2.81-1.08.76-2.56,1.12-3.72,1.12-1.41,0-2.7-.41-3.65-1.07-1.02-.72-1.65-1.73-1.65-2.86s.63-2.15,1.65-2.86c.94-.66,2.23-1.07,3.65-1.07Z"/>
  </g>
</svg>