<?xml version="1.0" encoding="UTF-8"?>
<svg id="Layer_2" data-name="Layer 2" xmlns="http://www.w3.org/2000/svg" viewBox="0 0 20.61 23.26">
  <defs>
    <style>
      .cls-1 {
        fill: #fff;
        fill-rule: evenodd;
      }
    </style>
  </defs>
  <g id="Layer_1-2" data-name="Layer 1">
    <path class="cls-1" d="M11.97,1.24l1.36,4.61c.03.1.1.19.18.23.09.05.19.07.3.04l4.67-1.13c.38-.09.76-.06,1.09.09.33.14.62.39.82.73h0c.19.34.27.71.22,1.07-.04.36-.2.71-.47.99l-3.31,3.48c-.07.08-.11.18-.11.28s.04.2.11.28l3.31,3.48c.27.28.43.63.47.99.04.36-.03.73-.22,1.07h0c-.19.34-.48.59-.82.73-.33.14-.71.18-1.09.09l-4.67-1.13c-.11-.03-.21,0-.3.04-.08.05-.15.13-.18.23l-1.36,4.61c-.11.37-.33.68-.62.9-.29.22-.65.35-1.04.35s-.74-.12-1.04-.34h0c-.29-.22-.51-.53-.62-.9l-1.36-4.61c-.03-.1-.1-.19-.18-.23-.09-.05-.19-.07-.3-.04l-4.67,1.13c-.38.09-.76.06-1.09-.09-.34-.14-.62-.39-.82-.73l-.02-.05c-.18-.33-.24-.68-.2-1.02.04-.36.2-.71.47-.99l3.31-3.48c.07-.08.11-.18.11-.28s-.04-.2-.11-.28L.48,7.88c-.27-.28-.43-.63-.47-.99-.04-.36.03-.73.22-1.07H.24c.19-.34.48-.59.82-.73.33-.14.71-.18,1.09-.09l4.67,1.13c.1.03.21,0,.3-.04.08-.05.15-.13.18-.23l1.36-4.61c.11-.37.33-.68.62-.9.29-.22.65-.35,1.04-.35s.74.13,1.04.35c.29.22.51.53.62.9Z"/>
  </g>
</svg>