<?xml version="1.0" encoding="UTF-8"?>
<svg id="Layer_2" data-name="Layer 2" xmlns="http://www.w3.org/2000/svg" viewBox="0 0 77.03 77.03">
  <g id="Layer_1-2" data-name="Layer 1">
    <g>
      <path d="M70.75,77.03H6.28c-3.46,0-6.28-2.82-6.28-6.28V6.28C0,2.82,2.82,0,6.28,0h64.47c3.46,0,6.28,2.82,6.28,6.28v64.47c0,3.46-2.82,6.28-6.28,6.28ZM6.28,5c-.71,0-1.28.57-1.28,1.28v64.47c0,.71.57,1.28,1.28,1.28h64.47c.71,0,1.28-.57,1.28-1.28V6.28c0-.71-.57-1.28-1.28-1.28H6.28Z"/>
      <path d="M65.81,77.02H11.22C5.04,77.02,0,71.99,0,65.81v-22.36c0-.66.26-1.3.73-1.77l11.48-11.48c3.73-3.73,9.82-3.73,13.58,0l15.13,15.15c.85.85,2.04,1.34,3.26,1.34s2.39-.48,3.26-1.34c3.77-3.73,9.86-3.73,13.59,0l15.26,15.26c.47.47.73,1.1.73,1.77v3.43c0,6.18-5.03,11.21-11.21,11.21ZM5.01,44.49v21.33c0,3.43,2.79,6.21,6.21,6.21h54.59c3.43,0,6.21-2.79,6.21-6.21v-2.4l-14.53-14.53c-1.79-1.79-4.71-1.79-6.52,0-1.8,1.8-4.22,2.8-6.79,2.8s-5.01-1.02-6.79-2.81l-15.12-15.15c-1.8-1.79-4.72-1.79-6.51,0l-10.75,10.75Z"/>
      <path d="M46.87,33.76c-5.91,0-10.72-4.81-10.72-10.72s4.81-10.72,10.72-10.72,10.72,4.81,10.72,10.72-4.81,10.72-10.72,10.72ZM46.87,17.33c-3.15,0-5.72,2.56-5.72,5.72s2.56,5.72,5.72,5.72,5.72-2.56,5.72-5.72-2.56-5.72-5.72-5.72Z"/>
    </g>
  </g>
</svg>