<?xml version="1.0" encoding="UTF-8"?>
<svg id="Layer_2" data-name="Layer 2" xmlns="http://www.w3.org/2000/svg" viewBox="0 0 27.72 27.72">
  <defs>
    <style>
      .cls-1 {
        fill: #fff;
        fill-rule: evenodd;
      }
    </style>
  </defs>
  <g id="Layer_1-2" data-name="Layer 1">
    <path class="cls-1" d="M13.86,4.12c.67-1.14,1.37-2.05,2.21-2.72,1.16-.93,2.54-1.39,4.35-1.39,2.01,0,3.84.82,5.16,2.14s2.14,3.14,2.14,5.16c0,6.87-6.67,13.54-13.34,20.21-.28.28-.75.28-1.03,0C6.67,20.83,0,14.16,0,7.29c0-2.01.82-3.84,2.14-5.16S5.28,0,7.29,0c3.2,0,4.98,1.37,6.57,4.12h0ZM22.26,12.9c-.11.19-.11.4,0,.59.11.19.29.29.51.29h.33c.21,0,.4-.11.5-.29.25-.44.5-.89.71-1.35.74-1.54,1.24-3.19,1.24-4.85,0-1.42-.58-2.7-1.5-3.63-.93-.93-2.21-1.5-3.63-1.5-.24,0-.47.01-.69.03-.2.02-.37.11-.49.27-.13.16-.18.34-.15.54h0c.05.4.41.68.8.64.17-.02.35-.03.53-.03,1.01,0,1.93.41,2.6,1.08s1.08,1.58,1.08,2.6c0,1.42-.44,2.86-1.09,4.22-.23.47-.48.94-.74,1.39Z"/>
  </g>
</svg>