<?xml version="1.0" encoding="UTF-8"?>
<svg id="Layer_2" data-name="Layer 2" xmlns="http://www.w3.org/2000/svg" viewBox="0 0 29.11 21.1">
  <defs>
    <style>
      .cls-1 {
        fill: #fff;
        fill-rule: evenodd;
      }
    </style>
  </defs>
  <g id="Layer_1-2" data-name="Layer 1">
    <path class="cls-1" d="M16.27,3.47c.06.54-.03,1.09-.27,1.62-.52,1.15-1.6,1.85-2.87,1.85h-6.88c-.57,0-1.09-.13-1.55-.4-1.1-.63-2.38-.56-3.41.19C.28,7.48-.19,8.68.07,9.92c.09.42.09.85,0,1.26-.26,1.24.21,2.44,1.23,3.18s2.31.81,3.4.19c.46-.26.98-.4,1.55-.4h6.88c1.27,0,2.35.7,2.87,1.85.24.53.33,1.08.27,1.62-.14,1.38.59,2.64,1.86,3.2,1.27.56,2.7.25,3.62-.79l6.56-7.4c1.06-1.2,1.06-2.98,0-4.17l-6.56-7.4c-.92-1.04-2.35-1.35-3.62-.79-1.27.56-2.01,1.82-1.86,3.2Z"/>
  </g>
</svg>