<?xml version="1.0" encoding="UTF-8"?>
<svg id="Layer_2" data-name="Layer 2" xmlns="http://www.w3.org/2000/svg" viewBox="0 0 21.67 24.98">
  <defs>
    <style>
      .cls-1 {
        fill: #fff;
        fill-rule: evenodd;
      }
    </style>
  </defs>
  <g id="Layer_1-2" data-name="Layer 1">
    <path class="cls-1" d="M16.74,8.69l-5.94,3.43c-.08.05-.17.09-.27.1-.36.05-.7-.2-.76-.56-.1-.69-.33-1.33-.66-1.9l-.02-.03c-.34-.59-.79-1.11-1.31-1.54-.08-.05-.15-.13-.2-.21-.18-.32-.08-.72.24-.91l5.98-3.45-1.48-2.57c-.11-.15-.15-.35-.09-.55.09-.36.46-.57.81-.47l8.13,2.18c.36.09.57.46.47.81l-2.18,8.13h0c-.04.16-.15.31-.31.4-.32.18-.72.07-.91-.24l-1.51-2.62h0ZM4.29,8.2c-1.18,0-2.26.48-3.03,1.26-.78.78-1.26,1.85-1.26,3.03s.48,2.26,1.26,3.03,1.85,1.26,3.03,1.26,2.26-.48,3.03-1.26c.78-.78,1.26-1.85,1.26-3.03s-.48-2.26-1.26-3.03-1.85-1.26-3.03-1.26h0ZM13.81,21.37l-5.98-3.45h0c-.07-.04-.13-.09-.19-.16-.23-.29-.18-.7.1-.93.54-.43.99-.96,1.34-1.57.34-.58.57-1.24.68-1.94h0c.01-.08.04-.16.08-.23.18-.32.59-.43.91-.24l5.98,3.45,1.5-2.59c.08-.16.23-.29.42-.34.36-.09.72.12.81.47l2.18,8.13c.09.36-.12.72-.47.81l-8.13,2.18h0c-.16.04-.34.02-.5-.07-.32-.18-.43-.59-.24-.91l1.51-2.62Z"/>
  </g>
</svg>