<?xml version="1.0" encoding="UTF-8"?>
<svg id="Layer_2" data-name="Layer 2" xmlns="http://www.w3.org/2000/svg" viewBox="0 0 30.68 25.41">
  <defs>
    <style>
      .cls-1 {
        fill: #fff;
        fill-rule: evenodd;
      }
    </style>
  </defs>
  <g id="Layer_1-2" data-name="Layer 1">
    <path class="cls-1" d="M19.08,20.05l.42,2.03h1.35c.71,0,1.36.29,1.83.76h0c.47.47.76,1.12.76,1.83,0,.4-.33.73-.73.73H7.97c-.4,0-.73-.33-.73-.73,0-.71.29-1.36.76-1.83l.05-.04c.47-.44,1.1-.72,1.79-.72h1.35l.42-2.03H.73c-.4,0-.73-.33-.73-.73V.73c0-.4.33-.73.73-.73h29.22c.4,0,.73.33.73.73v18.6c0,.4-.33.73-.73.73h-10.87ZM2.68,1.85c-.4,0-.73.33-.73.73v13.03c0,.4.33.73.73.73h25.32c.4,0,.73-.33.73-.73V2.58c0-.4-.33-.73-.73-.73H2.68ZM27.27,3.31H3.41v11.57h23.86V3.31Z"/>
  </g>
</svg>