<?xml version="1.0" encoding="UTF-8"?>
<svg id="Layer_2" data-name="Layer 2" xmlns="http://www.w3.org/2000/svg" viewBox="0 0 60.87 79.36">
  <g id="Layer_1-2" data-name="Layer 1">
    <g>
      <path d="M30.44,42.8c-6.82,0-12.36-5.54-12.36-12.36s5.54-12.36,12.36-12.36,12.36,5.54,12.36,12.36-5.54,12.36-12.36,12.36ZM30.44,23.08c-4.06,0-7.36,3.3-7.36,7.36s3.3,7.36,7.36,7.36,7.36-3.3,7.36-7.36-3.3-7.36-7.36-7.36Z"/>
      <path d="M30.44,79.36C21.12,79.36,0,54.29,0,30.44,0,13.65,13.65,0,30.44,0s30.44,13.65,30.44,30.44c0,23.85-21.12,48.92-30.44,48.92ZM30.44,5c-14.03,0-25.44,11.41-25.44,25.44,0,23.11,20.75,43.92,25.44,43.92s25.44-20.81,25.44-43.92c0-14.03-11.41-25.44-25.44-25.44Z"/>
    </g>
  </g>
</svg>