<?xml version="1.0" encoding="UTF-8"?>
<svg id="Layer_2" data-name="Layer 2" xmlns="http://www.w3.org/2000/svg" viewBox="0 0 29.57 29.57">
  <defs>
    <style>
      .cls-1 {
        fill: #fff;
        fill-rule: evenodd;
      }
    </style>
  </defs>
  <g id="Layer_1-2" data-name="Layer 1">
    <path class="cls-1" d="M14.78,0c8.17,0,14.79,6.62,14.79,14.79s-6.62,14.79-14.79,14.79S0,22.95,0,14.79,6.62,0,14.78,0h0ZM6.46,19.45h11.5l-1.95,3.86,11.19-8.53-11.19-8.53,1.95,3.86H6.46v.04c-2.3.29-4.09,2.26-4.09,4.63h0c0,2.37,1.79,4.35,4.09,4.63v.04h0ZM7.04,12.46c-1.28,0-2.33,1.05-2.33,2.33h0c0,1.28,1.05,2.33,2.33,2.33h0c1.28,0,2.33-1.05,2.33-2.33h0c0-1.28-1.05-2.33-2.33-2.33h0Z"/>
  </g>
</svg>