<?xml version="1.0" encoding="UTF-8"?>
<svg id="Layer_2" data-name="Layer 2" xmlns="http://www.w3.org/2000/svg" viewBox="0 0 23.8 17.84">
  <defs>
    <style>
      .cls-1 {
        fill: #fff;
        fill-rule: evenodd;
      }
    </style>
  </defs>
  <g id="Layer_1-2" data-name="Layer 1">
    <path class="cls-1" d="M0,8.11c0,2.29,1.37,4.35,3.59,5.81,2.14,1.42,5.08,2.29,8.31,2.29.74,0,1.45-.04,2.16-.13.64-.08,1.28-.2,1.93-.36l5.74,2.07c.19.08.42.07.61-.04.31-.19.41-.6.22-.91l-1.95-3.19c.91-.66,1.66-1.43,2.2-2.28.64-1,.99-2.1.99-3.26,0-2.29-1.37-4.35-3.59-5.81C18.07.88,15.13,0,11.9,0S5.73.88,3.59,2.29C1.37,3.76,0,5.81,0,8.11h0ZM8.66,8.5c0,.68-.55,1.24-1.24,1.24s-1.24-.55-1.24-1.24.55-1.24,1.24-1.24,1.24.55,1.24,1.24h0ZM16.38,9.73c-.68,0-1.24-.55-1.24-1.24s.55-1.24,1.24-1.24,1.24.55,1.24,1.24-.55,1.24-1.24,1.24h0ZM11.9,9.73c-.68,0-1.24-.55-1.24-1.24s.55-1.24,1.24-1.24,1.24.55,1.24,1.24-.55,1.24-1.24,1.24Z"/>
  </g>
</svg>