<?xml version="1.0" encoding="UTF-8"?>
<svg id="Layer_2" data-name="Layer 2" xmlns="http://www.w3.org/2000/svg" viewBox="0 0 29.99 16.69">
  <defs>
    <style>
      .cls-1 {
        fill: #fff;
        fill-rule: evenodd;
      }
    </style>
  </defs>
  <g id="Layer_1-2" data-name="Layer 1">
    <path class="cls-1" d="M19.9,3.38l9.26,3.72c.51.21.83.68.83,1.24,0,.56-.32,1.03-.83,1.24l-9.26,3.72c-.49.2-1.02.1-1.41-.27-.39-.37-.52-.89-.35-1.39.35-1.04.54-2.15.54-3.3s-.19-2.26-.54-3.3c-.17-.5-.04-1.03.35-1.39.39-.36.92-.47,1.41-.27h0ZM8.34,0c4.61,0,8.34,3.74,8.34,8.34s-3.74,8.34-8.34,8.34S0,12.95,0,8.34,3.74,0,8.34,0Z"/>
  </g>
</svg>