<?xml version="1.0" encoding="UTF-8"?>
<svg id="Layer_2" data-name="Layer 2" xmlns="http://www.w3.org/2000/svg" viewBox="0 0 29.95 28.74">
  <defs>
    <style>
      .cls-1 {
        fill: #fff;
        fill-rule: evenodd;
      }
    </style>
  </defs>
  <g id="Layer_1-2" data-name="Layer 1">
    <path class="cls-1" d="M15.78,17.56c.11,3.27.22,6.59-.85,8.69-1.03,2.02-2.91,2.68-4.76,2.44-.71-.09-1.41-.32-2.05-.65-.64-.33-1.23-.77-1.71-1.29-1.26-1.36-1.81-3.25-.78-5.21,1.15-2.19,4.12-4.23,6.94-6.17.7-.48,1.39-.96,2.09-1.47h0c.11-.08.25-.13.39-.12.37,0,.66.3.66.67,0,.99.03,2.05.06,3.12h0ZM29.89,13.48c.11,3.27.22,6.59-.85,8.69-1.03,2.02-2.91,2.68-4.76,2.44-.71-.09-1.41-.32-2.05-.65-.64-.33-1.23-.77-1.71-1.29-1.26-1.36-1.81-3.25-.78-5.21,1.15-2.19,4.12-4.23,6.94-6.17.7-.48,1.39-.96,2.09-1.47h0c.11-.08.25-.13.39-.12.37,0,.66.3.66.67,0,.99.03,2.05.06,3.12h0ZM10.69,3.79c-.03-1.07-.07-2.13-.06-3.12C10.63.3,10.34,0,9.97,0c-.15,0-.28.05-.39.13h0c-.7.5-1.39.98-2.09,1.46C4.66,3.53,1.69,5.57.54,7.76c-1.03,1.96-.48,3.85.78,5.21.48.52,1.07.96,1.71,1.29.64.33,1.34.56,2.05.65,1.85.24,3.73-.42,4.76-2.44,1.07-2.1.96-5.42.85-8.69Z"/>
  </g>
</svg>