<?xml version="1.0" encoding="UTF-8"?>
<svg id="Layer_2" data-name="Layer 2" xmlns="http://www.w3.org/2000/svg" viewBox="0 0 31.64 20.91">
  <defs>
    <style>
      .cls-1 {
        fill: #fff;
        fill-rule: evenodd;
      }
    </style>
  </defs>
  <g id="Layer_1-2" data-name="Layer 1">
    <path class="cls-1" d="M11.82,1.97l18.96,7.24c.53.2.86.68.86,1.24s-.33,1.04-.86,1.24l-18.96,7.24c-.58.22-1.22.02-1.57-.49-.35-.51-.31-1.18.11-1.64l4.91-5.46c.46-.51.46-1.27,0-1.78l-4.91-5.46c-.42-.46-.46-1.13-.11-1.64.35-.51.99-.71,1.57-.49h0ZM0,0l4.96,9.86c.2.39.2.81,0,1.2L0,20.91l3.71-9.99c.12-.31.12-.61,0-.93L0,0h0ZM9.47,7.38c-.45-.5-1.19-.59-1.74-.21-.55.38-.74,1.1-.44,1.7l.5.99c.2.39.2.81,0,1.2l-.5.99c-.3.6-.12,1.32.44,1.7.55.38,1.29.29,1.74-.21l1.97-2.18c.46-.51.46-1.27,0-1.78l-1.97-2.18Z"/>
  </g>
</svg>