<?xml version="1.0" encoding="UTF-8"?>
<svg id="Layer_2" data-name="Layer 2" xmlns="http://www.w3.org/2000/svg" viewBox="0 0 25.44 23.44">
  <defs>
    <style>
      .cls-1 {
        fill: #fff;
        fill-rule: evenodd;
      }
    </style>
  </defs>
  <g id="Layer_1-2" data-name="Layer 1">
    <path class="cls-1" d="M7.1.97c.39,0,.77.06,1.13.17l.06.02c.17.05.33.12.49.19.41-.37.87-.67,1.38-.9.65-.29,1.37-.45,2.13-.45,1,0,1.93.28,2.73.77.71.44,1.31,1.04,1.75,1.76.63.07,1.23.28,1.75.58.51.29.96.68,1.32,1.13.08-.02.17-.04.25-.05.25-.04.51-.06.76-.06,1.27,0,2.42.51,3.25,1.35s1.35,1.98,1.35,3.25c0,.99-.31,1.9-.85,2.66-.42.59-.97,1.07-1.61,1.41l.02.07c.06.25.09.5.09.76,0,.92-.37,1.75-.97,2.35-.55.55-1.3.91-2.12.97-.23,1.11-.8,2.09-1.6,2.83-.94.87-2.2,1.4-3.58,1.4-.81,0-1.59-.19-2.28-.52-.43-.21-.84-.47-1.19-.79-.52.78-1.17,1.47-1.91,2.04-.97.74-2.11,1.27-3.34,1.54-.36.08-.71-.15-.79-.51-.05-.26.05-.51.24-.66.59-.51,1.1-1.13,1.51-1.81.25-.43.46-.89.62-1.37-1.13-.04-2.16-.48-2.96-1.18-.74-.65-1.27-1.53-1.49-2.52-.87-.3-1.63-.85-2.19-1.56-.63-.81-1.01-1.82-1.01-2.93,0-1.27.5-2.42,1.31-3.27.59-.62,1.34-1.08,2.19-1.31-.03-.07-.05-.14-.08-.21-.13-.39-.21-.81-.21-1.24,0-1.07.43-2.04,1.14-2.75.7-.7,1.67-1.14,2.75-1.14Z"/>
  </g>
</svg>