<?xml version="1.0" encoding="UTF-8"?>
<svg id="Layer_2" data-name="Layer 2" xmlns="http://www.w3.org/2000/svg" viewBox="0 0 58.83 75.03">
  <g id="Layer_1-2" data-name="Layer 1">
    <g>
      <path d="M46.77,75.03c-4.31,0-8.3-2.31-10.43-6.03-.35-.61-.78-1.18-1.29-1.69-1.52-1.5-3.53-2.33-5.65-2.33-2.89,0-5.55,1.56-6.95,4.08-2.05,3.68-6.03,5.97-10.39,5.97-6.65,0-12.05-5.41-12.05-12.05V12.06C0,5.41,5.41,0,12.05,0c4.36,0,8.34,2.29,10.39,5.97,1.4,2.52,4.06,4.08,6.95,4.08s5.57-1.57,6.98-4.09c2.05-3.68,6.03-5.96,10.39-5.96,6.65,0,12.06,5.41,12.06,12.06v50.92c0,6.65-5.41,12.05-12.05,12.05ZM29.4,59.98c3.45,0,6.71,1.35,9.18,3.79.83.83,1.54,1.75,2.11,2.75,1.24,2.17,3.57,3.51,6.08,3.51,3.89,0,7.05-3.16,7.05-7.05V12.06c0-3.89-3.17-7.06-7.05-7.06-2.55,0-4.86,1.3-6.02,3.39-2.29,4.11-6.63,6.66-11.35,6.66s-9.04-2.55-11.32-6.65c-1.17-2.1-3.48-3.4-6.03-3.4-3.89,0-7.05,3.17-7.05,7.06v50.92c0,3.89,3.17,7.05,7.05,7.05,2.55,0,4.86-1.3,6.03-3.4,2.28-4.1,6.62-6.65,11.32-6.65Z"/>
      <path d="M14.42,54.09H2.5c-1.38,0-2.5-1.12-2.5-2.5s1.12-2.5,2.5-2.5h11.92c1.38,0,2.5,1.12,2.5,2.5s-1.12,2.5-2.5,2.5Z"/>
      <path d="M56.33,54.09h-11.92c-1.38,0-2.5-1.12-2.5-2.5s1.12-2.5,2.5-2.5h11.92c1.38,0,2.5,1.12,2.5,2.5s-1.12,2.5-2.5,2.5Z"/>
      <path d="M33.04,54.09h-7.24c-1.38,0-2.5-1.12-2.5-2.5s1.12-2.5,2.5-2.5h7.24c1.38,0,2.5,1.12,2.5,2.5s-1.12,2.5-2.5,2.5Z"/>
    </g>
  </g>
</svg>