<?xml version="1.0" encoding="UTF-8"?>
<svg id="Layer_2" data-name="Layer 2" xmlns="http://www.w3.org/2000/svg" viewBox="0 0 27.87 25.45">
  <defs>
    <style>
      .cls-1 {
        fill: #fff;
        fill-rule: evenodd;
      }
    </style>
  </defs>
  <g id="Layer_1-2" data-name="Layer 1">
    <path class="cls-1" d="M27.84,7.33l-4.39,17.57c-.08.33-.38.55-.71.55H5.13c-.36,0-.65-.25-.72-.59L.02,7.29c-.1-.39.14-.79.53-.88.06-.01.12-.02.18-.02h8.1v-1.79c0-1.28.59-2.44,1.53-3.27.92-.81,2.19-1.32,3.57-1.32s2.65.51,3.57,1.32c.95.83,1.53,1.99,1.53,3.27v1.79h8.1c.4,0,.73.33.73.73,0,.08-.01.15-.03.22h0ZM16.55,2.41c-.66-.59-1.59-.95-2.61-.95s-1.95.36-2.61.95c-.64.56-1.04,1.34-1.04,2.18v1.79h7.29v-1.79c0-.84-.4-1.62-1.04-2.18Z"/>
  </g>
</svg>