<?xml version="1.0" encoding="UTF-8"?>
<svg id="Layer_2" data-name="Layer 2" xmlns="http://www.w3.org/2000/svg" viewBox="0 0 24.32 20.81">
  <defs>
    <style>
      .cls-1 {
        fill: #fff;
        fill-rule: evenodd;
      }
    </style>
  </defs>
  <g id="Layer_1-2" data-name="Layer 1">
    <path class="cls-1" d="M12.76,20.55s-.07.08-.11.12c-.15.12-.33.17-.5.15-.2.02-.42-.06-.56-.22L1,8.52C-.32,7-.24,4.99.71,3.29c.41-.74,1-1.42,1.72-1.97.71-.55,1.56-.96,2.48-1.17,2.2-.49,4.84.18,7.26,3.03C14.58.33,17.22-.35,19.42.15c.92.21,1.76.62,2.48,1.17.72.55,1.3,1.23,1.72,1.97.95,1.7,1.02,3.71-.29,5.23l-10.56,12.03Z"/>
  </g>
</svg>