<?xml version="1.0" encoding="UTF-8"?>
<svg id="Layer_2" data-name="Layer 2" xmlns="http://www.w3.org/2000/svg" viewBox="0 0 24.2 21.76">
  <defs>
    <style>
      .cls-1 {
        fill: #fff;
        fill-rule: evenodd;
      }
    </style>
  </defs>
  <g id="Layer_1-2" data-name="Layer 1">
    <path class="cls-1" d="M6.3.85c.34,0,.68.05,1.01.15.15.05.3.1.44.17.35-.31.75-.57,1.19-.77.58-.26,1.22-.4,1.89-.4.89,0,1.72.25,2.43.69.62.38,1.15.91,1.54,1.53.55.07,1.07.25,1.53.51.44.25.83.58,1.14.97.06-.01.12-.02.18-.03.23-.04.46-.06.68-.06,1.13,0,2.16.46,2.9,1.2.74.74,1.2,1.77,1.2,2.9,0,.88-.28,1.7-.76,2.37-.36.51-.83.93-1.38,1.23.05.22.08.45.08.68,0,.83-.34,1.57-.88,2.12-.48.48-1.13.8-1.85.86-.21.96-.71,1.81-1.41,2.46-.84.77-1.96,1.25-3.19,1.25-1,0-1.93-.32-2.7-.85-.56-.39-1.03-.9-1.37-1.49-.19.1-.38.19-.58.26-.46.17-.94.26-1.45.26-1.07,0-2.05-.4-2.8-1.05-.65-.57-1.12-1.34-1.32-2.21-.76-.27-1.42-.75-1.91-1.37-.57-.72-.9-1.63-.9-2.61,0-1.13.44-2.16,1.17-2.92.5-.53,1.14-.93,1.86-1.14l-.03-.1c-.12-.35-.18-.73-.18-1.12,0-.96.39-1.83,1.02-2.46h0c.63-.63,1.5-1.02,2.46-1.02h0ZM22.61,18.59c-.44,0-.83.18-1.12.46h0c-.29.29-.46.69-.46,1.12s.18.83.46,1.12h0c.29.29.68.47,1.12.47s.83-.18,1.12-.46h0c.29-.29.47-.69.47-1.12s-.18-.83-.46-1.12c-.29-.29-.68-.46-1.12-.46h0ZM19.59,14.93c-.63,0-1.21.26-1.63.68h0c-.42.42-.67.99-.67,1.63s.26,1.21.67,1.63.99.67,1.63.67,1.21-.26,1.63-.67h0c.42-.42.68-.99.68-1.63s-.26-1.21-.67-1.63h0c-.42-.42-.99-.68-1.63-.68Z"/>
  </g>
</svg>