<?xml version="1.0" encoding="UTF-8"?>
<svg id="Layer_2" data-name="Layer 2" xmlns="http://www.w3.org/2000/svg" viewBox="0 0 24.5 24.5">
  <defs>
    <style>
      .cls-1 {
        fill: #fff;
        fill-rule: evenodd;
      }
    </style>
  </defs>
  <g id="Layer_1-2" data-name="Layer 1">
    <path class="cls-1" d="M13.59,7.7l10.77,10.77c.18.18.18.48,0,.66l-5.24,5.24c-.18.18-.48.18-.66,0L7.7,13.59l-5.28,5.28c-.08.07-.18.12-.29.13-.26.02-.48-.17-.5-.42L0,.51s0-.06,0-.09C.02.17.25-.02.51,0l18.05,1.62c.11,0,.23.05.32.14.18.18.18.48,0,.66l-5.28,5.28Z"/>
  </g>
</svg>