<?xml version="1.0" encoding="UTF-8"?>
<svg id="Layer_2" data-name="Layer 2" xmlns="http://www.w3.org/2000/svg" viewBox="0 0 23.45 21.63">
  <defs>
    <style>
      .cls-1 {
        fill: #fff;
        fill-rule: evenodd;
      }
    </style>
  </defs>
  <g id="Layer_1-2" data-name="Layer 1">
    <path class="cls-1" d="M22.3,1.6c.85.97,1.22,2.2,1.14,3.4h0c-.09,1.21-.62,2.38-1.59,3.22l-6.02,5.24c-.35.31-.74.55-1.15.74l-.03.02h-.03s-.02.02-.02.02h0s-.03.02-.03.02h-.01s-.02.01-.02.01h-.03s0,.01,0,.01h-.03s-.01.02-.01.02h-.02s-.03.02-.03.02h0s-.03.01-.03.01h-.02s-.01.01-.01.01l-.07.02h0s-.03.01-.03.01h-.03s0,.01,0,.01h-.02s0,0,0,0l-.1.03h-.04s-.07.03-.07.03h0s-.04,0-.04,0h0s-.03,0-.03,0h-.03s0,0,0,0h-.04s0,.01,0,.01h-.03s-.03.01-.03.01h0s-.04,0-.04,0h-.02s-.02,0-.02,0h-.04s-.07.02-.07.02h-.04s0,0,0,0h-.03s-.04,0-.04,0h-.04s-.01,0-.01,0h-.03s-.03,0-.03,0h0s-.04,0-.04,0h-.02s-.02,0-.02,0h-.04s-.04,0-.04,0h-.02s-.02,0-.02,0h-.04s0,0,0,0h-.03s-.03,0-.03,0h-.01s-.04,0-.04,0h-.01s-.03,0-.03,0h-.03s0,0,0,0h-.04s-.02,0-.02,0h-.02s-.04,0-.04,0h-.04s-.02,0-.02,0h-.05s0,0,0,0h-.06s-.01,0-.01,0h-.04s-.01,0-.01,0h-.03s-.03,0-.03,0h-.04s-.02,0-.02,0h-.02s-.04,0-.04,0h-.01s-.06,0-.06,0h-.02s-.02,0-.02,0h-.02s0,0,0,0h-.02s-.02,0-.02,0h-.02s0,0,0,0h-.02s-.02,0-.02,0h-.04s-.02,0-.02,0h-.02s0,0,0,0h-.02s-.02,0-.02,0h-.02s-.02,0-.02,0h-.02s-.02,0-.02,0h0s-.02,0-.02,0h-.02s-.04,0-.04,0h-.02s-.02,0-.02,0h0s-.02,0-.02,0h-.02s-.02,0-.02,0h0s-.02,0-.02,0h-.02s-.02,0-.02,0h0s-.02,0-.02,0h-.02s-.02,0-.02,0h0s-.02,0-.02,0h-.02s-.02,0-.02,0h0s-.02,0-.02,0h-.02s-.02,0-.02,0h0s-.02,0-.02,0h-.02s-.02,0-.02,0h0s-.02,0-.02,0h-.02s-.02,0-.02,0h0s-.02,0-.02,0h-.02s-.02,0-.02,0h0s-.02,0-.02,0h-.02s-.02,0-.02,0h0s-.02,0-.02,0h-.02s-.01,0-.01,0h0s-.02,0-.02,0h-.02s-.01-.01-.01-.01h0s-.02,0-.02,0h-.02s-.01-.01-.01-.01h0s-.02,0-.02,0c-.76-.26-1.47-.71-2.03-1.36-.4-.46-.69-.97-.88-1.52l1.26-1.09c.23-.2.51-.34.81-.39.02.52.21,1.04.58,1.47.43.49,1.01.76,1.61.8h0c.14,0,.27,0,.41,0h.01s0,0,0,0h.02s.02,0,.02,0h0s.02,0,.02,0h.02s.02,0,.02,0h0s.02,0,.02,0h.02s0,0,0,0h.01s.04-.01.04-.01h.02s0,0,0,0h.04s.02-.01.02-.01h0s.02,0,.02,0h0s.02,0,.02,0h0s.01,0,.01,0h.01s0,0,0,0h.02s0,0,0,0h.02s0,0,0,0h.02s.01,0,.01,0h0s.02-.01.02-.01h.02s0,0,0,0h.02s0,0,0,0h.01s.02-.01.02-.01h0s.02-.01.02-.01h0s.02,0,.02,0h0s.01,0,.01,0h.01s0,0,0,0h.02s0,0,0,0h.02s.02-.02.02-.02h.01s0,0,0,0h.02s0,0,0,0h.02s0-.01,0-.01h.02s.04-.03.04-.03h.02s.02-.02.02-.02h0s.01-.01.01-.01h.01s0-.01,0-.01h.02s0-.01,0-.01h.02s0-.01,0-.01h.02s0-.02,0-.02h.01s.01-.02.01-.02h0s.02-.02.02-.02h0s.02-.01.02-.01h0s.01-.01.01-.01h.01s0-.01,0-.01h.02s0-.01,0-.01h.02s0-.02,0-.02h.01s0-.02,0-.02h0s.02-.02.02-.02h0s.02-.02.02-.02h0s.02-.01.02-.01h0s.01-.02.01-.02h.01s0-.01,0-.01l.02-.02,6.02-5.24c.49-.43.76-1.01.8-1.61h0c.04-.61-.15-1.22-.57-1.71-.43-.49-1.01-.76-1.61-.8h0c-.6-.04-1.22.15-1.71.57l-4.45,3.88c-.53-.22-1.1-.35-1.68-.39h0c-.52-.04-1.05,0-1.55.12.04-.04.09-.08.14-.12L15.67,1.15C16.65.3,17.88-.07,19.08.01h0c1.2.09,2.37.62,3.21,1.59h0ZM14.25,8.62c-.56-.64-1.27-1.1-2.03-1.36h0s-.07-.02-.07-.02h0s-.01,0-.01,0h-.02s-.02-.01-.02-.01h0s-.02,0-.02,0h-.02s-.02-.01-.02-.01h0s0,0,0,0h-.03s-.02-.01-.02-.01h0s-.02,0-.02,0h-.02s-.02,0-.02,0h0s-.02,0-.02,0h-.02s-.02,0-.02,0h0s-.02,0-.02,0h-.02s-.02,0-.02,0h0s-.03,0-.03,0h-.02s0,0,0,0h-.05s0-.01,0-.01h0s0,0,0,0h-.03s-.02-.01-.02-.01h0s-.02,0-.02,0h-.02s-.02,0-.02,0h0s-.02,0-.02,0h-.02s-.02,0-.02,0h0s-.02,0-.02,0h-.02s-.02,0-.02,0h0s-.02,0-.02,0h-.02s-.02,0-.02,0h0s-.02,0-.02,0h-.02s-.02,0-.02,0h-.02s-.02,0-.02,0h-.02s0,0,0,0h-.02s-.02,0-.02,0h-.02s0,0,0,0h-.02s-.02,0-.02,0h-.02s0,0,0,0h-.02s-.02,0-.02,0h-.02s0,0,0,0h-.02s-.02,0-.02,0h-.02s0,0,0,0h-.06s0,0,0,0h-.04s-.02,0-.02,0h-.02s-.04,0-.04,0h-.04s-.03,0-.03,0h-.01s-.04,0-.04,0h-.01s-.05,0-.05,0h0s0,0,0,0h-.11s-.04,0-.04,0h-.02s-.02,0-.02,0h-.04s0,0,0,0h-.03s-.03,0-.03,0h-.01s-.04,0-.04,0h-.01s-.03,0-.03,0h-.03s0,0,0,0h-.04s-.02,0-.02,0h-.02s-.04,0-.04,0h-.04s-.02,0-.02,0h-.02s-.04,0-.04,0h0s-.03,0-.03,0h-.03s-.01,0-.01,0h-.04s-.01,0-.01,0h-.03s-.03,0-.03,0h0s-.04,0-.04,0h-.02s-.02,0-.02,0h-.04s-.04.01-.04.01h-.02s-.02,0-.02,0h-.04s0,0,0,0h-.03s-.03.01-.03.01h-.01s-.04.01-.04.01h-.01s-.03,0-.03,0h-.03s0,0,0,0h-.04s-.01.01-.01.01h-.02s-.03.01-.03.01h-.04s-.02.02-.02.02h-.02s-.03.01-.03.01l-.07.02h-.03s-.03.02-.03.02h0s-.03.01-.03.01h0s-.03.01-.03.01h-.01s-.02.01-.02.01h-.03s-.03.02-.03.02h-.02s-.01.01-.01.01h-.03s0,.02,0,.02h-.03s-.02.02-.02.02h-.01s-.03.02-.03.02h0s-.02.01-.02.01h-.03s-.03.03-.03.03c-.41.18-.8.43-1.15.74L1.6,13.4C.63,14.25.1,15.41.01,16.61h0c-.08,1.21.29,2.44,1.14,3.41.84.97,2.01,1.51,3.21,1.59h.01c1.2.08,2.43-.29,3.4-1.14l6.02-5.24s.09-.08.14-.12c-.5.11-1.02.15-1.55.12h0c-.58-.04-1.15-.18-1.68-.4l-4.45,3.88c-.49.43-1.11.61-1.71.57h0c-.6-.04-1.18-.31-1.61-.8-.43-.49-.61-1.11-.57-1.71h0c.04-.61.31-1.19.8-1.62l6.02-5.24.02-.02h0s.01-.01.01-.01h.01s0-.02,0-.02h.02s0-.01,0-.01h.02s0-.02,0-.02h.01s0-.02,0-.02h0s.01-.02.01-.02h0s.02-.02.02-.02h0s.02-.01.02-.01h0s.01-.01.01-.01h.01s0-.01,0-.01h.02s0-.01,0-.01h.02s0-.02,0-.02h.01s.01-.02.01-.02h0s.02-.02.02-.02h0s.02-.01.02-.01h0s.02-.01.02-.01h0s.01-.01.01-.01h.01s0-.01,0-.01h.02s.02-.02.02-.02l.04-.02h.02s0-.01,0-.01h.02s0-.01,0-.01h.02s0-.01,0-.01h.01s.02-.01.02-.01h.02s0-.01,0-.01h.02s0-.01,0-.01h.01s.01-.01.01-.01h0s.02-.01.02-.01h0s.02,0,.02,0h0s.02,0,.02,0h.01s0,0,0,0h.02s0,0,0,0h.02s.02-.01.02-.01h0s.01,0,.01,0h.02s0,0,0,0h.02s0,0,0,0h.02s0,0,0,0h.01s.01,0,.01,0h0s.02,0,.02,0h0s.02,0,.02,0h0s.02,0,.02,0h.04s0-.01,0-.01h.02s.04-.01.04-.01h.01s0,0,0,0h.02s0,0,0,0h.02s0,0,0,0h.02s.02,0,.02,0h.02s0,0,0,0h.02s.02,0,.02,0h0s.01,0,.01,0c.14-.01.27-.02.41,0h0c.6.04,1.18.31,1.61.8.37.43.56.95.58,1.47.3-.06.58-.19.81-.39l1.26-1.1c-.19-.54-.48-1.06-.88-1.52Z"/>
  </g>
</svg>