<?xml version="1.0" encoding="UTF-8"?>
<svg id="Layer_2" data-name="Layer 2" xmlns="http://www.w3.org/2000/svg" viewBox="0 0 31.16 16.42">
  <defs>
    <style>
      .cls-1 {
        fill: #fff;
        fill-rule: evenodd;
      }
    </style>
  </defs>
  <g id="Layer_1-2" data-name="Layer 1">
    <path class="cls-1" d="M19.44,2.16l-.24-.19c-.19-.15-.29-.37-.28-.61.01-.25.13-.45.33-.59l.99-.65c.27-.18.61-.16.86.04l.63.49,8.13,6.44h0s1,.8,1,.8c.19.15.29.36.28.6,0,.24-.11.44-.31.58l-10.08,7.21c-.26.19-.6.19-.86,0l-.92-.67c-.2-.14-.31-.36-.31-.6,0-.25.11-.46.31-.6l5.23-3.74c.27-.19.37-.52.27-.83-.1-.31-.38-.51-.7-.51H.74c-.41,0-.74-.33-.74-.74v-.76c0-.41.33-.74.74-.74h22.81c.32,0,.59-.19.7-.5.11-.3.01-.62-.24-.82l-4.57-3.61Z"/>
  </g>
</svg>