<?xml version="1.0" encoding="UTF-8"?>
<svg id="Layer_2" data-name="Layer 2" xmlns="http://www.w3.org/2000/svg" viewBox="0 0 75.73 74.44">
  <g id="Layer_1-2" data-name="Layer 1">
    <g>
      <path d="M67.71,74.44H8.03c-4.42,0-8.03-3.6-8.03-8.02V8.02C0,3.6,3.6,0,8.03,0h59.68c4.42,0,8.02,3.6,8.02,8.02v58.39c0,4.42-3.6,8.02-8.02,8.02ZM8.03,5c-1.67,0-3.03,1.36-3.03,3.02v58.39c0,1.67,1.36,3.02,3.03,3.02h59.68c1.67,0,3.02-1.36,3.02-3.02V8.02c0-1.67-1.36-3.02-3.02-3.02H8.03Z"/>
      <path d="M57.96,74.44H17.77c-1.38,0-2.5-1.12-2.5-2.5V2.5c0-1.38,1.12-2.5,2.5-2.5h40.19c1.38,0,2.5,1.12,2.5,2.5v69.44c0,1.38-1.12,2.5-2.5,2.5ZM20.27,69.44h35.19V5H20.27v64.44Z"/>
      <path d="M73.23,39.72H2.5c-1.38,0-2.5-1.12-2.5-2.5s1.12-2.5,2.5-2.5h70.73c1.38,0,2.5,1.12,2.5,2.5s-1.12,2.5-2.5,2.5Z"/>
      <path d="M17.77,28.15H2.5c-1.38,0-2.5-1.12-2.5-2.5s1.12-2.5,2.5-2.5h15.27c1.38,0,2.5,1.12,2.5,2.5s-1.12,2.5-2.5,2.5Z"/>
      <path d="M17.77,16.57H4.81c-1.38,0-2.5-1.12-2.5-2.5s1.12-2.5,2.5-2.5h12.96c1.38,0,2.5,1.12,2.5,2.5s-1.12,2.5-2.5,2.5Z"/>
      <path d="M17.77,51.29H2.5c-1.38,0-2.5-1.12-2.5-2.5s1.12-2.5,2.5-2.5h15.27c1.38,0,2.5,1.12,2.5,2.5s-1.12,2.5-2.5,2.5Z"/>
      <path d="M17.77,62.87H4.81c-1.38,0-2.5-1.12-2.5-2.5s1.12-2.5,2.5-2.5h12.96c1.38,0,2.5,1.12,2.5,2.5s-1.12,2.5-2.5,2.5Z"/>
      <path d="M73.23,28.15h-15.27c-1.38,0-2.5-1.12-2.5-2.5s1.12-2.5,2.5-2.5h15.27c1.38,0,2.5,1.12,2.5,2.5s-1.12,2.5-2.5,2.5Z"/>
      <path d="M70.93,16.57h-12.96c-1.38,0-2.5-1.12-2.5-2.5s1.12-2.5,2.5-2.5h12.96c1.38,0,2.5,1.12,2.5,2.5s-1.12,2.5-2.5,2.5Z"/>
      <path d="M73.23,51.29h-15.27c-1.38,0-2.5-1.12-2.5-2.5s1.12-2.5,2.5-2.5h15.27c1.38,0,2.5,1.12,2.5,2.5s-1.12,2.5-2.5,2.5Z"/>
      <path d="M70.93,62.87h-12.96c-1.38,0-2.5-1.12-2.5-2.5s1.12-2.5,2.5-2.5h12.96c1.38,0,2.5,1.12,2.5,2.5s-1.12,2.5-2.5,2.5Z"/>
    </g>
  </g>
</svg>