<?xml version="1.0" encoding="UTF-8"?>
<svg id="Layer_2" data-name="Layer 2" xmlns="http://www.w3.org/2000/svg" viewBox="0 0 23.74 23.74">
  <defs>
    <style>
      .cls-1 {
        fill: #fff;
        fill-rule: evenodd;
      }
    </style>
  </defs>
  <g id="Layer_1-2" data-name="Layer 1">
    <path class="cls-1" d="M12.53,0c3.02.17,5.73,1.46,7.74,3.46,2,2,3.3,4.72,3.46,7.74h-2.18c-.37,0-.67.3-.67.67s.3.67.67.67h2.18c-.17,3.02-1.46,5.73-3.46,7.74-2,2-4.72,3.3-7.74,3.46v-2.18c0-.37-.3-.67-.67-.67s-.67.3-.67.67v2.18c-3.02-.17-5.73-1.46-7.74-3.46S.17,15.55,0,12.53h2.18c.37,0,.67-.3.67-.67s-.3-.67-.67-.67H0c.17-3.02,1.46-5.73,3.46-7.74C5.47,1.46,8.18.17,11.2,0v2.18c0,.37.3.67.67.67s.67-.3.67-.67V0h0ZM11.27,4.87v6.62l-5.01,3.08c-.31.19-.41.6-.22.92.19.31.6.41.92.22l5.31-3.26c.2-.11.34-.33.34-.58v-6.99c0-.37-.3-.67-.67-.67s-.67.3-.67.67Z"/>
  </g>
</svg>