<?xml version="1.0" encoding="UTF-8"?>
<svg id="Layer_2" data-name="Layer 2" xmlns="http://www.w3.org/2000/svg" viewBox="0 0 71.56 71.56">
  <g id="Layer_1-2" data-name="Layer 1">
    <g>
      <path d="M35.78,71.56C16.05,71.56,0,55.51,0,35.78S16.05,0,35.78,0s35.78,16.05,35.78,35.78-16.05,35.78-35.78,35.78ZM35.78,5c-16.97,0-30.78,13.81-30.78,30.78s13.81,30.78,30.78,30.78,30.78-13.81,30.78-30.78S52.75,5,35.78,5Z"/>
      <g>
        <path d="M35.78,42.45c-1.38,0-2.5-1.12-2.5-2.5v-18.76c0-1.38,1.12-2.5,2.5-2.5s2.5,1.12,2.5,2.5v18.76c0,1.38-1.12,2.5-2.5,2.5Z"/>
        <path d="M35.78,52.87c-.66,0-1.31-.27-1.77-.74-.47-.46-.73-1.11-.73-1.76s.26-1.31.73-1.77c.11-.12.24-.22.38-.31.13-.09.28-.17.43-.23.15-.06.31-.11.47-.14.81-.17,1.67.1,2.25.68.47.46.74,1.11.74,1.77s-.27,1.3-.74,1.76c-.46.47-1.11.74-1.76.74Z"/>
      </g>
    </g>
  </g>
</svg>