<?xml version="1.0" encoding="UTF-8"?>
<svg id="Layer_2" data-name="Layer 2" xmlns="http://www.w3.org/2000/svg" viewBox="0 0 71.55 67.36">
  <g id="Layer_1-2" data-name="Layer 1">
    <g>
      <path d="M51.97,67.36H19.6c-.43,0-.85-.11-1.22-.32C7.05,60.72,0,48.73,0,35.76,0,16.04,16.05,0,35.79,0s35.76,16.04,35.76,35.76c0,12.96-7.04,24.94-18.36,31.28-.37.21-.79.32-1.22.32ZM20.27,62.36h31.04c9.42-5.52,15.25-15.66,15.25-26.59,0-16.96-13.8-30.76-30.76-30.76S5,18.8,5,35.76c0,10.94,5.83,21.07,15.27,26.59Z"/>
      <path d="M21.84,54.75c-.57,0-1.14-.19-1.61-.59-5.43-4.57-8.54-11.28-8.54-18.39,0-13.28,10.81-24.08,24.1-24.08,1.38,0,2.5,1.12,2.5,2.5s-1.12,2.5-2.5,2.5c-10.53,0-19.1,8.56-19.1,19.08,0,5.64,2.47,10.95,6.76,14.57,1.06.89,1.19,2.47.3,3.52-.49.59-1.2.89-1.91.89Z"/>
      <path d="M49.74,54.75c-.71,0-1.42-.3-1.91-.89-.89-1.06-.75-2.63.3-3.52,4.3-3.62,6.76-8.93,6.76-14.57,0-1.38,1.12-2.5,2.5-2.5s2.5,1.12,2.5,2.5c0,7.12-3.11,13.82-8.54,18.39-.47.39-1.04.59-1.61.59Z"/>
      <path d="M34.58,41.6c-3.22,0-5.84-2.62-5.84-5.84s2.62-5.84,5.84-5.84,5.84,2.62,5.84,5.84-2.62,5.84-5.84,5.84ZM34.58,34.93c-.46,0-.84.38-.84.84s.38.84.84.84.84-.38.84-.84-.38-.84-.84-.84Z"/>
      <path d="M34.58,38.26c-.64,0-1.28-.24-1.77-.73-.98-.98-.98-2.56,0-3.54l14.12-14.12c.98-.98,2.56-.98,3.54,0,.98.98.98,2.56,0,3.54l-14.12,14.12c-.49.49-1.13.73-1.77.73Z"/>
    </g>
  </g>
</svg>