<?xml version="1.0" encoding="UTF-8"?>
<svg id="Layer_2" data-name="Layer 2" xmlns="http://www.w3.org/2000/svg" viewBox="0 0 23.65 26.02">
  <defs>
    <style>
      .cls-1 {
        fill: #fff;
        fill-rule: evenodd;
      }
    </style>
  </defs>
  <g id="Layer_1-2" data-name="Layer 1">
    <path class="cls-1" d="M7.62,11.04c.53,1.15,1.33,2.45,2.37,3.68.88,1.04,1.93,2.03,3.12,2.81.21.14.42.24.61.26.08,0,.15-.01.22-.06l2.13-1.8c.38-.32.84-.47,1.3-.46.46.01.91.19,1.27.53.69.65,1.39,1.28,2.1,1.89.72.62,1.44,1.2,2.17,1.77.24.18.42.4.55.65.13.25.2.53.2.83,0,.3-.05.58-.16.83-.12.26-.29.49-.52.68l-3.1,2.63c-.44.38-.95.61-1.49.7-.54.09-1.1.04-1.64-.17-2.07-.79-4.06-1.84-5.92-3.16-1.8-1.27-3.46-2.79-4.95-4.55-1.49-1.76-2.71-3.65-3.67-5.63C1.21,10.43.5,8.29.06,6.11c-.11-.57-.08-1.13.1-1.65.18-.52.5-.98.94-1.36L4.24.46c.23-.19.48-.32.75-.4h.04c.26-.07.54-.08.81-.03.29.06.55.17.78.34.23.17.41.39.56.65.43.81.89,1.62,1.38,2.43.48.8.98,1.6,1.51,2.39.27.41.37.89.31,1.34-.06.45-.29.89-.66,1.2l-2.15,1.82c-.06.05-.1.13-.1.21-.02.18.05.4.15.63Z"/>
  </g>
</svg>