<?xml version="1.0" encoding="UTF-8"?>
<svg id="Layer_2" data-name="Layer 2" xmlns="http://www.w3.org/2000/svg" viewBox="0 0 24.5 24.5">
  <defs>
    <style>
      .cls-1 {
        fill: #fff;
        fill-rule: evenodd;
      }
    </style>
  </defs>
  <g id="Layer_1-2" data-name="Layer 1">
    <path class="cls-1" d="M10.9,16.8L.14,6.03c-.18-.18-.18-.48,0-.66L5.37.14c.18-.18.48-.18.66,0l10.77,10.77,5.28-5.28c.08-.07.18-.12.29-.13.26-.02.48.17.5.42l1.62,18.07s0,.06,0,.09c-.02.26-.25.45-.5.42l-18.05-1.62c-.11,0-.23-.05-.32-.14-.18-.18-.18-.48,0-.66l5.28-5.28Z"/>
  </g>
</svg>