<?xml version="1.0" encoding="UTF-8"?>
<svg id="Layer_2" data-name="Layer 2" xmlns="http://www.w3.org/2000/svg" viewBox="0 0 27.54 16.63">
  <defs>
    <style>
      .cls-1 {
        fill: #fff;
        fill-rule: evenodd;
      }
    </style>
  </defs>
  <g id="Layer_1-2" data-name="Layer 1">
    <path class="cls-1" d="M16.03,7.77c.96.34,1.82.9,2.53,1.6,1.23,1.23,1.99,2.93,1.99,4.8v.79c0,.46-.19.88-.49,1.18h0c-.3.31-.72.49-1.18.49h-10.24c-.46,0-.88-.19-1.18-.49l-.04-.05c-.28-.3-.45-.7-.45-1.14v-.79c0-1.87.76-3.57,1.99-4.8.71-.71,1.57-1.26,2.53-1.6-.26-.17-.5-.36-.71-.57-.76-.76-1.23-1.82-1.23-2.98s.47-2.22,1.23-2.98c.76-.76,1.82-1.23,2.98-1.23s2.22.47,2.98,1.23c.76.76,1.23,1.82,1.23,2.98s-.47,2.22-1.23,2.98c-.22.22-.46.41-.71.57h0ZM24.5,7.84c.09-.07.17-.15.25-.23h0c.58-.58.94-1.38.94-2.26s-.36-1.68-.94-2.26h0c-.58-.58-1.38-.94-2.26-.94s-1.68.36-2.26.94-.94,1.38-.94,2.26.36,1.68.94,2.26h0c.08.08.16.16.25.23-.34.15-.65.33-.95.54-.02.01-.04.03-.06.05-.27.25-.29.67-.04.94.54.6.98,1.29,1.29,2.04.29.72.46,1.49.49,2.3v.04c0,.37.3.67.67.67h4.28c.38,0,.73-.16.98-.41h0c.25-.25.41-.6.41-.98v-.56c0-1.39-.57-2.65-1.48-3.57-.44-.44-.97-.81-1.55-1.06h0ZM7.06,7.84c.09-.07.17-.15.25-.23h0c.58-.58.94-1.38.94-2.26s-.36-1.69-.94-2.26c-.58-.58-1.38-.94-2.26-.94s-1.68.36-2.26.94h0c-.58.58-.94,1.38-.94,2.26s.36,1.68.94,2.26h0c.08.08.16.16.25.23-.58.26-1.11.62-1.55,1.06-.91.91-1.48,2.18-1.48,3.57v.56c0,.38.16.73.41.98.25.25.6.41.98.41h4.28c.37,0,.67-.3.67-.67v-.04c.03-.81.2-1.58.49-2.3.31-.76.74-1.45,1.29-2.04.25-.27.23-.69-.04-.94l-.06-.05c-.29-.21-.61-.39-.95-.54Z"/>
  </g>
</svg>