<?xml version="1.0" encoding="UTF-8"?>
<svg id="Layer_2" data-name="Layer 2" xmlns="http://www.w3.org/2000/svg" viewBox="0 0 160.54 160.52">
  <defs>
    <style>
      .cls-1 {
        fill: #080a16;
      }
    </style>
  </defs>
  <g id="Calque_1" data-name="Calque 1">
    <g>
      <path class="cls-1" d="M80.24,0h0s80.3,0,80.3,0v80.3h0c-44.35,0-80.3-35.95-80.3-80.3Z"/>
      <path class="cls-1" d="M0,0h0s80.3,0,80.3,0v80.3h0C35.95,80.3,0,44.35,0,0Z"/>
      <path class="cls-1" d="M80.24,80.23h0s80.3,0,80.3,0v80.3h0c-44.35,0-80.3-35.95-80.3-80.3Z"/>
      <path class="cls-1" d="M0,80.23h0s80.3,0,80.3,0v80.3h0C35.95,160.52,0,124.57,0,80.23Z"/>
    </g>
  </g>
</svg>