<?xml version="1.0" encoding="UTF-8"?>
<svg id="Layer_2" data-name="Layer 2" xmlns="http://www.w3.org/2000/svg" viewBox="0 0 25.46 25.46">
  <defs>
    <style>
      .cls-1 {
        fill: #fff;
        fill-rule: evenodd;
      }
    </style>
  </defs>
  <g id="Layer_1-2" data-name="Layer 1">
    <path class="cls-1" d="M15.14,3.74l1.87-2.55c.21-.29.61-.36.9-.16l2.39,1.38c.3.17.41.53.28.84l-1.27,2.9,2.9-1.27c.31-.14.67-.01.84.28l1.4,2.42c.17.3.09.67-.18.87l-2.55,1.87,3.14.35c.36.04.61.35.59.7v2.76c0,.34-.26.62-.59.66h0s-3.14.35-3.14.35l2.55,1.87c.29.21.36.61.16.9l-1.38,2.39c-.17.3-.53.41-.84.28l-2.9-1.27,1.27,2.9c.14.31.01.67-.28.84l-2.42,1.4c-.3.17-.67.09-.87-.18l-1.87-2.55-.35,3.14c-.04.36-.35.61-.7.59h-2.76c-.34,0-.62-.26-.66-.59h0l-.35-3.14-1.87,2.55c-.21.29-.61.36-.9.16l-2.39-1.38c-.3-.17-.41-.53-.28-.84l1.27-2.9-2.9,1.27c-.31.14-.67.01-.84-.28l-1.4-2.42c-.17-.3-.09-.67.18-.87l2.55-1.87-3.14-.35c-.36-.04-.61-.35-.59-.7v-2.76c0-.34.26-.62.59-.66h0s3.14-.35,3.14-.35l-2.55-1.87c-.29-.21-.36-.61-.16-.9l1.38-2.39c.17-.3.53-.41.84-.28l2.9,1.27-1.27-2.9c-.14-.32,0-.7.31-.86l2.39-1.38c.3-.17.67-.09.87.18l1.88,2.55.35-3.14C10.71.25,11,0,11.33,0h2.8c.36,0,.65.28.67.63l.35,3.1h0ZM16.12,9.34c-.87-.87-2.06-1.4-3.39-1.4s-2.52.54-3.39,1.4-1.4,2.06-1.4,3.39.54,2.52,1.4,3.39,2.06,1.4,3.39,1.4,2.52-.54,3.39-1.4c.87-.87,1.4-2.06,1.4-3.39s-.54-2.52-1.4-3.39Z"/>
  </g>
</svg>