<?xml version="1.0" encoding="UTF-8"?>
<svg id="Layer_2" data-name="Layer 2" xmlns="http://www.w3.org/2000/svg" viewBox="0 0 32.83 12.34">
  <defs>
    <style>
      .cls-1 {
        fill: #fff;
        fill-rule: evenodd;
      }
    </style>
  </defs>
  <g id="Layer_1-2" data-name="Layer 1">
    <path class="cls-1" d="M27.08,0h.03l5.33,5.22c.27.26.4.58.4.95s-.13.69-.4.95l-5.33,5.22h-.03c-6.27-2.84-13.86-4.51-22.04-4.51-1.22,0-2.43.04-3.62.11-.38.02-.72-.1-.99-.36-.28-.26-.42-.59-.42-.97v-.89c0-.38.14-.71.42-.97.28-.26.61-.38.99-.36,1.19.07,2.4.11,3.62.11,8.18,0,15.77-1.67,22.04-4.51Z"/>
  </g>
</svg>