<?xml version="1.0" encoding="UTF-8"?>
<svg id="Layer_2" data-name="Layer 2" xmlns="http://www.w3.org/2000/svg" viewBox="0 0 31.82 24.77">
  <defs>
    <style>
      .cls-1 {
        fill: #fff;
        fill-rule: evenodd;
      }
    </style>
  </defs>
  <g id="Layer_1-2" data-name="Layer 1">
    <path class="cls-1" d="M14.96,16.96c-.8-.04-1.61-.06-2.43-.04l2.38,6.25c.14.38-.05.8-.42.94-.03.01-.06.02-.09.03l-2.01.6c-.3.09-.61-.03-.79-.26l-5.57-6.84-2.04-6.67c.07-.17.21-.32.4-.39,2.74-1.1,5.24-2.52,7.44-4.12,2.39-1.74,4.41-3.7,6.01-5.69.09-.11.21-.2.36-.24.39-.11.79.11.9.49l1.49,5.01c.57-.02,1.14.14,1.63.43.68.4,1.22,1.07,1.47,1.91l.2.68c.25.83.15,1.69-.19,2.4-.25.51-.64.95-1.13,1.25l1.43,4.82c.05.15.06.32,0,.48-.13.38-.54.59-.92.46-2.42-.8-5.19-1.33-8.13-1.49h0ZM5.62,17.63l-1.98-6.48-1.21.36h0c-.88.26-1.57.85-1.99,1.59l-.03.04C0,13.9-.12,14.82.14,15.71h0c.27.9.87,1.61,1.64,2.02.76.41,1.68.54,2.57.27l1.27-.38h0ZM25.18,11.98c-.37-.16-.54-.59-.38-.95.16-.37.59-.54.95-.38l5.19,2.25c.37.16.54.59.38.95-.16.37-.59.54-.95.38l-5.19-2.25h0ZM24.34,5.85l3.12-4.72c.22-.34.13-.79-.2-1.01-.34-.22-.79-.13-1.01.21l-3.12,4.72c-.22.34-.13.79.2,1.01.34.22.79.13,1.01-.21h0ZM25.87,8.76c-.39.11-.79-.11-.9-.49-.11-.39.11-.79.49-.9l5.42-1.61c.39-.11.79.11.9.49.11.39-.11.79-.49.9l-5.42,1.61Z"/>
  </g>
</svg>