<?xml version="1.0" encoding="UTF-8"?>
<svg id="Layer_2" data-name="Layer 2" xmlns="http://www.w3.org/2000/svg" viewBox="0 0 64.98 69.43">
  <g id="Layer_1-2" data-name="Layer 1">
    <path d="M5.35,69.43c-.69,0-1.38-.13-2.05-.41-2-.83-3.3-2.77-3.3-4.94V11.21C0,5.03,5.03,0,11.21,0h42.55c6.18,0,11.21,5.03,11.21,11.21v52.87c0,2.17-1.29,4.11-3.3,4.94-2,.83-4.29.38-5.82-1.16l-23.13-23.13c-.17-.17-.32-.17-.49,0l-23.13,23.13c-1.02,1.02-2.38,1.57-3.77,1.57ZM11.21,5c-3.43,0-6.21,2.79-6.21,6.21v52.87c0,.07,0,.23.21.32.21.09.32-.02.37-.07l23.13-23.13c1.01-1.01,2.35-1.57,3.78-1.57s2.77.56,3.78,1.57l23.13,23.13c.05.05.16.16.37.07.21-.09.21-.25.21-.32V11.21c0-3.43-2.79-6.21-6.21-6.21H11.21Z"/>
  </g>
</svg>