<?xml version="1.0" encoding="UTF-8"?>
<svg id="Layer_2" data-name="Layer 2" xmlns="http://www.w3.org/2000/svg" viewBox="0 0 31.51 27.48">
  <defs>
    <style>
      .cls-1 {
        fill: #fff;
        fill-rule: evenodd;
      }
    </style>
  </defs>
  <g id="Layer_1-2" data-name="Layer 1">
    <path class="cls-1" d="M1.77,0c.98,0,1.77.79,1.77,1.77s-.79,1.77-1.77,1.77-1.77-.79-1.77-1.77S.79,0,1.77,0h0ZM17.77,0c.98,0,1.77.79,1.77,1.77s-.79,1.77-1.77,1.77-1.77-.79-1.77-1.77.79-1.77,1.77-1.77h0ZM17.77,11.97c.98,0,1.77.79,1.77,1.77s-.79,1.77-1.77,1.77-1.77-.79-1.77-1.77.79-1.77,1.77-1.77h0ZM29.74,11.97c.98,0,1.77.79,1.77,1.77s-.79,1.77-1.77,1.77-1.77-.79-1.77-1.77.79-1.77,1.77-1.77h0ZM25.75,15.96c.98,0,1.77.79,1.77,1.77s-.79,1.77-1.77,1.77-1.77-.79-1.77-1.77.79-1.77,1.77-1.77h0ZM25.75,11.97c.98,0,1.77.79,1.77,1.77s-.79,1.77-1.77,1.77-1.77-.79-1.77-1.77.79-1.77,1.77-1.77h0ZM25.75,7.98c.98,0,1.77.79,1.77,1.77s-.79,1.77-1.77,1.77-1.77-.79-1.77-1.77.79-1.77,1.77-1.77h0ZM21.76,19.96c.98,0,1.77.79,1.77,1.77s-.79,1.77-1.77,1.77-1.77-.79-1.77-1.77.79-1.77,1.77-1.77h0ZM21.76,15.96c.98,0,1.77.79,1.77,1.77s-.79,1.77-1.77,1.77-1.77-.79-1.77-1.77.79-1.77,1.77-1.77h0ZM21.76,11.97c.98,0,1.77.79,1.77,1.77s-.79,1.77-1.77,1.77-1.77-.79-1.77-1.77.79-1.77,1.77-1.77h0ZM21.76,7.98c.98,0,1.77.79,1.77,1.77s-.79,1.77-1.77,1.77-1.77-.79-1.77-1.77.79-1.77,1.77-1.77h0ZM21.76,3.99c.98,0,1.77.79,1.77,1.77s-.79,1.77-1.77,1.77-1.77-.79-1.77-1.77.79-1.77,1.77-1.77h0ZM17.77,23.95c.98,0,1.77.79,1.77,1.77s-.79,1.77-1.77,1.77-1.77-.79-1.77-1.77.79-1.77,1.77-1.77h0ZM17.77,19.96c.98,0,1.77.79,1.77,1.77s-.79,1.77-1.77,1.77-1.77-.79-1.77-1.77.79-1.77,1.77-1.77h0ZM17.77,15.96c.98,0,1.77.79,1.77,1.77s-.79,1.77-1.77,1.77-1.77-.79-1.77-1.77.79-1.77,1.77-1.77h0ZM17.77,7.98c.98,0,1.77.79,1.77,1.77s-.79,1.77-1.77,1.77-1.77-.79-1.77-1.77.79-1.77,1.77-1.77h0ZM17.77,3.99c.98,0,1.77.79,1.77,1.77s-.79,1.77-1.77,1.77-1.77-.79-1.77-1.77.79-1.77,1.77-1.77h0ZM1.77,11.97c.98,0,1.77.79,1.77,1.77s-.79,1.77-1.77,1.77-1.77-.79-1.77-1.77.79-1.77,1.77-1.77h0ZM13.74,11.97c.98,0,1.77.79,1.77,1.77s-.79,1.77-1.77,1.77-1.77-.79-1.77-1.77.79-1.77,1.77-1.77h0ZM9.75,15.96c.98,0,1.77.79,1.77,1.77s-.79,1.77-1.77,1.77-1.77-.79-1.77-1.77.79-1.77,1.77-1.77h0ZM9.75,11.97c.98,0,1.77.79,1.77,1.77s-.79,1.77-1.77,1.77-1.77-.79-1.77-1.77.79-1.77,1.77-1.77h0ZM9.75,7.98c.98,0,1.77.79,1.77,1.77s-.79,1.77-1.77,1.77-1.77-.79-1.77-1.77.79-1.77,1.77-1.77h0ZM5.76,19.96c.98,0,1.77.79,1.77,1.77s-.79,1.77-1.77,1.77-1.77-.79-1.77-1.77.79-1.77,1.77-1.77h0ZM5.76,15.96c.98,0,1.77.79,1.77,1.77s-.79,1.77-1.77,1.77-1.77-.79-1.77-1.77.79-1.77,1.77-1.77h0ZM5.76,11.97c.98,0,1.77.79,1.77,1.77s-.79,1.77-1.77,1.77-1.77-.79-1.77-1.77.79-1.77,1.77-1.77h0ZM5.76,7.98c.98,0,1.77.79,1.77,1.77s-.79,1.77-1.77,1.77-1.77-.79-1.77-1.77.79-1.77,1.77-1.77h0ZM5.76,3.99c.98,0,1.77.79,1.77,1.77s-.79,1.77-1.77,1.77-1.77-.79-1.77-1.77.79-1.77,1.77-1.77h0ZM1.77,23.95c.98,0,1.77.79,1.77,1.77s-.79,1.77-1.77,1.77-1.77-.79-1.77-1.77.79-1.77,1.77-1.77h0ZM1.77,19.96c.98,0,1.77.79,1.77,1.77s-.79,1.77-1.77,1.77-1.77-.79-1.77-1.77.79-1.77,1.77-1.77h0ZM1.77,15.96c.98,0,1.77.79,1.77,1.77s-.79,1.77-1.77,1.77-1.77-.79-1.77-1.77.79-1.77,1.77-1.77h0ZM1.77,7.98c.98,0,1.77.79,1.77,1.77s-.79,1.77-1.77,1.77-1.77-.79-1.77-1.77.79-1.77,1.77-1.77h0ZM1.77,3.99c.98,0,1.77.79,1.77,1.77s-.79,1.77-1.77,1.77-1.77-.79-1.77-1.77.79-1.77,1.77-1.77Z"/>
  </g>
</svg>