<?xml version="1.0" encoding="UTF-8"?>
<svg id="Layer_2" data-name="Layer 2" xmlns="http://www.w3.org/2000/svg" viewBox="0 0 27.72 26.94">
  <defs>
    <style>
      .cls-1 {
        fill: #fff;
        fill-rule: evenodd;
      }
    </style>
  </defs>
  <g id="Layer_1-2" data-name="Layer 1">
    <path class="cls-1" d="M26.26,11.91h-10.07v-7.29h1.8c1.11-.17,1.83-.51,2.24-.92h0c.47-.46.44-1.04.13-1.48-.36-.51-1.08-.86-1.92-.73-1,.15-2.16.96-3.18,2.87h.35c.24,0,.44.2.44.44v21.69c0,.25-.2.46-.44.46h-3.5c-.24,0-.44-.21-.44-.46V4.79c0-.24.2-.44.44-.44h.35c-1.02-1.91-2.18-2.71-3.18-2.87-.84-.13-1.56.22-1.92.73-.31.44-.33,1.02.13,1.48h0c.41.41,1.13.75,2.24.92h1.8v7.29H.73c-.4,0-.73-.33-.73-.73v-5.84c0-.4.33-.73.73-.73h5.63c-.94-1.03-.87-2.28-.19-3.24C6.82.45,8.07-.17,9.49.04c1.44.22,3.06,1.3,4.37,3.85C15.17,1.34,16.79.26,18.23.04c1.43-.22,2.67.41,3.33,1.33.68.96.75,2.22-.19,3.24h5.63c.4,0,.73.33.73.73v5.84c0,.4-.33.73-.73.73h-.73ZM26.26,12.2h-10.07v14.3h9.34c.4,0,.73-.33.73-.73v-13.57h0ZM11.53,26.5v-14.3H1.46v13.57c0,.4.33.73.73.73h9.34Z"/>
  </g>
</svg>