<?xml version="1.0" encoding="UTF-8"?>
<svg id="Layer_2" data-name="Layer 2" xmlns="http://www.w3.org/2000/svg" viewBox="0 0 25.77 29.66">
  <defs>
    <style>
      .cls-1 {
        fill: #fff;
        fill-rule: evenodd;
      }
    </style>
  </defs>
  <g id="Layer_1-2" data-name="Layer 1">
    <path class="cls-1" d="M6.28,4.18h0c.19,0,.4.01.61.03h.09c.62-1.19,1.55-2.21,2.68-2.94,1.23-.8,2.7-1.27,4.28-1.27,1.95,0,3.73.71,5.1,1.89,1.28,1.1,2.19,2.59,2.56,4.29,1.12.26,2.1.86,2.83,1.7.83.94,1.33,2.17,1.33,3.51,0,1.48-.6,2.82-1.58,3.78-.98.97-2.32,1.57-3.8,1.57h0c-.85,0-5.9,0-9.81,0-2.19,0-4.02,0-4.55-.01-1.65-.02-3.15-.76-4.23-1.89-1.11-1.16-1.8-2.73-1.8-4.38,0-1.73.71-3.3,1.85-4.44s2.71-1.85,4.44-1.85h0ZM8.95,23.76l1.75-5.13c.08-.28.34-.49.64-.49h3.31c.1,0,.19.02.29.07.33.16.47.55.31.89l-1,2.09h1.95c.13,0,.27.04.39.12.3.21.37.63.16.93l-5.07,7.12c-.15.24-.44.36-.72.29-.36-.09-.57-.45-.48-.81l1.05-4.2h-1.93c-.07,0-.14-.01-.21-.04-.35-.12-.53-.5-.42-.84Z"/>
  </g>
</svg>