<?xml version="1.0" encoding="UTF-8"?>
<svg id="Layer_2" data-name="Layer 2" xmlns="http://www.w3.org/2000/svg" viewBox="0 0 26.05 20.03">
  <defs>
    <style>
      .cls-1 {
        fill: #fff;
        fill-rule: evenodd;
      }
    </style>
  </defs>
  <g id="Layer_1-2" data-name="Layer 1">
    <path class="cls-1" d="M3.1,7.19l-1.91-.81c-.68-.28-.99-1.07-.71-1.74L2.09.81C2.38.14,3.16-.18,3.84.1c7.14,3.01,14.27,6.02,21.41,9.02.51.22.82.69.81,1.25,0,.56-.34,1.02-.86,1.22L3.29,19.94c-.69.26-1.46-.09-1.72-.77L.09,15.27c-.26-.69.09-1.46.77-1.72l6.01-2.29c.52-.2.85-.67.86-1.22,0-.56-.3-1.03-.81-1.25l-3.81-1.61Z"/>
  </g>
</svg>