<?xml version="1.0" encoding="UTF-8"?>
<svg id="Layer_2" data-name="Layer 2" xmlns="http://www.w3.org/2000/svg" viewBox="0 0 21.77 25.69">
  <defs>
    <style>
      .cls-1 {
        fill: #fff;
        fill-rule: evenodd;
      }
    </style>
  </defs>
  <g id="Layer_1-2" data-name="Layer 1">
    <path class="cls-1" d="M1.33,16.87h2.66c.45,0,.85.21,1.1.58.26.38.3.82.14,1.24l-2.05,5.17c-.22.56-.05,1.17.42,1.54.47.37,1.11.38,1.6.03l16.01-11.51c.36-.26.55-.64.55-1.08s-.2-.82-.55-1.08L5.2.25c-.49-.35-1.12-.34-1.6.03-.47.37-.64.98-.42,1.54l2.05,5.17c.17.42.12.86-.14,1.24-.26.38-.65.58-1.1.58H1.33c-.73,0-1.33.6-1.33,1.33v5.39c0,.73.6,1.33,1.33,1.33Z"/>
  </g>
</svg>