<?xml version="1.0" encoding="UTF-8"?>
<svg id="Layer_2" data-name="Layer 2" xmlns="http://www.w3.org/2000/svg" viewBox="0 0 21.47 21.02">
  <defs>
    <style>
      .cls-1 {
        fill: #fff;
        fill-rule: evenodd;
      }
    </style>
  </defs>
  <g id="Layer_1-2" data-name="Layer 1">
    <path class="cls-1" d="M18.8,12.69c0-.74.6-1.33,1.33-1.33s1.33.6,1.33,1.33v6.99c0,.74-.6,1.33-1.33,1.33H1.33c-.74,0-1.33-.6-1.33-1.33V1.33C0,.6.6,0,1.33,0h7.59c.74,0,1.33.6,1.33,1.33s-.6,1.33-1.33,1.33H2.67v15.69h16.13v-5.66h0ZM18.8,4.33v4.01c0,.74.6,1.33,1.33,1.33s1.33-.6,1.33-1.33V1.33c0-.74-.6-1.33-1.33-1.33h-6.97c-.74,0-1.33.6-1.33,1.33s.6,1.33,1.33,1.33h3.53l-7.48,7.48c-.52.52-.52,1.36,0,1.88.52.52,1.36.52,1.88,0l7.71-7.71Z"/>
  </g>
</svg>