<?xml version="1.0" encoding="UTF-8"?>
<svg id="Layer_2" data-name="Layer 2" xmlns="http://www.w3.org/2000/svg" viewBox="0 0 20.6 23.74">
  <defs>
    <style>
      .cls-1 {
        fill: #fff;
        fill-rule: evenodd;
      }
    </style>
  </defs>
  <g id="Layer_1-2" data-name="Layer 1">
    <path class="cls-1" d="M1.16,7.13L8.12,1.03c.65-.57,1.45-.85,2.25-.84.8,0,1.6.29,2.25.86l1.18,1.05v-.75c0-.37.15-.71.4-.95.24-.24.58-.4.95-.4h2.23c.37,0,.71.15.95.4.24.24.4.58.4.95v5.13l.74.66c.37.33.65.71.85,1.14.19.43.29.9.29,1.39v10.67c0,.94-.38,1.78-1,2.4s-1.46,1-2.4,1h-2.83c-.37,0-.71-.15-.95-.4-.02-.02-.03-.03-.05-.05v-7.92c0-.41-.34-.75-.75-.75h-4.64c-.41,0-.75.34-.75.75v7.92s-.03.03-.05.05c-.24.24-.58.4-.95.4h-2.83c-.94,0-1.78-.38-2.4-1s-1-1.46-1-2.4v-10.66c0-.5.1-.97.3-1.4.19-.43.48-.82.86-1.15Z"/>
  </g>
</svg>