<?xml version="1.0" encoding="UTF-8"?>
<svg id="Layer_2" data-name="Layer 2" xmlns="http://www.w3.org/2000/svg" viewBox="0 0 22.5 26.94">
  <defs>
    <style>
      .cls-1 {
        fill: #fff;
        fill-rule: evenodd;
      }
    </style>
  </defs>
  <g id="Layer_1-2" data-name="Layer 1">
    <path class="cls-1" d="M10,0c1.68,0,3.19.68,4.29,1.78,1.1,1.1,1.78,2.62,1.78,4.29s-.68,3.19-1.78,4.29c-.5.5-1.08.91-1.73,1.21.71.19,1.39.46,2.03.79l-7.56,7.63c-.26.26-.39.6-.39.94,0,.31.11.62.32.87.02.03.04.05.07.08l2.76,2.76H2.2c-.61,0-1.16-.25-1.56-.65s-.65-.95-.65-1.56v-1.2c0-2.75,1.12-5.25,2.94-7.06,1.23-1.23,2.77-2.14,4.5-2.6-.64-.3-1.23-.71-1.73-1.21-1.1-1.1-1.78-2.62-1.78-4.29s.68-3.19,1.78-4.29c1.1-1.1,2.62-1.78,4.29-1.78h0ZM22.5,12.45c0-.37-.29-.66-.66-.67l-5.43-.03c-.18,0-.35.07-.47.2l-8.43,8.5c-.26.26-.26.68,0,.94h0s5.35,5.35,5.35,5.35c.26.26.68.26.94,0l.03-.03,8.45-8.41c.14-.14.2-.32.2-.5l.03-5.34h0ZM20.64,15.15c0,.36-.12.71-.37,1l-.07.07c-.29.29-.67.44-1.06.44-.36,0-.71-.12-1-.37l-.07-.07c-.29-.29-.44-.67-.44-1.06,0-.36.12-.71.37-1l.07-.07c.29-.29.67-.44,1.06-.44.36,0,.71.12,1,.37l.07.07c.29.29.44.67.44,1.06h0ZM19.99,21.51v.92c0,.61-.25,1.16-.65,1.56-.4.4-.95.65-1.56.65h-.94l3.14-3.13Z"/>
  </g>
</svg>