<?xml version="1.0" encoding="UTF-8"?>
<svg id="Layer_2" data-name="Layer 2" xmlns="http://www.w3.org/2000/svg" viewBox="0 0 160.55 160.54">
  <defs>
    <style>
      .cls-1 {
        fill: #080a16;
      }
    </style>
  </defs>
  <g id="Calque_1" data-name="Calque 1">
    <path class="cls-1" d="M137.04,23.51C121.88,8.36,101.72,0,80.28,0,36.01,0,0,36.01,0,80.26v80.28h57v-80.28c0-12.83,10.45-23.27,23.28-23.27,6.21,0,12.05,2.42,16.45,6.82,4.4,4.4,6.82,10.24,6.82,16.45v80.28h57.01v-80.28c0-21.43-8.35-41.59-23.51-56.75ZM128.17,152.78h-16.86v-72.52c0-8.28-3.23-16.08-9.09-21.93-5.86-5.86-13.66-9.09-21.93-9.09-17.11,0-31.04,13.92-31.04,31.03v72.52h-16.85v-72.52c0-26.41,21.48-47.89,47.89-47.89,12.79,0,24.82,4.98,33.87,14.02,9.04,9.05,14.02,21.08,14.02,33.87v72.52ZM152.79,152.78h-16.86v-72.52c0-14.86-5.78-28.84-16.3-39.35-10.53-10.52-24.5-16.3-39.36-16.3-30.69,0-55.65,24.96-55.65,55.65v72.52H7.76v-72.52C7.76,40.29,40.29,7.76,80.28,7.76c19.37,0,37.58,7.54,51.28,21.24,13.7,13.7,21.24,31.91,21.24,51.27v72.52Z"/>
  </g>
</svg>