<?xml version="1.0" encoding="UTF-8"?>
<svg id="Layer_2" data-name="Layer 2" xmlns="http://www.w3.org/2000/svg" viewBox="0 0 66.55 73.5">
  <g id="Layer_1-2" data-name="Layer 1">
    <path d="M20.91,73.5c-5.36,0-10.72-2.04-14.79-6.12-8.16-8.16-8.16-21.43,0-29.59L39.6,4.31c5.74-5.74,15.08-5.74,20.82,0,5.74,5.74,5.74,15.08,0,20.82L27.52,58.03c-1.61,1.61-3.75,2.5-6.03,2.5s-4.42-.89-6.03-2.5c-1.61-1.61-2.5-3.75-2.5-6.03s.89-4.42,2.5-6.03l29.73-29.73c.98-.98,2.56-.98,3.54,0,.98.98.98,2.56,0,3.54l-29.73,29.73c-.67.67-1.03,1.55-1.03,2.49s.37,1.83,1.03,2.49c1.33,1.33,3.66,1.33,4.99,0L56.89,21.6c3.79-3.79,3.79-9.96,0-13.75-3.79-3.79-9.96-3.79-13.75,0L9.65,41.32c-6.21,6.21-6.21,16.31,0,22.52,6.21,6.21,16.31,6.21,22.52,0l30.11-30.11c.98-.98,2.56-.98,3.54,0,.98.98.98,2.56,0,3.54l-30.11,30.11c-4.08,4.08-9.44,6.12-14.79,6.12Z"/>
  </g>
</svg>