<?xml version="1.0" encoding="UTF-8"?>
<svg id="Layer_2" data-name="Layer 2" xmlns="http://www.w3.org/2000/svg" viewBox="0 0 25.82 29.73">
  <defs>
    <style>
      .cls-1 {
        fill: #fff;
        fill-rule: evenodd;
      }
    </style>
  </defs>
  <g id="Layer_1-2" data-name="Layer 1">
    <path class="cls-1" d="M6.3,4.19h0c.19,0,.4.01.62.03h.09c.63-1.19,1.55-2.21,2.68-2.95,1.23-.81,2.71-1.27,4.29-1.27,1.95,0,3.74.71,5.11,1.89,1.28,1.1,2.2,2.6,2.57,4.3,1.12.26,2.1.87,2.84,1.7.83.95,1.33,2.18,1.33,3.52,0,1.48-.6,2.82-1.58,3.79-.98.97-2.33,1.57-3.81,1.57h0c-.85,0-5.9,0-9.81,0-2.2,0-4.05,0-4.58-.01-1.66-.02-3.15-.76-4.24-1.9-1.11-1.16-1.8-2.74-1.8-4.39,0-1.73.71-3.31,1.85-4.45,1.14-1.14,2.72-1.85,4.45-1.85h0ZM12.34,23.81l1.75-5.14c.08-.28.34-.49.64-.49h3.32c.1,0,.19.02.29.07.33.16.47.55.31.89l-1,2.09h1.95c.13,0,.27.04.39.12.3.21.37.63.16.93l-5.08,7.14c-.15.24-.44.36-.72.29-.36-.09-.57-.45-.48-.81l1.06-4.21h-1.94c-.07,0-.14-.01-.21-.04-.35-.12-.53-.5-.42-.84h0ZM11.06,18.51l-4.59,7.95c-.18.32-.08.72.24.91.32.18.72.08.91-.24l4.59-7.95c.18-.32.08-.72-.24-.91-.32-.18-.72-.08-.91.24h0ZM6.7,18.51c.18-.32.59-.43.91-.24.32.18.43.59.24.91l-4.59,7.95c-.18.32-.59.43-.91.24-.32-.18-.43-.59-.24-.91l4.59-7.95Z"/>
  </g>
</svg>