<?xml version="1.0" encoding="UTF-8"?>
<svg id="Layer_2" data-name="Layer 2" xmlns="http://www.w3.org/2000/svg" viewBox="0 0 23.29 25.56">
  <defs>
    <style>
      .cls-1 {
        fill: #fff;
        fill-rule: evenodd;
      }
    </style>
  </defs>
  <g id="Layer_1-2" data-name="Layer 1">
    <path class="cls-1" d="M10,0c1.68,0,3.19.68,4.29,1.78s1.78,2.62,1.78,4.29-.68,3.19-1.78,4.29c-.5.5-1.08.91-1.73,1.21,1.72.46,3.27,1.37,4.5,2.6.1.1.21.21.31.32-.1.07-.19.14-.29.21-.13.11-.26.22-.37.34-.12-.12-.24-.23-.37-.34h0c-.36-.28-.74-.5-1.17-.64-.43-.14-.89-.21-1.41-.21-.58,0-1.13.12-1.64.33-.53.22-1,.54-1.39.93-.39.39-.71.86-.93,1.39-.21.51-.33,1.06-.33,1.64,0,.93.17,1.75.5,2.51.33.75.81,1.42,1.43,2.05.56.57,1.23,1.11,2.01,1.66.13.09.27.18.4.28H2.2c-.61,0-1.16-.25-1.56-.65-.4-.4-.65-.95-.65-1.56v-1.2c0-2.75,1.12-5.25,2.94-7.06,1.23-1.23,2.77-2.14,4.5-2.6-.64-.3-1.23-.71-1.73-1.21-1.1-1.1-1.78-2.62-1.78-4.29s.68-3.19,1.78-4.29c1.1-1.1,2.62-1.78,4.29-1.78h0ZM16.7,16.08c-.24-.34-.5-.63-.79-.86-.59-.47-1.27-.7-2.17-.7-1,0-1.91.41-2.56,1.06-.66.66-1.06,1.56-1.06,2.56,0,1.67.6,2.93,1.74,4.09,1.05,1.08,2.56,2.05,4.47,3.21.2.14.47.16.7.03,2.15-1.2,3.68-2.18,4.69-3.27,1.08-1.16,1.57-2.41,1.57-4.07,0-1-.41-1.91-1.06-2.56-.66-.66-1.56-1.06-2.56-1.06-.9,0-1.58.23-2.17.7-.29.23-.55.52-.79.86Z"/>
  </g>
</svg>