<?xml version="1.0" encoding="UTF-8"?>
<svg id="Layer_2" data-name="Layer 2" xmlns="http://www.w3.org/2000/svg" viewBox="0 0 29.63 28.13">
  <defs>
    <style>
      .cls-1 {
        fill: #fff;
        fill-rule: evenodd;
      }
    </style>
  </defs>
  <g id="Layer_1-2" data-name="Layer 1">
    <path class="cls-1" d="M5.73,9.67h0c.17,0,.36.01.56.03h.04c.57-1.07,1.4-1.98,2.41-2.64,1.12-.73,2.45-1.16,3.89-1.16,1.77,0,3.39.65,4.64,1.72,1.15.99,1.98,2.33,2.32,3.86,1,.24,1.88.79,2.54,1.54.75.86,1.21,1.99,1.21,3.21,0,1.35-.55,2.57-1.44,3.45-.89.89-2.12,1.43-3.47,1.43h0c-.77,0-5.31,0-8.83,0-1.97,0-3.63,0-4.11-.01-1.51-.02-2.87-.69-3.86-1.72-1.01-1.06-1.64-2.49-1.64-3.99,0-1.58.64-3.01,1.68-4.05,1.04-1.04,2.47-1.68,4.05-1.68h0ZM17.89,23.6c.5.91,1,1.84,1,2.66,0,.91-.55,1.49-1.26,1.74-.25.09-.52.13-.79.13-.27,0-.54-.05-.79-.14-.69-.26-1.23-.84-1.21-1.73.01-.86.56-1.86,1.08-2.8.12-.21.23-.42.36-.66.06-.12.16-.23.3-.29.33-.16.73-.03.89.3.14.27.28.54.43.81h0ZM12.69,23.6c.5.91,1,1.84,1,2.66,0,.91-.55,1.49-1.26,1.74-.25.09-.52.13-.79.13-.27,0-.54-.05-.79-.14-.69-.26-1.23-.84-1.21-1.73.01-.86.56-1.86,1.08-2.8.12-.21.23-.42.36-.67.06-.12.16-.23.3-.29.33-.16.73-.03.89.3.14.27.28.54.43.81h0ZM7.5,23.6c.5.91,1,1.84,1,2.66,0,.91-.55,1.49-1.26,1.74-.25.09-.52.13-.79.13-.27,0-.55-.05-.79-.14h0c-.69-.26-1.23-.84-1.21-1.73.01-.86.56-1.86,1.08-2.8.12-.21.23-.42.36-.67.06-.12.16-.23.3-.29.33-.16.73-.03.89.3.14.27.28.54.43.81h0ZM19.29,4.97c-.81,0-1.58.18-2.27.51-.33.16-.65.34-.94.56.59.29,1.13.65,1.62,1.07.63.54,1.18,1.19,1.61,1.91.36.59.64,1.24.82,1.92.42.13.81.32,1.18.54.49.3.94.67,1.31,1.1.31.36.58.75.79,1.18.26-.31.48-.65.67-1.02.36-.73.57-1.54.57-2.4,0-1.48-.6-2.83-1.57-3.8-.97-.97-2.31-1.57-3.8-1.57h0ZM25.66,3.03c.26-.26.68-.26.94,0,.26.26.26.68,0,.94l-1.91,1.91c-.26.26-.68.26-.94,0-.26-.26-.26-.68,0-.94l1.91-1.91h0ZM28.96,9.68c.37,0,.67.3.67.67s-.3.67-.67.67h-2.7c-.37,0-.67-.3-.67-.67s.3-.67.67-.67h2.7ZM26.6,16.71c.26.26.26.68,0,.94-.26.26-.68.26-.94,0l-1.66-1.66c-.02-.43-.09-.84-.2-1.24.26-.21.65-.19.89.05l1.91,1.91h0ZM11.97,3.97c-.26-.26-.26-.68,0-.94.26-.26.68-.26.94,0l1.91,1.91c.18.18.23.44.17.66-.55-.18-1.13-.29-1.73-.34l-1.29-1.29h0ZM18.62.67c0-.37.3-.67.67-.67s.67.3.67.67v2.7c0,.37-.3.67-.67.67s-.67-.3-.67-.67V.67Z"/>
  </g>
</svg>