<?xml version="1.0" encoding="UTF-8"?>
<svg id="Layer_2" data-name="Layer 2" xmlns="http://www.w3.org/2000/svg" viewBox="0 0 25.81 20.42">
  <defs>
    <style>
      .cls-1 {
        fill: #fff;
        fill-rule: evenodd;
      }
    </style>
  </defs>
  <g id="Layer_1-2" data-name="Layer 1">
    <path class="cls-1" d="M12.95,4.63c1.26-1.93,2.69-3.18,4.14-3.89,1.3-.63,2.61-.82,3.81-.65,1.21.17,2.3.71,3.14,1.51.89.85,1.51,1.99,1.72,3.33.78,4.98-6.23,10.47-12.33,15.25l-.11.09c-.25.19-.59.18-.82,0-.44-.36-.91-.72-1.43-1.13C6.8,15.82-.73,9.96.06,4.94c.21-1.35.84-2.5,1.75-3.36C2.66.77,3.76.23,4.97.06c1.2-.17,2.52.02,3.83.65,1.45.71,2.89,1.97,4.15,3.92Z"/>
  </g>
</svg>