<?xml version="1.0" encoding="UTF-8"?>
<svg id="Layer_2" data-name="Layer 2" xmlns="http://www.w3.org/2000/svg" viewBox="0 0 28.44 22.06">
  <defs>
    <style>
      .cls-1 {
        fill: #fff;
        fill-rule: evenodd;
      }
    </style>
  </defs>
  <g id="Layer_1-2" data-name="Layer 1">
    <path class="cls-1" d="M13.42,14.9L.23,7.28c-.22-.13-.3-.41-.17-.64L3.77.23c.13-.22.41-.3.64-.17l13.19,7.61,3.73-6.47c.05-.09.14-.16.24-.2.24-.09.51.04.6.28l6.24,17.04s.02.06.02.09c.04.25-.12.49-.38.54l-17.86,3.11c-.11.03-.23.01-.34-.05-.22-.13-.3-.41-.17-.64l3.73-6.47Z"/>
  </g>
</svg>