<?xml version="1.0" encoding="UTF-8"?>
<svg id="Layer_2" data-name="Layer 2" xmlns="http://www.w3.org/2000/svg" viewBox="0 0 23.77 23.77">
  <defs>
    <style>
      .cls-1 {
        fill: #fff;
        fill-rule: evenodd;
      }
    </style>
  </defs>
  <g id="Layer_1-2" data-name="Layer 1">
    <path class="cls-1" d="M11.89,0c3.28,0,6.25,1.33,8.4,3.48,2.15,2.15,3.48,5.12,3.48,8.4s-1.33,6.25-3.48,8.4c-2.15,2.15-5.12,3.48-8.4,3.48s-6.25-1.33-8.4-3.48C1.33,18.14,0,15.17,0,11.89S1.33,5.63,3.48,3.48C5.63,1.33,8.6,0,11.89,0h0ZM11.29,3.29v8.59c0,.37.3.67.67.67h6.99c.37,0,.67-.3.67-.67s-.3-.67-.67-.67h-6.33V3.29c0-.37-.3-.67-.67-.67s-.67.3-.67.67Z"/>
  </g>
</svg>