<?xml version="1.0" encoding="UTF-8"?>
<svg id="Layer_2" data-name="Layer 2" xmlns="http://www.w3.org/2000/svg" viewBox="0 0 25.28 20.28">
  <defs>
    <style>
      .cls-1 {
        fill: #fff;
        fill-rule: evenodd;
      }
    </style>
  </defs>
  <g id="Layer_1-2" data-name="Layer 1">
    <path class="cls-1" d="M1.34,0h17.31c.4,0,.74.16,1,.45l5.3,6.06c.35.4.43.94.21,1.43-.22.49-.68.78-1.21.78H6.64c-.4,0-.74-.16-1-.45L.33,2.21C-.02,1.81-.1,1.27.12.78c.22-.49.68-.78,1.21-.78h0ZM24.94,13.76l-5.3,6.06c-.26.3-.6.45-1,.45H1.34c-.53,0-.99-.29-1.21-.78-.22-.49-.14-1.02.21-1.43l5.3-6.06c.26-.3.6-.45,1-.45h17.31c.53,0,.99.29,1.21.78.22.49.14,1.02-.21,1.43Z"/>
  </g>
</svg>