<?xml version="1.0" encoding="UTF-8"?>
<svg id="Layer_2" data-name="Layer 2" xmlns="http://www.w3.org/2000/svg" viewBox="0 0 29.57 29.57">
  <defs>
    <style>
      .cls-1 {
        fill: #fff;
        fill-rule: evenodd;
      }
    </style>
  </defs>
  <g id="Layer_1-2" data-name="Layer 1">
    <path class="cls-1" d="M14.78,0c8.17,0,14.79,6.62,14.79,14.79s-6.62,14.79-14.79,14.79S0,22.95,0,14.79,6.62,0,14.78,0h0ZM13.3,9.88l3.63,4H1.98v1.81h15.2l-4.63,4.6,1.27,1.28,6.59-6.55-1.03-1.14h0s0,0,0,0l-4.73-5.21-.61-.67-1.34,1.22.61.67h0ZM20.48,9.88l4.61,5.08-5.36,5.33,1.27,1.28,6.59-6.55-5.77-6.35-.61-.67-1.34,1.22.61.67h0ZM16.92,9.88l4.61,5.08-5.36,5.33,1.27,1.28,6.58-6.55-5.77-6.35-.61-.67-1.34,1.22.61.67Z"/>
  </g>
</svg>