<?xml version="1.0" encoding="UTF-8"?>
<svg id="Layer_2" data-name="Layer 2" xmlns="http://www.w3.org/2000/svg" viewBox="0 0 30.11 17.46">
  <defs>
    <style>
      .cls-1 {
        fill: #fff;
        fill-rule: evenodd;
      }
    </style>
  </defs>
  <g id="Layer_1-2" data-name="Layer 1">
    <path class="cls-1" d="M6.16,5.14h0c.19,0,.39.01.6.03h.08c.61-1.16,1.52-2.16,2.62-2.88,1.21-.79,2.65-1.25,4.19-1.25,1.91,0,3.66.7,5,1.85,1.25,1.07,2.15,2.54,2.51,4.2,1.09.25,2.05.85,2.77,1.66.81.93,1.3,2.13,1.3,3.45,0,1.45-.59,2.76-1.55,3.71-.96.95-2.28,1.54-3.73,1.54h0c-.83,0-5.77,0-9.59,0-2.14,0-3.93,0-4.46-.01-1.62-.02-3.09-.74-4.15-1.86-1.09-1.14-1.76-2.68-1.76-4.29,0-1.7.69-3.24,1.81-4.35,1.12-1.12,2.66-1.81,4.35-1.81h0ZM17.4,1.27c.61.31,1.18.69,1.69,1.13.68.59,1.27,1.28,1.74,2.06.39.65.69,1.36.89,2.1.46.14.9.34,1.3.58.53.32,1.01.72,1.41,1.18.46.53.84,1.14,1.09,1.81.24.65.38,1.35.38,2.07,0,.22-.01.44-.04.65h.05c1.15,0,2.2-.46,2.96-1.22.76-.75,1.23-1.8,1.23-2.95,0-1.05-.39-2-1.03-2.74-.55-.62-1.28-1.09-2.1-1.3-.3-1.27-.99-2.38-1.95-3.2-1.06-.91-2.43-1.45-3.93-1.45-.9,0-1.76.2-2.53.56-.42.19-.81.43-1.17.71Z"/>
  </g>
</svg>