<?xml version="1.0" encoding="UTF-8"?>
<svg id="Layer_2" data-name="Layer 2" xmlns="http://www.w3.org/2000/svg" viewBox="0 0 28.09 13.59">
  <defs>
    <style>
      .cls-1 {
        fill: #fff;
        fill-rule: evenodd;
      }
    </style>
  </defs>
  <g id="Layer_1-2" data-name="Layer 1">
    <path class="cls-1" d="M14.74.11l12.55,5.46c.5.22.8.68.8,1.22s-.3,1-.8,1.22l-12.55,5.46c-.66.29-1.42,0-1.73-.65-1.19-2.48-3.73-4.2-6.66-4.2-.88,0-1.72.15-2.51.44-.36.13-.71.11-1.05-.06l-2.05-1.03c-.46-.23-.74-.67-.74-1.19s.27-.96.74-1.19l2.06-1.03c.34-.17.69-.19,1.05-.06.78.28,1.63.44,2.51.44,2.94,0,5.47-1.71,6.66-4.2.31-.65,1.08-.93,1.73-.65Z"/>
  </g>
</svg>