<?xml version="1.0" encoding="UTF-8"?>
<svg id="Layer_2" data-name="Layer 2" xmlns="http://www.w3.org/2000/svg" viewBox="0 0 28.61 30.28">
  <defs>
    <style>
      .cls-1 {
        fill: #fff;
        fill-rule: evenodd;
      }
    </style>
  </defs>
  <g id="Layer_1-2" data-name="Layer 1">
    <path class="cls-1" d="M11.57,5.25c0,1.45.59,2.76,1.54,3.71s2.26,1.54,3.71,1.54,2.76-.59,3.71-1.54c.95-.95,1.54-2.26,1.54-3.71s-.59-2.76-1.54-3.71c-.95-.95-2.26-1.54-3.71-1.54s-2.76.59-3.71,1.54c-.95.95-1.54,2.26-1.54,3.71h0ZM14.22,6c-.4,0-.73-.33-.73-.73s.33-.73.73-.73h1.87v-1.87c0-.4.33-.73.73-.73s.73.33.73.73v1.87h1.87c.4,0,.73.33.73.73s-.33.73-.73.73h-1.87v1.87c0,.4-.33.73-.73.73s-.73-.33-.73-.73v-1.87h-1.87ZM6.74,8.04h4.79c.28.53.64,1.01,1.06,1.44h0c.55.55,1.21.99,1.94,1.3.71.29,1.48.45,2.28.45s1.58-.16,2.28-.45h0c.73-.3,1.39-.75,1.94-1.3h0c.42-.42.78-.9,1.06-1.43,1.91,0,3.83,0,5.74.01.07,0,.15,0,.23.02.39.1.62.5.52.89l-3.84,14.58c-.06.34-.36.59-.72.59h-13.31l.24,1c1.11.05,2.04.82,2.34,1.85l6.68.02c.31-1.08,1.3-1.87,2.47-1.87,1.42,0,2.57,1.15,2.57,2.57s-1.15,2.57-2.57,2.57c-1.16,0-2.14-.77-2.46-1.82l-6.7-.02c-.32,1.06-1.3,1.84-2.46,1.84-1.42,0-2.57-1.15-2.57-2.57,0-.95.52-1.78,1.29-2.23-1.58-6.55-3.22-13.06-4.84-19.6H.73c-.4,0-.73-.33-.73-.73s.33-.73.73-.73h4.55c.36,0,.66.26.72.6l.74,3.02Z"/>
  </g>
</svg>