<?xml version="1.0" encoding="UTF-8"?>
<svg id="Layer_2" data-name="Layer 2" xmlns="http://www.w3.org/2000/svg" viewBox="0 0 25.66 26.5">
  <defs>
    <style>
      .cls-1 {
        fill: #fff;
        fill-rule: evenodd;
      }
    </style>
  </defs>
  <g id="Layer_1-2" data-name="Layer 1">
    <path class="cls-1" d="M7.44.55h10.94c.4,0,.73.33.73.73v7.52c-.66-.15-1.34-.23-2.05-.23-1.26,0-2.46.25-3.57.71-1.15.47-2.18,1.17-3.03,2.02-.54.54-1.02,1.16-1.42,1.83-.07-.23-.2-.43-.36-.6h0c-.22-.22-.51-.37-.83-.41v-1.92c0-.39-.16-.75-.41-1.01V.55h0ZM.73,12.84c-.4,0-.73.33-.73.73v12.2c0,.4.33.73.73.73h6.92c.4,0,.73-.33.73-.73v-4.45c-.42-1.06-.65-2.21-.65-3.42s.23-2.36.65-3.42v-.92c0-.4-.33-.73-.73-.73H.73ZM1.97,3.3L5.5.18c.3-.27.76-.24,1.03.06.12.14.18.31.18.48h0v8.05c-.1-.02-.21-.04-.32-.04H1.99c-.11,0-.22.01-.32.04V3.88c0-.24.12-.45.3-.59h0ZM1.99,9.47h4.4c.4,0,.73.33.73.73v1.91H1.26v-1.91c0-.4.33-.73.73-.73h0ZM17.06,9.3c-2.38,0-4.53.96-6.08,2.52-1.56,1.56-2.52,3.71-2.52,6.08s.96,4.53,2.52,6.08c1.56,1.56,3.71,2.52,6.08,2.52s4.53-.96,6.08-2.52c1.56-1.56,2.52-3.71,2.52-6.08s-.96-4.53-2.52-6.08-3.71-2.52-6.08-2.52h0ZM10.14,24.16h-1.03v-1.38c.3.49.65.96,1.03,1.38Z"/>
  </g>
</svg>