<?xml version="1.0" encoding="UTF-8"?>
<svg id="Layer_2" data-name="Layer 2" xmlns="http://www.w3.org/2000/svg" viewBox="0 0 28.13 24.54">
  <defs>
    <style>
      .cls-1 {
        fill: #fff;
        fill-rule: evenodd;
      }
    </style>
  </defs>
  <g id="Layer_1-2" data-name="Layer 1">
    <path class="cls-1" d="M3.8,12.46H1.75c-.38,0-.73-.12-1.02-.32-.29-.21-.52-.5-.64-.86-.12-.36-.13-.73-.02-1.07.1-.34.31-.65.61-.88L11.7.8C12.38.27,13.19,0,14,0c.81,0,1.61.26,2.3.78l2.51,1.92v-1.03c0-.37.3-.67.67-.67h4c.37,0,.67.3.67.67v5.11l3.31,2.53c.3.23.51.54.61.88.1.34.1.71-.02,1.07-.12.36-.35.66-.64.86-.29.21-.64.33-1.02.33h-2.18v8.31c0,1.04-.42,1.98-1.11,2.66h0c-.68.68-1.62,1.11-2.66,1.11H7.57c-1.04,0-1.98-.42-2.66-1.11s-1.1-1.62-1.1-2.66v-8.31Z"/>
  </g>
</svg>