<?xml version="1.0" encoding="UTF-8"?>
<svg id="Layer_2" data-name="Layer 2" xmlns="http://www.w3.org/2000/svg" viewBox="0 0 23.78 23.78">
  <defs>
    <style>
      .cls-1 {
        fill: #fff;
        fill-rule: evenodd;
      }
    </style>
  </defs>
  <g id="Layer_1-2" data-name="Layer 1">
    <path class="cls-1" d="M11.89,0c3.28,0,6.26,1.33,8.41,3.48,2.15,2.15,3.48,5.12,3.48,8.41s-1.33,6.26-3.48,8.41c-2.15,2.15-5.12,3.48-8.41,3.48s-6.26-1.33-8.41-3.48C1.33,18.14,0,15.17,0,11.89S1.33,5.63,3.48,3.48C5.63,1.33,8.61,0,11.89,0h0ZM13.27,5.66c-.09-.31-.27-.58-.51-.76h0c-.24-.19-.55-.29-.87-.29-.3,0-.58.09-.82.26l-.05.04c-.24.18-.42.45-.51.76l-.48,1.75s-.01.03-.02.04h0s-.02.02-.04.03c-.02,0-.03.01-.04.01-.01,0-.03,0-.04-.01l-1.67-.71c-.3-.13-.62-.15-.91-.07-.3.07-.57.25-.77.5-.2.25-.31.55-.31.86,0,.31.08.61.27.87l1.06,1.47s.02.03.02.04c0,0,0,.02,0,.03h0s0,.04-.02.05h0s-.02.02-.04.03l-1.6.86c-.29.15-.5.39-.63.67-.13.28-.16.59-.09.91.07.32.24.59.48.79.23.2.53.32.86.33l1.81.08s.03,0,.04.01c.01,0,.02.02.03.03.01.01.02.03.02.04,0,.01,0,.03,0,.05l-.32,1.79c-.06.32,0,.64.13.91.14.27.36.5.66.64.29.14.61.18.91.11.3-.06.58-.22.79-.46l1.19-1.36s.02-.02.03-.03c0,0,.02,0,.05,0s.04,0,.05,0c.01,0,.02.01.03.03l1.2,1.36c.21.24.49.4.79.46.3.06.62.03.91-.11.29-.14.52-.37.66-.64.14-.27.19-.59.13-.91l-.32-1.79s0-.03,0-.05c0-.01.01-.02.02-.04.01-.01.02-.02.03-.03.01,0,.03-.01.04-.01l1.81-.08c.33-.02.62-.13.86-.33.23-.2.4-.47.48-.79.07-.32.04-.63-.09-.91-.13-.28-.34-.52-.63-.67l-1.6-.86s-.03-.02-.04-.03h0s0-.01-.01-.03v-.02s0-.03,0-.04c0,0,0-.02.02-.04l1.06-1.47c.19-.26.28-.57.27-.87,0-.31-.11-.61-.31-.86-.2-.25-.47-.43-.77-.5-.29-.07-.61-.05-.91.07l-1.67.71s-.03.01-.04.01c-.01,0-.02,0-.04-.01-.02,0-.03-.02-.04-.03,0,0-.01-.02-.02-.04l-.48-1.75Z"/>
  </g>
</svg>