<?xml version="1.0" encoding="UTF-8"?>
<svg id="Layer_2" data-name="Layer 2" xmlns="http://www.w3.org/2000/svg" viewBox="0 0 28 22.31">
  <defs>
    <style>
      .cls-1 {
        fill: #fff;
        fill-rule: evenodd;
      }
    </style>
  </defs>
  <g id="Layer_1-2" data-name="Layer 1">
    <path class="cls-1" d="M11.57.91c.93.56,1.73,1.38,2.43,2.46.7-1.09,1.5-1.9,2.43-2.46C17.65.18,19.06-.11,20.72.04c2.42.21,4.19,1.11,5.39,2.38,1.39,1.48,1.98,3.44,1.89,5.4-.31,6.47-4.24,8.14-7.92,9.71-2.39,1.02-4.67,1.99-5.44,4.34-.01.04-.03.07-.05.11l-.03.05c-.05.08-.11.14-.19.19h-.01c-.05.04-.11.07-.17.08h-.01c-.34.1-.7-.09-.81-.43-.77-2.35-3.05-3.32-5.44-4.34C4.25,15.95.32,14.28,0,7.81c-.09-1.96.5-3.92,1.89-5.4C3.09,1.14,4.86.24,7.28.04c1.66-.14,3.07.14,4.29.88h0ZM14.58,21.98h0s0,0,0,0Z"/>
  </g>
</svg>