<?xml version="1.0" encoding="UTF-8"?>
<svg id="Layer_2" data-name="Layer 2" xmlns="http://www.w3.org/2000/svg" viewBox="0 0 65.71 71.97">
  <g id="Layer_1-2" data-name="Layer 1">
    <g>
      <path d="M51.66,58.68H14.06c-4.39,0-8.44-1.99-11.12-5.46-2.68-3.47-3.58-7.9-2.47-12.14l5.26-20.13C8.95,8.61,20.11,0,32.86,0s23.9,8.61,27.13,20.95l5.26,20.13c1.11,4.24.21,8.67-2.47,12.14s-6.73,5.46-11.12,5.46ZM32.86,5c-10.47,0-19.64,7.08-22.29,17.21l-5.26,20.13c-.71,2.73-.13,5.58,1.59,7.82,1.73,2.24,4.34,3.52,7.16,3.52h37.6c2.83,0,5.44-1.28,7.16-3.52s2.31-5.09,1.59-7.82l-5.26-20.13c-2.65-10.13-11.82-17.21-22.29-17.21Z"/>
      <path d="M32.86,71.97c-8.7,0-15.78-7.08-15.78-15.78,0-1.38,1.12-2.5,2.5-2.5h26.57c1.38,0,2.5,1.12,2.5,2.5,0,8.7-7.08,15.78-15.78,15.78ZM22.36,58.68c1.13,4.74,5.41,8.28,10.49,8.28s9.36-3.54,10.49-8.28h-20.98Z"/>
    </g>
  </g>
</svg>