<?xml version="1.0" encoding="UTF-8"?>
<svg id="Layer_2" data-name="Layer 2" xmlns="http://www.w3.org/2000/svg" viewBox="0 0 25.66 21.45">
  <defs>
    <style>
      .cls-1 {
        fill: #fff;
        fill-rule: evenodd;
      }
    </style>
  </defs>
  <g id="Layer_1-2" data-name="Layer 1">
    <path class="cls-1" d="M.67,1.05h2.07v-.38c0-.37.3-.67.67-.67s.67.3.67.67v.38h1.33v-.38c0-.37.3-.67.67-.67s.67.3.67.67v.38h1.33v-.38c0-.37.3-.67.67-.67s.67.3.67.67v.38h1.33v-.38c0-.37.3-.67.67-.67s.67.3.67.67v.38h1.33v-.38c0-.37.3-.67.67-.67s.67.3.67.67v.38h1.33v-.38c0-.37.3-.67.67-.67s.67.3.67.67v.38h1.33v-.38c0-.37.3-.67.67-.67s.67.3.67.67v.38h2.07c.37,0,.67.3.67.67v3.83H0V1.72c0-.37.3-.67.67-.67h0ZM19.91,9.96c1.59,0,3.02.64,4.06,1.68s1.68,2.48,1.68,4.06-.64,3.02-1.68,4.06c-1.04,1.04-2.48,1.68-4.06,1.68s-3.02-.64-4.06-1.68c-1.04-1.04-1.68-2.48-1.68-4.06s.64-3.02,1.68-4.06c1.04-1.04,2.48-1.68,4.06-1.68h0ZM19.14,12.84v3c0,.37.3.67.67.67h2.14c.37,0,.67-.3.67-.67s-.3-.67-.67-.67h-1.48v-2.34c0-.37-.3-.67-.67-.67s-.67.3-.67.67h0ZM17.16,9.15c-.37,0-.67-.3-.67-.67s.3-.67.67-.67h1.86c.37,0,.67.3.67.67s-.3.67-.67.67h-1.86ZM8.35,9.15c-.37,0-.67-.3-.67-.67s.3-.67.67-.67h1.86c.37,0,.67.3.67.67s-.3.67-.67.67h-1.86ZM8.35,15.58c-.37,0-.67-.3-.67-.67s.3-.67.67-.67h1.86c.37,0,.67.3.67.67s-.3.67-.67.67h-1.86ZM4.12,15.58c-.37,0-.67-.3-.67-.67s.3-.67.67-.67h1.86c.37,0,.67.3.67.67s-.3.67-.67.67h-1.86ZM8.35,13.43c-.37,0-.67-.3-.67-.67s.3-.67.67-.67h1.86c.37,0,.67.3.67.67s-.3.67-.67.67h-1.86ZM4.12,13.43c-.37,0-.67-.3-.67-.67s.3-.67.67-.67h1.86c.37,0,.67.3.67.67s-.3.67-.67.67h-1.86ZM12.58,11.29h1.86c.37,0,.67-.3.67-.67s-.3-.67-.67-.67h-1.86c-.37,0-.67.3-.67.67s.3.67.67.67h0ZM8.35,11.29c-.37,0-.67-.3-.67-.67s.3-.67.67-.67h1.86c.37,0,.67.3.67.67s-.3.67-.67.67h-1.86ZM4.12,11.29c-.37,0-.67-.3-.67-.67s.3-.67.67-.67h1.86c.37,0,.67.3.67.67s-.3.67-.67.67h-1.86ZM12.58,9.15c-.37,0-.67-.3-.67-.67s.3-.67.67-.67h1.86c.37,0,.67.3.67.67s-.3.67-.67.67h-1.86ZM22.8,6.88H0v10.26c0,.37.3.67.67.67h13.18c-.23-.66-.35-1.36-.35-2.1,0-.8.15-1.56.42-2.27h-1.33c-.37,0-.67-.3-.67-.67s.3-.67.67-.67h1.86c.05,0,.1,0,.15.02.23-.34.49-.66.78-.95,1.16-1.16,2.76-1.88,4.53-1.88.86,0,1.69.17,2.45.49.15.06.3.13.44.2v-3.1Z"/>
  </g>
</svg>