<?xml version="1.0" encoding="UTF-8"?>
<svg id="Layer_2" data-name="Layer 2" xmlns="http://www.w3.org/2000/svg" viewBox="0 0 27.05 20.77">
  <defs>
    <style>
      .cls-1 {
        fill: #fff;
        fill-rule: evenodd;
      }
    </style>
  </defs>
  <g id="Layer_1-2" data-name="Layer 1">
    <path class="cls-1" d="M15.14,18.14H6.36v.28c0,.63-.24,1.21-.62,1.63-.4.44-.96.71-1.58.71h-.98c-.62,0-1.18-.27-1.58-.71-.38-.42-.62-1-.62-1.63v-.45c-.18-.08-.34-.2-.47-.33h0c-.31-.32-.5-.74-.5-1.21v-5.44c0-.4.08-.78.24-1.13.16-.35.4-.66.71-.92l1.07-.9-.23-.05c-.4-.08-.74-.3-.98-.59-.24-.3-.38-.67-.38-1.08v-.33c0-.16.03-.32.09-.47.06-.15.15-.28.27-.4.12-.12.25-.2.4-.26.15-.06.3-.09.47-.09h2.04s1.4-3.66,1.4-3.66c.13-.33.35-.61.63-.8.28-.19.62-.3.97-.3h13.68c.36,0,.69.11.97.3.28.19.5.47.63.8l1.4,3.66h2.04c.17,0,.32.02.47.08.15.06.28.15.4.26.12.12.21.25.27.4.06.15.09.31.09.47v.33c0,.41-.14.78-.38,1.08-.24.3-.58.51-.98.59l-.23.05,1.07.9c.31.26.55.57.71.92.16.35.24.73.24,1.13v5.44c0,.47-.19.89-.5,1.2h0c-.14.14-.3.26-.47.34v.45c0,.63-.24,1.21-.62,1.63-.4.44-.96.71-1.58.71h-.98c-.62,0-1.18-.27-1.58-.71-.38-.42-.62-1-.62-1.63v-.28h-5.54ZM18.26,11.19c-.28.06-.53.21-.7.42-.17.21-.27.48-.27.77v1.22h0c0,.4.33.73.73.73l4.85-.02c.34,0,.64-.14.86-.36.22-.22.36-.52.36-.86v-2.23h0s0-.1-.02-.15c-.08-.39-.47-.65-.86-.56l-4.95,1.03h0ZM3.84,10.16c-.39-.08-.78.17-.86.56-.01.05-.02.1-.02.15h0v2.23c0,.33.14.64.36.86.22.22.52.36.86.36l4.85.02c.4,0,.73-.33.73-.73h0v-1.22c0-.29-.1-.56-.27-.77-.17-.21-.41-.36-.7-.42l-4.95-1.03h0ZM20.21,2.47c-.11-.29-.39-.47-.68-.47H7.52c-.32,0-.6.21-.69.5l-1.21,3.16c-.14.38.05.8.42.94.09.03.17.05.26.05h14.44c.4,0,.73-.33.73-.73,0-.1-.02-.2-.06-.29l-1.21-3.16Z"/>
  </g>
</svg>