<?xml version="1.0" encoding="UTF-8"?>
<svg id="Layer_2" data-name="Layer 2" xmlns="http://www.w3.org/2000/svg" viewBox="0 0 160.53 160.54">
  <defs>
    <style>
      .cls-1 {
        fill: #080a16;
      }
    </style>
  </defs>
  <g id="Calque_1" data-name="Calque 1">
    <path class="cls-1" d="M160.53,160.54h-19.4c0-16.78-13.65-30.43-30.43-30.43H29.77c-16.41,0-29.77-13.35-29.77-29.77s13.35-29.77,29.77-29.77h101c5.72,0,10.37-4.65,10.37-10.37s-4.65-10.37-10.37-10.37H49.84C22.36,49.84,0,27.48,0,0h19.4c0,16.78,13.65,30.43,30.43,30.43h80.93c16.41,0,29.77,13.35,29.77,29.77s-13.35,29.77-29.77,29.77H29.77c-5.72,0-10.37,4.65-10.37,10.37s4.65,10.37,10.37,10.37h80.93c27.48,0,49.83,22.36,49.83,49.84Z"/>
  </g>
</svg>