<?xml version="1.0" encoding="UTF-8"?>
<svg id="Layer_2" data-name="Layer 2" xmlns="http://www.w3.org/2000/svg" viewBox="0 0 25.32 25.35">
  <defs>
    <style>
      .cls-1 {
        fill: #fff;
        fill-rule: evenodd;
      }
    </style>
  </defs>
  <g id="Layer_1-2" data-name="Layer 1">
    <path class="cls-1" d="M13.13,25.16c6.1-6.1,12.19-12.19,12.19-18.46,0-1.97-.8-3.68-2.04-4.87-.84-.81-1.88-1.38-3-1.65-1.13-.27-2.34-.23-3.54.19-1.49.52-2.93,1.64-4.09,3.48-1.16-1.84-2.6-2.96-4.09-3.48C7.38-.06,6.17-.1,5.04.17c-1.12.27-2.16.84-3,1.65C.8,3.02,0,4.72,0,6.69c0,6.27,6.1,12.37,12.19,18.46.26.26.68.26.94,0h0ZM21.03,4.32c-.61-.61-1.45-.98-2.37-.98-.17,0-.33,0-.49.03-.36.04-.69-.22-.73-.58-.02-.18.02-.35.14-.5.12-.15.27-.23.45-.25.2-.02.41-.03.63-.03,1.29,0,2.47.53,3.31,1.37.85.85,1.37,2.02,1.37,3.31,0,1.52-.46,3.02-1.13,4.43-.2.42-.42.83-.65,1.23-.1.17-.27.27-.46.27h-.31c-.2,0-.37-.1-.46-.27-.1-.17-.1-.37,0-.53.24-.41.47-.83.68-1.27.6-1.25,1-2.56,1-3.86,0-.93-.38-1.77-.98-2.37Z"/>
  </g>
</svg>