<?xml version="1.0" encoding="UTF-8"?>
<svg id="Layer_2" data-name="Layer 2" xmlns="http://www.w3.org/2000/svg" viewBox="0 0 21.27 25.38">
  <defs>
    <style>
      .cls-1 {
        fill: #fff;
        fill-rule: evenodd;
      }
    </style>
  </defs>
  <g id="Layer_1-2" data-name="Layer 1">
    <path class="cls-1" d="M10,0c1.68,0,3.19.68,4.29,1.78,1.1,1.1,1.78,2.62,1.78,4.29s-.68,3.19-1.78,4.29c-.5.5-1.08.91-1.73,1.21.78.21,1.52.51,2.21.89-.24.14-.46.32-.66.51-.31.31-.56.68-.73,1.1-.17.4-.26.84-.26,1.29v.03h-.71c-.37,0-.7.15-.94.39h0c-.24.24-.39.58-.39.94v7.91H2.2c-.61,0-1.16-.25-1.56-.65-.4-.4-.65-.95-.65-1.56v-1.2c0-2.75,1.12-5.25,2.94-7.06,1.23-1.23,2.77-2.14,4.5-2.6-.65-.3-1.23-.71-1.73-1.21-1.1-1.1-1.78-2.62-1.78-4.29s.68-3.19,1.78-4.29c1.1-1.1,2.62-1.78,4.29-1.78h0ZM12.41,16.06c-.37,0-.67.3-.67.67v7.99c0,.37.3.67.67.67h8.19c.37,0,.67-.3.67-.67v-7.99c0-.37-.3-.67-.67-.67h-1.38v-.7c0-.75-.31-1.43-.8-1.92-.49-.49-1.17-.8-1.92-.8s-1.43.31-1.92.8-.8,1.17-.8,1.92v.7h-1.38ZM16.47,18.89c-.39,0-.74.17-1,.43h0c-.27.27-.43.64-.43,1.01,0,.4.18.7.43.93l.04.03-.26.48c-.06.1-.1.22-.1.34,0,.35.28.63.63.63h1.39c.1,0,.2-.03.3-.08.31-.16.42-.54.26-.85l-.28-.53.04-.03c.25-.23.43-.53.43-.93,0-.36-.17-.74-.43-1h0c-.25-.26-.6-.43-.99-.43h0ZM15.12,16.06h2.76v-.7c0-.38-.16-.72-.41-.97-.25-.25-.6-.41-.97-.41s-.72.16-.98.41c-.25.25-.41.6-.41.97v.7Z"/>
  </g>
</svg>