<?xml version="1.0" encoding="UTF-8"?>
<svg id="Layer_2" data-name="Layer 2" xmlns="http://www.w3.org/2000/svg" viewBox="0 0 160.53 160.54">
  <defs>
    <style>
      .cls-1 {
        fill: #080a16;
      }
    </style>
  </defs>
  <g id="Calque_1" data-name="Calque 1">
    <path class="cls-1" d="M149.18,106.92c-15.86-12.72-31.02-21.98-43.34-26.65,12.32-4.68,27.48-13.94,43.34-26.65,14.02-11.24,15.26-32.12,2.55-44.82h0c-12.7-12.7-33.59-11.46-44.83,2.56-12.72,15.86-21.97,31.02-26.64,43.35-4.68-12.32-13.94-27.49-26.65-43.34C42.38-2.66,21.5-3.9,8.79,8.8h0C-3.91,21.51-2.67,42.39,11.35,53.63c15.86,12.71,31.03,21.97,43.35,26.64-12.33,4.67-27.5,13.93-43.35,26.64-14.02,11.24-15.26,32.12-2.56,44.82h0c12.7,12.7,33.58,11.46,44.82-2.55,12.72-15.86,21.98-31.02,26.65-43.34,4.67,12.33,13.93,27.5,26.64,43.35,11.24,14.02,32.12,15.26,44.82,2.56h0c12.7-12.7,11.46-33.58-2.55-44.82Z"/>
  </g>
</svg>