<?xml version="1.0" encoding="UTF-8"?>
<svg id="Layer_2" data-name="Layer 2" xmlns="http://www.w3.org/2000/svg" viewBox="0 0 74.37 76.86">
  <g id="Layer_1-2" data-name="Layer 1">
    <g>
      <path d="M15.28,75.94H4.1c-2.26,0-4.1-1.84-4.1-4.1V4.1C0,1.84,1.84,0,4.1,0h11.17c2.26,0,4.1,1.84,4.1,4.1v67.73c0,2.26-1.84,4.1-4.1,4.1ZM5,70.94h9.38V5H5v65.94Z"/>
      <path d="M16.88,60.33H2.5c-1.38,0-2.5-1.12-2.5-2.5V18.11c0-1.38,1.12-2.5,2.5-2.5h14.38c1.38,0,2.5,1.12,2.5,2.5v39.71c0,1.38-1.12,2.5-2.5,2.5ZM5,55.33h9.38V20.61H5v34.71Z"/>
      <g>
        <path d="M29.65,75.94h-11.17c-2.26,0-4.1-1.84-4.1-4.1V4.1c0-2.26,1.84-4.1,4.1-4.1h11.17c2.26,0,4.1,1.84,4.1,4.1v67.73c0,2.26-1.84,4.1-4.1,4.1ZM19.38,70.94h9.38V5h-9.38v65.94Z"/>
        <path d="M31.26,60.33h-14.38c-1.38,0-2.5-1.12-2.5-2.5V18.11c0-1.38,1.12-2.5,2.5-2.5h14.38c1.38,0,2.5,1.12,2.5,2.5v39.71c0,1.38-1.12,2.5-2.5,2.5ZM19.38,55.33h9.38V20.61h-9.38v34.71Z"/>
      </g>
      <g>
        <path d="M59.93,76.86c-.53,0-1.07-.11-1.58-.32-1.01-.42-1.8-1.21-2.22-2.22L30.32,11.7c-.86-2.09.14-4.49,2.23-5.36l10.33-4.26c1.02-.42,2.13-.42,3.14,0,1.01.42,1.8,1.21,2.22,2.22l25.82,62.62c.42,1.01.42,2.13,0,3.14-.42,1.01-1.21,1.8-2.22,2.22h0l-10.33,4.26c-.5.21-1.03.31-1.56.31ZM35.29,10.62l25.13,60.96,8.67-3.57L43.96,7.05l-8.67,3.58ZM70.87,69.98h0,0ZM69.92,67.67s0,0,0,0h0Z"/>
        <path d="M53.11,62.91c-.33,0-.65-.06-.96-.19-.61-.25-1.1-.74-1.35-1.36l-15.14-36.72c-.25-.61-.25-1.3,0-1.91.25-.61.74-1.1,1.36-1.35l13.29-5.48c1.28-.52,2.74.08,3.26,1.36l15.14,36.71c.25.61.25,1.3,0,1.91-.25.61-.74,1.1-1.36,1.35l-13.29,5.48c-.31.13-.63.19-.95.19ZM41.24,25.06l13.23,32.09,8.67-3.58-13.23-32.09-8.67,3.58Z"/>
      </g>
    </g>
  </g>
</svg>