<?xml version="1.0" encoding="UTF-8"?>
<svg id="Layer_2" data-name="Layer 2" xmlns="http://www.w3.org/2000/svg" viewBox="0 0 32.42 25.66">
  <defs>
    <style>
      .cls-1 {
        fill: #fff;
        fill-rule: evenodd;
      }
    </style>
  </defs>
  <g id="Layer_1-2" data-name="Layer 1">
    <path class="cls-1" d="M18.9,3.12l-.21-.23c-.55-.6-.5-1.54.1-2.09l.46-.42c.6-.55,1.54-.5,2.09.1l.21.23,10.48,11.54c.53.59.51,1.49-.05,2.04l-10.99,10.93c-.58.57-1.52.57-2.09,0l-.44-.44c-.57-.58-.57-1.52,0-2.09l8.57-8.52c.56-.56.58-1.46.05-2.04L18.9,3.12h0ZM9.89,3.12l8.18,9.01c.53.59.51,1.49-.05,2.04l-8.57,8.52c-.58.57-.58,1.51,0,2.09l.44.44c.57.58,1.51.58,2.09,0l10.99-10.93c.56-.56.58-1.46.05-2.04L12.54.71l-.21-.23c-.55-.6-1.49-.65-2.09-.1l-.46.42c-.6.55-.65,1.49-.1,2.09l.21.23h0ZM.87,3.12l-.21-.23C.11,2.29.16,1.35.76.8l.46-.42C1.82-.16,2.76-.12,3.31.48l.21.23,10.48,11.54c.53.59.51,1.49-.05,2.04L2.96,25.23c-.58.57-1.52.57-2.09,0l-.44-.44c-.57-.58-.57-1.52,0-2.09l8.57-8.52c.56-.56.58-1.46.05-2.04L.87,3.12Z"/>
  </g>
</svg>