<?xml version="1.0" encoding="UTF-8"?>
<svg id="Layer_2" data-name="Layer 2" xmlns="http://www.w3.org/2000/svg" viewBox="0 0 29.57 29.57">
  <defs>
    <style>
      .cls-1 {
        fill: #fff;
        fill-rule: evenodd;
      }
    </style>
  </defs>
  <g id="Layer_1-2" data-name="Layer 1">
    <path class="cls-1" d="M14.79,0c8.17,0,14.79,6.62,14.79,14.79s-6.62,14.79-14.79,14.79S0,22.95,0,14.79,6.62,0,14.79,0h0ZM27.59,14.6c-3.19-2.11-6.95-3.43-10.99-3.68l-.44-.71c-.27-.43-.71-.68-1.21-.68h-4.97l1.37,1.66c-1.14.19-2.24.47-3.32.83.62.79.97,1.66.97,2.58s-.35,1.79-.97,2.58c1.16.38,2.36.68,3.59.87l-1.64,1.99h4.97c.51,0,.95-.24,1.21-.68l.68-1.1c3.95-.29,7.62-1.6,10.75-3.67h0ZM7.13,12.99c-1.83.39-3.56.94-5.14,1.61,1.58.67,3.31,1.22,5.14,1.61.61-.49.94-1.04.94-1.61s-.34-1.12-.94-1.61Z"/>
  </g>
</svg>