<?xml version="1.0" encoding="UTF-8"?>
<svg id="Layer_2" data-name="Layer 2" xmlns="http://www.w3.org/2000/svg" viewBox="0 0 22.39 26.05">
  <defs>
    <style>
      .cls-1 {
        fill: #fff;
        fill-rule: evenodd;
      }
    </style>
  </defs>
  <g id="Layer_1-2" data-name="Layer 1">
    <path class="cls-1" d="M10,0c1.68,0,3.19.68,4.29,1.78,1.1,1.1,1.78,2.62,1.78,4.29s-.68,3.19-1.78,4.29c-.5.5-1.08.91-1.73,1.21,1.19.32,2.29.85,3.26,1.55l-4.69,2.33c-.25.11-.45.3-.59.53-.13.22-.2.49-.19.77.08,1.2.27,2.29.56,3.28.3,1,.7,1.9,1.19,2.7.43.71.93,1.34,1.48,1.91H2.2c-.61,0-1.16-.25-1.56-.65-.4-.4-.65-.95-.65-1.56v-1.2c0-2.75,1.12-5.25,2.94-7.06,1.23-1.23,2.77-2.14,4.49-2.6-.64-.3-1.23-.71-1.73-1.21-1.1-1.1-1.78-2.62-1.78-4.29s.68-3.19,1.78-4.29c1.1-1.1,2.62-1.78,4.29-1.78h0ZM17,13.56c-.18-.09-.4-.09-.59,0l-5,2.49c-.24.11-.41.36-.39.65.15,2.3.74,4.16,1.66,5.68.93,1.52,2.19,2.68,3.67,3.57.2.13.47.14.69,0,1.49-.89,2.75-2.06,3.68-3.58.92-1.52,1.51-3.38,1.66-5.68.02-.26-.12-.52-.37-.64l-5.02-2.5Z"/>
  </g>
</svg>