<?xml version="1.0" encoding="UTF-8"?>
<svg id="Layer_2" data-name="Layer 2" xmlns="http://www.w3.org/2000/svg" viewBox="0 0 15.53 28.26">
  <defs>
    <style>
      .cls-1 {
        fill: #fff;
        fill-rule: evenodd;
      }
    </style>
  </defs>
  <g id="Layer_1-2" data-name="Layer 1">
    <path class="cls-1" d="M2.8,26.86c0-.77-.63-1.4-1.4-1.4s-1.4.63-1.4,1.4.63,1.4,1.4,1.4,1.4-.63,1.4-1.4h0ZM14.13,12.73c-.77,0-1.4.63-1.4,1.4s.63,1.4,1.4,1.4,1.4-.63,1.4-1.4-.63-1.4-1.4-1.4h0ZM8.49,9.89c0,.77.63,1.4,1.4,1.4s1.4-.63,1.4-1.4-.63-1.4-1.4-1.4-1.4.63-1.4,1.4h0ZM8.49,18.38c0,.77.63,1.4,1.4,1.4s1.4-.63,1.4-1.4-.63-1.4-1.4-1.4-1.4.63-1.4,1.4h0ZM7.05,22.62c0-.77-.63-1.4-1.4-1.4s-1.4.63-1.4,1.4.63,1.4,1.4,1.4,1.4-.63,1.4-1.4h0ZM4.24,5.64c0,.77.63,1.4,1.4,1.4s1.4-.63,1.4-1.4-.63-1.4-1.4-1.4-1.4.63-1.4,1.4h0ZM1.4,2.8c.77,0,1.4-.63,1.4-1.4s-.63-1.4-1.4-1.4S0,.63,0,1.4s.63,1.4,1.4,1.4Z"/>
  </g>
</svg>