<?xml version="1.0" encoding="UTF-8"?>
<svg id="Layer_2" data-name="Layer 2" xmlns="http://www.w3.org/2000/svg" viewBox="0 0 74.76 74.76">
  <g id="Layer_1-2" data-name="Layer 1">
    <g>
      <path d="M37.37,13.05c-1.38,0-2.5-1.12-2.5-2.5V2.5c0-1.38,1.12-2.5,2.5-2.5s2.5,1.12,2.5,2.5v8.05c0,1.38-1.12,2.5-2.5,2.5Z"/>
      <path d="M23.96,16.65c-.86,0-1.7-.45-2.17-1.25l-4.02-6.97c-.69-1.2-.28-2.72.92-3.42,1.19-.69,2.72-.28,3.42.92l4.02,6.97c.69,1.2.28,2.72-.92,3.42-.39.23-.82.33-1.25.33Z"/>
      <path d="M14.14,26.47c-.42,0-.85-.11-1.25-.33l-6.97-4.02c-1.2-.69-1.61-2.22-.92-3.42.69-1.2,2.22-1.6,3.42-.92l6.97,4.02c1.2.69,1.61,2.22.92,3.42-.46.8-1.3,1.25-2.17,1.25Z"/>
      <path d="M10.55,39.89H2.5c-1.38,0-2.5-1.12-2.5-2.5s1.12-2.5,2.5-2.5h8.05c1.38,0,2.5,1.12,2.5,2.5s-1.12,2.5-2.5,2.5Z"/>
      <path d="M7.18,57.33c-.86,0-1.7-.45-2.17-1.25-.69-1.2-.28-2.72.92-3.42l6.97-4.02c1.19-.69,2.72-.28,3.42.92.69,1.2.28,2.72-.92,3.42l-6.97,4.02c-.39.23-.82.33-1.25.33Z"/>
      <path d="M19.95,70.09c-.42,0-.85-.11-1.25-.33-1.2-.69-1.61-2.22-.92-3.42l4.02-6.97c.69-1.2,2.22-1.6,3.42-.92,1.2.69,1.61,2.22.92,3.42l-4.02,6.97c-.46.8-1.3,1.25-2.17,1.25Z"/>
      <path d="M37.39,74.76c-1.38,0-2.5-1.12-2.5-2.5v-8.05c0-1.38,1.12-2.5,2.5-2.5s2.5,1.12,2.5,2.5v8.05c0,1.38-1.12,2.5-2.5,2.5Z"/>
      <path d="M54.83,70.09c-.86,0-1.7-.45-2.17-1.25l-4.02-6.97c-.69-1.2-.28-2.72.92-3.42,1.19-.69,2.72-.28,3.42.92l4.02,6.97c.69,1.2.28,2.72-.92,3.42-.39.23-.82.33-1.25.33Z"/>
      <path d="M67.59,57.31c-.42,0-.85-.11-1.25-.33l-6.97-4.02c-1.2-.69-1.61-2.22-.92-3.42.69-1.2,2.22-1.6,3.42-.92l6.97,4.02c1.2.69,1.61,2.22.92,3.42-.46.8-1.3,1.25-2.17,1.25Z"/>
      <path d="M72.26,39.87h-8.05c-1.38,0-2.5-1.12-2.5-2.5s1.12-2.5,2.5-2.5h8.05c1.38,0,2.5,1.12,2.5,2.5s-1.12,2.5-2.5,2.5Z"/>
      <path d="M60.62,26.46c-.86,0-1.7-.45-2.17-1.25-.69-1.2-.28-2.72.92-3.42l6.97-4.02c1.19-.69,2.72-.28,3.42.92.69,1.2.28,2.72-.92,3.42l-6.97,4.02c-.39.23-.82.33-1.25.33Z"/>
      <path d="M50.79,16.64c-.42,0-.85-.11-1.25-.33-1.2-.69-1.61-2.22-.92-3.42l4.02-6.97c.69-1.2,2.22-1.61,3.42-.92,1.2.69,1.61,2.22.92,3.42l-4.02,6.97c-.46.8-1.3,1.25-2.17,1.25Z"/>
    </g>
  </g>
</svg>