<?xml version="1.0" encoding="UTF-8"?>
<svg id="Layer_2" data-name="Layer 2" xmlns="http://www.w3.org/2000/svg" viewBox="0 0 20.55 25.81">
  <defs>
    <style>
      .cls-1 {
        fill: #fff;
        fill-rule: evenodd;
      }
    </style>
  </defs>
  <g id="Layer_1-2" data-name="Layer 1">
    <path class="cls-1" d="M10,0c1.68,0,3.19.68,4.29,1.78,1.1,1.1,1.78,2.62,1.78,4.29s-.68,3.19-1.78,4.29c-.5.5-1.08.91-1.73,1.21,1.2.32,2.32.86,3.3,1.58h-4.52c-.37,0-.7.15-.94.39h0c-.24.24-.39.58-.39.94v8.74c0,.37.15.7.39.94s.57.39.94.39h.6v.08H2.2c-.61,0-1.16-.25-1.56-.65-.4-.4-.65-.95-.65-1.56v-1.2c0-2.75,1.12-5.25,2.94-7.06,1.23-1.23,2.77-2.14,4.49-2.6-.64-.3-1.23-.71-1.73-1.21-1.1-1.1-1.78-2.62-1.78-4.29s.68-3.19,1.78-4.29c1.1-1.1,2.62-1.78,4.29-1.78h0ZM11.34,13.81c-.37,0-.67.3-.67.67v8.74c0,.37.3.67.67.67h.6v-7.48c0-.37.15-.7.39-.94h0c.24-.24.57-.39.94-.39h5.33v-.59c0-.37-.3-.67-.67-.67h-6.6ZM15.12,19.63l2.93-.02c.37,0,.66-.3.66-.67s-.3-.66-.67-.66l-2.93.02c-.37,0-.66.3-.66.67,0,.37.3.66.67.66h0ZM15.12,21.44l2.93-.02c.37,0,.66-.3.66-.67s-.3-.66-.67-.66l-2.93.02c-.37,0-.66.3-.66.67,0,.37.3.66.67.66h0ZM15.12,23.26l2.93-.02c.37,0,.66-.3.66-.67,0-.37-.3-.66-.67-.66l-2.93.02c-.37,0-.66.3-.66.67,0,.37.3.66.67.66h0ZM13.28,15.74c-.37,0-.67.3-.67.67v8.74c0,.37.3.67.67.67h6.6c.37,0,.67-.3.67-.67v-8.74c0-.37-.3-.67-.67-.67h-6.6Z"/>
  </g>
</svg>