<?xml version="1.0" encoding="UTF-8"?>
<svg id="Layer_2" data-name="Layer 2" xmlns="http://www.w3.org/2000/svg" viewBox="0 0 72.2 67.24">
  <g id="Layer_1-2" data-name="Layer 1">
    <g>
      <g>
        <path d="M49.03,42.28h-25.87c-1.38,0-2.5-1.12-2.5-2.5s1.12-2.5,2.5-2.5h25.87c1.38,0,2.5,1.12,2.5,2.5s-1.12,2.5-2.5,2.5Z"/>
        <path d="M36.1,55.22c-1.38,0-2.5-1.12-2.5-2.5v-25.87c0-1.38,1.12-2.5,2.5-2.5s2.5,1.12,2.5,2.5v25.87c0,1.38-1.12,2.5-2.5,2.5Z"/>
      </g>
      <path d="M64.17,67.24H8.02c-4.42,0-8.02-3.6-8.02-8.02V20.35c0-4.42,3.6-8.02,8.02-8.02h56.15c4.42,0,8.02,3.6,8.02,8.02v38.87c0,4.42-3.6,8.02-8.02,8.02ZM8.02,17.33c-1.67,0-3.02,1.36-3.02,3.02v38.87c0,1.67,1.36,3.02,3.02,3.02h56.15c1.67,0,3.02-1.36,3.02-3.02V20.35c0-1.67-1.36-3.02-3.02-3.02H8.02Z"/>
      <path d="M48.42,17.33h-24.65c-1.38,0-2.5-1.12-2.5-2.5,0-8.17,6.65-14.83,14.83-14.83s14.83,6.65,14.83,14.83c0,1.38-1.12,2.5-2.5,2.5ZM26.6,12.33h19.01c-1.11-4.21-4.95-7.33-9.5-7.33s-8.39,3.11-9.5,7.33Z"/>
    </g>
  </g>
</svg>