<?xml version="1.0" encoding="UTF-8"?>
<svg id="Layer_2" data-name="Layer 2" xmlns="http://www.w3.org/2000/svg" viewBox="0 0 22.38 26.3">
  <defs>
    <style>
      .cls-1 {
        fill: #fff;
        fill-rule: evenodd;
      }
    </style>
  </defs>
  <g id="Layer_1-2" data-name="Layer 1">
    <path class="cls-1" d="M10,0c1.68,0,3.19.68,4.29,1.78,1.1,1.1,1.78,2.62,1.78,4.29s-.68,3.19-1.78,4.29c-.5.5-1.08.91-1.73,1.21.68.18,1.34.44,1.96.75-.09.13-.17.27-.24.41l-.02.04c-.07.17-.12.36-.15.55-.24.12-.47.25-.69.41-.35.24-.66.53-.95.86-.47.53-.84,1.17-1.1,1.86-.24.67-.38,1.4-.39,2.17-.01,2.65-.32,3.01-.62,3.37-.15.17-.29.35-.45.6-.15.24-.29.54-.41.93-.03.07-.05.14-.06.21h0c-.02.09-.02.17-.02.25,0,.23.06.44.16.63H2.2c-.61,0-1.16-.25-1.56-.65-.4-.4-.65-.95-.65-1.56v-1.2c0-2.75,1.12-5.25,2.94-7.06,1.23-1.23,2.77-2.14,4.5-2.6-.65-.3-1.23-.71-1.73-1.21-1.1-1.1-1.78-2.62-1.78-4.29s.68-3.19,1.78-4.29c1.1-1.1,2.62-1.78,4.29-1.78h0ZM17.7,13.76c0-.06.01-.11.01-.17,0-.41-.16-.77-.43-1.04h0c-.27-.27-.63-.43-1.04-.43s-.77.16-1.04.43h0c-.27.27-.43.63-.43,1.04,0,.06,0,.11.01.17-.69.26-1.3.7-1.8,1.27-.81.93-1.31,2.2-1.32,3.6-.01,2.9-.4,3.35-.78,3.8-.27.32-.53.63-.74,1.32-.03.08-.05.16-.05.25,0,.37.3.67.67.67h3.53c.07.41.27.78.55,1.06h0c.36.36.85.58,1.4.58s1.04-.22,1.4-.58h0c.28-.28.48-.65.55-1.06h3.53c.06,0,.12-.01.18-.03.35-.1.56-.47.45-.82-.21-.73-.49-1.06-.76-1.38-.38-.45-.76-.9-.78-3.8,0-1.4-.51-2.67-1.32-3.6-.5-.57-1.11-1.01-1.8-1.27Z"/>
  </g>
</svg>