<?xml version="1.0" encoding="UTF-8"?>
<svg id="Layer_2" data-name="Layer 2" xmlns="http://www.w3.org/2000/svg" viewBox="0 0 23.04 22.81">
  <defs>
    <style>
      .cls-1 {
        fill: #fff;
        fill-rule: evenodd;
      }
    </style>
  </defs>
  <g id="Layer_1-2" data-name="Layer 1">
    <path class="cls-1" d="M10.51,22.5l12.05-10.07c.31-.26.48-.61.48-1.02s-.16-.76-.48-1.02L10.51.31c-.41-.34-.94-.41-1.42-.18-.48.22-.77.68-.77,1.21v7.15c0,.53-.29.98-.77,1.21-.48.22-1.01.16-1.42-.18l-3.96-3.31c-.41-.34-.94-.41-1.42-.18-.48.22-.77.68-.77,1.21v8.37c0,.53.29.98.77,1.21.48.22,1.01.15,1.42-.18l3.96-3.31c.41-.34.94-.41,1.42-.18.48.22.77.68.77,1.21v7.15c0,.53.29.98.77,1.21.48.22,1.01.15,1.42-.18Z"/>
  </g>
</svg>