<?xml version="1.0" encoding="UTF-8"?>
<svg id="Layer_2" data-name="Layer 2" xmlns="http://www.w3.org/2000/svg" viewBox="0 0 160.52 160.54">
  <defs>
    <style>
      .cls-1 {
        fill: #080a16;
      }
    </style>
  </defs>
  <g id="Calque_1" data-name="Calque 1">
    <path class="cls-1" d="M0,34.45C0,15.46,15.46,0,34.45,0s34.45,15.46,34.45,34.45v91.62c0,1.86.46,3.7,1.33,5.31,1.97,3.73,5.81,6.06,10.03,6.06s8.07-2.32,10.04-6.07c.86-1.6,1.32-3.44,1.32-5.3V34.45C91.62,15.46,107.07,0,126.07,0s34.45,15.46,34.45,34.45v126.08h-23.09V34.45c0-6.26-5.09-11.36-11.36-11.36s-11.36,5.09-11.36,11.36v91.62c0,1.52-.1,3.04-.3,4.51-2.24,17.08-16.92,29.95-34.15,29.95s-31.91-12.87-34.15-29.94c-.2-1.48-.3-3-.3-4.52V34.45c0-6.26-5.09-11.36-11.36-11.36s-11.36,5.09-11.36,11.36v126.08H0V34.45Z"/>
  </g>
</svg>