<?xml version="1.0" encoding="UTF-8"?>
<svg id="Layer_2" data-name="Layer 2" xmlns="http://www.w3.org/2000/svg" viewBox="0 0 27.72 28.07">
  <defs>
    <style>
      .cls-1 {
        fill: #fff;
        fill-rule: evenodd;
      }
    </style>
  </defs>
  <g id="Layer_1-2" data-name="Layer 1">
    <path class="cls-1" d="M13.78,0c3.34,0,6.36,1.35,8.55,3.54,1.39,1.39,2.44,3.12,3.03,5.05.09-.31.37-.53.7-.53.4,0,.73.33.73.73v.72c.06-.02.13-.03.2-.03.4,0,.73.33.73.73v3.39c0,.4-.33.73-.73.73-.07,0-.13,0-.2-.03v1.1c0,.4-.33.73-.73.73-.33,0-.62-.22-.7-.53-.58,1.93-1.64,3.66-3.03,5.05-2.19,2.19-5.21,3.54-8.55,3.54s-6.36-1.35-8.55-3.54c-1.4-1.4-2.46-3.14-3.04-5.09-.06.13-.16.25-.29.32.2,2.74,1.55,5.21,3.63,7.04,1.81,1.59,4.16,2.7,6.78,3.09.19-.67.81-1.16,1.55-1.16.89,0,1.61.72,1.61,1.61s-.72,1.61-1.61,1.61-1.54-.65-1.61-1.48c-2.75-.4-5.22-1.56-7.11-3.23-2.18-1.92-3.61-4.52-3.83-7.4-.3-.09-.52-.37-.52-.7v-.73s-.05,0-.07,0c-.4,0-.73-.33-.73-.73v-3.39c0-.4.33-.73.73-.73.02,0,.05,0,.07,0v-1.04c0-.4.33-.73.73-.73.35,0,.64.24.71.57.59-1.88,1.63-3.57,2.99-4.93C7.42,1.35,10.44,0,13.78,0h0ZM8.13,14.48c0,1.36.65,2.6,1.71,3.49,1.02.86,2.41,1.39,3.94,1.39s2.92-.53,3.94-1.39c1.05-.89,1.71-2.12,1.71-3.49,0-.4-.33-.73-.73-.73s-.73.33-.73.73c0,.92-.45,1.76-1.18,2.37-.76.64-1.83,1.04-3.01,1.04s-2.25-.4-3.01-1.04c-.73-.61-1.18-1.45-1.18-2.37,0-.4-.33-.73-.73-.73s-.73.33-.73.73h0ZM9.48,6.96c-1.22,0-2.22.99-2.22,2.22s.99,2.22,2.22,2.22,2.22-.99,2.22-2.22-.99-2.22-2.22-2.22h0ZM18.24,7.04c-1.22,0-2.22.99-2.22,2.21s.99,2.22,2.22,2.22,2.21-.99,2.21-2.22-.99-2.21-2.21-2.21Z"/>
  </g>
</svg>