<?xml version="1.0" encoding="UTF-8"?>
<svg id="Layer_2" data-name="Layer 2" xmlns="http://www.w3.org/2000/svg" viewBox="0 0 70.41 75.16">
  <g id="Layer_1-2" data-name="Layer 1">
    <g>
      <path d="M29.96,56.5c-.64,0-1.28-.24-1.77-.73l-10.48-10.48c-.98-.98-.98-2.56,0-3.54.98-.98,2.56-.98,3.54,0l8.71,8.71,19.19-19.19c.98-.98,2.56-.98,3.54,0,.98.98.98,2.56,0,3.54l-20.96,20.96c-.49.49-1.13.73-1.77.73Z"/>
      <path d="M57.59,75.16H12.82c-7.07,0-12.82-5.75-12.82-12.82v-30.94c0-2.99,1.31-5.82,3.59-7.75L28.62,2.42c3.81-3.23,9.34-3.23,13.15,0l25.05,21.23c2.28,1.94,3.59,4.76,3.59,7.76v30.94c0,7.07-5.75,12.82-12.82,12.82ZM35.2,5c-1.19,0-2.37.41-3.34,1.23L6.82,27.46c-1.16.98-1.82,2.42-1.82,3.94v30.94c0,4.31,3.51,7.82,7.82,7.82h44.77c4.31,0,7.82-3.51,7.82-7.82v-30.94c0-1.52-.67-2.96-1.83-3.94L38.54,6.24c-.97-.82-2.15-1.23-3.34-1.23Z"/>
    </g>
  </g>
</svg>