<?xml version="1.0" encoding="UTF-8"?>
<svg id="Layer_2" data-name="Layer 2" xmlns="http://www.w3.org/2000/svg" viewBox="0 0 25.66 18">
  <defs>
    <style>
      .cls-1 {
        fill: #fff;
        fill-rule: evenodd;
      }
    </style>
  </defs>
  <g id="Layer_1-2" data-name="Layer 1">
    <path class="cls-1" d="M1.48,0h20.52l-10.29,6.94L1.48,0h0ZM24.6,9.97c.29,0,.56-.12.76-.31.19-.19.31-.46.31-.75v-.17c0-.5-.2-.95-.53-1.28h0c-.33-.33-.78-.53-1.28-.53h-1.37c-.03-.26-.14-.5-.32-.68h0c-.2-.2-.48-.33-.79-.33h-1.92c-.31,0-.59.13-.79.33-.18.18-.3.42-.32.69h-1.37c-1,0-1.81.82-1.81,1.81v.17c0,.29.12.56.31.75.19.19.46.31.76.31h8.38ZM24.94,10.6l-.72,6.24c-.04.31-.17.6-.38.81-.22.22-.51.36-.85.36h-5.16c-.34,0-.63-.14-.85-.35-.21-.21-.35-.5-.38-.81l-.72-6.24c.11.02.23.04.35.04h8.38c.12,0,.24-.01.35-.03h0ZM23.41.55l-11.36,7.66c-.2.14-.48.14-.7,0L.01.51s-.01.08-.01.12v14.13c0,.35.28.63.62.63h15.13l-.59-5.11c-.06-.05-.12-.1-.17-.15-.31-.31-.51-.75-.51-1.23v-.17c0-.68.28-1.3.73-1.75.45-.45,1.07-.73,1.75-.73h.87c.09-.18.21-.35.35-.49.16-.16.36-.3.58-.39h0c.21-.09.44-.14.68-.14h1.92c.24,0,.47.05.68.14.22.09.42.22.58.39l.47.47-.02.02h.34V.63s0-.05,0-.08Z"/>
  </g>
</svg>