<?xml version="1.0" encoding="UTF-8"?>
<svg id="Layer_2" data-name="Layer 2" xmlns="http://www.w3.org/2000/svg" viewBox="0 0 30.37 27.16">
  <defs>
    <style>
      .cls-1 {
        fill: #fff;
        fill-rule: evenodd;
      }
    </style>
  </defs>
  <g id="Layer_1-2" data-name="Layer 1">
    <path class="cls-1" d="M9.06,5.85h5.07c.73,0,1.33-.6,1.33-1.33V1.34c0-.55.31-1.02.82-1.23.51-.21,1.06-.1,1.45.29l12.25,12.25c.52.52.52,1.36,0,1.88l-12.25,12.25c-.39.39-.94.5-1.45.29-.51-.21-.82-.68-.82-1.23v-3.18c0-.73-.6-1.33-1.33-1.33h-5.07c-.73,0-1.33-.6-1.33-1.33V7.18c0-.73.6-1.33,1.33-1.33h0ZM4.42,5.85h.43c.73,0,1.33.6,1.33,1.33v12.8c0,.73-.6,1.33-1.33,1.33h-.43c-.73,0-1.33-.6-1.33-1.33V7.18c0-.73.6-1.33,1.33-1.33h0ZM0,5.85h.21c.73,0,1.33.6,1.33,1.33v14.13h-.21c-.73,0-1.33-.6-1.33-1.33V5.85Z"/>
  </g>
</svg>