<?xml version="1.0" encoding="UTF-8"?>
<svg id="Layer_2" data-name="Layer 2" xmlns="http://www.w3.org/2000/svg" viewBox="0 0 20.83 22.97">
  <defs>
    <style>
      .cls-1 {
        fill: #fff;
        fill-rule: evenodd;
      }
    </style>
  </defs>
  <g id="Layer_1-2" data-name="Layer 1">
    <path class="cls-1" d="M0,10.42c0,2.88,1.17,5.48,3.05,7.36,1.89,1.88,4.49,3.05,7.36,3.05.65,0,1.29-.06,1.93-.18.54-.1,1.07-.25,1.61-.44l4.87,2.65c.18.11.4.14.61.06.34-.14.51-.53.37-.87l-1.82-4.48c.85-.9,1.54-1.94,2.03-3.1.53-1.25.82-2.62.82-4.06,0-2.88-1.17-5.48-3.05-7.36-1.89-1.89-4.49-3.05-7.36-3.05S4.94,1.17,3.05,3.05,0,7.54,0,10.42h0ZM7.18,10.13c0,.68-.55,1.24-1.24,1.24s-1.24-.55-1.24-1.24.55-1.24,1.24-1.24,1.24.55,1.24,1.24h0ZM14.89,11.36c-.68,0-1.24-.55-1.24-1.24s.55-1.24,1.24-1.24,1.24.55,1.24,1.24-.55,1.24-1.24,1.24h0ZM11.65,10.13c0,.68-.55,1.24-1.24,1.24s-1.24-.55-1.24-1.24.55-1.24,1.24-1.24,1.24.55,1.24,1.24Z"/>
  </g>
</svg>