<?xml version="1.0" encoding="UTF-8"?>
<svg id="Layer_2" data-name="Layer 2" xmlns="http://www.w3.org/2000/svg" viewBox="0 0 71.97 66.71">
  <g id="Layer_1-2" data-name="Layer 1">
    <path d="M35.98,66.71c-2.87,0-5.74-1.09-7.93-3.28l-4.84-4.84c-1.17-1.17-2.73-1.82-4.39-1.82h-7.6c-6.18,0-11.21-5.03-11.21-11.21V11.21C0,5.03,5.03,0,11.21,0h49.54c6.18,0,11.21,5.03,11.21,11.21v34.34c0,6.18-5.03,11.21-11.21,11.21h-7.6c-1.66,0-3.22.65-4.39,1.82l-4.84,4.84c-2.19,2.19-5.06,3.28-7.93,3.28ZM11.21,5c-3.43,0-6.21,2.79-6.21,6.21v34.34c0,3.43,2.79,6.21,6.21,6.21h7.6c3,0,5.81,1.17,7.93,3.28l4.84,4.84c2.42,2.42,6.36,2.42,8.79,0l4.84-4.84c2.12-2.12,4.93-3.28,7.93-3.28h7.6c3.43,0,6.21-2.79,6.21-6.21V11.21c0-3.43-2.79-6.21-6.21-6.21H11.21Z"/>
  </g>
</svg>