<?xml version="1.0" encoding="UTF-8"?>
<svg id="Layer_2" data-name="Layer 2" xmlns="http://www.w3.org/2000/svg" viewBox="0 0 32.85 19.52">
  <defs>
    <style>
      .cls-1 {
        fill: #fff;
        fill-rule: evenodd;
      }
    </style>
  </defs>
  <g id="Layer_1-2" data-name="Layer 1">
    <path class="cls-1" d="M17.1,2.36l-.12-.13c-.44-.48-.4-1.23.08-1.67l.27-.24c.48-.44,1.23-.4,1.67.08l.12.13,7.15,7.87h0s.8.89.8.89c.43.47.41,1.19-.04,1.63l-8.3,8.26c-.46.46-1.21.46-1.67,0l-.25-.26c-.46-.46-.46-1.21,0-1.67l4.11-4.09c.35-.35.45-.84.26-1.29-.19-.45-.6-.73-1.09-.73H1.18c-.65,0-1.18-.53-1.18-1.18v-.37c0-.65.53-1.18,1.18-1.18h18.72c.48,0,.89-.27,1.08-.7.19-.44.12-.92-.21-1.27l-3.68-4.06h0ZM22.57,2.36l6.2,6.83c.43.47.41,1.19-.04,1.63l-6.45,6.42c-.46.46-.46,1.21,0,1.67l.25.26c.46.46,1.21.46,1.67,0l8.3-8.26c.45-.45.47-1.17.04-1.63L24.59.52l-.12-.13c-.44-.48-1.19-.52-1.67-.08l-.27.24c-.48.44-.52,1.19-.08,1.67l.12.13Z"/>
  </g>
</svg>