<?xml version="1.0" encoding="UTF-8"?>
<svg id="Layer_2" data-name="Layer 2" xmlns="http://www.w3.org/2000/svg" viewBox="0 0 23.67 25.61">
  <defs>
    <style>
      .cls-1 {
        fill: #fff;
        fill-rule: evenodd;
      }
    </style>
  </defs>
  <g id="Layer_1-2" data-name="Layer 1">
    <path class="cls-1" d="M1.63,8.86c1.01-1.01,2.4-1.63,3.94-1.63.54,0,1.06.08,1.56.22.51.15,1,.37,1.44.65.29.19.61.28.92.29.31,0,.63-.08.93-.25l1.22-.7c.3-.17.53-.41.68-.68.15-.28.23-.6.21-.94-.05-1.02.19-2.04.68-2.93h0c.47-.87,1.18-1.62,2.1-2.15,1.33-.77,2.85-.93,4.23-.56,1.38.37,2.61,1.26,3.38,2.6h0c.77,1.34.93,2.85.56,4.23-.37,1.38-1.26,2.61-2.6,3.38-.92.53-1.92.77-2.9.75-1.02-.02-2.02-.33-2.88-.88-.29-.19-.6-.28-.92-.29-.32,0-.64.08-.93.25l-1.22.7c-.3.17-.53.41-.68.68-.15.28-.23.6-.21.94,0,.08,0,.17,0,.25,0,.08,0,.17,0,.25-.02.34.06.66.21.94.15.28.38.51.68.68l1.22.7c.3.17.62.25.93.25.31,0,.63-.1.92-.29.86-.55,1.86-.85,2.88-.88.98-.02,1.99.22,2.9.75h0c1.33.77,2.23,2.01,2.6,3.38.37,1.38.21,2.89-.56,4.23-.77,1.33-2.01,2.23-3.38,2.6-1.38.37-2.89.21-4.23-.56-.92-.53-1.63-1.28-2.1-2.14h0c-.49-.9-.73-1.91-.68-2.93.02-.34-.06-.66-.21-.94-.15-.28-.38-.51-.68-.68l-1.22-.7c-.3-.17-.62-.25-.94-.25-.31,0-.63.1-.92.29-.44.28-.92.5-1.44.65-.5.15-1.03.22-1.56.22-1.54,0-2.93-.62-3.94-1.63s-1.63-2.4-1.63-3.94.62-2.93,1.63-3.94Z"/>
  </g>
</svg>