<?xml version="1.0" encoding="UTF-8"?>
<svg id="Layer_2" data-name="Layer 2" xmlns="http://www.w3.org/2000/svg" viewBox="0 0 23.43 12.41">
  <defs>
    <style>
      .cls-1 {
        fill: #fff;
        fill-rule: evenodd;
      }
    </style>
  </defs>
  <g id="Layer_1-2" data-name="Layer 1">
    <path class="cls-1" d="M1.33,4.49h11.76c.47,0,.88-.23,1.13-.63.25-.4.27-.87.07-1.29l-.32-.65c-.27-.55-.14-1.2.33-1.6.47-.4,1.13-.43,1.63-.08l6.94,4.87c.37.26.57.64.57,1.09,0,.45-.2.83-.57,1.09l-6.94,4.87c-.5.35-1.16.32-1.63-.08-.47-.4-.6-1.04-.33-1.6l.32-.65c.21-.42.18-.89-.07-1.29-.25-.4-.66-.63-1.13-.63H1.33c-.73,0-1.33-.6-1.33-1.33v-.76c0-.73.6-1.33,1.33-1.33Z"/>
  </g>
</svg>