<?xml version="1.0" encoding="UTF-8"?>
<svg id="Layer_2" data-name="Layer 2" xmlns="http://www.w3.org/2000/svg" viewBox="0 0 24.91 20.29">
  <defs>
    <style>
      .cls-1 {
        fill: #fff;
        fill-rule: evenodd;
      }
    </style>
  </defs>
  <g id="Layer_1-2" data-name="Layer 1">
    <path class="cls-1" d="M22.24,11.29c0-.74.6-1.33,1.33-1.33s1.33.6,1.33,1.33v7.66c0,.74-.6,1.33-1.33,1.33H1.33c-.74,0-1.33-.6-1.33-1.33v-7.66c0-.74.6-1.33,1.33-1.33s1.33.6,1.33,1.33v6.33h19.58v-6.33h0ZM19.23,6.22L13.4.39C13.15.14,12.82,0,12.48,0h-.02s0,0,0,0h-.02c-.33,0-.67.14-.92.39l-5.83,5.83c-.52.52-.52,1.36,0,1.88.52.52,1.36.52,1.88,0l3.56-3.56v9.02c0,.74.6,1.33,1.33,1.33s1.33-.6,1.33-1.33V4.55l3.56,3.56c.52.52,1.36.52,1.88,0,.52-.52.52-1.36,0-1.88Z"/>
  </g>
</svg>