<?xml version="1.0" encoding="UTF-8"?>
<svg id="Layer_2" data-name="Layer 2" xmlns="http://www.w3.org/2000/svg" viewBox="0 0 30.01 18.46">
  <defs>
    <style>
      .cls-1 {
        fill: #fff;
        fill-rule: evenodd;
      }
    </style>
  </defs>
  <g id="Layer_1-2" data-name="Layer 1">
    <path class="cls-1" d="M.73,0h26.65c.4,0,.73.33.73.73v3.93h-8.02c-.4,0-.77.16-1.03.43-.26.26-.43.63-.43,1.03v6.22c0,.4.16.76.43,1.03h0c.26.27.63.43,1.03.43h8.02v3.93c0,.4-.33.73-.73.73H.73c-.4,0-.73-.33-.73-.73V.73c0-.4.33-.73.73-.73h0ZM20.08,5.39c-.4,0-.73.33-.73.73v6.22c0,.4.33.73.73.73h9.2c.4,0,.73-.33.73-.73v-6.22c0-.4-.33-.73-.73-.73h-9.2ZM23.61,7.24c-.55,0-1.05.22-1.41.59-.36.36-.58.86-.58,1.41s.22,1.05.58,1.41h0c.36.36.86.59,1.41.59s1.05-.22,1.41-.59h0c.36-.37.59-.86.59-1.41s-.22-1.05-.59-1.41h0c-.36-.36-.86-.59-1.41-.59h0ZM3.43,3.48h20.72c.4,0,.73-.33.73-.73s-.33-.73-.73-.73H3.43c-.4,0-.73.33-.73.73s.33.73.73.73Z"/>
  </g>
</svg>