<?xml version="1.0" encoding="UTF-8"?>
<svg id="Layer_2" data-name="Layer 2" xmlns="http://www.w3.org/2000/svg" viewBox="0 0 29.81 29.3">
  <defs>
    <style>
      .cls-1 {
        fill: #fff;
        fill-rule: evenodd;
      }
    </style>
  </defs>
  <g id="Layer_1-2" data-name="Layer 1">
    <path class="cls-1" d="M5.76,9.73h0c.18,0,.36.01.56.03h.04c.57-1.08,1.41-1.99,2.43-2.66,1.13-.73,2.47-1.16,3.91-1.16,1.78,0,3.41.65,4.66,1.73,1.16.99,1.99,2.35,2.33,3.89,1.01.24,1.9.79,2.56,1.55.76.87,1.22,2,1.22,3.23,0,1.36-.55,2.58-1.45,3.47-.9.89-2.13,1.44-3.49,1.44h0c-.77,0-5.35,0-8.89,0-1.99,0-3.65,0-4.13-.01-1.52-.02-2.89-.7-3.88-1.73-1.02-1.06-1.65-2.5-1.65-4.01,0-1.58.65-3.02,1.69-4.07,1.04-1.04,2.48-1.69,4.07-1.69h0ZM6.23,22.9c.21-.3.63-.37.93-.15.3.21.37.63.15.93l-1.34,1.86c-.21.3-.63.37-.93.15-.3-.21-.37-.63-.15-.93l1.34-1.86h0ZM16.1,22.9c.21-.3.63-.37.93-.15.3.21.37.63.15.93l-1.34,1.86c-.21.3-.63.37-.93.15-.3-.21-.36-.63-.15-.93l1.34-1.86h0ZM13.6,26.38c.21-.3.63-.37.93-.15.3.21.36.63.15.93l-1.34,1.86c-.21.3-.63.37-.93.15-.3-.21-.37-.63-.15-.93l1.34-1.86h0ZM11.17,22.9c.21-.3.63-.37.93-.15.3.21.36.63.15.93l-1.34,1.86c-.21.3-.63.37-.93.15-.3-.21-.37-.63-.15-.93l1.34-1.86h0ZM8.66,26.38c.21-.3.63-.37.93-.15s.37.63.15.93l-1.34,1.86c-.21.3-.63.37-.93.15-.3-.21-.37-.63-.15-.93l1.34-1.86h0ZM3.73,26.38c.21-.3.63-.37.93-.15.3.21.37.63.15.93l-1.34,1.86c-.21.3-.63.37-.93.15-.3-.21-.36-.63-.15-.93l1.34-1.86h0ZM19.41,5c-.81,0-1.59.18-2.29.51-.34.16-.65.35-.95.57.59.29,1.14.66,1.63,1.08.64.55,1.19,1.2,1.62,1.92.36.6.64,1.25.83,1.94.42.13.82.32,1.19.54.5.3.94.67,1.32,1.11.31.36.58.76.8,1.18.26-.32.49-.66.67-1.03.37-.73.57-1.55.57-2.42,0-1.49-.6-2.84-1.58-3.82-.98-.98-2.33-1.58-3.82-1.58h0ZM25.82,3.05c.26-.26.68-.26.94,0,.26.26.26.68,0,.94l-1.92,1.92c-.26.26-.68.26-.94,0-.26-.26-.26-.68,0-.94l1.92-1.92h0ZM29.14,9.74c.37,0,.67.3.67.67s-.3.67-.67.67h-2.72c-.37,0-.67-.3-.67-.67s.3-.67.67-.67h2.72ZM26.76,16.82c.26.26.26.68,0,.94-.26.26-.68.26-.94,0l-1.68-1.68c-.02-.42-.09-.83-.2-1.23.26-.22.65-.2.9.04l1.92,1.92h0ZM12.05,3.99c-.26-.26-.26-.68,0-.94.26-.26.68-.26.94,0l1.92,1.92c.18.18.24.44.16.67-.55-.18-1.13-.29-1.72-.34l-1.31-1.31h0ZM18.74.67c0-.37.3-.67.67-.67s.67.3.67.67v2.72c0,.37-.3.67-.67.67s-.67-.3-.67-.67V.67Z"/>
  </g>
</svg>