<?xml version="1.0" encoding="UTF-8"?>
<svg id="Layer_2" data-name="Layer 2" xmlns="http://www.w3.org/2000/svg" viewBox="0 0 76.65 63.61">
  <g id="Layer_1-2" data-name="Layer 1">
    <g>
      <path d="M44.84,63.61c-9.72,0-18.68-4.32-24.76-11.89h-.17C8.94,51.73,0,42.79,0,31.81S8.94,11.89,19.92,11.89h.17C26.17,4.32,35.12,0,44.84,0c1.38,0,2.5,1.12,2.5,2.5v58.61c0,1.38-1.12,2.5-2.5,2.5ZM19.92,16.89c-8.23,0-14.92,6.69-14.92,14.92s6.69,14.92,14.92,14.92h1.4c.79,0,1.54.38,2.01,1.01,4.62,6.23,11.45,10.07,19.02,10.76V5.11c-7.57.69-14.4,4.53-19.02,10.76-.47.64-1.22,1.01-2.01,1.01h-1.4Z"/>
      <path d="M58.13,55.48c-1.09,0-2.1-.72-2.41-1.83-.37-1.33.4-2.71,1.73-3.08,8.36-2.34,14.2-10.06,14.2-18.77s-5.84-16.41-14.2-18.75c-1.33-.37-2.11-1.75-1.73-3.08.37-1.33,1.75-2.11,3.08-1.73,10.51,2.95,17.85,12.64,17.85,23.57s-7.34,20.64-17.85,23.58c-.23.06-.45.09-.68.09Z"/>
      <path d="M58.85,41.71c-.85,0-1.68-.43-2.15-1.22-.71-1.19-.32-2.72.87-3.43,1.87-1.12,2.99-3.08,2.99-5.26s-1.15-4.15-2.99-5.25c-1.19-.71-1.57-2.24-.87-3.43.71-1.19,2.25-1.57,3.43-.87,3.35,2,5.43,5.66,5.43,9.55s-2.08,7.56-5.43,9.56c-.4.24-.84.35-1.28.35Z"/>
    </g>
  </g>
</svg>