<?xml version="1.0" encoding="UTF-8"?>
<svg id="Layer_2" data-name="Layer 2" xmlns="http://www.w3.org/2000/svg" viewBox="0 0 65.26 71.49">
  <g id="Layer_1-2" data-name="Layer 1">
    <g>
      <path d="M58.59,71.49H6.66c-3.67,0-6.66-2.99-6.66-6.66V6.66C0,2.99,2.99,0,6.66,0h51.93c3.67,0,6.66,2.99,6.66,6.66v58.16c0,3.67-2.99,6.66-6.66,6.66ZM6.66,5c-.92,0-1.66.75-1.66,1.66v58.16c0,.92.75,1.66,1.66,1.66h51.93c.92,0,1.66-.75,1.66-1.66V6.66c0-.92-.75-1.66-1.66-1.66H6.66Z"/>
      <path d="M50.26,28.14H14.99c-1.7,0-3.08-1.38-3.08-3.08v-10.35c0-1.7,1.38-3.08,3.08-3.08h35.27c1.7,0,3.08,1.38,3.08,3.08v10.35c0,1.7-1.38,3.08-3.08,3.08ZM16.91,23.14h31.43v-6.5h-31.43v6.5Z"/>
      <path d="M17.36,43.62c-.66,0-1.3-.27-1.77-.73-.47-.47-.73-1.11-.73-1.77s.26-1.3.73-1.77c.11-.11.24-.22.38-.31s.28-.17.43-.23c.15-.06.31-.11.47-.14.32-.07.65-.07.98,0,.16.03.31.08.47.14.15.06.29.14.43.23.13.09.26.2.38.31.46.47.73,1.11.73,1.77s-.27,1.3-.74,1.77c-.11.11-.24.22-.37.31-.14.09-.28.17-.43.23-.16.06-.31.11-.47.14-.16.03-.33.05-.49.05Z"/>
      <path d="M17.36,55.74c-.66,0-1.3-.27-1.77-.73-.11-.12-.22-.25-.31-.38-.09-.14-.17-.28-.23-.44-.06-.15-.11-.3-.14-.46-.04-.16-.05-.33-.05-.49,0-.66.26-1.3.73-1.77.58-.58,1.44-.85,2.26-.68.16.03.31.08.47.14.15.06.29.14.43.23.13.09.26.2.38.31.46.47.73,1.11.73,1.77,0,.16-.02.33-.05.49-.03.16-.08.31-.14.46-.06.16-.14.3-.23.44-.09.13-.2.26-.32.38-.11.11-.24.22-.37.31-.14.09-.28.16-.43.23-.16.06-.31.11-.47.14-.16.03-.33.05-.49.05Z"/>
      <path d="M31.74,43.62c-.17,0-.33-.02-.49-.05-.16-.03-.32-.08-.47-.14-.15-.07-.29-.14-.43-.23s-.27-.2-.38-.31c-.11-.12-.22-.25-.31-.38-.09-.14-.17-.28-.23-.43-.06-.15-.11-.31-.14-.47-.04-.16-.05-.33-.05-.49,0-.66.26-1.3.73-1.77.11-.11.24-.22.38-.31.13-.09.28-.17.43-.23.15-.06.31-.11.47-.14.81-.17,1.67.1,2.25.68.47.47.74,1.11.74,1.77,0,.16-.02.33-.05.49s-.08.32-.14.47c-.07.15-.14.29-.23.43-.09.13-.2.26-.32.38-.46.46-1.11.73-1.76.73Z"/>
      <path d="M46.12,43.62c-.17,0-.33-.02-.49-.05-.16-.03-.32-.08-.47-.14-.15-.06-.3-.14-.43-.23-.14-.09-.27-.2-.38-.31-.47-.47-.73-1.11-.73-1.77,0-.16.01-.33.05-.49.03-.16.08-.32.14-.47.06-.15.14-.29.23-.43.09-.13.19-.26.31-.38.92-.93,2.6-.93,3.54,0,.11.12.22.25.31.38.09.14.16.28.23.43.06.15.11.31.14.47.03.16.05.33.05.49,0,.66-.27,1.3-.74,1.77-.11.11-.24.22-.38.31-.13.09-.28.17-.43.23-.15.06-.31.11-.47.14-.16.03-.32.05-.48.05Z"/>
      <path d="M46.12,55.74h-14.38c-1.38,0-2.5-1.12-2.5-2.5s1.12-2.5,2.5-2.5h14.38c1.38,0,2.5,1.12,2.5,2.5s-1.12,2.5-2.5,2.5Z"/>
    </g>
  </g>
</svg>