<?xml version="1.0" encoding="UTF-8"?>
<svg id="Layer_2" data-name="Layer 2" xmlns="http://www.w3.org/2000/svg" viewBox="0 0 24.49 24.49">
  <defs>
    <style>
      .cls-1 {
        fill: #fff;
        fill-rule: evenodd;
      }
    </style>
  </defs>
  <g id="Layer_1-2" data-name="Layer 1">
    <path class="cls-1" d="M12.24,0c3.38,0,6.44,1.37,8.66,3.59s3.59,5.28,3.59,8.66-1.37,6.44-3.59,8.66c-1.96,1.96-4.57,3.25-7.48,3.53h0s-.12.01-.12.01h-.02s-.07,0-.07,0h-.04s-.09,0-.09,0h-.07s-.01,0-.01,0h-.07s-.03,0-.03,0h-.01s-.12,0-.12,0h-.05s-.13,0-.13,0h0c-.05,0-.1,0-.15,0h-.16s-.15,0-.15,0h-.01c-.05,0-.1,0-.15,0h0s-.13,0-.13,0h-.05s-.12,0-.12,0h-.01s-.03,0-.03,0h-.07s-.02,0-.02,0h-.07s-.1-.01-.1-.01h-.04s-.07,0-.07,0h-.02s-.12-.01-.12-.01h-.02c-2.91-.28-5.52-1.58-7.48-3.53C1.37,18.69,0,15.63,0,12.24S1.37,5.8,3.59,3.59C5.8,1.37,8.86,0,12.24,0h0ZM12.24,3.95c-1.45,0-2.76.59-3.7,1.53-.95.95-1.53,2.26-1.53,3.7s.59,2.76,1.53,3.7c.95.95,2.26,1.53,3.7,1.53s2.76-.59,3.7-1.53,1.53-2.26,1.53-3.7-.59-2.76-1.53-3.7c-.95-.95-2.26-1.53-3.7-1.53h0ZM3.76,19.1c.13-.98.43-1.91.86-2.76.62-1.21,1.52-2.25,2.61-3.05.27-.19.63-.16.86.07.54.54,1.19.98,1.91,1.28.69.29,1.45.44,2.25.44s1.56-.16,2.25-.44c.72-.3,1.37-.73,1.91-1.28.25-.24.63-.26.89-.04,1.08.79,1.96,1.83,2.57,3.02.43.85.73,1.78.86,2.76,1.51-1.87,2.42-4.26,2.42-6.86,0-3.01-1.22-5.74-3.2-7.72-1.97-1.97-4.7-3.2-7.72-3.2s-5.74,1.22-7.72,3.2c-1.97,1.97-3.2,4.7-3.2,7.72,0,2.6.91,4.98,2.42,6.86Z"/>
  </g>
</svg>