<?xml version="1.0" encoding="UTF-8"?>
<svg id="Layer_2" data-name="Layer 2" xmlns="http://www.w3.org/2000/svg" viewBox="0 0 26.03 26.03">
  <defs>
    <style>
      .cls-1 {
        fill: #fff;
        fill-rule: evenodd;
      }
    </style>
  </defs>
  <g id="Layer_1-2" data-name="Layer 1">
    <path class="cls-1" d="M13.01,0c3.59,0,6.85,1.46,9.2,3.81,2.36,2.36,3.81,5.61,3.81,9.2s-1.46,6.85-3.81,9.2c-2.35,2.35-5.61,3.81-9.2,3.81s-6.85-1.46-9.2-3.81c-2.35-2.35-3.81-5.61-3.81-9.2S1.46,6.17,3.81,3.81C6.17,1.46,9.42,0,13.01,0h0ZM7.5,13.94c-.4,0-.73.33-.73.73v.79c0,1.72.7,3.28,1.83,4.41,1.13,1.13,2.69,1.83,4.41,1.83s3.28-.7,4.41-1.83c1.13-1.13,1.83-2.69,1.83-4.41v-.79c0-.4-.33-.73-.73-.73H7.5ZM17.8,15.4h-9.58v.06c0,1.32.54,2.51,1.41,3.38.87.87,2.07,1.41,3.38,1.41s2.51-.54,3.38-1.41c.87-.87,1.41-2.07,1.41-3.38v-.06h0ZM7.13,10.69c0-.23.12-.45.32-.62l.03-.03c.23-.18.54-.29.89-.29s.69.12.92.31c.19.16.32.38.32.62,0,.4.33.73.73.73s.73-.33.73-.73c0-.68-.32-1.29-.84-1.73-.48-.41-1.14-.66-1.86-.66s-1.33.24-1.81.62l-.05.04c-.52.44-.84,1.05-.84,1.73,0,.4.33.73.73.73s.73-.33.73-.73h0ZM16.59,10.77c0-.23.12-.45.32-.62l.03-.03c.23-.18.54-.29.89-.29s.69.12.92.31h0c.2.17.32.39.32.62,0,.4.33.73.73.73s.73-.33.73-.73c0-.68-.32-1.29-.84-1.73h0c-.48-.41-1.14-.66-1.86-.66s-1.33.24-1.81.62l-.05.04c-.52.44-.84,1.05-.84,1.73,0,.4.33.73.73.73s.73-.33.73-.73Z"/>
  </g>
</svg>