<?xml version="1.0" encoding="UTF-8"?>
<svg id="Layer_2" data-name="Layer 2" xmlns="http://www.w3.org/2000/svg" viewBox="0 0 23.46 27.27">
  <defs>
    <style>
      .cls-1 {
        fill: #fff;
        fill-rule: evenodd;
      }
    </style>
  </defs>
  <g id="Layer_1-2" data-name="Layer 1">
    <path class="cls-1" d="M21.77,8.02H1.69c-.47,0-.89-.19-1.2-.5H.5c-.31-.31-.5-.73-.5-1.2v-.41c0-.96.39-1.82,1.02-2.46h0c.63-.63,1.5-1.02,2.46-1.02h4.13v-.61c0-.5.2-.96.53-1.29h0c.33-.33.79-.53,1.28-.53h4.6c.5,0,.95.2,1.28.54h0c.33.33.53.78.53,1.28v.61h4.13c.96,0,1.82.39,2.46,1.02h0c.63.63,1.02,1.5,1.02,2.46v.41c0,.46-.19.89-.5,1.19h0c-.31.31-.73.5-1.2.5h0ZM14.03,1.46h-4.6c-.1,0-.19.04-.25.1h0c-.07.07-.11.16-.11.26v.48h5.32v-.48c0-.1-.04-.19-.11-.25h0c-.06-.07-.15-.11-.25-.11h0ZM21.92,8.74l-1.9,16.5c-.06.55-.3,1.06-.67,1.42-.37.37-.86.6-1.43.6H5.54c-.57,0-1.06-.23-1.43-.6h0c-.37-.37-.6-.87-.67-1.43L1.54,8.74c.05,0,.1,0,.15,0h20.08c.05,0,.1,0,.15,0h0ZM10.93,11.05v9.24c0,.4.33.73.73.73s.73-.33.73-.73v-9.24c0-.4-.33-.73-.73-.73s-.73.33-.73.73h0ZM6.39,24.48h10.84c.4,0,.73-.33.73-.73s-.33-.73-.73-.73H6.39c-.4,0-.73.33-.73.73s.33.73.73.73h0ZM15.13,11.05v9.24c0,.4.33.73.73.73s.73-.33.73-.73v-9.24c0-.4-.33-.73-.73-.73s-.73.33-.73.73h0ZM6.88,11.05v9.24c0,.4.33.73.73.73s.73-.33.73-.73v-9.24c0-.4-.33-.73-.73-.73s-.73.33-.73.73Z"/>
  </g>
</svg>