<?xml version="1.0" encoding="UTF-8"?>
<svg id="Layer_2" data-name="Layer 2" xmlns="http://www.w3.org/2000/svg" viewBox="0 0 27.34 26.07">
  <defs>
    <style>
      .cls-1 {
        fill: #fff;
        fill-rule: evenodd;
      }
    </style>
  </defs>
  <g id="Layer_1-2" data-name="Layer 1">
    <path class="cls-1" d="M14.31.47l2.81,9.13,9.55-.15c.37,0,.67.29.67.65,0,.23-.11.43-.28.55l-7.81,5.49,3.1,9.04c.12.35-.07.73-.42.84-.23.08-.48.02-.65-.13l-7.6-5.71-7.64,5.74c-.29.22-.71.16-.93-.13-.14-.18-.17-.41-.1-.61h0s3.1-9.04,3.1-9.04L.28,10.66c-.3-.21-.37-.63-.16-.93.14-.2.37-.3.6-.28l9.51.15L13.04.47c.11-.35.48-.55.83-.44.22.07.38.24.44.44Z"/>
  </g>
</svg>