<?xml version="1.0" encoding="UTF-8"?>
<svg id="Layer_2" data-name="Layer 2" xmlns="http://www.w3.org/2000/svg" viewBox="0 0 25.46 23.72">
  <defs>
    <style>
      .cls-1 {
        fill: #fff;
        fill-rule: evenodd;
      }
    </style>
  </defs>
  <g id="Layer_1-2" data-name="Layer 1">
    <path class="cls-1" d="M16.82.47l.08-.13c.18-.32.59-.43.91-.24l2.59,1.5c.32.18.43.59.24.91,0,.01-.08.13-.08.13-.43.75-.65,1.55-.65,2.35,0,.8.22,1.6.66,2.35l.04.07c.43.73,1.01,1.31,1.69,1.7.69.4,1.49.61,2.35.61h.15c.37,0,.67.3.67.67v2.99c0,.37-.3.67-.67.67h-.15c-.87,0-1.67.21-2.35.61-.69.4-1.28.99-1.71,1.74,0,0-.02.03-.02.03-.44.75-.65,1.55-.66,2.35,0,.8.22,1.6.65,2.35l.08.13c.18.32.07.72-.24.91l-2.59,1.5c-.32.18-.72.07-.91-.24l-.08-.13c-.43-.75-1.02-1.34-1.71-1.73-.69-.4-1.49-.61-2.36-.61h0s-.03,0-.03,0h0c-.87,0-1.67.21-2.36.61-.69.4-1.28.98-1.71,1.73l-.08.13c-.18.32-.59.43-.91.24l-2.59-1.5c-.32-.18-.43-.59-.24-.91,0-.01.08-.13.08-.13.43-.75.65-1.55.65-2.35,0-.8-.22-1.6-.66-2.35l-.04-.07c-.43-.73-1.01-1.31-1.69-1.7-.69-.4-1.49-.61-2.35-.61h-.15c-.37,0-.67-.3-.67-.67v-2.99c0-.37.3-.67.67-.67h.15c.87,0,1.67-.21,2.35-.61.69-.4,1.28-.99,1.71-1.74,0,0,.02-.03.02-.03.44-.75.65-1.55.66-2.35,0-.8-.22-1.6-.65-2.35l-.08-.13c-.18-.32-.07-.72.24-.91L7.66.09c.32-.18.72-.07.9.24h0s.1.17.1.17c.43.73,1.01,1.31,1.69,1.7.69.4,1.49.61,2.36.61h0s.03,0,.03,0h0c.87,0,1.67-.21,2.36-.61.69-.4,1.28-.98,1.71-1.73h0ZM12.73,9.29c-.71,0-1.35.29-1.82.75h0c-.47.47-.75,1.11-.75,1.82s.29,1.35.75,1.82h0c.47.47,1.11.76,1.82.76s1.35-.29,1.82-.75h0c.47-.47.75-1.11.75-1.82s-.29-1.35-.75-1.82h0c-.47-.47-1.11-.76-1.82-.76h0ZM16,8.6c-.84-.84-1.99-1.35-3.27-1.35s-2.43.52-3.27,1.35c-.84.84-1.35,1.99-1.35,3.27s.52,2.43,1.35,3.27c.84.84,1.99,1.35,3.27,1.35s2.43-.52,3.27-1.35,1.35-1.99,1.35-3.27-.52-2.43-1.35-3.27Z"/>
  </g>
</svg>