<?xml version="1.0" encoding="UTF-8"?>
<svg id="Layer_2" data-name="Layer 2" xmlns="http://www.w3.org/2000/svg" viewBox="0 0 22.8 20.68">
  <defs>
    <style>
      .cls-1 {
        fill: #fff;
        fill-rule: evenodd;
      }
    </style>
  </defs>
  <g id="Layer_1-2" data-name="Layer 1">
    <path class="cls-1" d="M0,12.71v-6.94c0-.89.54-1.66,1.42-2.2.77-.47,1.81-.77,2.95-.78L18.25.02s.09-.01.13-.01h0c1.16,0,2.23.29,3,.77.88.54,1.42,1.32,1.42,2.2v9.73c0,.89-.54,1.66-1.42,2.2-.78.48-1.84.78-3,.78H7.9c-.54,1.19-1.34,2.23-2.32,3.07-1.09.93-2.4,1.59-3.85,1.9-.36.08-.71-.15-.79-.51-.05-.26.05-.51.24-.66.67-.58,1.23-1.27,1.66-2.04.31-.56.55-1.17.71-1.81-.84-.11-1.59-.37-2.17-.73-.86-.54-1.39-1.31-1.39-2.19Z"/>
  </g>
</svg>