<?xml version="1.0" encoding="UTF-8"?>
<svg id="Layer_2" data-name="Layer 2" xmlns="http://www.w3.org/2000/svg" viewBox="0 0 160.54 158.24">
  <defs>
    <style>
      .cls-1 {
        fill: #080a16;
      }
    </style>
  </defs>
  <g id="Calque_1" data-name="Calque 1">
    <polygon class="cls-1" points="160.54 75.24 97.27 75.24 154.27 47.79 150.91 40.8 93.9 68.25 133.35 18.78 127.28 13.95 87.84 63.41 101.91 1.73 94.35 0 80.27 61.68 66.19 0 58.62 1.73 72.7 63.41 33.26 13.95 27.19 18.78 66.64 68.25 9.63 40.8 6.27 47.79 63.27 75.24 0 75.24 0 83 63.27 83 6.27 110.45 9.63 117.44 66.64 89.99 27.19 139.46 33.26 144.3 72.7 94.83 58.62 156.51 66.19 158.24 80.27 96.56 94.35 158.24 101.91 156.51 87.84 94.83 127.28 144.3 133.35 139.46 93.9 89.99 150.91 117.44 154.27 110.45 97.27 83 160.54 83 160.54 75.24"/>
  </g>
</svg>