<?xml version="1.0" encoding="UTF-8"?>
<svg id="Layer_2" data-name="Layer 2" xmlns="http://www.w3.org/2000/svg" viewBox="0 0 20.96 24.66">
  <defs>
    <style>
      .cls-1 {
        fill: #fff;
        fill-rule: evenodd;
      }
    </style>
  </defs>
  <g id="Layer_1-2" data-name="Layer 1">
    <path class="cls-1" d="M2.48,6.27h15.99c.37,0,.67.3.67.67,0,.03,0,.06,0,.09l-.93,13.36c-.08,1.18-.58,2.26-1.36,3.04-.76.76-1.79,1.24-2.96,1.24h-6.82c-1.17,0-2.2-.47-2.96-1.24-.78-.78-1.27-1.86-1.36-3.04l-.93-13.4c-.02-.37.25-.68.62-.71h.04ZM13.43,10.68v9.57c0,.37.3.67.67.67s.67-.3.67-.67v-9.57c0-.37-.3-.67-.67-.67s-.67.3-.67.67h0ZM6.19,10.68v9.57c0,.37.3.67.67.67s.67-.3.67-.67v-9.57c0-.37-.3-.67-.67-.67s-.67.3-.67.67h0ZM9.75,10.68v9.57c0,.37.3.67.67.67s.67-.3.67-.67v-9.57c0-.37-.3-.67-.67-.67s-.67.3-.67.67h0ZM.67,5.6c-.37,0-.67-.3-.67-.67s.3-.67.67-.67h19.62c.37,0,.67.3.67.67s-.3.67-.67.67H.67ZM14.09,2.84v.14c0,.37-.3.67-.67.67h-5.89c-.37,0-.67-.3-.67-.67v-.14c0-.72.22-1.38.58-1.88l.03-.05c.42-.56,1.01-.91,1.68-.91h2.64c.67,0,1.26.35,1.68.91h0c.38.51.61,1.19.61,1.94Z"/>
  </g>
</svg>