<?xml version="1.0" encoding="UTF-8"?>
<svg id="Layer_2" data-name="Layer 2" xmlns="http://www.w3.org/2000/svg" viewBox="0 0 32.45 22.51">
  <defs>
    <style>
      .cls-1 {
        fill: #fff;
        fill-rule: evenodd;
      }
    </style>
  </defs>
  <g id="Layer_1-2" data-name="Layer 1">
    <path class="cls-1" d="M3.17,0h26.11c.4,0,.73.33.73.73v16.67c0,.4-.33.73-.73.73H3.17c-.4,0-.73-.33-.73-.73V.73c0-.4.33-.73.73-.73h0ZM29.37,22.51H3.08c-.85,0-1.61-.35-2.17-.9-.56-.56-.91-1.33-.91-2.17,0-.4.33-.73.73-.73h30.99c.4,0,.73.33.73.73,0,.84-.35,1.61-.91,2.17-.56.56-1.32.9-2.17.9h0ZM5.11,1.89c-.4,0-.73.33-.73.73v11.62c0,.4.33.73.73.73h22.23c.4,0,.73-.33.73-.73V2.62c0-.4-.33-.73-.73-.73H5.11Z"/>
  </g>
</svg>