<?xml version="1.0" encoding="UTF-8"?>
<svg id="Layer_2" data-name="Layer 2" xmlns="http://www.w3.org/2000/svg" viewBox="0 0 24.49 24.49">
  <defs>
    <style>
      .cls-1 {
        fill: #fff;
        fill-rule: evenodd;
      }
    </style>
  </defs>
  <g id="Layer_1-2" data-name="Layer 1">
    <path class="cls-1" d="M12.24,0c3.38,0,6.44,1.37,8.66,3.59,2.22,2.22,3.59,5.28,3.59,8.66s-1.37,6.44-3.59,8.66c-2.22,2.22-5.28,3.59-8.66,3.59s-6.44-1.37-8.66-3.59C1.37,18.69,0,15.63,0,12.24S1.37,5.8,3.59,3.59C5.8,1.37,8.86,0,12.24,0h0ZM8.98,4.09c1.14,0,2.18.46,2.93,1.21.75.75,1.21,1.78,1.21,2.93s-.46,2.18-1.21,2.93c-.21.21-.43.39-.68.55.93.34,1.77.88,2.46,1.56,1.21,1.21,1.96,2.87,1.96,4.7v.77c0,.46-.19.87-.48,1.17s-.71.48-1.17.48H4.99c1.93,1.72,4.47,2.76,7.25,2.76,3.01,0,5.74-1.22,7.72-3.2.58-.58,1.09-1.22,1.53-1.92-.2.12-.44.19-.69.19h-4.18c-.37,0-.67-.3-.67-.67v-.04c-.03-.79-.19-1.54-.47-2.25-.3-.74-.73-1.41-1.26-2-.25-.27-.23-.69.04-.94.02-.02.04-.03.06-.05.28-.2.58-.38.91-.52-.08-.07-.16-.14-.23-.21-.57-.57-.92-1.36-.92-2.23s.35-1.65.92-2.22h0c.57-.57,1.36-.92,2.23-.92s1.65.35,2.22.92h0c.57.57.92,1.36.92,2.23s-.35,1.66-.92,2.23c-.07.07-.15.14-.23.21.56.25,1.07.6,1.5,1.03.9.9,1.45,2.14,1.45,3.5v.47c.63-1.38.99-2.92.99-4.54,0-3.01-1.22-5.74-3.2-7.72-1.97-1.97-4.7-3.2-7.72-3.2s-5.74,1.22-7.72,3.2c-1.97,1.97-3.2,4.7-3.2,7.72,0,1.69.38,3.28,1.06,4.71.22-1.43.9-2.71,1.88-3.68.69-.69,1.52-1.23,2.46-1.56-.24-.16-.47-.34-.68-.55-.75-.75-1.21-1.78-1.21-2.93s.46-2.18,1.21-2.93c.75-.75,1.78-1.21,2.93-1.21Z"/>
  </g>
</svg>