<?xml version="1.0" encoding="UTF-8"?>
<svg id="Layer_2" data-name="Layer 2" xmlns="http://www.w3.org/2000/svg" viewBox="0 0 49.92 49.92">
  <g id="Layer_1-2" data-name="Layer 1">
    <g>
      <path d="M2.5,49.92c-.64,0-1.28-.24-1.77-.73-.98-.98-.98-2.56,0-3.54L45.65.73c.98-.98,2.56-.98,3.54,0,.98.98.98,2.56,0,3.54L4.27,49.19c-.49.49-1.13.73-1.77.73Z"/>
      <path d="M47.42,49.92c-.64,0-1.28-.24-1.77-.73L.73,4.27C-.24,3.29-.24,1.71.73.73,1.71-.24,3.29-.24,4.27.73l44.92,44.92c.98.98.98,2.56,0,3.54-.49.49-1.13.73-1.77.73Z"/>
    </g>
  </g>
</svg>