<?xml version="1.0" encoding="UTF-8"?>
<svg id="Layer_2" data-name="Layer 2" xmlns="http://www.w3.org/2000/svg" viewBox="0 0 23.07 23.07">
  <defs>
    <style>
      .cls-1 {
        fill: #fff;
        fill-rule: evenodd;
      }
    </style>
  </defs>
  <g id="Layer_1-2" data-name="Layer 1">
    <path class="cls-1" d="M12.95,1.1l1.07,4.15s.02.04.03.06c.01.01.03.02.05.03.02,0,.05.01.06.01.02,0,.04,0,.06-.02l3.69-2.18c.29-.17.61-.23.93-.19.31.04.61.18.85.42h0c.24.24.38.54.42.85.04.31-.02.64-.19.93l-2.18,3.69s-.02.04-.02.06c0,.02,0,.04.01.06v.02s.02.03.03.03c.01.01.03.02.06.03l4.15,1.07c.32.08.6.27.79.52.19.25.31.56.31.9s-.11.65-.31.9c-.19.25-.47.44-.79.52l-4.15,1.07s-.04.02-.06.03c-.01.01-.02.03-.03.05,0,.02-.01.04-.01.06,0,.02,0,.03.02.06l2.18,3.69c.17.29.23.61.19.93-.04.31-.18.61-.42.85h0c-.24.24-.54.38-.85.42-.31.04-.64-.02-.93-.19-1.16-.74-2.49-1.49-3.69-2.18-.02-.01-.04-.02-.06-.02-.02,0-.04,0-.06.01h-.02s-.03.02-.03.03c-.01.01-.02.03-.03.06l-1.07,4.15c-.08.32-.27.6-.52.79-.25.19-.56.31-.9.31s-.65-.11-.9-.31c-.25-.19-.44-.47-.52-.79l-1.07-4.15s-.02-.04-.03-.06c-.01-.01-.03-.02-.05-.03h0s-.04-.01-.06-.01c-.02,0-.03,0-.06.02l-3.69,2.18c-.29.17-.61.23-.93.19-.32-.04-.62-.18-.85-.42-.24-.24-.38-.54-.42-.85-.04-.31.02-.64.19-.93l2.18-3.69s.02-.04.02-.06c0-.02,0-.04-.01-.06,0-.02-.02-.04-.03-.05-.01-.01-.03-.02-.06-.03l-4.15-1.07c-.32-.08-.6-.27-.79-.52-.19-.25-.31-.56-.31-.9s.11-.65.31-.9c.19-.25.47-.44.79-.52l4.15-1.07s.04-.02.06-.03c.01-.01.02-.03.03-.05h0s.01-.05.01-.06c0-.02,0-.03-.02-.06l-2.18-3.69c-.17-.29-.23-.61-.19-.93.04-.31.18-.61.42-.85h0c.24-.24.54-.38.85-.42.31-.04.64.02.93.19l3.69,2.18s.04.02.06.02c.02,0,.04,0,.06-.01.02,0,.04-.02.05-.03.01-.01.02-.03.03-.06l1.07-4.15c.08-.33.27-.6.52-.79.25-.19.56-.31.9-.31s.65.11.9.31c.25.19.44.47.52.79Z"/>
  </g>
</svg>