<?xml version="1.0" encoding="UTF-8"?>
<svg id="Layer_2" data-name="Layer 2" xmlns="http://www.w3.org/2000/svg" viewBox="0 0 26.32 19.15">
  <defs>
    <style>
      .cls-1 {
        fill: #fff;
        fill-rule: evenodd;
      }
    </style>
  </defs>
  <g id="Layer_1-2" data-name="Layer 1">
    <path class="cls-1" d="M12.56,0h5.23c.35,0,.66.14.89.4l7.34,8.39c.39.45.39,1.11,0,1.56l-7.34,8.39c-.23.27-.54.4-.89.4h-5.23c-.48,0-.88-.26-1.08-.69-.2-.43-.13-.91.19-1.27l5.98-6.83c.39-.45.39-1.11,0-1.56L11.67,1.96c-.31-.36-.38-.84-.19-1.27.2-.43.6-.69,1.08-.69h0ZM1.19,0C.71,0,.31.26.11.69S-.02,1.61.3,1.96l5.98,6.83c.39.45.39,1.11,0,1.56L.3,17.19c-.31.36-.38.84-.19,1.27.2.43.6.69,1.08.69h5.23c.35,0,.66-.14.89-.4l7.34-8.39c.39-.45.39-1.11,0-1.56L7.31.4c-.23-.27-.54-.4-.89-.4H1.19Z"/>
  </g>
</svg>