<?xml version="1.0" encoding="UTF-8"?>
<svg id="Layer_2" data-name="Layer 2" xmlns="http://www.w3.org/2000/svg" viewBox="0 0 49.92 70.46">
  <g id="Layer_1-2" data-name="Layer 1">
    <g>
      <path d="M24.96,60.4c-.16,0-.32-.02-.49-.05-.16-.03-.31-.08-.46-.14-.15-.07-.3-.14-.44-.23-.13-.09-.26-.2-.38-.31-.46-.47-.73-1.11-.73-1.77,0-.16.02-.33.05-.49.03-.16.08-.32.14-.47.07-.15.14-.29.23-.43.09-.13.2-.26.31-.38.12-.11.25-.22.38-.31.14-.09.28-.17.44-.23.15-.06.3-.11.46-.14.32-.07.66-.07.98,0,.16.03.32.08.47.14.15.06.29.14.43.23.14.09.27.2.38.31.12.12.22.25.31.38.09.14.17.28.23.43.06.15.11.31.14.47.03.16.05.33.05.49s-.02.33-.05.49c-.03.16-.08.31-.14.47-.06.15-.14.29-.23.43-.09.13-.19.26-.31.38-.11.11-.24.22-.38.31-.14.09-.28.16-.43.23-.15.06-.31.11-.47.14-.16.03-.33.05-.49.05Z"/>
      <path d="M41.89,70.46H8.02c-4.42,0-8.02-3.6-8.02-8.02V8.03C0,3.6,3.6,0,8.02,0h33.87c4.42,0,8.02,3.6,8.02,8.03v54.41c0,4.42-3.6,8.02-8.02,8.02ZM8.02,5c-1.67,0-3.02,1.36-3.02,3.03v54.41c0,1.67,1.36,3.02,3.02,3.02h33.87c1.67,0,3.02-1.36,3.02-3.02V8.03c0-1.67-1.36-3.03-3.02-3.03H8.02Z"/>
    </g>
  </g>
</svg>