<?xml version="1.0" encoding="UTF-8"?>
<svg id="Layer_2" data-name="Layer 2" xmlns="http://www.w3.org/2000/svg" viewBox="0 0 19.11 22.35">
  <defs>
    <style>
      .cls-1 {
        fill: #fff;
        fill-rule: evenodd;
      }
    </style>
  </defs>
  <g id="Layer_1-2" data-name="Layer 1">
    <path class="cls-1" d="M0,16.12V.67c0-.37.3-.67.67-.67h17.66c.37,0,.67.3.67.67v15.45c0,.37-.3.67-.67.67h-2.05c.15.74.41,1.44.75,2.08.47.88,1.1,1.67,1.85,2.31.28.24.31.66.07.94-.16.19-.41.27-.64.22-1.58-.34-3.01-1.08-4.18-2.11-1.06-.94-1.9-2.11-2.44-3.44H.67c-.37,0-.67-.3-.67-.67Z"/>
  </g>
</svg>