<?xml version="1.0" encoding="UTF-8"?>
<svg id="Layer_2" data-name="Layer 2" xmlns="http://www.w3.org/2000/svg" viewBox="0 0 22.96 22.48">
  <defs>
    <style>
      .cls-1 {
        fill: #fff;
        fill-rule: evenodd;
      }
    </style>
  </defs>
  <g id="Layer_1-2" data-name="Layer 1">
    <path class="cls-1" d="M10.76,22.13l11.68-9.75c.35-.29.53-.68.53-1.14s-.18-.84-.53-1.14L10.76.35c-.45-.38-1.04-.45-1.58-.2-.53.25-.85.75-.85,1.34v6.52c0,.59-.32,1.09-.85,1.34-.53.25-1.12.17-1.58-.2l-3.47-2.9c-.45-.38-1.04-.45-1.58-.2C.32,6.28,0,6.78,0,7.37v7.73C0,15.69.32,16.2.85,16.45c.53.25,1.12.17,1.58-.2l3.47-2.9c.45-.38,1.04-.45,1.58-.2.53.25.85.75.85,1.34v6.52c0,.59.32,1.09.85,1.34.53.25,1.12.17,1.58-.2Z"/>
  </g>
</svg>