<?xml version="1.0" encoding="UTF-8"?>
<svg id="Layer_2" data-name="Layer 2" xmlns="http://www.w3.org/2000/svg" viewBox="0 0 25.16 24">
  <defs>
    <style>
      .cls-1 {
        fill: #fff;
        fill-rule: evenodd;
      }
    </style>
  </defs>
  <g id="Layer_1-2" data-name="Layer 1">
    <path class="cls-1" d="M13.22.47l.28.91c.69,2.23,2.03,4.07,3.78,5.34,1.75,1.27,3.92,1.98,6.25,1.95h.96c.37-.02.67.27.67.64,0,.23-.11.43-.28.55l-.78.55c-1.91,1.34-3.25,3.19-3.92,5.25-.67,2.06-.67,4.34.08,6.55l.31.91c.12.35-.07.73-.42.84-.23.08-.48.02-.65-.13l-.73-.55c-1.86-1.4-4.03-2.1-6.2-2.1s-4.34.7-6.2,2.1l-.77.58c-.29.22-.71.16-.93-.13-.14-.18-.17-.41-.1-.61h0s.31-.91.31-.91c.76-2.21.75-4.49.08-6.55-.67-2.06-2.01-3.9-3.92-5.25l-.78-.55c-.3-.21-.37-.63-.16-.93.14-.2.37-.3.6-.28h.92c2.33.05,4.5-.66,6.25-1.93,1.75-1.27,3.09-3.11,3.78-5.34l.28-.92c.11-.35.48-.55.83-.44.22.07.38.24.44.45Z"/>
  </g>
</svg>