<?xml version="1.0" encoding="UTF-8"?>
<svg id="Layer_2" data-name="Layer 2" xmlns="http://www.w3.org/2000/svg" viewBox="0 0 22.34 24.13">
  <defs>
    <style>
      .cls-1 {
        fill: #fff;
        fill-rule: evenodd;
      }
    </style>
  </defs>
  <g id="Layer_1-2" data-name="Layer 1">
    <path class="cls-1" d="M0,15.37V4.34c0-1.2.49-2.28,1.27-3.07.79-.79,1.87-1.27,3.07-1.27h13.65c1.2,0,2.28.49,3.07,1.27.79.79,1.27,1.87,1.27,3.07v11.03c0,1.2-.49,2.28-1.27,3.07s-1.87,1.27-3.07,1.27h-4.94l-1.25,3.96c-.11.35-.48.55-.84.43-.22-.07-.37-.23-.43-.43l-1.25-3.96h-4.94c-1.2,0-2.28-.49-3.07-1.27s-1.27-1.87-1.27-3.07Z"/>
  </g>
</svg>