<?xml version="1.0" encoding="UTF-8"?>
<svg id="Layer_2" data-name="Layer 2" xmlns="http://www.w3.org/2000/svg" viewBox="0 0 24.95 24.95">
  <defs>
    <style>
      .cls-1 {
        fill: #fff;
        fill-rule: evenodd;
      }
    </style>
  </defs>
  <g id="Layer_1-2" data-name="Layer 1">
    <path class="cls-1" d="M.73,0h6.45l-3.17,4.53H0V.73c0-.4.33-.73.73-.73h0ZM24.95,5.99v18.24c0,.4-.33.73-.73.73H.73c-.4,0-.73-.33-.73-.73V5.99h24.95ZM5.78,4.53h2.6L11.56,0h-2.6l-3.17,4.53h0ZM10.16,4.53L13.33,0h2.6l-3.17,4.53h-2.6ZM14.54,4.53h2.6l3.17-4.53h-2.6l-3.17,4.53h0ZM18.92,4.53l3.17-4.53h2.14c.4,0,.73.33.73.73v3.8h-6.04ZM8.4,19.8c0,.4.33.73.73.73.17,0,.32-.06.44-.15l8.39-5.43c.34-.22.43-.67.21-1.01-.07-.1-.15-.18-.25-.23l-8.41-5.38c-.34-.22-.79-.12-1,.22-.08.12-.11.26-.11.39h0v10.85Z"/>
  </g>
</svg>