<?xml version="1.0" encoding="UTF-8"?>
<svg id="Layer_2" data-name="Layer 2" xmlns="http://www.w3.org/2000/svg" viewBox="0 0 23.73 22.97">
  <defs>
    <style>
      .cls-1 {
        fill: #fff;
        fill-rule: evenodd;
      }
    </style>
  </defs>
  <g id="Layer_1-2" data-name="Layer 1">
    <path class="cls-1" d="M11.87,0c1.08,0,2.05.44,2.76,1.14.71.7,1.14,1.68,1.14,2.76,0,.04,0,.09,0,.13,1.7.73,3.16,1.93,4.21,3.43,1.11,1.6,1.77,3.54,1.77,5.64,0,.28-.01.56-.04.84,0,.11-.02.22-.03.32.04.02.08.04.12.07h0c.93.54,1.56,1.4,1.82,2.36.26.96.15,2.02-.39,2.96h0c-.54.93-1.4,1.56-2.36,1.82-.96.26-2.02.15-2.96-.39h0s-.08-.05-.12-.07c-.77.58-1.63,1.04-2.55,1.38-1.05.38-2.18.59-3.36.59s-2.31-.21-3.36-.59c-.92-.33-1.78-.8-2.55-1.38-.04.02-.08.05-.12.07h0c-.93.54-1.99.65-2.96.39-.96-.26-1.83-.88-2.36-1.82h0c-.54-.93-.65-1.99-.39-2.96.26-.96.88-1.82,1.82-2.36h0s.08-.05.12-.07c-.01-.11-.02-.22-.03-.32-.02-.28-.04-.56-.04-.84,0-2.1.65-4.04,1.77-5.64,1.05-1.5,2.5-2.7,4.21-3.43,0-.04,0-.09,0-.13,0-1.08.44-2.05,1.14-2.76.71-.7,1.68-1.14,2.76-1.14h0ZM15.48,5.36c-.2.49-.49.93-.86,1.29-.56.56-1.29.95-2.1,1.09h-.01s-.03,0-.03,0c-.04,0-.09.01-.13.02h-.04s0,0,0,0h-.04s0,0,0,0h-.04s0,0,0,0h-.04s0,0,0,0h-.03s-.04,0-.04,0h-.02s-.02,0-.02,0h0s-.04,0-.04,0h0s-.03,0-.03,0h-.04s-.01,0-.01,0h-.05s-.04,0-.04,0h-.02s-.04,0-.04,0h-.03s0,0,0,0h-.04s0,0,0,0h-.02s-.02,0-.02,0h-.04s-.03,0-.03,0h0s-.04,0-.04,0h0s-.04,0-.04,0h-.04s0,0,0,0h-.04s-.04,0-.04,0h-.02s-.02,0-.02,0h0s-.04,0-.04,0h-.03s-.01,0-.01,0h0c-.81-.14-1.54-.53-2.1-1.09-.37-.37-.66-.8-.86-1.29-1.37.64-2.54,1.63-3.4,2.86-.96,1.38-1.53,3.06-1.53,4.88,0,.25.01.49.03.73h0c.52-.06,1.04-.03,1.54.11.38.1.74.26,1.07.47h0s.07.05.07.05h0s.03.02.03.02h0s.03.02.03.02h.01s.02.02.02.02h.02c.44.33.82.73,1.1,1.23l.02.04h0s.02.04.02.04h0s.02.04.02.04v.02s.02.02.02.02v.02s.02.02.02.02v.03s.02.01.02.01v.03s.02,0,.02,0l.02.04h0s.02.04.02.04h0s.02.04.02.04h0s.01.04.01.04h0s.01.04.01.04v.02s.02.02.02.02v.02s.02.02.02.02v.03s.02.01.02.01v.03s.03.05.03.05h0s.02.05.02.05v.04s.01,0,.01,0v.03s.01.01.01.01v.03s.01.02.01.02h0s.02.06.03.09h0s0,.05,0,.05h0s0,.05,0,.05c.13.52.14,1.06.05,1.57-.03.17-.07.34-.13.51h0s0,.01,0,.01v.04s-.02.01-.02.01v.03s-.01,0-.01,0v.02s-.02.02-.02.02h0s-.01.04-.01.04h0s0,.03,0,.03v.02s-.01,0-.01,0v.03c-.15.34-.33.66-.56.96.61.43,1.28.78,1.99,1.04.9.33,1.88.5,2.9.5s2-.18,2.9-.5c.71-.26,1.38-.61,1.99-1.04-.24-.31-.43-.65-.57-1.01v-.02s-.01,0-.01,0v-.03s-.02-.03-.02-.03v-.02s0,0,0,0v-.03s-.01-.01-.01-.01v-.02s-.01-.03-.01-.03h0s0-.03,0-.03v-.02s-.02-.04-.02-.04h0c-.04-.15-.08-.29-.1-.43-.09-.52-.08-1.05.05-1.57v-.04s.01,0,.01,0v-.04s.01-.01.01-.01c0-.03.02-.06.03-.09h0s0-.02,0-.02v-.03s.01-.01.01-.01v-.03s.01,0,.01,0v-.04s.03-.04.03-.04h0s.02-.05.02-.05v-.03s.02-.01.02-.01v-.03s.02-.02.02-.02v-.02s.02-.02.02-.02v-.02s.02-.03.02-.03h0s.01-.05.01-.05h0s.02-.05.02-.05h0s.02-.04.02-.04h0s.02-.04.02-.04h0s.02-.04.02-.04h0s.01-.04.01-.04v-.02s.02-.02.02-.02v-.02s.02-.02.02-.02l.02-.03h0s.02-.04.02-.04h0s.02-.04.02-.04c.29-.49.66-.9,1.1-1.22h.02s.02-.03.02-.03h.01s.03-.03.03-.03h0s.03-.03.03-.03h0s.07-.05.07-.05h0c.33-.21.69-.37,1.07-.47.5-.13,1.02-.17,1.54-.1h0c.02-.25.03-.49.03-.74,0-1.81-.57-3.49-1.53-4.88-.86-1.23-2.03-2.22-3.4-2.86Z"/>
  </g>
</svg>