<?xml version="1.0" encoding="UTF-8"?>
<svg id="Layer_2" data-name="Layer 2" xmlns="http://www.w3.org/2000/svg" viewBox="0 0 26.62 25">
  <defs>
    <style>
      .cls-1 {
        fill: #fff;
        fill-rule: evenodd;
      }
    </style>
  </defs>
  <g id="Layer_1-2" data-name="Layer 1">
    <path class="cls-1" d="M3.65,10.83l3.25-1.62v12.62l-5.79,3.07c-.16.1-.36.13-.56.08-.39-.1-.63-.5-.53-.89l3.25-12.79h0c.05-.2.18-.37.38-.47h0ZM17.95,0c2.92,0,5.28,2.36,5.28,5.28,0,3.6-2.59,6.79-4.67,9.7-.15.2-.36.31-.61.31s-.46-.11-.61-.31c-2.08-2.91-4.67-6.09-4.67-9.7,0-2.92,2.36-5.28,5.28-5.28h0ZM17.95,2.29c-.82,0-1.57.34-2.11.88h0c-.54.54-.88,1.29-.88,2.12s.34,1.57.88,2.11h0c.54.54,1.29.88,2.11.88s1.57-.34,2.11-.88h0c.54-.54.88-1.29.88-2.12s-.34-1.57-.88-2.11h0c-.54-.54-1.29-.88-2.11-.88h0ZM8.36,9.13l4.02,1.34v14.19l-4.02-2.68v-12.85h0ZM17.86,16.02c-.21-.01-.41-.07-.59-.16h0c-.21-.11-.39-.26-.53-.45-.25-.35-.42-.59-.6-.83-.79-1.09-1.6-2.21-2.31-3.38v13.47l4.02-2.68v-5.96h0ZM22.34,10.7c-.76,1.35-1.69,2.64-2.59,3.87-.13.18-.26.36-.43.59v6.63l6.25,3.13c.36.18.8.03.97-.32.08-.17.1-.36.05-.52h0s-3.65-12.79-3.65-12.79c-.06-.2-.2-.36-.38-.45l-.23-.13Z"/>
  </g>
</svg>