<?xml version="1.0" encoding="UTF-8"?>
<svg id="Layer_2" data-name="Layer 2" xmlns="http://www.w3.org/2000/svg" viewBox="0 0 30.93 12.12">
  <defs>
    <style>
      .cls-1 {
        fill: #fff;
        fill-rule: evenodd;
      }
    </style>
  </defs>
  <g id="Layer_1-2" data-name="Layer 1">
    <path class="cls-1" d="M1.34,0h3.37c.39,0,.73.15,1,.45l2.9,3.26c.26.3.6.45,1,.45h9.68c.46,0,.85-.21,1.1-.59.26-.38.3-.82.13-1.24v-.02c-.22-.53-.09-1.11.34-1.49.43-.38,1.02-.45,1.52-.18l7.86,4.25c.44.24.7.67.7,1.17s-.26.93-.7,1.17l-7.86,4.25c-.5.27-1.09.2-1.52-.18-.43-.38-.56-.96-.35-1.49v-.02c.18-.42.13-.86-.12-1.24-.26-.38-.65-.59-1.1-.59h-9.68c-.39,0-.73.15-1,.45l-2.9,3.26c-.26.3-.6.45-1,.45H1.34c-.54,0-.99-.3-1.21-.79-.22-.49-.14-1.03.22-1.43l2.62-2.96c.45-.51.45-1.26,0-1.77L.34,2.21C-.02,1.81-.1,1.27.12.79c.22-.49.68-.79,1.21-.79Z"/>
  </g>
</svg>