<?xml version="1.0" encoding="UTF-8"?>
<svg id="Layer_2" data-name="Layer 2" xmlns="http://www.w3.org/2000/svg" viewBox="0 0 19.99 25.24">
  <defs>
    <style>
      .cls-1 {
        fill: #fff;
        fill-rule: evenodd;
      }
    </style>
  </defs>
  <g id="Layer_1-2" data-name="Layer 1">
    <path class="cls-1" d="M10,0c1.68,0,3.19.68,4.29,1.78,1.1,1.1,1.78,2.62,1.78,4.29s-.68,3.19-1.78,4.29c-.5.5-1.08.91-1.73,1.21,1.29.34,2.47.94,3.5,1.73-.25.13-.48.29-.68.5l-1.74,1.74-1.74-1.74c-.26-.26-.57-.46-.9-.6-.34-.14-.7-.21-1.06-.21s-.72.07-1.06.21c-.33.14-.64.34-.9.6h0s-.04.04-.04.04c-.24.25-.43.55-.56.86-.14.34-.21.7-.21,1.05s.07.69.2,1.02c.13.32.31.62.56.88.02.02.03.04.05.06l1.74,1.74-1.74,1.74s-.04.04-.06.06c-.24.25-.42.54-.54.84-.14.34-.21.7-.21,1.05s.07.69.2,1.02c.06.16.15.32.24.47H2.2c-.61,0-1.16-.25-1.56-.65-.4-.4-.65-.95-.65-1.56v-1.2c0-2.75,1.12-5.25,2.94-7.06,1.23-1.23,2.77-2.14,4.5-2.6-.64-.3-1.23-.71-1.73-1.21-1.1-1.1-1.78-2.62-1.78-4.29s.68-3.19,1.78-4.29c1.1-1.1,2.62-1.78,4.29-1.78h0ZM8.46,14.26h0c-.41.41-.61.95-.61,1.48s.19,1.04.57,1.44l.04.04,2.22,2.22-2.22,2.22h0c-.41.41-.61.95-.61,1.48s.19,1.04.57,1.44l.04.04h0c.41.41.94.61,1.48.61s1.04-.19,1.44-.57l.04-.04,2.22-2.22,2.22,2.22h0c.41.41.95.61,1.48.61s1.04-.19,1.44-.57c.02-.02.04-.03.06-.05.4-.41.6-.94.6-1.47s-.2-1.07-.61-1.48l-2.22-2.22,2.22-2.22h0c.41-.41.61-.95.61-1.48s-.2-1.07-.61-1.48c-.41-.41-.95-.61-1.48-.61s-1.07.2-1.48.61l-2.22,2.22-2.22-2.22c-.41-.41-.95-.61-1.48-.61s-1.07.2-1.48.61h0ZM19.33,17.66c.43,1.11.66,2.32.66,3.57v1.16c-.03-.1-.07-.21-.11-.31-.14-.33-.34-.64-.6-.9l-1.74-1.74,1.74-1.74s.03-.03.04-.05h0ZM14.92,24.63l-1.28-1.28-1.28,1.28h2.56Z"/>
  </g>
</svg>