<?xml version="1.0" encoding="UTF-8"?>
<svg id="Layer_2" data-name="Layer 2" xmlns="http://www.w3.org/2000/svg" viewBox="0 0 20.37 24.88">
  <defs>
    <style>
      .cls-1 {
        fill: #fff;
        fill-rule: evenodd;
      }
    </style>
  </defs>
  <g id="Layer_1-2" data-name="Layer 1">
    <path class="cls-1" d="M10,0c1.68,0,3.19.68,4.29,1.78,1.1,1.1,1.78,2.62,1.78,4.29s-.68,3.19-1.78,4.29c-.5.5-1.08.91-1.73,1.21,1.18.32,2.28.85,3.25,1.54l-4.17,5.13-.88-1.24c-.22-.31-.49-.56-.79-.75-.32-.2-.66-.33-1.02-.39-.36-.06-.73-.05-1.09.03-.35.08-.68.23-.99.45-.31.22-.56.49-.75.79-.2.32-.33.66-.39,1.02-.06.36-.05.73.03,1.09.08.35.23.68.45.99l2.93,4.14c.07.09.14.18.21.27H2.2c-.61,0-1.16-.25-1.56-.65s-.65-.95-.65-1.56v-1.2c0-2.75,1.12-5.25,2.94-7.06,1.23-1.23,2.77-2.14,4.5-2.6-.65-.3-1.23-.71-1.73-1.21-1.1-1.1-1.78-2.62-1.78-4.29s.68-3.19,1.78-4.29,2.62-1.78,4.29-1.78h0ZM6.76,19.85l2.93,4.14c.34.48.84.77,1.38.86.54.09,1.11-.02,1.59-.36.07-.05.12-.09.17-.13h0c.06-.05.11-.1.15-.15,2.31-2.61,4.48-5.7,6.83-8.21.4-.43.59-.98.57-1.53-.02-.53-.23-1.05-.64-1.45l-.04-.04c-.43-.4-.98-.59-1.53-.57-.53.02-1.05.23-1.44.64l-.07.07-5.05,6.21-1.39-1.96c-.34-.48-.84-.77-1.38-.86-.54-.09-1.11.02-1.58.36-.48.34-.77.84-.86,1.38-.09.54.02,1.11.36,1.58h0ZM19.29,17.56c-.91,1.06-1.81,2.19-2.71,3.32-1.01,1.27-2.03,2.55-3.1,3.76h4.31c.61,0,1.16-.25,1.56-.65s.65-.95.65-1.56v-1.2c0-1.29-.25-2.53-.7-3.67Z"/>
  </g>
</svg>