<?xml version="1.0" encoding="UTF-8"?>
<svg id="Layer_2" data-name="Layer 2" xmlns="http://www.w3.org/2000/svg" viewBox="0 0 25.77 29.7">
  <defs>
    <style>
      .cls-1 {
        fill: #fff;
        fill-rule: evenodd;
      }
    </style>
  </defs>
  <g id="Layer_1-2" data-name="Layer 1">
    <path class="cls-1" d="M5.23,19.21c-.37,0-.67-.3-.67-.67s.3-.67.67-.67h14.21c.37,0,.67.3.67.67s-.3.67-.67.67H5.23ZM6.28,4.18h0c.19,0,.4.01.61.03h.09c.62-1.19,1.55-2.2,2.68-2.94,1.23-.8,2.7-1.27,4.28-1.27,1.95,0,3.73.71,5.1,1.89,1.27,1.1,2.19,2.59,2.56,4.29,1.11.26,2.1.86,2.83,1.7.82.94,1.33,2.17,1.33,3.51,0,1.48-.6,2.82-1.58,3.78-.97.97-2.32,1.57-3.8,1.57h0c-.85,0-5.9,0-9.81,0-2.19,0-4.02,0-4.55-.01-1.65-.02-3.15-.76-4.23-1.89-1.11-1.16-1.8-2.73-1.8-4.38,0-1.73.71-3.3,1.85-4.44,1.14-1.14,2.71-1.85,4.44-1.85h0ZM11.62,29.7c-.37,0-.67-.3-.67-.67s.3-.67.67-.67h.74c.37,0,.67.3.67.67s-.3.67-.67.67h-.74ZM10.22,27.82c-.37,0-.67-.3-.67-.67s.3-.67.67-.67h3.11c.37,0,.67.3.67.67s-.3.67-.67.67h-3.11ZM8.47,25.69c-.37,0-.67-.3-.67-.67s.3-.67.67-.67h5.66c.37,0,.67.3.67.67s-.3.67-.67.67h-5.66ZM9.45,23.53c-.37,0-.67-.3-.67-.67s.3-.67.67-.67h8.19c.37,0,.67.3.67.67s-.3.67-.67.67h-8.19ZM7.56,21.37c-.37,0-.67-.3-.67-.67s.3-.67.67-.67h12.97c.37,0,.67.3.67.67s-.3.67-.67.67H7.56Z"/>
  </g>
</svg>