<?xml version="1.0" encoding="UTF-8"?>
<svg id="Layer_2" data-name="Layer 2" xmlns="http://www.w3.org/2000/svg" viewBox="0 0 28.34 18.26">
  <defs>
    <style>
      .cls-1 {
        fill: #fff;
        fill-rule: evenodd;
      }
    </style>
  </defs>
  <g id="Layer_1-2" data-name="Layer 1">
    <path class="cls-1" d="M10.67.13l16.9,7.79c.48.22.77.68.77,1.21s-.29.99-.77,1.21l-16.9,7.79c-.56.26-1.2.11-1.59-.37-.39-.48-.4-1.14-.03-1.63l2.35-3.16c.31-.41.35-.93.12-1.39-.23-.46-.67-.73-1.19-.73H1.33c-.73,0-1.33-.6-1.33-1.33v-.76c0-.73.6-1.33,1.33-1.33h9c.52,0,.96-.27,1.19-.73.23-.46.19-.98-.12-1.39l-2.35-3.16c-.37-.49-.35-1.15.03-1.63.39-.48,1.03-.63,1.59-.37Z"/>
  </g>
</svg>