<?xml version="1.0" encoding="UTF-8"?>
<svg id="Layer_2" data-name="Layer 2" xmlns="http://www.w3.org/2000/svg" viewBox="0 0 25.66 22">
  <defs>
    <style>
      .cls-1 {
        fill: #fff;
        fill-rule: evenodd;
      }
    </style>
  </defs>
  <g id="Layer_1-2" data-name="Layer 1">
    <path class="cls-1" d="M.67,1.59h4.2v-.93c0-.37.3-.67.67-.67s.67.3.67.67v.93h10.4v-.93c0-.37.3-.67.67-.67s.67.3.67.67v.93h4.2c.37,0,.67.3.67.67v3.83H0v-3.83c0-.37.3-.67.67-.67h0ZM19.91,10.5c1.59,0,3.02.64,4.06,1.68,1.04,1.04,1.68,2.48,1.68,4.06s-.64,3.02-1.68,4.06c-1.04,1.04-2.48,1.68-4.06,1.68s-3.02-.64-4.06-1.68c-1.04-1.04-1.68-2.48-1.68-4.06s.64-3.02,1.68-4.06,2.48-1.68,4.06-1.68h0ZM19.14,13.38v3c0,.37.3.67.67.67h2.14c.37,0,.67-.3.67-.67s-.3-.67-.67-.67h-1.48v-2.33c0-.37-.3-.67-.67-.67s-.67.3-.67.67h0ZM6.2,2.89v.62c0,.37-.3.67-.67.67s-.67-.3-.67-.67v-.62c-.16.07-.31.18-.44.31h0c-.31.31-.46.71-.46,1.11s.15.8.46,1.11h0c.31.31.71.46,1.11.46s.8-.15,1.11-.46.46-.71.46-1.11-.15-.8-.46-1.11h0c-.13-.13-.28-.23-.44-.31h0ZM17.93,2.89v.62c0,.37-.3.67-.67.67s-.67-.3-.67-.67v-.62c-.16.07-.31.18-.44.31h0c-.31.31-.46.71-.46,1.11s.15.8.46,1.11h0c.31.31.71.46,1.11.46s.8-.15,1.11-.46.46-.71.46-1.11-.15-.8-.46-1.11h0c-.13-.13-.28-.23-.44-.31h0ZM8.35,16.12c-.37,0-.67-.3-.67-.67s.3-.67.67-.67h1.86c.37,0,.67.3.67.67s-.3.67-.67.67h-1.86ZM4.12,16.12c-.37,0-.67-.3-.67-.67s.3-.67.67-.67h1.86c.37,0,.67.3.67.67s-.3.67-.67.67h-1.86ZM12.58,13.98c-.37,0-.67-.3-.67-.67s.3-.67.67-.67h1.86c.05,0,.1,0,.15.02.23-.34.49-.66.78-.95.24-.24.5-.46.78-.66.05-.31.33-.55.66-.55h.26c.86-.42,1.82-.66,2.84-.66.86,0,1.69.17,2.45.49.15.06.3.13.44.2v-3.1H0v10.26c0,.37.3.67.67.67h13.18c-.23-.66-.35-1.36-.35-2.1,0-.8.15-1.56.42-2.27h-1.33ZM8.35,13.98c-.37,0-.67-.3-.67-.67s.3-.67.67-.67h1.86c.37,0,.67.3.67.67s-.3.67-.67.67h-1.86ZM4.12,13.98c-.37,0-.67-.3-.67-.67s.3-.67.67-.67h1.86c.37,0,.67.3.67.67s-.3.67-.67.67h-1.86ZM12.58,11.83h1.86c.37,0,.67-.3.67-.67s-.3-.67-.67-.67h-1.86c-.37,0-.67.3-.67.67s.3.67.67.67h0ZM8.35,11.83c-.37,0-.67-.3-.67-.67s.3-.67.67-.67h1.86c.37,0,.67.3.67.67s-.3.67-.67.67h-1.86ZM4.12,11.83c-.37,0-.67-.3-.67-.67s.3-.67.67-.67h1.86c.37,0,.67.3.67.67s-.3.67-.67.67h-1.86ZM16.81,9.69c-.37,0-.67-.3-.67-.67s.3-.67.67-.67h1.86c.37,0,.67.3.67.67s-.3.67-.67.67h-1.86ZM12.58,9.69c-.37,0-.67-.3-.67-.67s.3-.67.67-.67h1.86c.37,0,.67.3.67.67s-.3.67-.67.67h-1.86ZM8.35,9.69c-.37,0-.67-.3-.67-.67s.3-.67.67-.67h1.86c.37,0,.67.3.67.67s-.3.67-.67.67h-1.86ZM4.12,9.69c-.37,0-.67-.3-.67-.67s.3-.67.67-.67h1.86c.37,0,.67.3.67.67s-.3.67-.67.67h-1.86Z"/>
  </g>
</svg>