<?xml version="1.0" encoding="UTF-8"?>
<svg id="Layer_2" data-name="Layer 2" xmlns="http://www.w3.org/2000/svg" viewBox="0 0 66.74 69.83">
  <g id="Layer_1-2" data-name="Layer 1">
    <path d="M37.73,69.83c-1.12,0-2.22-.41-3.11-1.2l-8.75-7.79c-1-.89-1.57-2.17-1.57-3.51v-16.32L2.86,17.87C-.06,14.72-.81,10.32.91,6.38,2.63,2.44,6.37,0,10.66,0h45.42c4.29,0,8.03,2.44,9.75,6.38,1.72,3.93.97,8.34-1.94,11.49h0l-21.44,23.14v24.11c0,1.88-1.06,3.52-2.78,4.29-.63.28-1.29.42-1.94.42ZM29.31,57.19l8.14,7.25v-23.55c0-1.19.44-2.32,1.25-3.19l21.52-23.23c1.57-1.69,1.95-3.97,1.03-6.09-.92-2.12-2.86-3.38-5.17-3.38H10.66c-2.31,0-4.24,1.26-5.17,3.38s-.54,4.39,1.03,6.09l21.53,23.23c.81.87,1.25,2.01,1.25,3.19v16.3ZM62.05,16.17h0,0Z"/>
  </g>
</svg>