<?xml version="1.0" encoding="UTF-8"?>
<svg id="Layer_2" data-name="Layer 2" xmlns="http://www.w3.org/2000/svg" viewBox="0 0 29.26 15.03">
  <defs>
    <style>
      .cls-1 {
        fill: #fff;
        fill-rule: evenodd;
      }
    </style>
  </defs>
  <g id="Layer_1-2" data-name="Layer 1">
    <path class="cls-1" d="M17.4,0h5.04c.39,0,.73.15,1,.45l5.48,6.18c.45.51.45,1.26,0,1.77l-5.48,6.18c-.26.3-.6.45-1,.45h-5.04c-.54,0-.99-.3-1.21-.79-.22-.49-.14-1.03.22-1.43l3.92-4.42c.45-.51.45-1.26,0-1.77l-3.92-4.42c-.36-.4-.44-.94-.22-1.43.22-.49.68-.79,1.21-.79h0ZM1.33,0h4.37c.39,0,.73.15,1,.45l5.48,6.18c.45.51.45,1.26,0,1.77l-5.48,6.18c-.26.3-.6.45-1,.45H1.33c-.73,0-1.33-.6-1.33-1.33V1.33C0,.6.6,0,1.33,0h0ZM10.28,0c-.54,0-.99.3-1.21.79-.22.49-.14,1.03.22,1.43l3.92,4.42c.45.51.45,1.26,0,1.77l-3.92,4.42c-.36.4-.44.94-.22,1.43.22.49.68.79,1.21.79h2.53c.39,0,.73-.15,1-.45l5.48-6.18c.45-.51.45-1.26,0-1.77L13.81.45c-.26-.3-.6-.45-1-.45h-2.53Z"/>
  </g>
</svg>