<?xml version="1.0" encoding="UTF-8"?>
<svg id="Layer_2" data-name="Layer 2" xmlns="http://www.w3.org/2000/svg" viewBox="0 0 160.54 160.55">
  <defs>
    <style>
      .cls-1 {
        fill: #080a16;
      }
    </style>
  </defs>
  <g id="Calque_1" data-name="Calque 1">
    <path class="cls-1" d="M69.68,121.15c0-6.57.44-12.77,1.2-18.21-3.31,4.38-7.39,9.08-12.03,13.72-15.38,15.38-31.21,24.51-35.34,20.37-4.14-4.14,4.98-19.96,20.37-35.35,4.64-4.64,9.33-8.7,13.71-12.02-5.45.76-11.63,1.19-18.2,1.19-21.76,0-39.4-4.73-39.4-10.58s17.64-10.59,39.4-10.59c6.57,0,12.78.44,18.22,1.2-4.4-3.3-9.09-7.39-13.74-12.03-15.39-15.39-24.51-31.21-20.37-35.35,4.13-4.14,19.96,4.99,35.34,20.37,4.64,4.64,8.72,9.34,12.03,13.72-.76-5.45-1.2-11.64-1.2-18.21,0-21.75,4.75-39.4,10.59-39.4s10.59,17.64,10.59,39.4c0,6.57-.44,12.77-1.2,18.21,3.31-4.38,7.39-9.08,12.03-13.72,15.38-15.38,31.21-24.51,35.34-20.37,4.14,4.14-4.98,19.96-20.37,35.35-4.64,4.64-9.34,8.73-13.74,12.03,5.45-.76,11.65-1.2,18.22-1.2,21.76,0,39.4,4.73,39.4,10.59s-17.64,10.58-39.4,10.58c-6.57,0-12.75-.43-18.2-1.19,4.38,3.31,9.07,7.37,13.71,12.02,15.39,15.39,24.51,31.21,20.37,35.35-4.13,4.14-19.96-4.99-35.34-20.37-4.64-4.64-8.72-9.34-12.03-13.72.76,5.45,1.2,11.64,1.2,18.21,0,21.76-4.75,39.4-10.59,39.4s-10.59-17.64-10.59-39.4Z"/>
  </g>
</svg>