<?xml version="1.0" encoding="UTF-8"?>
<svg id="Layer_2" data-name="Layer 2" xmlns="http://www.w3.org/2000/svg" viewBox="0 0 32.05 22.48">
  <defs>
    <style>
      .cls-1 {
        fill: #fff;
        fill-rule: evenodd;
      }
    </style>
  </defs>
  <g id="Layer_1-2" data-name="Layer 1">
    <path class="cls-1" d="M1.48,15.35h14.46c.81,0,1.48.66,1.48,1.48v4.16c0,.59.32,1.09.85,1.34.53.25,1.12.17,1.58-.2l11.67-9.75c.35-.29.53-.68.53-1.14s-.18-.84-.53-1.14L19.85.35c-.45-.38-1.04-.45-1.58-.2-.53.25-.85.75-.85,1.34v4.16c0,.81-.66,1.48-1.48,1.48H1.48c-.81,0-1.48.66-1.48,1.48v5.26c0,.81.66,1.48,1.48,1.48Z"/>
  </g>
</svg>