<?xml version="1.0" encoding="UTF-8"?>
<svg id="Layer_2" data-name="Layer 2" xmlns="http://www.w3.org/2000/svg" viewBox="0 0 24.91 24.64">
  <defs>
    <style>
      .cls-1 {
        fill: #fff;
        fill-rule: evenodd;
      }
    </style>
  </defs>
  <g id="Layer_1-2" data-name="Layer 1">
    <path class="cls-1" d="M13.12,5.99v3.54c1.08.15,2.06.65,2.79,1.39.05.05.1.1.15.15l2.93-1.69c-.17-.56-.18-1.14-.04-1.69.2-.75.69-1.42,1.41-1.84l.16-.09h0c.68-.34,1.44-.4,2.13-.21.75.2,1.42.69,1.84,1.41l.09.16v.02c.34.68.4,1.44.21,2.13-.2.75-.69,1.42-1.41,1.84-.73.42-1.55.5-2.3.3-.54-.15-1.05-.44-1.44-.87l-2.83,1.64c.34.66.53,1.42.53,2.21,0,.99-.3,1.92-.8,2.69l1.99,1.99c.49-.31,1.06-.47,1.62-.47.77,0,1.55.3,2.14.89h0c.59.6.89,1.37.89,2.14s-.3,1.55-.89,2.14c-.59.59-1.37.89-2.14.89s-1.55-.3-2.14-.89h0c-.59-.59-.89-1.37-.89-2.14,0-.56.16-1.13.47-1.62l-1.93-1.93c-.86.75-1.98,1.2-3.21,1.2s-2.35-.45-3.21-1.2l-1.93,1.93c.31.49.47,1.06.47,1.62,0,.78-.3,1.55-.89,2.14s-1.37.89-2.14.89-1.55-.3-2.14-.89h0c-.59-.59-.89-1.37-.89-2.14s.3-1.55.89-2.14,1.37-.89,2.14-.89c.56,0,1.12.16,1.62.47l1.99-1.99c-.51-.77-.8-1.7-.8-2.69,0-.8.19-1.55.53-2.21l-2.84-1.64c-.4.43-.9.73-1.44.87-.75.2-1.57.11-2.3-.3-.73-.42-1.21-1.09-1.41-1.84-.2-.75-.11-1.57.3-2.3.42-.73,1.09-1.21,1.84-1.41.75-.2,1.57-.11,2.3.3h0c.72.42,1.21,1.09,1.41,1.84.15.54.14,1.13-.04,1.69l2.93,1.69c.05-.05.1-.1.15-.15.74-.74,1.71-1.24,2.79-1.39v-3.54c-.57-.13-1.08-.42-1.48-.81h0c-.55-.55-.89-1.31-.89-2.14s.34-1.59.89-2.14h0c.55-.55,1.31-.89,2.14-.89s1.59.34,2.14.89h0c.55.55.89,1.31.89,2.14s-.34,1.59-.89,2.14h0c-.4.4-.91.69-1.47.81Z"/>
  </g>
</svg>