<?xml version="1.0" encoding="UTF-8"?>
<svg id="Layer_2" data-name="Layer 2" xmlns="http://www.w3.org/2000/svg" viewBox="0 0 25.87 19.15">
  <defs>
    <style>
      .cls-1 {
        fill: #fff;
        fill-rule: evenodd;
      }
    </style>
  </defs>
  <g id="Layer_1-2" data-name="Layer 1">
    <path class="cls-1" d="M12.85,0h4.45c.44,0,.82.17,1.11.51l7.08,8.1c.49.56.49,1.39,0,1.95l-7.08,8.1c-.29.33-.67.51-1.11.51h-4.45c-.59,0-1.1-.33-1.35-.87-.25-.54-.16-1.14.23-1.59l5.38-6.15c.49-.56.49-1.39,0-1.95l-5.38-6.15c-.39-.45-.48-1.04-.23-1.59.25-.54.75-.87,1.35-.87h0ZM1.48,0C.89,0,.38.33.14.87c-.25.54-.16,1.14.23,1.59l5.38,6.15c.49.56.49,1.39,0,1.95L.37,16.7c-.39.45-.48,1.04-.23,1.59.25.54.75.87,1.35.87h4.45c.44,0,.82-.17,1.11-.51l7.08-8.1c.49-.56.49-1.39,0-1.95L7.04.51c-.29-.33-.67-.51-1.11-.51H1.48Z"/>
  </g>
</svg>