<?xml version="1.0" encoding="UTF-8"?>
<svg id="Layer_2" data-name="Layer 2" xmlns="http://www.w3.org/2000/svg" viewBox="0 0 10.08 25.05">
  <defs>
    <style>
      .cls-1 {
        fill: #fff;
        fill-rule: evenodd;
      }
    </style>
  </defs>
  <g id="Layer_1-2" data-name="Layer 1">
    <path class="cls-1" d="M5.04,11.13c1.3,0,2.48.53,3.33,1.39.86.85,1.39,2.04,1.39,3.33v7.5c0,.47-.19.89-.5,1.2h0c-.31.31-.73.5-1.2.5H2.02c-.47,0-.89-.19-1.2-.5-.31-.31-.5-.73-.5-1.2v-7.5c0-1.3.53-2.48,1.39-3.33.85-.85,2.04-1.39,3.33-1.39h0ZM5.04,0c1.39,0,2.65.56,3.57,1.48.91.91,1.48,2.17,1.48,3.57s-.56,2.65-1.48,3.57c-.91.91-2.17,1.48-3.57,1.48s-2.65-.56-3.57-1.48c-.91-.91-1.48-2.17-1.48-3.57S.56,2.39,1.48,1.48c.91-.91,2.17-1.48,3.57-1.48Z"/>
  </g>
</svg>