<?xml version="1.0" encoding="UTF-8"?>
<svg id="Layer_2" data-name="Layer 2" xmlns="http://www.w3.org/2000/svg" viewBox="0 0 70.23 70.51">
  <g id="Layer_1-2" data-name="Layer 1">
    <g>
      <path d="M50.81,55.72H4.9c-2.7,0-4.9-2.2-4.9-4.9V4.9C0,2.2,2.2,0,4.9,0h45.91c2.7,0,4.9,2.2,4.9,4.9v45.91c0,2.7-2.2,4.9-4.9,4.9ZM5,50.72h45.72V5H5v45.72Z"/>
      <path d="M62.19,70.51H17.02c-1.38,0-2.5-1.12-2.5-2.5s1.12-2.5,2.5-2.5h45.18c1.68,0,3.04-1.36,3.04-3.04V17.29c0-1.38,1.12-2.5,2.5-2.5s2.5,1.12,2.5,2.5v45.18c0,4.43-3.61,8.04-8.04,8.04Z"/>
    </g>
  </g>
</svg>