<?xml version="1.0" encoding="UTF-8"?>
<svg id="Layer_2" data-name="Layer 2" xmlns="http://www.w3.org/2000/svg" viewBox="0 0 23.78 23.78">
  <defs>
    <style>
      .cls-1 {
        fill: #fff;
        fill-rule: evenodd;
      }
    </style>
  </defs>
  <g id="Layer_1-2" data-name="Layer 1">
    <path class="cls-1" d="M11.89,0c6.57,0,11.89,5.32,11.89,11.89s-5.32,11.89-11.89,11.89S0,18.45,0,11.89,5.32,0,11.89,0h0ZM8.14,14.22c.08-.12.16-.22.23-.31.18-.21.5-.51.97-.9.47-.39.81-.67,1.01-.85.2-.18.4-.43.59-.75.19-.32.29-.67.29-1.06,0-.25-.05-.49-.14-.72-.09-.23-.22-.43-.39-.61-.17-.18-.36-.31-.58-.41-.34-.15-.75-.23-1.23-.23-.4,0-.75.06-1.04.18-.3.12-.54.27-.73.46-.19.19-.34.4-.44.64-.1.23-.15.46-.15.68,0,.18.05.32.16.42.1.1.23.16.39.16.18,0,.31-.06.41-.17.09-.11.18-.27.25-.49.07-.21.13-.34.16-.39.23-.36.56-.54.97-.54.19,0,.37.04.54.13.16.09.29.21.39.37.09.16.14.34.14.54,0,.18-.04.37-.13.57-.09.19-.22.38-.39.56-.17.18-.38.37-.64.55-.14.1-.38.3-.72.61-.34.31-.71.68-1.13,1.11-.1.11-.19.25-.28.44-.09.19-.13.34-.13.45,0,.18.07.33.2.46.13.13.31.19.55.19h3.46c.21,0,.36-.05.46-.16.1-.11.15-.24.15-.39,0-.17-.06-.31-.19-.41-.13-.1-.31-.15-.56-.15h-2.46ZM15.08,14.73c0,.23.05.41.16.53.11.12.25.18.43.18s.32-.06.43-.18c.11-.12.16-.3.16-.54v-.88h.29c.24,0,.42-.04.54-.12.12-.08.18-.22.18-.4,0-.22-.07-.37-.22-.43-.15-.07-.34-.1-.58-.1h-.2v-3.64c0-.55-.24-.82-.71-.82-.15,0-.27.05-.38.15-.1.1-.24.26-.4.48l-2.49,3.34c-.07.09-.13.17-.17.23-.05.06-.09.13-.14.2-.04.07-.08.13-.1.19-.02.06-.03.12-.03.18,0,.23.07.42.22.55.15.14.37.2.67.2h2.36v.88h0ZM13.06,12.8h2.02v-2.74l-2.02,2.74h0ZM8.25,20.98c.4.16.81.3,1.23.4.41.1.84.18,1.27.23.3.03.57-.18.61-.48.03-.3-.18-.57-.48-.6-.38-.04-.76-.11-1.13-.21-.38-.1-.74-.22-1.09-.36-.28-.11-.6.02-.71.3-.11.28.02.6.3.71h0ZM13.27,21.59c.43-.06.85-.15,1.26-.26.42-.12.82-.26,1.21-.43.28-.12.41-.44.29-.72-.12-.28-.44-.41-.72-.29-.35.15-.71.28-1.07.38-.36.1-.74.18-1.12.23-.3.04-.51.32-.46.62.04.3.32.51.62.46h0ZM17.92,19.6c.33-.26.65-.55.95-.85.3-.3.57-.63.83-.97.18-.24.13-.58-.11-.76-.24-.18-.58-.13-.76.11-.23.3-.47.59-.74.86-.26.27-.54.52-.85.76-.24.19-.28.53-.09.77.19.24.53.28.77.09h0ZM20.52,12.71h0s0,.03,0,.03h0s0,.03,0,.03h0s0,.03,0,.03h0s-.35-.59-.35-.59c-.15-.26-.48-.35-.74-.2-.26.15-.35.48-.2.74l1.03,1.78c.15.26.48.35.74.2l1.78-1.03c.26-.15.35-.48.2-.74-.15-.26-.48-.35-.74-.2l-.65.38h0s0,0,0,0h0s0,0,0,0h0s0,0,0,0h0s0,0,0,0h0s0,0,0,0h0s0,0,0,0h0s0,0,0,0h0s0,0,0,0h0s0,0,0,0h0s0,0,0,0h0s0,0,0,0h0s0,0,0,0h0s0,0,0,0h0s0,0,0,0h0s0,0,0,0h0s0,0,0,0h0s0,0,0,0h0s0,0,0,0h0s0,0,0,0h0s0,0,0,0h0s0,0,0,0h0s0,0,0,0h0s0,0,0,0h0s0,0,0,0h0s0,0,0,0h0s0,0,0,0h0s0,0,0,0h0s0,0,0,0h0s0,0,0,0h0s0,0,0,0h0s0,0,0,0c.04-.36.06-.71.06-1.06,0-2.7-1.09-5.14-2.86-6.9-1.77-1.77-4.21-2.86-6.9-2.86s-5.14,1.09-6.9,2.86c-1.77,1.77-2.86,4.21-2.86,6.9,0,1.57.37,3.05,1.03,4.37.68,1.36,1.68,2.55,2.89,3.45.24.18.58.13.76-.11.18-.24.13-.58-.11-.76-1.08-.81-1.96-1.86-2.57-3.07-.58-1.16-.91-2.48-.91-3.88,0-2.39.97-4.56,2.54-6.13,1.57-1.57,3.74-2.54,6.13-2.54,4.79,0,8.67,3.88,8.67,8.67h0v.02h0s0,.03,0,.03h0v.02h0s0,.02,0,.02h0s0,.02,0,.02h0s0,.03,0,.03h0v.03h0s0,.03,0,.03h0s0,.03,0,.03h0s0,.03,0,.03h0s0,.01,0,.01h0s0,.02,0,.02h0s0,.02,0,.02h0s0,.02,0,.02h0s0,.02,0,.02h0s0,.01,0,.01h0s0,.02,0,.02h0s0,.03,0,.03h0s0,.01,0,.01h0s0,.03,0,.03h0s0,.03,0,.03h0s0,.03,0,.03h0s0,.01,0,.01h0s0,.02,0,.02h0s0,.02,0,.02h0s0,.01,0,.01h0s0,.03,0,.03h0s0,.01,0,.01h0s0,.01,0,.01h0s0,.02,0,.02h0s0,.02,0,.02h0s0,.03,0,.03h0s0,.02,0,.02h0s0,.02,0,.02h0s0,.03,0,.03h0s0,.03,0,.03h0s0,.01,0,.01Z"/>
  </g>
</svg>