<?xml version="1.0" encoding="UTF-8"?>
<svg id="Layer_2" data-name="Layer 2" xmlns="http://www.w3.org/2000/svg" viewBox="0 0 32.49 17.12">
  <defs>
    <style>
      .cls-1 {
        fill: #fff;
        fill-rule: evenodd;
      }
    </style>
  </defs>
  <g id="Layer_1-2" data-name="Layer 1">
    <path class="cls-1" d="M26.9,4.4l4.95,3.02c.41.25.64.66.64,1.14,0,.48-.23.89-.64,1.14l-4.95,3.02c-.47.29-1.04.26-1.48-.06-.44-.33-.64-.86-.51-1.39.21-.87.33-1.77.33-2.7s-.11-1.84-.33-2.7c-.13-.53.06-1.07.51-1.39.44-.33,1.01-.35,1.48-.06h0ZM13.99,0c4.73,0,8.56,3.83,8.56,8.56s-3.83,8.56-8.56,8.56-8.56-3.83-8.56-8.56S9.27,0,13.99,0h0ZM3.11,11.43l-3.11-2.88.52-.48c.39-.36.92-.46,1.41-.25.49.2.8.65.82,1.18.03.84.16,1.65.36,2.43Z"/>
  </g>
</svg>