<?xml version="1.0" encoding="UTF-8"?>
<svg id="Layer_2" data-name="Layer 2" xmlns="http://www.w3.org/2000/svg" viewBox="0 0 27.34 26.07">
  <defs>
    <style>
      .cls-1 {
        fill: #fff;
        fill-rule: evenodd;
      }
    </style>
  </defs>
  <g id="Layer_1-2" data-name="Layer 1">
    <path class="cls-1" d="M14.26.37l.07.13c1.25,2.47,2.96,4.49,5.04,6,2.08,1.51,4.53,2.51,7.27,2.94l.15.02c.36.06.61.4.55.76-.02.15-.09.27-.19.37l-.1.1c-1.96,1.95-3.36,4.2-4.15,6.65-.79,2.44-.99,5.08-.55,7.82l.02.15c.06.36-.19.7-.55.76-.15.02-.3,0-.43-.08l-.11-.06c-2.46-1.26-5.03-1.9-7.61-1.9s-5.14.63-7.61,1.9l-.13.07c-.33.17-.73.04-.89-.29-.07-.13-.09-.27-.06-.41l.02-.15c.44-2.74.25-5.38-.55-7.82-.79-2.44-2.19-4.69-4.15-6.65l-.1-.1c-.26-.26-.26-.68,0-.94.11-.11.25-.18.4-.19l.12-.02c2.74-.43,5.19-1.43,7.27-2.94,2.08-1.51,3.78-3.53,5.04-6l.07-.13c.17-.33.56-.46.89-.29.13.07.23.17.29.29Z"/>
  </g>
</svg>