<?xml version="1.0" encoding="UTF-8"?>
<svg id="Layer_2" data-name="Layer 2" xmlns="http://www.w3.org/2000/svg" viewBox="0 0 74.35 71.56">
  <g id="Layer_1-2" data-name="Layer 1">
    <g>
      <g>
        <path d="M38.57,71.56c-1.38,0-2.5-1.12-2.5-2.5s1.12-2.5,2.5-2.5c16.97,0,30.78-13.81,30.78-30.78S55.54,5,38.57,5,7.79,18.81,7.79,35.78c0,1.38-1.12,2.5-2.5,2.5s-2.5-1.12-2.5-2.5C2.79,16.05,18.84,0,38.57,0s35.78,16.05,35.78,35.78-16.05,35.78-35.78,35.78Z"/>
        <path d="M38.57,38.28c-1.38,0-2.5-1.12-2.5-2.5V14.79c0-1.38,1.12-2.5,2.5-2.5s2.5,1.12,2.5,2.5v20.99c0,1.38-1.12,2.5-2.5,2.5Z"/>
      </g>
      <path d="M38.57,71.56H2.5c-1.38,0-2.5-1.12-2.5-2.5s1.12-2.5,2.5-2.5h36.07c1.38,0,2.5,1.12,2.5,2.5s-1.12,2.5-2.5,2.5Z"/>
      <path d="M24.69,60.14H2.5c-1.38,0-2.5-1.12-2.5-2.5s1.12-2.5,2.5-2.5h22.19c1.38,0,2.5,1.12,2.5,2.5s-1.12,2.5-2.5,2.5Z"/>
      <path d="M16.74,48.72H2.5c-1.38,0-2.5-1.12-2.5-2.5s1.12-2.5,2.5-2.5h14.24c1.38,0,2.5,1.12,2.5,2.5s-1.12,2.5-2.5,2.5Z"/>
      <path d="M45.34,45.05c-.64,0-1.28-.24-1.77-.73l-6.77-6.77c-.98-.98-.98-2.56,0-3.54.98-.98,2.56-.98,3.54,0l6.77,6.77c.98.98.98,2.56,0,3.54-.49.49-1.13.73-1.77.73Z"/>
    </g>
  </g>
</svg>