<?xml version="1.0" encoding="UTF-8"?>
<svg id="Layer_2" data-name="Layer 2" xmlns="http://www.w3.org/2000/svg" viewBox="0 0 160.54 160.54">
  <defs>
    <style>
      .cls-1 {
        fill: #080a16;
      }
    </style>
  </defs>
  <g id="Calque_1" data-name="Calque 1">
    <path class="cls-1" d="M160.54,120.4c0,22.17-17.97,40.13-40.13,40.13s-40.14-17.97-40.14-40.13c0,22.17-17.98,40.13-40.13,40.13S0,142.57,0,120.4s17.97-40.14,40.13-40.14C17.97,80.27,0,62.3,0,40.14S17.97,0,40.13,0s40.13,17.97,40.13,40.14C80.27,17.97,98.23,0,120.4,0s40.13,17.97,40.13,40.14-17.97,40.13-40.13,40.13c22.17,0,40.13,17.97,40.13,40.14Z"/>
  </g>
</svg>