<?xml version="1.0" encoding="UTF-8"?>
<svg id="Layer_2" data-name="Layer 2" xmlns="http://www.w3.org/2000/svg" viewBox="0 0 56.75 61.51">
  <g id="Layer_1-2" data-name="Layer 1">
    <g>
      <path d="M28.38,43.12c-6.82,0-12.36-5.54-12.36-12.36s5.54-12.36,12.36-12.36,12.36,5.54,12.36,12.36-5.54,12.36-12.36,12.36ZM28.38,23.4c-4.06,0-7.36,3.3-7.36,7.36s3.3,7.36,7.36,7.36,7.36-3.3,7.36-7.36-3.3-7.36-7.36-7.36Z"/>
      <path d="M30.51,61.51h-4.28c-1.99,0-3.79-1.18-4.6-3l-2.37-5.37c-2.08-.84-3.99-1.94-5.72-3.28l-5.86.6c-1.98.22-3.9-.76-4.89-2.48l-2.14-3.7c-.99-1.72-.88-3.87.3-5.48l3.45-4.72c-.16-1.16-.24-2.27-.24-3.33s.08-2.17.23-3.28l-3.45-4.77c-1.17-1.61-1.29-3.76-.3-5.48l2.14-3.7c1-1.72,2.92-2.7,4.89-2.48l5.83.63c1.76-1.37,3.67-2.47,5.7-3.3l2.41-5.38c.8-1.82,2.61-3,4.6-3h4.28c1.99,0,3.79,1.18,4.6,3l2.37,5.37c2.08.84,3.99,1.94,5.72,3.28l5.86-.6c1.98-.22,3.9.76,4.89,2.48l2.14,3.7c.99,1.72.88,3.87-.3,5.48l-3.45,4.72c.16,1.16.24,2.27.24,3.33s-.08,2.17-.23,3.27l3.45,4.77c1.18,1.61,1.29,3.76.3,5.48l-2.14,3.7c-.99,1.72-2.91,2.7-4.89,2.48l-5.82-.63c-1.76,1.37-3.67,2.47-5.7,3.3l-2.41,5.38c-.8,1.82-2.61,3-4.6,3ZM13.52,44.83c1.11,0,2.19.38,3.1,1.08,1.37,1.06,2.88,1.93,4.5,2.59,1.24.5,2.21,1.44,2.73,2.62l2.37,5.37h4.3s2.39-5.37,2.39-5.37c.52-1.19,1.49-2.12,2.73-2.62,1.62-.66,3.13-1.53,4.5-2.59,1.06-.82,2.35-1.19,3.64-1.05l5.83.63,2.16-3.71-3.45-4.74c-.77-1.06-1.1-2.37-.91-3.7.12-.88.19-1.75.19-2.58s-.06-1.7-.19-2.58c-.19-1.33.14-2.65.91-3.7l3.45-4.72-2.14-3.73-5.85.62c-1.29.14-2.58-.23-3.64-1.05-1.37-1.06-2.88-1.93-4.5-2.59-1.24-.5-2.21-1.44-2.73-2.62l-2.37-5.37h-4.3s-2.39,5.37-2.39,5.37c-.52,1.19-1.49,2.12-2.73,2.62-1.62.66-3.13,1.53-4.5,2.59-1.06.82-2.35,1.19-3.64,1.05l-5.83-.63-2.16,3.71,3.45,4.74c.77,1.06,1.1,2.37.91,3.71-.12.88-.19,1.75-.19,2.58s.06,1.7.19,2.58c.19,1.33-.14,2.65-.91,3.7l-3.45,4.72,2.14,3.73,5.85-.62c.18-.02.35-.03.53-.03Z"/>
    </g>
  </g>
</svg>