<?xml version="1.0" encoding="UTF-8"?>
<svg id="Layer_2" data-name="Layer 2" xmlns="http://www.w3.org/2000/svg" viewBox="0 0 23.42 24.75">
  <defs>
    <style>
      .cls-1 {
        fill: #fff;
        fill-rule: evenodd;
      }
    </style>
  </defs>
  <g id="Layer_1-2" data-name="Layer 1">
    <path class="cls-1" d="M14.78,3.95c.47.17.93.38,1.36.63.44.25.85.54,1.24.85l3.35-1.12c.32-.11.66.04.8.33l1.75,3.03c.16.28.1.62-.14.83l-2.62,2.32c.03.19.06.38.08.58.04.33.05.65.05.97,0,.3-.02.61-.05.92-.02.18-.04.35-.07.52l2.64,2.34c.24.21.29.56.13.83l-1.77,3.06c-.17.29-.51.4-.81.29l-3.29-1.1c-.38.32-.79.61-1.23.87-.43.25-.89.47-1.36.65l-.71,3.46c-.06.31-.34.53-.65.53h0s-3.53,0-3.53,0c-.34,0-.62-.26-.66-.59l-.69-3.37c-.47-.17-.93-.38-1.36-.63-.44-.25-.85-.54-1.24-.85l-3.35,1.12c-.32.11-.66-.04-.8-.33l-1.75-3.03c-.16-.28-.1-.62.14-.83l2.61-2.32c-.03-.19-.06-.38-.08-.58-.04-.33-.05-.65-.05-.97,0-.3.02-.61.05-.92.02-.18.04-.35.07-.52L.22,8.59c-.24-.21-.29-.56-.13-.83l1.77-3.06c.17-.29.51-.4.81-.29l3.29,1.1c.38-.32.79-.61,1.23-.87.43-.25.89-.47,1.36-.65l.71-3.46C9.31.22,9.59,0,9.9,0h0s3.54,0,3.54,0c.34,0,.62.26.66.59l.69,3.37h0ZM13.86,10.23c-.55-.55-1.31-.89-2.15-.89s-1.6.34-2.15.89c-.55.55-.89,1.31-.89,2.14s.34,1.6.89,2.14c.55.55,1.31.89,2.15.89s1.6-.34,2.15-.89c.55-.55.89-1.31.89-2.14s-.34-1.6-.89-2.14Z"/>
  </g>
</svg>