<?xml version="1.0" encoding="UTF-8"?>
<svg id="Layer_2" data-name="Layer 2" xmlns="http://www.w3.org/2000/svg" viewBox="0 0 18.97 27.49">
  <defs>
    <style>
      .cls-1 {
        fill: #fff;
        fill-rule: evenodd;
      }
    </style>
  </defs>
  <g id="Layer_1-2" data-name="Layer 1">
    <path class="cls-1" d="M.73,7.07h3.69v-1.96c0-1.41.57-2.68,1.5-3.61.92-.92,2.2-1.5,3.61-1.5s2.69.39,3.62,1.12c.92.72,1.49,1.75,1.49,3.03,0,.4-.33.73-.73.73s-.73-.33-.73-.73c0-.8-.35-1.44-.92-1.89-.67-.52-1.64-.8-2.72-.8-1,0-1.92.41-2.58,1.07-.66.66-1.07,1.57-1.07,2.58v1.96h12.36c.4,0,.73.33.73.73v18.97c0,.4-.33.73-.73.73H.73c-.4,0-.73-.33-.73-.73V7.8c0-.4.33-.73.73-.73h0ZM11,20.75c.4,0,.73-.33.73-.73,0-.1-.02-.2-.06-.29l-.8-2.28c.35-.22.64-.51.86-.84.29-.44.45-.96.45-1.51,0-.76-.31-1.45-.81-1.96h0c-.5-.5-1.19-.81-1.95-.81s-1.45.31-1.96.81h0c-.5.51-.81,1.2-.81,1.96,0,.54.16,1.06.45,1.51.22.34.51.62.86.84l-.81,2.34c-.13.38.07.79.45.93.08.03.16.04.24.04h0s3.19,0,3.19,0h0ZM2.17,24.58h14.63c.4,0,.73-.33.73-.73s-.33-.73-.73-.73H2.17c-.4,0-.73.33-.73.73s.33.73.73.73Z"/>
  </g>
</svg>