<?xml version="1.0" encoding="UTF-8"?>
<svg id="Layer_2" data-name="Layer 2" xmlns="http://www.w3.org/2000/svg" viewBox="0 0 33.4 24.37">
  <defs>
    <style>
      .cls-1 {
        fill: #fff;
        fill-rule: evenodd;
      }
    </style>
  </defs>
  <g id="Layer_1-2" data-name="Layer 1">
    <path class="cls-1" d="M.73,0h21.88c.4,0,.73.33.73.73v2.95l5.11.02c.23,0,.43.11.56.27l4.22,5.06c.11.14.17.3.17.46h0v8.75c0,.4-.33.73-.73.73h-.06s-9.99,0-9.99,0H.79s-.06,0-.06,0c-.4,0-.73-.33-.73-.73V.73c0-.4.33-.73.73-.73h0ZM8.02,19.26c1.41,0,2.56,1.14,2.56,2.56s-1.14,2.56-2.56,2.56-2.56-1.15-2.56-2.56,1.15-2.56,2.56-2.56h0ZM26.99,19.26c1.41,0,2.56,1.14,2.56,2.56s-1.14,2.56-2.56,2.56-2.56-1.15-2.56-2.56,1.14-2.56,2.56-2.56h0ZM24.22,10.95c0,.4.33.73.73.73h5.76c.4,0,.73-.33.73-.73,0-.18-.06-.34-.17-.47l-2.98-3.53c-.15-.18-.38-.27-.6-.26h-2.74c-.4-.02-.73.31-.73.71v3.56h0ZM1.23,16.05h20.87c.4,0,.73-.33.73-.73s-.33-.73-.73-.73H1.23c-.4,0-.73.33-.73.73s.33.73.73.73Z"/>
  </g>
</svg>