<?xml version="1.0" encoding="UTF-8"?>
<svg id="Layer_2" data-name="Layer 2" xmlns="http://www.w3.org/2000/svg" viewBox="0 0 35.14 16.2">
  <defs>
    <style>
      .cls-1 {
        fill: #fff;
        fill-rule: evenodd;
      }
    </style>
  </defs>
  <g id="Layer_1-2" data-name="Layer 1">
    <path class="cls-1" d="M22.17,0c.44,0,.8.36.8.8s-.36.8-.8.8-.8-.36-.8-.8.36-.8.8-.8h0ZM.8,0c.44,0,.8.36.8.8s-.36.8-.8.8-.8-.36-.8-.8.36-.8.8-.8h0ZM12.97,7.3c.44,0,.8.36.8.8s-.36.8-.8.8-.8-.36-.8-.8.36-.8.8-.8h0ZM10.53,9.73c.44,0,.8.36.8.8,0,1.06-1.61,1.06-1.61,0,0-.44.36-.8.8-.8h0ZM10.53,7.3c.44,0,.8.36.8.8s-.36.8-.8.8-.8-.36-.8-.8.36-.8.8-.8h0ZM10.53,4.87c.44,0,.8.36.8.8s-.36.8-.8.8-.8-.36-.8-.8.36-.8.8-.8h0ZM8.1,12.16c.44,0,.8.36.8.8s-.36.8-.8.8-.8-.36-.8-.8.36-.8.8-.8h0ZM8.1,9.73c.44,0,.8.36.8.8s-.36.8-.8.8-.8-.36-.8-.8.36-.8.8-.8h0ZM8.1,7.3c.44,0,.8.36.8.8s-.36.8-.8.8-.8-.36-.8-.8.36-.8.8-.8h0ZM8.1,4.87c.44,0,.8.36.8.8s-.36.8-.8.8-.8-.36-.8-.8.36-.8.8-.8h0ZM8.1,2.43c.44,0,.8.36.8.8s-.36.8-.8.8-.8-.36-.8-.8.36-.8.8-.8h0ZM5.67,14.6c.44,0,.8.36.8.8s-.36.8-.8.8-.8-.36-.8-.8.36-.8.8-.8h0ZM5.67,12.16c.44,0,.8.36.8.8s-.36.8-.8.8-.8-.36-.8-.8.36-.8.8-.8h0ZM5.67,9.73c.44,0,.8.36.8.8s-.36.8-.8.8-.8-.36-.8-.8.36-.8.8-.8h0ZM5.67,4.87c.44,0,.8.36.8.8s-.36.8-.8.8-.8-.36-.8-.8.36-.8.8-.8h0ZM5.67,2.43c.44,0,.8.36.8.8s-.36.8-.8.8-.8-.36-.8-.8.36-.8.8-.8h0ZM5.67,0c.44,0,.8.36.8.8s-.36.8-.8.8-.8-.36-.8-.8.36-.8.8-.8h0ZM3.24,14.6c.44,0,.8.36.8.8s-.36.8-.8.8-.8-.36-.8-.8.36-.8.8-.8h0ZM3.24,12.16c.44,0,.8.36.8.8s-.36.8-.8.8-.8-.36-.8-.8.36-.8.8-.8h0ZM3.24,2.43c.44,0,.8.36.8.8s-.36.8-.8.8-.8-.36-.8-.8.36-.8.8-.8h0ZM3.24,0c.44,0,.8.36.8.8s-.36.8-.8.8-.8-.36-.8-.8.36-.8.8-.8h0ZM.8,14.6c.44,0,.8.36.8.8s-.36.8-.8.8-.8-.36-.8-.8.36-.8.8-.8h0ZM11.43,0c.44,0,.8.36.8.8s-.36.8-.8.8-.8-.36-.8-.8.36-.8.8-.8h0ZM23.59,7.3c.44,0,.8.36.8.8s-.36.8-.8.8-.8-.36-.8-.8.36-.8.8-.8h0ZM21.16,9.73c.44,0,.8.36.8.8s-.36.8-.8.8-.8-.36-.8-.8.36-.8.8-.8h0ZM21.16,7.3c.44,0,.8.36.8.8s-.36.8-.8.8-.8-.36-.8-.8.36-.8.8-.8h0ZM21.16,4.87c.44,0,.8.36.8.8s-.36.8-.8.8-.8-.36-.8-.8.36-.8.8-.8h0ZM18.73,12.16c.44,0,.8.36.8.8s-.36.8-.8.8-.8-.36-.8-.8.36-.8.8-.8h0ZM18.73,9.73c.44,0,.8.36.8.8s-.36.8-.8.8-.8-.36-.8-.8.36-.8.8-.8h0ZM18.73,7.3c.44,0,.8.36.8.8s-.36.8-.8.8-.8-.36-.8-.8.36-.8.8-.8h0ZM18.73,4.87c.44,0,.8.36.8.8s-.36.8-.8.8-.8-.36-.8-.8.36-.8.8-.8h0ZM18.73,2.43c.44,0,.8.36.8.8s-.36.8-.8.8-.8-.36-.8-.8.36-.8.8-.8h0ZM16.3,14.6c.44,0,.8.36.8.8s-.36.8-.8.8-.8-.36-.8-.8.36-.8.8-.8h0ZM16.3,12.16c.44,0,.8.36.8.8s-.36.8-.8.8-.8-.36-.8-.8.36-.8.8-.8h0ZM16.3,9.73c.44,0,.8.36.8.8s-.36.8-.8.8-.8-.36-.8-.8.36-.8.8-.8h0ZM16.3,4.87c.44,0,.8.36.8.8s-.36.8-.8.8-.8-.36-.8-.8.36-.8.8-.8h0ZM16.3,2.43c.44,0,.8.36.8.8s-.36.8-.8.8-.8-.36-.8-.8.36-.8.8-.8h0ZM16.3,0c.44,0,.8.36.8.8s-.36.8-.8.8-.8-.36-.8-.8.36-.8.8-.8h0ZM13.86,14.6c.44,0,.8.36.8.8s-.36.8-.8.8-.8-.36-.8-.8.36-.8.8-.8h0ZM13.86,12.16c.44,0,.8.36.8.8s-.36.8-.8.8-.8-.36-.8-.8.36-.8.8-.8h0ZM13.86,2.43c.44,0,.8.36.8.8s-.36.8-.8.8-.8-.36-.8-.8.36-.8.8-.8h0ZM13.86,0c.44,0,.8.36.8.8s-.36.8-.8.8-.8-.36-.8-.8.36-.8.8-.8h0ZM11.43,14.6c.44,0,.8.36.8.8s-.36.8-.8.8-.8-.36-.8-.8.36-.8.8-.8h0ZM34.33,7.3c.44,0,.8.36.8.8s-.36.8-.8.8-.8-.36-.8-.8.36-.8.8-.8h0ZM31.9,9.73c.44,0,.8.36.8.8s-.36.8-.8.8-.8-.36-.8-.8.36-.8.8-.8h0ZM31.9,7.3c.44,0,.8.36.8.8s-.36.8-.8.8-.8-.36-.8-.8.36-.8.8-.8h0ZM31.9,4.87c.44,0,.8.36.8.8s-.36.8-.8.8-.8-.36-.8-.8.36-.8.8-.8h0ZM29.47,12.16c.44,0,.8.36.8.8s-.36.8-.8.8-.8-.36-.8-.8.36-.8.8-.8h0ZM29.47,9.73c.44,0,.8.36.8.8s-.36.8-.8.8-.8-.36-.8-.8.36-.8.8-.8h0ZM29.47,7.3c.44,0,.8.36.8.8s-.36.8-.8.8-.8-.36-.8-.8.36-.8.8-.8h0ZM29.47,4.87c.44,0,.8.36.8.8s-.36.8-.8.8-.8-.36-.8-.8.36-.8.8-.8h0ZM29.47,2.43c.44,0,.8.36.8.8s-.36.8-.8.8-.8-.36-.8-.8.36-.8.8-.8h0ZM27.04,14.6c.44,0,.8.36.8.8s-.36.8-.8.8-.8-.36-.8-.8.36-.8.8-.8h0ZM27.04,12.16c.44,0,.8.36.8.8s-.36.8-.8.8-.8-.36-.8-.8.36-.8.8-.8h0ZM27.04,9.73c.44,0,.8.36.8.8s-.36.8-.8.8-.8-.36-.8-.8.36-.8.8-.8h0ZM27.04,4.87c.44,0,.8.36.8.8s-.36.8-.8.8-.8-.36-.8-.8.36-.8.8-.8h0ZM27.04,2.43c.44,0,.8.36.8.8s-.36.8-.8.8-.8-.36-.8-.8.36-.8.8-.8h0ZM27.04,0c.44,0,.8.36.8.8s-.36.8-.8.8-.8-.36-.8-.8.36-.8.8-.8h0ZM24.6,14.6c.44,0,.8.36.8.8s-.36.8-.8.8-.8-.36-.8-.8.36-.8.8-.8h0ZM24.6,12.16c.44,0,.8.36.8.8s-.36.8-.8.8-.8-.36-.8-.8.36-.8.8-.8h0ZM24.6,2.43c.44,0,.8.36.8.8s-.36.8-.8.8-.8-.36-.8-.8.36-.8.8-.8h0ZM24.6,0c.44,0,.8.36.8.8s-.36.8-.8.8-.8-.36-.8-.8.36-.8.8-.8h0ZM22.17,14.6c.44,0,.8.36.8.8s-.36.8-.8.8-.8-.36-.8-.8.36-.8.8-.8Z"/>
  </g>
</svg>