<?xml version="1.0" encoding="UTF-8"?>
<svg id="Layer_2" data-name="Layer 2" xmlns="http://www.w3.org/2000/svg" viewBox="0 0 30.06 28.13">
  <defs>
    <style>
      .cls-1 {
        fill: #fff;
        fill-rule: evenodd;
      }
    </style>
  </defs>
  <g id="Layer_1-2" data-name="Layer 1">
    <path class="cls-1" d="M7.27,4.92h0c.23,0,.46.01.71.04l.19.02c.73-1.42,1.81-2.63,3.14-3.5,1.43-.93,3.13-1.48,4.96-1.48,2.26,0,4.33.83,5.92,2.19,1.5,1.29,2.57,3.05,2.99,5.06,1.32.29,2.48,1,3.34,1.98.95,1.09,1.53,2.51,1.53,4.06,0,1.71-.7,3.25-1.82,4.37-1.13,1.12-2.68,1.81-4.39,1.81h0c-1,0-6.93,0-11.52,0-2.58,0-4.73,0-5.36-.01-1.91-.03-3.64-.88-4.89-2.19-1.28-1.34-2.08-3.16-2.08-5.07,0-2,.82-3.82,2.14-5.14,1.32-1.32,3.14-2.14,5.14-2.14h0ZM20.75,20.97c.21-.3.63-.37.93-.15.3.21.36.63.15.93l-4.39,6.1c-.21.3-.63.37-.93.15-.3-.21-.37-.63-.15-.93l4.39-6.1h0ZM15.12,20.97l-4.39,6.1c-.21.3-.15.71.15.93.3.21.71.15.93-.15l4.39-6.1c.21-.3.15-.71-.15-.93-.3-.21-.71-.15-.93.15h0ZM9.49,20.97c.21-.3.63-.37.93-.15.3.21.37.63.15.93l-4.39,6.1c-.21.3-.63.37-.93.15-.3-.21-.36-.63-.15-.93l4.39-6.1Z"/>
  </g>
</svg>