<?xml version="1.0" encoding="UTF-8"?>
<svg id="Layer_2" data-name="Layer 2" xmlns="http://www.w3.org/2000/svg" viewBox="0 0 29.82 29.82">
  <defs>
    <style>
      .cls-1 {
        fill: #fff;
        fill-rule: evenodd;
      }
    </style>
  </defs>
  <g id="Layer_1-2" data-name="Layer 1">
    <path class="cls-1" d="M14.91,7.32c2.1,0,3.99.85,5.37,2.22s2.22,3.27,2.22,5.37-.85,3.99-2.22,5.37c-1.37,1.37-3.27,2.22-5.37,2.22s-3.99-.85-5.37-2.22c-1.37-1.37-2.22-3.27-2.22-5.37s.85-3.99,2.22-5.37c1.37-1.37,3.27-2.22,5.37-2.22h0ZM24.51,4.37l-2.81,2.81c-.26.26-.26.68,0,.94.26.26.68.26.94,0l2.81-2.81c.26-.26.26-.68,0-.94-.26-.26-.68-.26-.94,0h0ZM29.16,14.24c.37,0,.67.3.67.67s-.3.67-.67.67h-3.98c-.37,0-.67-.3-.67-.67s.3-.67.67-.67h3.98ZM25.46,24.51l-2.81-2.81c-.26-.26-.68-.26-.94,0-.26.26-.26.68,0,.94l2.81,2.81c.26.26.68.26.94,0,.26-.26.26-.68,0-.94h0ZM15.58,29.16c0,.37-.3.67-.67.67s-.67-.3-.67-.67v-3.98c0-.37.3-.67.67-.67s.67.3.67.67v3.98h0ZM5.31,25.46l2.81-2.81c.26-.26.26-.68,0-.94-.26-.26-.68-.26-.94,0l-2.81,2.81c-.26.26-.26.68,0,.94.26.26.68.26.94,0h0ZM.67,15.58c-.37,0-.67-.3-.67-.67s.3-.67.67-.67h3.98c.37,0,.67.3.67.67s-.3.67-.67.67H.67ZM4.37,5.31l2.81,2.81c.26.26.68.26.94,0,.26-.26.26-.68,0-.94l-2.81-2.81c-.26-.26-.68-.26-.94,0-.26.26-.26.68,0,.94h0ZM14.24.67c0-.37.3-.67.67-.67s.67.3.67.67v3.98c0,.37-.3.67-.67.67s-.67-.3-.67-.67V.67Z"/>
  </g>
</svg>