<?xml version="1.0" encoding="UTF-8"?>
<svg id="Layer_2" data-name="Layer 2" xmlns="http://www.w3.org/2000/svg" viewBox="0 0 21.7 25.1">
  <defs>
    <style>
      .cls-1 {
        fill: #fff;
        fill-rule: evenodd;
      }
    </style>
  </defs>
  <g id="Layer_1-2" data-name="Layer 1">
    <path class="cls-1" d="M10,0c1.68,0,3.19.68,4.29,1.78s1.78,2.62,1.78,4.29-.68,3.19-1.78,4.29c-.5.5-1.08.91-1.73,1.21,1.46.39,2.78,1.1,3.9,2.05-.24.14-.47.31-.68.48-.16.14-.32.29-.47.46-.15-.17-.31-.32-.47-.46-.27-.23-.57-.43-.89-.6-.31-.16-.64-.3-1-.4-.35-.1-.71-.16-1.06-.18-.36-.02-.72,0-1.07.06-.36.06-.71.15-1.04.28-.33.13-.65.3-.95.5-.28.19-.47.47-.55.77-.08.3-.05.63.1.92.15.32.34.62.55.9.22.28.46.54.73.77.27.23.57.43.89.6.31.16.64.3,1,.4.35.1.71.16,1.06.18.36.02.72,0,1.07-.06l.14-.03v4.06c0,.47.09.92.27,1.33.16.38.38.72.65,1.02H2.2c-.61,0-1.16-.25-1.56-.65-.4-.4-.65-.95-.65-1.56v-1.2c0-2.75,1.12-5.25,2.94-7.06,1.23-1.23,2.77-2.14,4.5-2.6-.65-.3-1.23-.71-1.73-1.21-1.1-1.1-1.78-2.62-1.78-4.29s.68-3.19,1.78-4.29c1.1-1.1,2.62-1.78,4.29-1.78h0ZM15.31,15.67c-.24-.4-.55-.76-.9-1.06-.46-.39-1.01-.69-1.63-.86-.62-.17-1.24-.2-1.84-.1-.62.1-1.21.33-1.72.68-.28.19-.37.56-.22.86.26.55.64,1.05,1.11,1.45.46.39,1.01.69,1.63.86.62.17,1.24.2,1.84.1.32-.05.62-.14.92-.25v4.94c0,.77.32,1.48.83,1.99h0c.51.51,1.22.83,1.99.83.53,0,1.04-.15,1.47-.42h0c.44-.27.81-.66,1.04-1.13.17-.33.04-.73-.29-.9-.33-.17-.73-.04-.9.29-.13.25-.32.45-.55.6h0c-.22.14-.49.22-.77.22-.41,0-.78-.17-1.05-.44-.27-.27-.44-.64-.44-1.05v-5.08c.38.19.8.32,1.22.39.6.1,1.22.07,1.84-.1.62-.17,1.17-.47,1.63-.86.47-.4.85-.9,1.11-1.45.15-.3.06-.67-.22-.86-.51-.35-1.1-.58-1.72-.68-.6-.1-1.22-.07-1.84.1-.62.17-1.17.47-1.63.86-.36.3-.66.66-.9,1.06h0ZM19.46,18.01c.35,1.01.54,2.1.54,3.22v.94c-.05-.04-.1-.07-.16-.1-.33-.17-.69-.18-1.02-.08-.32.11-.61.34-.78.66-.04.07-.08.13-.13.19h0s-.1.09-.16.14l-.05.03s-.09.05-.14.06h-.02c-.07.02-.14.03-.22.03-.11,0-.22-.02-.31-.06-.1-.04-.19-.1-.27-.18-.08-.08-.14-.17-.18-.27-.04-.09-.06-.2-.06-.31v-4.13c.15.04.3.07.45.1.35.06.71.08,1.07.06.35-.02.7-.08,1.06-.18.14-.04.27-.08.4-.13Z"/>
  </g>
</svg>