<?xml version="1.0" encoding="UTF-8"?>
<svg id="Layer_2" data-name="Layer 2" xmlns="http://www.w3.org/2000/svg" viewBox="0 0 32.34 24.42">
  <defs>
    <style>
      .cls-1 {
        fill: #fff;
        fill-rule: evenodd;
      }
    </style>
  </defs>
  <g id="Layer_1-2" data-name="Layer 1">
    <path class="cls-1" d="M.73,8.89h4.86c.4,0,.73.33.73.73v1.13h6.88c.18,0,.34.06.47.17l3.45,2.53h4.59c.71,0,1.35.28,1.81.74.46.46.75,1.1.76,1.81v1c0,.4-.32.73-.72.73h0s-5.95,0-5.95,0v.8l6.32.03,3.15-3.39c.24-.26.53-.46.84-.59.31-.13.65-.2,1.01-.2l2.67-.03c.4,0,.73.32.73.72,0,.2-.08.38-.2.51l-8.22,8.53c-.15.16-.35.23-.55.22l-8.42.09c-.13,0-.24-.03-.35-.08h0s-8.28-4.4-8.28-4.4v.74c0,.4-.33.73-.73.73H.73c-.4,0-.73-.33-.73-.73v-11.05c0-.4.33-.73.73-.73h0ZM23.54,0c-1.79,0-3.41.73-4.59,1.9-1.17,1.17-1.9,2.8-1.9,4.59s.73,3.41,1.9,4.59c1.17,1.17,2.8,1.9,4.59,1.9s3.41-.73,4.59-1.9c1.17-1.17,1.9-2.8,1.9-4.59s-.73-3.41-1.9-4.59-2.8-1.9-4.59-1.9h0ZM26.39,7.92c0-.57-.18-1.03-.55-1.38-.37-.34-.95-.62-1.76-.82v-2.02c.5.11.98.33,1.45.68l.6-1c-.3-.22-.61-.4-.93-.53-.32-.13-.68-.23-1.07-.28v-.64h-.92v.62c-.33.03-.64.1-.91.2-.27.11-.51.25-.71.43-.2.18-.35.39-.46.63-.11.24-.16.5-.16.79,0,.3.05.56.14.79.09.23.23.43.42.61.19.17.42.32.71.45.28.13.62.24,1.01.34v2.08c-.35-.06-.67-.16-.97-.31-.3-.15-.6-.35-.9-.6l-.68.97c.36.29.75.52,1.17.7.42.18.87.29,1.33.35v1.06h.92v-1.05c.34-.03.65-.1.93-.21.28-.11.51-.25.71-.43s.35-.39.46-.63c.11-.24.16-.51.16-.8h0ZM23.24,5.5c-.41-.12-.68-.26-.82-.41-.13-.15-.2-.34-.2-.57s.08-.43.26-.6c.17-.17.42-.26.77-.29v1.87h0ZM25.13,8c0-.12-.02-.23-.05-.32-.03-.1-.09-.18-.17-.27-.08-.08-.19-.16-.32-.22-.13-.07-.3-.13-.51-.2v1.92c.34-.03.6-.12.78-.29.18-.16.27-.37.27-.63Z"/>
  </g>
</svg>