<?xml version="1.0" encoding="UTF-8"?>
<svg id="Layer_2" data-name="Layer 2" xmlns="http://www.w3.org/2000/svg" viewBox="0 0 24.61 19.3">
  <defs>
    <style>
      .cls-1 {
        fill: #fff;
        fill-rule: evenodd;
      }
    </style>
  </defs>
  <g id="Layer_1-2" data-name="Layer 1">
    <path class="cls-1" d="M1.34,0h2.54c.39,0,.73.15,1,.45l5.55,6.26c.26.3.6.45,1,.45h2.37c.54,0,.99-.3,1.21-.79.22-.49.14-1.03-.22-1.43l-2.42-2.73c-.36-.4-.44-.94-.22-1.43.22-.49.68-.79,1.21-.79h2.54c.39,0,.73.15,1,.45l7.38,8.32c.45.51.45,1.26,0,1.77l-7.38,8.32c-.26.3-.6.45-1,.45h-2.54c-.54,0-.99-.3-1.21-.79-.22-.49-.14-1.03.22-1.43l2.42-2.73c.36-.4.44-.94.22-1.43-.22-.49-.68-.79-1.21-.79h-2.37c-.39,0-.73.15-1,.45l-5.55,6.26c-.26.3-.6.45-1,.45H1.34c-.54,0-.99-.3-1.21-.79-.22-.49-.14-1.03.22-1.43l6.4-7.21v-.44L.34,2.22C-.02,1.81-.1,1.27.12.79c.22-.49.68-.79,1.21-.79Z"/>
  </g>
</svg>