<?xml version="1.0" encoding="UTF-8"?>
<svg id="Layer_2" data-name="Layer 2" xmlns="http://www.w3.org/2000/svg" viewBox="0 0 71.56 71.56">
  <g id="Layer_1-2" data-name="Layer 1">
    <g>
      <g>
        <path d="M25.98,32.59c-.16,0-.32-.02-.49-.05-.16-.04-.31-.08-.46-.15-.15-.06-.3-.14-.43-.22-.14-.1-.27-.2-.38-.32-.12-.11-.22-.24-.31-.38-.1-.13-.17-.28-.24-.43-.06-.15-.11-.31-.14-.46-.03-.17-.05-.33-.05-.49,0-.17.02-.33.05-.49s.08-.32.14-.47c.07-.15.14-.3.23-.43.09-.14.2-.27.31-.38.12-.12.25-.22.38-.31.14-.09.28-.17.44-.23.15-.07.3-.11.46-.15.33-.06.66-.06.98,0,.16.04.32.08.47.15.15.06.3.14.43.23.14.09.27.19.38.31.47.46.73,1.11.73,1.77,0,.16,0,.32-.05.49-.03.15-.08.31-.14.46-.06.15-.14.3-.23.43-.09.14-.19.27-.31.38-.11.12-.24.22-.38.32-.13.08-.28.16-.43.22-.15.07-.31.11-.47.15-.16.03-.32.05-.49.05Z"/>
        <path d="M45.57,32.58c-.66,0-1.31-.26-1.77-.73-.47-.46-.73-1.1-.73-1.76,0-.17,0-.33.05-.49.03-.16.08-.32.14-.47.06-.15.14-.3.23-.43.09-.14.19-.27.31-.38.93-.93,2.61-.93,3.53,0,.12.11.22.24.31.38.1.13.17.28.23.43.07.15.12.31.15.47s.05.32.05.49c0,.16-.02.32-.05.49-.03.15-.08.31-.15.46-.06.15-.14.3-.23.43-.09.14-.19.27-.31.38-.46.47-1.1.73-1.76.73Z"/>
      </g>
      <path d="M35.78,71.56C16.05,71.56,0,55.51,0,35.78S16.05,0,35.78,0s35.78,16.05,35.78,35.78-16.05,35.78-35.78,35.78ZM35.78,5c-16.97,0-30.78,13.81-30.78,30.78s13.81,30.78,30.78,30.78,30.78-13.81,30.78-30.78S52.75,5,35.78,5Z"/>
      <path d="M35.79,55.41c-7.75,0-14.79-4.58-17.96-11.67-.56-1.26,0-2.74,1.26-3.3,1.26-.56,2.74,0,3.3,1.26,2.36,5.29,7.62,8.71,13.39,8.71s11.03-3.42,13.37-8.7c.56-1.26,2.04-1.83,3.3-1.28,1.26.56,1.83,2.03,1.28,3.3-3.14,7.09-10.18,11.68-17.94,11.68Z"/>
    </g>
  </g>
</svg>