<?xml version="1.0" encoding="UTF-8"?>
<svg id="Layer_2" data-name="Layer 2" xmlns="http://www.w3.org/2000/svg" viewBox="0 0 29.52 14.58">
  <defs>
    <style>
      .cls-1 {
        fill: #fff;
        fill-rule: evenodd;
      }
    </style>
  </defs>
  <g id="Layer_1-2" data-name="Layer 1">
    <path class="cls-1" d="M.34,2.21l3.72,4.19c.45.51.45,1.26,0,1.77L.34,12.37c-.36.4-.44.94-.22,1.43.22.49.68.79,1.21.79h1.58c.39,0,.73-.15,1-.45l4.92-5.55c.26-.3.6-.45,1-.45h9.42c.46,0,.85.21,1.1.59.26.38.3.82.13,1.24l-.17.41c-.21.53-.08,1.11.35,1.49.43.38,1.02.45,1.52.18l6.64-3.59c.44-.24.7-.67.7-1.17s-.26-.93-.7-1.17l-6.64-3.59c-.5-.27-1.09-.2-1.52.18-.43.38-.56.96-.35,1.49l.17.41c.17.42.12.87-.13,1.24-.25.38-.65.59-1.1.59h-9.42c-.39,0-.73-.15-1-.45L3.92.45c-.26-.3-.6-.45-1-.45h-1.58C.8,0,.34.3.12.79c-.22.49-.14,1.03.22,1.43Z"/>
  </g>
</svg>