<?xml version="1.0" encoding="UTF-8"?>
<svg id="Layer_2" data-name="Layer 2" xmlns="http://www.w3.org/2000/svg" viewBox="0 0 23.24 26.18">
  <defs>
    <style>
      .cls-1 {
        fill: #fff;
        fill-rule: evenodd;
      }
    </style>
  </defs>
  <g id="Layer_1-2" data-name="Layer 1">
    <path class="cls-1" d="M10,0c1.68,0,3.19.68,4.29,1.78,1.1,1.1,1.78,2.62,1.78,4.29s-.68,3.19-1.78,4.29c-.5.5-1.08.91-1.73,1.21,1.17.31,2.26.83,3.22,1.52-.13.06-.25.13-.35.23-.24.21-.4.51-.44.84l-.03.26s0,.05-.02.07c0,.02-.02.03-.03.05,0,.01-.02.03-.04.04-.02.01-.03.02-.05.03l-.09.04h0s-.04.01-.07.02c-.02,0-.04,0-.06,0h0s-.03,0-.05-.02c-.02-.01-.05-.02-.07-.04,0,0-.1-.08-.12-.09-.26-.24-.59-.37-.92-.36-.34,0-.68.13-.94.39l-.92.92s-.05.06-.08.09c-.19.22-.29.5-.31.78-.02.31.08.64.29.9,0,0,.15.18.16.2.01.02.03.04.04.07,0,.02.02.04.02.06,0,.01,0,.03,0,.06,0,.02,0,.04-.01.06l-.03.08s-.02.05-.04.07c0,.01-.02.02-.04.04-.02.01-.03.02-.05.03-.02,0-.05.01-.08.02l-.22.02c-.34.03-.64.18-.86.41-.23.24-.37.56-.37.92h0v1.3c0,.34.13.65.34.89.21.24.51.4.84.44l.25.03s.06,0,.08.02h0s.03.02.05.03c.01.01.03.02.04.04.01.02.02.03.03.05l.04.09h0s.01.04.02.06c0,.02,0,.04,0,.06h0s0,.04-.02.06c-.01.02-.02.05-.04.07,0,0-.08.1-.09.12-.24.26-.37.59-.36.92,0,.34.13.68.39.94l.28.28H2.2c-.61,0-1.16-.25-1.56-.65-.4-.4-.65-.95-.65-1.56v-1.2c0-2.75,1.12-5.25,2.94-7.06,1.23-1.23,2.77-2.14,4.5-2.6-.64-.3-1.23-.71-1.73-1.21-1.1-1.1-1.78-2.62-1.78-4.29s.68-3.19,1.78-4.29c1.1-1.1,2.62-1.78,4.29-1.78h0ZM18.9,15.24h-.03c-.16-.08-.29-.18-.39-.3-.1-.13-.16-.28-.18-.45l-.02-.22c-.02-.35-.31-.63-.67-.63h-1.3c-.33,0-.62.25-.66.59l-.03.25c-.02.17-.08.33-.18.45-.09.13-.23.23-.39.29l-.05.02c-.16.07-.33.09-.48.07-.16-.02-.31-.09-.45-.2l-.15-.12c-.26-.25-.68-.25-.94,0l-.92.92h0c-.24.24-.26.62-.05.89l.16.2c.11.14.18.29.2.45.02.15,0,.3-.06.45l-.04.08c-.07.16-.17.29-.29.39-.13.1-.28.16-.45.18l-.22.02c-.35.02-.63.31-.63.67v1.3c0,.34.25.62.59.66l.25.03c.17.02.33.08.45.18.13.09.23.23.29.39l.02.05c.07.16.09.33.07.48-.02.16-.09.31-.2.45l-.12.15c-.25.26-.25.68,0,.94l.92.92h0c.24.23.62.26.88.05l.2-.16c.14-.11.29-.18.45-.2.15-.02.31,0,.47.06l.07.03c.16.07.29.17.39.29.09.13.16.28.18.45l.02.22c.02.35.31.63.67.63h1.3c.33,0,.62-.25.66-.59l.03-.26c.02-.17.08-.33.18-.45.09-.12.23-.23.39-.29l.05-.02c.16-.07.33-.09.48-.07.16.02.31.09.45.2l.15.12c.26.25.68.25.94,0l.92-.92h0c.24-.24.26-.62.05-.88l-.16-.2c-.11-.14-.18-.29-.2-.45-.02-.15,0-.31.06-.47l.03-.07c.07-.16.17-.29.29-.39.13-.1.28-.16.45-.18l.22-.02c.35-.02.63-.31.63-.67v-1.3c0-.33-.25-.62-.59-.66l-.25-.03c-.17-.02-.33-.08-.45-.18-.12-.09-.23-.23-.29-.39,0,0-.02-.05-.02-.05-.07-.16-.09-.33-.07-.48.02-.16.09-.31.2-.45l.12-.15c.25-.26.25-.68,0-.94l-.92-.92h0c-.24-.23-.62-.26-.88-.05l-.2.16c-.14.11-.29.18-.45.2-.15.02-.3,0-.45-.06l-.06-.02h0ZM18.53,18.34c-.4-.4-.95-.64-1.56-.64s-1.16.25-1.56.65h0c-.4.4-.64.95-.64,1.56s.25,1.16.65,1.56c.4.4.95.65,1.56.65s1.12-.23,1.51-.59l.05-.05c.4-.4.65-.95.65-1.56s-.25-1.16-.64-1.56h0Z"/>
  </g>
</svg>