<?xml version="1.0" encoding="UTF-8"?>
<svg id="Layer_2" data-name="Layer 2" xmlns="http://www.w3.org/2000/svg" viewBox="0 0 28.98 32.29">
  <defs>
    <style>
      .cls-1 {
        fill: #fff;
        fill-rule: evenodd;
      }
    </style>
  </defs>
  <g id="Layer_1-2" data-name="Layer 1">
    <path class="cls-1" d="M12.01,4.13l-.69-.76c-.44-.48-.4-1.23.08-1.67l1.53-1.39c.48-.44,1.23-.4,1.67.08l.69.76,13.39,14.74c.43.47.41,1.19-.04,1.63l-14.5,14.42c-.46.46-1.21.46-1.67,0l-1.45-1.46c-.46-.46-.46-1.21,0-1.67l11.5-11.44c.45-.45.47-1.17.04-1.63L12.01,4.13h0ZM1.35,4.13l10.54,11.6c.43.47.41,1.19-.04,1.63L.35,28.81c-.46.46-.46,1.21,0,1.67l1.45,1.46c.46.46,1.21.46,1.67,0l14.5-14.42c.45-.45.47-1.17.04-1.63L4.63,1.15l-.69-.76c-.44-.48-1.19-.52-1.67-.08L.73,1.7c-.48.44-.52,1.19-.08,1.67l.69.76Z"/>
  </g>
</svg>