<?xml version="1.0" encoding="UTF-8"?>
<svg id="Layer_2" data-name="Layer 2" xmlns="http://www.w3.org/2000/svg" viewBox="0 0 28.66 29.45">
  <defs>
    <style>
      .cls-1 {
        fill: #fff;
        fill-rule: evenodd;
      }
    </style>
  </defs>
  <g id="Layer_1-2" data-name="Layer 1">
    <path class="cls-1" d="M9.08,25.98c0-.37.3-.67.67-.67s.67.3.67.67c0,.59.24,1.13.63,1.52.39.39.92.63,1.52.63s1.13-.24,1.52-.63c.39-.39.63-.92.63-1.52s-.24-1.13-.63-1.52h0c-.39-.39-.92-.63-1.52-.63h-.06s-8.55,0-8.55,0c-.37,0-.66-.3-.66-.66s.3-.66.66-.66h8.6c.96,0,1.83.39,2.46,1.02h0c.63.63,1.02,1.5,1.02,2.46s-.39,1.83-1.02,2.46c-.63.63-1.5,1.02-2.46,1.02s-1.83-.39-2.46-1.02c-.63-.63-1.02-1.5-1.02-2.46h0ZM6.95,4.68h0c.22,0,.44.01.68.04l.16.02c.69-1.35,1.73-2.49,2.99-3.32,1.36-.89,2.99-1.41,4.74-1.41,2.16,0,4.13.79,5.65,2.09,1.43,1.22,2.45,2.9,2.85,4.81,1.25.28,2.36.95,3.17,1.89.91,1.04,1.46,2.4,1.46,3.88,0,1.63-.67,3.11-1.74,4.18-1.08,1.07-2.56,1.73-4.19,1.73h0c-.95,0-6.6,0-10.96,0-2.45,0-4.5,0-5.1-.01-1.83-.02-3.48-.84-4.68-2.09-1.23-1.28-1.99-3.02-1.99-4.84,0-1.91.78-3.65,2.04-4.91,1.26-1.26,3-2.04,4.91-2.04h0ZM18.93,23.68c.14.76.55,1.43,1.12,1.91.57.47,1.29.75,2.08.75.9,0,1.71-.36,2.3-.95h0c.59-.59.95-1.4.95-2.3s-.36-1.71-.95-2.3l-.04-.04c-.59-.57-1.38-.92-2.26-.92h-.06s-12.06,0-12.06,0c-.37,0-.66.3-.66.66s.3.66.66.66h12.06s.06,0,.06,0c.52,0,.98.2,1.33.53l.03.03c.35.35.56.83.56,1.36s-.21,1.01-.56,1.36h0c-.35.35-.83.56-1.36.56-.47,0-.9-.17-1.23-.44-.34-.28-.58-.68-.66-1.13-.07-.36-.41-.6-.77-.53-.36.07-.6.41-.53.77Z"/>
  </g>
</svg>