<?xml version="1.0" encoding="UTF-8"?>
<svg id="Layer_2" data-name="Layer 2" xmlns="http://www.w3.org/2000/svg" viewBox="0 0 24.08 19.72">
  <defs>
    <style>
      .cls-1 {
        fill: #fff;
        fill-rule: evenodd;
      }
    </style>
  </defs>
  <g id="Layer_1-2" data-name="Layer 1">
    <path class="cls-1" d="M8.03,0c1.36,0,2.59.55,3.49,1.44.89.89,1.44,2.12,1.44,3.49s-.55,2.59-1.44,3.48c-.32.32-.68.6-1.08.82,1.25.39,2.36,1.08,3.27,1.99,1.45,1.45,2.36,3.46,2.36,5.67v.95c0,.51-.21.98-.55,1.32h0c-.34.34-.81.55-1.32.55H1.88c-.52,0-.98-.21-1.32-.55h0c-.34-.34-.55-.81-.55-1.33v-.95c0-2.21.9-4.22,2.36-5.67.9-.9,2.02-1.59,3.27-1.99-.4-.22-.76-.5-1.08-.82-.89-.89-1.44-2.12-1.44-3.48s.55-2.59,1.44-3.49c.89-.89,2.12-1.44,3.49-1.44h0ZM20.29,9.32c.17-.12.33-.26.48-.4h0c.67-.67,1.09-1.6,1.09-2.63s-.42-1.95-1.09-2.63h0c-.67-.67-1.6-1.09-2.63-1.09s-1.95.42-2.63,1.09h0c-.67.67-1.09,1.6-1.09,2.63s.42,1.95,1.09,2.62h0c.15.15.31.28.48.41-.48.19-.92.43-1.33.73-.02.01-.04.03-.06.05-.27.25-.29.67-.04.94.66.73,1.2,1.57,1.57,2.5.35.88.56,1.83.6,2.82v.04c0,.37.3.67.67.67h5.14c.42,0,.81-.17,1.08-.45.28-.28.45-.66.45-1.08v-.68c0-1.63-.67-3.11-1.74-4.19-.58-.58-1.27-1.04-2.04-1.34Z"/>
  </g>
</svg>