<?xml version="1.0" encoding="UTF-8"?>
<svg id="Layer_2" data-name="Layer 2" xmlns="http://www.w3.org/2000/svg" viewBox="0 0 27.19 26.12">
  <defs>
    <style>
      .cls-1 {
        fill: #fff;
        fill-rule: evenodd;
      }
    </style>
  </defs>
  <g id="Layer_1-2" data-name="Layer 1">
    <path class="cls-1" d="M.4,16.5L16.59,7.15c-.29.21-.41.61-.21.96l.73,1.26c.12.22.36.36.6.36.14,0,.27-.03.38-.09-.32.19-.46.62-.25.99l.73,1.26c.12.22.36.36.6.36.14,0,.27-.03.38-.09-.32.19-.46.62-.25.99l.73,1.26c.12.22.36.36.6.36.14,0,.27-.03.38-.09-.32.19-.46.62-.25.99l.38.66c.12.22.36.36.6.36.12,0,.23-.02.33-.07L5.85,26.02c-.35.2-.79.08-.99-.27l-1.27-2.19c-.2-.35-.08-.79.27-.99h0c.36-.21.6-.54.7-.91.1-.37.06-.78-.15-1.13h0c-.21-.36-.54-.6-.91-.7-.37-.1-.78-.06-1.13.15-.35.2-.79.08-.99-.27L.1,17.52c-.2-.35-.08-.79.26-.99l.04-.02H.4ZM2.27,13.38c-.2.23-.25.57-.08.85.2.35.65.47.99.27l13.79-7.96c.18-.09.33-.26.38-.47.1-.39-.14-.79-.53-.89-.11-.03-.21-.06-.3-.11-.1-.05-.19-.11-.27-.18-.32-.26-.5-.63-.54-1.01-.04-.38.07-.78.33-1.1.25-.31.21-.77-.11-1.02l-1.97-1.6c-.31-.25-.77-.21-1.02.11L2.27,13.38h0ZM10.54,4.37l1.13.92c.05.04.1.1.14.15.46.71-.42,1.49-1.06.98l-1.13-.92c-.05-.04-.1-.1-.14-.15-.46-.71.42-1.49,1.06-.98h0ZM13.02,8.26c.65.52,1.53-.27,1.06-.98-.04-.06-.09-.11-.14-.15l-1.13-.92c-.65-.52-1.53.27-1.06.98.04.06.09.11.14.15l1.13.92h0ZM16.71,7.09c.1-.04.21-.07.33-.07.25,0,.48.15.6.36l.73,1.26c.21.37.07.79-.25.99.11-.06.24-.09.38-.09.25,0,.48.15.6.36l.73,1.26c.21.37.07.79-.25.99.11-.06.24-.09.38-.09.25,0,.48.15.6.36l.73,1.26c.21.37.07.79-.25.99.11-.06.24-.09.38-.09.25,0,.48.15.6.36l.38.66c.2.35.08.75-.21.96l4.64-2.68c.35-.2.47-.64.27-.99l-1.27-2.2c-.2-.35-.65-.47-.99-.26-.36.21-.76.25-1.13.15-.36-.1-.68-.32-.89-.66l-.02-.04c-.21-.36-.25-.76-.15-1.13.1-.37.34-.7.69-.91h0c.35-.2.47-.65.26-1l-1.27-2.19h0c-.2-.35-.64-.46-.99-.26l-4.64,2.68Z"/>
  </g>
</svg>