<?xml version="1.0" encoding="UTF-8"?>
<svg id="Layer_2" data-name="Layer 2" xmlns="http://www.w3.org/2000/svg" viewBox="0 0 25.38 17.47">
  <defs>
    <style>
      .cls-1 {
        fill: #fff;
        fill-rule: evenodd;
      }
    </style>
  </defs>
  <g id="Layer_1-2" data-name="Layer 1">
    <path class="cls-1" d="M6.71,0h11.96c1.85,0,3.52.75,4.74,1.97,1.22,1.22,1.97,2.89,1.97,4.74s-.75,3.52-1.97,4.74c-1.22,1.22-2.89,1.97-4.74,1.97h-10.25c-.61.97-1.41,1.81-2.33,2.48-1.01.74-2.18,1.28-3.45,1.55-.23.05-.48-.03-.64-.22-.24-.28-.21-.7.07-.94.6-.51,1.11-1.11,1.53-1.77.3-.48.55-.99.75-1.54-1.17-.45-2.19-1.21-2.95-2.19-.88-1.13-1.4-2.55-1.4-4.09,0-1.85.75-3.52,1.97-4.74C3.19.75,4.86,0,6.71,0h0ZM8.22,5.5c-.68,0-1.24.55-1.24,1.24s.55,1.24,1.24,1.24,1.24-.55,1.24-1.24-.55-1.24-1.24-1.24h0ZM17.17,5.5c-.68,0-1.24.55-1.24,1.24s.55,1.24,1.24,1.24,1.24-.55,1.24-1.24-.55-1.24-1.24-1.24h0ZM12.69,5.5c-.68,0-1.24.55-1.24,1.24s.55,1.24,1.24,1.24,1.24-.55,1.24-1.24-.55-1.24-1.24-1.24Z"/>
  </g>
</svg>