<?xml version="1.0" encoding="UTF-8"?>
<svg id="Layer_2" data-name="Layer 2" xmlns="http://www.w3.org/2000/svg" viewBox="0 0 57.58 77.64">
  <g id="Layer_1-2" data-name="Layer 1">
    <g>
      <path d="M55.08,77.64c-1.38,0-2.5-1.12-2.5-2.5,0-3.46-2.81-6.28-6.26-6.28s-6.26,2.82-6.26,6.28c0,1.38-1.12,2.5-2.5,2.5s-2.5-1.12-2.5-2.5c0-3.46-2.82-6.28-6.28-6.28-1.67,0-3.24.66-4.43,1.85-1.18,1.18-1.83,2.75-1.83,4.43,0,1.38-1.12,2.5-2.5,2.5s-2.5-1.12-2.5-2.5c0-3.46-2.81-6.28-6.26-6.28s-6.26,2.82-6.26,6.28c0,1.38-1.12,2.5-2.5,2.5s-2.5-1.12-2.5-2.5V14.3C0,6.42,6.42,0,14.3,0h28.98c7.89,0,14.3,6.42,14.3,14.3v60.83c0,1.38-1.12,2.5-2.5,2.5ZM28.78,63.86c3.54,0,6.71,1.64,8.78,4.2,2.07-2.56,5.23-4.2,8.76-4.2,2.31,0,4.47.7,6.26,1.91V14.3c0-5.13-4.17-9.3-9.3-9.3H14.3c-5.13,0-9.3,4.17-9.3,9.3v51.46c1.79-1.21,3.95-1.91,6.26-1.91,3.53,0,6.69,1.64,8.76,4.2.25-.31.51-.6.8-.88,2.14-2.14,4.97-3.31,7.97-3.31Z"/>
      <path d="M40.16,30.79H15.78c-1.38,0-2.5-1.12-2.5-2.5s1.12-2.5,2.5-2.5h24.38c1.38,0,2.5,1.12,2.5,2.5s-1.12,2.5-2.5,2.5Z"/>
      <path d="M34.68,43.67H15.78c-1.38,0-2.5-1.12-2.5-2.5s1.12-2.5,2.5-2.5h18.9c1.38,0,2.5,1.12,2.5,2.5s-1.12,2.5-2.5,2.5Z"/>
    </g>
  </g>
</svg>