<?xml version="1.0" encoding="UTF-8"?>
<svg id="Layer_2" data-name="Layer 2" xmlns="http://www.w3.org/2000/svg" viewBox="0 0 28.61 27.58">
  <defs>
    <style>
      .cls-1 {
        fill: #fff;
        fill-rule: evenodd;
      }
    </style>
  </defs>
  <g id="Layer_1-2" data-name="Layer 1">
    <path class="cls-1" d="M5.17,19.37c.7-1.47,1.76-2.75,2.22-3.2.86-1.83,1.63-3.24,2.73-4.25,1.16-1.08,2.63-1.65,4.82-1.71,2.82-.07,4.4,2.13,6.03,4.5h-2.58c-.41,0-.75.34-.75.75v3.29h-3.29c-.41,0-.75.34-.75.75v4.04c0,.42.34.75.75.75h3.29v2.18c-1.55-.15-2.93-.07-4.24,0-1.46.08-2.81.16-4.24-.07-1.36-.22-2.37-.61-3.09-1.11-1.13-.78-1.59-1.8-1.63-2.9-.04-1.01.28-2.07.74-3.03h0ZM18.39,15.46v4.04h-4.04v4.04h4.04v4.04h4.04v-4.04h4.04v-4.04h-4.04v-4.04h-4.04ZM23.18,17.63c.05.06.11.11.16.17.13.13.25.25.36.36.17.15.31.31.43.47.03.04.06.08.09.12h-1.05v-1.12h0ZM22.54,7.31c-.35.46-.67,1.02-.95,1.65-.27.62-.49,1.29-.61,1.98-.25,1.36-.16,2.74.55,3.78h.89c.42,0,.75.34.75.75v.49c2.01.38,3.59-.64,4.52-2.17.39-.64.67-1.38.81-2.13.14-.76.14-1.54-.01-2.26-.35-1.64-1.46-3-3.53-3.3-.8-.28-1.69.25-2.43,1.23h0ZM15.67,1.56c-.29.5-.54,1.11-.72,1.76-.18.64-.31,1.34-.35,2.04-.11,1.99.51,3.92,2.49,4.63.06.02.13.04.19.04h0c2.13.19,3.61-1.05,4.36-2.73.31-.69.48-1.46.52-2.22.04-.77-.06-1.54-.31-2.24C21.28,1.26,20,.06,17.92.03c-.83-.17-1.64.47-2.25,1.53h0ZM3.15,6.31C1.13,6.85.19,8.33.02,10c-.07.74.02,1.51.24,2.25.22.73.58,1.43,1.05,2.03,1.13,1.44,2.87,2.29,4.89,1.59h0c.06-.02.12-.05.17-.09,1.74-1.17,1.87-3.19,1.29-5.1-.2-.66-.5-1.31-.83-1.89-.34-.59-.73-1.11-1.13-1.53-.85-.89-1.79-1.31-2.55-.94h0ZM10.37.03c-2.08.03-3.37,1.23-3.93,2.81-.25.7-.35,1.47-.31,2.24.04.76.22,1.53.52,2.22.74,1.67,2.23,2.92,4.36,2.73h0c.06,0,.13-.02.19-.04,1.97-.71,2.59-2.64,2.49-4.63-.04-.7-.16-1.4-.35-2.04-.19-.65-.44-1.26-.72-1.76C12.01.49,11.2-.14,10.37.03h0ZM23.47,24.56c-.09.12-.19.23-.29.34v-.61h.49c-.07.09-.13.18-.2.27Z"/>
  </g>
</svg>