<?xml version="1.0" encoding="UTF-8"?>
<svg id="Layer_2" data-name="Layer 2" xmlns="http://www.w3.org/2000/svg" viewBox="0 0 31.75 16.46">
  <defs>
    <style>
      .cls-1 {
        fill: #fff;
        fill-rule: evenodd;
      }
    </style>
  </defs>
  <g id="Layer_1-2" data-name="Layer 1">
    <path class="cls-1" d="M14.48,1.56c.73.45,1.43.87,2.1,1.26l-2.62,2.55c-.29.28-.29.74-.01,1.03.28.29.74.29,1.03.01l2.92-2.85c.62.35,1.21.67,1.79.97l-2.41,2.78c-.26.3-.23.76.07,1.03.3.26.76.23,1.03-.07l2.64-3.05c.59.3,1.15.57,1.68.82l-2.33,2.96c-.25.32-.19.77.12,1.02s.77.19,1.02-.12l2.55-3.23c1.19.54,2.23.97,3.12,1.35,2.99,1.26,4.47,1.88,4.57,3.43.01.15-.03.3-.1.42-2.55,5.04-6.09,4.77-11.12,4.37-1.42-.11-2.97-.23-4.65-.23-.21,0-.4-.09-.54-.24-.73-.67-1.91-1.01-3.15-1.01s-2.56.36-3.42,1.08c-.14.11-.3.17-.46.17H3.94c-.56,0-1.07-.23-1.44-.6h0c-.37-.37-.6-.88-.6-1.44v-.28l-1.29-1.3c-.19-.19-.34-.41-.44-.66-.1-.25-.15-.51-.15-.78V2.59c0-.27.05-.53.15-.78.1-.25.25-.47.44-.66l.58-.58c.14-.14.31-.26.49-.35C2.02.04,2.42-.02,2.78,0c.41.03.79.19,1.05.44.09.09.16.19.22.31h0l.25.5h.04c.12.05.29.06.42.06h5.05c.07,0,.12,0,.16-.02.05-.01.1-.04.15-.07l1.3-.82c.27-.17.55-.27.85-.31.3-.04.6,0,.9.1.3.1.56.26.77.47.21.21.38.46.49.76l.05.12h0ZM5.03,11.94h4.34c.4,0,.73-.33.73-.73s-.33-.73-.73-.73h-4.34c-.4,0-.73.33-.73.73s.33.73.73.73Z"/>
  </g>
</svg>