<?xml version="1.0" encoding="UTF-8"?>
<svg id="Layer_2" data-name="Layer 2" xmlns="http://www.w3.org/2000/svg" viewBox="0 0 75.39 75.39">
  <g id="Layer_1-2" data-name="Layer 1">
    <g>
      <path d="M37.69,75.39C16.91,75.39,0,58.48,0,37.69S16.91,0,37.69,0s37.69,16.91,37.69,37.69-16.91,37.7-37.69,37.7ZM37.69,5C19.67,5,5,19.67,5,37.69s14.67,32.7,32.69,32.7,32.69-14.67,32.69-32.7S55.72,5,37.69,5Z"/>
      <path d="M37.69,75.39c-10.16,0-15.65-19.42-15.65-37.7S27.53,0,37.69,0s15.65,19.42,15.65,37.69-5.48,37.7-15.65,37.7ZM37.69,5c-4.45,0-10.65,12.44-10.65,32.69s6.2,32.7,10.65,32.7,10.65-12.44,10.65-32.7S42.14,5,37.69,5Z"/>
      <path d="M37.69,53.34C19.42,53.34,0,47.86,0,37.69s19.42-15.65,37.69-15.65,37.69,5.48,37.69,15.65-19.42,15.65-37.69,15.65ZM37.69,27.05c-20.26,0-32.69,6.2-32.69,10.65s12.44,10.65,32.69,10.65,32.69-6.2,32.69-10.65-12.44-10.65-32.69-10.65Z"/>
    </g>
  </g>
</svg>