<?xml version="1.0" encoding="UTF-8"?>
<svg id="Layer_2" data-name="Layer 2" xmlns="http://www.w3.org/2000/svg" viewBox="0 0 22.74 25.71">
  <defs>
    <style>
      .cls-1 {
        fill: #fff;
        fill-rule: evenodd;
      }
    </style>
  </defs>
  <g id="Layer_1-2" data-name="Layer 1">
    <path class="cls-1" d="M10,0c1.68,0,3.19.68,4.29,1.78,1.1,1.1,1.78,2.62,1.78,4.29s-.68,3.19-1.78,4.29c-.5.5-1.08.91-1.73,1.21,1.48.4,2.83,1.13,3.96,2.1-.05.05-.1.09-.15.14-.15-.15-.31-.28-.46-.4-.43-.31-.86-.47-1.28-.54-.49-.07-.95,0-1.35.16-.44.18-.82.48-1.07.84-.19.27-.32.57-.38.89v.09h-1.15c-.37,0-.7.15-.94.39h0c-.24.24-.39.58-.39.94v2.53c0,.37.15.7.39.94.08.08.17.15.27.21-.02.06-.03.12-.03.18v4.58H2.2c-.61,0-1.16-.25-1.56-.65-.4-.4-.65-.95-.65-1.56v-1.2c0-2.75,1.12-5.25,2.94-7.06,1.23-1.23,2.77-2.14,4.49-2.6-.64-.3-1.23-.71-1.73-1.21-1.1-1.1-1.78-2.62-1.78-4.29s.68-3.19,1.78-4.29c1.1-1.1,2.62-1.78,4.29-1.78h0ZM22.1,20.05v5c0,.37-.3.67-.67.67h-2.96c.11-.2.18-.42.18-.67v-5h3.45ZM17.51,15.54s.05.02.08.03c.71-.02,1.11-.16,1.3-.35h0c.06-.06.06-.13.02-.19-.09-.12-.27-.21-.5-.17-.28.04-.59.24-.9.69h0ZM17.99,16.87c.24-.02.47-.06.67-.11v2.62h3.42c.37,0,.67-.3.67-.67v-2.53c0-.37-.3-.67-.67-.67h-1.84c.13-.43.03-.89-.24-1.26-.35-.5-1.02-.83-1.78-.72-.61.09-1.27.48-1.84,1.33-.57-.85-1.24-1.23-1.84-1.33-.76-.11-1.43.22-1.78.72-.27.37-.37.82-.24,1.26h-1.84c-.37,0-.67.3-.67.67v2.53c0,.37.3.67.67.67h3.42v-2.62c.2.05.42.09.67.11v8.18c0,.37.3.67.67.67h1.9c.37,0,.67-.3.67-.67v-8.18h0ZM15.16,15.57s.05-.02.08-.03c-.31-.45-.63-.65-.9-.69-.22-.03-.41.05-.5.17-.04.06-.04.13.02.19h0c.19.19.6.33,1.3.35h0ZM14.27,25.71c-.11-.2-.18-.42-.18-.67v-5h-3.45s0,5,0,5c0,.37.3.67.67.67h2.96Z"/>
  </g>
</svg>