<?xml version="1.0" encoding="UTF-8"?>
<svg id="Layer_2" data-name="Layer 2" xmlns="http://www.w3.org/2000/svg" viewBox="0 0 71.56 71.56">
  <g id="Layer_1-2" data-name="Layer 1">
    <g>
      <path d="M8.97,71.56c-1.38,0-2.5-1.12-2.5-2.5v-13.7c0-1.38,1.12-2.5,2.5-2.5h13.7c1.38,0,2.5,1.12,2.5,2.5s-1.12,2.5-2.5,2.5h-11.2v11.2c0,1.38-1.12,2.5-2.5,2.5Z"/>
      <path d="M35.88,71.56h-.14c-11.34-.05-22.1-5.54-28.79-14.72-.81-1.12-.57-2.68.55-3.49,1.11-.81,2.68-.57,3.49.55,5.77,7.92,15.05,12.65,24.84,12.67,16.95-.03,30.73-13.82,30.73-30.78S52.75,5,35.78,5,5,18.81,5,35.78c0,1.38-1.12,2.5-2.5,2.5s-2.5-1.12-2.5-2.5C0,16.05,16.05,0,35.78,0s35.78,16.05,35.78,35.78-15.97,35.7-35.64,35.78h-.04Z"/>
    </g>
  </g>
</svg>