<?xml version="1.0" encoding="UTF-8"?>
<svg id="Layer_2" data-name="Layer 2" xmlns="http://www.w3.org/2000/svg" viewBox="0 0 72.63 68.38">
  <g id="Layer_1-2" data-name="Layer 1">
    <g>
      <g>
        <path d="M36.31,68.38c-1.21,0-2.36-.47-3.22-1.33l-7.65-7.65c-.98-.98-.98-2.56,0-3.54.98-.98,2.56-.98,3.54,0l7.33,7.33,7.33-7.33c.98-.98,2.56-.98,3.54,0,.98.98.98,2.56,0,3.54l-7.65,7.65c-.86.86-2,1.33-3.22,1.33Z"/>
        <path d="M36.31,68.38c-1.38,0-2.5-1.12-2.5-2.5v-32.77c0-1.38,1.12-2.5,2.5-2.5s2.5,1.12,2.5,2.5v32.77c0,1.38-1.12,2.5-2.5,2.5Z"/>
      </g>
      <path d="M57.39,66.21c-1.38,0-2.5-1.12-2.5-2.5s1.12-2.5,2.5-2.5c5.64,0,10.24-4.59,10.24-10.24v-28.31H5v28.31c0,5.64,4.59,10.24,10.24,10.24,1.38,0,2.5,1.12,2.5,2.5s-1.12,2.5-2.5,2.5c-8.4,0-15.24-6.83-15.24-15.24v-30.81c0-1.38,1.12-2.5,2.5-2.5h67.63c1.38,0,2.5,1.12,2.5,2.5v30.81c0,8.4-6.83,15.24-15.24,15.24Z"/>
      <path d="M70.13,22.67H2.5c-1.38,0-2.5-1.12-2.5-2.5v-4.93C0,6.83,6.83,0,15.24,0h6.21c3.03,0,5.96.89,8.47,2.57,2.9,1.95,6.65,2.98,10.82,2.98h23.33c4.72,0,8.56,3.84,8.56,8.56v6.06c0,1.38-1.12,2.5-2.5,2.5ZM5,17.67h62.63v-3.56c0-1.96-1.6-3.56-3.56-3.56h-23.33c-5.17,0-9.88-1.32-13.61-3.82-1.68-1.13-3.65-1.72-5.68-1.72h-6.21c-5.64,0-10.24,4.59-10.24,10.24v2.43Z"/>
    </g>
  </g>
</svg>