<?xml version="1.0" encoding="UTF-8"?>
<svg id="Layer_2" data-name="Layer 2" xmlns="http://www.w3.org/2000/svg" viewBox="0 0 19.78 29.77">
  <defs>
    <style>
      .cls-1 {
        fill: #fff;
        fill-rule: evenodd;
      }
    </style>
  </defs>
  <g id="Layer_1-2" data-name="Layer 1">
    <path class="cls-1" d="M.04,14.87L4.93.49c.08-.28.34-.49.64-.49h9.23c.1,0,.19.02.29.07.33.16.47.55.31.89l-3.61,7.52h7.32c.13,0,.27.04.39.12.3.21.37.63.16.93L5.47,29.46c-.15.24-.44.36-.72.29-.36-.09-.57-.45-.48-.81l3.32-13.19H.67c-.07,0-.14-.01-.21-.04-.35-.12-.53-.5-.42-.84Z"/>
  </g>
</svg>