<?xml version="1.0" encoding="UTF-8"?>
<svg id="Layer_2" data-name="Layer 2" xmlns="http://www.w3.org/2000/svg" viewBox="0 0 19.68 26.89">
  <defs>
    <style>
      .cls-1 {
        fill: #fff;
        fill-rule: evenodd;
      }
    </style>
  </defs>
  <g id="Layer_1-2" data-name="Layer 1">
    <path class="cls-1" d="M7.52,0h4.64c2.07,0,3.95.85,5.31,2.21l.04.04c1.34,1.36,2.17,3.22,2.17,5.27v9.17c0,.82-.34,1.57-.88,2.11-.54.54-1.29.88-2.11.88H2.99c-.82,0-1.57-.34-2.11-.88h0c-.54-.54-.88-1.29-.88-2.11V7.52c0-2.07.85-3.95,2.21-5.31C3.57.85,5.45,0,7.52,0h0ZM2.45,20.65c.16-.37.58-.54.95-.39.37.16.54.58.39.95l-.02.05h11.95l-.02-.05c-.16-.37.02-.8.39-.95.37-.16.8.02.95.39l2.2,5.23c.16.37-.02.8-.39.95-.37.16-.8-.02-.95-.39l-.42-.99H2.01l-.42.99c-.16.37-.58.54-.95.39-.37-.16-.54-.58-.39-.95l2.2-5.23h0ZM16.33,22.73H3.15l-.53,1.26h14.24l-.53-1.26h0ZM14.65,11.67c-.59,0-1.12.24-1.5.62h0c-.38.39-.62.92-.62,1.5s.24,1.12.62,1.5h0c.39.39.92.63,1.5.63s1.12-.24,1.5-.62c.38-.39.62-.92.62-1.5s-.24-1.12-.62-1.5c-.38-.38-.92-.62-1.5-.62h0ZM5.03,11.67c-.59,0-1.12.24-1.5.62-.38.39-.62.92-.62,1.5s.24,1.12.62,1.5c.38.38.92.62,1.5.62s1.12-.24,1.5-.62h0c.38-.39.62-.92.62-1.5s-.24-1.12-.62-1.5h0c-.38-.39-.92-.63-1.5-.63h0ZM6.16,3.15c-1.06,0-2.03.43-2.74,1.12l-.04.04c-.71.71-1.16,1.7-1.16,2.78v1.53c0,.4.33.73.73.73h5.84c.4,0,.73-.33.73-.73V3.88c0-.4-.33-.73-.73-.73h-2.63ZM10.59,3.15c-.4,0-.73.33-.73.73v4.74c0,.4.33.73.73.73h5.84c.4,0,.73-.33.73-.73v-1.53c0-1.08-.44-2.07-1.16-2.78-.8-.74-1.67-1.16-2.78-1.16h-2.63Z"/>
  </g>
</svg>