<?xml version="1.0" encoding="UTF-8"?>
<svg id="Layer_2" data-name="Layer 2" xmlns="http://www.w3.org/2000/svg" viewBox="0 0 79.32 70.7">
  <g id="Layer_1-2" data-name="Layer 1">
    <g>
      <path d="M26.2,70.7c-1.75,0-3.55-.73-5.25-3-4.89-6.52-5.42-17.77-1.22-26.17,3.86-7.71,10.94-11.96,19.94-11.96s16.08,4.25,19.93,11.96c4.2,8.4,3.68,19.65-1.22,26.17-3.38,4.5-7.11,2.94-10.11,1.69-2.27-.95-4.84-2.02-8.61-2.02s-6.34,1.08-8.61,2.02c-1.48.62-3.15,1.31-4.86,1.31ZM39.66,34.56c-8.98,0-13.37,5-15.46,9.2-3.36,6.71-3.03,15.91.74,20.94.98,1.31,1.05,1.38,4.18.08,2.43-1.02,5.77-2.41,10.54-2.41s8.1,1.39,10.54,2.41c3.14,1.31,3.2,1.24,4.18-.08,3.77-5.03,4.1-14.23.74-20.94-2.1-4.2-6.48-9.2-15.46-9.2Z"/>
      <path d="M29.67,22.26c-3.95,0-7.93-3.64-9.52-9-1.05-3.55-.82-7.2.64-9.76.97-1.72,2.4-2.86,4.14-3.3,4.4-1.13,9.28,2.73,11.08,8.8h0c1.05,3.55.82,7.2-.64,9.76-.97,1.72-2.4,2.86-4.14,3.31-.52.13-1.04.2-1.56.2ZM26.48,5c-.11,0-.21.01-.31.04-.4.1-.74.41-1.03.92-.62,1.09-.99,3.2-.19,5.88,1.12,3.79,3.74,5.73,5.04,5.38.4-.1.75-.41,1.04-.93.61-1.09.99-3.2.19-5.88h0c-1.04-3.51-3.36-5.42-4.73-5.42Z"/>
      <path d="M13.45,35.37c-.66,0-1.33-.07-2.02-.21-2.52-.52-5.06-1.96-7.15-4.05C-.39,26.43-1.38,20.11,2.02,16.71c3.41-3.4,9.72-2.41,14.39,2.25h0c4.67,4.67,5.65,10.99,2.25,14.39-1.32,1.32-3.15,2.02-5.21,2.02ZM7.22,19.69c-.71,0-1.29.19-1.66.56-1.19,1.19-.48,4.58,2.25,7.32,1.39,1.39,3.08,2.37,4.63,2.69.56.12,1.94.3,2.68-.44,1.2-1.19.49-4.58-2.25-7.32-1.89-1.89-4.08-2.81-5.66-2.81Z"/>
      <path d="M65.86,35.37c-2,0-3.83-.66-5.2-2.02-3.4-3.4-2.41-9.72,2.25-14.39,4.67-4.67,10.98-5.66,14.39-2.25,3.4,3.4,2.41,9.72-2.25,14.39-2.8,2.8-6.19,4.27-9.19,4.27ZM72.11,19.69c-1.57,0-3.77.92-5.66,2.81-2.74,2.74-3.45,6.12-2.25,7.32,1.2,1.2,4.58.48,7.32-2.25,2.74-2.74,3.45-6.12,2.25-7.32-.37-.37-.95-.56-1.66-.56Z"/>
      <path d="M49.65,22.26c-.52,0-1.04-.06-1.56-.2-1.74-.45-3.17-1.59-4.14-3.3-1.45-2.56-1.69-6.21-.64-9.76h0C45.12,2.93,49.99-.93,54.39.2c1.74.45,3.17,1.59,4.14,3.3,1.45,2.56,1.69,6.21.64,9.76-1.59,5.36-5.57,9-9.52,9ZM48.11,10.42h0c-.79,2.68-.42,4.79.2,5.88.29.51.64.82,1.04.93,1.3.33,3.92-1.6,5.04-5.39.79-2.68.42-4.79-.2-5.88-.29-.51-.64-.82-1.03-.92-1.3-.34-3.92,1.59-5.04,5.38Z"/>
    </g>
  </g>
</svg>