<?xml version="1.0" encoding="UTF-8"?>
<svg id="Layer_2" data-name="Layer 2" xmlns="http://www.w3.org/2000/svg" viewBox="0 0 29.91 26.9">
  <defs>
    <style>
      .cls-1 {
        fill: #fff;
        fill-rule: evenodd;
      }
    </style>
  </defs>
  <g id="Layer_1-2" data-name="Layer 1">
    <path class="cls-1" d="M14.29,21.25c0-.37.3-.67.67-.67s.67.3.67.67v1.34l1.16-.67c.32-.18.72-.08.91.24.18.32.08.72-.24.91l-1.16.67,1.16.67c.32.18.43.59.24.91-.18.32-.59.43-.91.24l-1.16-.67v1.34c0,.37-.3.67-.67.67s-.67-.3-.67-.67v-1.34l-1.16.67c-.32.18-.72.08-.91-.24-.18-.32-.08-.72.24-.91l1.16-.67-1.16-.67c-.32-.18-.43-.59-.24-.91.18-.32.59-.43.91-.24l1.16.67v-1.34h0ZM7.24,4.89h0c.22,0,.46.01.71.04l.18.02c.72-1.42,1.8-2.62,3.13-3.48,1.42-.93,3.12-1.47,4.94-1.47,2.25,0,4.31.82,5.89,2.18,1.49,1.28,2.56,3.04,2.97,5.03,1.31.29,2.47.99,3.32,1.97.95,1.08,1.52,2.5,1.52,4.04,0,1.7-.69,3.23-1.81,4.35-1.12,1.11-2.67,1.8-4.36,1.8h0c-1,0-6.9,0-11.46,0-2.56,0-4.71,0-5.33-.01-1.9-.03-3.62-.87-4.87-2.18-1.28-1.33-2.07-3.15-2.07-5.04,0-1.99.81-3.8,2.13-5.11s3.12-2.13,5.11-2.13Z"/>
  </g>
</svg>