<?xml version="1.0" encoding="UTF-8"?>
<svg id="Layer_2" data-name="Layer 2" xmlns="http://www.w3.org/2000/svg" viewBox="0 0 37.23 21.04">
  <defs>
    <style>
      .cls-1 {
        fill: #fff;
        fill-rule: evenodd;
      }
    </style>
  </defs>
  <g id="Layer_1-2" data-name="Layer 1">
    <path class="cls-1" d="M5.63,16.95h14.51c.73,0,1.33.6,1.33,1.33v1.43c0,.51.26.95.72,1.18.45.24.96.2,1.38-.09l13.1-9.18c.37-.26.57-.64.57-1.09s-.2-.83-.57-1.09L23.56.25c-.42-.29-.93-.33-1.38-.09-.45.24-.72.67-.72,1.18v1.43c0,.73-.6,1.33-1.33,1.33H5.63v.05c-3.16.4-5.63,3.11-5.63,6.38h0c0,3.26,2.47,5.98,5.63,6.38v.05h0ZM6.43,7.32h0c1.76,0,3.2,1.44,3.2,3.2h0c0,1.76-1.44,3.2-3.2,3.2h0c-1.76,0-3.2-1.44-3.2-3.2h0c0-1.76,1.44-3.2,3.2-3.2Z"/>
  </g>
</svg>