<?xml version="1.0" encoding="UTF-8"?>
<svg id="Layer_2" data-name="Layer 2" xmlns="http://www.w3.org/2000/svg" viewBox="0 0 32.39 32.17">
  <defs>
    <style>
      .cls-1 {
        fill: #fff;
        fill-rule: evenodd;
      }
    </style>
  </defs>
  <g id="Layer_1-2" data-name="Layer 1">
    <path class="cls-1" d="M15.47,4.07l-.59-.65c-.49-.54-.45-1.39.09-1.88l1.31-1.19c.54-.49,1.39-.45,1.88.09l.59.65,13.29,14.63c.48.53.46,1.34-.05,1.84l-14.3,14.22c-.52.52-1.37.52-1.88,0l-1.24-1.25c-.52-.52-.51-1.37,0-1.88l11.29-11.23c.5-.5.53-1.31.05-1.84L15.47,4.07h0ZM.39,15.14l3.34-3.34c.52-.52,1.36-.52,1.88,0l3.34,3.34c.52.52.52,1.36,0,1.88l-3.34,3.34c-.52.52-1.36.52-1.88,0l-3.34-3.34c-.52-.52-.52-1.36,0-1.88Z"/>
  </g>
</svg>