<?xml version="1.0" encoding="UTF-8"?>
<svg id="Layer_2" data-name="Layer 2" xmlns="http://www.w3.org/2000/svg" viewBox="0 0 25.46 25.46">
  <defs>
    <style>
      .cls-1 {
        fill: #fff;
        fill-rule: evenodd;
      }
    </style>
  </defs>
  <g id="Layer_1-2" data-name="Layer 1">
    <path class="cls-1" d="M13.38.51l1.7,6.57,5.85-3.45c.32-.19.72-.08.91.24.13.22.12.48,0,.68l-3.44,5.84,6.58,1.7c.36.09.57.45.48.81-.06.25-.26.42-.49.48l-6.57,1.7,3.45,5.85c.19.32.08.72-.24.91-.22.13-.48.12-.68,0l-5.84-3.44-1.7,6.58c-.09.35-.45.57-.81.48-.25-.06-.42-.26-.48-.49l-1.7-6.57-5.85,3.45c-.32.19-.72.08-.91-.24-.13-.22-.12-.48,0-.68l3.44-5.84L.5,13.37c-.35-.09-.57-.45-.48-.81.06-.25.26-.42.49-.48l6.57-1.7-3.45-5.85c-.19-.32-.08-.72.24-.91.22-.13.48-.12.68,0l5.84,3.44L12.09.5c.09-.36.45-.57.81-.48.25.06.42.26.48.49Z"/>
  </g>
</svg>