<?xml version="1.0" encoding="UTF-8"?>
<svg id="Layer_2" data-name="Layer 2" xmlns="http://www.w3.org/2000/svg" viewBox="0 0 32.98 21.72">
  <defs>
    <style>
      .cls-1 {
        fill: #fff;
        fill-rule: evenodd;
      }
    </style>
  </defs>
  <g id="Layer_1-2" data-name="Layer 1">
    <path class="cls-1" d="M14.32,0h8.87c.39,0,.73.15,1,.45l8.45,9.53c.45.51.45,1.26,0,1.77l-8.45,9.53c-.26.3-.6.45-1,.45h-8.87c-.54,0-.99-.3-1.21-.79-.22-.49-.14-1.03.22-1.43l6.88-7.76c.45-.51.45-1.26,0-1.77l-6.88-7.76c-.36-.4-.44-.94-.22-1.43.22-.49.68-.79,1.21-.79h0ZM1.33,0C.6,0,0,.6,0,1.33v19.06c0,.73.6,1.33,1.33,1.33h6.88c.39,0,.73-.15,1-.45l8.45-9.53c.45-.51.45-1.26,0-1.77L9.2.45c-.26-.3-.6-.45-1-.45H1.33Z"/>
  </g>
</svg>