<?xml version="1.0" encoding="UTF-8"?>
<svg id="Layer_2" data-name="Layer 2" xmlns="http://www.w3.org/2000/svg" viewBox="0 0 29.02 24.46">
  <defs>
    <style>
      .cls-1 {
        fill: #fff;
        fill-rule: evenodd;
      }
    </style>
  </defs>
  <g id="Layer_1-2" data-name="Layer 1">
    <path class="cls-1" d="M26.22,9.43c1.55,0,2.8,1.26,2.8,2.8s-1.26,2.8-2.8,2.8c-.1,0-.2,0-.29-.02-.49-.05-.93.15-1.22.54l-3.27,4.52c-.22.31-.3.66-.23,1.03.03.17.05.35.05.54,0,1.55-1.26,2.8-2.8,2.8s-2.8-1.26-2.8-2.8c0-1.06.59-1.99,1.47-2.47.44-.24.7-.67.7-1.17v-3.82c0-.73-.6-1.33-1.33-1.33H6.44c-.5,0-.93.26-1.17.7-.47.87-1.4,1.47-2.47,1.47-1.55,0-2.8-1.26-2.8-2.8s1.26-2.8,2.8-2.8c1.06,0,1.99.59,2.47,1.47.24.44.67.7,1.17.7h10.05c.73,0,1.33-.6,1.33-1.33v-3.82c0-.5-.26-.93-.7-1.17-.87-.47-1.47-1.4-1.47-2.47,0-1.55,1.26-2.8,2.8-2.8s2.8,1.26,2.8,2.8c0,.18-.02.36-.05.54-.07.37,0,.72.23,1.03l3.27,4.52c.29.4.73.59,1.22.54.1,0,.19-.02.29-.02h0ZM23.81,13.67s-.04-.06-.06-.1c-.24-.44-.67-.7-1.17-.7h-2.15c-.73,0-1.33.6-1.33,1.33v4.72c.17.04.33.09.48.16.58.25,1.24.07,1.61-.44l2.54-3.52c.32-.44.34-1,.06-1.46h0ZM20.46,4.78c-.19.19-.41.36-.65.49-.44.24-.7.67-.7,1.17v3.82c0,.73.6,1.33,1.33,1.33h2.15c.5,0,.93-.26,1.17-.7.02-.03.04-.07.06-.1.28-.47.25-1.02-.06-1.46l-3.29-4.56Z"/>
  </g>
</svg>