<?xml version="1.0" encoding="UTF-8"?>
<svg id="Layer_2" data-name="Layer 2" xmlns="http://www.w3.org/2000/svg" viewBox="0 0 24.58 22.37">
  <defs>
    <style>
      .cls-1 {
        fill: #fff;
        fill-rule: evenodd;
      }
    </style>
  </defs>
  <g id="Layer_1-2" data-name="Layer 1">
    <path class="cls-1" d="M10.55,1.01c.65.53,1.16,1.28,1.72,2.31C13.74,1.08,15.72.09,17.66.02c1-.03,1.99.18,2.89.6.9.42,1.71,1.04,2.37,1.82,1.58,1.89,2.26,4.7,1.02,7.8-1.22,3.05-3.61,4.33-5.74,5.46-2.34,1.25-4.31,2.29-3.28,5.8.05.17.03.35-.06.51-.18.32-.58.44-.9.26-4.42-2.46-7.87-4.66-10.23-7.04C1.28,12.79,0,10.15,0,6.86c0-1.89.77-3.61,2.01-4.85S4.97,0,6.86,0c1.71,0,2.79.28,3.69,1.01Z"/>
  </g>
</svg>