<?xml version="1.0" encoding="UTF-8"?>
<svg id="Layer_2" data-name="Layer 2" xmlns="http://www.w3.org/2000/svg" viewBox="0 0 25.46 26.45">
  <defs>
    <style>
      .cls-1 {
        fill: #fff;
        fill-rule: evenodd;
      }
    </style>
  </defs>
  <g id="Layer_1-2" data-name="Layer 1">
    <path class="cls-1" d="M6.37,17.03c2.71,2,5.41,3.98,5.7,8.76,0,.37.3.67.67.67s.65-.28.67-.64c.56-5,3.27-7,5.93-8.96,3.09-2.28,6.1-4.5,6.14-10.71v-.03h0c0-1.69-.75-3.23-1.97-4.33C22.3.69,20.66.01,18.84,0h-.04c-1.42,0-2.9.86-4.11,2.07-.79.79-1.48,1.74-1.96,2.7-.48-.96-1.17-1.91-1.96-2.7-1.21-1.21-2.69-2.07-4.11-2.07h0s-.04,0-.04,0c-1.81.01-3.46.69-4.65,1.78C.75,2.89,0,4.42,0,6.11v.07c.05,6.19,3.22,8.53,6.37,10.85h0ZM18.28,3.87c-.33.15-.73,0-.88-.33-.15-.33,0-.73.33-.88.83-.38,1.77-.33,2.62.04.44.19.85.48,1.21.83.36.36.66.79.89,1.28.51,1.12.6,2.57-.11,4.17-.15.34-.54.49-.88.34-.34-.15-.49-.54-.34-.88.53-1.21.48-2.27.11-3.08-.16-.34-.37-.64-.61-.88-.24-.24-.52-.43-.81-.56-.51-.23-1.07-.26-1.54-.05Z"/>
  </g>
</svg>