<?xml version="1.0" encoding="UTF-8"?>
<svg id="Layer_2" data-name="Layer 2" xmlns="http://www.w3.org/2000/svg" viewBox="0 0 22.06 28.44">
  <defs>
    <style>
      .cls-1 {
        fill: #fff;
        fill-rule: evenodd;
      }
    </style>
  </defs>
  <g id="Layer_1-2" data-name="Layer 1">
    <path class="cls-1" d="M14.9,15.02l-7.61,13.19c-.13.22-.41.3-.64.17L.23,24.67c-.22-.13-.3-.41-.17-.64l7.61-13.19L1.21,7.11c-.09-.05-.16-.14-.2-.24-.09-.24.04-.51.28-.6L18.32.03s.06-.02.09-.02c.25-.04.49.12.54.38l3.11,17.86c.03.11.01.23-.05.34-.13.22-.41.3-.64.17l-6.47-3.73Z"/>
  </g>
</svg>