<?xml version="1.0" encoding="UTF-8"?>
<svg id="Layer_2" data-name="Layer 2" xmlns="http://www.w3.org/2000/svg" viewBox="0 0 25.46 25.46">
  <defs>
    <style>
      .cls-1 {
        fill: #fff;
        fill-rule: evenodd;
      }
    </style>
  </defs>
  <g id="Layer_1-2" data-name="Layer 1">
    <path class="cls-1" d="M15.05,2.9c.53.13,1.05.29,1.55.5.5.21.99.46,1.45.74l1.81-1.45c.27-.21.65-.19.88.05h0s1.98,1.98,1.98,1.98c.26.26.26.68,0,.94l-1.41,1.76c.29.46.54.95.74,1.45.21.49.37,1.01.5,1.55l2.31.26c.34.04.59.33.59.66v2.8c0,.36-.28.65-.63.67l-2.27.25c-.13.53-.29,1.05-.5,1.55-.21.5-.46.99-.74,1.45l1.45,1.81c.21.27.19.65-.05.88h0s-1.98,1.98-1.98,1.98c-.26.26-.68.26-.94,0l-1.76-1.41c-.46.29-.95.54-1.45.74-.49.2-1.01.37-1.55.5l-.26,2.31c-.04.34-.33.59-.66.59h-2.8c-.36,0-.65-.28-.67-.63l-.25-2.27c-.53-.13-1.05-.29-1.55-.5-.5-.21-.99-.46-1.45-.74l-1.81,1.45c-.27.21-.65.19-.88-.05h0s-1.98-1.98-1.98-1.98c-.26-.26-.26-.68,0-.94l1.41-1.76c-.29-.46-.54-.95-.74-1.45-.21-.49-.37-1.01-.5-1.55l-2.31-.26C.25,14.76,0,14.47,0,14.13v-2.8c0-.36.28-.65.63-.67l2.27-.25c.13-.53.29-1.05.5-1.55.21-.5.46-.99.74-1.45l-1.45-1.81c-.21-.27-.19-.65.05-.88h0s1.98-1.98,1.98-1.98c.26-.26.68-.26.94,0l1.76,1.41c.46-.29.95-.54,1.45-.74.5-.2,1.01-.37,1.55-.5l.26-2.31C10.71.25,11,0,11.33,0h2.8c.36,0,.65.28.67.63l.25,2.27h0ZM16.24,9.23c-.9-.9-2.14-1.45-3.51-1.45s-2.61.55-3.51,1.45-1.45,2.14-1.45,3.51.56,2.61,1.45,3.51c.9.9,2.14,1.45,3.51,1.45s2.61-.56,3.51-1.45,1.45-2.14,1.45-3.51-.56-2.61-1.45-3.51Z"/>
  </g>
</svg>