<?xml version="1.0" encoding="UTF-8"?>
<svg id="Layer_2" data-name="Layer 2" xmlns="http://www.w3.org/2000/svg" viewBox="0 0 24.49 24.49">
  <defs>
    <style>
      .cls-1 {
        fill: #fff;
        fill-rule: evenodd;
      }
    </style>
  </defs>
  <g id="Layer_1-2" data-name="Layer 1">
    <path class="cls-1" d="M12.24,0c3.38,0,6.44,1.37,8.66,3.59,2.22,2.22,3.59,5.28,3.59,8.66s-1.37,6.44-3.59,8.66c-2.22,2.22-5.28,3.59-8.66,3.59s-6.44-1.37-8.66-3.59C1.37,18.69,0,15.63,0,12.24S1.37,5.8,3.59,3.59,8.86,0,12.24,0h0ZM12.24,5.6c-.96,0-1.84.39-2.47,1.02-.63.63-1.02,1.51-1.02,2.47s.39,1.84,1.02,2.47c.63.63,1.51,1.02,2.47,1.02s1.84-.39,2.47-1.02h0c.63-.64,1.02-1.51,1.02-2.47s-.39-1.84-1.02-2.47c-.63-.63-1.51-1.02-2.47-1.02h0ZM1.34,12.58c.31-.48.7-.89,1.16-1.23.26-.22.65-.2.89.04.25.25.55.45.88.59.32.13.67.2,1.04.2.24,0,.48-.03.69-.09.21-.06.42-.14.6-.24.23-.15.55-.15.78.04.29.23.33.65.1.93-.4.5-.72,1.06-.93,1.66-.21.58-.33,1.19-.34,1.81v.05c0,.37-.3.67-.66.67h-3.12c.53,1.1,1.25,2.09,2.1,2.94,1.97,1.97,4.7,3.2,7.72,3.2s5.74-1.22,7.72-3.2c.85-.85,1.56-1.85,2.1-2.94h-3.12c-.37,0-.67-.3-.67-.67v-.05c-.01-.63-.13-1.24-.34-1.81-.22-.6-.53-1.16-.93-1.66-.23-.29-.18-.7.1-.93.23-.18.54-.19.78-.04.19.1.39.18.6.24.22.06.45.09.69.09.37,0,.72-.07,1.04-.2.33-.14.63-.34.88-.59.25-.24.63-.26.89-.04.46.34.85.76,1.16,1.23,0-.11,0-.23,0-.34,0-3.01-1.22-5.74-3.2-7.72-1.97-1.97-4.7-3.2-7.72-3.2s-5.74,1.22-7.72,3.2c-1.97,1.97-3.2,4.7-3.2,7.72,0,.11,0,.23,0,.34h0ZM3.57,7.6c-.45.45-.72,1.06-.72,1.74s.28,1.3.72,1.74,1.06.72,1.74.72,1.3-.28,1.74-.72c.45-.45.72-1.06.72-1.74s-.28-1.3-.72-1.74c-.45-.45-1.06-.72-1.74-.72s-1.3.28-1.74.72h0ZM19.18,6.88c-.68,0-1.3.28-1.74.72-.45.45-.72,1.06-.72,1.74s.28,1.3.72,1.74c.45.45,1.06.72,1.74.72s1.3-.28,1.74-.72c.45-.45.72-1.06.72-1.74s-.28-1.3-.72-1.74c-.45-.45-1.06-.72-1.74-.72h0ZM15.7,12c-.26-.22-.65-.2-.89.04-.34.33-.74.6-1.18.79-.42.18-.89.27-1.39.27s-.96-.1-1.39-.27c-.44-.18-.84-.45-1.18-.79-.23-.23-.59-.26-.86-.07-.74.54-1.36,1.25-1.78,2.08-.41.8-.64,1.7-.64,2.64v.67c0,.42.17.8.45,1.07.27.27.65.45,1.07.45h8.65c.42,0,.8-.17,1.07-.45.27-.27.45-.65.45-1.07v-.67c0-.95-.23-1.85-.64-2.64-.41-.81-1.02-1.51-1.74-2.05Z"/>
  </g>
</svg>