<?xml version="1.0" encoding="UTF-8"?>
<svg id="Layer_2" data-name="Layer 2" xmlns="http://www.w3.org/2000/svg" viewBox="0 0 30.26 22.68">
  <defs>
    <style>
      .cls-1 {
        fill: #fff;
        fill-rule: evenodd;
      }
    </style>
  </defs>
  <g id="Layer_1-2" data-name="Layer 1">
    <path class="cls-1" d="M1.45,3.88h7.3v-1.87c0-.55.23-1.06.59-1.42s.87-.59,1.42-.59h8.75c.55,0,1.06.23,1.42.59.36.36.59.87.59,1.42v1.87h7.3c.4,0,.76.16,1.02.42h0c.26.26.42.62.42,1.02v2.14h-9.63v-.78c0-.4-.33-.73-.73-.73h-3.02c-.4,0-.73.33-.73.73v.78h-2.05v-.78c0-.4-.33-.73-.73-.73h-3.02c-.4,0-.73.33-.73.73v.78H0v-2.14c0-.4.16-.76.42-1.02l.06-.05c.26-.23.6-.37.97-.37h0ZM10.36,9.71h3.02v-3.02h-3.02v3.02h0ZM16.88,9.71h3.02v-3.02h-3.02v3.02h0ZM10.2,3.88h9.85v-1.87c0-.15-.06-.29-.16-.39-.1-.1-.24-.16-.39-.16h-8.75c-.15,0-.29.06-.39.16-.1.1-.16.24-.16.39v1.87h0ZM20.63,8.93h9.63v12.31c0,.4-.16.76-.42,1.02l-.06.05c-.26.23-.6.37-.97.37H1.45c-.4,0-.76-.16-1.02-.42h0c-.26-.26-.42-.62-.42-1.02v-12.31h9.63v.78c0,.4.33.73.73.73h3.02c.4,0,.73-.33.73-.73v-.78h2.05v.78c0,.4.33.73.73.73h3.02c.4,0,.73-.33.73-.73v-.78Z"/>
  </g>
</svg>