<?xml version="1.0" encoding="UTF-8"?>
<svg id="Layer_2" data-name="Layer 2" xmlns="http://www.w3.org/2000/svg" viewBox="0 0 25.46 22.66">
  <defs>
    <style>
      .cls-1 {
        fill: #fff;
        fill-rule: evenodd;
      }
    </style>
  </defs>
  <g id="Layer_1-2" data-name="Layer 1">
    <path class="cls-1" d="M13.52.26l11.42,8.29c.24.17.4.42.47.69.07.26.06.54-.03.81-.09.27-.25.5-.46.65-.22.16-.48.26-.77.26h-2.58v7.37h1.38c.37,0,.7.16.93.41.23.24.37.57.37.93v1.65c0,.36-.14.69-.37.93-.24.25-.57.41-.93.41H2.5c-.36,0-.7-.16-.93-.41-.23-.24-.37-.57-.37-.93v-1.65c0-.36.14-.69.37-.93.24-.25.57-.41.93-.41h1.38v-7.37H1.31c-.28,0-.55-.09-.77-.26h0c-.21-.15-.37-.38-.46-.65-.09-.26-.1-.55-.03-.81.07-.27.23-.52.47-.69L11.94.26c.24-.18.51-.26.79-.26s.55.09.79.26h0ZM6.61,10.95v7.4c0,.37.3.67.67.67h2.08c.37,0,.67-.3.67-.67v-7.4c0-.37-.3-.67-.67-.67h-2.08c-.37,0-.67.3-.67.67h0ZM11.02,10.95v7.4c0,.37.3.67.67.67h2.08c.37,0,.67-.3.67-.67v-7.4c0-.37-.3-.67-.67-.67h-2.08c-.37,0-.67.3-.67.67h0ZM15.44,10.95v7.4c0,.37.3.67.67.67h2.08c.37,0,.67-.3.67-.67v-7.4c0-.37-.3-.67-.67-.67h-2.08c-.37,0-.67.3-.67.67h0ZM14.69,7.84v-3.07c0-.24-.19-.43-.43-.43h-3.07c-.24,0-.43.19-.43.43v3.07c0,.24.19.43.43.43h3.07c.24,0,.43-.19.43-.43Z"/>
  </g>
</svg>