<?xml version="1.0" encoding="UTF-8"?>
<svg id="Layer_2" data-name="Layer 2" xmlns="http://www.w3.org/2000/svg" viewBox="0 0 29.57 29.57">
  <defs>
    <style>
      .cls-1 {
        fill: #fff;
        fill-rule: evenodd;
      }
    </style>
  </defs>
  <g id="Layer_1-2" data-name="Layer 1">
    <path class="cls-1" d="M14.78,0c8.17,0,14.79,6.62,14.79,14.79s-6.62,14.79-14.79,14.79S0,22.95,0,14.79,6.62,0,14.78,0h0ZM18.33,11.83c-.41,0-.73.33-.73.73s.33.73.73.73.73-.33.73-.73-.33-.73-.73-.73h0ZM25,14.05c-.41,0-.73.33-.73.73s.33.73.73.73.73-.33.73-.73-.33-.73-.73-.73h0ZM22.04,12.56c0,.41.33.73.73.73s.73-.33.73-.73-.33-.73-.73-.73-.73.33-.73.73h0ZM22.04,14.79c0,.41.33.73.73.73s.73-.33.73-.73-.33-.73-.73-.73-.73.33-.73.73h0ZM22.04,17.01c0,.41.33.73.73.73s.73-.33.73-.73-.33-.73-.73-.73-.73.33-.73.73h0ZM21.29,19.23c0-.41-.33-.73-.73-.73s-.73.33-.73.73.33.73.73.73.73-.33.73-.73h0ZM21.29,17.01c0-.41-.33-.73-.73-.73s-.73.33-.73.73.33.73.73.73.73-.33.73-.73h0ZM21.29,14.79c0-.41-.33-.73-.73-.73s-.73.33-.73.73.33.73.73.73.73-.33.73-.73h0ZM20.55,11.83c-.41,0-.73.33-.73.73s.33.73.73.73.73-.33.73-.73-.33-.73-.73-.73h0ZM19.82,10.34c0,.41.33.73.73.73s.73-.33.73-.73-.33-.73-.73-.73-.73.33-.73.73h0ZM4.57,11.83c-.41,0-.73.33-.73.73s.33.73.73.73.73-.33.73-.73-.33-.73-.73-.73h0ZM6.9,11.83c-.41,0-.73.33-.73.73s.33.73.73.73.73-.33.73-.73-.33-.73-.73-.73h0ZM9.22,11.83c-.41,0-.73.33-.73.73s.33.73.73.73.73-.33.73-.73-.33-.73-.73-.73h0ZM11.55,11.83c-.41,0-.73.33-.73.73s.33.73.73.73.73-.33.73-.73-.33-.73-.73-.73h0ZM4.57,14.05c-.41,0-.73.33-.73.73s.33.73.73.73.73-.33.73-.73-.33-.73-.73-.73h0ZM6.9,14.05c-.41,0-.73.33-.73.73s.33.73.73.73.73-.33.73-.73-.33-.73-.73-.73h0ZM9.22,14.05c-.41,0-.73.33-.73.73s.33.73.73.73.73-.33.73-.73-.33-.73-.73-.73h0ZM11.55,14.05c-.41,0-.73.33-.73.73s.33.73.73.73.73-.33.73-.73-.33-.73-.73-.73h0ZM3.84,17.01c0,.41.33.73.73.73s.73-.33.73-.73-.33-.73-.73-.73-.73.33-.73.73h0ZM6.16,17.01c0,.41.33.73.73.73s.73-.33.73-.73-.33-.73-.73-.73-.73.33-.73.73h0ZM8.49,17.01c0,.41.33.73.73.73s.73-.33.73-.73-.33-.73-.73-.73-.73.33-.73.73h0ZM10.82,17.01c0,.41.33.73.73.73s.73-.33.73-.73-.33-.73-.73-.73-.73.33-.73.73h0ZM13.14,17.01c0,.41.33.73.73.73s.73-.33.73-.73-.33-.73-.73-.73-.73.33-.73.73h0ZM13.88,14.05c-.41,0-.73.33-.73.73s.33.73.73.73.73-.33.73-.73-.33-.73-.73-.73h0ZM13.88,11.83c-.41,0-.73.33-.73.73s.33.73.73.73.73-.33.73-.73-.33-.73-.73-.73h0ZM15.37,17.01c0,.41.33.73.73.73s.73-.33.73-.73-.33-.73-.73-.73-.73.33-.73.73h0ZM16.1,14.05c-.41,0-.73.33-.73.73s.33.73.73.73.73-.33.73-.73-.33-.73-.73-.73h0ZM16.1,11.83c-.41,0-.73.33-.73.73s.33.73.73.73.73-.33.73-.73-.33-.73-.73-.73h0ZM18.33,8.85c.41,0,.73-.33.73-.73s-.33-.73-.73-.73-.73.33-.73.73.33.73.73.73h0ZM18.33,11.07c.41,0,.73-.33.73-.73s-.33-.73-.73-.73-.73.33-.73.73.33.73.73.73h0ZM19.06,21.46c0-.41-.33-.73-.73-.73s-.73.33-.73.73.33.73.73.73.73-.33.73-.73h0ZM18.33,18.5c-.41,0-.73.33-.73.73s.33.73.73.73.73-.33.73-.73-.33-.73-.73-.73h0ZM17.59,17.01c0,.41.33.73.73.73s.73-.33.73-.73-.33-.73-.73-.73-.73.33-.73.73h0ZM14.61,21.46c0-.41-.33-.73-.73-.73s-.73.33-.73.73.33.73.73.73.73-.33.73-.73h0ZM16.1,20.72c-.41,0-.73.33-.73.73s.33.73.73.73.73-.33.73-.73-.33-.73-.73-.73h0ZM16.1,18.5c-.41,0-.73.33-.73.73s.33.73.73.73.73-.33.73-.73-.33-.73-.73-.73h0ZM13.88,8.85c.41,0,.73-.33.73-.73s-.33-.73-.73-.73-.73.33-.73.73.33.73.73.73h0ZM16.1,8.85c.41,0,.73-.33.73-.73s-.33-.73-.73-.73-.73.33-.73.73.33.73.73.73h0ZM16.1,11.07c.41,0,.73-.33.73-.73s-.33-.73-.73-.73-.73.33-.73.73.33.73.73.73h0ZM18.33,14.05c-.41,0-.73.33-.73.73s.33.73.73.73.73-.33.73-.73-.33-.73-.73-.73Z"/>
  </g>
</svg>