<?xml version="1.0" encoding="UTF-8"?>
<svg id="Layer_2" data-name="Layer 2" xmlns="http://www.w3.org/2000/svg" viewBox="0 0 71.92 85.2">
  <g id="Layer_1-2" data-name="Layer 1">
    <g>
      <path d="M45.77,73.49H14.49c-7.99,0-14.49-6.5-14.49-14.49v-24.2c0-2.49,2.03-4.52,4.52-4.52h51.21c2.5,0,4.52,2.03,4.52,4.52v24.2c0,7.99-6.5,14.49-14.49,14.49ZM5,35.29v23.72c0,5.23,4.25,9.49,9.49,9.49h31.29c5.23,0,9.49-4.25,9.49-9.49v-23.72H5Z"/>
      <path d="M62.02,63.43h-10.41c-1.38,0-2.5-1.12-2.5-2.5s1.12-2.5,2.5-2.5h10.41c2.7,0,4.89-2.19,4.89-4.89s-2.19-4.89-4.89-4.89h-4.25c-1.38,0-2.5-1.12-2.5-2.5s1.12-2.5,2.5-2.5h4.25c5.46,0,9.89,4.44,9.89,9.89s-4.44,9.89-9.89,9.89Z"/>
      <g>
        <path d="M30.13,26.13c-.69,0-.96-1.13-1.41-1.59s-1.59-.72-1.59-1.41c0-5.03,1-5.03,1-10.07s-1-5.03-1-10.07c0-.69,1.13-.96,1.59-1.41s.72-1.59,1.41-1.59.96,1.13,1.41,1.59,1.59.72,1.59,1.41c0,5.03-1,5.03-1,10.07s1,5.03,1,10.07c0,.69-1.13.96-1.59,1.41s-.72,1.59-1.41,1.59Z"/>
        <path d="M17.19,24.69c-.69,0-.96-1.13-1.41-1.59s-1.59-.72-1.59-1.41c0-2.47,1-2.47,1-4.93s-1-2.47-1-4.93c0-.69,1.13-.96,1.59-1.41s.72-1.59,1.41-1.59.96,1.13,1.41,1.59,1.59.72,1.59,1.41c0,2.47-1,2.47-1,4.93s1,2.47,1,4.93c0,.69-1.13.96-1.59,1.41s-.72,1.59-1.41,1.59Z"/>
        <path d="M43.07,24.69c-.69,0-.96-1.13-1.41-1.59s-1.59-.72-1.59-1.41c0-2.47,1-2.47,1-4.93s-1-2.47-1-4.93c0-.69,1.13-.96,1.59-1.41s.72-1.59,1.41-1.59.96,1.13,1.41,1.59,1.59.72,1.59,1.41c0,2.47-1,2.47-1,4.93s1,2.47,1,4.93c0,.69-1.13.96-1.59,1.41s-.72,1.59-1.41,1.59Z"/>
      </g>
      <path d="M55.86,85.2H4.4c-1.38,0-2.5-1.12-2.5-2.5s1.12-2.5,2.5-2.5h51.46c1.38,0,2.5,1.12,2.5,2.5s-1.12,2.5-2.5,2.5Z"/>
    </g>
  </g>
</svg>