<?xml version="1.0" encoding="UTF-8"?>
<svg id="Layer_2" data-name="Layer 2" xmlns="http://www.w3.org/2000/svg" viewBox="0 0 17.87 25">
  <defs>
    <style>
      .cls-1 {
        fill: #fff;
        fill-rule: evenodd;
      }
    </style>
  </defs>
  <g id="Layer_1-2" data-name="Layer 1">
    <path class="cls-1" d="M2.75,0h12.36c.76,0,1.44.31,1.94.81h0c.5.5.81,1.19.81,1.94v.87c0,.37-.3.67-.67.67H.67c-.37,0-.67-.3-.67-.67v-.87c0-.76.31-1.45.81-1.94l.04-.04c.49-.48,1.17-.77,1.9-.77h0ZM14.18,18.6c.88,0,1.68.36,2.26.94.58.58.94,1.38.94,2.26s-.36,1.68-.94,2.26c-.58.58-1.38.94-2.26.94s-1.68-.36-2.26-.94-.94-1.38-.94-2.26.36-1.68.94-2.26c.58-.58,1.38-.94,2.26-.94h0ZM17.27,4.96s-.05,0-.07,0H.67s-.05,0-.07,0l1.86,17.25c.01.36.31.64.67.64h7.33c-.09-.33-.15-.69-.15-1.05,0-.52.1-1.02.29-1.48.2-.48.48-.9.84-1.26.35-.35.78-.64,1.26-.84.46-.19.96-.29,1.48-.29s1.02.1,1.48.29c.06.02.12.05.18.08l1.44-13.35Z"/>
  </g>
</svg>