<?xml version="1.0" encoding="UTF-8"?>
<svg id="Layer_2" data-name="Layer 2" xmlns="http://www.w3.org/2000/svg" viewBox="0 0 26.51 21.53">
  <defs>
    <style>
      .cls-1 {
        fill: #fff;
        fill-rule: evenodd;
      }
    </style>
  </defs>
  <g id="Layer_1-2" data-name="Layer 1">
    <path class="cls-1" d="M2.03.21l12.77,7.95c.42.26.92.27,1.35.03.43-.24.68-.67.68-1.16v-1.33c0-.51.27-.95.73-1.19.46-.23.97-.19,1.39.11l7.01,5.07c.36.26.55.64.55,1.08s-.19.82-.55,1.08l-7.01,5.07c-.42.3-.93.34-1.39.11-.46-.23-.73-.67-.73-1.19v-1.33c0-.5-.25-.92-.68-1.16-.43-.24-.93-.23-1.35.03l-12.77,7.95c-.42.26-.92.27-1.35.03-.43-.24-.68-.67-.68-1.16V1.34C0,.84.25.41.68.17c.43-.24.93-.23,1.35.03Z"/>
  </g>
</svg>