<?xml version="1.0" encoding="UTF-8"?>
<svg id="Layer_2" data-name="Layer 2" xmlns="http://www.w3.org/2000/svg" viewBox="0 0 69.15 72.55">
  <g id="Layer_1-2" data-name="Layer 1">
    <g>
      <path d="M49.77,72.55H10.59c-5.84,0-10.59-4.74-10.59-10.57V10.59C0,4.75,4.75,0,10.59,0h19.33c2.39,0,4.66.52,6.75,1.54,1.59.71,3.12,1.77,4.46,3.11l14.58,14.56c1.31,1.31,2.38,2.84,3.16,4.53.58,1.25.03,2.74-1.22,3.32-1.25.58-2.74.03-3.32-1.22-.53-1.14-1.27-2.21-2.15-3.09l-14.58-14.56c-.91-.91-1.94-1.63-3.04-2.12-1.48-.72-3.01-1.07-4.63-1.07H10.59c-3.08,0-5.59,2.51-5.59,5.59v51.38c0,3.07,2.51,5.57,5.59,5.57h39.18c1.38,0,2.5,1.12,2.5,2.5s-1.12,2.5-2.5,2.5Z"/>
      <path d="M56.6,27.29h-21.02c-1.38,0-2.5-1.12-2.5-2.5V3.78c0-.85.43-1.64,1.14-2.1.71-.46,1.61-.53,2.38-.19,1.66.74,3.19,1.8,4.54,3.15l14.58,14.56c1.31,1.31,2.38,2.84,3.16,4.53.36.77.3,1.68-.16,2.4-.46.72-1.25,1.15-2.11,1.15ZM38.08,22.29h13.64l-13.64-13.62v13.62Z"/>
      <path d="M51.26,56.03c1.1,0,2.09.68,2.46,1.71.61,1.69,2.05,2.85,4.92,2.85s4.77-1.34,4.77-4.01c0-2.51-1.39-3.83-5.77-5.37-6.55-2.23-9.28-4.28-9.28-8.8s3.99-7.55,10.01-7.55c4.94,0,7.75,1.45,9.1,3.74,1,1.7-.39,3.84-2.36,3.84h0c-1.1,0-2.04-.71-2.47-1.72-.57-1.34-1.86-2.31-4.35-2.31-2.96,0-4.27,1.46-4.27,3.66s1.49,3.41,6.24,5.04c6.46,2.18,8.88,4.69,8.88,8.96,0,4.86-3.42,8.07-10.73,8.05-5.3,0-8.29-1.64-9.68-4.24-.93-1.74.39-3.86,2.37-3.86h.15ZM56.44,35.6v-1.62c0-1.21.98-2.2,2.2-2.2h0c1.21,0,2.2.98,2.2,2.2v1.62h-4.39ZM56.44,65.13v-1.87h4.39v1.87c0,1.21-.98,2.2-2.2,2.2h0c-1.21,0-2.2-.98-2.2-2.2Z"/>
      <path d="M22.64,20.92h-9.17c-1.38,0-2.5-1.12-2.5-2.5s1.12-2.5,2.5-2.5h9.17c1.38,0,2.5,1.12,2.5,2.5s-1.12,2.5-2.5,2.5Z"/>
      <path d="M22.64,33.11h-9.17c-1.38,0-2.5-1.12-2.5-2.5s1.12-2.5,2.5-2.5h9.17c1.38,0,2.5,1.12,2.5,2.5s-1.12,2.5-2.5,2.5Z"/>
      <path d="M36.34,60.08h-15.82c-5.27,0-9.55-4.29-9.55-9.55s4.29-9.55,9.55-9.55h15.82c1.38,0,2.5,1.12,2.5,2.5s-1.12,2.5-2.5,2.5h-15.82c-2.51,0-4.55,2.04-4.55,4.55s2.04,4.55,4.55,4.55h15.82c1.38,0,2.5,1.12,2.5,2.5s-1.12,2.5-2.5,2.5Z"/>
    </g>
  </g>
</svg>