<?xml version="1.0" encoding="UTF-8"?>
<svg id="Layer_2" data-name="Layer 2" xmlns="http://www.w3.org/2000/svg" viewBox="0 0 30.1 27.24">
  <defs>
    <style>
      .cls-1 {
        fill: #fff;
        fill-rule: evenodd;
      }
    </style>
  </defs>
  <g id="Layer_1-2" data-name="Layer 1">
    <path class="cls-1" d="M30.07,4.77l-3.81,15.23c-.08.33-.38.55-.71.55h-14.38s.31,1.26.31,1.26c1.21.04,2.21.87,2.52,1.99l7.02.02c.31-1.16,1.37-2.01,2.62-2.01,1.5,0,2.71,1.21,2.71,2.71s-1.21,2.71-2.71,2.71c-1.24,0-2.28-.83-2.61-1.96l-7.04-.02c-.32,1.14-1.37,1.98-2.61,1.98-1.5,0-2.71-1.21-2.71-2.71,0-1.02.56-1.91,1.39-2.37l-1.31-5.4-3.01-12.03s-.02-.08-.02-.12l-.77-3.14H.73c-.4,0-.73-.33-.73-.73s.33-.73.73-.73h4.8c.36,0,.66.26.72.6l.79,3.21h22.33c.4,0,.73.33.73.73,0,.08-.01.15-.03.22Z"/>
  </g>
</svg>