<?xml version="1.0" encoding="UTF-8"?>
<svg id="Layer_2" data-name="Layer 2" xmlns="http://www.w3.org/2000/svg" viewBox="0 0 27.87 27.87">
  <defs>
    <style>
      .cls-1 {
        fill: #fff;
        fill-rule: evenodd;
      }
    </style>
  </defs>
  <g id="Layer_1-2" data-name="Layer 1">
    <path class="cls-1" d="M.73,0h22.55c.4,0,.73.33.73.73v8.15c-.66-.46-1.37-.86-2.12-1.17-1.28-.53-2.68-.82-4.15-.82s-2.87.29-4.15.82c-1.33.55-2.53,1.36-3.53,2.36s-1.8,2.19-2.36,3.53c-.53,1.28-.82,2.68-.82,4.15s.29,2.87.82,4.15c.31.75.71,1.46,1.17,2.12H.73c-.4,0-.73-.33-.73-.73V.73c0-.4.33-.73.73-.73h0ZM17.74,7.62c-2.8,0-5.33,1.13-7.16,2.97s-2.97,4.36-2.97,7.16c0,1.58.36,3.09,1.01,4.42l.63-.36.63-.37,3.65-2.11c-.19-.49-.29-1.03-.29-1.58,0-1.24.5-2.36,1.31-3.17.81-.81,1.93-1.31,3.17-1.31.56,0,1.09.1,1.59.29l2.11-3.65.37-.63.36-.63c-1.34-.65-2.84-1.01-4.42-1.01h0ZM16.96,19.64c.24.1.51.15.78.15.57,0,1.08-.23,1.45-.6.19-.19.34-.42.45-.66.1-.24.15-.51.15-.78,0-.57-.23-1.08-.6-1.45-.19-.19-.42-.34-.66-.45-.24-.1-.51-.15-.78-.15s-.54.06-.78.15c-.25.1-.48.26-.67.45h0c-.19.19-.34.42-.45.67-.1.24-.15.5-.15.78,0,.57.23,1.08.6,1.45.19.19.42.34.66.45h0ZM19.04,14.61c-.4-.17-.84-.26-1.3-.26s-.9.09-1.3.26c-.42.17-.79.42-1.1.74-.31.31-.56.69-.74,1.1-.17.4-.26.84-.26,1.3s.09.9.26,1.3c.17.42.42.79.74,1.1.61.61,1.46.99,2.4.99.46,0,.9-.09,1.3-.26.42-.17.79-.42,1.1-.73h0c.31-.31.56-.69.73-1.1.17-.4.26-.84.26-1.3s-.09-.9-.26-1.3c-.17-.42-.42-.79-.74-1.1-.31-.31-.69-.56-1.1-.74h0ZM23.42,9.36l-.37.63-.37.63-2.1,3.65c.11.09.23.19.33.3.11.11.2.22.3.33l4.91-2.84c-.36-.53-.77-1.03-1.22-1.48s-.95-.86-1.48-1.22h0ZM26.85,13.32l-4.91,2.84c.19.49.29,1.03.29,1.59,0,1.24-.5,2.36-1.31,3.17h0c-.81.82-1.93,1.32-3.17,1.32-.56,0-1.09-.1-1.58-.29l-2.84,4.91c1.34.65,2.84,1.01,4.42,1.01,2.8,0,5.33-1.13,7.16-2.97,1.83-1.83,2.97-4.36,2.97-7.16,0-1.59-.36-3.09-1.01-4.42h0ZM12.06,26.13l2.84-4.91c-.11-.09-.22-.19-.33-.3s-.2-.21-.3-.33l-3.65,2.1-.63.37-.63.37c.36.53.77,1.03,1.22,1.48.45.45.95.86,1.48,1.22Z"/>
  </g>
</svg>