<?xml version="1.0" encoding="UTF-8"?>
<svg id="Layer_2" data-name="Layer 2" xmlns="http://www.w3.org/2000/svg" viewBox="0 0 70.84 70.84">
  <g id="Layer_1-2" data-name="Layer 1">
    <g>
      <path d="M2.5,70.84c-.64,0-1.28-.24-1.77-.73-.98-.98-.98-2.56,0-3.54L44.79,22.51c.98-.98,2.56-.98,3.54,0,.98.98.98,2.56,0,3.54L4.27,70.1c-.49.49-1.13.73-1.77.73Z"/>
      <path d="M36.66,62.25c-15.48,0-28.07-12.59-28.07-28.08,0-14.01,10.58-24.75,27.6-28.03L67.86.04c.81-.16,1.65.1,2.24.69.59.59.84,1.43.69,2.24l-6.1,31.67c-3.28,17.03-14.02,27.6-28.03,27.6ZM65.18,5.65l-28.05,5.4c-11.38,2.19-23.55,9.42-23.55,23.12,0,12.72,10.35,23.08,23.07,23.08,13.7,0,20.93-12.16,23.12-23.55l5.4-28.05Z"/>
    </g>
  </g>
</svg>