<?xml version="1.0" encoding="UTF-8"?>
<svg id="Layer_2" data-name="Layer 2" xmlns="http://www.w3.org/2000/svg" viewBox="0 0 29.57 29.57">
  <defs>
    <style>
      .cls-1 {
        fill: #fff;
        fill-rule: evenodd;
      }
    </style>
  </defs>
  <g id="Layer_1-2" data-name="Layer 1">
    <path class="cls-1" d="M14.79,0c8.17,0,14.79,6.62,14.79,14.79s-6.62,14.79-14.79,14.79S0,22.95,0,14.79,6.62,0,14.79,0h0ZM24.12,12.55c-.28,0-.55.05-.79.14l-3.32-4.59c.1-.26.16-.54.16-.83,0-1.23-1-2.23-2.23-2.23s-2.24,1-2.24,2.23c0,1.06.74,1.94,1.72,2.18v4.83H7.63c-.23-.99-1.12-1.72-2.18-1.72-1.23,0-2.23,1-2.23,2.23s1,2.23,2.23,2.23c1.06,0,1.94-.74,2.18-1.72h9.79v4.83c-.99.23-1.72,1.12-1.72,2.18,0,1.23,1,2.24,2.24,2.24s2.23-1,2.23-2.24c0-.29-.06-.58-.16-.83l3.32-4.59c.25.09.51.14.79.14,1.23,0,2.23-1,2.23-2.23s-1-2.23-2.23-2.23h0ZM22.62,16.44c-.33-.3-.57-.7-.68-1.15h-3.49v4.83c.42.1.79.31,1.08.6l3.09-4.28h0ZM19.52,8.85c-.29.29-.66.51-1.08.6v4.83h3.49c.11-.45.35-.85.68-1.15l-3.09-4.28Z"/>
  </g>
</svg>