<?xml version="1.0" encoding="UTF-8"?>
<svg id="Layer_2" data-name="Layer 2" xmlns="http://www.w3.org/2000/svg" viewBox="0 0 26.93 26.93">
  <defs>
    <style>
      .cls-1 {
        fill: #fff;
        fill-rule: evenodd;
      }
    </style>
  </defs>
  <g id="Layer_1-2" data-name="Layer 1">
    <path class="cls-1" d="M3.25,20.71l1.9-1.9s.05.06.07.08l2.34,2.34c.28.28.75.28,1.03,0,.28-.28.28-.75,0-1.03l-2.34-2.34s-.05-.05-.08-.07l1.09-1.09s.05.06.07.08l1.5,1.5c.28.28.75.28,1.03,0,.28-.28.28-.75,0-1.03l-1.5-1.5s-.05-.05-.08-.07l1.09-1.09s.05.06.07.08l2.34,2.34c.28.28.75.28,1.03,0,.28-.28.28-.75,0-1.03l-2.34-2.34s-.05-.05-.08-.07l1.09-1.09s.05.06.07.08l1.5,1.5c.28.28.75.28,1.03,0,.28-.28.28-.75,0-1.03l-1.5-1.5s-.05-.05-.08-.07l1.09-1.09s.05.06.07.08l2.34,2.34c.28.28.75.28,1.03,0,.28-.28.28-.75,0-1.03l-2.34-2.34s-.05-.05-.08-.07l1.09-1.09s.05.06.07.08l1.5,1.5c.28.28.75.28,1.03,0,.28-.28.28-.75,0-1.03l-1.5-1.5s-.05-.05-.08-.07l1.09-1.09s.05.06.07.08l2.34,2.34c.28.28.75.28,1.03,0,.28-.28.28-.75,0-1.03l-2.34-2.34s-.05-.05-.08-.07l1.89-1.89c.28-.28.75-.28,1.03,0l4.98,4.98c.28.28.28.75,0,1.03L9.26,26.72c-.28.28-.75.28-1.03,0l-4.98-4.98c-.28-.28-.28-.75,0-1.03h0ZM17.67,1.25l.36.36L1.61,18.03l-.36-.36c-.28-.28-.75-.28-1.03,0-.28.28-.28.75,0,1.03l1.75,1.75c.28.28.75.28,1.03,0,.28-.28.28-.75,0-1.03l-.36-.36L19.06,2.64l.36.36c.28.28.75.28,1.03,0,.28-.28.28-.75,0-1.03l-.86-.86h-.01s-.01-.03-.01-.03l-.86-.86c-.28-.28-.75-.28-1.03,0-.28.28-.28.75,0,1.03Z"/>
  </g>
</svg>