<?xml version="1.0" encoding="UTF-8"?>
<svg id="Layer_2" data-name="Layer 2" xmlns="http://www.w3.org/2000/svg" viewBox="0 0 22.73 25.67">
  <defs>
    <style>
      .cls-1 {
        fill: #fff;
        fill-rule: evenodd;
      }
    </style>
  </defs>
  <g id="Layer_1-2" data-name="Layer 1">
    <path class="cls-1" d="M10,0c1.68,0,3.19.68,4.29,1.78,1.1,1.1,1.78,2.62,1.78,4.29s-.68,3.19-1.78,4.29c-.5.5-1.08.91-1.73,1.21,1.4.37,2.68,1.04,3.77,1.94-.64.06-1.25.22-1.82.46-.79.33-1.5.81-2.09,1.4-.59.59-1.07,1.3-1.4,2.09-.31.76-.49,1.59-.49,2.46s.17,1.7.49,2.46c.33.79.81,1.5,1.4,2.09.06.06.12.12.18.18H2.2c-.61,0-1.16-.25-1.56-.65-.4-.4-.65-.95-.65-1.56v-1.2c0-2.75,1.12-5.25,2.94-7.06,1.23-1.23,2.77-2.14,4.5-2.6-.64-.3-1.23-.71-1.73-1.21-1.1-1.1-1.78-2.62-1.78-4.29s.68-3.19,1.78-4.29c1.1-1.1,2.62-1.78,4.29-1.78h0ZM16.97,14.14c-1.59,0-3.03.65-4.08,1.69s-1.69,2.48-1.69,4.08.65,3.03,1.69,4.08,2.48,1.69,4.08,1.69h0c-.08-.32-.23-.67-.45-1.07l-.02-.04c-.18-.32-.4-.66-.62-1.01-.45-.72-.93-1.47-1.16-2.07-.13-.35-.21-.7-.2-.98,0-.04,0-.08,0-.11.99.01,1.12-.28,1.39-.93.05-.13.12-.28.23-.45.13-.22.03.24.23.28.5.08,1.06.17,1.55,0,.77-.27,1.19-.94.65-2.53-.07-.19-.1-.36-.11-.49,0-.13,0-.23.04-.28.02-.04.08-.07.15-.1.07-.02.15-.04.25-.05.26,0,.5-.16.6-.42.14-.34-.03-.73-.37-.87h-.01c-.67-.28-1.39-.42-2.16-.42h0ZM22.48,18.21c.17.54.26,1.11.26,1.7,0,1.59-.65,3.03-1.69,4.08-.37.37-.78.69-1.24.94,0,0,0,0-.01,0-.25.14-.54.1-.75-.06-.37-.27-.67-.59-.82-1.01-.16-.46-.12-.97.23-1.59.07-.13.17-.22.28-.29,0-.13,0-.24,0-.33h0c0-.16,0-.29,0-.4v-.02c.11-.87.45-1.02,2.03-.84.23.03.41.02.53-.02.04-.01.06-.02.07-.03,0,0,.01-.03.02-.07.01-.12-.02-.28-.09-.49-.12-.35-.18-.64-.2-.89-.02-.32.03-.57.14-.79.17-.33.57-.46.89-.29.17.08.28.23.33.39h0s0,.01,0,.02Z"/>
  </g>
</svg>