<?xml version="1.0" encoding="UTF-8"?>
<svg id="Layer_2" data-name="Layer 2" xmlns="http://www.w3.org/2000/svg" viewBox="0 0 71.56 71.56">
  <g id="Layer_1-2" data-name="Layer 1">
    <g>
      <path d="M30.11,50.78c-.64,0-1.28-.24-1.77-.73-.98-.98-.98-2.56,0-3.54l10.51-10.51c.06-.06.09-.14.09-.22s-.03-.16-.09-.22l-10.51-10.51c-.98-.98-.98-2.56,0-3.54.98-.98,2.56-.98,3.54,0l10.51,10.51c1,1,1.56,2.34,1.56,3.76s-.55,2.75-1.56,3.76l-10.51,10.51c-.49.49-1.13.73-1.77.73Z"/>
      <path d="M35.78,71.56C16.05,71.56,0,55.51,0,35.78S16.05,0,35.78,0s35.78,16.05,35.78,35.78-16.05,35.78-35.78,35.78ZM35.78,5c-16.97,0-30.78,13.81-30.78,30.78s13.81,30.78,30.78,30.78,30.78-13.81,30.78-30.78S52.75,5,35.78,5Z"/>
    </g>
  </g>
</svg>