<?xml version="1.0" encoding="UTF-8"?>
<svg id="Layer_2" data-name="Layer 2" xmlns="http://www.w3.org/2000/svg" viewBox="0 0 26.03 26.03">
  <defs>
    <style>
      .cls-1 {
        fill: #fff;
        fill-rule: evenodd;
      }
    </style>
  </defs>
  <g id="Layer_1-2" data-name="Layer 1">
    <path class="cls-1" d="M13.01,0c3.59,0,6.85,1.46,9.2,3.81,2.36,2.35,3.81,5.61,3.81,9.2s-1.46,6.85-3.81,9.2-5.61,3.81-9.2,3.81-6.85-1.46-9.2-3.81S0,16.61,0,13.01,1.46,6.17,3.81,3.81,9.42,0,13.01,0h0ZM10.93,10.11l-3.12.49c-.4.06-.67.43-.61.83.02.16.1.3.2.4l2.24,2.23-.5,3.12c-.06.4.21.77.6.83.17.03.33,0,.47-.08l2.78-1.43,2.81,1.44c.36.18.8.04.98-.32.07-.14.09-.3.07-.44l-.5-3.12,2.24-2.23c.28-.28.29-.74,0-1.03-.12-.12-.28-.19-.43-.21l-3.09-.48-1.43-2.82c-.18-.36-.62-.5-.98-.32-.14.07-.25.19-.32.32l-1.43,2.82Z"/>
  </g>
</svg>