<?xml version="1.0" encoding="UTF-8"?>
<svg id="Layer_2" data-name="Layer 2" xmlns="http://www.w3.org/2000/svg" viewBox="0 0 65.36 67.4">
  <g id="Layer_1-2" data-name="Layer 1">
    <g>
      <path d="M32.68,67.4c-2.66,0-5.31-.82-7.58-2.47-1.36-.99-2.96-1.51-4.64-1.51-5.6,0-10.53-3.58-12.27-8.91-.52-1.6-1.51-2.96-2.87-3.95-4.53-3.29-6.42-9.09-4.68-14.42.52-1.6.52-3.28,0-4.88-1.73-5.33.15-11.13,4.68-14.42,1.36-.99,2.35-2.35,2.87-3.95,1.73-5.33,6.66-8.91,12.27-8.91,1.68,0,3.28-.52,4.64-1.51,4.54-3.29,10.63-3.29,15.16,0h0c1.36.99,2.96,1.51,4.64,1.51,5.61,0,10.54,3.58,12.27,8.91.52,1.6,1.51,2.96,2.87,3.95,4.53,3.29,6.42,9.09,4.69,14.42-.52,1.6-.52,3.28,0,4.88,1.73,5.33-.15,11.13-4.69,14.42-1.36.99-2.35,2.35-2.87,3.95-1.73,5.33-6.66,8.91-12.27,8.91-1.68,0-3.28.52-4.64,1.51-2.27,1.65-4.92,2.47-7.58,2.47ZM32.68,5c-1.63,0-3.25.5-4.64,1.51-2.22,1.61-4.84,2.46-7.58,2.46-3.43,0-6.45,2.19-7.51,5.46-.85,2.61-2.47,4.84-4.69,6.45-2.78,2.02-3.93,5.56-2.87,8.83.85,2.61.85,5.36,0,7.97-1.06,3.26.09,6.81,2.87,8.83,2.22,1.61,3.84,3.84,4.69,6.45,1.06,3.26,4.08,5.46,7.51,5.46,2.74,0,5.36.85,7.58,2.46,2.78,2.02,6.51,2.02,9.28,0,2.22-1.61,4.84-2.46,7.58-2.46,3.43,0,6.45-2.19,7.51-5.46.85-2.61,2.47-4.84,4.68-6.45,2.78-2.02,3.93-5.56,2.87-8.83-.85-2.61-.85-5.36,0-7.97,1.06-3.26-.09-6.81-2.87-8.83-2.22-1.61-3.84-3.84-4.68-6.45-1.06-3.26-4.08-5.46-7.51-5.46-2.74,0-5.36-.85-7.58-2.46h0c-1.39-1.01-3.01-1.51-4.64-1.51Z"/>
      <g>
        <path d="M23.8,27.32c-.17,0-.33-.02-.49-.05-.16-.03-.32-.08-.47-.14-.15-.07-.3-.14-.43-.24-.14-.09-.27-.19-.38-.31-.12-.11-.22-.24-.31-.38-.09-.13-.17-.28-.24-.43-.06-.15-.11-.31-.14-.46-.03-.17-.05-.33-.05-.49,0-.17.02-.33.05-.49.03-.16.08-.32.14-.47.07-.15.15-.3.24-.43.09-.14.19-.27.31-.38.11-.12.24-.22.38-.31.13-.09.28-.17.43-.23.15-.06.31-.11.47-.14.32-.07.65-.07.97,0,.16.03.32.08.47.14.15.06.3.14.43.23.14.09.27.19.38.31.12.11.22.24.31.38.09.13.17.28.23.43.07.15.11.31.15.47.03.16.05.32.05.49,0,.16-.02.32-.05.49-.04.15-.08.31-.15.46-.06.15-.14.3-.23.43-.09.14-.19.27-.31.38-.11.12-.24.22-.38.31-.13.1-.28.17-.43.24-.15.06-.31.11-.47.14-.16.03-.32.05-.48.05Z"/>
        <path d="M41.56,45.08c-.16,0-.33-.01-.49-.04-.16-.04-.31-.08-.46-.15-.16-.06-.3-.14-.44-.23-.13-.09-.26-.19-.38-.31-.46-.46-.73-1.11-.73-1.76s.27-1.3.73-1.77c.12-.12.25-.22.38-.31.14-.09.28-.17.44-.23.15-.07.3-.11.46-.15.82-.16,1.68.11,2.26.69.47.47.73,1.11.73,1.77s-.26,1.3-.73,1.76c-.46.47-1.11.73-1.77.73Z"/>
        <path d="M23.79,45.08c-.64,0-1.28-.24-1.77-.73-.98-.98-.98-2.56,0-3.54l17.77-17.77c.98-.98,2.56-.98,3.54,0,.98.98.98,2.56,0,3.54l-17.77,17.77c-.49.49-1.13.73-1.77.73Z"/>
      </g>
    </g>
  </g>
</svg>