<?xml version="1.0" encoding="UTF-8"?>
<svg id="Layer_2" data-name="Layer 2" xmlns="http://www.w3.org/2000/svg" viewBox="0 0 75.31 66.31">
  <g id="Layer_1-2" data-name="Layer 1">
    <g>
      <path d="M67.28,55.62H8.03c-4.42,0-8.03-3.6-8.03-8.02V8.02C0,3.6,3.6,0,8.03,0h59.26c4.42,0,8.02,3.6,8.02,8.02v39.58c0,4.42-3.6,8.02-8.02,8.02ZM8.03,5c-1.67,0-3.03,1.36-3.03,3.02v39.58c0,1.67,1.36,3.02,3.03,3.02h59.26c1.67,0,3.02-1.36,3.02-3.02V8.02c0-1.67-1.36-3.02-3.02-3.02H8.03Z"/>
      <path d="M42.05,37.38c-.64,0-1.28-.24-1.77-.73l-11.37-11.37-4.43,4.43c-.47.47-1.1.73-1.77.73h-7.36c-1.38,0-2.5-1.12-2.5-2.5s1.12-2.5,2.5-2.5h6.33l5.46-5.46c.94-.94,2.6-.94,3.54,0l11.37,11.37,4.84-4.84c.47-.47,1.1-.73,1.77-.73h11.29c1.38,0,2.5,1.12,2.5,2.5s-1.12,2.5-2.5,2.5h-10.25l-5.88,5.88c-.49.49-1.13.73-1.77.73Z"/>
      <path d="M37.65,66.31c-1.38,0-2.5-1.12-2.5-2.5v-10.68c0-1.38,1.12-2.5,2.5-2.5s2.5,1.12,2.5,2.5v10.68c0,1.38-1.12,2.5-2.5,2.5Z"/>
      <path d="M56.69,66.31H18.62c-1.38,0-2.5-1.12-2.5-2.5s1.12-2.5,2.5-2.5h38.07c1.38,0,2.5,1.12,2.5,2.5s-1.12,2.5-2.5,2.5Z"/>
    </g>
  </g>
</svg>