<?xml version="1.0" encoding="UTF-8"?>
<svg id="Layer_2" data-name="Layer 2" xmlns="http://www.w3.org/2000/svg" viewBox="0 0 28.13 24.96">
  <defs>
    <style>
      .cls-1 {
        fill: #fff;
        fill-rule: evenodd;
      }
    </style>
  </defs>
  <g id="Layer_1-2" data-name="Layer 1">
    <path class="cls-1" d="M14.5.16l13.39,11.34c.28.24.32.66.08.94-.13.16-.32.24-.51.24h0s-4.12,0-4.12,0v11.62c0,.37-.3.67-.67.67h-4.81c-.37,0-.67-.3-.67-.67v-6.21c0-.86-.35-1.64-.92-2.21-.57-.57-1.35-.92-2.21-.92s-1.64.35-2.21.92c-.57.57-.92,1.35-.92,2.21v6.21c0,.37-.3.67-.67.67h-4.81c-.37,0-.67-.3-.67-.67v-11.62H.67c-.37,0-.67-.3-.67-.67,0-.22.11-.41.27-.54L13.64.16c.25-.22.62-.21.87,0h0ZM14.06,6.44c-1.62,0-2.93,1.31-2.93,2.93s1.31,2.93,2.93,2.93,2.93-1.31,2.93-2.93-1.31-2.93-2.93-2.93Z"/>
  </g>
</svg>