<?xml version="1.0" encoding="UTF-8"?>
<svg id="Layer_2" data-name="Layer 2" xmlns="http://www.w3.org/2000/svg" viewBox="0 0 22.73 25.67">
  <defs>
    <style>
      .cls-1 {
        fill: #fff;
        fill-rule: evenodd;
      }
    </style>
  </defs>
  <g id="Layer_1-2" data-name="Layer 1">
    <path class="cls-1" d="M16.97,14.14c1.59,0,3.03.65,4.08,1.69,1.04,1.04,1.69,2.48,1.69,4.08s-.65,3.03-1.69,4.08c-1.04,1.04-2.48,1.69-4.08,1.69s-3.03-.65-4.08-1.69c-1.04-1.04-1.69-2.48-1.69-4.08s.65-3.03,1.69-4.08c1.04-1.04,2.48-1.69,4.08-1.69h0ZM10,0c-1.68,0-3.19.68-4.29,1.78s-1.78,2.62-1.78,4.29.68,3.19,1.78,4.29c.5.5,1.08.91,1.73,1.21-1.72.46-3.27,1.37-4.5,2.6-1.81,1.81-2.94,4.31-2.94,7.06v1.2c0,.61.25,1.16.65,1.56s.95.65,1.56.65h10.4c-.06-.06-.12-.12-.18-.18-.59-.59-1.07-1.3-1.4-2.09-.31-.76-.49-1.59-.49-2.46s.17-1.7.49-2.46c.33-.79.81-1.5,1.4-2.09,1.02-1.02,2.39-1.7,3.91-1.85-1.09-.9-2.37-1.57-3.77-1.94.65-.3,1.23-.71,1.73-1.21,1.1-1.1,1.78-2.62,1.78-4.29s-.68-3.19-1.78-4.29c-1.1-1.1-2.62-1.78-4.29-1.78h0ZM14.13,19.93h0,0ZM14.13,19.93h0s0,0,0,0h0ZM14.13,19.94h0s0,0,0,0h0ZM14.13,19.93h0s0,0,0,0h0ZM19.8,19.88h0s0,0,0,0h0ZM19.8,19.88h0,0ZM19.8,19.88h0s0,0,0,0h0ZM19.8,19.88h0s0,0,0,0h0ZM19.81,19.88h0,0ZM14.14,20.6l5.67-.05c.37,0,.66-.3.66-.67,0-.37-.3-.66-.67-.66l-5.67.05c-.37,0-.66.3-.66.67,0,.37.3.66.67.66Z"/>
  </g>
</svg>