<?xml version="1.0" encoding="UTF-8"?>
<svg id="Layer_2" data-name="Layer 2" xmlns="http://www.w3.org/2000/svg" viewBox="0 0 24.49 24.49">
  <defs>
    <style>
      .cls-1 {
        fill: #fff;
        fill-rule: evenodd;
      }
    </style>
  </defs>
  <g id="Layer_1-2" data-name="Layer 1">
    <path class="cls-1" d="M9.76,3.86c.97,0,1.84.39,2.47,1.02.63.63,1.02,1.51,1.02,2.47s-.39,1.84-1.02,2.47c-.63.63-1.51,1.02-2.47,1.02s-1.84-.39-2.47-1.02c-.63-.63-1.02-1.51-1.02-2.47s.39-1.84,1.02-2.47,1.51-1.02,2.47-1.02h0ZM12.24,0c-3.38,0-6.44,1.37-8.66,3.59C1.37,5.8,0,8.86,0,12.24s1.37,6.44,3.59,8.66c2.22,2.22,5.28,3.59,8.66,3.59s6.44-1.37,8.66-3.59c2.22-2.22,3.59-5.28,3.59-8.66s-1.37-6.44-3.59-8.66C18.69,1.37,15.63,0,12.24,0h0ZM19.96,4.53c-1.97-1.97-4.7-3.2-7.72-3.2s-5.74,1.22-7.72,3.2c-1.97,1.97-3.2,4.7-3.2,7.72s1.22,5.74,3.2,7.72c1.97,1.97,4.7,3.2,7.72,3.2s5.74-1.22,7.72-3.2c1.97-1.97,3.2-4.7,3.2-7.72s-1.22-5.74-3.2-7.72h0ZM16.78,6.58c.64,0,1.22.26,1.64.68.42.42.68,1,.68,1.64s-.26,1.22-.68,1.64c-.42.42-1,.68-1.64.68s-1.22-.26-1.64-.68c-.42-.42-.68-1-.68-1.64s.26-1.22.68-1.64,1-.68,1.64-.68h0ZM14.58,12.19c.59-.36,1.28-.57,2.02-.57h.38c1.06,0,2.03.44,2.73,1.14.7.7,1.14,1.67,1.14,2.73,0,.1-.06.19-.15.23l-3.79,1.96s-.07.03-.1.03c.04-.14.07-.28.07-.43,0-1.81-.72-3.54-2-4.82-.09-.09-.19-.19-.29-.27h0ZM3.65,17.28c0-1.6.66-3.06,1.71-4.12,1.06-1.06,2.51-1.71,4.12-1.71h.57c1.6,0,3.06.66,4.12,1.71,1.06,1.06,1.71,2.51,1.71,4.12,0,.16-.09.29-.23.35l-5.71,2.96c-.11.06-.24.05-.35,0l-5.74-2.97c-.13-.07-.2-.2-.2-.34h0Z"/>
  </g>
</svg>