<?xml version="1.0" encoding="UTF-8"?>
<svg id="Layer_2" data-name="Layer 2" xmlns="http://www.w3.org/2000/svg" viewBox="0 0 24.4 23.4">
  <defs>
    <style>
      .cls-1 {
        fill: #fff;
        fill-rule: evenodd;
      }
    </style>
  </defs>
  <g id="Layer_1-2" data-name="Layer 1">
    <path class="cls-1" d="M13.98,1.1l2.58,5.1c.05.1.12.18.2.24.08.06.18.1.29.12l5.65.88c.38.06.72.22.99.45l.04.04c.26.23.45.53.56.87.12.36.13.74.05,1.09-.08.35-.27.68-.54.95l-4.05,4.03c-.08.08-.14.17-.17.27-.03.1-.04.2-.02.32l.91,5.65c.06.38.02.75-.12,1.08-.14.34-.37.63-.68.85-.31.22-.66.35-1.02.38-.36.03-.72-.05-1.06-.22l-5.09-2.61c-.1-.05-.2-.08-.31-.08s-.21.03-.31.08l-5.09,2.61c-.34.18-.71.25-1.06.22-.36-.03-.71-.16-1.02-.38-.31-.22-.54-.52-.68-.85-.14-.33-.18-.7-.12-1.08l.91-5.65c.02-.11.01-.22-.02-.32-.03-.1-.09-.19-.17-.27L.59,10.83c-.27-.27-.45-.6-.54-.95-.08-.35-.07-.72.05-1.09.12-.36.33-.67.6-.9h0c.27-.24.61-.39.99-.45l5.65-.88c.11-.02.21-.06.29-.12.08-.06.15-.14.2-.24l2.58-5.1c.17-.34.43-.62.73-.81.31-.19.67-.29,1.05-.29s.74.1,1.05.29c.31.19.56.46.73.81Z"/>
  </g>
</svg>