<?xml version="1.0" encoding="UTF-8"?>
<svg id="Layer_2" data-name="Layer 2" xmlns="http://www.w3.org/2000/svg" viewBox="0 0 72.51 73.61">
  <g id="Layer_1-2" data-name="Layer 1">
    <path d="M34.54,73.61h-10.01c-.85,0-1.64-.43-2.1-1.14s-.53-1.61-.19-2.38l11.3-25.38h-12.65l-4.61,7.69c-.45.75-1.27,1.21-2.14,1.21H2.5c-.85,0-1.64-.43-2.1-1.14-.46-.71-.53-1.61-.19-2.38l5.93-13.29L.22,23.5c-.34-.77-.27-1.67.19-2.38s1.25-1.14,2.1-1.14h11.64c.88,0,1.69.46,2.15,1.22l4.6,7.7h12.66L22.25,3.52c-.34-.77-.27-1.67.19-2.38s1.25-1.14,2.1-1.14h10.01c.88,0,1.69.46,2.14,1.22l16.58,27.68h11.34c4.36,0,7.91,3.55,7.91,7.91s-3.55,7.91-7.91,7.91h-11.34l-16.58,27.68c-.45.75-1.27,1.22-2.14,1.22ZM28.38,68.61h4.75l16.58-27.68c.45-.75,1.27-1.22,2.14-1.22h12.76c1.6,0,2.91-1.3,2.91-2.91s-1.31-2.91-2.91-2.91h-12.76c-.88,0-1.69-.46-2.14-1.22L33.13,5h-4.75l11.3,25.38c.34.77.27,1.67-.19,2.38s-1.25,1.14-2.1,1.14h-17.93c-.88,0-1.69-.46-2.15-1.22l-4.6-7.7h-6.37l4.82,10.81c.29.65.29,1.39,0,2.04l-4.81,10.79h6.37l4.61-7.69c.45-.75,1.27-1.21,2.14-1.21h17.92c.85,0,1.64.43,2.1,1.14s.53,1.61.19,2.38l-11.3,25.38Z"/>
  </g>
</svg>