<?xml version="1.0" encoding="UTF-8"?>
<svg id="Layer_2" data-name="Layer 2" xmlns="http://www.w3.org/2000/svg" viewBox="0 0 22.8 19.82">
  <defs>
    <style>
      .cls-1 {
        fill: #fff;
        fill-rule: evenodd;
      }
    </style>
  </defs>
  <g id="Layer_1-2" data-name="Layer 1">
    <path class="cls-1" d="M0,12.71v-6.94c0-.89.54-1.66,1.42-2.2.77-.47,1.81-.77,2.95-.78L18.25.02s.09-.01.13-.01h0c1.16,0,2.23.29,3,.77.88.54,1.42,1.32,1.42,2.2v9.74c0,.89-.54,1.66-1.42,2.2-.78.48-1.84.78-3.01.78h-8.4l-6.32,4.03c-.31.2-.72.11-.92-.2-.12-.19-.13-.41-.06-.6l1.3-3.23c-.99-.06-1.88-.34-2.56-.76-.88-.54-1.42-1.32-1.42-2.2Z"/>
  </g>
</svg>