<?xml version="1.0" encoding="UTF-8"?>
<svg id="Layer_2" data-name="Layer 2" xmlns="http://www.w3.org/2000/svg" viewBox="0 0 28.13 22.36">
  <defs>
    <style>
      .cls-1 {
        fill: #fff;
        fill-rule: evenodd;
      }
    </style>
  </defs>
  <g id="Layer_1-2" data-name="Layer 1">
    <path class="cls-1" d="M27.46,9.7h-3.35v12c0,.37-.3.67-.67.67h-1.7c-.37,0-.67-.3-.67-.67v-9.24c0-.34-.28-.62-.62-.62h-3.85c-.34,0-.62.28-.62.62v9.24c0,.37-.3.67-.67.67H4.68c-.37,0-.67-.3-.67-.67v-12H.67c-.22,0-.44-.11-.56-.31-.19-.31-.1-.72.21-.92L13.78.1c.21-.13.48-.14.71,0l3.48,2.18v-1.26c0-.37.3-.67.67-.67h4.02c.37,0,.67.3.67.67v4.62l4.45,2.8c.21.11.36.33.36.59,0,.37-.3.67-.67.67h0ZM13.39,11.86h-6.08c-.37,0-.67.3-.67.67v4.77c0,.37.3.67.67.67h6.08c.37,0,.67-.3.67-.67v-4.77c0-.37-.3-.67-.67-.67Z"/>
  </g>
</svg>