<?xml version="1.0" encoding="UTF-8"?>
<svg id="Layer_2" data-name="Layer 2" xmlns="http://www.w3.org/2000/svg" viewBox="0 0 17.04 30.94">
  <defs>
    <style>
      .cls-1 {
        fill: #fff;
        fill-rule: evenodd;
      }
    </style>
  </defs>
  <g id="Layer_1-2" data-name="Layer 1">
    <path class="cls-1" d="M10.76.73v4.03c0,.32-.21.59-.49.69l-.1.04c-.27.12-.36.08-.38.12h0c-.02.09-.01.33,0,.76,0,.21.01.47.01.78.31,1.08.97,1.34,1.65,1.6,1.49.58,3.02,1.19,3,5.8h0v5.12c-.11-.01-.22-.02-.34-.02-.47,0-.95.09-1.4.28-.44.18-.84.44-1.19.79l-4.68,4.68c-.35.35-.61.75-.79,1.19-.19.45-.28.93-.28,1.4s.09.95.28,1.4c.03.08.07.16.1.23H.73c-.4,0-.73-.33-.73-.73v-14.34h0c-.02-4.61,1.52-5.22,3-5.8.68-.27,1.34-.53,1.65-1.6,0-.31,0-.57.01-.78,0-.45.02-.69,0-.76-.02-.05-.11,0-.38-.12l-.15-.07c-.27-.12-.44-.39-.44-.67h0V.73c0-.4.33-.73.73-.73h5.61c.4,0,.73.33.73.73h0ZM14.11,20.39c-.75,0-1.5.29-2.08.86l-1.82,1.82,4.15,4.15,1.82-1.82c.57-.57.86-1.32.86-2.08s-.29-1.5-.86-2.08c-.57-.57-1.32-.86-2.08-.86h0ZM13.33,28.26l-4.15-4.15-1.82,1.82c-.57.57-.86,1.32-.86,2.08s.29,1.5.86,2.08c.57.57,1.32.86,2.08.86s1.5-.29,2.08-.86l1.82-1.82h0ZM5.41,16.35h-1.89c-.4,0-.73.33-.73.73v2.16c0,.4.33.73.73.73h1.89v1.89c0,.4.33.73.73.73h2.16c.4,0,.73-.33.73-.73v-1.89h1.89c.4,0,.73-.33.73-.73v-2.16c0-.4-.33-.73-.73-.73h-1.89v-1.89c0-.4-.33-.73-.73-.73h-2.16c-.4,0-.73.33-.73.73v1.89h0ZM14.45,28.17l-.08.08-1.55-1.55h0l1.55,1.55-1.38,1.38h.74c.4,0,.73-.33.73-.73v-.74Z"/>
  </g>
</svg>