<?xml version="1.0" encoding="UTF-8"?>
<svg id="Layer_2" data-name="Layer 2" xmlns="http://www.w3.org/2000/svg" viewBox="0 0 20.32 24.21">
  <defs>
    <style>
      .cls-1 {
        fill: #fff;
        fill-rule: evenodd;
      }
    </style>
  </defs>
  <g id="Layer_1-2" data-name="Layer 1">
    <path class="cls-1" d="M2.18,19.52l7.71-6.44c.31-.26.48-.61.48-1.02s-.16-.76-.48-1.02L2.18,4.59c-.41-.34-.94-.41-1.42-.18C.29,4.63,0,5.08,0,5.61v12.89c0,.53.29.98.77,1.21.48.22,1.01.15,1.42-.18h0ZM5.24,20.87l9.27-7.74c.31-.26.48-.61.48-1.02s-.16-.76-.48-1.02L5.24,3.34c-.31-.26-.48-.61-.48-1.02v-.98c0-.53.29-.98.77-1.21.48-.22,1.01-.15,1.42.18l12.89,10.77c.31.26.48.61.48,1.02s-.16.76-.48,1.02c-4.3,3.59-8.6,7.18-12.89,10.77-.41.34-.94.41-1.42.18-.48-.22-.77-.68-.77-1.21v-.99c0-.41.16-.76.48-1.02Z"/>
  </g>
</svg>