<?xml version="1.0" encoding="UTF-8"?>
<svg id="Layer_2" data-name="Layer 2" xmlns="http://www.w3.org/2000/svg" viewBox="0 0 23.91 24.01">
  <defs>
    <style>
      .cls-1 {
        fill: #fff;
        fill-rule: evenodd;
      }
    </style>
  </defs>
  <g id="Layer_1-2" data-name="Layer 1">
    <path class="cls-1" d="M13.45,1.32l.77,4.67s.02.08.04.11c.02.03.05.05.09.07.04.02.08.03.11.02.03,0,.07-.01.11-.04l2.3-1.36c.31-.18.66-.25.99-.21.34.04.66.19.91.45l.04.05c.23.25.36.55.4.86.04.33-.02.68-.21.99l-1.36,2.3s-.03.07-.03.11h0s0,.08.03.12c.02.04.04.07.07.09.03.02.06.04.1.04l4.76.77c.38.06.71.26.95.53.24.28.38.63.38,1.02h0c0,.38-.14.74-.37,1.02-.23.28-.56.47-.95.53l-4.76.77s-.08.02-.1.04c-.03.02-.05.05-.07.09-.02.04-.03.08-.03.12,0,.03.01.07.04.11l1.35,2.3c.18.31.25.66.21.99-.04.34-.19.66-.45.91s-.57.4-.91.45c-.34.04-.68-.02-.99-.21l-2.3-1.35s-.08-.03-.11-.04c-.04,0-.07,0-.11.02-.04.02-.07.04-.09.07-.02.03-.04.06-.04.11l-.77,4.85c-.06.38-.25.71-.53.95-.28.24-.63.38-1.02.38s-.74-.14-1.02-.38c-.27-.23-.47-.56-.53-.95l-.77-4.85s-.02-.08-.04-.11c-.02-.03-.05-.05-.09-.07h-.02s-.07-.03-.1-.03c-.03,0-.07.01-.11.04l-2.3,1.35c-.31.18-.66.25-.99.21-.34-.04-.66-.19-.91-.45-.25-.25-.4-.57-.45-.91-.04-.34.02-.68.21-.99l1.36-2.3s.03-.07.04-.11h0s0-.08-.02-.12c-.02-.04-.04-.07-.07-.09-.03-.02-.06-.04-.11-.04l-4.67-.77c-.38-.06-.71-.26-.94-.53C.14,12.65,0,12.3,0,11.91c0-.39.14-.74.37-1.01.23-.27.56-.47.94-.53l4.67-.77s.08-.02.11-.04c.03-.02.05-.05.07-.09.02-.04.03-.08.02-.11h0s-.01-.07-.03-.11l-1.36-2.3-.03-.05c-.16-.3-.22-.63-.18-.95.04-.34.19-.66.45-.91.25-.25.57-.4.91-.45.33-.04.68.02.99.21.77.44,1.57.9,2.32,1.37.03.02.06.02.09.02.04,0,.07,0,.11-.02.04-.02.07-.04.09-.07.02-.03.04-.06.04-.11l.77-4.67c.06-.38.26-.71.53-.94.28-.23.63-.37,1.01-.37s.74.14,1.01.37c.27.23.47.56.53.94Z"/>
  </g>
</svg>