<?xml version="1.0" encoding="UTF-8"?>
<svg id="Layer_2" data-name="Layer 2" xmlns="http://www.w3.org/2000/svg" viewBox="0 0 22.06 24.77">
  <defs>
    <style>
      .cls-1 {
        fill: #fff;
        fill-rule: evenodd;
      }
    </style>
  </defs>
  <g id="Layer_1-2" data-name="Layer 1">
    <path class="cls-1" d="M4.76,7.46c1.73-1.73,4.01-2.6,6.28-2.6s4.54.87,6.28,2.6c1.73,1.73,2.6,4.01,2.6,6.28s-.87,4.54-2.6,6.28c-1.73,1.73-4.01,2.6-6.28,2.6s-4.54-.87-6.28-2.6-2.6-4.01-2.6-6.28.87-4.54,2.6-6.28h0ZM3.23,5.94C1.08,8.09,0,10.92,0,13.74s1.08,5.65,3.23,7.8c2.15,2.15,4.98,3.23,7.8,3.23s5.65-1.08,7.8-3.23,3.23-4.98,3.23-7.8-1.08-5.65-3.23-7.8c-.53-.53-1.1-1-1.7-1.4l.87-1.58c.18-.32.06-.73-.26-.9-.32-.18-.73-.06-.9.26l-.85,1.55c-1.34-.67-2.8-1.06-4.27-1.15l-.02-.76v-.63s.78-.01.78-.01c.37,0,.66-.31.66-.67C13.13.29,12.83,0,12.47,0l-2.88.04c-.37,0-.66.31-.66.67,0,.37.31.66.67.66h.76s.01.63.01.63v.73c-1.46.09-2.91.47-4.26,1.13l-.93-1.54c-.19-.31-.6-.41-.91-.22-.31.19-.41.6-.22.91l.92,1.52c-.61.4-1.19.88-1.73,1.41h0ZM11.03,4.04c-2.48,0-4.96.95-6.86,2.84s-2.84,4.38-2.84,6.86.95,4.96,2.84,6.86,4.38,2.84,6.86,2.84,4.96-.95,6.86-2.84c1.89-1.89,2.84-4.38,2.84-6.86s-.95-4.96-2.84-6.86c-1.89-1.89-4.38-2.84-6.86-2.84h0ZM14.79,9.04l-2.87,2.87c-.28-.14-.58-.2-.89-.2-.52,0-1.04.2-1.44.6h0c-.4.4-.6.92-.6,1.44,0,.3.07.61.2.89l-.59.59c-.26.26-.26.68,0,.94s.68.26.94,0l.59-.59c.28.14.58.2.89.2.52,0,1.04-.2,1.44-.6s.6-.92.6-1.44c0-.3-.07-.61-.2-.89l2.87-2.87c.26-.26.26-.68,0-.94s-.68-.26-.94,0h0ZM11.03,13.04c-.18,0-.36.07-.49.2h0c-.14.13-.2.31-.2.49,0,.17.06.34.18.47l.02.02h0c.14.14.32.2.49.2s.36-.07.5-.2c.14-.14.2-.32.2-.49s-.07-.36-.2-.49c-.14-.14-.32-.2-.5-.2Z"/>
  </g>
</svg>