<?xml version="1.0" encoding="UTF-8"?>
<svg id="Layer_2" data-name="Layer 2" xmlns="http://www.w3.org/2000/svg" viewBox="0 0 34.63 12.74">
  <defs>
    <style>
      .cls-1 {
        fill: #fff;
        fill-rule: evenodd;
      }
    </style>
  </defs>
  <g id="Layer_1-2" data-name="Layer 1">
    <path class="cls-1" d="M3.41.55h5.47c.13,0,.24.05.33.15l3.28,3.7c.09.1.2.15.33.15h10.92c.15,0,.28-.07.37-.2.09-.13.1-.27.04-.41l-1.34-3.32c-.07-.18-.03-.37.12-.5.14-.13.34-.15.51-.06l10.96,5.92c.15.08.23.22.23.39s-.09.31-.23.39l-10.96,5.92c-.17.09-.36.07-.51-.06-.14-.13-.19-.32-.12-.5l1.34-3.32c.06-.14.04-.29-.04-.41-.08-.13-.22-.2-.37-.2h-10.92c-.13,0-.24.05-.33.15l-3.28,3.7c-.09.1-.2.15-.33.15H3.41c-.18,0-.33-.1-.4-.26-.07-.16-.05-.34.07-.48l4.25-4.79c.15-.17.15-.42,0-.59L3.08,1.28c-.12-.13-.15-.31-.07-.48.07-.16.23-.26.4-.26h0ZM.45.55c-.18,0-.33.1-.4.26-.07.16-.05.34.07.48l4.25,4.79c.15.17.15.42,0,.59L.11,11.45c-.12.13-.15.31-.07.48.07.16.23.26.4.26h.35c.13,0,.24-.05.33-.15l4.77-5.38c.15-.17.15-.42,0-.59L1.13.7c-.09-.1-.2-.15-.33-.15h-.35Z"/>
  </g>
</svg>