<?xml version="1.0" encoding="UTF-8"?>
<svg id="Layer_2" data-name="Layer 2" xmlns="http://www.w3.org/2000/svg" viewBox="0 0 20.52 25.3">
  <defs>
    <style>
      .cls-1 {
        fill: #fff;
        fill-rule: evenodd;
      }
    </style>
  </defs>
  <g id="Layer_1-2" data-name="Layer 1">
    <path class="cls-1" d="M10,0c1.68,0,3.19.68,4.29,1.78,1.1,1.1,1.78,2.62,1.78,4.29s-.68,3.19-1.78,4.29c-.5.5-1.08.91-1.73,1.21,1.31.35,2.52.96,3.57,1.78,0,.07,0,.14,0,.21v.02c.02.32.16.64.41.88l-1.51,1.48-.96-.27c-.29-.09-.6-.07-.88.04-.27.11-.51.31-.67.59l-.93,1.7-1.1-.12c-.25-.03-.51,0-.74.11-.23.11-.44.28-.58.52l-1.35,2.23c-.19.31-.23.68-.15,1.01.07.29.24.55.49.74-.23.25-.36.59-.34.95l.06,1.19H2.2c-.61,0-1.16-.25-1.56-.65-.4-.4-.65-.95-.65-1.56v-1.2c0-2.75,1.12-5.25,2.94-7.06,1.23-1.23,2.77-2.14,4.5-2.6-.65-.3-1.23-.71-1.73-1.21-1.1-1.1-1.78-2.62-1.78-4.29s.68-3.19,1.78-4.29c1.1-1.1,2.62-1.78,4.29-1.78h0ZM9.53,21.77l1.13-1.87,1.59.17c.27.03.53-.11.65-.34l1.1-2.01,1.21.34c.25.07.5-.01.67-.19l2.63-2.57.37.33c.09.09.21.16.34.18.36.07.71-.16.78-.53l.49-2.49c.02-.11.02-.23-.02-.34-.12-.35-.5-.53-.84-.42l-2.4.82c-.11.04-.21.1-.29.19-.24.28-.21.7.06.94l.5.44-2.3,2.25-1.33-.38c-.3-.09-.62.03-.78.32l-1.15,2.09-1.54-.17c-.26-.04-.53.08-.67.31l-1.35,2.23c-.19.31-.09.72.23.91.31.19.72.09.91-.23h0ZM17.78,17.27c0-.37.29-.67.66-.67.37,0,.67.29.67.66l.06,7.37c0,.37-.29.67-.66.67s-.67-.29-.67-.66l-.06-7.37h0ZM14.68,19.24l.06,5.39c0,.37.3.66.67.66s.66-.3.66-.67l-.06-5.4c0-.37-.3-.66-.67-.66-.37,0-.66.3-.66.67h0ZM11.58,21.55l.06,3.1c0,.37.31.66.68.65.37,0,.66-.31.65-.68l-.06-3.1c0-.37-.31-.66-.68-.65-.37,0-.66.31-.65.68h0ZM8.48,23.41l.06,1.26c.02.37.33.65.69.63.37-.02.65-.33.63-.7l-.06-1.26c-.02-.37-.33-.65-.69-.63s-.65.33-.63.69h0ZM17.17,24.63l-.06-7.02-.77.76c.2.23.32.53.33.86l.06,5.39h0s.44,0,.44,0h0ZM14.08,24.63l-.06-5.38c0-.05,0-.1,0-.16l-.53.96c-.1.18-.24.34-.42.46.03.02.06.05.08.07.24.24.4.56.41.93l.06,3.1v.02h.44ZM10.98,24.63l-.06-3.07c0-.36.13-.69.36-.93l-.26-.03-.91,1.51c-.05.07-.1.14-.15.21.03.02.06.05.09.07.25.23.41.55.43.92l.06,1.26s0,.04,0,.06h.44Z"/>
  </g>
</svg>