<?xml version="1.0" encoding="UTF-8"?>
<svg id="Layer_2" data-name="Layer 2" xmlns="http://www.w3.org/2000/svg" viewBox="0 0 33.61 14.47">
  <defs>
    <style>
      .cls-1 {
        fill: #fff;
        fill-rule: evenodd;
      }
    </style>
  </defs>
  <g id="Layer_1-2" data-name="Layer 1">
    <path class="cls-1" d="M33.61,6.95c-2.96-1.96-6.31-3.38-9.91-4.12l-1.74-2.83h-10.9l2.16,2.61c-1.49.25-2.94.61-4.34,1.07.79,1,1.23,2.1,1.23,3.26s-.44,2.26-1.23,3.26c1.53.51,3.12.89,4.76,1.14l-2.58,3.12h10.9l2.15-3.48c3.44-.77,6.65-2.15,9.5-4.03h0ZM6.71,3.69c-2.39.8-4.64,1.9-6.71,3.26,2.07,1.36,4.32,2.47,6.71,3.26.79-1,1.23-2.1,1.23-3.26s-.44-2.26-1.23-3.26Z"/>
  </g>
</svg>