<?xml version="1.0" encoding="UTF-8"?>
<svg id="Layer_2" data-name="Layer 2" xmlns="http://www.w3.org/2000/svg" viewBox="0 0 22.27 24.83">
  <defs>
    <style>
      .cls-1 {
        fill: #fff;
        fill-rule: evenodd;
      }
    </style>
  </defs>
  <g id="Layer_1-2" data-name="Layer 1">
    <path class="cls-1" d="M10,0c1.68,0,3.19.68,4.29,1.78,1.1,1.1,1.78,2.62,1.78,4.29s-.68,3.19-1.78,4.29c-.5.5-1.08.91-1.73,1.21.97.26,1.87.66,2.7,1.18-.22.04-.43.13-.61.28l-6.1,5.05s-.06.05-.09.08c-.04.04-.07.07-.09.1-.23.28-.33.63-.3.97.03.34.19.67.48.9l5.43,4.5H2.2c-.61,0-1.16-.25-1.56-.65-.4-.4-.65-.95-.65-1.56v-1.2c0-2.75,1.12-5.25,2.94-7.06,1.23-1.23,2.77-2.14,4.5-2.6-.65-.3-1.23-.71-1.73-1.21-1.1-1.1-1.78-2.62-1.78-4.29s.68-3.19,1.78-4.29c1.1-1.1,2.62-1.78,4.29-1.78h0ZM21.61,22.1c.37,0,.67-.3.67-.67v-4.66c0-.37-.3-.67-.67-.67h-5.44v-2.06c0-.15-.05-.3-.15-.42-.23-.28-.65-.32-.94-.09l-6.1,5.05s-.07.06-.1.1c-.23.28-.19.7.09.94l6.08,5.04c.12.11.28.17.45.17.37,0,.67-.3.67-.67v-2.06h5.44ZM16.83,13.95c.08.07.15.15.23.22.39.39.76.82,1.08,1.28h-1.31v-1.39s0-.07,0-.11h0ZM19.97,22.77c-.07.47-.3.89-.62,1.22-.4.4-.95.65-1.56.65h-1.04c.05-.15.08-.3.08-.47v-1.39h3.13Z"/>
  </g>
</svg>