<?xml version="1.0" encoding="UTF-8"?>
<svg id="Layer_2" data-name="Layer 2" xmlns="http://www.w3.org/2000/svg" viewBox="0 0 160.54 160.54">
  <defs>
    <style>
      .cls-1 {
        fill: #080a16;
      }
    </style>
  </defs>
  <g id="Calque_1" data-name="Calque 1">
    <path id="cake" class="cls-1" d="M133.78,107.03c14.78,0,26.76,11.98,26.76,26.75s-11.98,26.76-26.76,26.76-26.76-11.98-26.76-26.76c0,14.78-11.98,26.76-26.76,26.76s-26.76-11.98-26.76-26.76c0,14.78-11.98,26.76-26.76,26.76S0,148.56,0,133.78s11.98-26.75,26.76-26.75c-14.78,0-26.76-11.98-26.76-26.76s11.98-26.76,26.76-26.76C11.98,53.51,0,41.53,0,26.76S11.98,0,26.76,0s26.76,11.98,26.76,26.76c0-14.78,11.98-26.76,26.76-26.76s26.76,11.98,26.76,26.76c0-14.78,11.98-26.76,26.76-26.76s26.76,11.98,26.76,26.76-11.98,26.75-26.76,26.75c14.78,0,26.76,11.98,26.76,26.76s-11.98,26.76-26.76,26.76Z"/>
  </g>
</svg>