<?xml version="1.0" encoding="UTF-8"?>
<svg id="Layer_2" data-name="Layer 2" xmlns="http://www.w3.org/2000/svg" viewBox="0 0 160.54 160.54">
  <defs>
    <style>
      .cls-1 {
        fill: #080a16;
      }
    </style>
  </defs>
  <g id="Calque_1" data-name="Calque 1">
    <path id="clover_01" data-name="clover 01" class="cls-1" d="M150.8,56.82h0c-12.98-12.98-34.04-12.98-47.02,0,12.98-12.98,12.98-34.04,0-47.02h0C97.29,3.31,88.79.06,80.29.06l-.02-.06-.02.06c-8.5,0-17.01,3.25-23.49,9.74h0c-12.98,12.98-12.98,34.04,0,47.02-12.98-12.98-34.04-12.98-47.02,0h0c-12.98,12.98-12.98,34.04,0,47.02h0c12.98,12.98,34.04,12.98,47.02,0l22.35-22.35-9.79,33.03-10.95,46.02h43.8l-10.95-46.02-9.79-33.03,22.35,22.35c12.98,12.98,34.04,12.98,47.02,0h0c12.98-12.98,12.98-34.04,0-47.02Z"/>
  </g>
</svg>