<?xml version="1.0" encoding="UTF-8"?>
<svg id="Layer_2" data-name="Layer 2" xmlns="http://www.w3.org/2000/svg" viewBox="0 0 160.54 160.53">
  <defs>
    <style>
      .cls-1 {
        fill: #080a16;
      }
    </style>
  </defs>
  <g id="Calque_1" data-name="Calque 1">
    <path id="flower_05" data-name="flower 05" class="cls-1" d="M159.57,59.83h0c-3.52-11.01-15.43-16.44-25.62-11.69l-38.99,18.2,4.11-44.91C100.12,9.89,91.34-.07,80.17,0h0c-11.17.08-19.82,10.16-18.61,21.69l4.63,44.15-39.85-17.95c-10.25-4.62-22.08.98-25.46,12.03-3.38,11.05,3.19,22.72,14.12,25.09l41.86,9.08-28.74,33.81c-7.39,8.69-5.92,22.11,3.16,28.87,9.08,6.76,21.79,3.88,27.33-6.18l21.23-38.53,22.09,38.85c5.68,9.99,18.42,12.69,27.41,5.81,8.99-6.88,10.28-20.32,2.77-28.91l-28.73-32.9,42.39-9.8c10.9-2.52,17.3-14.27,13.78-25.28Z"/>
  </g>
</svg>