<?xml version="1.0" encoding="UTF-8"?>
<svg id="Layer_2" data-name="Layer 2" xmlns="http://www.w3.org/2000/svg" viewBox="0 0 160.54 142.5">
  <defs>
    <style>
      .cls-1 {
        fill: #080a16;
      }
    </style>
  </defs>
  <g id="Calque_1" data-name="Calque 1">
    <path id="flower_06" data-name="flower 06" class="cls-1" d="M160.54,71.25c0-10.76-14.11-20.24-35.54-25.82,5.88-21.36,4.73-38.31-4.59-43.69-9.32-5.38-24.58,2.1-40.13,17.87C64.72,3.83,49.45-3.65,40.13,1.73c-9.32,5.38-10.47,22.34-4.59,43.69C14.11,51.01,0,60.49,0,71.25s14.11,20.24,35.54,25.82c-5.88,21.36-4.73,38.31,4.59,43.69,9.32,5.38,24.58-2.1,40.13-17.87,15.55,15.77,30.82,23.25,40.13,17.87,9.32-5.38,10.47-22.34,4.59-43.69,21.44-5.58,35.54-15.06,35.54-25.82Z"/>
  </g>
</svg>