<?xml version="1.0" encoding="UTF-8"?>
<svg id="Layer_2" data-name="Layer 2" xmlns="http://www.w3.org/2000/svg" viewBox="0 0 160.54 155.69">
  <defs>
    <style>
      .cls-1 {
        fill: #080a16;
      }
    </style>
  </defs>
  <g id="Calque_1" data-name="Calque 1">
    <path id="flower_02" data-name="flower 02" class="cls-1" d="M125.03,97.35c4.13,2.14,7.83,5.24,10.75,9.25,10.04,13.81,6.98,33.15-6.84,43.18-13.81,10.04-33.15,6.98-43.18-6.84-2.92-4.02-4.72-8.51-5.48-13.1-.76,4.59-2.56,9.08-5.48,13.1-10.04,13.82-29.37,16.88-43.18,6.84-13.82-10.04-16.88-29.37-6.84-43.18,2.92-4.02,6.62-7.11,10.75-9.25-4.59.69-9.42.36-14.14-1.18C5.13,90.9-3.75,73.45,1.52,57.21c5.28-16.24,22.72-25.13,38.96-19.85,4.72,1.53,8.81,4.09,12.11,7.35-2.07-4.15-3.24-8.83-3.24-13.79C49.35,13.84,63.19,0,80.27,0s30.92,13.84,30.92,30.92c0,4.96-1.17,9.64-3.24,13.79,3.31-3.26,7.4-5.81,12.11-7.35,16.24-5.28,33.68,3.61,38.96,19.85,5.27,16.24-3.61,33.68-19.85,38.96-4.72,1.53-9.54,1.87-14.14,1.18Z"/>
  </g>
</svg>