<?xml version="1.0" encoding="UTF-8"?>
<svg id="Layer_2" data-name="Layer 2" xmlns="http://www.w3.org/2000/svg" viewBox="0 0 160.54 160.54">
  <defs>
    <style>
      .cls-1 {
        fill: #080a16;
      }
    </style>
  </defs>
  <g id="Calque_1" data-name="Calque 1">
    <path id="peanut" class="cls-1" d="M102.07,75.93c-7.96-3.73-14.26-10.63-17.78-18.69-5.73-13.09-2.71-27.57-10.94-39.67C65.92,6.67,53.34,0,40.14,0,29.06,0,19.02,4.49,11.76,11.76,4.49,19.02,0,29.06,0,40.14c0,13.2,6.67,25.78,17.58,33.2,12.1,8.23,26.58,5.22,39.67,10.94,8.05,3.52,14.96,9.82,18.69,17.78,6.19,13.2,2.82,28.4,11.19,40.78,7.41,10.97,20.03,17.69,33.27,17.69,11.08,0,21.12-4.49,28.38-11.76,7.26-7.26,11.76-17.3,11.76-28.38,0-13.24-6.72-25.86-17.69-33.27-12.38-8.37-27.58-5-40.78-11.19Z"/>
  </g>
</svg>