<?xml version="1.0" encoding="UTF-8"?>
<svg id="Layer_2" data-name="Layer 2" xmlns="http://www.w3.org/2000/svg" viewBox="0 0 81.2 43.7">
  <defs>
    <style>
      .cls-1 {
        fill: #e2001a;
      }
    </style>
  </defs>
  <g id="Layer_1-2" data-name="Layer 1">
    <path class="cls-1" d="M66.5,35.4c-6.4-4.7-16-7.5-25.9-7.5s-19.6,2.8-25.9,7.5c-.6.4-.9,1.1-.9,1.9,0,1.4,1,2.4,2.4,2.4h0c.5,0,1-.2,1.5-.5,4.3-3.2,12.6-6.6,23.1-6.6s18.7,3.4,23,6.6l.1.1c1,.7,2.6.5,3.3-.6.6-1.1.4-2.6-.7-3.3ZM40.6,33.6c-9.2,0-17.9,2.7-23.3,7.2h-.1c-.6.6-.7,1.6-.2,2.3.3.4.7.6,1.3.6.4,0,.7-.1,1-.4,4.8-4,12.8-6.5,21.2-6.5s16.3,2.4,21.2,6.5c.7.6,1.8.5,2.3-.2.6-.7.5-1.8-.2-2.3-5.4-4.4-14.1-7.2-23.2-7.2ZM10.8,16.3c.7-2.9-1-5.8-4-6.7-.4-.1-.9-.2-1.4-.2-3,0-5.4,2.4-5.4,5.4s2.4,5.4,5.4,5.4c2.7.2,4.8-1.5,5.4-3.9ZM40.6,24.7c3,0,5.4-2.4,5.4-5.4s-2.4-5.4-5.4-5.4-5.4,2.4-5.4,5.4,2.3,5.4,5.4,5.4ZM40.6,10.9c3,0,5.4-2.4,5.4-5.4s-2.4-5.5-5.4-5.5-5.4,2.4-5.4,5.4c-.1,3.1,2.3,5.5,5.4,5.5ZM24.6,15.8c-2.9.8-4.6,3.9-3.8,6.8.6,2.3,2.8,3.9,5.2,4h.1c.4,0,.9-.1,1.4-.2,2.9-.8,4.6-3.8,3.9-6.7-.6-2.4-2.8-4.1-5.3-4.1-.6,0-1,.1-1.5.2ZM17.8,28.1c.7-2.9-1-6-4-6.7-.4-.1-.9-.2-1.4-.2h0c-.9,0-1.9.3-2.8.7-1.3.7-2.2,2-2.5,3.3-.4,1.5-.2,2.9.6,4.2.9,1.7,2.7,2.6,4.7,2.7.9,0,2-.2,2.8-.7,1.3-.7,2.3-1.9,2.6-3.3ZM53.7,26.3c.5.1.9.2,1.5.2,3,0,5.4-2.5,5.4-5.4,0-2.5-1.7-4.6-4-5.2-.5-.1-.9-.2-1.5-.2-3,0-5.4,2.5-5.4,5.5-.1,2.3,1.6,4.5,4,5.1ZM57.3,13.1c.4.1.9.2,1.5.2,3,0,5.4-2.5,5.4-5.4,0-2.5-1.7-4.6-4-5.2-.5-.1-.9-.2-1.5-.2-3,0-5.4,2.5-5.4,5.5,0,2.2,1.7,4.4,4,5.1ZM71.5,22c-.8-.5-1.8-.7-2.7-.7-3,0-5.4,2.4-5.4,5.4,0,.4.1.9.2,1.4.3,1.4,1.3,2.6,2.5,3.3,2.6,1.6,6,.6,7.5-2,.7-1.3.9-2.7.6-4.2-.6-1.2-1.5-2.4-2.7-3.2ZM81,13.6c-.3-1.4-1.3-2.6-2.5-3.3-2.6-1.6-6-.6-7.5,2-.7,1.3-.9,2.7-.6,4.2.3,1.4,1.3,2.6,2.5,3.3,2.6,1.6,6,.7,7.5-1.9.8-1.4,1-3.1.6-4.3ZM22.5,13.3h0c.5,0,1-.1,1.5-.2,2.9-.8,4.6-3.9,3.9-6.7-.6-2.4-2.8-4-5.2-4-.5,0-.9.1-1.5.2-2.9.8-4.6,3.9-3.9,6.7.6,2.3,2.7,4,5.2,4Z"/>
  </g>
</svg>