<?xml version="1.0" encoding="UTF-8"?>
<svg id="Layer_2" data-name="Layer 2" xmlns="http://www.w3.org/2000/svg" viewBox="0 0 160.54 160.54">
  <defs>
    <style>
      .cls-1 {
        fill: #080a16;
      }
    </style>
  </defs>
  <g id="Calque_1" data-name="Calque 1">
    <path id="ring" class="cls-1" d="M137.03,23.51C121.87,8.35,101.71,0,80.27,0S38.67,8.35,23.51,23.51C8.35,38.67,0,58.83,0,80.27s8.35,41.6,23.51,56.76c15.16,15.16,35.32,23.51,56.76,23.51s41.6-8.35,56.76-23.51c15.16-15.16,23.51-35.32,23.51-56.76s-8.35-41.6-23.51-56.76ZM80.27,130.4c-27.64,0-50.13-22.49-50.13-50.13s22.49-50.13,50.13-50.13,50.13,22.49,50.13,50.13-22.49,50.13-50.13,50.13Z"/>
  </g>
</svg>