<?xml version="1.0" encoding="UTF-8"?>
<svg id="Layer_2" data-name="Layer 2" xmlns="http://www.w3.org/2000/svg" viewBox="0 0 160.54 160.54">
  <defs>
    <style>
      .cls-1 {
        fill: #080a16;
      }
    </style>
  </defs>
  <g id="Calque_1" data-name="Calque 1">
    <path id="sun" class="cls-1" d="M132.54,108.5l-4.46-28.25h32.47l-23.35-16.98-23.13-16.82,22.96-22.96-28.52,4.51-28.25,4.46V0l-16.98,23.35-16.82,23.13-22.96-22.96,4.51,28.52,4.46,28.25H0l23.35,16.98,23.13,16.82-22.96,22.96,28.52-4.51,28.25-4.46v32.47l16.98-23.35,16.82-23.13,22.96,22.96-4.51-28.52ZM127.71,80.25h.05l-.05.05s0-.01,0-.02c0,0,0-.02,0-.02ZM113.83,46.74s-.02-.02-.03-.03l.03-.03v.06ZM80.29,32.83s-.01,0-.02,0c0,0-.02,0-.02,0v-.05l.05.05ZM46.74,46.71s-.02.02-.03.03l-.03-.03h.06ZM32.83,80.25s0,.01,0,.02c0,0,0,.02,0,.02h-.05l.05-.05ZM46.71,113.8s.02.02.03.03l-.03.03v-.06ZM80.25,127.71s.01,0,.02,0c0,0,.02,0,.02,0v.05l-.05-.05ZM113.8,113.83s.02-.02.03-.03l.03.03h-.06Z"/>
  </g>
</svg>