<?xml version="1.0" encoding="UTF-8"?>
<svg id="Layer_2" data-name="Layer 2" xmlns="http://www.w3.org/2000/svg" viewBox="0 0 160.54 160.54">
  <defs>
    <style>
      .cls-1 {
        fill: #080a16;
      }
    </style>
  </defs>
  <g id="Calque_1" data-name="Calque 1">
    <path id="tree_elispsis" data-name="tree elispsis" class="cls-1" d="M160.54,80.27c0-13.44-29.22-24.58-67.47-26.64,38.25-2.06,67.47-13.2,67.47-26.64C160.54,12.08,124.6,0,80.27,0S0,12.08,0,26.99c0,13.44,29.22,24.58,67.47,26.64C29.22,55.69,0,66.83,0,80.27s29.22,24.58,67.47,26.64C29.22,108.97,0,120.12,0,133.55c0,14.9,35.94,26.99,80.27,26.99s80.27-12.08,80.27-26.99c0-13.44-29.22-24.58-67.47-26.64,38.25-2.06,67.47-13.2,67.47-26.64Z"/>
  </g>
</svg>